%FSLAX45Y45*%
G04 Gerber Fmt 4.5, Leading zero omitted, Abs format (unit mm)*
G04 Created by KiCad (PCBNEW 5.1.5+dfsg1-2build2) date 2023-01-01 14:21:48*
%MOMM*%
%LPD*%
G04 APERTURE LIST*
%TA.AperFunction,Profile*%
%ADD10C,0.050000*%
%TD*%
%ADD11C,0.200000*%
%ADD12C,0.300000*%
G04 APERTURE END LIST*
D10*
X20868000Y-12954000D02*
X20868000Y-4572000D01*
X15113000Y-12954000D02*
X20868000Y-12954000D01*
X15113000Y-4572000D02*
X20868000Y-4572000D01*
X15113000Y-12954000D02*
X15113000Y-4572000D01*
D11*
X17491000Y-7966000D02*
X17561000Y-8036000D01*
X17561000Y-7966000D02*
X17491000Y-8036000D01*
X17999000Y-7966000D02*
X18069000Y-8036000D01*
X18069000Y-7966000D02*
X17999000Y-8036000D01*
X17491000Y-8220000D02*
X17561000Y-8290000D01*
X17561000Y-8220000D02*
X17491000Y-8290000D01*
X17999000Y-8220000D02*
X18069000Y-8290000D01*
X18069000Y-8220000D02*
X17999000Y-8290000D01*
X17491000Y-8499400D02*
X17561000Y-8569400D01*
X17561000Y-8499400D02*
X17491000Y-8569400D01*
X17999000Y-8499400D02*
X18069000Y-8569400D01*
X18069000Y-8499400D02*
X17999000Y-8569400D01*
X18594700Y-9093200D02*
G75*
G03X18594700Y-9093200I-40000J0D01*
G01*
X18844700Y-9093200D02*
G75*
G03X18844700Y-9093200I-40000J0D01*
G01*
X17502500Y-5524500D02*
G75*
G03X17502500Y-5524500I-40000J0D01*
G01*
X17502500Y-6286500D02*
G75*
G03X17502500Y-6286500I-40000J0D01*
G01*
X17756500Y-5524500D02*
G75*
G03X17756500Y-5524500I-40000J0D01*
G01*
X17756500Y-6286500D02*
G75*
G03X17756500Y-6286500I-40000J0D01*
G01*
X17684300Y-7747000D02*
G75*
G03X17684300Y-7747000I-40000J0D01*
G01*
X17934300Y-7747000D02*
G75*
G03X17934300Y-7747000I-40000J0D01*
G01*
X19979000Y-11303000D02*
G75*
G03X19979000Y-11303000I-40000J0D01*
G01*
X20741000Y-11303000D02*
G75*
G03X20741000Y-11303000I-40000J0D01*
G01*
X18455000Y-5524500D02*
G75*
G03X18455000Y-5524500I-40000J0D01*
G01*
X18455000Y-6286500D02*
G75*
G03X18455000Y-6286500I-40000J0D01*
G01*
X18709000Y-5524500D02*
G75*
G03X18709000Y-5524500I-40000J0D01*
G01*
X18709000Y-6286500D02*
G75*
G03X18709000Y-6286500I-40000J0D01*
G01*
X18594700Y-8788400D02*
G75*
G03X18594700Y-8788400I-40000J0D01*
G01*
X18844700Y-8788400D02*
G75*
G03X18844700Y-8788400I-40000J0D01*
G01*
X15407000Y-11303000D02*
G75*
G03X15407000Y-11303000I-40000J0D01*
G01*
X16169000Y-11303000D02*
G75*
G03X16169000Y-11303000I-40000J0D01*
G01*
X19939000Y-12274000D02*
X19939000Y-12364000D01*
X19894000Y-12319000D02*
X19984000Y-12319000D01*
X20193000Y-12274000D02*
X20193000Y-12364000D01*
X20148000Y-12319000D02*
X20238000Y-12319000D01*
X15748000Y-12274000D02*
X15748000Y-12364000D01*
X15703000Y-12319000D02*
X15793000Y-12319000D01*
X16002000Y-12274000D02*
X16002000Y-12364000D01*
X15957000Y-12319000D02*
X16047000Y-12319000D01*
X17370856Y-4861356D02*
X17370856Y-4790644D01*
X17300144Y-4790644D01*
X17300144Y-4861356D01*
X17370856Y-4861356D01*
X16039356Y-6067856D02*
X16039356Y-5997144D01*
X15968644Y-5997144D01*
X15968644Y-6067856D01*
X16039356Y-6067856D01*
X16799356Y-6067856D02*
X16799356Y-5997144D01*
X16728644Y-5997144D01*
X16728644Y-6067856D01*
X16799356Y-6067856D01*
X15698356Y-8389356D02*
X15698356Y-8318644D01*
X15627644Y-8318644D01*
X15627644Y-8389356D01*
X15698356Y-8389356D01*
X15698356Y-8643356D02*
X15698356Y-8572644D01*
X15627644Y-8572644D01*
X15627644Y-8643356D01*
X15698356Y-8643356D01*
X15698356Y-8897356D02*
X15698356Y-8826644D01*
X15627644Y-8826644D01*
X15627644Y-8897356D01*
X15698356Y-8897356D01*
X15698356Y-9151356D02*
X15698356Y-9080644D01*
X15627644Y-9080644D01*
X15627644Y-9151356D01*
X15698356Y-9151356D01*
X15698356Y-9405356D02*
X15698356Y-9334644D01*
X15627644Y-9334644D01*
X15627644Y-9405356D01*
X15698356Y-9405356D01*
X15698356Y-9659356D02*
X15698356Y-9588644D01*
X15627644Y-9588644D01*
X15627644Y-9659356D01*
X15698356Y-9659356D01*
X15698356Y-9913356D02*
X15698356Y-9842644D01*
X15627644Y-9842644D01*
X15627644Y-9913356D01*
X15698356Y-9913356D01*
X15698356Y-10167356D02*
X15698356Y-10096644D01*
X15627644Y-10096644D01*
X15627644Y-10167356D01*
X15698356Y-10167356D01*
X15698356Y-10421356D02*
X15698356Y-10350644D01*
X15627644Y-10350644D01*
X15627644Y-10421356D01*
X15698356Y-10421356D01*
X15698356Y-10675356D02*
X15698356Y-10604644D01*
X15627644Y-10604644D01*
X15627644Y-10675356D01*
X15698356Y-10675356D01*
X15952356Y-8389356D02*
X15952356Y-8318644D01*
X15881644Y-8318644D01*
X15881644Y-8389356D01*
X15952356Y-8389356D01*
X15952356Y-8643356D02*
X15952356Y-8572644D01*
X15881644Y-8572644D01*
X15881644Y-8643356D01*
X15952356Y-8643356D01*
X15952356Y-8897356D02*
X15952356Y-8826644D01*
X15881644Y-8826644D01*
X15881644Y-8897356D01*
X15952356Y-8897356D01*
X15952356Y-9151356D02*
X15952356Y-9080644D01*
X15881644Y-9080644D01*
X15881644Y-9151356D01*
X15952356Y-9151356D01*
X15952356Y-9405356D02*
X15952356Y-9334644D01*
X15881644Y-9334644D01*
X15881644Y-9405356D01*
X15952356Y-9405356D01*
X15952356Y-9659356D02*
X15952356Y-9588644D01*
X15881644Y-9588644D01*
X15881644Y-9659356D01*
X15952356Y-9659356D01*
X15952356Y-9913356D02*
X15952356Y-9842644D01*
X15881644Y-9842644D01*
X15881644Y-9913356D01*
X15952356Y-9913356D01*
X15952356Y-10167356D02*
X15952356Y-10096644D01*
X15881644Y-10096644D01*
X15881644Y-10167356D01*
X15952356Y-10167356D01*
X15952356Y-10421356D02*
X15952356Y-10350644D01*
X15881644Y-10350644D01*
X15881644Y-10421356D01*
X15952356Y-10421356D01*
X15952356Y-10675356D02*
X15952356Y-10604644D01*
X15881644Y-10604644D01*
X15881644Y-10675356D01*
X15952356Y-10675356D01*
X18577356Y-4861356D02*
X18577356Y-4790644D01*
X18506644Y-4790644D01*
X18506644Y-4861356D01*
X18577356Y-4861356D01*
X18831356Y-4861356D02*
X18831356Y-4790644D01*
X18760644Y-4790644D01*
X18760644Y-4861356D01*
X18831356Y-4861356D01*
X19085356Y-4861356D02*
X19085356Y-4790644D01*
X19014644Y-4790644D01*
X19014644Y-4861356D01*
X19085356Y-4861356D01*
X19339356Y-4861356D02*
X19339356Y-4790644D01*
X19268644Y-4790644D01*
X19268644Y-4861356D01*
X19339356Y-4861356D01*
X19593356Y-4861356D02*
X19593356Y-4790644D01*
X19522644Y-4790644D01*
X19522644Y-4861356D01*
X19593356Y-4861356D01*
X19847356Y-4861356D02*
X19847356Y-4790644D01*
X19776644Y-4790644D01*
X19776644Y-4861356D01*
X19847356Y-4861356D01*
X20098356Y-8389356D02*
X20098356Y-8318644D01*
X20027644Y-8318644D01*
X20027644Y-8389356D01*
X20098356Y-8389356D01*
X20098356Y-8643356D02*
X20098356Y-8572644D01*
X20027644Y-8572644D01*
X20027644Y-8643356D01*
X20098356Y-8643356D01*
X20098356Y-8897356D02*
X20098356Y-8826644D01*
X20027644Y-8826644D01*
X20027644Y-8897356D01*
X20098356Y-8897356D01*
X20098356Y-9151356D02*
X20098356Y-9080644D01*
X20027644Y-9080644D01*
X20027644Y-9151356D01*
X20098356Y-9151356D01*
X20098356Y-9405356D02*
X20098356Y-9334644D01*
X20027644Y-9334644D01*
X20027644Y-9405356D01*
X20098356Y-9405356D01*
X20098356Y-9659356D02*
X20098356Y-9588644D01*
X20027644Y-9588644D01*
X20027644Y-9659356D01*
X20098356Y-9659356D01*
X20098356Y-9913356D02*
X20098356Y-9842644D01*
X20027644Y-9842644D01*
X20027644Y-9913356D01*
X20098356Y-9913356D01*
X20098356Y-10167356D02*
X20098356Y-10096644D01*
X20027644Y-10096644D01*
X20027644Y-10167356D01*
X20098356Y-10167356D01*
X20098356Y-10421356D02*
X20098356Y-10350644D01*
X20027644Y-10350644D01*
X20027644Y-10421356D01*
X20098356Y-10421356D01*
X20098356Y-10675356D02*
X20098356Y-10604644D01*
X20027644Y-10604644D01*
X20027644Y-10675356D01*
X20098356Y-10675356D01*
X20352356Y-8389356D02*
X20352356Y-8318644D01*
X20281644Y-8318644D01*
X20281644Y-8389356D01*
X20352356Y-8389356D01*
X20352356Y-8643356D02*
X20352356Y-8572644D01*
X20281644Y-8572644D01*
X20281644Y-8643356D01*
X20352356Y-8643356D01*
X20352356Y-8897356D02*
X20352356Y-8826644D01*
X20281644Y-8826644D01*
X20281644Y-8897356D01*
X20352356Y-8897356D01*
X20352356Y-9151356D02*
X20352356Y-9080644D01*
X20281644Y-9080644D01*
X20281644Y-9151356D01*
X20352356Y-9151356D01*
X20352356Y-9405356D02*
X20352356Y-9334644D01*
X20281644Y-9334644D01*
X20281644Y-9405356D01*
X20352356Y-9405356D01*
X20352356Y-9659356D02*
X20352356Y-9588644D01*
X20281644Y-9588644D01*
X20281644Y-9659356D01*
X20352356Y-9659356D01*
X20352356Y-9913356D02*
X20352356Y-9842644D01*
X20281644Y-9842644D01*
X20281644Y-9913356D01*
X20352356Y-9913356D01*
X20352356Y-10167356D02*
X20352356Y-10096644D01*
X20281644Y-10096644D01*
X20281644Y-10167356D01*
X20352356Y-10167356D01*
X20352356Y-10421356D02*
X20352356Y-10350644D01*
X20281644Y-10350644D01*
X20281644Y-10421356D01*
X20352356Y-10421356D01*
X20352356Y-10675356D02*
X20352356Y-10604644D01*
X20281644Y-10604644D01*
X20281644Y-10675356D01*
X20352356Y-10675356D01*
X17272000Y-7226500D02*
X17323000Y-7175500D01*
X17272000Y-7124500D01*
X17221000Y-7175500D01*
X17272000Y-7226500D01*
X18771000Y-7226500D02*
X18822000Y-7175500D01*
X18771000Y-7124500D01*
X18720000Y-7175500D01*
X18771000Y-7226500D01*
D12*
X15396928Y-13422214D02*
X15396928Y-13122214D01*
X15468357Y-13122214D01*
X15511214Y-13136500D01*
X15539786Y-13165071D01*
X15554071Y-13193643D01*
X15568357Y-13250786D01*
X15568357Y-13293643D01*
X15554071Y-13350786D01*
X15539786Y-13379357D01*
X15511214Y-13407929D01*
X15468357Y-13422214D01*
X15396928Y-13422214D01*
X15696928Y-13422214D02*
X15696928Y-13222214D01*
X15696928Y-13279357D02*
X15711214Y-13250786D01*
X15725500Y-13236500D01*
X15754071Y-13222214D01*
X15782643Y-13222214D01*
X15882643Y-13422214D02*
X15882643Y-13222214D01*
X15882643Y-13122214D02*
X15868357Y-13136500D01*
X15882643Y-13150786D01*
X15896928Y-13136500D01*
X15882643Y-13122214D01*
X15882643Y-13150786D01*
X16068357Y-13422214D02*
X16039786Y-13407929D01*
X16025500Y-13379357D01*
X16025500Y-13122214D01*
X16225500Y-13422214D02*
X16196928Y-13407929D01*
X16182643Y-13379357D01*
X16182643Y-13122214D01*
X16568357Y-13422214D02*
X16568357Y-13122214D01*
X16668357Y-13336500D01*
X16768357Y-13122214D01*
X16768357Y-13422214D01*
X17039786Y-13422214D02*
X17039786Y-13265071D01*
X17025500Y-13236500D01*
X16996928Y-13222214D01*
X16939786Y-13222214D01*
X16911214Y-13236500D01*
X17039786Y-13407929D02*
X17011214Y-13422214D01*
X16939786Y-13422214D01*
X16911214Y-13407929D01*
X16896928Y-13379357D01*
X16896928Y-13350786D01*
X16911214Y-13322214D01*
X16939786Y-13307929D01*
X17011214Y-13307929D01*
X17039786Y-13293643D01*
X17182643Y-13222214D02*
X17182643Y-13522214D01*
X17182643Y-13236500D02*
X17211214Y-13222214D01*
X17268357Y-13222214D01*
X17296928Y-13236500D01*
X17311214Y-13250786D01*
X17325500Y-13279357D01*
X17325500Y-13365071D01*
X17311214Y-13393643D01*
X17296928Y-13407929D01*
X17268357Y-13422214D01*
X17211214Y-13422214D01*
X17182643Y-13407929D01*
X17454071Y-13393643D02*
X17468357Y-13407929D01*
X17454071Y-13422214D01*
X17439786Y-13407929D01*
X17454071Y-13393643D01*
X17454071Y-13422214D01*
X17454071Y-13236500D02*
X17468357Y-13250786D01*
X17454071Y-13265071D01*
X17439786Y-13250786D01*
X17454071Y-13236500D01*
X17454071Y-13265071D01*
X15040500Y-13881500D02*
X15110500Y-13951500D01*
X15110500Y-13881500D02*
X15040500Y-13951500D01*
X15454071Y-13752214D02*
X15482643Y-13752214D01*
X15511214Y-13766500D01*
X15525500Y-13780786D01*
X15539786Y-13809357D01*
X15554071Y-13866500D01*
X15554071Y-13937929D01*
X15539786Y-13995071D01*
X15525500Y-14023643D01*
X15511214Y-14037929D01*
X15482643Y-14052214D01*
X15454071Y-14052214D01*
X15425500Y-14037929D01*
X15411214Y-14023643D01*
X15396928Y-13995071D01*
X15382643Y-13937929D01*
X15382643Y-13866500D01*
X15396928Y-13809357D01*
X15411214Y-13780786D01*
X15425500Y-13766500D01*
X15454071Y-13752214D01*
X15682643Y-14023643D02*
X15696928Y-14037929D01*
X15682643Y-14052214D01*
X15668357Y-14037929D01*
X15682643Y-14023643D01*
X15682643Y-14052214D01*
X15796928Y-13752214D02*
X15996928Y-13752214D01*
X15868357Y-14052214D01*
X16168357Y-13752214D02*
X16196928Y-13752214D01*
X16225500Y-13766500D01*
X16239786Y-13780786D01*
X16254071Y-13809357D01*
X16268357Y-13866500D01*
X16268357Y-13937929D01*
X16254071Y-13995071D01*
X16239786Y-14023643D01*
X16225500Y-14037929D01*
X16196928Y-14052214D01*
X16168357Y-14052214D01*
X16139786Y-14037929D01*
X16125500Y-14023643D01*
X16111214Y-13995071D01*
X16096928Y-13937929D01*
X16096928Y-13866500D01*
X16111214Y-13809357D01*
X16125500Y-13780786D01*
X16139786Y-13766500D01*
X16168357Y-13752214D01*
X16396928Y-14052214D02*
X16396928Y-13852214D01*
X16396928Y-13880786D02*
X16411214Y-13866500D01*
X16439786Y-13852214D01*
X16482643Y-13852214D01*
X16511214Y-13866500D01*
X16525500Y-13895071D01*
X16525500Y-14052214D01*
X16525500Y-13895071D02*
X16539786Y-13866500D01*
X16568357Y-13852214D01*
X16611214Y-13852214D01*
X16639786Y-13866500D01*
X16654071Y-13895071D01*
X16654071Y-14052214D01*
X16796928Y-14052214D02*
X16796928Y-13852214D01*
X16796928Y-13880786D02*
X16811214Y-13866500D01*
X16839786Y-13852214D01*
X16882643Y-13852214D01*
X16911214Y-13866500D01*
X16925500Y-13895071D01*
X16925500Y-14052214D01*
X16925500Y-13895071D02*
X16939786Y-13866500D01*
X16968357Y-13852214D01*
X17011214Y-13852214D01*
X17039786Y-13866500D01*
X17054071Y-13895071D01*
X17054071Y-14052214D01*
X17639786Y-13737929D02*
X17382643Y-14123643D01*
X18025500Y-13752214D02*
X18054071Y-13752214D01*
X18082643Y-13766500D01*
X18096928Y-13780786D01*
X18111214Y-13809357D01*
X18125500Y-13866500D01*
X18125500Y-13937929D01*
X18111214Y-13995071D01*
X18096928Y-14023643D01*
X18082643Y-14037929D01*
X18054071Y-14052214D01*
X18025500Y-14052214D01*
X17996928Y-14037929D01*
X17982643Y-14023643D01*
X17968357Y-13995071D01*
X17954071Y-13937929D01*
X17954071Y-13866500D01*
X17968357Y-13809357D01*
X17982643Y-13780786D01*
X17996928Y-13766500D01*
X18025500Y-13752214D01*
X18254071Y-14023643D02*
X18268357Y-14037929D01*
X18254071Y-14052214D01*
X18239786Y-14037929D01*
X18254071Y-14023643D01*
X18254071Y-14052214D01*
X18454071Y-13752214D02*
X18482643Y-13752214D01*
X18511214Y-13766500D01*
X18525500Y-13780786D01*
X18539786Y-13809357D01*
X18554071Y-13866500D01*
X18554071Y-13937929D01*
X18539786Y-13995071D01*
X18525500Y-14023643D01*
X18511214Y-14037929D01*
X18482643Y-14052214D01*
X18454071Y-14052214D01*
X18425500Y-14037929D01*
X18411214Y-14023643D01*
X18396928Y-13995071D01*
X18382643Y-13937929D01*
X18382643Y-13866500D01*
X18396928Y-13809357D01*
X18411214Y-13780786D01*
X18425500Y-13766500D01*
X18454071Y-13752214D01*
X18668357Y-13780786D02*
X18682643Y-13766500D01*
X18711214Y-13752214D01*
X18782643Y-13752214D01*
X18811214Y-13766500D01*
X18825500Y-13780786D01*
X18839786Y-13809357D01*
X18839786Y-13837929D01*
X18825500Y-13880786D01*
X18654071Y-14052214D01*
X18839786Y-14052214D01*
X19011214Y-13880786D02*
X18982643Y-13866500D01*
X18968357Y-13852214D01*
X18954071Y-13823643D01*
X18954071Y-13809357D01*
X18968357Y-13780786D01*
X18982643Y-13766500D01*
X19011214Y-13752214D01*
X19068357Y-13752214D01*
X19096928Y-13766500D01*
X19111214Y-13780786D01*
X19125500Y-13809357D01*
X19125500Y-13823643D01*
X19111214Y-13852214D01*
X19096928Y-13866500D01*
X19068357Y-13880786D01*
X19011214Y-13880786D01*
X18982643Y-13895071D01*
X18968357Y-13909357D01*
X18954071Y-13937929D01*
X18954071Y-13995071D01*
X18968357Y-14023643D01*
X18982643Y-14037929D01*
X19011214Y-14052214D01*
X19068357Y-14052214D01*
X19096928Y-14037929D01*
X19111214Y-14023643D01*
X19125500Y-13995071D01*
X19125500Y-13937929D01*
X19111214Y-13909357D01*
X19096928Y-13895071D01*
X19068357Y-13880786D01*
X19239786Y-13752214D02*
X19239786Y-13809357D01*
X19354071Y-13752214D02*
X19354071Y-13809357D01*
X19796928Y-14166500D02*
X19782643Y-14152214D01*
X19754071Y-14109357D01*
X19739786Y-14080786D01*
X19725500Y-14037929D01*
X19711214Y-13966500D01*
X19711214Y-13909357D01*
X19725500Y-13837929D01*
X19739786Y-13795071D01*
X19754071Y-13766500D01*
X19782643Y-13723643D01*
X19796928Y-13709357D01*
X20039786Y-13752214D02*
X19982643Y-13752214D01*
X19954071Y-13766500D01*
X19939786Y-13780786D01*
X19911214Y-13823643D01*
X19896928Y-13880786D01*
X19896928Y-13995071D01*
X19911214Y-14023643D01*
X19925500Y-14037929D01*
X19954071Y-14052214D01*
X20011214Y-14052214D01*
X20039786Y-14037929D01*
X20054071Y-14023643D01*
X20068357Y-13995071D01*
X20068357Y-13923643D01*
X20054071Y-13895071D01*
X20039786Y-13880786D01*
X20011214Y-13866500D01*
X19954071Y-13866500D01*
X19925500Y-13880786D01*
X19911214Y-13895071D01*
X19896928Y-13923643D01*
X20425500Y-14052214D02*
X20425500Y-13752214D01*
X20554071Y-14052214D02*
X20554071Y-13895071D01*
X20539786Y-13866500D01*
X20511214Y-13852214D01*
X20468357Y-13852214D01*
X20439786Y-13866500D01*
X20425500Y-13880786D01*
X20739786Y-14052214D02*
X20711214Y-14037929D01*
X20696928Y-14023643D01*
X20682643Y-13995071D01*
X20682643Y-13909357D01*
X20696928Y-13880786D01*
X20711214Y-13866500D01*
X20739786Y-13852214D01*
X20782643Y-13852214D01*
X20811214Y-13866500D01*
X20825500Y-13880786D01*
X20839786Y-13909357D01*
X20839786Y-13995071D01*
X20825500Y-14023643D01*
X20811214Y-14037929D01*
X20782643Y-14052214D01*
X20739786Y-14052214D01*
X21011214Y-14052214D02*
X20982643Y-14037929D01*
X20968357Y-14009357D01*
X20968357Y-13752214D01*
X21239786Y-14037929D02*
X21211214Y-14052214D01*
X21154071Y-14052214D01*
X21125500Y-14037929D01*
X21111214Y-14009357D01*
X21111214Y-13895071D01*
X21125500Y-13866500D01*
X21154071Y-13852214D01*
X21211214Y-13852214D01*
X21239786Y-13866500D01*
X21254071Y-13895071D01*
X21254071Y-13923643D01*
X21111214Y-13952214D01*
X21368357Y-14037929D02*
X21396928Y-14052214D01*
X21454071Y-14052214D01*
X21482643Y-14037929D01*
X21496928Y-14009357D01*
X21496928Y-13995071D01*
X21482643Y-13966500D01*
X21454071Y-13952214D01*
X21411214Y-13952214D01*
X21382643Y-13937929D01*
X21368357Y-13909357D01*
X21368357Y-13895071D01*
X21382643Y-13866500D01*
X21411214Y-13852214D01*
X21454071Y-13852214D01*
X21482643Y-13866500D01*
X21596928Y-14166500D02*
X21611214Y-14152214D01*
X21639786Y-14109357D01*
X21654071Y-14080786D01*
X21668357Y-14037929D01*
X21682643Y-13966500D01*
X21682643Y-13909357D01*
X21668357Y-13837929D01*
X21654071Y-13795071D01*
X21639786Y-13766500D01*
X21611214Y-13723643D01*
X21596928Y-13709357D01*
X15110500Y-14312500D02*
G75*
G03X15110500Y-14312500I-40000J0D01*
G01*
X15454071Y-14148214D02*
X15482643Y-14148214D01*
X15511214Y-14162500D01*
X15525500Y-14176786D01*
X15539786Y-14205357D01*
X15554071Y-14262500D01*
X15554071Y-14333929D01*
X15539786Y-14391071D01*
X15525500Y-14419643D01*
X15511214Y-14433929D01*
X15482643Y-14448214D01*
X15454071Y-14448214D01*
X15425500Y-14433929D01*
X15411214Y-14419643D01*
X15396928Y-14391071D01*
X15382643Y-14333929D01*
X15382643Y-14262500D01*
X15396928Y-14205357D01*
X15411214Y-14176786D01*
X15425500Y-14162500D01*
X15454071Y-14148214D01*
X15682643Y-14419643D02*
X15696928Y-14433929D01*
X15682643Y-14448214D01*
X15668357Y-14433929D01*
X15682643Y-14419643D01*
X15682643Y-14448214D01*
X15868357Y-14276786D02*
X15839786Y-14262500D01*
X15825500Y-14248214D01*
X15811214Y-14219643D01*
X15811214Y-14205357D01*
X15825500Y-14176786D01*
X15839786Y-14162500D01*
X15868357Y-14148214D01*
X15925500Y-14148214D01*
X15954071Y-14162500D01*
X15968357Y-14176786D01*
X15982643Y-14205357D01*
X15982643Y-14219643D01*
X15968357Y-14248214D01*
X15954071Y-14262500D01*
X15925500Y-14276786D01*
X15868357Y-14276786D01*
X15839786Y-14291071D01*
X15825500Y-14305357D01*
X15811214Y-14333929D01*
X15811214Y-14391071D01*
X15825500Y-14419643D01*
X15839786Y-14433929D01*
X15868357Y-14448214D01*
X15925500Y-14448214D01*
X15954071Y-14433929D01*
X15968357Y-14419643D01*
X15982643Y-14391071D01*
X15982643Y-14333929D01*
X15968357Y-14305357D01*
X15954071Y-14291071D01*
X15925500Y-14276786D01*
X16168357Y-14148214D02*
X16196928Y-14148214D01*
X16225500Y-14162500D01*
X16239786Y-14176786D01*
X16254071Y-14205357D01*
X16268357Y-14262500D01*
X16268357Y-14333929D01*
X16254071Y-14391071D01*
X16239786Y-14419643D01*
X16225500Y-14433929D01*
X16196928Y-14448214D01*
X16168357Y-14448214D01*
X16139786Y-14433929D01*
X16125500Y-14419643D01*
X16111214Y-14391071D01*
X16096928Y-14333929D01*
X16096928Y-14262500D01*
X16111214Y-14205357D01*
X16125500Y-14176786D01*
X16139786Y-14162500D01*
X16168357Y-14148214D01*
X16396928Y-14448214D02*
X16396928Y-14248214D01*
X16396928Y-14276786D02*
X16411214Y-14262500D01*
X16439786Y-14248214D01*
X16482643Y-14248214D01*
X16511214Y-14262500D01*
X16525500Y-14291071D01*
X16525500Y-14448214D01*
X16525500Y-14291071D02*
X16539786Y-14262500D01*
X16568357Y-14248214D01*
X16611214Y-14248214D01*
X16639786Y-14262500D01*
X16654071Y-14291071D01*
X16654071Y-14448214D01*
X16796928Y-14448214D02*
X16796928Y-14248214D01*
X16796928Y-14276786D02*
X16811214Y-14262500D01*
X16839786Y-14248214D01*
X16882643Y-14248214D01*
X16911214Y-14262500D01*
X16925500Y-14291071D01*
X16925500Y-14448214D01*
X16925500Y-14291071D02*
X16939786Y-14262500D01*
X16968357Y-14248214D01*
X17011214Y-14248214D01*
X17039786Y-14262500D01*
X17054071Y-14291071D01*
X17054071Y-14448214D01*
X17639786Y-14133929D02*
X17382643Y-14519643D01*
X18025500Y-14148214D02*
X18054071Y-14148214D01*
X18082643Y-14162500D01*
X18096928Y-14176786D01*
X18111214Y-14205357D01*
X18125500Y-14262500D01*
X18125500Y-14333929D01*
X18111214Y-14391071D01*
X18096928Y-14419643D01*
X18082643Y-14433929D01*
X18054071Y-14448214D01*
X18025500Y-14448214D01*
X17996928Y-14433929D01*
X17982643Y-14419643D01*
X17968357Y-14391071D01*
X17954071Y-14333929D01*
X17954071Y-14262500D01*
X17968357Y-14205357D01*
X17982643Y-14176786D01*
X17996928Y-14162500D01*
X18025500Y-14148214D01*
X18254071Y-14419643D02*
X18268357Y-14433929D01*
X18254071Y-14448214D01*
X18239786Y-14433929D01*
X18254071Y-14419643D01*
X18254071Y-14448214D01*
X18454071Y-14148214D02*
X18482643Y-14148214D01*
X18511214Y-14162500D01*
X18525500Y-14176786D01*
X18539786Y-14205357D01*
X18554071Y-14262500D01*
X18554071Y-14333929D01*
X18539786Y-14391071D01*
X18525500Y-14419643D01*
X18511214Y-14433929D01*
X18482643Y-14448214D01*
X18454071Y-14448214D01*
X18425500Y-14433929D01*
X18411214Y-14419643D01*
X18396928Y-14391071D01*
X18382643Y-14333929D01*
X18382643Y-14262500D01*
X18396928Y-14205357D01*
X18411214Y-14176786D01*
X18425500Y-14162500D01*
X18454071Y-14148214D01*
X18654071Y-14148214D02*
X18839786Y-14148214D01*
X18739786Y-14262500D01*
X18782643Y-14262500D01*
X18811214Y-14276786D01*
X18825500Y-14291071D01*
X18839786Y-14319643D01*
X18839786Y-14391071D01*
X18825500Y-14419643D01*
X18811214Y-14433929D01*
X18782643Y-14448214D01*
X18696928Y-14448214D01*
X18668357Y-14433929D01*
X18654071Y-14419643D01*
X19125500Y-14448214D02*
X18954071Y-14448214D01*
X19039786Y-14448214D02*
X19039786Y-14148214D01*
X19011214Y-14191071D01*
X18982643Y-14219643D01*
X18954071Y-14233929D01*
X19239786Y-14148214D02*
X19239786Y-14205357D01*
X19354071Y-14148214D02*
X19354071Y-14205357D01*
X19796928Y-14562500D02*
X19782643Y-14548214D01*
X19754071Y-14505357D01*
X19739786Y-14476786D01*
X19725500Y-14433929D01*
X19711214Y-14362500D01*
X19711214Y-14305357D01*
X19725500Y-14233929D01*
X19739786Y-14191071D01*
X19754071Y-14162500D01*
X19782643Y-14119643D01*
X19796928Y-14105357D01*
X20068357Y-14448214D02*
X19896928Y-14448214D01*
X19982643Y-14448214D02*
X19982643Y-14148214D01*
X19954071Y-14191071D01*
X19925500Y-14219643D01*
X19896928Y-14233929D01*
X20239786Y-14276786D02*
X20211214Y-14262500D01*
X20196928Y-14248214D01*
X20182643Y-14219643D01*
X20182643Y-14205357D01*
X20196928Y-14176786D01*
X20211214Y-14162500D01*
X20239786Y-14148214D01*
X20296928Y-14148214D01*
X20325500Y-14162500D01*
X20339786Y-14176786D01*
X20354071Y-14205357D01*
X20354071Y-14219643D01*
X20339786Y-14248214D01*
X20325500Y-14262500D01*
X20296928Y-14276786D01*
X20239786Y-14276786D01*
X20211214Y-14291071D01*
X20196928Y-14305357D01*
X20182643Y-14333929D01*
X20182643Y-14391071D01*
X20196928Y-14419643D01*
X20211214Y-14433929D01*
X20239786Y-14448214D01*
X20296928Y-14448214D01*
X20325500Y-14433929D01*
X20339786Y-14419643D01*
X20354071Y-14391071D01*
X20354071Y-14333929D01*
X20339786Y-14305357D01*
X20325500Y-14291071D01*
X20296928Y-14276786D01*
X20711214Y-14448214D02*
X20711214Y-14148214D01*
X20839786Y-14448214D02*
X20839786Y-14291071D01*
X20825500Y-14262500D01*
X20796928Y-14248214D01*
X20754071Y-14248214D01*
X20725500Y-14262500D01*
X20711214Y-14276786D01*
X21025500Y-14448214D02*
X20996928Y-14433929D01*
X20982643Y-14419643D01*
X20968357Y-14391071D01*
X20968357Y-14305357D01*
X20982643Y-14276786D01*
X20996928Y-14262500D01*
X21025500Y-14248214D01*
X21068357Y-14248214D01*
X21096928Y-14262500D01*
X21111214Y-14276786D01*
X21125500Y-14305357D01*
X21125500Y-14391071D01*
X21111214Y-14419643D01*
X21096928Y-14433929D01*
X21068357Y-14448214D01*
X21025500Y-14448214D01*
X21296928Y-14448214D02*
X21268357Y-14433929D01*
X21254071Y-14405357D01*
X21254071Y-14148214D01*
X21525500Y-14433929D02*
X21496928Y-14448214D01*
X21439786Y-14448214D01*
X21411214Y-14433929D01*
X21396928Y-14405357D01*
X21396928Y-14291071D01*
X21411214Y-14262500D01*
X21439786Y-14248214D01*
X21496928Y-14248214D01*
X21525500Y-14262500D01*
X21539786Y-14291071D01*
X21539786Y-14319643D01*
X21396928Y-14348214D01*
X21654071Y-14433929D02*
X21682643Y-14448214D01*
X21739786Y-14448214D01*
X21768357Y-14433929D01*
X21782643Y-14405357D01*
X21782643Y-14391071D01*
X21768357Y-14362500D01*
X21739786Y-14348214D01*
X21696928Y-14348214D01*
X21668357Y-14333929D01*
X21654071Y-14305357D01*
X21654071Y-14291071D01*
X21668357Y-14262500D01*
X21696928Y-14248214D01*
X21739786Y-14248214D01*
X21768357Y-14262500D01*
X21882643Y-14562500D02*
X21896928Y-14548214D01*
X21925500Y-14505357D01*
X21939786Y-14476786D01*
X21954071Y-14433929D01*
X21968357Y-14362500D01*
X21968357Y-14305357D01*
X21954071Y-14233929D01*
X21939786Y-14191071D01*
X21925500Y-14162500D01*
X21896928Y-14119643D01*
X21882643Y-14105357D01*
X15065500Y-14663500D02*
X15065500Y-14753500D01*
X15020500Y-14708500D02*
X15110500Y-14708500D01*
X15454071Y-14544214D02*
X15482643Y-14544214D01*
X15511214Y-14558500D01*
X15525500Y-14572786D01*
X15539786Y-14601357D01*
X15554071Y-14658500D01*
X15554071Y-14729929D01*
X15539786Y-14787071D01*
X15525500Y-14815643D01*
X15511214Y-14829929D01*
X15482643Y-14844214D01*
X15454071Y-14844214D01*
X15425500Y-14829929D01*
X15411214Y-14815643D01*
X15396928Y-14787071D01*
X15382643Y-14729929D01*
X15382643Y-14658500D01*
X15396928Y-14601357D01*
X15411214Y-14572786D01*
X15425500Y-14558500D01*
X15454071Y-14544214D01*
X15682643Y-14815643D02*
X15696928Y-14829929D01*
X15682643Y-14844214D01*
X15668357Y-14829929D01*
X15682643Y-14815643D01*
X15682643Y-14844214D01*
X15839786Y-14844214D02*
X15896928Y-14844214D01*
X15925500Y-14829929D01*
X15939786Y-14815643D01*
X15968357Y-14772786D01*
X15982643Y-14715643D01*
X15982643Y-14601357D01*
X15968357Y-14572786D01*
X15954071Y-14558500D01*
X15925500Y-14544214D01*
X15868357Y-14544214D01*
X15839786Y-14558500D01*
X15825500Y-14572786D01*
X15811214Y-14601357D01*
X15811214Y-14672786D01*
X15825500Y-14701357D01*
X15839786Y-14715643D01*
X15868357Y-14729929D01*
X15925500Y-14729929D01*
X15954071Y-14715643D01*
X15968357Y-14701357D01*
X15982643Y-14672786D01*
X16168357Y-14544214D02*
X16196928Y-14544214D01*
X16225500Y-14558500D01*
X16239786Y-14572786D01*
X16254071Y-14601357D01*
X16268357Y-14658500D01*
X16268357Y-14729929D01*
X16254071Y-14787071D01*
X16239786Y-14815643D01*
X16225500Y-14829929D01*
X16196928Y-14844214D01*
X16168357Y-14844214D01*
X16139786Y-14829929D01*
X16125500Y-14815643D01*
X16111214Y-14787071D01*
X16096928Y-14729929D01*
X16096928Y-14658500D01*
X16111214Y-14601357D01*
X16125500Y-14572786D01*
X16139786Y-14558500D01*
X16168357Y-14544214D01*
X16396928Y-14844214D02*
X16396928Y-14644214D01*
X16396928Y-14672786D02*
X16411214Y-14658500D01*
X16439786Y-14644214D01*
X16482643Y-14644214D01*
X16511214Y-14658500D01*
X16525500Y-14687071D01*
X16525500Y-14844214D01*
X16525500Y-14687071D02*
X16539786Y-14658500D01*
X16568357Y-14644214D01*
X16611214Y-14644214D01*
X16639786Y-14658500D01*
X16654071Y-14687071D01*
X16654071Y-14844214D01*
X16796928Y-14844214D02*
X16796928Y-14644214D01*
X16796928Y-14672786D02*
X16811214Y-14658500D01*
X16839786Y-14644214D01*
X16882643Y-14644214D01*
X16911214Y-14658500D01*
X16925500Y-14687071D01*
X16925500Y-14844214D01*
X16925500Y-14687071D02*
X16939786Y-14658500D01*
X16968357Y-14644214D01*
X17011214Y-14644214D01*
X17039786Y-14658500D01*
X17054071Y-14687071D01*
X17054071Y-14844214D01*
X17639786Y-14529929D02*
X17382643Y-14915643D01*
X18025500Y-14544214D02*
X18054071Y-14544214D01*
X18082643Y-14558500D01*
X18096928Y-14572786D01*
X18111214Y-14601357D01*
X18125500Y-14658500D01*
X18125500Y-14729929D01*
X18111214Y-14787071D01*
X18096928Y-14815643D01*
X18082643Y-14829929D01*
X18054071Y-14844214D01*
X18025500Y-14844214D01*
X17996928Y-14829929D01*
X17982643Y-14815643D01*
X17968357Y-14787071D01*
X17954071Y-14729929D01*
X17954071Y-14658500D01*
X17968357Y-14601357D01*
X17982643Y-14572786D01*
X17996928Y-14558500D01*
X18025500Y-14544214D01*
X18254071Y-14815643D02*
X18268357Y-14829929D01*
X18254071Y-14844214D01*
X18239786Y-14829929D01*
X18254071Y-14815643D01*
X18254071Y-14844214D01*
X18454071Y-14544214D02*
X18482643Y-14544214D01*
X18511214Y-14558500D01*
X18525500Y-14572786D01*
X18539786Y-14601357D01*
X18554071Y-14658500D01*
X18554071Y-14729929D01*
X18539786Y-14787071D01*
X18525500Y-14815643D01*
X18511214Y-14829929D01*
X18482643Y-14844214D01*
X18454071Y-14844214D01*
X18425500Y-14829929D01*
X18411214Y-14815643D01*
X18396928Y-14787071D01*
X18382643Y-14729929D01*
X18382643Y-14658500D01*
X18396928Y-14601357D01*
X18411214Y-14572786D01*
X18425500Y-14558500D01*
X18454071Y-14544214D01*
X18654071Y-14544214D02*
X18839786Y-14544214D01*
X18739786Y-14658500D01*
X18782643Y-14658500D01*
X18811214Y-14672786D01*
X18825500Y-14687071D01*
X18839786Y-14715643D01*
X18839786Y-14787071D01*
X18825500Y-14815643D01*
X18811214Y-14829929D01*
X18782643Y-14844214D01*
X18696928Y-14844214D01*
X18668357Y-14829929D01*
X18654071Y-14815643D01*
X19111214Y-14544214D02*
X18968357Y-14544214D01*
X18954071Y-14687071D01*
X18968357Y-14672786D01*
X18996928Y-14658500D01*
X19068357Y-14658500D01*
X19096928Y-14672786D01*
X19111214Y-14687071D01*
X19125500Y-14715643D01*
X19125500Y-14787071D01*
X19111214Y-14815643D01*
X19096928Y-14829929D01*
X19068357Y-14844214D01*
X18996928Y-14844214D01*
X18968357Y-14829929D01*
X18954071Y-14815643D01*
X19239786Y-14544214D02*
X19239786Y-14601357D01*
X19354071Y-14544214D02*
X19354071Y-14601357D01*
X19796928Y-14958500D02*
X19782643Y-14944214D01*
X19754071Y-14901357D01*
X19739786Y-14872786D01*
X19725500Y-14829929D01*
X19711214Y-14758500D01*
X19711214Y-14701357D01*
X19725500Y-14629929D01*
X19739786Y-14587071D01*
X19754071Y-14558500D01*
X19782643Y-14515643D01*
X19796928Y-14501357D01*
X20039786Y-14644214D02*
X20039786Y-14844214D01*
X19968357Y-14529929D02*
X19896928Y-14744214D01*
X20082643Y-14744214D01*
X20425500Y-14844214D02*
X20425500Y-14544214D01*
X20554071Y-14844214D02*
X20554071Y-14687071D01*
X20539786Y-14658500D01*
X20511214Y-14644214D01*
X20468357Y-14644214D01*
X20439786Y-14658500D01*
X20425500Y-14672786D01*
X20739786Y-14844214D02*
X20711214Y-14829929D01*
X20696928Y-14815643D01*
X20682643Y-14787071D01*
X20682643Y-14701357D01*
X20696928Y-14672786D01*
X20711214Y-14658500D01*
X20739786Y-14644214D01*
X20782643Y-14644214D01*
X20811214Y-14658500D01*
X20825500Y-14672786D01*
X20839786Y-14701357D01*
X20839786Y-14787071D01*
X20825500Y-14815643D01*
X20811214Y-14829929D01*
X20782643Y-14844214D01*
X20739786Y-14844214D01*
X21011214Y-14844214D02*
X20982643Y-14829929D01*
X20968357Y-14801357D01*
X20968357Y-14544214D01*
X21239786Y-14829929D02*
X21211214Y-14844214D01*
X21154071Y-14844214D01*
X21125500Y-14829929D01*
X21111214Y-14801357D01*
X21111214Y-14687071D01*
X21125500Y-14658500D01*
X21154071Y-14644214D01*
X21211214Y-14644214D01*
X21239786Y-14658500D01*
X21254071Y-14687071D01*
X21254071Y-14715643D01*
X21111214Y-14744214D01*
X21368357Y-14829929D02*
X21396928Y-14844214D01*
X21454071Y-14844214D01*
X21482643Y-14829929D01*
X21496928Y-14801357D01*
X21496928Y-14787071D01*
X21482643Y-14758500D01*
X21454071Y-14744214D01*
X21411214Y-14744214D01*
X21382643Y-14729929D01*
X21368357Y-14701357D01*
X21368357Y-14687071D01*
X21382643Y-14658500D01*
X21411214Y-14644214D01*
X21454071Y-14644214D01*
X21482643Y-14658500D01*
X21596928Y-14958500D02*
X21611214Y-14944214D01*
X21639786Y-14901357D01*
X21654071Y-14872786D01*
X21668357Y-14829929D01*
X21682643Y-14758500D01*
X21682643Y-14701357D01*
X21668357Y-14629929D01*
X21654071Y-14587071D01*
X21639786Y-14558500D01*
X21611214Y-14515643D01*
X21596928Y-14501357D01*
X15095856Y-15139856D02*
X15095856Y-15069144D01*
X15025144Y-15069144D01*
X15025144Y-15139856D01*
X15095856Y-15139856D01*
X15554071Y-15240214D02*
X15382643Y-15240214D01*
X15468357Y-15240214D02*
X15468357Y-14940214D01*
X15439786Y-14983071D01*
X15411214Y-15011643D01*
X15382643Y-15025929D01*
X15682643Y-15211643D02*
X15696928Y-15225929D01*
X15682643Y-15240214D01*
X15668357Y-15225929D01*
X15682643Y-15211643D01*
X15682643Y-15240214D01*
X15882643Y-14940214D02*
X15911214Y-14940214D01*
X15939786Y-14954500D01*
X15954071Y-14968786D01*
X15968357Y-14997357D01*
X15982643Y-15054500D01*
X15982643Y-15125929D01*
X15968357Y-15183071D01*
X15954071Y-15211643D01*
X15939786Y-15225929D01*
X15911214Y-15240214D01*
X15882643Y-15240214D01*
X15854071Y-15225929D01*
X15839786Y-15211643D01*
X15825500Y-15183071D01*
X15811214Y-15125929D01*
X15811214Y-15054500D01*
X15825500Y-14997357D01*
X15839786Y-14968786D01*
X15854071Y-14954500D01*
X15882643Y-14940214D01*
X16168357Y-14940214D02*
X16196928Y-14940214D01*
X16225500Y-14954500D01*
X16239786Y-14968786D01*
X16254071Y-14997357D01*
X16268357Y-15054500D01*
X16268357Y-15125929D01*
X16254071Y-15183071D01*
X16239786Y-15211643D01*
X16225500Y-15225929D01*
X16196928Y-15240214D01*
X16168357Y-15240214D01*
X16139786Y-15225929D01*
X16125500Y-15211643D01*
X16111214Y-15183071D01*
X16096928Y-15125929D01*
X16096928Y-15054500D01*
X16111214Y-14997357D01*
X16125500Y-14968786D01*
X16139786Y-14954500D01*
X16168357Y-14940214D01*
X16396928Y-15240214D02*
X16396928Y-15040214D01*
X16396928Y-15068786D02*
X16411214Y-15054500D01*
X16439786Y-15040214D01*
X16482643Y-15040214D01*
X16511214Y-15054500D01*
X16525500Y-15083071D01*
X16525500Y-15240214D01*
X16525500Y-15083071D02*
X16539786Y-15054500D01*
X16568357Y-15040214D01*
X16611214Y-15040214D01*
X16639786Y-15054500D01*
X16654071Y-15083071D01*
X16654071Y-15240214D01*
X16796928Y-15240214D02*
X16796928Y-15040214D01*
X16796928Y-15068786D02*
X16811214Y-15054500D01*
X16839786Y-15040214D01*
X16882643Y-15040214D01*
X16911214Y-15054500D01*
X16925500Y-15083071D01*
X16925500Y-15240214D01*
X16925500Y-15083071D02*
X16939786Y-15054500D01*
X16968357Y-15040214D01*
X17011214Y-15040214D01*
X17039786Y-15054500D01*
X17054071Y-15083071D01*
X17054071Y-15240214D01*
X17639786Y-14925929D02*
X17382643Y-15311643D01*
X18025500Y-14940214D02*
X18054071Y-14940214D01*
X18082643Y-14954500D01*
X18096928Y-14968786D01*
X18111214Y-14997357D01*
X18125500Y-15054500D01*
X18125500Y-15125929D01*
X18111214Y-15183071D01*
X18096928Y-15211643D01*
X18082643Y-15225929D01*
X18054071Y-15240214D01*
X18025500Y-15240214D01*
X17996928Y-15225929D01*
X17982643Y-15211643D01*
X17968357Y-15183071D01*
X17954071Y-15125929D01*
X17954071Y-15054500D01*
X17968357Y-14997357D01*
X17982643Y-14968786D01*
X17996928Y-14954500D01*
X18025500Y-14940214D01*
X18254071Y-15211643D02*
X18268357Y-15225929D01*
X18254071Y-15240214D01*
X18239786Y-15225929D01*
X18254071Y-15211643D01*
X18254071Y-15240214D01*
X18454071Y-14940214D02*
X18482643Y-14940214D01*
X18511214Y-14954500D01*
X18525500Y-14968786D01*
X18539786Y-14997357D01*
X18554071Y-15054500D01*
X18554071Y-15125929D01*
X18539786Y-15183071D01*
X18525500Y-15211643D01*
X18511214Y-15225929D01*
X18482643Y-15240214D01*
X18454071Y-15240214D01*
X18425500Y-15225929D01*
X18411214Y-15211643D01*
X18396928Y-15183071D01*
X18382643Y-15125929D01*
X18382643Y-15054500D01*
X18396928Y-14997357D01*
X18411214Y-14968786D01*
X18425500Y-14954500D01*
X18454071Y-14940214D01*
X18654071Y-14940214D02*
X18839786Y-14940214D01*
X18739786Y-15054500D01*
X18782643Y-15054500D01*
X18811214Y-15068786D01*
X18825500Y-15083071D01*
X18839786Y-15111643D01*
X18839786Y-15183071D01*
X18825500Y-15211643D01*
X18811214Y-15225929D01*
X18782643Y-15240214D01*
X18696928Y-15240214D01*
X18668357Y-15225929D01*
X18654071Y-15211643D01*
X18982643Y-15240214D02*
X19039786Y-15240214D01*
X19068357Y-15225929D01*
X19082643Y-15211643D01*
X19111214Y-15168786D01*
X19125500Y-15111643D01*
X19125500Y-14997357D01*
X19111214Y-14968786D01*
X19096928Y-14954500D01*
X19068357Y-14940214D01*
X19011214Y-14940214D01*
X18982643Y-14954500D01*
X18968357Y-14968786D01*
X18954071Y-14997357D01*
X18954071Y-15068786D01*
X18968357Y-15097357D01*
X18982643Y-15111643D01*
X19011214Y-15125929D01*
X19068357Y-15125929D01*
X19096928Y-15111643D01*
X19111214Y-15097357D01*
X19125500Y-15068786D01*
X19239786Y-14940214D02*
X19239786Y-14997357D01*
X19354071Y-14940214D02*
X19354071Y-14997357D01*
X19796928Y-15354500D02*
X19782643Y-15340214D01*
X19754071Y-15297357D01*
X19739786Y-15268786D01*
X19725500Y-15225929D01*
X19711214Y-15154500D01*
X19711214Y-15097357D01*
X19725500Y-15025929D01*
X19739786Y-14983071D01*
X19754071Y-14954500D01*
X19782643Y-14911643D01*
X19796928Y-14897357D01*
X20039786Y-15040214D02*
X20039786Y-15240214D01*
X19968357Y-14925929D02*
X19896928Y-15140214D01*
X20082643Y-15140214D01*
X20211214Y-15240214D02*
X20268357Y-15240214D01*
X20296928Y-15225929D01*
X20311214Y-15211643D01*
X20339786Y-15168786D01*
X20354071Y-15111643D01*
X20354071Y-14997357D01*
X20339786Y-14968786D01*
X20325500Y-14954500D01*
X20296928Y-14940214D01*
X20239786Y-14940214D01*
X20211214Y-14954500D01*
X20196928Y-14968786D01*
X20182643Y-14997357D01*
X20182643Y-15068786D01*
X20196928Y-15097357D01*
X20211214Y-15111643D01*
X20239786Y-15125929D01*
X20296928Y-15125929D01*
X20325500Y-15111643D01*
X20339786Y-15097357D01*
X20354071Y-15068786D01*
X20711214Y-15240214D02*
X20711214Y-14940214D01*
X20839786Y-15240214D02*
X20839786Y-15083071D01*
X20825500Y-15054500D01*
X20796928Y-15040214D01*
X20754071Y-15040214D01*
X20725500Y-15054500D01*
X20711214Y-15068786D01*
X21025500Y-15240214D02*
X20996928Y-15225929D01*
X20982643Y-15211643D01*
X20968357Y-15183071D01*
X20968357Y-15097357D01*
X20982643Y-15068786D01*
X20996928Y-15054500D01*
X21025500Y-15040214D01*
X21068357Y-15040214D01*
X21096928Y-15054500D01*
X21111214Y-15068786D01*
X21125500Y-15097357D01*
X21125500Y-15183071D01*
X21111214Y-15211643D01*
X21096928Y-15225929D01*
X21068357Y-15240214D01*
X21025500Y-15240214D01*
X21296928Y-15240214D02*
X21268357Y-15225929D01*
X21254071Y-15197357D01*
X21254071Y-14940214D01*
X21525500Y-15225929D02*
X21496928Y-15240214D01*
X21439786Y-15240214D01*
X21411214Y-15225929D01*
X21396928Y-15197357D01*
X21396928Y-15083071D01*
X21411214Y-15054500D01*
X21439786Y-15040214D01*
X21496928Y-15040214D01*
X21525500Y-15054500D01*
X21539786Y-15083071D01*
X21539786Y-15111643D01*
X21396928Y-15140214D01*
X21654071Y-15225929D02*
X21682643Y-15240214D01*
X21739786Y-15240214D01*
X21768357Y-15225929D01*
X21782643Y-15197357D01*
X21782643Y-15183071D01*
X21768357Y-15154500D01*
X21739786Y-15140214D01*
X21696928Y-15140214D01*
X21668357Y-15125929D01*
X21654071Y-15097357D01*
X21654071Y-15083071D01*
X21668357Y-15054500D01*
X21696928Y-15040214D01*
X21739786Y-15040214D01*
X21768357Y-15054500D01*
X21882643Y-15354500D02*
X21896928Y-15340214D01*
X21925500Y-15297357D01*
X21939786Y-15268786D01*
X21954071Y-15225929D01*
X21968357Y-15154500D01*
X21968357Y-15097357D01*
X21954071Y-15025929D01*
X21939786Y-14983071D01*
X21925500Y-14954500D01*
X21896928Y-14911643D01*
X21882643Y-14897357D01*
X15059500Y-15551500D02*
X15110500Y-15500500D01*
X15059500Y-15449500D01*
X15008500Y-15500500D01*
X15059500Y-15551500D01*
X15554071Y-15636214D02*
X15382643Y-15636214D01*
X15468357Y-15636214D02*
X15468357Y-15336214D01*
X15439786Y-15379071D01*
X15411214Y-15407643D01*
X15382643Y-15421929D01*
X15682643Y-15607643D02*
X15696928Y-15621929D01*
X15682643Y-15636214D01*
X15668357Y-15621929D01*
X15682643Y-15607643D01*
X15682643Y-15636214D01*
X15882643Y-15336214D02*
X15911214Y-15336214D01*
X15939786Y-15350500D01*
X15954071Y-15364786D01*
X15968357Y-15393357D01*
X15982643Y-15450500D01*
X15982643Y-15521929D01*
X15968357Y-15579071D01*
X15954071Y-15607643D01*
X15939786Y-15621929D01*
X15911214Y-15636214D01*
X15882643Y-15636214D01*
X15854071Y-15621929D01*
X15839786Y-15607643D01*
X15825500Y-15579071D01*
X15811214Y-15521929D01*
X15811214Y-15450500D01*
X15825500Y-15393357D01*
X15839786Y-15364786D01*
X15854071Y-15350500D01*
X15882643Y-15336214D01*
X16096928Y-15364786D02*
X16111214Y-15350500D01*
X16139786Y-15336214D01*
X16211214Y-15336214D01*
X16239786Y-15350500D01*
X16254071Y-15364786D01*
X16268357Y-15393357D01*
X16268357Y-15421929D01*
X16254071Y-15464786D01*
X16082643Y-15636214D01*
X16268357Y-15636214D01*
X16396928Y-15636214D02*
X16396928Y-15436214D01*
X16396928Y-15464786D02*
X16411214Y-15450500D01*
X16439786Y-15436214D01*
X16482643Y-15436214D01*
X16511214Y-15450500D01*
X16525500Y-15479071D01*
X16525500Y-15636214D01*
X16525500Y-15479071D02*
X16539786Y-15450500D01*
X16568357Y-15436214D01*
X16611214Y-15436214D01*
X16639786Y-15450500D01*
X16654071Y-15479071D01*
X16654071Y-15636214D01*
X16796928Y-15636214D02*
X16796928Y-15436214D01*
X16796928Y-15464786D02*
X16811214Y-15450500D01*
X16839786Y-15436214D01*
X16882643Y-15436214D01*
X16911214Y-15450500D01*
X16925500Y-15479071D01*
X16925500Y-15636214D01*
X16925500Y-15479071D02*
X16939786Y-15450500D01*
X16968357Y-15436214D01*
X17011214Y-15436214D01*
X17039786Y-15450500D01*
X17054071Y-15479071D01*
X17054071Y-15636214D01*
X17639786Y-15321929D02*
X17382643Y-15707643D01*
X18025500Y-15336214D02*
X18054071Y-15336214D01*
X18082643Y-15350500D01*
X18096928Y-15364786D01*
X18111214Y-15393357D01*
X18125500Y-15450500D01*
X18125500Y-15521929D01*
X18111214Y-15579071D01*
X18096928Y-15607643D01*
X18082643Y-15621929D01*
X18054071Y-15636214D01*
X18025500Y-15636214D01*
X17996928Y-15621929D01*
X17982643Y-15607643D01*
X17968357Y-15579071D01*
X17954071Y-15521929D01*
X17954071Y-15450500D01*
X17968357Y-15393357D01*
X17982643Y-15364786D01*
X17996928Y-15350500D01*
X18025500Y-15336214D01*
X18254071Y-15607643D02*
X18268357Y-15621929D01*
X18254071Y-15636214D01*
X18239786Y-15621929D01*
X18254071Y-15607643D01*
X18254071Y-15636214D01*
X18454071Y-15336214D02*
X18482643Y-15336214D01*
X18511214Y-15350500D01*
X18525500Y-15364786D01*
X18539786Y-15393357D01*
X18554071Y-15450500D01*
X18554071Y-15521929D01*
X18539786Y-15579071D01*
X18525500Y-15607643D01*
X18511214Y-15621929D01*
X18482643Y-15636214D01*
X18454071Y-15636214D01*
X18425500Y-15621929D01*
X18411214Y-15607643D01*
X18396928Y-15579071D01*
X18382643Y-15521929D01*
X18382643Y-15450500D01*
X18396928Y-15393357D01*
X18411214Y-15364786D01*
X18425500Y-15350500D01*
X18454071Y-15336214D01*
X18811214Y-15436214D02*
X18811214Y-15636214D01*
X18739786Y-15321929D02*
X18668357Y-15536214D01*
X18854071Y-15536214D01*
X19025500Y-15336214D02*
X19054071Y-15336214D01*
X19082643Y-15350500D01*
X19096928Y-15364786D01*
X19111214Y-15393357D01*
X19125500Y-15450500D01*
X19125500Y-15521929D01*
X19111214Y-15579071D01*
X19096928Y-15607643D01*
X19082643Y-15621929D01*
X19054071Y-15636214D01*
X19025500Y-15636214D01*
X18996928Y-15621929D01*
X18982643Y-15607643D01*
X18968357Y-15579071D01*
X18954071Y-15521929D01*
X18954071Y-15450500D01*
X18968357Y-15393357D01*
X18982643Y-15364786D01*
X18996928Y-15350500D01*
X19025500Y-15336214D01*
X19239786Y-15336214D02*
X19239786Y-15393357D01*
X19354071Y-15336214D02*
X19354071Y-15393357D01*
X19796928Y-15750500D02*
X19782643Y-15736214D01*
X19754071Y-15693357D01*
X19739786Y-15664786D01*
X19725500Y-15621929D01*
X19711214Y-15550500D01*
X19711214Y-15493357D01*
X19725500Y-15421929D01*
X19739786Y-15379071D01*
X19754071Y-15350500D01*
X19782643Y-15307643D01*
X19796928Y-15293357D01*
X19896928Y-15364786D02*
X19911214Y-15350500D01*
X19939786Y-15336214D01*
X20011214Y-15336214D01*
X20039786Y-15350500D01*
X20054071Y-15364786D01*
X20068357Y-15393357D01*
X20068357Y-15421929D01*
X20054071Y-15464786D01*
X19882643Y-15636214D01*
X20068357Y-15636214D01*
X20425500Y-15636214D02*
X20425500Y-15336214D01*
X20554071Y-15636214D02*
X20554071Y-15479071D01*
X20539786Y-15450500D01*
X20511214Y-15436214D01*
X20468357Y-15436214D01*
X20439786Y-15450500D01*
X20425500Y-15464786D01*
X20739786Y-15636214D02*
X20711214Y-15621929D01*
X20696928Y-15607643D01*
X20682643Y-15579071D01*
X20682643Y-15493357D01*
X20696928Y-15464786D01*
X20711214Y-15450500D01*
X20739786Y-15436214D01*
X20782643Y-15436214D01*
X20811214Y-15450500D01*
X20825500Y-15464786D01*
X20839786Y-15493357D01*
X20839786Y-15579071D01*
X20825500Y-15607643D01*
X20811214Y-15621929D01*
X20782643Y-15636214D01*
X20739786Y-15636214D01*
X21011214Y-15636214D02*
X20982643Y-15621929D01*
X20968357Y-15593357D01*
X20968357Y-15336214D01*
X21239786Y-15621929D02*
X21211214Y-15636214D01*
X21154071Y-15636214D01*
X21125500Y-15621929D01*
X21111214Y-15593357D01*
X21111214Y-15479071D01*
X21125500Y-15450500D01*
X21154071Y-15436214D01*
X21211214Y-15436214D01*
X21239786Y-15450500D01*
X21254071Y-15479071D01*
X21254071Y-15507643D01*
X21111214Y-15536214D01*
X21368357Y-15621929D02*
X21396928Y-15636214D01*
X21454071Y-15636214D01*
X21482643Y-15621929D01*
X21496928Y-15593357D01*
X21496928Y-15579071D01*
X21482643Y-15550500D01*
X21454071Y-15536214D01*
X21411214Y-15536214D01*
X21382643Y-15521929D01*
X21368357Y-15493357D01*
X21368357Y-15479071D01*
X21382643Y-15450500D01*
X21411214Y-15436214D01*
X21454071Y-15436214D01*
X21482643Y-15450500D01*
X21596928Y-15750500D02*
X21611214Y-15736214D01*
X21639786Y-15693357D01*
X21654071Y-15664786D01*
X21668357Y-15621929D01*
X21682643Y-15550500D01*
X21682643Y-15493357D01*
X21668357Y-15421929D01*
X21654071Y-15379071D01*
X21639786Y-15350500D01*
X21611214Y-15307643D01*
X21596928Y-15293357D01*
M02*
