G04 #@! TF.GenerationSoftware,KiCad,Pcbnew,5.1.5+dfsg1-2build2*
G04 #@! TF.CreationDate,2023-01-01T14:21:45-04:00*
G04 #@! TF.ProjectId,prototyping_backplane,70726f74-6f74-4797-9069-6e675f626163,B*
G04 #@! TF.SameCoordinates,Original*
G04 #@! TF.FileFunction,Soldermask,Bot*
G04 #@! TF.FilePolarity,Negative*
%FSLAX46Y46*%
G04 Gerber Fmt 4.6, Leading zero omitted, Abs format (unit mm)*
G04 Created by KiCad (PCBNEW 5.1.5+dfsg1-2build2) date 2023-01-01 14:21:45*
%MOMM*%
%LPD*%
G04 APERTURE LIST*
%ADD10C,0.100000*%
G04 APERTURE END LIST*
D10*
G36*
X205655256Y-124931298D02*
G01*
X205761579Y-124952447D01*
X206062042Y-125076903D01*
X206332451Y-125257585D01*
X206562415Y-125487549D01*
X206743097Y-125757958D01*
X206867553Y-126058421D01*
X206931000Y-126377391D01*
X206931000Y-126702609D01*
X206867553Y-127021579D01*
X206743097Y-127322042D01*
X206562415Y-127592451D01*
X206332451Y-127822415D01*
X206062042Y-128003097D01*
X205761579Y-128127553D01*
X205655256Y-128148702D01*
X205442611Y-128191000D01*
X205117389Y-128191000D01*
X204904744Y-128148702D01*
X204798421Y-128127553D01*
X204497958Y-128003097D01*
X204227549Y-127822415D01*
X203997585Y-127592451D01*
X203816903Y-127322042D01*
X203692447Y-127021579D01*
X203629000Y-126702609D01*
X203629000Y-126377391D01*
X203692447Y-126058421D01*
X203816903Y-125757958D01*
X203997585Y-125487549D01*
X204227549Y-125257585D01*
X204497958Y-125076903D01*
X204798421Y-124952447D01*
X204904744Y-124931298D01*
X205117389Y-124889000D01*
X205442611Y-124889000D01*
X205655256Y-124931298D01*
G37*
G36*
X154505256Y-124931298D02*
G01*
X154611579Y-124952447D01*
X154912042Y-125076903D01*
X155182451Y-125257585D01*
X155412415Y-125487549D01*
X155593097Y-125757958D01*
X155717553Y-126058421D01*
X155781000Y-126377391D01*
X155781000Y-126702609D01*
X155717553Y-127021579D01*
X155593097Y-127322042D01*
X155412415Y-127592451D01*
X155182451Y-127822415D01*
X154912042Y-128003097D01*
X154611579Y-128127553D01*
X154505256Y-128148702D01*
X154292611Y-128191000D01*
X153967389Y-128191000D01*
X153754744Y-128148702D01*
X153648421Y-128127553D01*
X153347958Y-128003097D01*
X153077549Y-127822415D01*
X152847585Y-127592451D01*
X152666903Y-127322042D01*
X152542447Y-127021579D01*
X152479000Y-126702609D01*
X152479000Y-126377391D01*
X152542447Y-126058421D01*
X152666903Y-125757958D01*
X152847585Y-125487549D01*
X153077549Y-125257585D01*
X153347958Y-125076903D01*
X153648421Y-124952447D01*
X153754744Y-124931298D01*
X153967389Y-124889000D01*
X154292611Y-124889000D01*
X154505256Y-124931298D01*
G37*
G36*
X202207395Y-122275546D02*
G01*
X202380466Y-122347234D01*
X202380467Y-122347235D01*
X202536227Y-122451310D01*
X202668690Y-122583773D01*
X202668691Y-122583775D01*
X202772766Y-122739534D01*
X202844454Y-122912605D01*
X202881000Y-123096333D01*
X202881000Y-123283667D01*
X202844454Y-123467395D01*
X202772766Y-123640466D01*
X202772765Y-123640467D01*
X202668690Y-123796227D01*
X202536227Y-123928690D01*
X202457818Y-123981081D01*
X202380466Y-124032766D01*
X202207395Y-124104454D01*
X202023667Y-124141000D01*
X201836333Y-124141000D01*
X201652605Y-124104454D01*
X201479534Y-124032766D01*
X201402182Y-123981081D01*
X201323773Y-123928690D01*
X201191310Y-123796227D01*
X201087235Y-123640467D01*
X201087234Y-123640466D01*
X201015546Y-123467395D01*
X200979000Y-123283667D01*
X200979000Y-123096333D01*
X201015546Y-122912605D01*
X201087234Y-122739534D01*
X201191309Y-122583775D01*
X201191310Y-122583773D01*
X201323773Y-122451310D01*
X201479533Y-122347235D01*
X201479534Y-122347234D01*
X201652605Y-122275546D01*
X201836333Y-122239000D01*
X202023667Y-122239000D01*
X202207395Y-122275546D01*
G37*
G36*
X158431000Y-124141000D02*
G01*
X156529000Y-124141000D01*
X156529000Y-122239000D01*
X158431000Y-122239000D01*
X158431000Y-124141000D01*
G37*
G36*
X160297395Y-122275546D02*
G01*
X160470466Y-122347234D01*
X160470467Y-122347235D01*
X160626227Y-122451310D01*
X160758690Y-122583773D01*
X160758691Y-122583775D01*
X160862766Y-122739534D01*
X160934454Y-122912605D01*
X160971000Y-123096333D01*
X160971000Y-123283667D01*
X160934454Y-123467395D01*
X160862766Y-123640466D01*
X160862765Y-123640467D01*
X160758690Y-123796227D01*
X160626227Y-123928690D01*
X160547818Y-123981081D01*
X160470466Y-124032766D01*
X160297395Y-124104454D01*
X160113667Y-124141000D01*
X159926333Y-124141000D01*
X159742605Y-124104454D01*
X159569534Y-124032766D01*
X159492182Y-123981081D01*
X159413773Y-123928690D01*
X159281310Y-123796227D01*
X159177235Y-123640467D01*
X159177234Y-123640466D01*
X159105546Y-123467395D01*
X159069000Y-123283667D01*
X159069000Y-123096333D01*
X159105546Y-122912605D01*
X159177234Y-122739534D01*
X159281309Y-122583775D01*
X159281310Y-122583773D01*
X159413773Y-122451310D01*
X159569533Y-122347235D01*
X159569534Y-122347234D01*
X159742605Y-122275546D01*
X159926333Y-122239000D01*
X160113667Y-122239000D01*
X160297395Y-122275546D01*
G37*
G36*
X200341000Y-124141000D02*
G01*
X198439000Y-124141000D01*
X198439000Y-122239000D01*
X200341000Y-122239000D01*
X200341000Y-124141000D01*
G37*
G36*
X153918228Y-112211703D02*
G01*
X154073100Y-112275853D01*
X154212481Y-112368985D01*
X154331015Y-112487519D01*
X154424147Y-112626900D01*
X154488297Y-112781772D01*
X154521000Y-112946184D01*
X154521000Y-113113816D01*
X154488297Y-113278228D01*
X154424147Y-113433100D01*
X154331015Y-113572481D01*
X154212481Y-113691015D01*
X154073100Y-113784147D01*
X153918228Y-113848297D01*
X153753816Y-113881000D01*
X153586184Y-113881000D01*
X153421772Y-113848297D01*
X153266900Y-113784147D01*
X153127519Y-113691015D01*
X153008985Y-113572481D01*
X152915853Y-113433100D01*
X152851703Y-113278228D01*
X152819000Y-113113816D01*
X152819000Y-112946184D01*
X152851703Y-112781772D01*
X152915853Y-112626900D01*
X153008985Y-112487519D01*
X153127519Y-112368985D01*
X153266900Y-112275853D01*
X153421772Y-112211703D01*
X153586184Y-112179000D01*
X153753816Y-112179000D01*
X153918228Y-112211703D01*
G37*
G36*
X207258228Y-112211703D02*
G01*
X207413100Y-112275853D01*
X207552481Y-112368985D01*
X207671015Y-112487519D01*
X207764147Y-112626900D01*
X207828297Y-112781772D01*
X207861000Y-112946184D01*
X207861000Y-113113816D01*
X207828297Y-113278228D01*
X207764147Y-113433100D01*
X207671015Y-113572481D01*
X207552481Y-113691015D01*
X207413100Y-113784147D01*
X207258228Y-113848297D01*
X207093816Y-113881000D01*
X206926184Y-113881000D01*
X206761772Y-113848297D01*
X206606900Y-113784147D01*
X206467519Y-113691015D01*
X206348985Y-113572481D01*
X206255853Y-113433100D01*
X206191703Y-113278228D01*
X206159000Y-113113816D01*
X206159000Y-112946184D01*
X206191703Y-112781772D01*
X206255853Y-112626900D01*
X206348985Y-112487519D01*
X206467519Y-112368985D01*
X206606900Y-112275853D01*
X206761772Y-112211703D01*
X206926184Y-112179000D01*
X207093816Y-112179000D01*
X207258228Y-112211703D01*
G37*
G36*
X199638228Y-112211703D02*
G01*
X199793100Y-112275853D01*
X199932481Y-112368985D01*
X200051015Y-112487519D01*
X200144147Y-112626900D01*
X200208297Y-112781772D01*
X200241000Y-112946184D01*
X200241000Y-113113816D01*
X200208297Y-113278228D01*
X200144147Y-113433100D01*
X200051015Y-113572481D01*
X199932481Y-113691015D01*
X199793100Y-113784147D01*
X199638228Y-113848297D01*
X199473816Y-113881000D01*
X199306184Y-113881000D01*
X199141772Y-113848297D01*
X198986900Y-113784147D01*
X198847519Y-113691015D01*
X198728985Y-113572481D01*
X198635853Y-113433100D01*
X198571703Y-113278228D01*
X198539000Y-113113816D01*
X198539000Y-112946184D01*
X198571703Y-112781772D01*
X198635853Y-112626900D01*
X198728985Y-112487519D01*
X198847519Y-112368985D01*
X198986900Y-112275853D01*
X199141772Y-112211703D01*
X199306184Y-112179000D01*
X199473816Y-112179000D01*
X199638228Y-112211703D01*
G37*
G36*
X161538228Y-112211703D02*
G01*
X161693100Y-112275853D01*
X161832481Y-112368985D01*
X161951015Y-112487519D01*
X162044147Y-112626900D01*
X162108297Y-112781772D01*
X162141000Y-112946184D01*
X162141000Y-113113816D01*
X162108297Y-113278228D01*
X162044147Y-113433100D01*
X161951015Y-113572481D01*
X161832481Y-113691015D01*
X161693100Y-113784147D01*
X161538228Y-113848297D01*
X161373816Y-113881000D01*
X161206184Y-113881000D01*
X161041772Y-113848297D01*
X160886900Y-113784147D01*
X160747519Y-113691015D01*
X160628985Y-113572481D01*
X160535853Y-113433100D01*
X160471703Y-113278228D01*
X160439000Y-113113816D01*
X160439000Y-112946184D01*
X160471703Y-112781772D01*
X160535853Y-112626900D01*
X160628985Y-112487519D01*
X160747519Y-112368985D01*
X160886900Y-112275853D01*
X161041772Y-112211703D01*
X161206184Y-112179000D01*
X161373816Y-112179000D01*
X161538228Y-112211703D01*
G37*
G36*
X156743512Y-105503927D02*
G01*
X156892812Y-105533624D01*
X157056784Y-105601544D01*
X157204354Y-105700147D01*
X157329853Y-105825646D01*
X157428456Y-105973216D01*
X157496376Y-106137188D01*
X157531000Y-106311259D01*
X157531000Y-106488741D01*
X157496376Y-106662812D01*
X157428456Y-106826784D01*
X157329853Y-106974354D01*
X157204354Y-107099853D01*
X157056784Y-107198456D01*
X156892812Y-107266376D01*
X156743512Y-107296073D01*
X156718742Y-107301000D01*
X156541258Y-107301000D01*
X156516488Y-107296073D01*
X156367188Y-107266376D01*
X156203216Y-107198456D01*
X156055646Y-107099853D01*
X155930147Y-106974354D01*
X155831544Y-106826784D01*
X155763624Y-106662812D01*
X155729000Y-106488741D01*
X155729000Y-106311259D01*
X155763624Y-106137188D01*
X155831544Y-105973216D01*
X155930147Y-105825646D01*
X156055646Y-105700147D01*
X156203216Y-105601544D01*
X156367188Y-105533624D01*
X156516488Y-105503927D01*
X156541258Y-105499000D01*
X156718742Y-105499000D01*
X156743512Y-105503927D01*
G37*
G36*
X203283512Y-105503927D02*
G01*
X203432812Y-105533624D01*
X203596784Y-105601544D01*
X203744354Y-105700147D01*
X203869853Y-105825646D01*
X203968456Y-105973216D01*
X204036376Y-106137188D01*
X204071000Y-106311259D01*
X204071000Y-106488741D01*
X204036376Y-106662812D01*
X203968456Y-106826784D01*
X203869853Y-106974354D01*
X203744354Y-107099853D01*
X203596784Y-107198456D01*
X203432812Y-107266376D01*
X203283512Y-107296073D01*
X203258742Y-107301000D01*
X203081258Y-107301000D01*
X203056488Y-107296073D01*
X202907188Y-107266376D01*
X202743216Y-107198456D01*
X202595646Y-107099853D01*
X202470147Y-106974354D01*
X202371544Y-106826784D01*
X202303624Y-106662812D01*
X202269000Y-106488741D01*
X202269000Y-106311259D01*
X202303624Y-106137188D01*
X202371544Y-105973216D01*
X202470147Y-105825646D01*
X202595646Y-105700147D01*
X202743216Y-105601544D01*
X202907188Y-105533624D01*
X203056488Y-105503927D01*
X203081258Y-105499000D01*
X203258742Y-105499000D01*
X203283512Y-105503927D01*
G37*
G36*
X159283512Y-105503927D02*
G01*
X159432812Y-105533624D01*
X159596784Y-105601544D01*
X159744354Y-105700147D01*
X159869853Y-105825646D01*
X159968456Y-105973216D01*
X160036376Y-106137188D01*
X160071000Y-106311259D01*
X160071000Y-106488741D01*
X160036376Y-106662812D01*
X159968456Y-106826784D01*
X159869853Y-106974354D01*
X159744354Y-107099853D01*
X159596784Y-107198456D01*
X159432812Y-107266376D01*
X159283512Y-107296073D01*
X159258742Y-107301000D01*
X159081258Y-107301000D01*
X159056488Y-107296073D01*
X158907188Y-107266376D01*
X158743216Y-107198456D01*
X158595646Y-107099853D01*
X158470147Y-106974354D01*
X158371544Y-106826784D01*
X158303624Y-106662812D01*
X158269000Y-106488741D01*
X158269000Y-106311259D01*
X158303624Y-106137188D01*
X158371544Y-105973216D01*
X158470147Y-105825646D01*
X158595646Y-105700147D01*
X158743216Y-105601544D01*
X158907188Y-105533624D01*
X159056488Y-105503927D01*
X159081258Y-105499000D01*
X159258742Y-105499000D01*
X159283512Y-105503927D01*
G37*
G36*
X200743512Y-105503927D02*
G01*
X200892812Y-105533624D01*
X201056784Y-105601544D01*
X201204354Y-105700147D01*
X201329853Y-105825646D01*
X201428456Y-105973216D01*
X201496376Y-106137188D01*
X201531000Y-106311259D01*
X201531000Y-106488741D01*
X201496376Y-106662812D01*
X201428456Y-106826784D01*
X201329853Y-106974354D01*
X201204354Y-107099853D01*
X201056784Y-107198456D01*
X200892812Y-107266376D01*
X200743512Y-107296073D01*
X200718742Y-107301000D01*
X200541258Y-107301000D01*
X200516488Y-107296073D01*
X200367188Y-107266376D01*
X200203216Y-107198456D01*
X200055646Y-107099853D01*
X199930147Y-106974354D01*
X199831544Y-106826784D01*
X199763624Y-106662812D01*
X199729000Y-106488741D01*
X199729000Y-106311259D01*
X199763624Y-106137188D01*
X199831544Y-105973216D01*
X199930147Y-105825646D01*
X200055646Y-105700147D01*
X200203216Y-105601544D01*
X200367188Y-105533624D01*
X200516488Y-105503927D01*
X200541258Y-105499000D01*
X200718742Y-105499000D01*
X200743512Y-105503927D01*
G37*
G36*
X203283512Y-102963927D02*
G01*
X203432812Y-102993624D01*
X203596784Y-103061544D01*
X203744354Y-103160147D01*
X203869853Y-103285646D01*
X203968456Y-103433216D01*
X204036376Y-103597188D01*
X204071000Y-103771259D01*
X204071000Y-103948741D01*
X204036376Y-104122812D01*
X203968456Y-104286784D01*
X203869853Y-104434354D01*
X203744354Y-104559853D01*
X203596784Y-104658456D01*
X203432812Y-104726376D01*
X203283512Y-104756073D01*
X203258742Y-104761000D01*
X203081258Y-104761000D01*
X203056488Y-104756073D01*
X202907188Y-104726376D01*
X202743216Y-104658456D01*
X202595646Y-104559853D01*
X202470147Y-104434354D01*
X202371544Y-104286784D01*
X202303624Y-104122812D01*
X202269000Y-103948741D01*
X202269000Y-103771259D01*
X202303624Y-103597188D01*
X202371544Y-103433216D01*
X202470147Y-103285646D01*
X202595646Y-103160147D01*
X202743216Y-103061544D01*
X202907188Y-102993624D01*
X203056488Y-102963927D01*
X203081258Y-102959000D01*
X203258742Y-102959000D01*
X203283512Y-102963927D01*
G37*
G36*
X156743512Y-102963927D02*
G01*
X156892812Y-102993624D01*
X157056784Y-103061544D01*
X157204354Y-103160147D01*
X157329853Y-103285646D01*
X157428456Y-103433216D01*
X157496376Y-103597188D01*
X157531000Y-103771259D01*
X157531000Y-103948741D01*
X157496376Y-104122812D01*
X157428456Y-104286784D01*
X157329853Y-104434354D01*
X157204354Y-104559853D01*
X157056784Y-104658456D01*
X156892812Y-104726376D01*
X156743512Y-104756073D01*
X156718742Y-104761000D01*
X156541258Y-104761000D01*
X156516488Y-104756073D01*
X156367188Y-104726376D01*
X156203216Y-104658456D01*
X156055646Y-104559853D01*
X155930147Y-104434354D01*
X155831544Y-104286784D01*
X155763624Y-104122812D01*
X155729000Y-103948741D01*
X155729000Y-103771259D01*
X155763624Y-103597188D01*
X155831544Y-103433216D01*
X155930147Y-103285646D01*
X156055646Y-103160147D01*
X156203216Y-103061544D01*
X156367188Y-102993624D01*
X156516488Y-102963927D01*
X156541258Y-102959000D01*
X156718742Y-102959000D01*
X156743512Y-102963927D01*
G37*
G36*
X200743512Y-102963927D02*
G01*
X200892812Y-102993624D01*
X201056784Y-103061544D01*
X201204354Y-103160147D01*
X201329853Y-103285646D01*
X201428456Y-103433216D01*
X201496376Y-103597188D01*
X201531000Y-103771259D01*
X201531000Y-103948741D01*
X201496376Y-104122812D01*
X201428456Y-104286784D01*
X201329853Y-104434354D01*
X201204354Y-104559853D01*
X201056784Y-104658456D01*
X200892812Y-104726376D01*
X200743512Y-104756073D01*
X200718742Y-104761000D01*
X200541258Y-104761000D01*
X200516488Y-104756073D01*
X200367188Y-104726376D01*
X200203216Y-104658456D01*
X200055646Y-104559853D01*
X199930147Y-104434354D01*
X199831544Y-104286784D01*
X199763624Y-104122812D01*
X199729000Y-103948741D01*
X199729000Y-103771259D01*
X199763624Y-103597188D01*
X199831544Y-103433216D01*
X199930147Y-103285646D01*
X200055646Y-103160147D01*
X200203216Y-103061544D01*
X200367188Y-102993624D01*
X200516488Y-102963927D01*
X200541258Y-102959000D01*
X200718742Y-102959000D01*
X200743512Y-102963927D01*
G37*
G36*
X159283512Y-102963927D02*
G01*
X159432812Y-102993624D01*
X159596784Y-103061544D01*
X159744354Y-103160147D01*
X159869853Y-103285646D01*
X159968456Y-103433216D01*
X160036376Y-103597188D01*
X160071000Y-103771259D01*
X160071000Y-103948741D01*
X160036376Y-104122812D01*
X159968456Y-104286784D01*
X159869853Y-104434354D01*
X159744354Y-104559853D01*
X159596784Y-104658456D01*
X159432812Y-104726376D01*
X159283512Y-104756073D01*
X159258742Y-104761000D01*
X159081258Y-104761000D01*
X159056488Y-104756073D01*
X158907188Y-104726376D01*
X158743216Y-104658456D01*
X158595646Y-104559853D01*
X158470147Y-104434354D01*
X158371544Y-104286784D01*
X158303624Y-104122812D01*
X158269000Y-103948741D01*
X158269000Y-103771259D01*
X158303624Y-103597188D01*
X158371544Y-103433216D01*
X158470147Y-103285646D01*
X158595646Y-103160147D01*
X158743216Y-103061544D01*
X158907188Y-102993624D01*
X159056488Y-102963927D01*
X159081258Y-102959000D01*
X159258742Y-102959000D01*
X159283512Y-102963927D01*
G37*
G36*
X203283512Y-100423927D02*
G01*
X203432812Y-100453624D01*
X203596784Y-100521544D01*
X203744354Y-100620147D01*
X203869853Y-100745646D01*
X203968456Y-100893216D01*
X204036376Y-101057188D01*
X204071000Y-101231259D01*
X204071000Y-101408741D01*
X204036376Y-101582812D01*
X203968456Y-101746784D01*
X203869853Y-101894354D01*
X203744354Y-102019853D01*
X203596784Y-102118456D01*
X203432812Y-102186376D01*
X203283512Y-102216073D01*
X203258742Y-102221000D01*
X203081258Y-102221000D01*
X203056488Y-102216073D01*
X202907188Y-102186376D01*
X202743216Y-102118456D01*
X202595646Y-102019853D01*
X202470147Y-101894354D01*
X202371544Y-101746784D01*
X202303624Y-101582812D01*
X202269000Y-101408741D01*
X202269000Y-101231259D01*
X202303624Y-101057188D01*
X202371544Y-100893216D01*
X202470147Y-100745646D01*
X202595646Y-100620147D01*
X202743216Y-100521544D01*
X202907188Y-100453624D01*
X203056488Y-100423927D01*
X203081258Y-100419000D01*
X203258742Y-100419000D01*
X203283512Y-100423927D01*
G37*
G36*
X159283512Y-100423927D02*
G01*
X159432812Y-100453624D01*
X159596784Y-100521544D01*
X159744354Y-100620147D01*
X159869853Y-100745646D01*
X159968456Y-100893216D01*
X160036376Y-101057188D01*
X160071000Y-101231259D01*
X160071000Y-101408741D01*
X160036376Y-101582812D01*
X159968456Y-101746784D01*
X159869853Y-101894354D01*
X159744354Y-102019853D01*
X159596784Y-102118456D01*
X159432812Y-102186376D01*
X159283512Y-102216073D01*
X159258742Y-102221000D01*
X159081258Y-102221000D01*
X159056488Y-102216073D01*
X158907188Y-102186376D01*
X158743216Y-102118456D01*
X158595646Y-102019853D01*
X158470147Y-101894354D01*
X158371544Y-101746784D01*
X158303624Y-101582812D01*
X158269000Y-101408741D01*
X158269000Y-101231259D01*
X158303624Y-101057188D01*
X158371544Y-100893216D01*
X158470147Y-100745646D01*
X158595646Y-100620147D01*
X158743216Y-100521544D01*
X158907188Y-100453624D01*
X159056488Y-100423927D01*
X159081258Y-100419000D01*
X159258742Y-100419000D01*
X159283512Y-100423927D01*
G37*
G36*
X156743512Y-100423927D02*
G01*
X156892812Y-100453624D01*
X157056784Y-100521544D01*
X157204354Y-100620147D01*
X157329853Y-100745646D01*
X157428456Y-100893216D01*
X157496376Y-101057188D01*
X157531000Y-101231259D01*
X157531000Y-101408741D01*
X157496376Y-101582812D01*
X157428456Y-101746784D01*
X157329853Y-101894354D01*
X157204354Y-102019853D01*
X157056784Y-102118456D01*
X156892812Y-102186376D01*
X156743512Y-102216073D01*
X156718742Y-102221000D01*
X156541258Y-102221000D01*
X156516488Y-102216073D01*
X156367188Y-102186376D01*
X156203216Y-102118456D01*
X156055646Y-102019853D01*
X155930147Y-101894354D01*
X155831544Y-101746784D01*
X155763624Y-101582812D01*
X155729000Y-101408741D01*
X155729000Y-101231259D01*
X155763624Y-101057188D01*
X155831544Y-100893216D01*
X155930147Y-100745646D01*
X156055646Y-100620147D01*
X156203216Y-100521544D01*
X156367188Y-100453624D01*
X156516488Y-100423927D01*
X156541258Y-100419000D01*
X156718742Y-100419000D01*
X156743512Y-100423927D01*
G37*
G36*
X200743512Y-100423927D02*
G01*
X200892812Y-100453624D01*
X201056784Y-100521544D01*
X201204354Y-100620147D01*
X201329853Y-100745646D01*
X201428456Y-100893216D01*
X201496376Y-101057188D01*
X201531000Y-101231259D01*
X201531000Y-101408741D01*
X201496376Y-101582812D01*
X201428456Y-101746784D01*
X201329853Y-101894354D01*
X201204354Y-102019853D01*
X201056784Y-102118456D01*
X200892812Y-102186376D01*
X200743512Y-102216073D01*
X200718742Y-102221000D01*
X200541258Y-102221000D01*
X200516488Y-102216073D01*
X200367188Y-102186376D01*
X200203216Y-102118456D01*
X200055646Y-102019853D01*
X199930147Y-101894354D01*
X199831544Y-101746784D01*
X199763624Y-101582812D01*
X199729000Y-101408741D01*
X199729000Y-101231259D01*
X199763624Y-101057188D01*
X199831544Y-100893216D01*
X199930147Y-100745646D01*
X200055646Y-100620147D01*
X200203216Y-100521544D01*
X200367188Y-100453624D01*
X200516488Y-100423927D01*
X200541258Y-100419000D01*
X200718742Y-100419000D01*
X200743512Y-100423927D01*
G37*
G36*
X188206162Y-97284368D02*
G01*
X188515724Y-97412593D01*
X188515725Y-97412594D01*
X188794324Y-97598747D01*
X189031253Y-97835676D01*
X189128718Y-97981544D01*
X189217407Y-98114276D01*
X189345632Y-98423838D01*
X189411000Y-98752465D01*
X189411000Y-99087535D01*
X189345632Y-99416162D01*
X189217407Y-99725724D01*
X189217406Y-99725725D01*
X189031253Y-100004324D01*
X188794324Y-100241253D01*
X188608170Y-100365637D01*
X188515724Y-100427407D01*
X188206162Y-100555632D01*
X187877535Y-100621000D01*
X187542465Y-100621000D01*
X187213838Y-100555632D01*
X186904276Y-100427407D01*
X186811830Y-100365637D01*
X186625676Y-100241253D01*
X186388747Y-100004324D01*
X186202594Y-99725725D01*
X186202593Y-99725724D01*
X186074368Y-99416162D01*
X186009000Y-99087535D01*
X186009000Y-98752465D01*
X186074368Y-98423838D01*
X186202593Y-98114276D01*
X186291282Y-97981544D01*
X186388747Y-97835676D01*
X186625676Y-97598747D01*
X186904275Y-97412594D01*
X186904276Y-97412593D01*
X187213838Y-97284368D01*
X187542465Y-97219000D01*
X187877535Y-97219000D01*
X188206162Y-97284368D01*
G37*
G36*
X173216162Y-97284368D02*
G01*
X173525724Y-97412593D01*
X173525725Y-97412594D01*
X173804324Y-97598747D01*
X174041253Y-97835676D01*
X174138718Y-97981544D01*
X174227407Y-98114276D01*
X174355632Y-98423838D01*
X174421000Y-98752465D01*
X174421000Y-99087535D01*
X174355632Y-99416162D01*
X174227407Y-99725724D01*
X174227406Y-99725725D01*
X174041253Y-100004324D01*
X173804324Y-100241253D01*
X173618170Y-100365637D01*
X173525724Y-100427407D01*
X173216162Y-100555632D01*
X172887535Y-100621000D01*
X172552465Y-100621000D01*
X172223838Y-100555632D01*
X171914276Y-100427407D01*
X171821830Y-100365637D01*
X171635676Y-100241253D01*
X171398747Y-100004324D01*
X171212594Y-99725725D01*
X171212593Y-99725724D01*
X171084368Y-99416162D01*
X171019000Y-99087535D01*
X171019000Y-98752465D01*
X171084368Y-98423838D01*
X171212593Y-98114276D01*
X171301282Y-97981544D01*
X171398747Y-97835676D01*
X171635676Y-97598747D01*
X171914275Y-97412594D01*
X171914276Y-97412593D01*
X172223838Y-97284368D01*
X172552465Y-97219000D01*
X172887535Y-97219000D01*
X173216162Y-97284368D01*
G37*
G36*
X156743512Y-97883927D02*
G01*
X156892812Y-97913624D01*
X157056784Y-97981544D01*
X157204354Y-98080147D01*
X157329853Y-98205646D01*
X157428456Y-98353216D01*
X157496376Y-98517188D01*
X157531000Y-98691259D01*
X157531000Y-98868741D01*
X157496376Y-99042812D01*
X157428456Y-99206784D01*
X157329853Y-99354354D01*
X157204354Y-99479853D01*
X157056784Y-99578456D01*
X156892812Y-99646376D01*
X156743512Y-99676073D01*
X156718742Y-99681000D01*
X156541258Y-99681000D01*
X156516488Y-99676073D01*
X156367188Y-99646376D01*
X156203216Y-99578456D01*
X156055646Y-99479853D01*
X155930147Y-99354354D01*
X155831544Y-99206784D01*
X155763624Y-99042812D01*
X155729000Y-98868741D01*
X155729000Y-98691259D01*
X155763624Y-98517188D01*
X155831544Y-98353216D01*
X155930147Y-98205646D01*
X156055646Y-98080147D01*
X156203216Y-97981544D01*
X156367188Y-97913624D01*
X156516488Y-97883927D01*
X156541258Y-97879000D01*
X156718742Y-97879000D01*
X156743512Y-97883927D01*
G37*
G36*
X159283512Y-97883927D02*
G01*
X159432812Y-97913624D01*
X159596784Y-97981544D01*
X159744354Y-98080147D01*
X159869853Y-98205646D01*
X159968456Y-98353216D01*
X160036376Y-98517188D01*
X160071000Y-98691259D01*
X160071000Y-98868741D01*
X160036376Y-99042812D01*
X159968456Y-99206784D01*
X159869853Y-99354354D01*
X159744354Y-99479853D01*
X159596784Y-99578456D01*
X159432812Y-99646376D01*
X159283512Y-99676073D01*
X159258742Y-99681000D01*
X159081258Y-99681000D01*
X159056488Y-99676073D01*
X158907188Y-99646376D01*
X158743216Y-99578456D01*
X158595646Y-99479853D01*
X158470147Y-99354354D01*
X158371544Y-99206784D01*
X158303624Y-99042812D01*
X158269000Y-98868741D01*
X158269000Y-98691259D01*
X158303624Y-98517188D01*
X158371544Y-98353216D01*
X158470147Y-98205646D01*
X158595646Y-98080147D01*
X158743216Y-97981544D01*
X158907188Y-97913624D01*
X159056488Y-97883927D01*
X159081258Y-97879000D01*
X159258742Y-97879000D01*
X159283512Y-97883927D01*
G37*
G36*
X203283512Y-97883927D02*
G01*
X203432812Y-97913624D01*
X203596784Y-97981544D01*
X203744354Y-98080147D01*
X203869853Y-98205646D01*
X203968456Y-98353216D01*
X204036376Y-98517188D01*
X204071000Y-98691259D01*
X204071000Y-98868741D01*
X204036376Y-99042812D01*
X203968456Y-99206784D01*
X203869853Y-99354354D01*
X203744354Y-99479853D01*
X203596784Y-99578456D01*
X203432812Y-99646376D01*
X203283512Y-99676073D01*
X203258742Y-99681000D01*
X203081258Y-99681000D01*
X203056488Y-99676073D01*
X202907188Y-99646376D01*
X202743216Y-99578456D01*
X202595646Y-99479853D01*
X202470147Y-99354354D01*
X202371544Y-99206784D01*
X202303624Y-99042812D01*
X202269000Y-98868741D01*
X202269000Y-98691259D01*
X202303624Y-98517188D01*
X202371544Y-98353216D01*
X202470147Y-98205646D01*
X202595646Y-98080147D01*
X202743216Y-97981544D01*
X202907188Y-97913624D01*
X203056488Y-97883927D01*
X203081258Y-97879000D01*
X203258742Y-97879000D01*
X203283512Y-97883927D01*
G37*
G36*
X200743512Y-97883927D02*
G01*
X200892812Y-97913624D01*
X201056784Y-97981544D01*
X201204354Y-98080147D01*
X201329853Y-98205646D01*
X201428456Y-98353216D01*
X201496376Y-98517188D01*
X201531000Y-98691259D01*
X201531000Y-98868741D01*
X201496376Y-99042812D01*
X201428456Y-99206784D01*
X201329853Y-99354354D01*
X201204354Y-99479853D01*
X201056784Y-99578456D01*
X200892812Y-99646376D01*
X200743512Y-99676073D01*
X200718742Y-99681000D01*
X200541258Y-99681000D01*
X200516488Y-99676073D01*
X200367188Y-99646376D01*
X200203216Y-99578456D01*
X200055646Y-99479853D01*
X199930147Y-99354354D01*
X199831544Y-99206784D01*
X199763624Y-99042812D01*
X199729000Y-98868741D01*
X199729000Y-98691259D01*
X199763624Y-98517188D01*
X199831544Y-98353216D01*
X199930147Y-98205646D01*
X200055646Y-98080147D01*
X200203216Y-97981544D01*
X200367188Y-97913624D01*
X200516488Y-97883927D01*
X200541258Y-97879000D01*
X200718742Y-97879000D01*
X200743512Y-97883927D01*
G37*
G36*
X159283512Y-95343927D02*
G01*
X159432812Y-95373624D01*
X159596784Y-95441544D01*
X159744354Y-95540147D01*
X159869853Y-95665646D01*
X159968456Y-95813216D01*
X160036376Y-95977188D01*
X160071000Y-96151259D01*
X160071000Y-96328741D01*
X160036376Y-96502812D01*
X159968456Y-96666784D01*
X159869853Y-96814354D01*
X159744354Y-96939853D01*
X159596784Y-97038456D01*
X159432812Y-97106376D01*
X159283512Y-97136073D01*
X159258742Y-97141000D01*
X159081258Y-97141000D01*
X159056488Y-97136073D01*
X158907188Y-97106376D01*
X158743216Y-97038456D01*
X158595646Y-96939853D01*
X158470147Y-96814354D01*
X158371544Y-96666784D01*
X158303624Y-96502812D01*
X158269000Y-96328741D01*
X158269000Y-96151259D01*
X158303624Y-95977188D01*
X158371544Y-95813216D01*
X158470147Y-95665646D01*
X158595646Y-95540147D01*
X158743216Y-95441544D01*
X158907188Y-95373624D01*
X159056488Y-95343927D01*
X159081258Y-95339000D01*
X159258742Y-95339000D01*
X159283512Y-95343927D01*
G37*
G36*
X156743512Y-95343927D02*
G01*
X156892812Y-95373624D01*
X157056784Y-95441544D01*
X157204354Y-95540147D01*
X157329853Y-95665646D01*
X157428456Y-95813216D01*
X157496376Y-95977188D01*
X157531000Y-96151259D01*
X157531000Y-96328741D01*
X157496376Y-96502812D01*
X157428456Y-96666784D01*
X157329853Y-96814354D01*
X157204354Y-96939853D01*
X157056784Y-97038456D01*
X156892812Y-97106376D01*
X156743512Y-97136073D01*
X156718742Y-97141000D01*
X156541258Y-97141000D01*
X156516488Y-97136073D01*
X156367188Y-97106376D01*
X156203216Y-97038456D01*
X156055646Y-96939853D01*
X155930147Y-96814354D01*
X155831544Y-96666784D01*
X155763624Y-96502812D01*
X155729000Y-96328741D01*
X155729000Y-96151259D01*
X155763624Y-95977188D01*
X155831544Y-95813216D01*
X155930147Y-95665646D01*
X156055646Y-95540147D01*
X156203216Y-95441544D01*
X156367188Y-95373624D01*
X156516488Y-95343927D01*
X156541258Y-95339000D01*
X156718742Y-95339000D01*
X156743512Y-95343927D01*
G37*
G36*
X200743512Y-95343927D02*
G01*
X200892812Y-95373624D01*
X201056784Y-95441544D01*
X201204354Y-95540147D01*
X201329853Y-95665646D01*
X201428456Y-95813216D01*
X201496376Y-95977188D01*
X201531000Y-96151259D01*
X201531000Y-96328741D01*
X201496376Y-96502812D01*
X201428456Y-96666784D01*
X201329853Y-96814354D01*
X201204354Y-96939853D01*
X201056784Y-97038456D01*
X200892812Y-97106376D01*
X200743512Y-97136073D01*
X200718742Y-97141000D01*
X200541258Y-97141000D01*
X200516488Y-97136073D01*
X200367188Y-97106376D01*
X200203216Y-97038456D01*
X200055646Y-96939853D01*
X199930147Y-96814354D01*
X199831544Y-96666784D01*
X199763624Y-96502812D01*
X199729000Y-96328741D01*
X199729000Y-96151259D01*
X199763624Y-95977188D01*
X199831544Y-95813216D01*
X199930147Y-95665646D01*
X200055646Y-95540147D01*
X200203216Y-95441544D01*
X200367188Y-95373624D01*
X200516488Y-95343927D01*
X200541258Y-95339000D01*
X200718742Y-95339000D01*
X200743512Y-95343927D01*
G37*
G36*
X203283512Y-95343927D02*
G01*
X203432812Y-95373624D01*
X203596784Y-95441544D01*
X203744354Y-95540147D01*
X203869853Y-95665646D01*
X203968456Y-95813216D01*
X204036376Y-95977188D01*
X204071000Y-96151259D01*
X204071000Y-96328741D01*
X204036376Y-96502812D01*
X203968456Y-96666784D01*
X203869853Y-96814354D01*
X203744354Y-96939853D01*
X203596784Y-97038456D01*
X203432812Y-97106376D01*
X203283512Y-97136073D01*
X203258742Y-97141000D01*
X203081258Y-97141000D01*
X203056488Y-97136073D01*
X202907188Y-97106376D01*
X202743216Y-97038456D01*
X202595646Y-96939853D01*
X202470147Y-96814354D01*
X202371544Y-96666784D01*
X202303624Y-96502812D01*
X202269000Y-96328741D01*
X202269000Y-96151259D01*
X202303624Y-95977188D01*
X202371544Y-95813216D01*
X202470147Y-95665646D01*
X202595646Y-95540147D01*
X202743216Y-95441544D01*
X202907188Y-95373624D01*
X203056488Y-95343927D01*
X203081258Y-95339000D01*
X203258742Y-95339000D01*
X203283512Y-95343927D01*
G37*
G36*
X159283512Y-92803927D02*
G01*
X159432812Y-92833624D01*
X159596784Y-92901544D01*
X159744354Y-93000147D01*
X159869853Y-93125646D01*
X159968456Y-93273216D01*
X160036376Y-93437188D01*
X160071000Y-93611259D01*
X160071000Y-93788741D01*
X160036376Y-93962812D01*
X159968456Y-94126784D01*
X159869853Y-94274354D01*
X159744354Y-94399853D01*
X159596784Y-94498456D01*
X159432812Y-94566376D01*
X159283512Y-94596073D01*
X159258742Y-94601000D01*
X159081258Y-94601000D01*
X159056488Y-94596073D01*
X158907188Y-94566376D01*
X158743216Y-94498456D01*
X158595646Y-94399853D01*
X158470147Y-94274354D01*
X158371544Y-94126784D01*
X158303624Y-93962812D01*
X158269000Y-93788741D01*
X158269000Y-93611259D01*
X158303624Y-93437188D01*
X158371544Y-93273216D01*
X158470147Y-93125646D01*
X158595646Y-93000147D01*
X158743216Y-92901544D01*
X158907188Y-92833624D01*
X159056488Y-92803927D01*
X159081258Y-92799000D01*
X159258742Y-92799000D01*
X159283512Y-92803927D01*
G37*
G36*
X200743512Y-92803927D02*
G01*
X200892812Y-92833624D01*
X201056784Y-92901544D01*
X201204354Y-93000147D01*
X201329853Y-93125646D01*
X201428456Y-93273216D01*
X201496376Y-93437188D01*
X201531000Y-93611259D01*
X201531000Y-93788741D01*
X201496376Y-93962812D01*
X201428456Y-94126784D01*
X201329853Y-94274354D01*
X201204354Y-94399853D01*
X201056784Y-94498456D01*
X200892812Y-94566376D01*
X200743512Y-94596073D01*
X200718742Y-94601000D01*
X200541258Y-94601000D01*
X200516488Y-94596073D01*
X200367188Y-94566376D01*
X200203216Y-94498456D01*
X200055646Y-94399853D01*
X199930147Y-94274354D01*
X199831544Y-94126784D01*
X199763624Y-93962812D01*
X199729000Y-93788741D01*
X199729000Y-93611259D01*
X199763624Y-93437188D01*
X199831544Y-93273216D01*
X199930147Y-93125646D01*
X200055646Y-93000147D01*
X200203216Y-92901544D01*
X200367188Y-92833624D01*
X200516488Y-92803927D01*
X200541258Y-92799000D01*
X200718742Y-92799000D01*
X200743512Y-92803927D01*
G37*
G36*
X203283512Y-92803927D02*
G01*
X203432812Y-92833624D01*
X203596784Y-92901544D01*
X203744354Y-93000147D01*
X203869853Y-93125646D01*
X203968456Y-93273216D01*
X204036376Y-93437188D01*
X204071000Y-93611259D01*
X204071000Y-93788741D01*
X204036376Y-93962812D01*
X203968456Y-94126784D01*
X203869853Y-94274354D01*
X203744354Y-94399853D01*
X203596784Y-94498456D01*
X203432812Y-94566376D01*
X203283512Y-94596073D01*
X203258742Y-94601000D01*
X203081258Y-94601000D01*
X203056488Y-94596073D01*
X202907188Y-94566376D01*
X202743216Y-94498456D01*
X202595646Y-94399853D01*
X202470147Y-94274354D01*
X202371544Y-94126784D01*
X202303624Y-93962812D01*
X202269000Y-93788741D01*
X202269000Y-93611259D01*
X202303624Y-93437188D01*
X202371544Y-93273216D01*
X202470147Y-93125646D01*
X202595646Y-93000147D01*
X202743216Y-92901544D01*
X202907188Y-92833624D01*
X203056488Y-92803927D01*
X203081258Y-92799000D01*
X203258742Y-92799000D01*
X203283512Y-92803927D01*
G37*
G36*
X156743512Y-92803927D02*
G01*
X156892812Y-92833624D01*
X157056784Y-92901544D01*
X157204354Y-93000147D01*
X157329853Y-93125646D01*
X157428456Y-93273216D01*
X157496376Y-93437188D01*
X157531000Y-93611259D01*
X157531000Y-93788741D01*
X157496376Y-93962812D01*
X157428456Y-94126784D01*
X157329853Y-94274354D01*
X157204354Y-94399853D01*
X157056784Y-94498456D01*
X156892812Y-94566376D01*
X156743512Y-94596073D01*
X156718742Y-94601000D01*
X156541258Y-94601000D01*
X156516488Y-94596073D01*
X156367188Y-94566376D01*
X156203216Y-94498456D01*
X156055646Y-94399853D01*
X155930147Y-94274354D01*
X155831544Y-94126784D01*
X155763624Y-93962812D01*
X155729000Y-93788741D01*
X155729000Y-93611259D01*
X155763624Y-93437188D01*
X155831544Y-93273216D01*
X155930147Y-93125646D01*
X156055646Y-93000147D01*
X156203216Y-92901544D01*
X156367188Y-92833624D01*
X156516488Y-92803927D01*
X156541258Y-92799000D01*
X156718742Y-92799000D01*
X156743512Y-92803927D01*
G37*
G36*
X156743512Y-90263927D02*
G01*
X156892812Y-90293624D01*
X157056784Y-90361544D01*
X157204354Y-90460147D01*
X157329853Y-90585646D01*
X157428456Y-90733216D01*
X157496376Y-90897188D01*
X157531000Y-91071259D01*
X157531000Y-91248741D01*
X157496376Y-91422812D01*
X157428456Y-91586784D01*
X157329853Y-91734354D01*
X157204354Y-91859853D01*
X157056784Y-91958456D01*
X156892812Y-92026376D01*
X156743512Y-92056073D01*
X156718742Y-92061000D01*
X156541258Y-92061000D01*
X156516488Y-92056073D01*
X156367188Y-92026376D01*
X156203216Y-91958456D01*
X156055646Y-91859853D01*
X155930147Y-91734354D01*
X155831544Y-91586784D01*
X155763624Y-91422812D01*
X155729000Y-91248741D01*
X155729000Y-91071259D01*
X155763624Y-90897188D01*
X155831544Y-90733216D01*
X155930147Y-90585646D01*
X156055646Y-90460147D01*
X156203216Y-90361544D01*
X156367188Y-90293624D01*
X156516488Y-90263927D01*
X156541258Y-90259000D01*
X156718742Y-90259000D01*
X156743512Y-90263927D01*
G37*
G36*
X159283512Y-90263927D02*
G01*
X159432812Y-90293624D01*
X159596784Y-90361544D01*
X159744354Y-90460147D01*
X159869853Y-90585646D01*
X159968456Y-90733216D01*
X160036376Y-90897188D01*
X160071000Y-91071259D01*
X160071000Y-91248741D01*
X160036376Y-91422812D01*
X159968456Y-91586784D01*
X159869853Y-91734354D01*
X159744354Y-91859853D01*
X159596784Y-91958456D01*
X159432812Y-92026376D01*
X159283512Y-92056073D01*
X159258742Y-92061000D01*
X159081258Y-92061000D01*
X159056488Y-92056073D01*
X158907188Y-92026376D01*
X158743216Y-91958456D01*
X158595646Y-91859853D01*
X158470147Y-91734354D01*
X158371544Y-91586784D01*
X158303624Y-91422812D01*
X158269000Y-91248741D01*
X158269000Y-91071259D01*
X158303624Y-90897188D01*
X158371544Y-90733216D01*
X158470147Y-90585646D01*
X158595646Y-90460147D01*
X158743216Y-90361544D01*
X158907188Y-90293624D01*
X159056488Y-90263927D01*
X159081258Y-90259000D01*
X159258742Y-90259000D01*
X159283512Y-90263927D01*
G37*
G36*
X200743512Y-90263927D02*
G01*
X200892812Y-90293624D01*
X201056784Y-90361544D01*
X201204354Y-90460147D01*
X201329853Y-90585646D01*
X201428456Y-90733216D01*
X201496376Y-90897188D01*
X201531000Y-91071259D01*
X201531000Y-91248741D01*
X201496376Y-91422812D01*
X201428456Y-91586784D01*
X201329853Y-91734354D01*
X201204354Y-91859853D01*
X201056784Y-91958456D01*
X200892812Y-92026376D01*
X200743512Y-92056073D01*
X200718742Y-92061000D01*
X200541258Y-92061000D01*
X200516488Y-92056073D01*
X200367188Y-92026376D01*
X200203216Y-91958456D01*
X200055646Y-91859853D01*
X199930147Y-91734354D01*
X199831544Y-91586784D01*
X199763624Y-91422812D01*
X199729000Y-91248741D01*
X199729000Y-91071259D01*
X199763624Y-90897188D01*
X199831544Y-90733216D01*
X199930147Y-90585646D01*
X200055646Y-90460147D01*
X200203216Y-90361544D01*
X200367188Y-90293624D01*
X200516488Y-90263927D01*
X200541258Y-90259000D01*
X200718742Y-90259000D01*
X200743512Y-90263927D01*
G37*
G36*
X203283512Y-90263927D02*
G01*
X203432812Y-90293624D01*
X203596784Y-90361544D01*
X203744354Y-90460147D01*
X203869853Y-90585646D01*
X203968456Y-90733216D01*
X204036376Y-90897188D01*
X204071000Y-91071259D01*
X204071000Y-91248741D01*
X204036376Y-91422812D01*
X203968456Y-91586784D01*
X203869853Y-91734354D01*
X203744354Y-91859853D01*
X203596784Y-91958456D01*
X203432812Y-92026376D01*
X203283512Y-92056073D01*
X203258742Y-92061000D01*
X203081258Y-92061000D01*
X203056488Y-92056073D01*
X202907188Y-92026376D01*
X202743216Y-91958456D01*
X202595646Y-91859853D01*
X202470147Y-91734354D01*
X202371544Y-91586784D01*
X202303624Y-91422812D01*
X202269000Y-91248741D01*
X202269000Y-91071259D01*
X202303624Y-90897188D01*
X202371544Y-90733216D01*
X202470147Y-90585646D01*
X202595646Y-90460147D01*
X202743216Y-90361544D01*
X202907188Y-90293624D01*
X203056488Y-90263927D01*
X203081258Y-90259000D01*
X203258742Y-90259000D01*
X203283512Y-90263927D01*
G37*
G36*
X185795228Y-90113703D02*
G01*
X185950100Y-90177853D01*
X186089481Y-90270985D01*
X186208015Y-90389519D01*
X186301147Y-90528900D01*
X186365297Y-90683772D01*
X186398000Y-90848184D01*
X186398000Y-91015816D01*
X186365297Y-91180228D01*
X186301147Y-91335100D01*
X186208015Y-91474481D01*
X186089481Y-91593015D01*
X185950100Y-91686147D01*
X185795228Y-91750297D01*
X185630816Y-91783000D01*
X185463184Y-91783000D01*
X185298772Y-91750297D01*
X185143900Y-91686147D01*
X185004519Y-91593015D01*
X184885985Y-91474481D01*
X184792853Y-91335100D01*
X184728703Y-91180228D01*
X184696000Y-91015816D01*
X184696000Y-90848184D01*
X184728703Y-90683772D01*
X184792853Y-90528900D01*
X184885985Y-90389519D01*
X185004519Y-90270985D01*
X185143900Y-90177853D01*
X185298772Y-90113703D01*
X185463184Y-90081000D01*
X185630816Y-90081000D01*
X185795228Y-90113703D01*
G37*
G36*
X188295228Y-90113703D02*
G01*
X188450100Y-90177853D01*
X188589481Y-90270985D01*
X188708015Y-90389519D01*
X188801147Y-90528900D01*
X188865297Y-90683772D01*
X188898000Y-90848184D01*
X188898000Y-91015816D01*
X188865297Y-91180228D01*
X188801147Y-91335100D01*
X188708015Y-91474481D01*
X188589481Y-91593015D01*
X188450100Y-91686147D01*
X188295228Y-91750297D01*
X188130816Y-91783000D01*
X187963184Y-91783000D01*
X187798772Y-91750297D01*
X187643900Y-91686147D01*
X187504519Y-91593015D01*
X187385985Y-91474481D01*
X187292853Y-91335100D01*
X187228703Y-91180228D01*
X187196000Y-91015816D01*
X187196000Y-90848184D01*
X187228703Y-90683772D01*
X187292853Y-90528900D01*
X187385985Y-90389519D01*
X187504519Y-90270985D01*
X187643900Y-90177853D01*
X187798772Y-90113703D01*
X187963184Y-90081000D01*
X188130816Y-90081000D01*
X188295228Y-90113703D01*
G37*
G36*
X159283512Y-87723927D02*
G01*
X159432812Y-87753624D01*
X159596784Y-87821544D01*
X159744354Y-87920147D01*
X159869853Y-88045646D01*
X159968456Y-88193216D01*
X160036376Y-88357188D01*
X160071000Y-88531259D01*
X160071000Y-88708741D01*
X160036376Y-88882812D01*
X159968456Y-89046784D01*
X159869853Y-89194354D01*
X159744354Y-89319853D01*
X159596784Y-89418456D01*
X159432812Y-89486376D01*
X159283512Y-89516073D01*
X159258742Y-89521000D01*
X159081258Y-89521000D01*
X159056488Y-89516073D01*
X158907188Y-89486376D01*
X158743216Y-89418456D01*
X158595646Y-89319853D01*
X158470147Y-89194354D01*
X158371544Y-89046784D01*
X158303624Y-88882812D01*
X158269000Y-88708741D01*
X158269000Y-88531259D01*
X158303624Y-88357188D01*
X158371544Y-88193216D01*
X158470147Y-88045646D01*
X158595646Y-87920147D01*
X158743216Y-87821544D01*
X158907188Y-87753624D01*
X159056488Y-87723927D01*
X159081258Y-87719000D01*
X159258742Y-87719000D01*
X159283512Y-87723927D01*
G37*
G36*
X200743512Y-87723927D02*
G01*
X200892812Y-87753624D01*
X201056784Y-87821544D01*
X201204354Y-87920147D01*
X201329853Y-88045646D01*
X201428456Y-88193216D01*
X201496376Y-88357188D01*
X201531000Y-88531259D01*
X201531000Y-88708741D01*
X201496376Y-88882812D01*
X201428456Y-89046784D01*
X201329853Y-89194354D01*
X201204354Y-89319853D01*
X201056784Y-89418456D01*
X200892812Y-89486376D01*
X200743512Y-89516073D01*
X200718742Y-89521000D01*
X200541258Y-89521000D01*
X200516488Y-89516073D01*
X200367188Y-89486376D01*
X200203216Y-89418456D01*
X200055646Y-89319853D01*
X199930147Y-89194354D01*
X199831544Y-89046784D01*
X199763624Y-88882812D01*
X199729000Y-88708741D01*
X199729000Y-88531259D01*
X199763624Y-88357188D01*
X199831544Y-88193216D01*
X199930147Y-88045646D01*
X200055646Y-87920147D01*
X200203216Y-87821544D01*
X200367188Y-87753624D01*
X200516488Y-87723927D01*
X200541258Y-87719000D01*
X200718742Y-87719000D01*
X200743512Y-87723927D01*
G37*
G36*
X156743512Y-87723927D02*
G01*
X156892812Y-87753624D01*
X157056784Y-87821544D01*
X157204354Y-87920147D01*
X157329853Y-88045646D01*
X157428456Y-88193216D01*
X157496376Y-88357188D01*
X157531000Y-88531259D01*
X157531000Y-88708741D01*
X157496376Y-88882812D01*
X157428456Y-89046784D01*
X157329853Y-89194354D01*
X157204354Y-89319853D01*
X157056784Y-89418456D01*
X156892812Y-89486376D01*
X156743512Y-89516073D01*
X156718742Y-89521000D01*
X156541258Y-89521000D01*
X156516488Y-89516073D01*
X156367188Y-89486376D01*
X156203216Y-89418456D01*
X156055646Y-89319853D01*
X155930147Y-89194354D01*
X155831544Y-89046784D01*
X155763624Y-88882812D01*
X155729000Y-88708741D01*
X155729000Y-88531259D01*
X155763624Y-88357188D01*
X155831544Y-88193216D01*
X155930147Y-88045646D01*
X156055646Y-87920147D01*
X156203216Y-87821544D01*
X156367188Y-87753624D01*
X156516488Y-87723927D01*
X156541258Y-87719000D01*
X156718742Y-87719000D01*
X156743512Y-87723927D01*
G37*
G36*
X203283512Y-87723927D02*
G01*
X203432812Y-87753624D01*
X203596784Y-87821544D01*
X203744354Y-87920147D01*
X203869853Y-88045646D01*
X203968456Y-88193216D01*
X204036376Y-88357188D01*
X204071000Y-88531259D01*
X204071000Y-88708741D01*
X204036376Y-88882812D01*
X203968456Y-89046784D01*
X203869853Y-89194354D01*
X203744354Y-89319853D01*
X203596784Y-89418456D01*
X203432812Y-89486376D01*
X203283512Y-89516073D01*
X203258742Y-89521000D01*
X203081258Y-89521000D01*
X203056488Y-89516073D01*
X202907188Y-89486376D01*
X202743216Y-89418456D01*
X202595646Y-89319853D01*
X202470147Y-89194354D01*
X202371544Y-89046784D01*
X202303624Y-88882812D01*
X202269000Y-88708741D01*
X202269000Y-88531259D01*
X202303624Y-88357188D01*
X202371544Y-88193216D01*
X202470147Y-88045646D01*
X202595646Y-87920147D01*
X202743216Y-87821544D01*
X202907188Y-87753624D01*
X203056488Y-87723927D01*
X203081258Y-87719000D01*
X203258742Y-87719000D01*
X203283512Y-87723927D01*
G37*
G36*
X185795228Y-87065703D02*
G01*
X185950100Y-87129853D01*
X186089481Y-87222985D01*
X186208015Y-87341519D01*
X186301147Y-87480900D01*
X186365297Y-87635772D01*
X186398000Y-87800184D01*
X186398000Y-87967816D01*
X186365297Y-88132228D01*
X186301147Y-88287100D01*
X186208015Y-88426481D01*
X186089481Y-88545015D01*
X185950100Y-88638147D01*
X185795228Y-88702297D01*
X185630816Y-88735000D01*
X185463184Y-88735000D01*
X185298772Y-88702297D01*
X185143900Y-88638147D01*
X185004519Y-88545015D01*
X184885985Y-88426481D01*
X184792853Y-88287100D01*
X184728703Y-88132228D01*
X184696000Y-87967816D01*
X184696000Y-87800184D01*
X184728703Y-87635772D01*
X184792853Y-87480900D01*
X184885985Y-87341519D01*
X185004519Y-87222985D01*
X185143900Y-87129853D01*
X185298772Y-87065703D01*
X185463184Y-87033000D01*
X185630816Y-87033000D01*
X185795228Y-87065703D01*
G37*
G36*
X188295228Y-87065703D02*
G01*
X188450100Y-87129853D01*
X188589481Y-87222985D01*
X188708015Y-87341519D01*
X188801147Y-87480900D01*
X188865297Y-87635772D01*
X188898000Y-87800184D01*
X188898000Y-87967816D01*
X188865297Y-88132228D01*
X188801147Y-88287100D01*
X188708015Y-88426481D01*
X188589481Y-88545015D01*
X188450100Y-88638147D01*
X188295228Y-88702297D01*
X188130816Y-88735000D01*
X187963184Y-88735000D01*
X187798772Y-88702297D01*
X187643900Y-88638147D01*
X187504519Y-88545015D01*
X187385985Y-88426481D01*
X187292853Y-88287100D01*
X187228703Y-88132228D01*
X187196000Y-87967816D01*
X187196000Y-87800184D01*
X187228703Y-87635772D01*
X187292853Y-87480900D01*
X187385985Y-87341519D01*
X187504519Y-87222985D01*
X187643900Y-87129853D01*
X187798772Y-87065703D01*
X187963184Y-87033000D01*
X188130816Y-87033000D01*
X188295228Y-87065703D01*
G37*
G36*
X156743512Y-85183927D02*
G01*
X156892812Y-85213624D01*
X157056784Y-85281544D01*
X157204354Y-85380147D01*
X157329853Y-85505646D01*
X157428456Y-85653216D01*
X157496376Y-85817188D01*
X157531000Y-85991259D01*
X157531000Y-86168741D01*
X157496376Y-86342812D01*
X157428456Y-86506784D01*
X157329853Y-86654354D01*
X157204354Y-86779853D01*
X157056784Y-86878456D01*
X156892812Y-86946376D01*
X156743512Y-86976073D01*
X156718742Y-86981000D01*
X156541258Y-86981000D01*
X156516488Y-86976073D01*
X156367188Y-86946376D01*
X156203216Y-86878456D01*
X156055646Y-86779853D01*
X155930147Y-86654354D01*
X155831544Y-86506784D01*
X155763624Y-86342812D01*
X155729000Y-86168741D01*
X155729000Y-85991259D01*
X155763624Y-85817188D01*
X155831544Y-85653216D01*
X155930147Y-85505646D01*
X156055646Y-85380147D01*
X156203216Y-85281544D01*
X156367188Y-85213624D01*
X156516488Y-85183927D01*
X156541258Y-85179000D01*
X156718742Y-85179000D01*
X156743512Y-85183927D01*
G37*
G36*
X203283512Y-85183927D02*
G01*
X203432812Y-85213624D01*
X203596784Y-85281544D01*
X203744354Y-85380147D01*
X203869853Y-85505646D01*
X203968456Y-85653216D01*
X204036376Y-85817188D01*
X204071000Y-85991259D01*
X204071000Y-86168741D01*
X204036376Y-86342812D01*
X203968456Y-86506784D01*
X203869853Y-86654354D01*
X203744354Y-86779853D01*
X203596784Y-86878456D01*
X203432812Y-86946376D01*
X203283512Y-86976073D01*
X203258742Y-86981000D01*
X203081258Y-86981000D01*
X203056488Y-86976073D01*
X202907188Y-86946376D01*
X202743216Y-86878456D01*
X202595646Y-86779853D01*
X202470147Y-86654354D01*
X202371544Y-86506784D01*
X202303624Y-86342812D01*
X202269000Y-86168741D01*
X202269000Y-85991259D01*
X202303624Y-85817188D01*
X202371544Y-85653216D01*
X202470147Y-85505646D01*
X202595646Y-85380147D01*
X202743216Y-85281544D01*
X202907188Y-85213624D01*
X203056488Y-85183927D01*
X203081258Y-85179000D01*
X203258742Y-85179000D01*
X203283512Y-85183927D01*
G37*
G36*
X200743512Y-85183927D02*
G01*
X200892812Y-85213624D01*
X201056784Y-85281544D01*
X201204354Y-85380147D01*
X201329853Y-85505646D01*
X201428456Y-85653216D01*
X201496376Y-85817188D01*
X201531000Y-85991259D01*
X201531000Y-86168741D01*
X201496376Y-86342812D01*
X201428456Y-86506784D01*
X201329853Y-86654354D01*
X201204354Y-86779853D01*
X201056784Y-86878456D01*
X200892812Y-86946376D01*
X200743512Y-86976073D01*
X200718742Y-86981000D01*
X200541258Y-86981000D01*
X200516488Y-86976073D01*
X200367188Y-86946376D01*
X200203216Y-86878456D01*
X200055646Y-86779853D01*
X199930147Y-86654354D01*
X199831544Y-86506784D01*
X199763624Y-86342812D01*
X199729000Y-86168741D01*
X199729000Y-85991259D01*
X199763624Y-85817188D01*
X199831544Y-85653216D01*
X199930147Y-85505646D01*
X200055646Y-85380147D01*
X200203216Y-85281544D01*
X200367188Y-85213624D01*
X200516488Y-85183927D01*
X200541258Y-85179000D01*
X200718742Y-85179000D01*
X200743512Y-85183927D01*
G37*
G36*
X159283512Y-85183927D02*
G01*
X159432812Y-85213624D01*
X159596784Y-85281544D01*
X159744354Y-85380147D01*
X159869853Y-85505646D01*
X159968456Y-85653216D01*
X160036376Y-85817188D01*
X160071000Y-85991259D01*
X160071000Y-86168741D01*
X160036376Y-86342812D01*
X159968456Y-86506784D01*
X159869853Y-86654354D01*
X159744354Y-86779853D01*
X159596784Y-86878456D01*
X159432812Y-86946376D01*
X159283512Y-86976073D01*
X159258742Y-86981000D01*
X159081258Y-86981000D01*
X159056488Y-86976073D01*
X158907188Y-86946376D01*
X158743216Y-86878456D01*
X158595646Y-86779853D01*
X158470147Y-86654354D01*
X158371544Y-86506784D01*
X158303624Y-86342812D01*
X158269000Y-86168741D01*
X158269000Y-85991259D01*
X158303624Y-85817188D01*
X158371544Y-85653216D01*
X158470147Y-85505646D01*
X158595646Y-85380147D01*
X158743216Y-85281544D01*
X158907188Y-85213624D01*
X159056488Y-85183927D01*
X159081258Y-85179000D01*
X159258742Y-85179000D01*
X159283512Y-85183927D01*
G37*
G36*
X175479059Y-84621860D02*
G01*
X175615732Y-84678472D01*
X175738735Y-84760660D01*
X175843340Y-84865265D01*
X175925528Y-84988268D01*
X175982140Y-85124941D01*
X176011000Y-85270033D01*
X176011000Y-85417967D01*
X175982140Y-85563059D01*
X175925528Y-85699732D01*
X175843340Y-85822735D01*
X175738735Y-85927340D01*
X175615732Y-86009528D01*
X175615731Y-86009529D01*
X175615730Y-86009529D01*
X175479059Y-86066140D01*
X175333968Y-86095000D01*
X175186032Y-86095000D01*
X175040941Y-86066140D01*
X174904270Y-86009529D01*
X174904269Y-86009529D01*
X174904268Y-86009528D01*
X174781265Y-85927340D01*
X174676660Y-85822735D01*
X174594472Y-85699732D01*
X174537860Y-85563059D01*
X174509000Y-85417967D01*
X174509000Y-85270033D01*
X174537860Y-85124941D01*
X174594472Y-84988268D01*
X174676660Y-84865265D01*
X174781265Y-84760660D01*
X174904268Y-84678472D01*
X175040941Y-84621860D01*
X175186032Y-84593000D01*
X175333968Y-84593000D01*
X175479059Y-84621860D01*
G37*
G36*
X180559059Y-84621860D02*
G01*
X180695732Y-84678472D01*
X180818735Y-84760660D01*
X180923340Y-84865265D01*
X181005528Y-84988268D01*
X181062140Y-85124941D01*
X181091000Y-85270033D01*
X181091000Y-85417967D01*
X181062140Y-85563059D01*
X181005528Y-85699732D01*
X180923340Y-85822735D01*
X180818735Y-85927340D01*
X180695732Y-86009528D01*
X180695731Y-86009529D01*
X180695730Y-86009529D01*
X180559059Y-86066140D01*
X180413968Y-86095000D01*
X180266032Y-86095000D01*
X180120941Y-86066140D01*
X179984270Y-86009529D01*
X179984269Y-86009529D01*
X179984268Y-86009528D01*
X179861265Y-85927340D01*
X179756660Y-85822735D01*
X179674472Y-85699732D01*
X179617860Y-85563059D01*
X179589000Y-85417967D01*
X179589000Y-85270033D01*
X179617860Y-85124941D01*
X179674472Y-84988268D01*
X179756660Y-84865265D01*
X179861265Y-84760660D01*
X179984268Y-84678472D01*
X180120941Y-84621860D01*
X180266032Y-84593000D01*
X180413968Y-84593000D01*
X180559059Y-84621860D01*
G37*
G36*
X159283512Y-82643927D02*
G01*
X159432812Y-82673624D01*
X159596784Y-82741544D01*
X159744354Y-82840147D01*
X159869853Y-82965646D01*
X159968456Y-83113216D01*
X160036376Y-83277188D01*
X160071000Y-83451259D01*
X160071000Y-83628741D01*
X160036376Y-83802812D01*
X159968456Y-83966784D01*
X159869853Y-84114354D01*
X159744354Y-84239853D01*
X159596784Y-84338456D01*
X159432812Y-84406376D01*
X159283512Y-84436073D01*
X159258742Y-84441000D01*
X159081258Y-84441000D01*
X159056488Y-84436073D01*
X158907188Y-84406376D01*
X158743216Y-84338456D01*
X158595646Y-84239853D01*
X158470147Y-84114354D01*
X158371544Y-83966784D01*
X158303624Y-83802812D01*
X158269000Y-83628741D01*
X158269000Y-83451259D01*
X158303624Y-83277188D01*
X158371544Y-83113216D01*
X158470147Y-82965646D01*
X158595646Y-82840147D01*
X158743216Y-82741544D01*
X158907188Y-82673624D01*
X159056488Y-82643927D01*
X159081258Y-82639000D01*
X159258742Y-82639000D01*
X159283512Y-82643927D01*
G37*
G36*
X201531000Y-84441000D02*
G01*
X199729000Y-84441000D01*
X199729000Y-82639000D01*
X201531000Y-82639000D01*
X201531000Y-84441000D01*
G37*
G36*
X157531000Y-84441000D02*
G01*
X155729000Y-84441000D01*
X155729000Y-82639000D01*
X157531000Y-82639000D01*
X157531000Y-84441000D01*
G37*
G36*
X203283512Y-82643927D02*
G01*
X203432812Y-82673624D01*
X203596784Y-82741544D01*
X203744354Y-82840147D01*
X203869853Y-82965646D01*
X203968456Y-83113216D01*
X204036376Y-83277188D01*
X204071000Y-83451259D01*
X204071000Y-83628741D01*
X204036376Y-83802812D01*
X203968456Y-83966784D01*
X203869853Y-84114354D01*
X203744354Y-84239853D01*
X203596784Y-84338456D01*
X203432812Y-84406376D01*
X203283512Y-84436073D01*
X203258742Y-84441000D01*
X203081258Y-84441000D01*
X203056488Y-84436073D01*
X202907188Y-84406376D01*
X202743216Y-84338456D01*
X202595646Y-84239853D01*
X202470147Y-84114354D01*
X202371544Y-83966784D01*
X202303624Y-83802812D01*
X202269000Y-83628741D01*
X202269000Y-83451259D01*
X202303624Y-83277188D01*
X202371544Y-83113216D01*
X202470147Y-82965646D01*
X202595646Y-82840147D01*
X202743216Y-82741544D01*
X202907188Y-82673624D01*
X203056488Y-82643927D01*
X203081258Y-82639000D01*
X203258742Y-82639000D01*
X203283512Y-82643927D01*
G37*
G36*
X180559059Y-81827860D02*
G01*
X180695732Y-81884472D01*
X180818735Y-81966660D01*
X180923340Y-82071265D01*
X181005528Y-82194268D01*
X181062140Y-82330941D01*
X181091000Y-82476033D01*
X181091000Y-82623967D01*
X181062140Y-82769059D01*
X181005528Y-82905732D01*
X180923340Y-83028735D01*
X180818735Y-83133340D01*
X180695732Y-83215528D01*
X180695731Y-83215529D01*
X180695730Y-83215529D01*
X180559059Y-83272140D01*
X180413968Y-83301000D01*
X180266032Y-83301000D01*
X180120941Y-83272140D01*
X179984270Y-83215529D01*
X179984269Y-83215529D01*
X179984268Y-83215528D01*
X179861265Y-83133340D01*
X179756660Y-83028735D01*
X179674472Y-82905732D01*
X179617860Y-82769059D01*
X179589000Y-82623967D01*
X179589000Y-82476033D01*
X179617860Y-82330941D01*
X179674472Y-82194268D01*
X179756660Y-82071265D01*
X179861265Y-81966660D01*
X179984268Y-81884472D01*
X180120941Y-81827860D01*
X180266032Y-81799000D01*
X180413968Y-81799000D01*
X180559059Y-81827860D01*
G37*
G36*
X175479059Y-81827860D02*
G01*
X175615732Y-81884472D01*
X175738735Y-81966660D01*
X175843340Y-82071265D01*
X175925528Y-82194268D01*
X175982140Y-82330941D01*
X176011000Y-82476033D01*
X176011000Y-82623967D01*
X175982140Y-82769059D01*
X175925528Y-82905732D01*
X175843340Y-83028735D01*
X175738735Y-83133340D01*
X175615732Y-83215528D01*
X175615731Y-83215529D01*
X175615730Y-83215529D01*
X175479059Y-83272140D01*
X175333968Y-83301000D01*
X175186032Y-83301000D01*
X175040941Y-83272140D01*
X174904270Y-83215529D01*
X174904269Y-83215529D01*
X174904268Y-83215528D01*
X174781265Y-83133340D01*
X174676660Y-83028735D01*
X174594472Y-82905732D01*
X174537860Y-82769059D01*
X174509000Y-82623967D01*
X174509000Y-82476033D01*
X174537860Y-82330941D01*
X174594472Y-82194268D01*
X174676660Y-82071265D01*
X174781265Y-81966660D01*
X174904268Y-81884472D01*
X175040941Y-81827860D01*
X175186032Y-81799000D01*
X175333968Y-81799000D01*
X175479059Y-81827860D01*
G37*
G36*
X180559059Y-79287860D02*
G01*
X180695732Y-79344472D01*
X180818735Y-79426660D01*
X180923340Y-79531265D01*
X181005528Y-79654268D01*
X181062140Y-79790941D01*
X181091000Y-79936033D01*
X181091000Y-80083967D01*
X181062140Y-80229059D01*
X181005528Y-80365732D01*
X180923340Y-80488735D01*
X180818735Y-80593340D01*
X180695732Y-80675528D01*
X180695731Y-80675529D01*
X180695730Y-80675529D01*
X180559059Y-80732140D01*
X180413968Y-80761000D01*
X180266032Y-80761000D01*
X180120941Y-80732140D01*
X179984270Y-80675529D01*
X179984269Y-80675529D01*
X179984268Y-80675528D01*
X179861265Y-80593340D01*
X179756660Y-80488735D01*
X179674472Y-80365732D01*
X179617860Y-80229059D01*
X179589000Y-80083967D01*
X179589000Y-79936033D01*
X179617860Y-79790941D01*
X179674472Y-79654268D01*
X179756660Y-79531265D01*
X179861265Y-79426660D01*
X179984268Y-79344472D01*
X180120941Y-79287860D01*
X180266032Y-79259000D01*
X180413968Y-79259000D01*
X180559059Y-79287860D01*
G37*
G36*
X175479059Y-79287860D02*
G01*
X175615732Y-79344472D01*
X175738735Y-79426660D01*
X175843340Y-79531265D01*
X175925528Y-79654268D01*
X175982140Y-79790941D01*
X176011000Y-79936033D01*
X176011000Y-80083967D01*
X175982140Y-80229059D01*
X175925528Y-80365732D01*
X175843340Y-80488735D01*
X175738735Y-80593340D01*
X175615732Y-80675528D01*
X175615731Y-80675529D01*
X175615730Y-80675529D01*
X175479059Y-80732140D01*
X175333968Y-80761000D01*
X175186032Y-80761000D01*
X175040941Y-80732140D01*
X174904270Y-80675529D01*
X174904269Y-80675529D01*
X174904268Y-80675528D01*
X174781265Y-80593340D01*
X174676660Y-80488735D01*
X174594472Y-80365732D01*
X174537860Y-80229059D01*
X174509000Y-80083967D01*
X174509000Y-79936033D01*
X174537860Y-79790941D01*
X174594472Y-79654268D01*
X174676660Y-79531265D01*
X174781265Y-79426660D01*
X174904268Y-79344472D01*
X175040941Y-79287860D01*
X175186032Y-79259000D01*
X175333968Y-79259000D01*
X175479059Y-79287860D01*
G37*
G36*
X176691228Y-76651703D02*
G01*
X176846100Y-76715853D01*
X176985481Y-76808985D01*
X177104015Y-76927519D01*
X177197147Y-77066900D01*
X177261297Y-77221772D01*
X177294000Y-77386184D01*
X177294000Y-77553816D01*
X177261297Y-77718228D01*
X177197147Y-77873100D01*
X177104015Y-78012481D01*
X176985481Y-78131015D01*
X176846100Y-78224147D01*
X176691228Y-78288297D01*
X176526816Y-78321000D01*
X176359184Y-78321000D01*
X176194772Y-78288297D01*
X176039900Y-78224147D01*
X175900519Y-78131015D01*
X175781985Y-78012481D01*
X175688853Y-77873100D01*
X175624703Y-77718228D01*
X175592000Y-77553816D01*
X175592000Y-77386184D01*
X175624703Y-77221772D01*
X175688853Y-77066900D01*
X175781985Y-76927519D01*
X175900519Y-76808985D01*
X176039900Y-76715853D01*
X176194772Y-76651703D01*
X176359184Y-76619000D01*
X176526816Y-76619000D01*
X176691228Y-76651703D01*
G37*
G36*
X179191228Y-76651703D02*
G01*
X179346100Y-76715853D01*
X179485481Y-76808985D01*
X179604015Y-76927519D01*
X179697147Y-77066900D01*
X179761297Y-77221772D01*
X179794000Y-77386184D01*
X179794000Y-77553816D01*
X179761297Y-77718228D01*
X179697147Y-77873100D01*
X179604015Y-78012481D01*
X179485481Y-78131015D01*
X179346100Y-78224147D01*
X179191228Y-78288297D01*
X179026816Y-78321000D01*
X178859184Y-78321000D01*
X178694772Y-78288297D01*
X178539900Y-78224147D01*
X178400519Y-78131015D01*
X178281985Y-78012481D01*
X178188853Y-77873100D01*
X178124703Y-77718228D01*
X178092000Y-77553816D01*
X178092000Y-77386184D01*
X178124703Y-77221772D01*
X178188853Y-77066900D01*
X178281985Y-76927519D01*
X178400519Y-76808985D01*
X178539900Y-76715853D01*
X178694772Y-76651703D01*
X178859184Y-76619000D01*
X179026816Y-76619000D01*
X179191228Y-76651703D01*
G37*
G36*
X173771000Y-72806000D02*
G01*
X171669000Y-72806000D01*
X171669000Y-70704000D01*
X173771000Y-70704000D01*
X173771000Y-72806000D01*
G37*
G36*
X188016564Y-70744389D02*
G01*
X188207833Y-70823615D01*
X188207835Y-70823616D01*
X188379973Y-70938635D01*
X188526365Y-71085027D01*
X188641385Y-71257167D01*
X188720611Y-71448436D01*
X188761000Y-71651484D01*
X188761000Y-71858516D01*
X188720611Y-72061564D01*
X188641385Y-72252833D01*
X188641384Y-72252835D01*
X188526365Y-72424973D01*
X188379973Y-72571365D01*
X188207835Y-72686384D01*
X188207834Y-72686385D01*
X188207833Y-72686385D01*
X188016564Y-72765611D01*
X187813516Y-72806000D01*
X187606484Y-72806000D01*
X187403436Y-72765611D01*
X187212167Y-72686385D01*
X187212166Y-72686385D01*
X187212165Y-72686384D01*
X187040027Y-72571365D01*
X186893635Y-72424973D01*
X186778616Y-72252835D01*
X186778615Y-72252833D01*
X186699389Y-72061564D01*
X186659000Y-71858516D01*
X186659000Y-71651484D01*
X186699389Y-71448436D01*
X186778615Y-71257167D01*
X186893635Y-71085027D01*
X187040027Y-70938635D01*
X187212165Y-70823616D01*
X187212167Y-70823615D01*
X187403436Y-70744389D01*
X187606484Y-70704000D01*
X187813516Y-70704000D01*
X188016564Y-70744389D01*
G37*
G36*
X184398228Y-62046703D02*
G01*
X184553100Y-62110853D01*
X184692481Y-62203985D01*
X184811015Y-62322519D01*
X184904147Y-62461900D01*
X184968297Y-62616772D01*
X185001000Y-62781184D01*
X185001000Y-62948816D01*
X184968297Y-63113228D01*
X184904147Y-63268100D01*
X184811015Y-63407481D01*
X184692481Y-63526015D01*
X184553100Y-63619147D01*
X184398228Y-63683297D01*
X184233816Y-63716000D01*
X184066184Y-63716000D01*
X183901772Y-63683297D01*
X183746900Y-63619147D01*
X183607519Y-63526015D01*
X183488985Y-63407481D01*
X183395853Y-63268100D01*
X183331703Y-63113228D01*
X183299000Y-62948816D01*
X183299000Y-62781184D01*
X183331703Y-62616772D01*
X183395853Y-62461900D01*
X183488985Y-62322519D01*
X183607519Y-62203985D01*
X183746900Y-62110853D01*
X183901772Y-62046703D01*
X184066184Y-62014000D01*
X184233816Y-62014000D01*
X184398228Y-62046703D01*
G37*
G36*
X177413228Y-62046703D02*
G01*
X177568100Y-62110853D01*
X177707481Y-62203985D01*
X177826015Y-62322519D01*
X177919147Y-62461900D01*
X177983297Y-62616772D01*
X178016000Y-62781184D01*
X178016000Y-62948816D01*
X177983297Y-63113228D01*
X177919147Y-63268100D01*
X177826015Y-63407481D01*
X177707481Y-63526015D01*
X177568100Y-63619147D01*
X177413228Y-63683297D01*
X177248816Y-63716000D01*
X177081184Y-63716000D01*
X176916772Y-63683297D01*
X176761900Y-63619147D01*
X176622519Y-63526015D01*
X176503985Y-63407481D01*
X176410853Y-63268100D01*
X176346703Y-63113228D01*
X176314000Y-62948816D01*
X176314000Y-62781184D01*
X176346703Y-62616772D01*
X176410853Y-62461900D01*
X176503985Y-62322519D01*
X176622519Y-62203985D01*
X176761900Y-62110853D01*
X176916772Y-62046703D01*
X177081184Y-62014000D01*
X177248816Y-62014000D01*
X177413228Y-62046703D01*
G37*
G36*
X174873228Y-62046703D02*
G01*
X175028100Y-62110853D01*
X175167481Y-62203985D01*
X175286015Y-62322519D01*
X175379147Y-62461900D01*
X175443297Y-62616772D01*
X175476000Y-62781184D01*
X175476000Y-62948816D01*
X175443297Y-63113228D01*
X175379147Y-63268100D01*
X175286015Y-63407481D01*
X175167481Y-63526015D01*
X175028100Y-63619147D01*
X174873228Y-63683297D01*
X174708816Y-63716000D01*
X174541184Y-63716000D01*
X174376772Y-63683297D01*
X174221900Y-63619147D01*
X174082519Y-63526015D01*
X173963985Y-63407481D01*
X173870853Y-63268100D01*
X173806703Y-63113228D01*
X173774000Y-62948816D01*
X173774000Y-62781184D01*
X173806703Y-62616772D01*
X173870853Y-62461900D01*
X173963985Y-62322519D01*
X174082519Y-62203985D01*
X174221900Y-62110853D01*
X174376772Y-62046703D01*
X174541184Y-62014000D01*
X174708816Y-62014000D01*
X174873228Y-62046703D01*
G37*
G36*
X186938228Y-62046703D02*
G01*
X187093100Y-62110853D01*
X187232481Y-62203985D01*
X187351015Y-62322519D01*
X187444147Y-62461900D01*
X187508297Y-62616772D01*
X187541000Y-62781184D01*
X187541000Y-62948816D01*
X187508297Y-63113228D01*
X187444147Y-63268100D01*
X187351015Y-63407481D01*
X187232481Y-63526015D01*
X187093100Y-63619147D01*
X186938228Y-63683297D01*
X186773816Y-63716000D01*
X186606184Y-63716000D01*
X186441772Y-63683297D01*
X186286900Y-63619147D01*
X186147519Y-63526015D01*
X186028985Y-63407481D01*
X185935853Y-63268100D01*
X185871703Y-63113228D01*
X185839000Y-62948816D01*
X185839000Y-62781184D01*
X185871703Y-62616772D01*
X185935853Y-62461900D01*
X186028985Y-62322519D01*
X186147519Y-62203985D01*
X186286900Y-62110853D01*
X186441772Y-62046703D01*
X186606184Y-62014000D01*
X186773816Y-62014000D01*
X186938228Y-62046703D01*
G37*
G36*
X168691000Y-61376000D02*
G01*
X166589000Y-61376000D01*
X166589000Y-59274000D01*
X168691000Y-59274000D01*
X168691000Y-61376000D01*
G37*
G36*
X160346564Y-59314389D02*
G01*
X160537833Y-59393615D01*
X160537835Y-59393616D01*
X160709973Y-59508635D01*
X160856365Y-59655027D01*
X160971385Y-59827167D01*
X161050611Y-60018436D01*
X161091000Y-60221484D01*
X161091000Y-60428516D01*
X161050611Y-60631564D01*
X160971385Y-60822833D01*
X160971384Y-60822835D01*
X160856365Y-60994973D01*
X160709973Y-61141365D01*
X160537835Y-61256384D01*
X160537834Y-61256385D01*
X160537833Y-61256385D01*
X160346564Y-61335611D01*
X160143516Y-61376000D01*
X159936484Y-61376000D01*
X159733436Y-61335611D01*
X159542167Y-61256385D01*
X159542166Y-61256385D01*
X159542165Y-61256384D01*
X159370027Y-61141365D01*
X159223635Y-60994973D01*
X159108616Y-60822835D01*
X159108615Y-60822833D01*
X159029389Y-60631564D01*
X158989000Y-60428516D01*
X158989000Y-60221484D01*
X159029389Y-60018436D01*
X159108615Y-59827167D01*
X159223635Y-59655027D01*
X159370027Y-59508635D01*
X159542165Y-59393616D01*
X159542167Y-59393615D01*
X159733436Y-59314389D01*
X159936484Y-59274000D01*
X160143516Y-59274000D01*
X160346564Y-59314389D01*
G37*
G36*
X185001000Y-56096000D02*
G01*
X183299000Y-56096000D01*
X183299000Y-54394000D01*
X185001000Y-54394000D01*
X185001000Y-56096000D01*
G37*
G36*
X186938228Y-54426703D02*
G01*
X187093100Y-54490853D01*
X187232481Y-54583985D01*
X187351015Y-54702519D01*
X187444147Y-54841900D01*
X187508297Y-54996772D01*
X187541000Y-55161184D01*
X187541000Y-55328816D01*
X187508297Y-55493228D01*
X187444147Y-55648100D01*
X187351015Y-55787481D01*
X187232481Y-55906015D01*
X187093100Y-55999147D01*
X186938228Y-56063297D01*
X186773816Y-56096000D01*
X186606184Y-56096000D01*
X186441772Y-56063297D01*
X186286900Y-55999147D01*
X186147519Y-55906015D01*
X186028985Y-55787481D01*
X185935853Y-55648100D01*
X185871703Y-55493228D01*
X185839000Y-55328816D01*
X185839000Y-55161184D01*
X185871703Y-54996772D01*
X185935853Y-54841900D01*
X186028985Y-54702519D01*
X186147519Y-54583985D01*
X186286900Y-54490853D01*
X186441772Y-54426703D01*
X186606184Y-54394000D01*
X186773816Y-54394000D01*
X186938228Y-54426703D01*
G37*
G36*
X175476000Y-56096000D02*
G01*
X173774000Y-56096000D01*
X173774000Y-54394000D01*
X175476000Y-54394000D01*
X175476000Y-56096000D01*
G37*
G36*
X177413228Y-54426703D02*
G01*
X177568100Y-54490853D01*
X177707481Y-54583985D01*
X177826015Y-54702519D01*
X177919147Y-54841900D01*
X177983297Y-54996772D01*
X178016000Y-55161184D01*
X178016000Y-55328816D01*
X177983297Y-55493228D01*
X177919147Y-55648100D01*
X177826015Y-55787481D01*
X177707481Y-55906015D01*
X177568100Y-55999147D01*
X177413228Y-56063297D01*
X177248816Y-56096000D01*
X177081184Y-56096000D01*
X176916772Y-56063297D01*
X176761900Y-55999147D01*
X176622519Y-55906015D01*
X176503985Y-55787481D01*
X176410853Y-55648100D01*
X176346703Y-55493228D01*
X176314000Y-55328816D01*
X176314000Y-55161184D01*
X176346703Y-54996772D01*
X176410853Y-54841900D01*
X176503985Y-54702519D01*
X176622519Y-54583985D01*
X176761900Y-54490853D01*
X176916772Y-54426703D01*
X177081184Y-54394000D01*
X177248816Y-54394000D01*
X177413228Y-54426703D01*
G37*
G36*
X205655256Y-47111298D02*
G01*
X205761579Y-47132447D01*
X206062042Y-47256903D01*
X206332451Y-47437585D01*
X206562415Y-47667549D01*
X206743097Y-47937958D01*
X206839734Y-48171259D01*
X206867553Y-48238422D01*
X206931000Y-48557389D01*
X206931000Y-48882611D01*
X206915635Y-48959853D01*
X206867553Y-49201579D01*
X206743097Y-49502042D01*
X206562415Y-49772451D01*
X206332451Y-50002415D01*
X206062042Y-50183097D01*
X205761579Y-50307553D01*
X205655256Y-50328702D01*
X205442611Y-50371000D01*
X205117389Y-50371000D01*
X204904744Y-50328702D01*
X204798421Y-50307553D01*
X204497958Y-50183097D01*
X204227549Y-50002415D01*
X203997585Y-49772451D01*
X203816903Y-49502042D01*
X203692447Y-49201579D01*
X203644365Y-48959853D01*
X203629000Y-48882611D01*
X203629000Y-48557389D01*
X203692447Y-48238422D01*
X203720267Y-48171259D01*
X203816903Y-47937958D01*
X203997585Y-47667549D01*
X204227549Y-47437585D01*
X204497958Y-47256903D01*
X204798421Y-47132447D01*
X204904744Y-47111298D01*
X205117389Y-47069000D01*
X205442611Y-47069000D01*
X205655256Y-47111298D01*
G37*
G36*
X154505256Y-47111298D02*
G01*
X154611579Y-47132447D01*
X154912042Y-47256903D01*
X155182451Y-47437585D01*
X155412415Y-47667549D01*
X155593097Y-47937958D01*
X155689734Y-48171259D01*
X155717553Y-48238422D01*
X155781000Y-48557389D01*
X155781000Y-48882611D01*
X155765635Y-48959853D01*
X155717553Y-49201579D01*
X155593097Y-49502042D01*
X155412415Y-49772451D01*
X155182451Y-50002415D01*
X154912042Y-50183097D01*
X154611579Y-50307553D01*
X154505256Y-50328702D01*
X154292611Y-50371000D01*
X153967389Y-50371000D01*
X153754744Y-50328702D01*
X153648421Y-50307553D01*
X153347958Y-50183097D01*
X153077549Y-50002415D01*
X152847585Y-49772451D01*
X152666903Y-49502042D01*
X152542447Y-49201579D01*
X152494365Y-48959853D01*
X152479000Y-48882611D01*
X152479000Y-48557389D01*
X152542447Y-48238422D01*
X152570267Y-48171259D01*
X152666903Y-47937958D01*
X152847585Y-47667549D01*
X153077549Y-47437585D01*
X153347958Y-47256903D01*
X153648421Y-47132447D01*
X153754744Y-47111298D01*
X153967389Y-47069000D01*
X154292611Y-47069000D01*
X154505256Y-47111298D01*
G37*
G36*
X193153512Y-47363927D02*
G01*
X193302812Y-47393624D01*
X193466784Y-47461544D01*
X193614354Y-47560147D01*
X193739853Y-47685646D01*
X193838456Y-47833216D01*
X193906376Y-47997188D01*
X193941000Y-48171259D01*
X193941000Y-48348741D01*
X193906376Y-48522812D01*
X193838456Y-48686784D01*
X193739853Y-48834354D01*
X193614354Y-48959853D01*
X193466784Y-49058456D01*
X193302812Y-49126376D01*
X193153512Y-49156073D01*
X193128742Y-49161000D01*
X192951258Y-49161000D01*
X192926488Y-49156073D01*
X192777188Y-49126376D01*
X192613216Y-49058456D01*
X192465646Y-48959853D01*
X192340147Y-48834354D01*
X192241544Y-48686784D01*
X192173624Y-48522812D01*
X192139000Y-48348741D01*
X192139000Y-48171259D01*
X192173624Y-47997188D01*
X192241544Y-47833216D01*
X192340147Y-47685646D01*
X192465646Y-47560147D01*
X192613216Y-47461544D01*
X192777188Y-47393624D01*
X192926488Y-47363927D01*
X192951258Y-47359000D01*
X193128742Y-47359000D01*
X193153512Y-47363927D01*
G37*
G36*
X190613512Y-47363927D02*
G01*
X190762812Y-47393624D01*
X190926784Y-47461544D01*
X191074354Y-47560147D01*
X191199853Y-47685646D01*
X191298456Y-47833216D01*
X191366376Y-47997188D01*
X191401000Y-48171259D01*
X191401000Y-48348741D01*
X191366376Y-48522812D01*
X191298456Y-48686784D01*
X191199853Y-48834354D01*
X191074354Y-48959853D01*
X190926784Y-49058456D01*
X190762812Y-49126376D01*
X190613512Y-49156073D01*
X190588742Y-49161000D01*
X190411258Y-49161000D01*
X190386488Y-49156073D01*
X190237188Y-49126376D01*
X190073216Y-49058456D01*
X189925646Y-48959853D01*
X189800147Y-48834354D01*
X189701544Y-48686784D01*
X189633624Y-48522812D01*
X189599000Y-48348741D01*
X189599000Y-48171259D01*
X189633624Y-47997188D01*
X189701544Y-47833216D01*
X189800147Y-47685646D01*
X189925646Y-47560147D01*
X190073216Y-47461544D01*
X190237188Y-47393624D01*
X190386488Y-47363927D01*
X190411258Y-47359000D01*
X190588742Y-47359000D01*
X190613512Y-47363927D01*
G37*
G36*
X188073512Y-47363927D02*
G01*
X188222812Y-47393624D01*
X188386784Y-47461544D01*
X188534354Y-47560147D01*
X188659853Y-47685646D01*
X188758456Y-47833216D01*
X188826376Y-47997188D01*
X188861000Y-48171259D01*
X188861000Y-48348741D01*
X188826376Y-48522812D01*
X188758456Y-48686784D01*
X188659853Y-48834354D01*
X188534354Y-48959853D01*
X188386784Y-49058456D01*
X188222812Y-49126376D01*
X188073512Y-49156073D01*
X188048742Y-49161000D01*
X187871258Y-49161000D01*
X187846488Y-49156073D01*
X187697188Y-49126376D01*
X187533216Y-49058456D01*
X187385646Y-48959853D01*
X187260147Y-48834354D01*
X187161544Y-48686784D01*
X187093624Y-48522812D01*
X187059000Y-48348741D01*
X187059000Y-48171259D01*
X187093624Y-47997188D01*
X187161544Y-47833216D01*
X187260147Y-47685646D01*
X187385646Y-47560147D01*
X187533216Y-47461544D01*
X187697188Y-47393624D01*
X187846488Y-47363927D01*
X187871258Y-47359000D01*
X188048742Y-47359000D01*
X188073512Y-47363927D01*
G37*
G36*
X186321000Y-49161000D02*
G01*
X184519000Y-49161000D01*
X184519000Y-47359000D01*
X186321000Y-47359000D01*
X186321000Y-49161000D01*
G37*
G36*
X198233512Y-47363927D02*
G01*
X198382812Y-47393624D01*
X198546784Y-47461544D01*
X198694354Y-47560147D01*
X198819853Y-47685646D01*
X198918456Y-47833216D01*
X198986376Y-47997188D01*
X199021000Y-48171259D01*
X199021000Y-48348741D01*
X198986376Y-48522812D01*
X198918456Y-48686784D01*
X198819853Y-48834354D01*
X198694354Y-48959853D01*
X198546784Y-49058456D01*
X198382812Y-49126376D01*
X198233512Y-49156073D01*
X198208742Y-49161000D01*
X198031258Y-49161000D01*
X198006488Y-49156073D01*
X197857188Y-49126376D01*
X197693216Y-49058456D01*
X197545646Y-48959853D01*
X197420147Y-48834354D01*
X197321544Y-48686784D01*
X197253624Y-48522812D01*
X197219000Y-48348741D01*
X197219000Y-48171259D01*
X197253624Y-47997188D01*
X197321544Y-47833216D01*
X197420147Y-47685646D01*
X197545646Y-47560147D01*
X197693216Y-47461544D01*
X197857188Y-47393624D01*
X198006488Y-47363927D01*
X198031258Y-47359000D01*
X198208742Y-47359000D01*
X198233512Y-47363927D01*
G37*
G36*
X195693512Y-47363927D02*
G01*
X195842812Y-47393624D01*
X196006784Y-47461544D01*
X196154354Y-47560147D01*
X196279853Y-47685646D01*
X196378456Y-47833216D01*
X196446376Y-47997188D01*
X196481000Y-48171259D01*
X196481000Y-48348741D01*
X196446376Y-48522812D01*
X196378456Y-48686784D01*
X196279853Y-48834354D01*
X196154354Y-48959853D01*
X196006784Y-49058456D01*
X195842812Y-49126376D01*
X195693512Y-49156073D01*
X195668742Y-49161000D01*
X195491258Y-49161000D01*
X195466488Y-49156073D01*
X195317188Y-49126376D01*
X195153216Y-49058456D01*
X195005646Y-48959853D01*
X194880147Y-48834354D01*
X194781544Y-48686784D01*
X194713624Y-48522812D01*
X194679000Y-48348741D01*
X194679000Y-48171259D01*
X194713624Y-47997188D01*
X194781544Y-47833216D01*
X194880147Y-47685646D01*
X195005646Y-47560147D01*
X195153216Y-47461544D01*
X195317188Y-47393624D01*
X195466488Y-47363927D01*
X195491258Y-47359000D01*
X195668742Y-47359000D01*
X195693512Y-47363927D01*
G37*
G36*
X174256000Y-49161000D02*
G01*
X172454000Y-49161000D01*
X172454000Y-47359000D01*
X174256000Y-47359000D01*
X174256000Y-49161000D01*
G37*
M02*
