%FSLAX45Y45*%
G04 Gerber Fmt 4.5, Leading zero omitted, Abs format (unit mm)*
G04 Created by KiCad (PCBNEW 5.1.5+dfsg1-2build2) date 2023-01-01 14:21:48*
%MOMM*%
%LPD*%
G04 APERTURE LIST*
%TA.AperFunction,Profile*%
%ADD10C,0.050000*%
%TD*%
%ADD11C,0.200000*%
%ADD12C,0.300000*%
G04 APERTURE END LIST*
D10*
X20868000Y-12954000D02*
X20868000Y-4572000D01*
X15113000Y-12954000D02*
X20868000Y-12954000D01*
X15113000Y-4572000D02*
X20868000Y-4572000D01*
X15113000Y-12954000D02*
X15113000Y-4572000D01*
D11*
X15253000Y-12494000D02*
X15573000Y-12814000D01*
X15573000Y-12494000D02*
X15253000Y-12814000D01*
X15253000Y-4712000D02*
X15573000Y-5032000D01*
X15573000Y-4712000D02*
X15253000Y-5032000D01*
X20368000Y-12494000D02*
X20688000Y-12814000D01*
X20688000Y-12494000D02*
X20368000Y-12814000D01*
X20368000Y-4712000D02*
X20688000Y-5032000D01*
X20688000Y-4712000D02*
X20368000Y-5032000D01*
X17437000Y-9892000D02*
G75*
G03X17437000Y-9892000I-165000J0D01*
G01*
X18936000Y-9892000D02*
G75*
G03X18936000Y-9892000I-165000J0D01*
G01*
D12*
X15396928Y-13422214D02*
X15396928Y-13122214D01*
X15468357Y-13122214D01*
X15511214Y-13136500D01*
X15539786Y-13165071D01*
X15554071Y-13193643D01*
X15568357Y-13250786D01*
X15568357Y-13293643D01*
X15554071Y-13350786D01*
X15539786Y-13379357D01*
X15511214Y-13407929D01*
X15468357Y-13422214D01*
X15396928Y-13422214D01*
X15696928Y-13422214D02*
X15696928Y-13222214D01*
X15696928Y-13279357D02*
X15711214Y-13250786D01*
X15725500Y-13236500D01*
X15754071Y-13222214D01*
X15782643Y-13222214D01*
X15882643Y-13422214D02*
X15882643Y-13222214D01*
X15882643Y-13122214D02*
X15868357Y-13136500D01*
X15882643Y-13150786D01*
X15896928Y-13136500D01*
X15882643Y-13122214D01*
X15882643Y-13150786D01*
X16068357Y-13422214D02*
X16039786Y-13407929D01*
X16025500Y-13379357D01*
X16025500Y-13122214D01*
X16225500Y-13422214D02*
X16196928Y-13407929D01*
X16182643Y-13379357D01*
X16182643Y-13122214D01*
X16568357Y-13422214D02*
X16568357Y-13122214D01*
X16668357Y-13336500D01*
X16768357Y-13122214D01*
X16768357Y-13422214D01*
X17039786Y-13422214D02*
X17039786Y-13265071D01*
X17025500Y-13236500D01*
X16996928Y-13222214D01*
X16939786Y-13222214D01*
X16911214Y-13236500D01*
X17039786Y-13407929D02*
X17011214Y-13422214D01*
X16939786Y-13422214D01*
X16911214Y-13407929D01*
X16896928Y-13379357D01*
X16896928Y-13350786D01*
X16911214Y-13322214D01*
X16939786Y-13307929D01*
X17011214Y-13307929D01*
X17039786Y-13293643D01*
X17182643Y-13222214D02*
X17182643Y-13522214D01*
X17182643Y-13236500D02*
X17211214Y-13222214D01*
X17268357Y-13222214D01*
X17296928Y-13236500D01*
X17311214Y-13250786D01*
X17325500Y-13279357D01*
X17325500Y-13365071D01*
X17311214Y-13393643D01*
X17296928Y-13407929D01*
X17268357Y-13422214D01*
X17211214Y-13422214D01*
X17182643Y-13407929D01*
X17454071Y-13393643D02*
X17468357Y-13407929D01*
X17454071Y-13422214D01*
X17439786Y-13407929D01*
X17454071Y-13393643D01*
X17454071Y-13422214D01*
X17454071Y-13236500D02*
X17468357Y-13250786D01*
X17454071Y-13265071D01*
X17439786Y-13250786D01*
X17454071Y-13236500D01*
X17454071Y-13265071D01*
X14790500Y-13756500D02*
X15110500Y-14076500D01*
X15110500Y-13756500D02*
X14790500Y-14076500D01*
X15368357Y-13752214D02*
X15554071Y-13752214D01*
X15454071Y-13866500D01*
X15496928Y-13866500D01*
X15525500Y-13880786D01*
X15539786Y-13895071D01*
X15554071Y-13923643D01*
X15554071Y-13995071D01*
X15539786Y-14023643D01*
X15525500Y-14037929D01*
X15496928Y-14052214D01*
X15411214Y-14052214D01*
X15382643Y-14037929D01*
X15368357Y-14023643D01*
X15682643Y-14023643D02*
X15696928Y-14037929D01*
X15682643Y-14052214D01*
X15668357Y-14037929D01*
X15682643Y-14023643D01*
X15682643Y-14052214D01*
X15811214Y-13780786D02*
X15825500Y-13766500D01*
X15854071Y-13752214D01*
X15925500Y-13752214D01*
X15954071Y-13766500D01*
X15968357Y-13780786D01*
X15982643Y-13809357D01*
X15982643Y-13837929D01*
X15968357Y-13880786D01*
X15796928Y-14052214D01*
X15982643Y-14052214D01*
X16168357Y-13752214D02*
X16196928Y-13752214D01*
X16225500Y-13766500D01*
X16239786Y-13780786D01*
X16254071Y-13809357D01*
X16268357Y-13866500D01*
X16268357Y-13937929D01*
X16254071Y-13995071D01*
X16239786Y-14023643D01*
X16225500Y-14037929D01*
X16196928Y-14052214D01*
X16168357Y-14052214D01*
X16139786Y-14037929D01*
X16125500Y-14023643D01*
X16111214Y-13995071D01*
X16096928Y-13937929D01*
X16096928Y-13866500D01*
X16111214Y-13809357D01*
X16125500Y-13780786D01*
X16139786Y-13766500D01*
X16168357Y-13752214D01*
X16396928Y-14052214D02*
X16396928Y-13852214D01*
X16396928Y-13880786D02*
X16411214Y-13866500D01*
X16439786Y-13852214D01*
X16482643Y-13852214D01*
X16511214Y-13866500D01*
X16525500Y-13895071D01*
X16525500Y-14052214D01*
X16525500Y-13895071D02*
X16539786Y-13866500D01*
X16568357Y-13852214D01*
X16611214Y-13852214D01*
X16639786Y-13866500D01*
X16654071Y-13895071D01*
X16654071Y-14052214D01*
X16796928Y-14052214D02*
X16796928Y-13852214D01*
X16796928Y-13880786D02*
X16811214Y-13866500D01*
X16839786Y-13852214D01*
X16882643Y-13852214D01*
X16911214Y-13866500D01*
X16925500Y-13895071D01*
X16925500Y-14052214D01*
X16925500Y-13895071D02*
X16939786Y-13866500D01*
X16968357Y-13852214D01*
X17011214Y-13852214D01*
X17039786Y-13866500D01*
X17054071Y-13895071D01*
X17054071Y-14052214D01*
X17639786Y-13737929D02*
X17382643Y-14123643D01*
X18025500Y-13752214D02*
X18054071Y-13752214D01*
X18082643Y-13766500D01*
X18096928Y-13780786D01*
X18111214Y-13809357D01*
X18125500Y-13866500D01*
X18125500Y-13937929D01*
X18111214Y-13995071D01*
X18096928Y-14023643D01*
X18082643Y-14037929D01*
X18054071Y-14052214D01*
X18025500Y-14052214D01*
X17996928Y-14037929D01*
X17982643Y-14023643D01*
X17968357Y-13995071D01*
X17954071Y-13937929D01*
X17954071Y-13866500D01*
X17968357Y-13809357D01*
X17982643Y-13780786D01*
X17996928Y-13766500D01*
X18025500Y-13752214D01*
X18254071Y-14023643D02*
X18268357Y-14037929D01*
X18254071Y-14052214D01*
X18239786Y-14037929D01*
X18254071Y-14023643D01*
X18254071Y-14052214D01*
X18554071Y-14052214D02*
X18382643Y-14052214D01*
X18468357Y-14052214D02*
X18468357Y-13752214D01*
X18439786Y-13795071D01*
X18411214Y-13823643D01*
X18382643Y-13837929D01*
X18668357Y-13780786D02*
X18682643Y-13766500D01*
X18711214Y-13752214D01*
X18782643Y-13752214D01*
X18811214Y-13766500D01*
X18825500Y-13780786D01*
X18839786Y-13809357D01*
X18839786Y-13837929D01*
X18825500Y-13880786D01*
X18654071Y-14052214D01*
X18839786Y-14052214D01*
X19096928Y-13752214D02*
X19039786Y-13752214D01*
X19011214Y-13766500D01*
X18996928Y-13780786D01*
X18968357Y-13823643D01*
X18954071Y-13880786D01*
X18954071Y-13995071D01*
X18968357Y-14023643D01*
X18982643Y-14037929D01*
X19011214Y-14052214D01*
X19068357Y-14052214D01*
X19096928Y-14037929D01*
X19111214Y-14023643D01*
X19125500Y-13995071D01*
X19125500Y-13923643D01*
X19111214Y-13895071D01*
X19096928Y-13880786D01*
X19068357Y-13866500D01*
X19011214Y-13866500D01*
X18982643Y-13880786D01*
X18968357Y-13895071D01*
X18954071Y-13923643D01*
X19239786Y-13752214D02*
X19239786Y-13809357D01*
X19354071Y-13752214D02*
X19354071Y-13809357D01*
X19796928Y-14166500D02*
X19782643Y-14152214D01*
X19754071Y-14109357D01*
X19739786Y-14080786D01*
X19725500Y-14037929D01*
X19711214Y-13966500D01*
X19711214Y-13909357D01*
X19725500Y-13837929D01*
X19739786Y-13795071D01*
X19754071Y-13766500D01*
X19782643Y-13723643D01*
X19796928Y-13709357D01*
X20039786Y-13852214D02*
X20039786Y-14052214D01*
X19968357Y-13737929D02*
X19896928Y-13952214D01*
X20082643Y-13952214D01*
X20425500Y-14052214D02*
X20425500Y-13752214D01*
X20554071Y-14052214D02*
X20554071Y-13895071D01*
X20539786Y-13866500D01*
X20511214Y-13852214D01*
X20468357Y-13852214D01*
X20439786Y-13866500D01*
X20425500Y-13880786D01*
X20739786Y-14052214D02*
X20711214Y-14037929D01*
X20696928Y-14023643D01*
X20682643Y-13995071D01*
X20682643Y-13909357D01*
X20696928Y-13880786D01*
X20711214Y-13866500D01*
X20739786Y-13852214D01*
X20782643Y-13852214D01*
X20811214Y-13866500D01*
X20825500Y-13880786D01*
X20839786Y-13909357D01*
X20839786Y-13995071D01*
X20825500Y-14023643D01*
X20811214Y-14037929D01*
X20782643Y-14052214D01*
X20739786Y-14052214D01*
X21011214Y-14052214D02*
X20982643Y-14037929D01*
X20968357Y-14009357D01*
X20968357Y-13752214D01*
X21239786Y-14037929D02*
X21211214Y-14052214D01*
X21154071Y-14052214D01*
X21125500Y-14037929D01*
X21111214Y-14009357D01*
X21111214Y-13895071D01*
X21125500Y-13866500D01*
X21154071Y-13852214D01*
X21211214Y-13852214D01*
X21239786Y-13866500D01*
X21254071Y-13895071D01*
X21254071Y-13923643D01*
X21111214Y-13952214D01*
X21368357Y-14037929D02*
X21396928Y-14052214D01*
X21454071Y-14052214D01*
X21482643Y-14037929D01*
X21496928Y-14009357D01*
X21496928Y-13995071D01*
X21482643Y-13966500D01*
X21454071Y-13952214D01*
X21411214Y-13952214D01*
X21382643Y-13937929D01*
X21368357Y-13909357D01*
X21368357Y-13895071D01*
X21382643Y-13866500D01*
X21411214Y-13852214D01*
X21454071Y-13852214D01*
X21482643Y-13866500D01*
X21596928Y-14166500D02*
X21611214Y-14152214D01*
X21639786Y-14109357D01*
X21654071Y-14080786D01*
X21668357Y-14037929D01*
X21682643Y-13966500D01*
X21682643Y-13909357D01*
X21668357Y-13837929D01*
X21654071Y-13795071D01*
X21639786Y-13766500D01*
X21611214Y-13723643D01*
X21596928Y-13709357D01*
X22139786Y-14166500D02*
X22125500Y-14152214D01*
X22096928Y-14109357D01*
X22082643Y-14080786D01*
X22068357Y-14037929D01*
X22054071Y-13966500D01*
X22054071Y-13909357D01*
X22068357Y-13837929D01*
X22082643Y-13795071D01*
X22096928Y-13766500D01*
X22125500Y-13723643D01*
X22139786Y-13709357D01*
X22254071Y-13852214D02*
X22254071Y-14052214D01*
X22254071Y-13880786D02*
X22268357Y-13866500D01*
X22296928Y-13852214D01*
X22339786Y-13852214D01*
X22368357Y-13866500D01*
X22382643Y-13895071D01*
X22382643Y-14052214D01*
X22568357Y-14052214D02*
X22539786Y-14037929D01*
X22525500Y-14023643D01*
X22511214Y-13995071D01*
X22511214Y-13909357D01*
X22525500Y-13880786D01*
X22539786Y-13866500D01*
X22568357Y-13852214D01*
X22611214Y-13852214D01*
X22639786Y-13866500D01*
X22654071Y-13880786D01*
X22668357Y-13909357D01*
X22668357Y-13995071D01*
X22654071Y-14023643D01*
X22639786Y-14037929D01*
X22611214Y-14052214D01*
X22568357Y-14052214D01*
X22754071Y-13852214D02*
X22868357Y-13852214D01*
X22796928Y-13752214D02*
X22796928Y-14009357D01*
X22811214Y-14037929D01*
X22839786Y-14052214D01*
X22868357Y-14052214D01*
X23196928Y-13852214D02*
X23196928Y-14152214D01*
X23196928Y-13866500D02*
X23225500Y-13852214D01*
X23282643Y-13852214D01*
X23311214Y-13866500D01*
X23325500Y-13880786D01*
X23339786Y-13909357D01*
X23339786Y-13995071D01*
X23325500Y-14023643D01*
X23311214Y-14037929D01*
X23282643Y-14052214D01*
X23225500Y-14052214D01*
X23196928Y-14037929D01*
X23511214Y-14052214D02*
X23482643Y-14037929D01*
X23468357Y-14009357D01*
X23468357Y-13752214D01*
X23754071Y-14052214D02*
X23754071Y-13895071D01*
X23739786Y-13866500D01*
X23711214Y-13852214D01*
X23654071Y-13852214D01*
X23625500Y-13866500D01*
X23754071Y-14037929D02*
X23725500Y-14052214D01*
X23654071Y-14052214D01*
X23625500Y-14037929D01*
X23611214Y-14009357D01*
X23611214Y-13980786D01*
X23625500Y-13952214D01*
X23654071Y-13937929D01*
X23725500Y-13937929D01*
X23754071Y-13923643D01*
X23854071Y-13852214D02*
X23968357Y-13852214D01*
X23896928Y-13752214D02*
X23896928Y-14009357D01*
X23911214Y-14037929D01*
X23939786Y-14052214D01*
X23968357Y-14052214D01*
X24182643Y-14037929D02*
X24154071Y-14052214D01*
X24096928Y-14052214D01*
X24068357Y-14037929D01*
X24054071Y-14009357D01*
X24054071Y-13895071D01*
X24068357Y-13866500D01*
X24096928Y-13852214D01*
X24154071Y-13852214D01*
X24182643Y-13866500D01*
X24196928Y-13895071D01*
X24196928Y-13923643D01*
X24054071Y-13952214D01*
X24454071Y-14052214D02*
X24454071Y-13752214D01*
X24454071Y-14037929D02*
X24425500Y-14052214D01*
X24368357Y-14052214D01*
X24339786Y-14037929D01*
X24325500Y-14023643D01*
X24311214Y-13995071D01*
X24311214Y-13909357D01*
X24325500Y-13880786D01*
X24339786Y-13866500D01*
X24368357Y-13852214D01*
X24425500Y-13852214D01*
X24454071Y-13866500D01*
X24568357Y-14166500D02*
X24582643Y-14152214D01*
X24611214Y-14109357D01*
X24625500Y-14080786D01*
X24639786Y-14037929D01*
X24654071Y-13966500D01*
X24654071Y-13909357D01*
X24639786Y-13837929D01*
X24625500Y-13795071D01*
X24611214Y-13766500D01*
X24582643Y-13723643D01*
X24568357Y-13709357D01*
X15110500Y-14366500D02*
G75*
G03X15110500Y-14366500I-165000J0D01*
G01*
X15368357Y-14202214D02*
X15554071Y-14202214D01*
X15454071Y-14316500D01*
X15496928Y-14316500D01*
X15525500Y-14330786D01*
X15539786Y-14345071D01*
X15554071Y-14373643D01*
X15554071Y-14445071D01*
X15539786Y-14473643D01*
X15525500Y-14487929D01*
X15496928Y-14502214D01*
X15411214Y-14502214D01*
X15382643Y-14487929D01*
X15368357Y-14473643D01*
X15682643Y-14473643D02*
X15696928Y-14487929D01*
X15682643Y-14502214D01*
X15668357Y-14487929D01*
X15682643Y-14473643D01*
X15682643Y-14502214D01*
X15796928Y-14202214D02*
X15982643Y-14202214D01*
X15882643Y-14316500D01*
X15925500Y-14316500D01*
X15954071Y-14330786D01*
X15968357Y-14345071D01*
X15982643Y-14373643D01*
X15982643Y-14445071D01*
X15968357Y-14473643D01*
X15954071Y-14487929D01*
X15925500Y-14502214D01*
X15839786Y-14502214D01*
X15811214Y-14487929D01*
X15796928Y-14473643D01*
X16168357Y-14202214D02*
X16196928Y-14202214D01*
X16225500Y-14216500D01*
X16239786Y-14230786D01*
X16254071Y-14259357D01*
X16268357Y-14316500D01*
X16268357Y-14387929D01*
X16254071Y-14445071D01*
X16239786Y-14473643D01*
X16225500Y-14487929D01*
X16196928Y-14502214D01*
X16168357Y-14502214D01*
X16139786Y-14487929D01*
X16125500Y-14473643D01*
X16111214Y-14445071D01*
X16096928Y-14387929D01*
X16096928Y-14316500D01*
X16111214Y-14259357D01*
X16125500Y-14230786D01*
X16139786Y-14216500D01*
X16168357Y-14202214D01*
X16396928Y-14502214D02*
X16396928Y-14302214D01*
X16396928Y-14330786D02*
X16411214Y-14316500D01*
X16439786Y-14302214D01*
X16482643Y-14302214D01*
X16511214Y-14316500D01*
X16525500Y-14345071D01*
X16525500Y-14502214D01*
X16525500Y-14345071D02*
X16539786Y-14316500D01*
X16568357Y-14302214D01*
X16611214Y-14302214D01*
X16639786Y-14316500D01*
X16654071Y-14345071D01*
X16654071Y-14502214D01*
X16796928Y-14502214D02*
X16796928Y-14302214D01*
X16796928Y-14330786D02*
X16811214Y-14316500D01*
X16839786Y-14302214D01*
X16882643Y-14302214D01*
X16911214Y-14316500D01*
X16925500Y-14345071D01*
X16925500Y-14502214D01*
X16925500Y-14345071D02*
X16939786Y-14316500D01*
X16968357Y-14302214D01*
X17011214Y-14302214D01*
X17039786Y-14316500D01*
X17054071Y-14345071D01*
X17054071Y-14502214D01*
X17639786Y-14187929D02*
X17382643Y-14573643D01*
X18025500Y-14202214D02*
X18054071Y-14202214D01*
X18082643Y-14216500D01*
X18096928Y-14230786D01*
X18111214Y-14259357D01*
X18125500Y-14316500D01*
X18125500Y-14387929D01*
X18111214Y-14445071D01*
X18096928Y-14473643D01*
X18082643Y-14487929D01*
X18054071Y-14502214D01*
X18025500Y-14502214D01*
X17996928Y-14487929D01*
X17982643Y-14473643D01*
X17968357Y-14445071D01*
X17954071Y-14387929D01*
X17954071Y-14316500D01*
X17968357Y-14259357D01*
X17982643Y-14230786D01*
X17996928Y-14216500D01*
X18025500Y-14202214D01*
X18254071Y-14473643D02*
X18268357Y-14487929D01*
X18254071Y-14502214D01*
X18239786Y-14487929D01*
X18254071Y-14473643D01*
X18254071Y-14502214D01*
X18554071Y-14502214D02*
X18382643Y-14502214D01*
X18468357Y-14502214D02*
X18468357Y-14202214D01*
X18439786Y-14245071D01*
X18411214Y-14273643D01*
X18382643Y-14287929D01*
X18654071Y-14202214D02*
X18839786Y-14202214D01*
X18739786Y-14316500D01*
X18782643Y-14316500D01*
X18811214Y-14330786D01*
X18825500Y-14345071D01*
X18839786Y-14373643D01*
X18839786Y-14445071D01*
X18825500Y-14473643D01*
X18811214Y-14487929D01*
X18782643Y-14502214D01*
X18696928Y-14502214D01*
X18668357Y-14487929D01*
X18654071Y-14473643D01*
X19025500Y-14202214D02*
X19054071Y-14202214D01*
X19082643Y-14216500D01*
X19096928Y-14230786D01*
X19111214Y-14259357D01*
X19125500Y-14316500D01*
X19125500Y-14387929D01*
X19111214Y-14445071D01*
X19096928Y-14473643D01*
X19082643Y-14487929D01*
X19054071Y-14502214D01*
X19025500Y-14502214D01*
X18996928Y-14487929D01*
X18982643Y-14473643D01*
X18968357Y-14445071D01*
X18954071Y-14387929D01*
X18954071Y-14316500D01*
X18968357Y-14259357D01*
X18982643Y-14230786D01*
X18996928Y-14216500D01*
X19025500Y-14202214D01*
X19239786Y-14202214D02*
X19239786Y-14259357D01*
X19354071Y-14202214D02*
X19354071Y-14259357D01*
X19796928Y-14616500D02*
X19782643Y-14602214D01*
X19754071Y-14559357D01*
X19739786Y-14530786D01*
X19725500Y-14487929D01*
X19711214Y-14416500D01*
X19711214Y-14359357D01*
X19725500Y-14287929D01*
X19739786Y-14245071D01*
X19754071Y-14216500D01*
X19782643Y-14173643D01*
X19796928Y-14159357D01*
X19896928Y-14230786D02*
X19911214Y-14216500D01*
X19939786Y-14202214D01*
X20011214Y-14202214D01*
X20039786Y-14216500D01*
X20054071Y-14230786D01*
X20068357Y-14259357D01*
X20068357Y-14287929D01*
X20054071Y-14330786D01*
X19882643Y-14502214D01*
X20068357Y-14502214D01*
X20425500Y-14502214D02*
X20425500Y-14202214D01*
X20554071Y-14502214D02*
X20554071Y-14345071D01*
X20539786Y-14316500D01*
X20511214Y-14302214D01*
X20468357Y-14302214D01*
X20439786Y-14316500D01*
X20425500Y-14330786D01*
X20739786Y-14502214D02*
X20711214Y-14487929D01*
X20696928Y-14473643D01*
X20682643Y-14445071D01*
X20682643Y-14359357D01*
X20696928Y-14330786D01*
X20711214Y-14316500D01*
X20739786Y-14302214D01*
X20782643Y-14302214D01*
X20811214Y-14316500D01*
X20825500Y-14330786D01*
X20839786Y-14359357D01*
X20839786Y-14445071D01*
X20825500Y-14473643D01*
X20811214Y-14487929D01*
X20782643Y-14502214D01*
X20739786Y-14502214D01*
X21011214Y-14502214D02*
X20982643Y-14487929D01*
X20968357Y-14459357D01*
X20968357Y-14202214D01*
X21239786Y-14487929D02*
X21211214Y-14502214D01*
X21154071Y-14502214D01*
X21125500Y-14487929D01*
X21111214Y-14459357D01*
X21111214Y-14345071D01*
X21125500Y-14316500D01*
X21154071Y-14302214D01*
X21211214Y-14302214D01*
X21239786Y-14316500D01*
X21254071Y-14345071D01*
X21254071Y-14373643D01*
X21111214Y-14402214D01*
X21368357Y-14487929D02*
X21396928Y-14502214D01*
X21454071Y-14502214D01*
X21482643Y-14487929D01*
X21496928Y-14459357D01*
X21496928Y-14445071D01*
X21482643Y-14416500D01*
X21454071Y-14402214D01*
X21411214Y-14402214D01*
X21382643Y-14387929D01*
X21368357Y-14359357D01*
X21368357Y-14345071D01*
X21382643Y-14316500D01*
X21411214Y-14302214D01*
X21454071Y-14302214D01*
X21482643Y-14316500D01*
X21596928Y-14616500D02*
X21611214Y-14602214D01*
X21639786Y-14559357D01*
X21654071Y-14530786D01*
X21668357Y-14487929D01*
X21682643Y-14416500D01*
X21682643Y-14359357D01*
X21668357Y-14287929D01*
X21654071Y-14245071D01*
X21639786Y-14216500D01*
X21611214Y-14173643D01*
X21596928Y-14159357D01*
X22139786Y-14616500D02*
X22125500Y-14602214D01*
X22096928Y-14559357D01*
X22082643Y-14530786D01*
X22068357Y-14487929D01*
X22054071Y-14416500D01*
X22054071Y-14359357D01*
X22068357Y-14287929D01*
X22082643Y-14245071D01*
X22096928Y-14216500D01*
X22125500Y-14173643D01*
X22139786Y-14159357D01*
X22254071Y-14302214D02*
X22254071Y-14502214D01*
X22254071Y-14330786D02*
X22268357Y-14316500D01*
X22296928Y-14302214D01*
X22339786Y-14302214D01*
X22368357Y-14316500D01*
X22382643Y-14345071D01*
X22382643Y-14502214D01*
X22568357Y-14502214D02*
X22539786Y-14487929D01*
X22525500Y-14473643D01*
X22511214Y-14445071D01*
X22511214Y-14359357D01*
X22525500Y-14330786D01*
X22539786Y-14316500D01*
X22568357Y-14302214D01*
X22611214Y-14302214D01*
X22639786Y-14316500D01*
X22654071Y-14330786D01*
X22668357Y-14359357D01*
X22668357Y-14445071D01*
X22654071Y-14473643D01*
X22639786Y-14487929D01*
X22611214Y-14502214D01*
X22568357Y-14502214D01*
X22754071Y-14302214D02*
X22868357Y-14302214D01*
X22796928Y-14202214D02*
X22796928Y-14459357D01*
X22811214Y-14487929D01*
X22839786Y-14502214D01*
X22868357Y-14502214D01*
X23196928Y-14302214D02*
X23196928Y-14602214D01*
X23196928Y-14316500D02*
X23225500Y-14302214D01*
X23282643Y-14302214D01*
X23311214Y-14316500D01*
X23325500Y-14330786D01*
X23339786Y-14359357D01*
X23339786Y-14445071D01*
X23325500Y-14473643D01*
X23311214Y-14487929D01*
X23282643Y-14502214D01*
X23225500Y-14502214D01*
X23196928Y-14487929D01*
X23511214Y-14502214D02*
X23482643Y-14487929D01*
X23468357Y-14459357D01*
X23468357Y-14202214D01*
X23754071Y-14502214D02*
X23754071Y-14345071D01*
X23739786Y-14316500D01*
X23711214Y-14302214D01*
X23654071Y-14302214D01*
X23625500Y-14316500D01*
X23754071Y-14487929D02*
X23725500Y-14502214D01*
X23654071Y-14502214D01*
X23625500Y-14487929D01*
X23611214Y-14459357D01*
X23611214Y-14430786D01*
X23625500Y-14402214D01*
X23654071Y-14387929D01*
X23725500Y-14387929D01*
X23754071Y-14373643D01*
X23854071Y-14302214D02*
X23968357Y-14302214D01*
X23896928Y-14202214D02*
X23896928Y-14459357D01*
X23911214Y-14487929D01*
X23939786Y-14502214D01*
X23968357Y-14502214D01*
X24182643Y-14487929D02*
X24154071Y-14502214D01*
X24096928Y-14502214D01*
X24068357Y-14487929D01*
X24054071Y-14459357D01*
X24054071Y-14345071D01*
X24068357Y-14316500D01*
X24096928Y-14302214D01*
X24154071Y-14302214D01*
X24182643Y-14316500D01*
X24196928Y-14345071D01*
X24196928Y-14373643D01*
X24054071Y-14402214D01*
X24454071Y-14502214D02*
X24454071Y-14202214D01*
X24454071Y-14487929D02*
X24425500Y-14502214D01*
X24368357Y-14502214D01*
X24339786Y-14487929D01*
X24325500Y-14473643D01*
X24311214Y-14445071D01*
X24311214Y-14359357D01*
X24325500Y-14330786D01*
X24339786Y-14316500D01*
X24368357Y-14302214D01*
X24425500Y-14302214D01*
X24454071Y-14316500D01*
X24568357Y-14616500D02*
X24582643Y-14602214D01*
X24611214Y-14559357D01*
X24625500Y-14530786D01*
X24639786Y-14487929D01*
X24654071Y-14416500D01*
X24654071Y-14359357D01*
X24639786Y-14287929D01*
X24625500Y-14245071D01*
X24611214Y-14216500D01*
X24582643Y-14173643D01*
X24568357Y-14159357D01*
M02*
