M48
; DRILL file {KiCad 5.1.5+dfsg1-2build2} date Sun 01 Jan 2023 02:21:48 PM
; FORMAT={-:-/ absolute / inch / decimal}
; #@! TF.CreationDate,2023-01-01T14:21:48-04:00
; #@! TF.GenerationSoftware,Kicad,Pcbnew,5.1.5+dfsg1-2build2
; #@! TF.FileFunction,Plated,1,2,PTH
FMAT,2
INCH
T1C0.0276
T2C0.0315
T3C0.0354
T4C0.0394
T5C0.0402
%
G90
G05
T1
X6.9Y-3.15
X7.1Y-3.15
X6.9Y-3.25
X7.1Y-3.25
X6.9Y-3.36
X7.1Y-3.36
T2
X7.305Y-3.58
X7.4034Y-3.58
X6.875Y-2.175
X6.875Y-2.475
X6.975Y-2.175
X6.975Y-2.475
X6.9466Y-3.05
X7.045Y-3.05
X7.85Y-4.45
X8.15Y-4.45
X7.25Y-2.175
X7.25Y-2.475
X7.35Y-2.175
X7.35Y-2.475
X7.305Y-3.46
X7.4034Y-3.46
X6.05Y-4.45
X6.35Y-4.45
T3
X7.85Y-4.85
X7.95Y-4.85
X6.2Y-4.85
X6.3Y-4.85
T4
X6.825Y-1.9
X6.3008Y-2.375
X6.6Y-2.375
X6.1665Y-3.289
X6.1665Y-3.389
X6.1665Y-3.489
X6.1665Y-3.589
X6.1665Y-3.689
X6.1665Y-3.789
X6.1665Y-3.889
X6.1665Y-3.989
X6.1665Y-4.089
X6.1665Y-4.189
X6.2665Y-3.289
X6.2665Y-3.389
X6.2665Y-3.489
X6.2665Y-3.589
X6.2665Y-3.689
X6.2665Y-3.789
X6.2665Y-3.889
X6.2665Y-3.989
X6.2665Y-4.089
X6.2665Y-4.189
X7.3Y-1.9
X7.4Y-1.9
X7.5Y-1.9
X7.6Y-1.9
X7.7Y-1.9
X7.8Y-1.9
X7.8988Y-3.289
X7.8988Y-3.389
X7.8988Y-3.489
X7.8988Y-3.589
X7.8988Y-3.689
X7.8988Y-3.789
X7.8988Y-3.889
X7.8988Y-3.989
X7.8988Y-4.089
X7.8988Y-4.189
X7.9988Y-3.289
X7.9988Y-3.389
X7.9988Y-3.489
X7.9988Y-3.589
X7.9988Y-3.689
X7.9988Y-3.789
X7.9988Y-3.889
X7.9988Y-3.989
X7.9988Y-4.089
X7.9988Y-4.189
T5
X6.8Y-2.825
X7.3902Y-2.825
T0
M30
