G04 #@! TF.GenerationSoftware,KiCad,Pcbnew,5.1.5+dfsg1-2build2*
G04 #@! TF.CreationDate,2023-01-01T14:21:45-04:00*
G04 #@! TF.ProjectId,prototyping_backplane,70726f74-6f74-4797-9069-6e675f626163,B*
G04 #@! TF.SameCoordinates,Original*
G04 #@! TF.FileFunction,Legend,Bot*
G04 #@! TF.FilePolarity,Positive*
%FSLAX46Y46*%
G04 Gerber Fmt 4.6, Leading zero omitted, Abs format (unit mm)*
G04 Created by KiCad (PCBNEW 5.1.5+dfsg1-2build2) date 2023-01-01 14:21:45*
%MOMM*%
%LPD*%
G04 APERTURE LIST*
%ADD10C,0.150000*%
%ADD11C,0.120000*%
%ADD12C,0.010000*%
G04 APERTURE END LIST*
D10*
X169052619Y-47442380D02*
X169528809Y-47442380D01*
X169528809Y-46442380D01*
X168147857Y-47347142D02*
X168195476Y-47394761D01*
X168338333Y-47442380D01*
X168433571Y-47442380D01*
X168576428Y-47394761D01*
X168671666Y-47299523D01*
X168719285Y-47204285D01*
X168766904Y-47013809D01*
X168766904Y-46870952D01*
X168719285Y-46680476D01*
X168671666Y-46585238D01*
X168576428Y-46490000D01*
X168433571Y-46442380D01*
X168338333Y-46442380D01*
X168195476Y-46490000D01*
X168147857Y-46537619D01*
X167719285Y-47442380D02*
X167719285Y-46442380D01*
X167481190Y-46442380D01*
X167338333Y-46490000D01*
X167243095Y-46585238D01*
X167195476Y-46680476D01*
X167147857Y-46870952D01*
X167147857Y-47013809D01*
X167195476Y-47204285D01*
X167243095Y-47299523D01*
X167338333Y-47394761D01*
X167481190Y-47442380D01*
X167719285Y-47442380D01*
X166957380Y-47537619D02*
X166195476Y-47537619D01*
X165385952Y-47347142D02*
X165433571Y-47394761D01*
X165576428Y-47442380D01*
X165671666Y-47442380D01*
X165814523Y-47394761D01*
X165909761Y-47299523D01*
X165957380Y-47204285D01*
X166005000Y-47013809D01*
X166005000Y-46870952D01*
X165957380Y-46680476D01*
X165909761Y-46585238D01*
X165814523Y-46490000D01*
X165671666Y-46442380D01*
X165576428Y-46442380D01*
X165433571Y-46490000D01*
X165385952Y-46537619D01*
X165005000Y-47394761D02*
X164862142Y-47442380D01*
X164624047Y-47442380D01*
X164528809Y-47394761D01*
X164481190Y-47347142D01*
X164433571Y-47251904D01*
X164433571Y-47156666D01*
X164481190Y-47061428D01*
X164528809Y-47013809D01*
X164624047Y-46966190D01*
X164814523Y-46918571D01*
X164909761Y-46870952D01*
X164957380Y-46823333D01*
X165005000Y-46728095D01*
X165005000Y-46632857D01*
X164957380Y-46537619D01*
X164909761Y-46490000D01*
X164814523Y-46442380D01*
X164576428Y-46442380D01*
X164433571Y-46490000D01*
X198620000Y-52196904D02*
X198667619Y-52292142D01*
X198667619Y-52435000D01*
X198620000Y-52577857D01*
X198524761Y-52673095D01*
X198429523Y-52720714D01*
X198239047Y-52768333D01*
X198096190Y-52768333D01*
X197905714Y-52720714D01*
X197810476Y-52673095D01*
X197715238Y-52577857D01*
X197667619Y-52435000D01*
X197667619Y-52339761D01*
X197715238Y-52196904D01*
X197762857Y-52149285D01*
X198096190Y-52149285D01*
X198096190Y-52339761D01*
X197667619Y-51720714D02*
X198667619Y-51720714D01*
X197667619Y-51149285D01*
X198667619Y-51149285D01*
X197667619Y-50673095D02*
X198667619Y-50673095D01*
X198667619Y-50435000D01*
X198620000Y-50292142D01*
X198524761Y-50196904D01*
X198429523Y-50149285D01*
X198239047Y-50101666D01*
X198096190Y-50101666D01*
X197905714Y-50149285D01*
X197810476Y-50196904D01*
X197715238Y-50292142D01*
X197667619Y-50435000D01*
X197667619Y-50673095D01*
X195127619Y-53006428D02*
X196127619Y-53006428D01*
X195413333Y-52673095D01*
X196127619Y-52339761D01*
X195127619Y-52339761D01*
X195127619Y-51863571D02*
X196127619Y-51863571D01*
X195175238Y-51435000D02*
X195127619Y-51292142D01*
X195127619Y-51054047D01*
X195175238Y-50958809D01*
X195222857Y-50911190D01*
X195318095Y-50863571D01*
X195413333Y-50863571D01*
X195508571Y-50911190D01*
X195556190Y-50958809D01*
X195603809Y-51054047D01*
X195651428Y-51244523D01*
X195699047Y-51339761D01*
X195746666Y-51387380D01*
X195841904Y-51435000D01*
X195937142Y-51435000D01*
X196032380Y-51387380D01*
X196080000Y-51339761D01*
X196127619Y-51244523D01*
X196127619Y-51006428D01*
X196080000Y-50863571D01*
X196127619Y-50244523D02*
X196127619Y-50054047D01*
X196080000Y-49958809D01*
X195984761Y-49863571D01*
X195794285Y-49815952D01*
X195460952Y-49815952D01*
X195270476Y-49863571D01*
X195175238Y-49958809D01*
X195127619Y-50054047D01*
X195127619Y-50244523D01*
X195175238Y-50339761D01*
X195270476Y-50435000D01*
X195460952Y-50482619D01*
X195794285Y-50482619D01*
X195984761Y-50435000D01*
X196080000Y-50339761D01*
X196127619Y-50244523D01*
X192587619Y-53006428D02*
X193587619Y-53006428D01*
X192873333Y-52673095D01*
X193587619Y-52339761D01*
X192587619Y-52339761D01*
X193587619Y-51673095D02*
X193587619Y-51482619D01*
X193540000Y-51387380D01*
X193444761Y-51292142D01*
X193254285Y-51244523D01*
X192920952Y-51244523D01*
X192730476Y-51292142D01*
X192635238Y-51387380D01*
X192587619Y-51482619D01*
X192587619Y-51673095D01*
X192635238Y-51768333D01*
X192730476Y-51863571D01*
X192920952Y-51911190D01*
X193254285Y-51911190D01*
X193444761Y-51863571D01*
X193540000Y-51768333D01*
X193587619Y-51673095D01*
X192635238Y-50863571D02*
X192587619Y-50720714D01*
X192587619Y-50482619D01*
X192635238Y-50387380D01*
X192682857Y-50339761D01*
X192778095Y-50292142D01*
X192873333Y-50292142D01*
X192968571Y-50339761D01*
X193016190Y-50387380D01*
X193063809Y-50482619D01*
X193111428Y-50673095D01*
X193159047Y-50768333D01*
X193206666Y-50815952D01*
X193301904Y-50863571D01*
X193397142Y-50863571D01*
X193492380Y-50815952D01*
X193540000Y-50768333D01*
X193587619Y-50673095D01*
X193587619Y-50435000D01*
X193540000Y-50292142D01*
X192587619Y-49863571D02*
X193587619Y-49863571D01*
X190142857Y-52030238D02*
X190095238Y-52077857D01*
X190047619Y-52220714D01*
X190047619Y-52315952D01*
X190095238Y-52458809D01*
X190190476Y-52554047D01*
X190285714Y-52601666D01*
X190476190Y-52649285D01*
X190619047Y-52649285D01*
X190809523Y-52601666D01*
X190904761Y-52554047D01*
X191000000Y-52458809D01*
X191047619Y-52315952D01*
X191047619Y-52220714D01*
X191000000Y-52077857D01*
X190952380Y-52030238D01*
X190047619Y-51125476D02*
X190047619Y-51601666D01*
X191047619Y-51601666D01*
X190047619Y-50792142D02*
X191047619Y-50792142D01*
X190047619Y-50220714D02*
X190619047Y-50649285D01*
X191047619Y-50220714D02*
X190476190Y-50792142D01*
X187555238Y-52577857D02*
X187507619Y-52435000D01*
X187507619Y-52196904D01*
X187555238Y-52101666D01*
X187602857Y-52054047D01*
X187698095Y-52006428D01*
X187793333Y-52006428D01*
X187888571Y-52054047D01*
X187936190Y-52101666D01*
X187983809Y-52196904D01*
X188031428Y-52387380D01*
X188079047Y-52482619D01*
X188126666Y-52530238D01*
X188221904Y-52577857D01*
X188317142Y-52577857D01*
X188412380Y-52530238D01*
X188460000Y-52482619D01*
X188507619Y-52387380D01*
X188507619Y-52149285D01*
X188460000Y-52006428D01*
X188031428Y-51577857D02*
X188031428Y-51244523D01*
X187507619Y-51101666D02*
X187507619Y-51577857D01*
X188507619Y-51577857D01*
X188507619Y-51101666D01*
X187507619Y-50196904D02*
X187507619Y-50673095D01*
X188507619Y-50673095D01*
X185967619Y-52863571D02*
X185967619Y-52244523D01*
X185586666Y-52577857D01*
X185586666Y-52435000D01*
X185539047Y-52339761D01*
X185491428Y-52292142D01*
X185396190Y-52244523D01*
X185158095Y-52244523D01*
X185062857Y-52292142D01*
X185015238Y-52339761D01*
X184967619Y-52435000D01*
X184967619Y-52720714D01*
X185015238Y-52815952D01*
X185062857Y-52863571D01*
X185062857Y-51815952D02*
X185015238Y-51768333D01*
X184967619Y-51815952D01*
X185015238Y-51863571D01*
X185062857Y-51815952D01*
X184967619Y-51815952D01*
X185967619Y-51435000D02*
X185967619Y-50815952D01*
X185586666Y-51149285D01*
X185586666Y-51006428D01*
X185539047Y-50911190D01*
X185491428Y-50863571D01*
X185396190Y-50815952D01*
X185158095Y-50815952D01*
X185062857Y-50863571D01*
X185015238Y-50911190D01*
X184967619Y-51006428D01*
X184967619Y-51292142D01*
X185015238Y-51387380D01*
X185062857Y-51435000D01*
X185634285Y-50482619D02*
X184967619Y-50244523D01*
X185634285Y-50006428D01*
X191614556Y-83256380D02*
X191489556Y-82256380D01*
X191185985Y-83256380D02*
X191120508Y-82732571D01*
X191156223Y-82637333D01*
X191245508Y-82589714D01*
X191388366Y-82589714D01*
X191489556Y-82637333D01*
X191543127Y-82684952D01*
X190769318Y-82589714D02*
X190388366Y-82589714D01*
X190584794Y-82256380D02*
X190691937Y-83113523D01*
X190656223Y-83208761D01*
X190566937Y-83256380D01*
X190471699Y-83256380D01*
X190197889Y-82589714D02*
X189816937Y-82589714D01*
X190013366Y-82256380D02*
X190120508Y-83113523D01*
X190084794Y-83208761D01*
X189995508Y-83256380D01*
X189900270Y-83256380D01*
X189483604Y-82589714D02*
X189608604Y-83589714D01*
X189489556Y-82637333D02*
X189388366Y-82589714D01*
X189197889Y-82589714D01*
X189108604Y-82637333D01*
X189066937Y-82684952D01*
X189031223Y-82780190D01*
X189066937Y-83065904D01*
X189126461Y-83161142D01*
X189180032Y-83208761D01*
X189281223Y-83256380D01*
X189471699Y-83256380D01*
X189560985Y-83208761D01*
X188703842Y-83208761D02*
X188614556Y-83256380D01*
X188424080Y-83256380D01*
X188322889Y-83208761D01*
X188263366Y-83113523D01*
X188257413Y-83065904D01*
X188293127Y-82970666D01*
X188382413Y-82923047D01*
X188525270Y-82923047D01*
X188614556Y-82875428D01*
X188650270Y-82780190D01*
X188644318Y-82732571D01*
X188584794Y-82637333D01*
X188483604Y-82589714D01*
X188340747Y-82589714D01*
X188251461Y-82637333D01*
X187840747Y-83161142D02*
X187799080Y-83208761D01*
X187852651Y-83256380D01*
X187894318Y-83208761D01*
X187840747Y-83161142D01*
X187852651Y-83256380D01*
X187775270Y-82637333D02*
X187733604Y-82684952D01*
X187787175Y-82732571D01*
X187828842Y-82684952D01*
X187775270Y-82637333D01*
X187787175Y-82732571D01*
X186531223Y-82208761D02*
X187549080Y-83494476D01*
X185483604Y-82208761D02*
X186501461Y-83494476D01*
X185293127Y-82589714D02*
X185138366Y-83256380D01*
X184816937Y-82589714D02*
X185138366Y-83256380D01*
X185263366Y-83494476D01*
X185316937Y-83542095D01*
X185418127Y-83589714D01*
X184376461Y-83256380D02*
X184465747Y-83208761D01*
X184507413Y-83161142D01*
X184543127Y-83065904D01*
X184507413Y-82780190D01*
X184447889Y-82684952D01*
X184394318Y-82637333D01*
X184293127Y-82589714D01*
X184150270Y-82589714D01*
X184060985Y-82637333D01*
X184019318Y-82684952D01*
X183983604Y-82780190D01*
X184019318Y-83065904D01*
X184078842Y-83161142D01*
X184132413Y-83208761D01*
X184233604Y-83256380D01*
X184376461Y-83256380D01*
X183102651Y-82589714D02*
X183185985Y-83256380D01*
X183531223Y-82589714D02*
X183596699Y-83113523D01*
X183560985Y-83208761D01*
X183471699Y-83256380D01*
X183328842Y-83256380D01*
X183227651Y-83208761D01*
X183174080Y-83161142D01*
X182769318Y-82589714D02*
X182388366Y-82589714D01*
X182584794Y-82256380D02*
X182691937Y-83113523D01*
X182656223Y-83208761D01*
X182566937Y-83256380D01*
X182471699Y-83256380D01*
X181626461Y-82589714D02*
X181709794Y-83256380D01*
X182055032Y-82589714D02*
X182120508Y-83113523D01*
X182084794Y-83208761D01*
X181995508Y-83256380D01*
X181852651Y-83256380D01*
X181751461Y-83208761D01*
X181697889Y-83161142D01*
X181221699Y-83161142D02*
X181180032Y-83208761D01*
X181233604Y-83256380D01*
X181275270Y-83208761D01*
X181221699Y-83161142D01*
X181233604Y-83256380D01*
X180757413Y-83256380D02*
X180632413Y-82256380D01*
X180680032Y-82637333D02*
X180578842Y-82589714D01*
X180388366Y-82589714D01*
X180299080Y-82637333D01*
X180257413Y-82684952D01*
X180221699Y-82780190D01*
X180257413Y-83065904D01*
X180316937Y-83161142D01*
X180370508Y-83208761D01*
X180471699Y-83256380D01*
X180662175Y-83256380D01*
X180751461Y-83208761D01*
X179465747Y-83208761D02*
X179566937Y-83256380D01*
X179757413Y-83256380D01*
X179846699Y-83208761D01*
X179882413Y-83113523D01*
X179834794Y-82732571D01*
X179775270Y-82637333D01*
X179674080Y-82589714D01*
X179483604Y-82589714D01*
X179394318Y-82637333D01*
X179358604Y-82732571D01*
X179370508Y-82827809D01*
X179858604Y-82923047D01*
X178150270Y-82208761D02*
X179168127Y-83494476D01*
X177519318Y-83256380D02*
X177394318Y-82256380D01*
X177513366Y-83208761D02*
X177614556Y-83256380D01*
X177805032Y-83256380D01*
X177894318Y-83208761D01*
X177935985Y-83161142D01*
X177971699Y-83065904D01*
X177935985Y-82780190D01*
X177876461Y-82684952D01*
X177822889Y-82637333D01*
X177721699Y-82589714D01*
X177531223Y-82589714D01*
X177441937Y-82637333D01*
X176995508Y-83256380D02*
X176805032Y-83256380D01*
X176703842Y-83208761D01*
X176650270Y-83161142D01*
X176537175Y-83018285D01*
X176465747Y-82827809D01*
X176418127Y-82446857D01*
X176453842Y-82351619D01*
X176495508Y-82304000D01*
X176584794Y-82256380D01*
X176775270Y-82256380D01*
X176876461Y-82304000D01*
X176930032Y-82351619D01*
X176989556Y-82446857D01*
X177019318Y-82684952D01*
X176983604Y-82780190D01*
X176941937Y-82827809D01*
X176852651Y-82875428D01*
X176662175Y-82875428D01*
X176560985Y-82827809D01*
X176507413Y-82780190D01*
X176447889Y-82684952D01*
X175447889Y-82304000D02*
X175537175Y-82256380D01*
X175680032Y-82256380D01*
X175828842Y-82304000D01*
X175935985Y-82399238D01*
X175995508Y-82494476D01*
X176066937Y-82684952D01*
X176084794Y-82827809D01*
X176060985Y-83018285D01*
X176025270Y-83113523D01*
X175941937Y-83208761D01*
X175805032Y-83256380D01*
X175709794Y-83256380D01*
X175560985Y-83208761D01*
X175507413Y-83161142D01*
X175465747Y-82827809D01*
X175656223Y-82827809D01*
X174489556Y-82256380D02*
X174965747Y-82256380D01*
X175072889Y-82732571D01*
X175019318Y-82684952D01*
X174918127Y-82637333D01*
X174680032Y-82637333D01*
X174590747Y-82684952D01*
X174549080Y-82732571D01*
X174513366Y-82827809D01*
X174543127Y-83065904D01*
X174602651Y-83161142D01*
X174656223Y-83208761D01*
X174757413Y-83256380D01*
X174995508Y-83256380D01*
X175084794Y-83208761D01*
X175126461Y-83161142D01*
X174138366Y-83256380D02*
X174013366Y-82256380D01*
X173412175Y-82780190D02*
X173471699Y-83256380D01*
X173680032Y-82256380D02*
X173412175Y-82780190D01*
X173013366Y-82256380D01*
X172376461Y-83256380D02*
X172251461Y-82256380D01*
X172370508Y-83208761D02*
X172471699Y-83256380D01*
X172662175Y-83256380D01*
X172751461Y-83208761D01*
X172793127Y-83161142D01*
X172828842Y-83065904D01*
X172793127Y-82780190D01*
X172733604Y-82684952D01*
X172680032Y-82637333D01*
X172578842Y-82589714D01*
X172388366Y-82589714D01*
X172299080Y-82637333D01*
X171465747Y-83208761D02*
X171566937Y-83256380D01*
X171757413Y-83256380D01*
X171846699Y-83208761D01*
X171888366Y-83161142D01*
X171924080Y-83065904D01*
X171888366Y-82780190D01*
X171828842Y-82684952D01*
X171775270Y-82637333D01*
X171674080Y-82589714D01*
X171483604Y-82589714D01*
X171394318Y-82637333D01*
X170656223Y-83208761D02*
X170757413Y-83256380D01*
X170947889Y-83256380D01*
X171037175Y-83208761D01*
X171072889Y-83113523D01*
X171025270Y-82732571D01*
X170965747Y-82637333D01*
X170864556Y-82589714D01*
X170674080Y-82589714D01*
X170584794Y-82637333D01*
X170549080Y-82732571D01*
X170560985Y-82827809D01*
X171049080Y-82923047D01*
X170138366Y-83256380D02*
X169947889Y-83256380D01*
X169846699Y-83208761D01*
X169793127Y-83161142D01*
X169680032Y-83018285D01*
X169608604Y-82827809D01*
X169560985Y-82446857D01*
X169596699Y-82351619D01*
X169638366Y-82304000D01*
X169727651Y-82256380D01*
X169918127Y-82256380D01*
X170019318Y-82304000D01*
X170072889Y-82351619D01*
X170132413Y-82446857D01*
X170162175Y-82684952D01*
X170126461Y-82780190D01*
X170084794Y-82827809D01*
X169995508Y-82875428D01*
X169805032Y-82875428D01*
X169703842Y-82827809D01*
X169650270Y-82780190D01*
X169590747Y-82684952D01*
X168721699Y-82589714D02*
X168805032Y-83256380D01*
X168912175Y-82208761D02*
X169239556Y-82923047D01*
X168620508Y-82923047D01*
X191622556Y-120595000D02*
X191711842Y-120547380D01*
X191854699Y-120547380D01*
X192003508Y-120595000D01*
X192110651Y-120690238D01*
X192170175Y-120785476D01*
X192241604Y-120975952D01*
X192259461Y-121118809D01*
X192235651Y-121309285D01*
X192199937Y-121404523D01*
X192116604Y-121499761D01*
X191979699Y-121547380D01*
X191884461Y-121547380D01*
X191735651Y-121499761D01*
X191682080Y-121452142D01*
X191640413Y-121118809D01*
X191830889Y-121118809D01*
X190878508Y-121499761D02*
X190979699Y-121547380D01*
X191170175Y-121547380D01*
X191259461Y-121499761D01*
X191295175Y-121404523D01*
X191247556Y-121023571D01*
X191188032Y-120928333D01*
X191086842Y-120880714D01*
X190896366Y-120880714D01*
X190807080Y-120928333D01*
X190771366Y-121023571D01*
X190783270Y-121118809D01*
X191271366Y-121214047D01*
X190021366Y-121499761D02*
X190122556Y-121547380D01*
X190313032Y-121547380D01*
X190402318Y-121499761D01*
X190438032Y-121404523D01*
X190390413Y-121023571D01*
X190330889Y-120928333D01*
X190229699Y-120880714D01*
X190039223Y-120880714D01*
X189949937Y-120928333D01*
X189914223Y-121023571D01*
X189926127Y-121118809D01*
X190414223Y-121214047D01*
X189497556Y-121499761D02*
X189503508Y-121547380D01*
X189563032Y-121642619D01*
X189616604Y-121690238D01*
X188313032Y-121547380D02*
X188188032Y-120547380D01*
X187116604Y-121499761D02*
X187027318Y-121547380D01*
X186836842Y-121547380D01*
X186735651Y-121499761D01*
X186676127Y-121404523D01*
X186670175Y-121356904D01*
X186705889Y-121261666D01*
X186795175Y-121214047D01*
X186938032Y-121214047D01*
X187027318Y-121166428D01*
X187063032Y-121071190D01*
X187057080Y-121023571D01*
X186997556Y-120928333D01*
X186896366Y-120880714D01*
X186753508Y-120880714D01*
X186664223Y-120928333D01*
X185753508Y-120880714D02*
X185836842Y-121547380D01*
X186182080Y-120880714D02*
X186247556Y-121404523D01*
X186211842Y-121499761D01*
X186122556Y-121547380D01*
X185979699Y-121547380D01*
X185878508Y-121499761D01*
X185824937Y-121452142D01*
X185360651Y-121547380D02*
X185277318Y-120880714D01*
X185301127Y-121071190D02*
X185241604Y-120975952D01*
X185188032Y-120928333D01*
X185086842Y-120880714D01*
X184991604Y-120880714D01*
X184354699Y-121499761D02*
X184455889Y-121547380D01*
X184646366Y-121547380D01*
X184735651Y-121499761D01*
X184771366Y-121404523D01*
X184723747Y-121023571D01*
X184664223Y-120928333D01*
X184563032Y-120880714D01*
X184372556Y-120880714D01*
X184283270Y-120928333D01*
X184247556Y-121023571D01*
X184259461Y-121118809D01*
X184747556Y-121214047D01*
X183122556Y-121547380D02*
X182997556Y-120547380D01*
X182693985Y-121547380D02*
X182628508Y-121023571D01*
X182664223Y-120928333D01*
X182753508Y-120880714D01*
X182896366Y-120880714D01*
X182997556Y-120928333D01*
X183051127Y-120975952D01*
X182074937Y-121547380D02*
X182164223Y-121499761D01*
X182205889Y-121452142D01*
X182241604Y-121356904D01*
X182205889Y-121071190D01*
X182146366Y-120975952D01*
X182092794Y-120928333D01*
X181991604Y-120880714D01*
X181848747Y-120880714D01*
X181759461Y-120928333D01*
X181717794Y-120975952D01*
X181682080Y-121071190D01*
X181717794Y-121356904D01*
X181777318Y-121452142D01*
X181830889Y-121499761D01*
X181932080Y-121547380D01*
X182074937Y-121547380D01*
X181229699Y-120880714D02*
X181354699Y-121880714D01*
X181235651Y-120928333D02*
X181134461Y-120880714D01*
X180943985Y-120880714D01*
X180854699Y-120928333D01*
X180813032Y-120975952D01*
X180777318Y-121071190D01*
X180813032Y-121356904D01*
X180872556Y-121452142D01*
X180926127Y-121499761D01*
X181027318Y-121547380D01*
X181217794Y-121547380D01*
X181307080Y-121499761D01*
X180021366Y-121499761D02*
X180122556Y-121547380D01*
X180313032Y-121547380D01*
X180402318Y-121499761D01*
X180438032Y-121404523D01*
X180390413Y-121023571D01*
X180330889Y-120928333D01*
X180229699Y-120880714D01*
X180039223Y-120880714D01*
X179949937Y-120928333D01*
X179914223Y-121023571D01*
X179926127Y-121118809D01*
X180414223Y-121214047D01*
X178801127Y-120880714D02*
X178646366Y-121547380D01*
X178324937Y-120880714D02*
X178646366Y-121547380D01*
X178771366Y-121785476D01*
X178824937Y-121833095D01*
X178926127Y-121880714D01*
X177884461Y-121547380D02*
X177973747Y-121499761D01*
X178015413Y-121452142D01*
X178051127Y-121356904D01*
X178015413Y-121071190D01*
X177955889Y-120975952D01*
X177902318Y-120928333D01*
X177801127Y-120880714D01*
X177658270Y-120880714D01*
X177568985Y-120928333D01*
X177527318Y-120975952D01*
X177491604Y-121071190D01*
X177527318Y-121356904D01*
X177586842Y-121452142D01*
X177640413Y-121499761D01*
X177741604Y-121547380D01*
X177884461Y-121547380D01*
X176610651Y-120880714D02*
X176693985Y-121547380D01*
X177039223Y-120880714D02*
X177104699Y-121404523D01*
X177068985Y-121499761D01*
X176979699Y-121547380D01*
X176836842Y-121547380D01*
X176735651Y-121499761D01*
X176682080Y-121452142D01*
X175455889Y-121547380D02*
X175372556Y-120880714D01*
X175384461Y-120975952D02*
X175330889Y-120928333D01*
X175229699Y-120880714D01*
X175086842Y-120880714D01*
X174997556Y-120928333D01*
X174961842Y-121023571D01*
X175027318Y-121547380D01*
X174961842Y-121023571D02*
X174902318Y-120928333D01*
X174801127Y-120880714D01*
X174658270Y-120880714D01*
X174568985Y-120928333D01*
X174533270Y-121023571D01*
X174598747Y-121547380D01*
X173735651Y-121499761D02*
X173836842Y-121547380D01*
X174027318Y-121547380D01*
X174116604Y-121499761D01*
X174152318Y-121404523D01*
X174104699Y-121023571D01*
X174045175Y-120928333D01*
X173943985Y-120880714D01*
X173753508Y-120880714D01*
X173664223Y-120928333D01*
X173628508Y-121023571D01*
X173640413Y-121118809D01*
X174128508Y-121214047D01*
X172836842Y-121547380D02*
X172771366Y-121023571D01*
X172807080Y-120928333D01*
X172896366Y-120880714D01*
X173086842Y-120880714D01*
X173188032Y-120928333D01*
X172830889Y-121499761D02*
X172932080Y-121547380D01*
X173170175Y-121547380D01*
X173259461Y-121499761D01*
X173295175Y-121404523D01*
X173283270Y-121309285D01*
X173223747Y-121214047D01*
X173122556Y-121166428D01*
X172884461Y-121166428D01*
X172783270Y-121118809D01*
X172277318Y-120880714D02*
X172360651Y-121547380D01*
X172289223Y-120975952D02*
X172235651Y-120928333D01*
X172134461Y-120880714D01*
X171991604Y-120880714D01*
X171902318Y-120928333D01*
X171866604Y-121023571D01*
X171932080Y-121547380D01*
X171515413Y-120880714D02*
X171134461Y-120880714D01*
X171330889Y-120547380D02*
X171438032Y-121404523D01*
X171402318Y-121499761D01*
X171313032Y-121547380D01*
X171217794Y-121547380D01*
X170182080Y-120880714D02*
X169801127Y-120880714D01*
X169997556Y-120547380D02*
X170104699Y-121404523D01*
X170068985Y-121499761D01*
X169979699Y-121547380D01*
X169884461Y-121547380D01*
X169408270Y-121547380D02*
X169497556Y-121499761D01*
X169539223Y-121452142D01*
X169574937Y-121356904D01*
X169539223Y-121071190D01*
X169479699Y-120975952D01*
X169426127Y-120928333D01*
X169324937Y-120880714D01*
X169182080Y-120880714D01*
X169092794Y-120928333D01*
X169051127Y-120975952D01*
X169015413Y-121071190D01*
X169051127Y-121356904D01*
X169110651Y-121452142D01*
X169164223Y-121499761D01*
X169265413Y-121547380D01*
X169408270Y-121547380D01*
X191467794Y-122530714D02*
X191086842Y-122530714D01*
X191283270Y-122197380D02*
X191390413Y-123054523D01*
X191354699Y-123149761D01*
X191265413Y-123197380D01*
X191170175Y-123197380D01*
X190408270Y-123197380D02*
X190342794Y-122673571D01*
X190378508Y-122578333D01*
X190467794Y-122530714D01*
X190658270Y-122530714D01*
X190759461Y-122578333D01*
X190402318Y-123149761D02*
X190503508Y-123197380D01*
X190741604Y-123197380D01*
X190830889Y-123149761D01*
X190866604Y-123054523D01*
X190854699Y-122959285D01*
X190795175Y-122864047D01*
X190693985Y-122816428D01*
X190455889Y-122816428D01*
X190354699Y-122768809D01*
X189932080Y-123197380D02*
X189807080Y-122197380D01*
X189789223Y-122816428D02*
X189551127Y-123197380D01*
X189467794Y-122530714D02*
X189896366Y-122911666D01*
X188735651Y-123149761D02*
X188836842Y-123197380D01*
X189027318Y-123197380D01*
X189116604Y-123149761D01*
X189152318Y-123054523D01*
X189104699Y-122673571D01*
X189045175Y-122578333D01*
X188943985Y-122530714D01*
X188753508Y-122530714D01*
X188664223Y-122578333D01*
X188628508Y-122673571D01*
X188640413Y-122768809D01*
X189128508Y-122864047D01*
X187563032Y-122530714D02*
X187182080Y-122530714D01*
X187378508Y-122197380D02*
X187485651Y-123054523D01*
X187449937Y-123149761D01*
X187360651Y-123197380D01*
X187265413Y-123197380D01*
X186932080Y-123197380D02*
X186807080Y-122197380D01*
X186503508Y-123197380D02*
X186438032Y-122673571D01*
X186473747Y-122578333D01*
X186563032Y-122530714D01*
X186705889Y-122530714D01*
X186807080Y-122578333D01*
X186860651Y-122625952D01*
X185640413Y-123149761D02*
X185741604Y-123197380D01*
X185932080Y-123197380D01*
X186021366Y-123149761D01*
X186057080Y-123054523D01*
X186009461Y-122673571D01*
X185949937Y-122578333D01*
X185848747Y-122530714D01*
X185658270Y-122530714D01*
X185568985Y-122578333D01*
X185533270Y-122673571D01*
X185545175Y-122768809D01*
X186033270Y-122864047D01*
X184408270Y-123197380D02*
X184283270Y-122197380D01*
X184330889Y-122578333D02*
X184229699Y-122530714D01*
X184039223Y-122530714D01*
X183949937Y-122578333D01*
X183908270Y-122625952D01*
X183872556Y-122721190D01*
X183908270Y-123006904D01*
X183967794Y-123102142D01*
X184021366Y-123149761D01*
X184122556Y-123197380D01*
X184313032Y-123197380D01*
X184402318Y-123149761D01*
X183074937Y-123197380D02*
X183009461Y-122673571D01*
X183045175Y-122578333D01*
X183134461Y-122530714D01*
X183324937Y-122530714D01*
X183426127Y-122578333D01*
X183068985Y-123149761D02*
X183170175Y-123197380D01*
X183408270Y-123197380D01*
X183497556Y-123149761D01*
X183533270Y-123054523D01*
X183521366Y-122959285D01*
X183461842Y-122864047D01*
X183360651Y-122816428D01*
X183122556Y-122816428D01*
X183021366Y-122768809D01*
X182658270Y-122530714D02*
X182277318Y-122530714D01*
X182473747Y-122197380D02*
X182580889Y-123054523D01*
X182545175Y-123149761D01*
X182455889Y-123197380D01*
X182360651Y-123197380D01*
X182086842Y-122530714D02*
X181705889Y-122530714D01*
X181902318Y-122197380D02*
X182009461Y-123054523D01*
X181973747Y-123149761D01*
X181884461Y-123197380D01*
X181789223Y-123197380D01*
X181068985Y-123149761D02*
X181170175Y-123197380D01*
X181360651Y-123197380D01*
X181449937Y-123149761D01*
X181485651Y-123054523D01*
X181438032Y-122673571D01*
X181378508Y-122578333D01*
X181277318Y-122530714D01*
X181086842Y-122530714D01*
X180997556Y-122578333D01*
X180961842Y-122673571D01*
X180973747Y-122768809D01*
X181461842Y-122864047D01*
X180598747Y-123197380D02*
X180515413Y-122530714D01*
X180539223Y-122721190D02*
X180479699Y-122625952D01*
X180426127Y-122578333D01*
X180324937Y-122530714D01*
X180229699Y-122530714D01*
X179991604Y-122530714D02*
X179836842Y-123197380D01*
X179515413Y-122530714D02*
X179836842Y-123197380D01*
X179961842Y-123435476D01*
X180015413Y-123483095D01*
X180116604Y-123530714D01*
X178455889Y-123197380D02*
X178330889Y-122197380D01*
X178027318Y-123197380D02*
X177961842Y-122673571D01*
X177997556Y-122578333D01*
X178086842Y-122530714D01*
X178229699Y-122530714D01*
X178330889Y-122578333D01*
X178384461Y-122625952D01*
X177408270Y-123197380D02*
X177497556Y-123149761D01*
X177539223Y-123102142D01*
X177574937Y-123006904D01*
X177539223Y-122721190D01*
X177479699Y-122625952D01*
X177426127Y-122578333D01*
X177324937Y-122530714D01*
X177182080Y-122530714D01*
X177092794Y-122578333D01*
X177051127Y-122625952D01*
X177015413Y-122721190D01*
X177051127Y-123006904D01*
X177110651Y-123102142D01*
X177164223Y-123149761D01*
X177265413Y-123197380D01*
X177408270Y-123197380D01*
X176503508Y-123197380D02*
X176592794Y-123149761D01*
X176628508Y-123054523D01*
X176521366Y-122197380D01*
X175693985Y-123197380D02*
X175568985Y-122197380D01*
X175688032Y-123149761D02*
X175789223Y-123197380D01*
X175979699Y-123197380D01*
X176068985Y-123149761D01*
X176110651Y-123102142D01*
X176146366Y-123006904D01*
X176110651Y-122721190D01*
X176051127Y-122625952D01*
X175997556Y-122578333D01*
X175896366Y-122530714D01*
X175705889Y-122530714D01*
X175616604Y-122578333D01*
X174830889Y-123149761D02*
X174932080Y-123197380D01*
X175122556Y-123197380D01*
X175211842Y-123149761D01*
X175247556Y-123054523D01*
X175199937Y-122673571D01*
X175140413Y-122578333D01*
X175039223Y-122530714D01*
X174848747Y-122530714D01*
X174759461Y-122578333D01*
X174723747Y-122673571D01*
X174735651Y-122768809D01*
X175223747Y-122864047D01*
X174360651Y-123197380D02*
X174277318Y-122530714D01*
X174301127Y-122721190D02*
X174241604Y-122625952D01*
X174188032Y-122578333D01*
X174086842Y-122530714D01*
X173991604Y-122530714D01*
X172836842Y-123197380D02*
X172926127Y-123149761D01*
X172967794Y-123102142D01*
X173003508Y-123006904D01*
X172967794Y-122721190D01*
X172908270Y-122625952D01*
X172854699Y-122578333D01*
X172753508Y-122530714D01*
X172610651Y-122530714D01*
X172521366Y-122578333D01*
X172479699Y-122625952D01*
X172443985Y-122721190D01*
X172479699Y-123006904D01*
X172539223Y-123102142D01*
X172592794Y-123149761D01*
X172693985Y-123197380D01*
X172836842Y-123197380D01*
X172134461Y-122530714D02*
X171753508Y-122530714D01*
X172074937Y-123197380D02*
X171967794Y-122340238D01*
X171908270Y-122245000D01*
X171807080Y-122197380D01*
X171711842Y-122197380D01*
X171563032Y-122530714D02*
X171182080Y-122530714D01*
X171503508Y-123197380D02*
X171396366Y-122340238D01*
X171336842Y-122245000D01*
X171235651Y-122197380D01*
X171140413Y-122197380D01*
X170920175Y-123102142D02*
X170878508Y-123149761D01*
X170932080Y-123197380D01*
X170973747Y-123149761D01*
X170920175Y-123102142D01*
X170932080Y-123197380D01*
X170443985Y-123102142D02*
X170402318Y-123149761D01*
X170455889Y-123197380D01*
X170497556Y-123149761D01*
X170443985Y-123102142D01*
X170455889Y-123197380D01*
X169967794Y-123102142D02*
X169926127Y-123149761D01*
X169979699Y-123197380D01*
X170021366Y-123149761D01*
X169967794Y-123102142D01*
X169979699Y-123197380D01*
D11*
X195505000Y-121130000D02*
X192965000Y-121130000D01*
X195505000Y-127505000D02*
X195505000Y-121130000D01*
X164925000Y-127505000D02*
X195505000Y-127505000D01*
X164925000Y-121130000D02*
X167465000Y-121130000D01*
X164925000Y-127505000D02*
X164925000Y-121130000D01*
X192965000Y-76680000D02*
X192965000Y-89380000D01*
X195505000Y-76680000D02*
X192965000Y-76680000D01*
X195505000Y-70335000D02*
X195505000Y-76680000D01*
X164925000Y-70335000D02*
X195505000Y-70335000D01*
X164925000Y-76680000D02*
X164925000Y-70335000D01*
X167465000Y-76680000D02*
X164925000Y-76680000D01*
X167465000Y-76680000D02*
X167465000Y-89380000D01*
X192965000Y-121130000D02*
X192965000Y-108430000D01*
X164925000Y-89380000D02*
X167465000Y-89380000D01*
X164925000Y-108430000D02*
X164925000Y-89380000D01*
X167465000Y-108430000D02*
X164925000Y-108430000D01*
X167465000Y-121130000D02*
X167465000Y-108430000D01*
X195505000Y-108430000D02*
X192965000Y-108430000D01*
X195505000Y-89380000D02*
X195505000Y-108430000D01*
X192965000Y-89380000D02*
X195505000Y-89380000D01*
X180469000Y-127505000D02*
X180469000Y-70335000D01*
X179961000Y-70335000D02*
X179961000Y-127505000D01*
X170180000Y-108430000D02*
X171450000Y-108430000D01*
X170180000Y-90650000D02*
X170180000Y-108430000D01*
X171450000Y-90650000D02*
X170180000Y-90650000D01*
X171450000Y-89380000D02*
X171450000Y-90650000D01*
X173990000Y-89380000D02*
X171450000Y-89380000D01*
X173990000Y-90650000D02*
X173990000Y-89380000D01*
X175260000Y-90650000D02*
X173990000Y-90650000D01*
X175260000Y-108430000D02*
X175260000Y-90650000D01*
X171450000Y-108430000D02*
X175260000Y-108430000D01*
X190250000Y-107160000D02*
X190250000Y-89380000D01*
X188980000Y-107160000D02*
X190250000Y-107160000D01*
X188980000Y-108430000D02*
X188980000Y-107160000D01*
X186440000Y-108430000D02*
X188980000Y-108430000D01*
X186440000Y-107160000D02*
X186440000Y-108430000D01*
X185170000Y-107160000D02*
X186440000Y-107160000D01*
X185170000Y-89380000D02*
X185170000Y-107160000D01*
X190250000Y-89380000D02*
X185170000Y-89380000D01*
X163655000Y-128775000D02*
X163655000Y-69065000D01*
X163655000Y-69065000D02*
X196775000Y-69065000D01*
X196775000Y-69065000D02*
X196775000Y-128775000D01*
X196775000Y-128775000D02*
X163655000Y-128775000D01*
D12*
G36*
X203648440Y-62979472D02*
G01*
X203536254Y-63011696D01*
X203442485Y-63053324D01*
X203382666Y-63099314D01*
X203348741Y-63159307D01*
X203332657Y-63242943D01*
X203331385Y-63256912D01*
X203329636Y-63330367D01*
X203338307Y-63366451D01*
X203355469Y-63363723D01*
X203379194Y-63320742D01*
X203387620Y-63298909D01*
X203449084Y-63183726D01*
X203536796Y-63098975D01*
X203645927Y-63048181D01*
X203750333Y-63034334D01*
X203873264Y-63053320D01*
X203977172Y-63108959D01*
X204060349Y-63199275D01*
X204121085Y-63322288D01*
X204157671Y-63476022D01*
X204161972Y-63510584D01*
X204164245Y-63675553D01*
X204135266Y-63820657D01*
X204077253Y-63942339D01*
X203992425Y-64037042D01*
X203882999Y-64101211D01*
X203776545Y-64128541D01*
X203654735Y-64126352D01*
X203541997Y-64084679D01*
X203434832Y-64002172D01*
X203426048Y-63993415D01*
X203374815Y-63944778D01*
X203335250Y-63913363D01*
X203316138Y-63905973D01*
X203318798Y-63930391D01*
X203345838Y-63973515D01*
X203389490Y-64026510D01*
X203441982Y-64080542D01*
X203495545Y-64126775D01*
X203531542Y-64150905D01*
X203637241Y-64190644D01*
X203763164Y-64209483D01*
X203891863Y-64205825D01*
X203968064Y-64190819D01*
X204096751Y-64133497D01*
X204206001Y-64039098D01*
X204287851Y-63922807D01*
X204319052Y-63864422D01*
X204338447Y-63814451D01*
X204348801Y-63759537D01*
X204352879Y-63686325D01*
X204353481Y-63605834D01*
X204352002Y-63505664D01*
X204346057Y-63434480D01*
X204333206Y-63378984D01*
X204311009Y-63325877D01*
X204297163Y-63298917D01*
X204203433Y-63163067D01*
X204087177Y-63061492D01*
X203952915Y-62995897D01*
X203805163Y-62967989D01*
X203648440Y-62979472D01*
G37*
X203648440Y-62979472D02*
X203536254Y-63011696D01*
X203442485Y-63053324D01*
X203382666Y-63099314D01*
X203348741Y-63159307D01*
X203332657Y-63242943D01*
X203331385Y-63256912D01*
X203329636Y-63330367D01*
X203338307Y-63366451D01*
X203355469Y-63363723D01*
X203379194Y-63320742D01*
X203387620Y-63298909D01*
X203449084Y-63183726D01*
X203536796Y-63098975D01*
X203645927Y-63048181D01*
X203750333Y-63034334D01*
X203873264Y-63053320D01*
X203977172Y-63108959D01*
X204060349Y-63199275D01*
X204121085Y-63322288D01*
X204157671Y-63476022D01*
X204161972Y-63510584D01*
X204164245Y-63675553D01*
X204135266Y-63820657D01*
X204077253Y-63942339D01*
X203992425Y-64037042D01*
X203882999Y-64101211D01*
X203776545Y-64128541D01*
X203654735Y-64126352D01*
X203541997Y-64084679D01*
X203434832Y-64002172D01*
X203426048Y-63993415D01*
X203374815Y-63944778D01*
X203335250Y-63913363D01*
X203316138Y-63905973D01*
X203318798Y-63930391D01*
X203345838Y-63973515D01*
X203389490Y-64026510D01*
X203441982Y-64080542D01*
X203495545Y-64126775D01*
X203531542Y-64150905D01*
X203637241Y-64190644D01*
X203763164Y-64209483D01*
X203891863Y-64205825D01*
X203968064Y-64190819D01*
X204096751Y-64133497D01*
X204206001Y-64039098D01*
X204287851Y-63922807D01*
X204319052Y-63864422D01*
X204338447Y-63814451D01*
X204348801Y-63759537D01*
X204352879Y-63686325D01*
X204353481Y-63605834D01*
X204352002Y-63505664D01*
X204346057Y-63434480D01*
X204333206Y-63378984D01*
X204311009Y-63325877D01*
X204297163Y-63298917D01*
X204203433Y-63163067D01*
X204087177Y-63061492D01*
X203952915Y-62995897D01*
X203805163Y-62967989D01*
X203648440Y-62979472D01*
G36*
X194730663Y-62992926D02*
G01*
X194621508Y-63041561D01*
X194569580Y-63081367D01*
X194542565Y-63113740D01*
X194527935Y-63155096D01*
X194522241Y-63218619D01*
X194521666Y-63264506D01*
X194524642Y-63341548D01*
X194533720Y-63376731D01*
X194549126Y-63370121D01*
X194571086Y-63321781D01*
X194584428Y-63282504D01*
X194636049Y-63176355D01*
X194711416Y-63097792D01*
X194799756Y-63054713D01*
X194893898Y-63044944D01*
X194978659Y-63064122D01*
X195045400Y-63107460D01*
X195085486Y-63170171D01*
X195093166Y-63217336D01*
X195078395Y-63271958D01*
X195032275Y-63330911D01*
X194952099Y-63396688D01*
X194835160Y-63471784D01*
X194786336Y-63500000D01*
X194645904Y-63586373D01*
X194544003Y-63666539D01*
X194478081Y-63744508D01*
X194445587Y-63824287D01*
X194443968Y-63909886D01*
X194468412Y-63999478D01*
X194525026Y-64091875D01*
X194610984Y-64160869D01*
X194718673Y-64203702D01*
X194840479Y-64217620D01*
X194968789Y-64199865D01*
X194997916Y-64191177D01*
X195102808Y-64152546D01*
X195172795Y-64113514D01*
X195214646Y-64066219D01*
X195235127Y-64002800D01*
X195241006Y-63915394D01*
X195241044Y-63908708D01*
X195235624Y-63848544D01*
X195221886Y-63811244D01*
X195204296Y-63803122D01*
X195187318Y-63830494D01*
X195186832Y-63832034D01*
X195134600Y-63962166D01*
X195068780Y-64054032D01*
X194986380Y-64110354D01*
X194884405Y-64133852D01*
X194853650Y-64134921D01*
X194742634Y-64122079D01*
X194663938Y-64083926D01*
X194618736Y-64021319D01*
X194607477Y-63955084D01*
X194613818Y-63905714D01*
X194636750Y-63860315D01*
X194681629Y-63813292D01*
X194753810Y-63759053D01*
X194858649Y-63692003D01*
X194860333Y-63690972D01*
X194946709Y-63637048D01*
X195027587Y-63584712D01*
X195090599Y-63542045D01*
X195111287Y-63527053D01*
X195188231Y-63445624D01*
X195229766Y-63350609D01*
X195236406Y-63250486D01*
X195208667Y-63153728D01*
X195147066Y-63068811D01*
X195080380Y-63018807D01*
X194973355Y-62979925D01*
X194852365Y-62971839D01*
X194730663Y-62992926D01*
G37*
X194730663Y-62992926D02*
X194621508Y-63041561D01*
X194569580Y-63081367D01*
X194542565Y-63113740D01*
X194527935Y-63155096D01*
X194522241Y-63218619D01*
X194521666Y-63264506D01*
X194524642Y-63341548D01*
X194533720Y-63376731D01*
X194549126Y-63370121D01*
X194571086Y-63321781D01*
X194584428Y-63282504D01*
X194636049Y-63176355D01*
X194711416Y-63097792D01*
X194799756Y-63054713D01*
X194893898Y-63044944D01*
X194978659Y-63064122D01*
X195045400Y-63107460D01*
X195085486Y-63170171D01*
X195093166Y-63217336D01*
X195078395Y-63271958D01*
X195032275Y-63330911D01*
X194952099Y-63396688D01*
X194835160Y-63471784D01*
X194786336Y-63500000D01*
X194645904Y-63586373D01*
X194544003Y-63666539D01*
X194478081Y-63744508D01*
X194445587Y-63824287D01*
X194443968Y-63909886D01*
X194468412Y-63999478D01*
X194525026Y-64091875D01*
X194610984Y-64160869D01*
X194718673Y-64203702D01*
X194840479Y-64217620D01*
X194968789Y-64199865D01*
X194997916Y-64191177D01*
X195102808Y-64152546D01*
X195172795Y-64113514D01*
X195214646Y-64066219D01*
X195235127Y-64002800D01*
X195241006Y-63915394D01*
X195241044Y-63908708D01*
X195235624Y-63848544D01*
X195221886Y-63811244D01*
X195204296Y-63803122D01*
X195187318Y-63830494D01*
X195186832Y-63832034D01*
X195134600Y-63962166D01*
X195068780Y-64054032D01*
X194986380Y-64110354D01*
X194884405Y-64133852D01*
X194853650Y-64134921D01*
X194742634Y-64122079D01*
X194663938Y-64083926D01*
X194618736Y-64021319D01*
X194607477Y-63955084D01*
X194613818Y-63905714D01*
X194636750Y-63860315D01*
X194681629Y-63813292D01*
X194753810Y-63759053D01*
X194858649Y-63692003D01*
X194860333Y-63690972D01*
X194946709Y-63637048D01*
X195027587Y-63584712D01*
X195090599Y-63542045D01*
X195111287Y-63527053D01*
X195188231Y-63445624D01*
X195229766Y-63350609D01*
X195236406Y-63250486D01*
X195208667Y-63153728D01*
X195147066Y-63068811D01*
X195080380Y-63018807D01*
X194973355Y-62979925D01*
X194852365Y-62971839D01*
X194730663Y-62992926D01*
G36*
X206291010Y-62997410D02*
G01*
X206263605Y-63052112D01*
X206225307Y-63135161D01*
X206178586Y-63241101D01*
X206125915Y-63364475D01*
X206086543Y-63458980D01*
X206013339Y-63635831D01*
X205953840Y-63777537D01*
X205905916Y-63888212D01*
X205867436Y-63971972D01*
X205836270Y-64032929D01*
X205810286Y-64075201D01*
X205787355Y-64102900D01*
X205765346Y-64120141D01*
X205742128Y-64131040D01*
X205737739Y-64132617D01*
X205690042Y-64157348D01*
X205679287Y-64180779D01*
X205705802Y-64195849D01*
X205734708Y-64198035D01*
X205810486Y-64184444D01*
X205893023Y-64150458D01*
X205965093Y-64104660D01*
X206004908Y-64063392D01*
X206025341Y-64025280D01*
X206058007Y-63956351D01*
X206099104Y-63864965D01*
X206144827Y-63759483D01*
X206166976Y-63707076D01*
X206213609Y-63595899D01*
X206256943Y-63492775D01*
X206293190Y-63406700D01*
X206318567Y-63346670D01*
X206325381Y-63330667D01*
X206357094Y-63256584D01*
X206417256Y-63387989D01*
X206460252Y-63482396D01*
X206485454Y-63544666D01*
X206491971Y-63581472D01*
X206478917Y-63599486D01*
X206445403Y-63605383D01*
X206390540Y-63605834D01*
X206388259Y-63605834D01*
X206321553Y-63609392D01*
X206273550Y-63618552D01*
X206258583Y-63627000D01*
X206265177Y-63643557D01*
X206289927Y-63648167D01*
X206373251Y-63667033D01*
X206461819Y-63718745D01*
X206547541Y-63795970D01*
X206622323Y-63891375D01*
X206678074Y-63997628D01*
X206679445Y-64001105D01*
X206723518Y-64103235D01*
X206761678Y-64167101D01*
X206796094Y-64195996D01*
X206809404Y-64198500D01*
X206837303Y-64190432D01*
X206840666Y-64183835D01*
X206832490Y-64155497D01*
X206809637Y-64095669D01*
X206774620Y-64010017D01*
X206729953Y-63904206D01*
X206678148Y-63783901D01*
X206621720Y-63654767D01*
X206563182Y-63522470D01*
X206505046Y-63392674D01*
X206449826Y-63271046D01*
X206400037Y-63163250D01*
X206358190Y-63074952D01*
X206326799Y-63011816D01*
X206308377Y-62979509D01*
X206305051Y-62976511D01*
X206291010Y-62997410D01*
G37*
X206291010Y-62997410D02*
X206263605Y-63052112D01*
X206225307Y-63135161D01*
X206178586Y-63241101D01*
X206125915Y-63364475D01*
X206086543Y-63458980D01*
X206013339Y-63635831D01*
X205953840Y-63777537D01*
X205905916Y-63888212D01*
X205867436Y-63971972D01*
X205836270Y-64032929D01*
X205810286Y-64075201D01*
X205787355Y-64102900D01*
X205765346Y-64120141D01*
X205742128Y-64131040D01*
X205737739Y-64132617D01*
X205690042Y-64157348D01*
X205679287Y-64180779D01*
X205705802Y-64195849D01*
X205734708Y-64198035D01*
X205810486Y-64184444D01*
X205893023Y-64150458D01*
X205965093Y-64104660D01*
X206004908Y-64063392D01*
X206025341Y-64025280D01*
X206058007Y-63956351D01*
X206099104Y-63864965D01*
X206144827Y-63759483D01*
X206166976Y-63707076D01*
X206213609Y-63595899D01*
X206256943Y-63492775D01*
X206293190Y-63406700D01*
X206318567Y-63346670D01*
X206325381Y-63330667D01*
X206357094Y-63256584D01*
X206417256Y-63387989D01*
X206460252Y-63482396D01*
X206485454Y-63544666D01*
X206491971Y-63581472D01*
X206478917Y-63599486D01*
X206445403Y-63605383D01*
X206390540Y-63605834D01*
X206388259Y-63605834D01*
X206321553Y-63609392D01*
X206273550Y-63618552D01*
X206258583Y-63627000D01*
X206265177Y-63643557D01*
X206289927Y-63648167D01*
X206373251Y-63667033D01*
X206461819Y-63718745D01*
X206547541Y-63795970D01*
X206622323Y-63891375D01*
X206678074Y-63997628D01*
X206679445Y-64001105D01*
X206723518Y-64103235D01*
X206761678Y-64167101D01*
X206796094Y-64195996D01*
X206809404Y-64198500D01*
X206837303Y-64190432D01*
X206840666Y-64183835D01*
X206832490Y-64155497D01*
X206809637Y-64095669D01*
X206774620Y-64010017D01*
X206729953Y-63904206D01*
X206678148Y-63783901D01*
X206621720Y-63654767D01*
X206563182Y-63522470D01*
X206505046Y-63392674D01*
X206449826Y-63271046D01*
X206400037Y-63163250D01*
X206358190Y-63074952D01*
X206326799Y-63011816D01*
X206308377Y-62979509D01*
X206305051Y-62976511D01*
X206291010Y-62997410D01*
G36*
X205152950Y-62993840D02*
G01*
X205055126Y-62997391D01*
X204973562Y-63002834D01*
X204916622Y-63010155D01*
X204900003Y-63014513D01*
X204810182Y-63067152D01*
X204740792Y-63144135D01*
X204698206Y-63235045D01*
X204688798Y-63329465D01*
X204692611Y-63353479D01*
X204723442Y-63426032D01*
X204777294Y-63496344D01*
X204841775Y-63550840D01*
X204894220Y-63574278D01*
X204938296Y-63590220D01*
X204956832Y-63609362D01*
X204956833Y-63609513D01*
X204944962Y-63635239D01*
X204913195Y-63686444D01*
X204867304Y-63754939D01*
X204813057Y-63832535D01*
X204756225Y-63911046D01*
X204702579Y-63982283D01*
X204657889Y-64038058D01*
X204642208Y-64055963D01*
X204584148Y-64101474D01*
X204514342Y-64134307D01*
X204507411Y-64136326D01*
X204459606Y-64154374D01*
X204438170Y-64173090D01*
X204438860Y-64178321D01*
X204465720Y-64189377D01*
X204520774Y-64196040D01*
X204590071Y-64197941D01*
X204659665Y-64194709D01*
X204715607Y-64185974D01*
X204716664Y-64185694D01*
X204746676Y-64163518D01*
X204795758Y-64110349D01*
X204860048Y-64030781D01*
X204935686Y-63929406D01*
X204956599Y-63900233D01*
X205031433Y-63796098D01*
X205087146Y-63722026D01*
X205128382Y-63673050D01*
X205159786Y-63644199D01*
X205186004Y-63630506D01*
X205211681Y-63627001D01*
X205212029Y-63627000D01*
X205273104Y-63627000D01*
X205279010Y-63907459D01*
X205284916Y-64187917D01*
X205364291Y-64194486D01*
X205443666Y-64201056D01*
X205443666Y-63658636D01*
X205444539Y-63482726D01*
X205447065Y-63333478D01*
X205451109Y-63214517D01*
X205456534Y-63129468D01*
X205463205Y-63081955D01*
X205464402Y-63078585D01*
X205274333Y-63078585D01*
X205274333Y-63563500D01*
X205199570Y-63563500D01*
X205124962Y-63554665D01*
X205054957Y-63534315D01*
X204966850Y-63477369D01*
X204911826Y-63396377D01*
X204893333Y-63298917D01*
X204912083Y-63204262D01*
X204963606Y-63129240D01*
X205040816Y-63079229D01*
X205136626Y-63059608D01*
X205201629Y-63064946D01*
X205274333Y-63078585D01*
X205464402Y-63078585D01*
X205465578Y-63075275D01*
X205506603Y-63041322D01*
X205550245Y-63034334D01*
X205594507Y-63028135D01*
X205613000Y-63013227D01*
X205613000Y-63013167D01*
X205593251Y-63005029D01*
X205539580Y-62998880D01*
X205460350Y-62994701D01*
X205363926Y-62992479D01*
X205258672Y-62992197D01*
X205152950Y-62993840D01*
G37*
X205152950Y-62993840D02*
X205055126Y-62997391D01*
X204973562Y-63002834D01*
X204916622Y-63010155D01*
X204900003Y-63014513D01*
X204810182Y-63067152D01*
X204740792Y-63144135D01*
X204698206Y-63235045D01*
X204688798Y-63329465D01*
X204692611Y-63353479D01*
X204723442Y-63426032D01*
X204777294Y-63496344D01*
X204841775Y-63550840D01*
X204894220Y-63574278D01*
X204938296Y-63590220D01*
X204956832Y-63609362D01*
X204956833Y-63609513D01*
X204944962Y-63635239D01*
X204913195Y-63686444D01*
X204867304Y-63754939D01*
X204813057Y-63832535D01*
X204756225Y-63911046D01*
X204702579Y-63982283D01*
X204657889Y-64038058D01*
X204642208Y-64055963D01*
X204584148Y-64101474D01*
X204514342Y-64134307D01*
X204507411Y-64136326D01*
X204459606Y-64154374D01*
X204438170Y-64173090D01*
X204438860Y-64178321D01*
X204465720Y-64189377D01*
X204520774Y-64196040D01*
X204590071Y-64197941D01*
X204659665Y-64194709D01*
X204715607Y-64185974D01*
X204716664Y-64185694D01*
X204746676Y-64163518D01*
X204795758Y-64110349D01*
X204860048Y-64030781D01*
X204935686Y-63929406D01*
X204956599Y-63900233D01*
X205031433Y-63796098D01*
X205087146Y-63722026D01*
X205128382Y-63673050D01*
X205159786Y-63644199D01*
X205186004Y-63630506D01*
X205211681Y-63627001D01*
X205212029Y-63627000D01*
X205273104Y-63627000D01*
X205279010Y-63907459D01*
X205284916Y-64187917D01*
X205364291Y-64194486D01*
X205443666Y-64201056D01*
X205443666Y-63658636D01*
X205444539Y-63482726D01*
X205447065Y-63333478D01*
X205451109Y-63214517D01*
X205456534Y-63129468D01*
X205463205Y-63081955D01*
X205464402Y-63078585D01*
X205274333Y-63078585D01*
X205274333Y-63563500D01*
X205199570Y-63563500D01*
X205124962Y-63554665D01*
X205054957Y-63534315D01*
X204966850Y-63477369D01*
X204911826Y-63396377D01*
X204893333Y-63298917D01*
X204912083Y-63204262D01*
X204963606Y-63129240D01*
X205040816Y-63079229D01*
X205136626Y-63059608D01*
X205201629Y-63064946D01*
X205274333Y-63078585D01*
X205464402Y-63078585D01*
X205465578Y-63075275D01*
X205506603Y-63041322D01*
X205550245Y-63034334D01*
X205594507Y-63028135D01*
X205613000Y-63013227D01*
X205613000Y-63013167D01*
X205593251Y-63005029D01*
X205539580Y-62998880D01*
X205460350Y-62994701D01*
X205363926Y-62992479D01*
X205258672Y-62992197D01*
X205152950Y-62993840D01*
G36*
X202573788Y-63000166D02*
G01*
X202545665Y-63052934D01*
X202506520Y-63134507D01*
X202458791Y-63239668D01*
X202404915Y-63363200D01*
X202356073Y-63478834D01*
X202283509Y-63652779D01*
X202224952Y-63791748D01*
X202178244Y-63899895D01*
X202141231Y-63981368D01*
X202111754Y-64040320D01*
X202087657Y-64080903D01*
X202066785Y-64107266D01*
X202046980Y-64123561D01*
X202026086Y-64133941D01*
X202013309Y-64138645D01*
X201962676Y-64162708D01*
X201951712Y-64182404D01*
X201977754Y-64193621D01*
X202038138Y-64192248D01*
X202047270Y-64191082D01*
X202113653Y-64179116D01*
X202169035Y-64160106D01*
X202217108Y-64129321D01*
X202261562Y-64082032D01*
X202306090Y-64013506D01*
X202354381Y-63919013D01*
X202410129Y-63793822D01*
X202470887Y-63648167D01*
X202517888Y-63534600D01*
X202560007Y-63434605D01*
X202594399Y-63354799D01*
X202618217Y-63301799D01*
X202628158Y-63282600D01*
X202642268Y-63293036D01*
X202668294Y-63334723D01*
X202701682Y-63399911D01*
X202718437Y-63436058D01*
X202794789Y-63605834D01*
X202670560Y-63605834D01*
X202594141Y-63609535D01*
X202548036Y-63619048D01*
X202535406Y-63631981D01*
X202559413Y-63645946D01*
X202604424Y-63655830D01*
X202701733Y-63691785D01*
X202796842Y-63765816D01*
X202885565Y-63873712D01*
X202963720Y-64011262D01*
X202969215Y-64023039D01*
X203014422Y-64113520D01*
X203052188Y-64173336D01*
X203079665Y-64198084D01*
X203082614Y-64198500D01*
X203111421Y-64188945D01*
X203115333Y-64180378D01*
X203107180Y-64151485D01*
X203084401Y-64090995D01*
X203049523Y-64004653D01*
X203005070Y-63898201D01*
X202953565Y-63777386D01*
X202897532Y-63647951D01*
X202839498Y-63515640D01*
X202781984Y-63386198D01*
X202727517Y-63265370D01*
X202678621Y-63158900D01*
X202637819Y-63072531D01*
X202607636Y-63012009D01*
X202590596Y-62983078D01*
X202588454Y-62981417D01*
X202573788Y-63000166D01*
G37*
X202573788Y-63000166D02*
X202545665Y-63052934D01*
X202506520Y-63134507D01*
X202458791Y-63239668D01*
X202404915Y-63363200D01*
X202356073Y-63478834D01*
X202283509Y-63652779D01*
X202224952Y-63791748D01*
X202178244Y-63899895D01*
X202141231Y-63981368D01*
X202111754Y-64040320D01*
X202087657Y-64080903D01*
X202066785Y-64107266D01*
X202046980Y-64123561D01*
X202026086Y-64133941D01*
X202013309Y-64138645D01*
X201962676Y-64162708D01*
X201951712Y-64182404D01*
X201977754Y-64193621D01*
X202038138Y-64192248D01*
X202047270Y-64191082D01*
X202113653Y-64179116D01*
X202169035Y-64160106D01*
X202217108Y-64129321D01*
X202261562Y-64082032D01*
X202306090Y-64013506D01*
X202354381Y-63919013D01*
X202410129Y-63793822D01*
X202470887Y-63648167D01*
X202517888Y-63534600D01*
X202560007Y-63434605D01*
X202594399Y-63354799D01*
X202618217Y-63301799D01*
X202628158Y-63282600D01*
X202642268Y-63293036D01*
X202668294Y-63334723D01*
X202701682Y-63399911D01*
X202718437Y-63436058D01*
X202794789Y-63605834D01*
X202670560Y-63605834D01*
X202594141Y-63609535D01*
X202548036Y-63619048D01*
X202535406Y-63631981D01*
X202559413Y-63645946D01*
X202604424Y-63655830D01*
X202701733Y-63691785D01*
X202796842Y-63765816D01*
X202885565Y-63873712D01*
X202963720Y-64011262D01*
X202969215Y-64023039D01*
X203014422Y-64113520D01*
X203052188Y-64173336D01*
X203079665Y-64198084D01*
X203082614Y-64198500D01*
X203111421Y-64188945D01*
X203115333Y-64180378D01*
X203107180Y-64151485D01*
X203084401Y-64090995D01*
X203049523Y-64004653D01*
X203005070Y-63898201D01*
X202953565Y-63777386D01*
X202897532Y-63647951D01*
X202839498Y-63515640D01*
X202781984Y-63386198D01*
X202727517Y-63265370D01*
X202678621Y-63158900D01*
X202637819Y-63072531D01*
X202607636Y-63012009D01*
X202590596Y-62983078D01*
X202588454Y-62981417D01*
X202573788Y-63000166D01*
G36*
X201817394Y-62991424D02*
G01*
X201744652Y-62998194D01*
X201677398Y-63010889D01*
X201627372Y-63028860D01*
X201623083Y-63031340D01*
X201592007Y-63058661D01*
X201539308Y-63114033D01*
X201469561Y-63192255D01*
X201387345Y-63288126D01*
X201297235Y-63396446D01*
X201242083Y-63464260D01*
X200924583Y-63857998D01*
X200918862Y-63424999D01*
X200916760Y-63279305D01*
X200914444Y-63170554D01*
X200911322Y-63093359D01*
X200906801Y-63042330D01*
X200900289Y-63012080D01*
X200891192Y-62997220D01*
X200878918Y-62992362D01*
X200871237Y-62992000D01*
X200859054Y-62993362D01*
X200849494Y-63000496D01*
X200842239Y-63017974D01*
X200836972Y-63050370D01*
X200833374Y-63102257D01*
X200831130Y-63178207D01*
X200829920Y-63282793D01*
X200829427Y-63420588D01*
X200829333Y-63595250D01*
X200829984Y-63759935D01*
X200831839Y-63904987D01*
X200834754Y-64025887D01*
X200838587Y-64118117D01*
X200843192Y-64177157D01*
X200848426Y-64198489D01*
X200848553Y-64198500D01*
X200866353Y-64182688D01*
X200907102Y-64138027D01*
X200967249Y-64068679D01*
X201043240Y-63978809D01*
X201131523Y-63872578D01*
X201228547Y-63754149D01*
X201245428Y-63733383D01*
X201623083Y-63268266D01*
X201633666Y-63726351D01*
X201638076Y-63888117D01*
X201643277Y-64011424D01*
X201649861Y-64100147D01*
X201658422Y-64158159D01*
X201669551Y-64189336D01*
X201683842Y-64197551D01*
X201701886Y-64186679D01*
X201703781Y-64184830D01*
X201707857Y-64160427D01*
X201711492Y-64099712D01*
X201714518Y-64008702D01*
X201716768Y-63893418D01*
X201718072Y-63759880D01*
X201718333Y-63664178D01*
X201718333Y-63158077D01*
X201780205Y-63096205D01*
X201838113Y-63052661D01*
X201893589Y-63034407D01*
X201896622Y-63034334D01*
X201937173Y-63027285D01*
X201951166Y-63013167D01*
X201932390Y-62998260D01*
X201883886Y-62991229D01*
X201817394Y-62991424D01*
G37*
X201817394Y-62991424D02*
X201744652Y-62998194D01*
X201677398Y-63010889D01*
X201627372Y-63028860D01*
X201623083Y-63031340D01*
X201592007Y-63058661D01*
X201539308Y-63114033D01*
X201469561Y-63192255D01*
X201387345Y-63288126D01*
X201297235Y-63396446D01*
X201242083Y-63464260D01*
X200924583Y-63857998D01*
X200918862Y-63424999D01*
X200916760Y-63279305D01*
X200914444Y-63170554D01*
X200911322Y-63093359D01*
X200906801Y-63042330D01*
X200900289Y-63012080D01*
X200891192Y-62997220D01*
X200878918Y-62992362D01*
X200871237Y-62992000D01*
X200859054Y-62993362D01*
X200849494Y-63000496D01*
X200842239Y-63017974D01*
X200836972Y-63050370D01*
X200833374Y-63102257D01*
X200831130Y-63178207D01*
X200829920Y-63282793D01*
X200829427Y-63420588D01*
X200829333Y-63595250D01*
X200829984Y-63759935D01*
X200831839Y-63904987D01*
X200834754Y-64025887D01*
X200838587Y-64118117D01*
X200843192Y-64177157D01*
X200848426Y-64198489D01*
X200848553Y-64198500D01*
X200866353Y-64182688D01*
X200907102Y-64138027D01*
X200967249Y-64068679D01*
X201043240Y-63978809D01*
X201131523Y-63872578D01*
X201228547Y-63754149D01*
X201245428Y-63733383D01*
X201623083Y-63268266D01*
X201633666Y-63726351D01*
X201638076Y-63888117D01*
X201643277Y-64011424D01*
X201649861Y-64100147D01*
X201658422Y-64158159D01*
X201669551Y-64189336D01*
X201683842Y-64197551D01*
X201701886Y-64186679D01*
X201703781Y-64184830D01*
X201707857Y-64160427D01*
X201711492Y-64099712D01*
X201714518Y-64008702D01*
X201716768Y-63893418D01*
X201718072Y-63759880D01*
X201718333Y-63664178D01*
X201718333Y-63158077D01*
X201780205Y-63096205D01*
X201838113Y-63052661D01*
X201893589Y-63034407D01*
X201896622Y-63034334D01*
X201937173Y-63027285D01*
X201951166Y-63013167D01*
X201932390Y-62998260D01*
X201883886Y-62991229D01*
X201817394Y-62991424D01*
G36*
X199960104Y-62998049D02*
G01*
X199932409Y-63052879D01*
X199893298Y-63136591D01*
X199845115Y-63244050D01*
X199790204Y-63370123D01*
X199730905Y-63509674D01*
X199728748Y-63514814D01*
X199668715Y-63656580D01*
X199612532Y-63786763D01*
X199562662Y-63899854D01*
X199521565Y-63990344D01*
X199491704Y-64052725D01*
X199475539Y-64081488D01*
X199475536Y-64081490D01*
X199430318Y-64118959D01*
X199396161Y-64136681D01*
X199358995Y-64158608D01*
X199347666Y-64176810D01*
X199365452Y-64194302D01*
X199411658Y-64196684D01*
X199475560Y-64184959D01*
X199546433Y-64160135D01*
X199552010Y-64157647D01*
X199592184Y-64136242D01*
X199627886Y-64108082D01*
X199662070Y-64068138D01*
X199697691Y-64011380D01*
X199737706Y-63932777D01*
X199785070Y-63827300D01*
X199842737Y-63689920D01*
X199879101Y-63600945D01*
X199924178Y-63491461D01*
X199964151Y-63397077D01*
X199996217Y-63324198D01*
X200017573Y-63279226D01*
X200025000Y-63267639D01*
X200038569Y-63287045D01*
X200066675Y-63345748D01*
X200109378Y-63443878D01*
X200166735Y-63581566D01*
X200169639Y-63588639D01*
X200154566Y-63597985D01*
X200108279Y-63604229D01*
X200059763Y-63605834D01*
X199992959Y-63609382D01*
X199944846Y-63618519D01*
X199929750Y-63627000D01*
X199936344Y-63643557D01*
X199961094Y-63648167D01*
X200027486Y-63663026D01*
X200106403Y-63702046D01*
X200183239Y-63756894D01*
X200228339Y-63800667D01*
X200266574Y-63854297D01*
X200311507Y-63932147D01*
X200354477Y-64018991D01*
X200361485Y-64034747D01*
X200408613Y-64131169D01*
X200447809Y-64186043D01*
X200479102Y-64199401D01*
X200497162Y-64182625D01*
X200492343Y-64158465D01*
X200472609Y-64102020D01*
X200440434Y-64018993D01*
X200398293Y-63915088D01*
X200348662Y-63796009D01*
X200294016Y-63667460D01*
X200236831Y-63535145D01*
X200179582Y-63404767D01*
X200124744Y-63282030D01*
X200074793Y-63172638D01*
X200032203Y-63082294D01*
X199999451Y-63016703D01*
X199979012Y-62981568D01*
X199974041Y-62977236D01*
X199960104Y-62998049D01*
G37*
X199960104Y-62998049D02*
X199932409Y-63052879D01*
X199893298Y-63136591D01*
X199845115Y-63244050D01*
X199790204Y-63370123D01*
X199730905Y-63509674D01*
X199728748Y-63514814D01*
X199668715Y-63656580D01*
X199612532Y-63786763D01*
X199562662Y-63899854D01*
X199521565Y-63990344D01*
X199491704Y-64052725D01*
X199475539Y-64081488D01*
X199475536Y-64081490D01*
X199430318Y-64118959D01*
X199396161Y-64136681D01*
X199358995Y-64158608D01*
X199347666Y-64176810D01*
X199365452Y-64194302D01*
X199411658Y-64196684D01*
X199475560Y-64184959D01*
X199546433Y-64160135D01*
X199552010Y-64157647D01*
X199592184Y-64136242D01*
X199627886Y-64108082D01*
X199662070Y-64068138D01*
X199697691Y-64011380D01*
X199737706Y-63932777D01*
X199785070Y-63827300D01*
X199842737Y-63689920D01*
X199879101Y-63600945D01*
X199924178Y-63491461D01*
X199964151Y-63397077D01*
X199996217Y-63324198D01*
X200017573Y-63279226D01*
X200025000Y-63267639D01*
X200038569Y-63287045D01*
X200066675Y-63345748D01*
X200109378Y-63443878D01*
X200166735Y-63581566D01*
X200169639Y-63588639D01*
X200154566Y-63597985D01*
X200108279Y-63604229D01*
X200059763Y-63605834D01*
X199992959Y-63609382D01*
X199944846Y-63618519D01*
X199929750Y-63627000D01*
X199936344Y-63643557D01*
X199961094Y-63648167D01*
X200027486Y-63663026D01*
X200106403Y-63702046D01*
X200183239Y-63756894D01*
X200228339Y-63800667D01*
X200266574Y-63854297D01*
X200311507Y-63932147D01*
X200354477Y-64018991D01*
X200361485Y-64034747D01*
X200408613Y-64131169D01*
X200447809Y-64186043D01*
X200479102Y-64199401D01*
X200497162Y-64182625D01*
X200492343Y-64158465D01*
X200472609Y-64102020D01*
X200440434Y-64018993D01*
X200398293Y-63915088D01*
X200348662Y-63796009D01*
X200294016Y-63667460D01*
X200236831Y-63535145D01*
X200179582Y-63404767D01*
X200124744Y-63282030D01*
X200074793Y-63172638D01*
X200032203Y-63082294D01*
X199999451Y-63016703D01*
X199979012Y-62981568D01*
X199974041Y-62977236D01*
X199960104Y-62998049D01*
G36*
X197197455Y-63000166D02*
G01*
X197169331Y-63052934D01*
X197130187Y-63134507D01*
X197082458Y-63239668D01*
X197028582Y-63363200D01*
X196979740Y-63478834D01*
X196907176Y-63652779D01*
X196848619Y-63791748D01*
X196801911Y-63899895D01*
X196764897Y-63981368D01*
X196735420Y-64040320D01*
X196711324Y-64080903D01*
X196690451Y-64107266D01*
X196670647Y-64123561D01*
X196649753Y-64133941D01*
X196636975Y-64138645D01*
X196586343Y-64162708D01*
X196575379Y-64182404D01*
X196601420Y-64193621D01*
X196661804Y-64192248D01*
X196670937Y-64191082D01*
X196737320Y-64179116D01*
X196792702Y-64160106D01*
X196840775Y-64129321D01*
X196885229Y-64082032D01*
X196929756Y-64013506D01*
X196978048Y-63919013D01*
X197033795Y-63793822D01*
X197094554Y-63648167D01*
X197141554Y-63534600D01*
X197183674Y-63434605D01*
X197218066Y-63354799D01*
X197241884Y-63301799D01*
X197251825Y-63282600D01*
X197265934Y-63293036D01*
X197291961Y-63334723D01*
X197325348Y-63399911D01*
X197342103Y-63436058D01*
X197418456Y-63605834D01*
X197294227Y-63605834D01*
X197217808Y-63609535D01*
X197171703Y-63619048D01*
X197159073Y-63631981D01*
X197183079Y-63645946D01*
X197228090Y-63655830D01*
X197325400Y-63691785D01*
X197420508Y-63765816D01*
X197509232Y-63873712D01*
X197587387Y-64011262D01*
X197592882Y-64023039D01*
X197638089Y-64113520D01*
X197675854Y-64173336D01*
X197703331Y-64198084D01*
X197706281Y-64198500D01*
X197735088Y-64188945D01*
X197739000Y-64180378D01*
X197730846Y-64151485D01*
X197708068Y-64090995D01*
X197673190Y-64004653D01*
X197628736Y-63898201D01*
X197577231Y-63777386D01*
X197521199Y-63647951D01*
X197463164Y-63515640D01*
X197405651Y-63386198D01*
X197351184Y-63265370D01*
X197302287Y-63158900D01*
X197261485Y-63072531D01*
X197231302Y-63012009D01*
X197214263Y-62983078D01*
X197212121Y-62981417D01*
X197197455Y-63000166D01*
G37*
X197197455Y-63000166D02*
X197169331Y-63052934D01*
X197130187Y-63134507D01*
X197082458Y-63239668D01*
X197028582Y-63363200D01*
X196979740Y-63478834D01*
X196907176Y-63652779D01*
X196848619Y-63791748D01*
X196801911Y-63899895D01*
X196764897Y-63981368D01*
X196735420Y-64040320D01*
X196711324Y-64080903D01*
X196690451Y-64107266D01*
X196670647Y-64123561D01*
X196649753Y-64133941D01*
X196636975Y-64138645D01*
X196586343Y-64162708D01*
X196575379Y-64182404D01*
X196601420Y-64193621D01*
X196661804Y-64192248D01*
X196670937Y-64191082D01*
X196737320Y-64179116D01*
X196792702Y-64160106D01*
X196840775Y-64129321D01*
X196885229Y-64082032D01*
X196929756Y-64013506D01*
X196978048Y-63919013D01*
X197033795Y-63793822D01*
X197094554Y-63648167D01*
X197141554Y-63534600D01*
X197183674Y-63434605D01*
X197218066Y-63354799D01*
X197241884Y-63301799D01*
X197251825Y-63282600D01*
X197265934Y-63293036D01*
X197291961Y-63334723D01*
X197325348Y-63399911D01*
X197342103Y-63436058D01*
X197418456Y-63605834D01*
X197294227Y-63605834D01*
X197217808Y-63609535D01*
X197171703Y-63619048D01*
X197159073Y-63631981D01*
X197183079Y-63645946D01*
X197228090Y-63655830D01*
X197325400Y-63691785D01*
X197420508Y-63765816D01*
X197509232Y-63873712D01*
X197587387Y-64011262D01*
X197592882Y-64023039D01*
X197638089Y-64113520D01*
X197675854Y-64173336D01*
X197703331Y-64198084D01*
X197706281Y-64198500D01*
X197735088Y-64188945D01*
X197739000Y-64180378D01*
X197730846Y-64151485D01*
X197708068Y-64090995D01*
X197673190Y-64004653D01*
X197628736Y-63898201D01*
X197577231Y-63777386D01*
X197521199Y-63647951D01*
X197463164Y-63515640D01*
X197405651Y-63386198D01*
X197351184Y-63265370D01*
X197302287Y-63158900D01*
X197261485Y-63072531D01*
X197231302Y-63012009D01*
X197214263Y-62983078D01*
X197212121Y-62981417D01*
X197197455Y-63000166D01*
G36*
X196148516Y-62995579D02*
G01*
X196004598Y-62998773D01*
X195896158Y-63002896D01*
X195816344Y-63008628D01*
X195758300Y-63016647D01*
X195715173Y-63027632D01*
X195680875Y-63041879D01*
X195599021Y-63102766D01*
X195543302Y-63185184D01*
X195516285Y-63279058D01*
X195520532Y-63374316D01*
X195558607Y-63460885D01*
X195570346Y-63476078D01*
X195616675Y-63521628D01*
X195661460Y-63551435D01*
X195668165Y-63554027D01*
X195690280Y-63564629D01*
X195683167Y-63577808D01*
X195642289Y-63599161D01*
X195625340Y-63606845D01*
X195535848Y-63666423D01*
X195479522Y-63745422D01*
X195456668Y-63836574D01*
X195467591Y-63932611D01*
X195512595Y-64026265D01*
X195591987Y-64110269D01*
X195603817Y-64119340D01*
X195666187Y-64147865D01*
X195765864Y-64170575D01*
X195898139Y-64186802D01*
X196058299Y-64195877D01*
X196155233Y-64197571D01*
X196338883Y-64198500D01*
X196343336Y-63833339D01*
X196169211Y-63833339D01*
X196168568Y-63941983D01*
X196167092Y-64024596D01*
X196164840Y-64074901D01*
X196163150Y-64086937D01*
X196136479Y-64103523D01*
X196080112Y-64112510D01*
X196005950Y-64114150D01*
X195925897Y-64108694D01*
X195851855Y-64096396D01*
X195799225Y-64079229D01*
X195722305Y-64021309D01*
X195678071Y-63939584D01*
X195670204Y-63841080D01*
X195671022Y-63834392D01*
X195685375Y-63771690D01*
X195706469Y-63723429D01*
X195710389Y-63718066D01*
X195759341Y-63679125D01*
X195832240Y-63642321D01*
X195911072Y-63615385D01*
X195971583Y-63605974D01*
X196039690Y-63600009D01*
X196066911Y-63586391D01*
X196053304Y-63568238D01*
X195998923Y-63548668D01*
X195970441Y-63542096D01*
X195870434Y-63518518D01*
X195802853Y-63493711D01*
X195758007Y-63462174D01*
X195726204Y-63418404D01*
X195715498Y-63397366D01*
X195693780Y-63342327D01*
X195692246Y-63296576D01*
X195709186Y-63238175D01*
X195748279Y-63159028D01*
X195803968Y-63107096D01*
X195883805Y-63078068D01*
X195995345Y-63067633D01*
X196008350Y-63067448D01*
X196162083Y-63066084D01*
X196167777Y-63563062D01*
X196168965Y-63704940D01*
X196169211Y-63833339D01*
X196343336Y-63833339D01*
X196345733Y-63636788D01*
X196348000Y-63461782D01*
X196350629Y-63324514D01*
X196354509Y-63220395D01*
X196360531Y-63144834D01*
X196369584Y-63093241D01*
X196382558Y-63061024D01*
X196400343Y-63043593D01*
X196423830Y-63036358D01*
X196453908Y-63034727D01*
X196462459Y-63034658D01*
X196505684Y-63024995D01*
X196522975Y-63011454D01*
X196513427Y-63002886D01*
X196470794Y-62997168D01*
X196392686Y-62994200D01*
X196276711Y-62993880D01*
X196148516Y-62995579D01*
G37*
X196148516Y-62995579D02*
X196004598Y-62998773D01*
X195896158Y-63002896D01*
X195816344Y-63008628D01*
X195758300Y-63016647D01*
X195715173Y-63027632D01*
X195680875Y-63041879D01*
X195599021Y-63102766D01*
X195543302Y-63185184D01*
X195516285Y-63279058D01*
X195520532Y-63374316D01*
X195558607Y-63460885D01*
X195570346Y-63476078D01*
X195616675Y-63521628D01*
X195661460Y-63551435D01*
X195668165Y-63554027D01*
X195690280Y-63564629D01*
X195683167Y-63577808D01*
X195642289Y-63599161D01*
X195625340Y-63606845D01*
X195535848Y-63666423D01*
X195479522Y-63745422D01*
X195456668Y-63836574D01*
X195467591Y-63932611D01*
X195512595Y-64026265D01*
X195591987Y-64110269D01*
X195603817Y-64119340D01*
X195666187Y-64147865D01*
X195765864Y-64170575D01*
X195898139Y-64186802D01*
X196058299Y-64195877D01*
X196155233Y-64197571D01*
X196338883Y-64198500D01*
X196343336Y-63833339D01*
X196169211Y-63833339D01*
X196168568Y-63941983D01*
X196167092Y-64024596D01*
X196164840Y-64074901D01*
X196163150Y-64086937D01*
X196136479Y-64103523D01*
X196080112Y-64112510D01*
X196005950Y-64114150D01*
X195925897Y-64108694D01*
X195851855Y-64096396D01*
X195799225Y-64079229D01*
X195722305Y-64021309D01*
X195678071Y-63939584D01*
X195670204Y-63841080D01*
X195671022Y-63834392D01*
X195685375Y-63771690D01*
X195706469Y-63723429D01*
X195710389Y-63718066D01*
X195759341Y-63679125D01*
X195832240Y-63642321D01*
X195911072Y-63615385D01*
X195971583Y-63605974D01*
X196039690Y-63600009D01*
X196066911Y-63586391D01*
X196053304Y-63568238D01*
X195998923Y-63548668D01*
X195970441Y-63542096D01*
X195870434Y-63518518D01*
X195802853Y-63493711D01*
X195758007Y-63462174D01*
X195726204Y-63418404D01*
X195715498Y-63397366D01*
X195693780Y-63342327D01*
X195692246Y-63296576D01*
X195709186Y-63238175D01*
X195748279Y-63159028D01*
X195803968Y-63107096D01*
X195883805Y-63078068D01*
X195995345Y-63067633D01*
X196008350Y-63067448D01*
X196162083Y-63066084D01*
X196167777Y-63563062D01*
X196168965Y-63704940D01*
X196169211Y-63833339D01*
X196343336Y-63833339D01*
X196345733Y-63636788D01*
X196348000Y-63461782D01*
X196350629Y-63324514D01*
X196354509Y-63220395D01*
X196360531Y-63144834D01*
X196369584Y-63093241D01*
X196382558Y-63061024D01*
X196400343Y-63043593D01*
X196423830Y-63036358D01*
X196453908Y-63034727D01*
X196462459Y-63034658D01*
X196505684Y-63024995D01*
X196522975Y-63011454D01*
X196513427Y-63002886D01*
X196470794Y-62997168D01*
X196392686Y-62994200D01*
X196276711Y-62993880D01*
X196148516Y-62995579D01*
G36*
X198781998Y-62996325D02*
G01*
X198724384Y-62999350D01*
X198679357Y-63005901D01*
X198645363Y-63020690D01*
X198620845Y-63048430D01*
X198604251Y-63093833D01*
X198594024Y-63161612D01*
X198588611Y-63256479D01*
X198586456Y-63383146D01*
X198586005Y-63546327D01*
X198585979Y-63590482D01*
X198585666Y-64072548D01*
X198531372Y-64093191D01*
X198489559Y-64101201D01*
X198415819Y-64107763D01*
X198320549Y-64112199D01*
X198214147Y-64113833D01*
X198213872Y-64113834D01*
X198102124Y-64114589D01*
X198026310Y-64117368D01*
X197980050Y-64122940D01*
X197956962Y-64132075D01*
X197950667Y-64145543D01*
X197950666Y-64145584D01*
X197955925Y-64156799D01*
X197975230Y-64165083D01*
X198013875Y-64170856D01*
X198077154Y-64174535D01*
X198170359Y-64176540D01*
X198298785Y-64177290D01*
X198351831Y-64177334D01*
X198752995Y-64177334D01*
X198759289Y-63626203D01*
X198761405Y-63452914D01*
X198763942Y-63317324D01*
X198767820Y-63214801D01*
X198773957Y-63140714D01*
X198783273Y-63090430D01*
X198796688Y-63059319D01*
X198815120Y-63042748D01*
X198839490Y-63036086D01*
X198870716Y-63034701D01*
X198876708Y-63034658D01*
X198913883Y-63026066D01*
X198924333Y-63012200D01*
X198904239Y-63000384D01*
X198847343Y-62995305D01*
X198781998Y-62996325D01*
G37*
X198781998Y-62996325D02*
X198724384Y-62999350D01*
X198679357Y-63005901D01*
X198645363Y-63020690D01*
X198620845Y-63048430D01*
X198604251Y-63093833D01*
X198594024Y-63161612D01*
X198588611Y-63256479D01*
X198586456Y-63383146D01*
X198586005Y-63546327D01*
X198585979Y-63590482D01*
X198585666Y-64072548D01*
X198531372Y-64093191D01*
X198489559Y-64101201D01*
X198415819Y-64107763D01*
X198320549Y-64112199D01*
X198214147Y-64113833D01*
X198213872Y-64113834D01*
X198102124Y-64114589D01*
X198026310Y-64117368D01*
X197980050Y-64122940D01*
X197956962Y-64132075D01*
X197950667Y-64145543D01*
X197950666Y-64145584D01*
X197955925Y-64156799D01*
X197975230Y-64165083D01*
X198013875Y-64170856D01*
X198077154Y-64174535D01*
X198170359Y-64176540D01*
X198298785Y-64177290D01*
X198351831Y-64177334D01*
X198752995Y-64177334D01*
X198759289Y-63626203D01*
X198761405Y-63452914D01*
X198763942Y-63317324D01*
X198767820Y-63214801D01*
X198773957Y-63140714D01*
X198783273Y-63090430D01*
X198796688Y-63059319D01*
X198815120Y-63042748D01*
X198839490Y-63036086D01*
X198870716Y-63034701D01*
X198876708Y-63034658D01*
X198913883Y-63026066D01*
X198924333Y-63012200D01*
X198904239Y-63000384D01*
X198847343Y-62995305D01*
X198781998Y-62996325D01*
G36*
X196594681Y-55742504D02*
G01*
X196221164Y-55949969D01*
X195856804Y-56152369D01*
X195503384Y-56348712D01*
X195162690Y-56538004D01*
X194836507Y-56719254D01*
X194526622Y-56891468D01*
X194234820Y-57053654D01*
X193962885Y-57204819D01*
X193712604Y-57343971D01*
X193485762Y-57470116D01*
X193284144Y-57582263D01*
X193109536Y-57679419D01*
X192963724Y-57760591D01*
X192848492Y-57824786D01*
X192765627Y-57871012D01*
X192716913Y-57898276D01*
X192704811Y-57905125D01*
X192613039Y-57958244D01*
X196482482Y-60107920D01*
X196858514Y-60316772D01*
X197224887Y-60520158D01*
X197579870Y-60717119D01*
X197921732Y-60906700D01*
X198248741Y-61087943D01*
X198559166Y-61259890D01*
X198851276Y-61421586D01*
X199123338Y-61572073D01*
X199373622Y-61710394D01*
X199600396Y-61835593D01*
X199801929Y-61946711D01*
X199976489Y-62042792D01*
X200122345Y-62122880D01*
X200237766Y-62186017D01*
X200321019Y-62231246D01*
X200370374Y-62257611D01*
X200384255Y-62264471D01*
X200405627Y-62254998D01*
X200462249Y-62225864D01*
X200552392Y-62178018D01*
X200674329Y-62112409D01*
X200826331Y-62029988D01*
X201006670Y-61931704D01*
X201213620Y-61818507D01*
X201445452Y-61691346D01*
X201700438Y-61551172D01*
X201976851Y-61398933D01*
X202272962Y-61235579D01*
X202587045Y-61062060D01*
X202917370Y-60879327D01*
X203262210Y-60688327D01*
X203287595Y-60674250D01*
X203074365Y-60674250D01*
X201734891Y-61417521D01*
X200395416Y-62160792D01*
X200256398Y-62084271D01*
X200213656Y-62060649D01*
X200137481Y-62018442D01*
X200031441Y-61959633D01*
X199899104Y-61886202D01*
X199744041Y-61800131D01*
X199569819Y-61703399D01*
X199380008Y-61597990D01*
X199178176Y-61485882D01*
X198967893Y-61369058D01*
X198917394Y-61341000D01*
X197717409Y-60674250D01*
X199049478Y-60668801D01*
X199337462Y-60667837D01*
X199657522Y-60667141D01*
X199999399Y-60666714D01*
X200352835Y-60666555D01*
X200707574Y-60666664D01*
X201053358Y-60667042D01*
X201379928Y-60667688D01*
X201677029Y-60668603D01*
X201727955Y-60668801D01*
X203074365Y-60674250D01*
X203287595Y-60674250D01*
X203619838Y-60490011D01*
X203988526Y-60285330D01*
X204295984Y-60114466D01*
X204671858Y-59905397D01*
X205037654Y-59701756D01*
X205391671Y-59504499D01*
X205732207Y-59314579D01*
X206057561Y-59132952D01*
X206366030Y-58960572D01*
X206655913Y-58798394D01*
X206925508Y-58647372D01*
X207173112Y-58508461D01*
X207397025Y-58382615D01*
X207595544Y-58270790D01*
X207766967Y-58173940D01*
X207909593Y-58093019D01*
X208021720Y-58028982D01*
X208101646Y-57982784D01*
X208140500Y-57959648D01*
X207936034Y-57959648D01*
X207917398Y-57971395D01*
X207864407Y-58002209D01*
X207779719Y-58050608D01*
X207665988Y-58115110D01*
X207525874Y-58194232D01*
X207362031Y-58286492D01*
X207177117Y-58390407D01*
X206973787Y-58504497D01*
X206754700Y-58627278D01*
X206522512Y-58757268D01*
X206279878Y-58892984D01*
X206029456Y-59032946D01*
X205773903Y-59175669D01*
X205515875Y-59319673D01*
X205258028Y-59463475D01*
X205003020Y-59605592D01*
X204753507Y-59744543D01*
X204512146Y-59878845D01*
X204281593Y-60007015D01*
X204064505Y-60127573D01*
X203863539Y-60239034D01*
X203681350Y-60339918D01*
X203520597Y-60428742D01*
X203383936Y-60504023D01*
X203274022Y-60564280D01*
X203193513Y-60608030D01*
X203145066Y-60633791D01*
X203131208Y-60640448D01*
X203129239Y-60619959D01*
X203127339Y-60559647D01*
X203125525Y-60462025D01*
X203123811Y-60329605D01*
X203122212Y-60164897D01*
X203121343Y-60049834D01*
X203051833Y-60049834D01*
X203051833Y-60600167D01*
X200993375Y-60598496D01*
X200674167Y-60598051D01*
X200375947Y-60597263D01*
X200100843Y-60596155D01*
X199850984Y-60594749D01*
X199628499Y-60593064D01*
X199435514Y-60591124D01*
X199274160Y-60588949D01*
X199146563Y-60586560D01*
X199054853Y-60583981D01*
X199001158Y-60581231D01*
X198987605Y-60578332D01*
X198987833Y-60578246D01*
X199011656Y-60571240D01*
X198854262Y-60571240D01*
X198851522Y-60580093D01*
X198832899Y-60587004D01*
X198794178Y-60592193D01*
X198731148Y-60595880D01*
X198639596Y-60598288D01*
X198515309Y-60599636D01*
X198354075Y-60600145D01*
X198302181Y-60600167D01*
X197739000Y-60600167D01*
X197739000Y-58532889D01*
X197739083Y-58241235D01*
X197739324Y-57962012D01*
X197739337Y-57953089D01*
X197675500Y-57953089D01*
X197675443Y-58286789D01*
X197675277Y-58608567D01*
X197675008Y-58915909D01*
X197674644Y-59206303D01*
X197674191Y-59477232D01*
X197673656Y-59726184D01*
X197673047Y-59950645D01*
X197672369Y-60148100D01*
X197671631Y-60316036D01*
X197670839Y-60451938D01*
X197669999Y-60553292D01*
X197669119Y-60617585D01*
X197668206Y-60642302D01*
X197668116Y-60642500D01*
X197649059Y-60632417D01*
X197595184Y-60602975D01*
X197508676Y-60555382D01*
X197391718Y-60490847D01*
X197246493Y-60410581D01*
X197075184Y-60315792D01*
X196879976Y-60207689D01*
X196663050Y-60087482D01*
X196426591Y-59956380D01*
X196172782Y-59815592D01*
X195903807Y-59666327D01*
X195621848Y-59509794D01*
X195329090Y-59347204D01*
X195260428Y-59309062D01*
X194965439Y-59145088D01*
X194680783Y-58986666D01*
X194408642Y-58835019D01*
X194151201Y-58691372D01*
X193910642Y-58556949D01*
X193689148Y-58432977D01*
X193488902Y-58320678D01*
X193312087Y-58221277D01*
X193160887Y-58136000D01*
X193037485Y-58066070D01*
X192944063Y-58012713D01*
X192882806Y-57977153D01*
X192855895Y-57960614D01*
X192854795Y-57959635D01*
X192872355Y-57947994D01*
X192924450Y-57917197D01*
X193008599Y-57868633D01*
X193122322Y-57803688D01*
X193263139Y-57723751D01*
X193428570Y-57630210D01*
X193616135Y-57524452D01*
X193823353Y-57407865D01*
X194047744Y-57281837D01*
X194286829Y-57147756D01*
X194538126Y-57007009D01*
X194799157Y-56860985D01*
X195067440Y-56711071D01*
X195340496Y-56558656D01*
X195615845Y-56405125D01*
X195891005Y-56251869D01*
X196163498Y-56100274D01*
X196430843Y-55951728D01*
X196690560Y-55807620D01*
X196940168Y-55669336D01*
X197177189Y-55538265D01*
X197399140Y-55415794D01*
X197509753Y-55354881D01*
X197675500Y-55263678D01*
X197675500Y-57953089D01*
X197739337Y-57953089D01*
X197739711Y-57698070D01*
X197740234Y-57452260D01*
X197740881Y-57227434D01*
X197741640Y-57026443D01*
X197742499Y-56852137D01*
X197743448Y-56707369D01*
X197744474Y-56594989D01*
X197745567Y-56517849D01*
X197746715Y-56478799D01*
X197747291Y-56474431D01*
X197753815Y-56495677D01*
X197770521Y-56555056D01*
X197796661Y-56649805D01*
X197831487Y-56777160D01*
X197874251Y-56934357D01*
X197924202Y-57118631D01*
X197980593Y-57327219D01*
X198042676Y-57557357D01*
X198109701Y-57806280D01*
X198180920Y-58071225D01*
X198255584Y-58349428D01*
X198299372Y-58512782D01*
X198375772Y-58797799D01*
X198449199Y-59071483D01*
X198518898Y-59331036D01*
X198584114Y-59573656D01*
X198644093Y-59796543D01*
X198698079Y-59996897D01*
X198745317Y-60171918D01*
X198785054Y-60318806D01*
X198816533Y-60434761D01*
X198839001Y-60516981D01*
X198851701Y-60562668D01*
X198854262Y-60571240D01*
X199011656Y-60571240D01*
X199017397Y-60569552D01*
X199083887Y-60551073D01*
X199183914Y-60523714D01*
X199314090Y-60488380D01*
X199471026Y-60445974D01*
X199651333Y-60397402D01*
X199851622Y-60343567D01*
X200005631Y-60302244D01*
X199723433Y-60302244D01*
X199705525Y-60310364D01*
X199654082Y-60327095D01*
X199576538Y-60350386D01*
X199480325Y-60378185D01*
X199372877Y-60408442D01*
X199261628Y-60439106D01*
X199154011Y-60468126D01*
X199057459Y-60493451D01*
X198979407Y-60513031D01*
X198927288Y-60524814D01*
X198908665Y-60527034D01*
X198902490Y-60506448D01*
X198886232Y-60448179D01*
X198860760Y-60355433D01*
X198826946Y-60231420D01*
X198785657Y-60079347D01*
X198737764Y-59902423D01*
X198684136Y-59703854D01*
X198625643Y-59486851D01*
X198563155Y-59254619D01*
X198501087Y-59023576D01*
X198435772Y-58779866D01*
X198373915Y-58548289D01*
X198316360Y-58332057D01*
X198263952Y-58134381D01*
X198217538Y-57958475D01*
X198177961Y-57807549D01*
X198146069Y-57684817D01*
X198122705Y-57593491D01*
X198108715Y-57536783D01*
X198104875Y-57517903D01*
X198115837Y-57534959D01*
X198146007Y-57585237D01*
X198193396Y-57665312D01*
X198256013Y-57771763D01*
X198331869Y-57901167D01*
X198418974Y-58050100D01*
X198515338Y-58215140D01*
X198618972Y-58392865D01*
X198727886Y-58579851D01*
X198840090Y-58772675D01*
X198953595Y-58967915D01*
X199066410Y-59162148D01*
X199176547Y-59351952D01*
X199282015Y-59533902D01*
X199380825Y-59704577D01*
X199470987Y-59860554D01*
X199550511Y-59998409D01*
X199617408Y-60114721D01*
X199669688Y-60206066D01*
X199705361Y-60269021D01*
X199722437Y-60300164D01*
X199723433Y-60302244D01*
X200005631Y-60302244D01*
X200068505Y-60285374D01*
X200298592Y-60223726D01*
X200538496Y-60159530D01*
X200784828Y-60093688D01*
X201034198Y-60027105D01*
X201283218Y-59960686D01*
X201528499Y-59895334D01*
X201766653Y-59831955D01*
X201994290Y-59771453D01*
X202208023Y-59714731D01*
X202404462Y-59662694D01*
X202580219Y-59616247D01*
X202731904Y-59576294D01*
X202856130Y-59543739D01*
X202949507Y-59519487D01*
X203008647Y-59504442D01*
X203030069Y-59499500D01*
X203037631Y-59520564D01*
X203043608Y-59583401D01*
X203047977Y-59687480D01*
X203050719Y-59832269D01*
X203051813Y-60017239D01*
X203051833Y-60049834D01*
X203121343Y-60049834D01*
X203120743Y-59970412D01*
X203119418Y-59748664D01*
X203118252Y-59502162D01*
X203118020Y-59439043D01*
X202964860Y-59439043D01*
X202964737Y-59444206D01*
X202943455Y-59450728D01*
X202885164Y-59467104D01*
X202793761Y-59492286D01*
X202673145Y-59525230D01*
X202527212Y-59564889D01*
X202359861Y-59610215D01*
X202174988Y-59660165D01*
X201976490Y-59713690D01*
X201768266Y-59769745D01*
X201554213Y-59827283D01*
X201338228Y-59885259D01*
X201124208Y-59942626D01*
X200916052Y-59998338D01*
X200717656Y-60051349D01*
X200532917Y-60100612D01*
X200365734Y-60145081D01*
X200220004Y-60183711D01*
X200099624Y-60215454D01*
X200008492Y-60239265D01*
X199950504Y-60254097D01*
X199929750Y-60258915D01*
X199928358Y-60251659D01*
X199950916Y-60236247D01*
X199975729Y-60222009D01*
X200034257Y-60188320D01*
X200123547Y-60136884D01*
X200240645Y-60069404D01*
X200382598Y-59987581D01*
X200481787Y-59930398D01*
X200360830Y-59930398D01*
X200081790Y-60093512D01*
X199983866Y-60149826D01*
X199898432Y-60197208D01*
X199832271Y-60232034D01*
X199792168Y-60250675D01*
X199783878Y-60252772D01*
X199769352Y-60234181D01*
X199736251Y-60182937D01*
X199687038Y-60103121D01*
X199624172Y-59998819D01*
X199550113Y-59874114D01*
X199467322Y-59733090D01*
X199378259Y-59579830D01*
X199374070Y-59572585D01*
X199272222Y-59396351D01*
X199165924Y-59212355D01*
X199059774Y-59028563D01*
X198958370Y-58852937D01*
X198866312Y-58693442D01*
X198788198Y-58558042D01*
X198751320Y-58494084D01*
X198519507Y-58091917D01*
X199440168Y-59011158D01*
X200360830Y-59930398D01*
X200481787Y-59930398D01*
X200546450Y-59893120D01*
X200729249Y-59787722D01*
X200928041Y-59673090D01*
X201139871Y-59550929D01*
X201361786Y-59422939D01*
X201366684Y-59420114D01*
X201645995Y-59259436D01*
X201896143Y-59116413D01*
X202116224Y-58991544D01*
X202305335Y-58885330D01*
X202462572Y-58798270D01*
X202587033Y-58730865D01*
X202677814Y-58683616D01*
X202734012Y-58657022D01*
X202754687Y-58651519D01*
X202765236Y-58679628D01*
X202783526Y-58739422D01*
X202807525Y-58823241D01*
X202835205Y-58923422D01*
X202864534Y-59032304D01*
X202893482Y-59142223D01*
X202920019Y-59245519D01*
X202942114Y-59334529D01*
X202957738Y-59401591D01*
X202964860Y-59439043D01*
X203118020Y-59439043D01*
X203117261Y-59233419D01*
X203116459Y-58944945D01*
X203115860Y-58639253D01*
X203115481Y-58318853D01*
X203115334Y-57986258D01*
X203115333Y-57953089D01*
X203115333Y-55308500D01*
X203051833Y-55308500D01*
X203050162Y-57377542D01*
X203049709Y-57705884D01*
X203048911Y-58010962D01*
X203047789Y-58290856D01*
X203046360Y-58543647D01*
X203044645Y-58767413D01*
X203042664Y-58960234D01*
X203040435Y-59120191D01*
X203037979Y-59245362D01*
X203035315Y-59333828D01*
X203032463Y-59383669D01*
X203029656Y-59393667D01*
X203021591Y-59366038D01*
X203003372Y-59300394D01*
X202975777Y-59199619D01*
X202939585Y-59066596D01*
X202895574Y-58904207D01*
X202844524Y-58715336D01*
X202805302Y-58569923D01*
X202687887Y-58569923D01*
X202669242Y-58583024D01*
X202617872Y-58614983D01*
X202537718Y-58663497D01*
X202432720Y-58726266D01*
X202306820Y-58800989D01*
X202163958Y-58885363D01*
X202008077Y-58977088D01*
X201843115Y-59073862D01*
X201673016Y-59173384D01*
X201501719Y-59273352D01*
X201333165Y-59371465D01*
X201171296Y-59465421D01*
X201020053Y-59552919D01*
X200883376Y-59631659D01*
X200765207Y-59699337D01*
X200669486Y-59753654D01*
X200600154Y-59792307D01*
X200561153Y-59812995D01*
X200554259Y-59815883D01*
X200566909Y-59801562D01*
X200606990Y-59759900D01*
X200671966Y-59693459D01*
X200759302Y-59604801D01*
X200866463Y-59496489D01*
X200902688Y-59459986D01*
X200754501Y-59459986D01*
X200749011Y-59482699D01*
X200714357Y-59530212D01*
X200653125Y-59599320D01*
X200585609Y-59669143D01*
X200514307Y-59740735D01*
X200455191Y-59800013D01*
X200413892Y-59841335D01*
X200396047Y-59859057D01*
X200395741Y-59859334D01*
X200381152Y-59844838D01*
X200339539Y-59803278D01*
X200273793Y-59737546D01*
X200186804Y-59650532D01*
X200081461Y-59545128D01*
X199960655Y-59424225D01*
X199827275Y-59290715D01*
X199684211Y-59147488D01*
X199675633Y-59138899D01*
X198956083Y-58418465D01*
X199845083Y-58929742D01*
X200022706Y-59032041D01*
X200189331Y-59128286D01*
X200341316Y-59216353D01*
X200475019Y-59294119D01*
X200586797Y-59359460D01*
X200673008Y-59410252D01*
X200730010Y-59444372D01*
X200754160Y-59459696D01*
X200754501Y-59459986D01*
X200902688Y-59459986D01*
X200990913Y-59371084D01*
X201130119Y-59231148D01*
X201281544Y-59079243D01*
X201442654Y-58917933D01*
X201453267Y-58907317D01*
X201615417Y-58745614D01*
X201768787Y-58593596D01*
X201910765Y-58453790D01*
X202038741Y-58328724D01*
X202150103Y-58220923D01*
X202242241Y-58132915D01*
X202312543Y-58067226D01*
X202358398Y-58026383D01*
X202377194Y-58012913D01*
X202377400Y-58013025D01*
X202399067Y-58043085D01*
X202434348Y-58099799D01*
X202478779Y-58175160D01*
X202527895Y-58261158D01*
X202577231Y-58349784D01*
X202622321Y-58433031D01*
X202658701Y-58502890D01*
X202681906Y-58551351D01*
X202687887Y-58569923D01*
X202805302Y-58569923D01*
X202787213Y-58502864D01*
X202758158Y-58394964D01*
X202689117Y-58394964D01*
X202682710Y-58395734D01*
X202670019Y-58375633D01*
X202637841Y-58321741D01*
X202587854Y-58236932D01*
X202521731Y-58124082D01*
X202441151Y-57986063D01*
X202422861Y-57954657D01*
X202299856Y-57954657D01*
X201591171Y-58663579D01*
X201448507Y-58806139D01*
X201315134Y-58939122D01*
X201193999Y-59059608D01*
X201088051Y-59164682D01*
X201000235Y-59251425D01*
X200933499Y-59316921D01*
X200890789Y-59358251D01*
X200875065Y-59372500D01*
X200880363Y-59356195D01*
X200902066Y-59314537D01*
X200920311Y-59282542D01*
X200941990Y-59245268D01*
X200982343Y-59175647D01*
X201038874Y-59077993D01*
X201060340Y-59040885D01*
X200990879Y-59040885D01*
X200983887Y-59061531D01*
X200959621Y-59107988D01*
X200923913Y-59170593D01*
X200882594Y-59239688D01*
X200841498Y-59305609D01*
X200806456Y-59358697D01*
X200783300Y-59389291D01*
X200778220Y-59393151D01*
X200756004Y-59383041D01*
X200701455Y-59354057D01*
X200618847Y-59308591D01*
X200512453Y-59249032D01*
X200386545Y-59177772D01*
X200245396Y-59097200D01*
X200107809Y-59018092D01*
X199957647Y-58931186D01*
X199820069Y-58851025D01*
X199699151Y-58780022D01*
X199598964Y-58720593D01*
X199523583Y-58675154D01*
X199477082Y-58646119D01*
X199463317Y-58635961D01*
X199483992Y-58640079D01*
X199540049Y-58653772D01*
X199625998Y-58675585D01*
X199736350Y-58704063D01*
X199865614Y-58737750D01*
X200008302Y-58775193D01*
X200158923Y-58814934D01*
X200311989Y-58855520D01*
X200462010Y-58895495D01*
X200603496Y-58933404D01*
X200730957Y-58967792D01*
X200838905Y-58997203D01*
X200921849Y-59020183D01*
X200974300Y-59035277D01*
X200990879Y-59040885D01*
X201060340Y-59040885D01*
X201109087Y-58956620D01*
X201190487Y-58815842D01*
X201280579Y-58659974D01*
X201376868Y-58493328D01*
X201431454Y-58398834D01*
X201528268Y-58231475D01*
X201618827Y-58075413D01*
X201700888Y-57934481D01*
X201772206Y-57812508D01*
X201830539Y-57713328D01*
X201873642Y-57640771D01*
X201899270Y-57598669D01*
X201905423Y-57589518D01*
X201925244Y-57597721D01*
X201968311Y-57631290D01*
X202028555Y-57685050D01*
X202099907Y-57753824D01*
X202110385Y-57764305D01*
X202299856Y-57954657D01*
X202422861Y-57954657D01*
X202347787Y-57825749D01*
X202324102Y-57785000D01*
X202246568Y-57785000D01*
X202236815Y-57779932D01*
X202199635Y-57747242D01*
X202137474Y-57689301D01*
X202052781Y-57608478D01*
X202006932Y-57564134D01*
X201841304Y-57564134D01*
X201832592Y-57582849D01*
X201804912Y-57634069D01*
X201760575Y-57713705D01*
X201701891Y-57817663D01*
X201631169Y-57941852D01*
X201550719Y-58082181D01*
X201462852Y-58234557D01*
X201461370Y-58237120D01*
X201373129Y-58389351D01*
X201291701Y-58529143D01*
X201219463Y-58652467D01*
X201158794Y-58755294D01*
X201112069Y-58833596D01*
X201081666Y-58883344D01*
X201069963Y-58900509D01*
X201069937Y-58900493D01*
X201074091Y-58879656D01*
X201088074Y-58822462D01*
X201110713Y-58733431D01*
X201125630Y-58675818D01*
X201062166Y-58675818D01*
X201056223Y-58720180D01*
X201041019Y-58782743D01*
X201020488Y-58851233D01*
X200998568Y-58913377D01*
X200979196Y-58956902D01*
X200967782Y-58970096D01*
X200942204Y-58964749D01*
X200881332Y-58949795D01*
X200790741Y-58926674D01*
X200676003Y-58896822D01*
X200542692Y-58861677D01*
X200398495Y-58823244D01*
X200252881Y-58783920D01*
X200120965Y-58747695D01*
X200008198Y-58716117D01*
X199920034Y-58690729D01*
X199861925Y-58673079D01*
X199839342Y-58664732D01*
X199856535Y-58661717D01*
X199910947Y-58658983D01*
X199997466Y-58656630D01*
X200110978Y-58654760D01*
X200246371Y-58653472D01*
X200398532Y-58652867D01*
X200444805Y-58652834D01*
X200643849Y-58653452D01*
X200802220Y-58655348D01*
X200921564Y-58658583D01*
X201003525Y-58663217D01*
X201049746Y-58669313D01*
X201062166Y-58675818D01*
X201125630Y-58675818D01*
X201140838Y-58617087D01*
X201177278Y-58477950D01*
X201218860Y-58320542D01*
X201264413Y-58149385D01*
X201268551Y-58133900D01*
X201314676Y-57961598D01*
X201357396Y-57802574D01*
X201395477Y-57661369D01*
X201427690Y-57542525D01*
X201452801Y-57450585D01*
X201469581Y-57390090D01*
X201475688Y-57369347D01*
X201414512Y-57369347D01*
X201410328Y-57389723D01*
X201396685Y-57444532D01*
X201375288Y-57527424D01*
X201347840Y-57632051D01*
X201316045Y-57752065D01*
X201281608Y-57881116D01*
X201246232Y-58012857D01*
X201211622Y-58140938D01*
X201179482Y-58259012D01*
X201151516Y-58360729D01*
X201129428Y-58439741D01*
X201114921Y-58489699D01*
X201109791Y-58504589D01*
X201108442Y-58484321D01*
X201107220Y-58426988D01*
X201106171Y-58337859D01*
X201105339Y-58222201D01*
X201104770Y-58085283D01*
X201104511Y-57932375D01*
X201104500Y-57892464D01*
X201104500Y-57298167D01*
X201041000Y-57298167D01*
X201041000Y-58610500D01*
X199749833Y-58610500D01*
X199749833Y-58192366D01*
X199685149Y-58192366D01*
X199684898Y-58332824D01*
X199683852Y-58439738D01*
X199681754Y-58517501D01*
X199678348Y-58570507D01*
X199673379Y-58603148D01*
X199666589Y-58619820D01*
X199657722Y-58624916D01*
X199649291Y-58623708D01*
X199609166Y-58612174D01*
X199544693Y-58593812D01*
X199492551Y-58579031D01*
X199372852Y-58545165D01*
X199433747Y-58318541D01*
X199461265Y-58216260D01*
X199496119Y-58086895D01*
X199534596Y-57944225D01*
X199572979Y-57802032D01*
X199589016Y-57742667D01*
X199683391Y-57393417D01*
X199684862Y-58013968D01*
X199685149Y-58192366D01*
X199749833Y-58192366D01*
X199749833Y-57298167D01*
X201041000Y-57298167D01*
X201104500Y-57298167D01*
X201104500Y-57280262D01*
X201257958Y-57323353D01*
X201331739Y-57344319D01*
X201387018Y-57360501D01*
X201413572Y-57368895D01*
X201414512Y-57369347D01*
X201475688Y-57369347D01*
X201476797Y-57365582D01*
X201476927Y-57365307D01*
X201495223Y-57372728D01*
X201540683Y-57395803D01*
X201603667Y-57429271D01*
X201674533Y-57467873D01*
X201743640Y-57506348D01*
X201801348Y-57539433D01*
X201838014Y-57561870D01*
X201841304Y-57564134D01*
X202006932Y-57564134D01*
X201948005Y-57507143D01*
X201923560Y-57483284D01*
X201813839Y-57483284D01*
X201813583Y-57483203D01*
X201791526Y-57470746D01*
X201736435Y-57439230D01*
X201651951Y-57390748D01*
X201541709Y-57327392D01*
X201472508Y-57287584D01*
X201358500Y-57287584D01*
X201347916Y-57298167D01*
X201337333Y-57287584D01*
X201347916Y-57277000D01*
X201358500Y-57287584D01*
X201472508Y-57287584D01*
X201447321Y-57273095D01*
X201314849Y-57273095D01*
X201312164Y-57276728D01*
X201308462Y-57277000D01*
X201284939Y-57271721D01*
X201225267Y-57256709D01*
X201190180Y-57247653D01*
X200954569Y-57247653D01*
X200936576Y-57249727D01*
X200881397Y-57251607D01*
X200794181Y-57253225D01*
X200680074Y-57254511D01*
X200544225Y-57255396D01*
X200391781Y-57255811D01*
X200346028Y-57255834D01*
X200145049Y-57255102D01*
X199982502Y-57252928D01*
X199859247Y-57249342D01*
X199776145Y-57244372D01*
X199734060Y-57238050D01*
X199728666Y-57234347D01*
X199733707Y-57205956D01*
X199746485Y-57151373D01*
X199763484Y-57084141D01*
X199781187Y-57017805D01*
X199783506Y-57009722D01*
X199722444Y-57009722D01*
X199718933Y-57031105D01*
X199705470Y-57087695D01*
X199683544Y-57174043D01*
X199654645Y-57284696D01*
X199620262Y-57414203D01*
X199581884Y-57557113D01*
X199541000Y-57707974D01*
X199499100Y-57861334D01*
X199457673Y-58011743D01*
X199418207Y-58153748D01*
X199382192Y-58281898D01*
X199351118Y-58390743D01*
X199326474Y-58474829D01*
X199309748Y-58528707D01*
X199302511Y-58546949D01*
X199279525Y-58536955D01*
X199228915Y-58510092D01*
X199159454Y-58471105D01*
X199117223Y-58446699D01*
X199043472Y-58402059D01*
X198986764Y-58364663D01*
X198954858Y-58339793D01*
X198950711Y-58333312D01*
X198963655Y-58309112D01*
X198994604Y-58254327D01*
X199040669Y-58173911D01*
X199098960Y-58072822D01*
X199166588Y-57956013D01*
X199240664Y-57828440D01*
X199318299Y-57695059D01*
X199396603Y-57560825D01*
X199472686Y-57430694D01*
X199543660Y-57309621D01*
X199606635Y-57202561D01*
X199658722Y-57114470D01*
X199697032Y-57050304D01*
X199718675Y-57015017D01*
X199722444Y-57009722D01*
X199783506Y-57009722D01*
X199796077Y-56965910D01*
X199804531Y-56942145D01*
X199825132Y-56945669D01*
X199880239Y-56958688D01*
X199963526Y-56979522D01*
X200068668Y-57006489D01*
X200189337Y-57037911D01*
X200319209Y-57072105D01*
X200451958Y-57107393D01*
X200581258Y-57142093D01*
X200700784Y-57174524D01*
X200804208Y-57203008D01*
X200885206Y-57225862D01*
X200937452Y-57241407D01*
X200954569Y-57247653D01*
X201190180Y-57247653D01*
X201134185Y-57233201D01*
X201016432Y-57202435D01*
X200876745Y-57165649D01*
X200719864Y-57124079D01*
X200568687Y-57083813D01*
X200399940Y-57038576D01*
X200243790Y-56996363D01*
X200105051Y-56958502D01*
X199988536Y-56926321D01*
X199899060Y-56901148D01*
X199841437Y-56884313D01*
X199820877Y-56877438D01*
X199817885Y-56852164D01*
X199841232Y-56794276D01*
X199888908Y-56707319D01*
X199933029Y-56633698D01*
X199968048Y-56577711D01*
X199897143Y-56577711D01*
X199896794Y-56578500D01*
X199880655Y-56607846D01*
X199845959Y-56669184D01*
X199795376Y-56757882D01*
X199731579Y-56869308D01*
X199657240Y-56998829D01*
X199575029Y-57141813D01*
X199487620Y-57293627D01*
X199397683Y-57449638D01*
X199307890Y-57605214D01*
X199220914Y-57755722D01*
X199139425Y-57896531D01*
X199066096Y-58023006D01*
X199003598Y-58130517D01*
X198954604Y-58214429D01*
X198921784Y-58270111D01*
X198909413Y-58290524D01*
X198877334Y-58340965D01*
X198490599Y-57954230D01*
X199207075Y-57239907D01*
X199349040Y-57098893D01*
X199480575Y-56969258D01*
X199598937Y-56853632D01*
X199701384Y-56754646D01*
X199785170Y-56674930D01*
X199847555Y-56617115D01*
X199885793Y-56583832D01*
X199897143Y-56577711D01*
X199968048Y-56577711D01*
X199970525Y-56573752D01*
X199995229Y-56537251D01*
X199999748Y-56531786D01*
X200022190Y-56537393D01*
X200077357Y-56562588D01*
X200161540Y-56605405D01*
X200271030Y-56663877D01*
X200402117Y-56736038D01*
X200551091Y-56819920D01*
X200651383Y-56877280D01*
X200830131Y-56980190D01*
X200975241Y-57064024D01*
X201089845Y-57130687D01*
X201177073Y-57182083D01*
X201240056Y-57220117D01*
X201281926Y-57246694D01*
X201305813Y-57263719D01*
X201314849Y-57273095D01*
X201447321Y-57273095D01*
X201409349Y-57251252D01*
X201258509Y-57164423D01*
X201092827Y-57068994D01*
X200915942Y-56967059D01*
X200903416Y-56959839D01*
X200726553Y-56857854D01*
X200561211Y-56762449D01*
X200410943Y-56675678D01*
X200279300Y-56599594D01*
X200169834Y-56536251D01*
X200086095Y-56487703D01*
X200031637Y-56456005D01*
X200010009Y-56443209D01*
X200009799Y-56443060D01*
X200022152Y-56427444D01*
X200059222Y-56387771D01*
X200115580Y-56329703D01*
X200185794Y-56258902D01*
X200200556Y-56244176D01*
X200349991Y-56095362D01*
X200244659Y-56095362D01*
X200234292Y-56108538D01*
X200196242Y-56148885D01*
X200133009Y-56213893D01*
X200047089Y-56301046D01*
X199940981Y-56407832D01*
X199817184Y-56531738D01*
X199678195Y-56670249D01*
X199526512Y-56820854D01*
X199364634Y-56981038D01*
X199347666Y-56997797D01*
X199183968Y-57159153D01*
X199029174Y-57311127D01*
X198885902Y-57451190D01*
X198756769Y-57576814D01*
X198644389Y-57685470D01*
X198551379Y-57774629D01*
X198480355Y-57841763D01*
X198433934Y-57884342D01*
X198414731Y-57899839D01*
X198414444Y-57899831D01*
X198399967Y-57879812D01*
X198368658Y-57829749D01*
X198324612Y-57756395D01*
X198271926Y-57666507D01*
X198250403Y-57629264D01*
X198196245Y-57533907D01*
X198150641Y-57451160D01*
X198117393Y-57388113D01*
X198100301Y-57351856D01*
X198098833Y-57346616D01*
X198116531Y-57333648D01*
X198167012Y-57301867D01*
X198246359Y-57253557D01*
X198350653Y-57191003D01*
X198475978Y-57116490D01*
X198618414Y-57032302D01*
X198774044Y-56940723D01*
X198938951Y-56844038D01*
X199109215Y-56744532D01*
X199280920Y-56644489D01*
X199450147Y-56546194D01*
X199612979Y-56451931D01*
X199765498Y-56363986D01*
X199903785Y-56284642D01*
X200023923Y-56216184D01*
X200121994Y-56160896D01*
X200194080Y-56121064D01*
X200236264Y-56098971D01*
X200244659Y-56095362D01*
X200349991Y-56095362D01*
X200395930Y-56049614D01*
X201115340Y-56771861D01*
X201257987Y-56915278D01*
X201390377Y-57048783D01*
X201509734Y-57169549D01*
X201613280Y-57274746D01*
X201698240Y-57361547D01*
X201761838Y-57427122D01*
X201801296Y-57468644D01*
X201813839Y-57483284D01*
X201923560Y-57483284D01*
X201825594Y-57387667D01*
X201687997Y-57252419D01*
X201537661Y-57103769D01*
X201377036Y-56944088D01*
X201350613Y-56917742D01*
X201179347Y-56746319D01*
X201020595Y-56586271D01*
X200876586Y-56439913D01*
X200749551Y-56309560D01*
X200641718Y-56197526D01*
X200555318Y-56106128D01*
X200492581Y-56037681D01*
X200455736Y-55994499D01*
X200446609Y-55979091D01*
X200476815Y-55956783D01*
X200533532Y-55921417D01*
X200609009Y-55877228D01*
X200695495Y-55828452D01*
X200785239Y-55779322D01*
X200870491Y-55734073D01*
X200943501Y-55696941D01*
X200993971Y-55673350D01*
X200820239Y-55673350D01*
X200804112Y-55685186D01*
X200754632Y-55715982D01*
X200675237Y-55763757D01*
X200569365Y-55826531D01*
X200440454Y-55902324D01*
X200291943Y-55989155D01*
X200127270Y-56085043D01*
X199949873Y-56188009D01*
X199763190Y-56296073D01*
X199570660Y-56407252D01*
X199375721Y-56519569D01*
X199181812Y-56631041D01*
X198992369Y-56739688D01*
X198810832Y-56843531D01*
X198640639Y-56940588D01*
X198485229Y-57028880D01*
X198348038Y-57106426D01*
X198232507Y-57171245D01*
X198142072Y-57221358D01*
X198080172Y-57254784D01*
X198050246Y-57269542D01*
X198048089Y-57270067D01*
X198036836Y-57248770D01*
X198016989Y-57192997D01*
X197990598Y-57109245D01*
X197959709Y-57004012D01*
X197926528Y-56884377D01*
X197894531Y-56762962D01*
X197867556Y-56655020D01*
X197847199Y-56567409D01*
X197835053Y-56506989D01*
X197832659Y-56480758D01*
X197858105Y-56458390D01*
X197890719Y-56446828D01*
X197918986Y-56439736D01*
X197984718Y-56422562D01*
X198084498Y-56396215D01*
X198214912Y-56361606D01*
X198372542Y-56319645D01*
X198553974Y-56271242D01*
X198755790Y-56217306D01*
X198974574Y-56158749D01*
X199206911Y-56096480D01*
X199376253Y-56051045D01*
X199614698Y-55987177D01*
X199840985Y-55926832D01*
X200051828Y-55870870D01*
X200243938Y-55820151D01*
X200414029Y-55775536D01*
X200558813Y-55737882D01*
X200675004Y-55708052D01*
X200759313Y-55686903D01*
X200808455Y-55675297D01*
X200820239Y-55673350D01*
X200993971Y-55673350D01*
X200996517Y-55672160D01*
X201021789Y-55663964D01*
X201022649Y-55664355D01*
X201035420Y-55684887D01*
X201066967Y-55738138D01*
X201114987Y-55820119D01*
X201177177Y-55926837D01*
X201251233Y-56054302D01*
X201334851Y-56198521D01*
X201425729Y-56355504D01*
X201521561Y-56521260D01*
X201620046Y-56691797D01*
X201718879Y-56863124D01*
X201815756Y-57031249D01*
X201908375Y-57192181D01*
X201994432Y-57341930D01*
X202071622Y-57476503D01*
X202137643Y-57591909D01*
X202190191Y-57684158D01*
X202226962Y-57749257D01*
X202245654Y-57783216D01*
X202246568Y-57785000D01*
X202324102Y-57785000D01*
X202243315Y-57646016D01*
X202129413Y-57449737D01*
X202007754Y-57239787D01*
X201880014Y-57019038D01*
X201874393Y-57009317D01*
X201746573Y-56788108D01*
X201625023Y-56577438D01*
X201511396Y-56380193D01*
X201407345Y-56199258D01*
X201314523Y-56037517D01*
X201234585Y-55897855D01*
X201169184Y-55783158D01*
X201119973Y-55696309D01*
X201098420Y-55657750D01*
X200871666Y-55657750D01*
X200861083Y-55668334D01*
X200850500Y-55657750D01*
X200861083Y-55647167D01*
X200871666Y-55657750D01*
X201098420Y-55657750D01*
X201088606Y-55640195D01*
X201076735Y-55617699D01*
X201076687Y-55617528D01*
X201094984Y-55608063D01*
X201146656Y-55589649D01*
X201224239Y-55564474D01*
X201320268Y-55534726D01*
X201427276Y-55502595D01*
X201537798Y-55470269D01*
X201644369Y-55439938D01*
X201739523Y-55413790D01*
X201815795Y-55394015D01*
X201865719Y-55382801D01*
X201881710Y-55381490D01*
X201887799Y-55401952D01*
X201903935Y-55460075D01*
X201929241Y-55552621D01*
X201962843Y-55676351D01*
X202003866Y-55828025D01*
X202051435Y-56004405D01*
X202104675Y-56202252D01*
X202162712Y-56418326D01*
X202224671Y-56649390D01*
X202279660Y-56854766D01*
X202344545Y-57097224D01*
X202406424Y-57328367D01*
X202464397Y-57544841D01*
X202517565Y-57743292D01*
X202565028Y-57920366D01*
X202605888Y-58072710D01*
X202639246Y-58196969D01*
X202664201Y-58289789D01*
X202679856Y-58347817D01*
X202685121Y-58367084D01*
X202689117Y-58394964D01*
X202758158Y-58394964D01*
X202724420Y-58269675D01*
X202656924Y-58018652D01*
X202585505Y-57752678D01*
X202510939Y-57474635D01*
X202480670Y-57361667D01*
X202405216Y-57080056D01*
X202332730Y-56809655D01*
X202263979Y-56553315D01*
X202199729Y-56313889D01*
X202140748Y-56094229D01*
X202087802Y-55897187D01*
X202041657Y-55725616D01*
X202003080Y-55582368D01*
X201972837Y-55470295D01*
X201951696Y-55392249D01*
X201940421Y-55351083D01*
X201938834Y-55345542D01*
X201937679Y-55334415D01*
X201945144Y-55325763D01*
X201965826Y-55319277D01*
X201967430Y-55319084D01*
X201867915Y-55319084D01*
X199808749Y-55870268D01*
X197749583Y-56421453D01*
X197743934Y-55872390D01*
X197742692Y-55724441D01*
X197742110Y-55591012D01*
X197742169Y-55477768D01*
X197742849Y-55390373D01*
X197744131Y-55334493D01*
X197745803Y-55315808D01*
X197767572Y-55314798D01*
X197828785Y-55313936D01*
X197926554Y-55313226D01*
X198057992Y-55312670D01*
X198220209Y-55312272D01*
X198410316Y-55312034D01*
X198625427Y-55311960D01*
X198862652Y-55312052D01*
X199119102Y-55312313D01*
X199391890Y-55312746D01*
X199678127Y-55313355D01*
X199810618Y-55313687D01*
X201867915Y-55319084D01*
X201967430Y-55319084D01*
X202004320Y-55314647D01*
X202065221Y-55311565D01*
X202153127Y-55309722D01*
X202272631Y-55308808D01*
X202428330Y-55308514D01*
X202489490Y-55308500D01*
X203051833Y-55308500D01*
X203115333Y-55308500D01*
X203115333Y-55263678D01*
X203281080Y-55354881D01*
X203494152Y-55472293D01*
X203723594Y-55599034D01*
X203966927Y-55733716D01*
X204221671Y-55874953D01*
X204485346Y-56021355D01*
X204755472Y-56171536D01*
X205029568Y-56324108D01*
X205305156Y-56477684D01*
X205579756Y-56630875D01*
X205850887Y-56782293D01*
X206116069Y-56930552D01*
X206372823Y-57074264D01*
X206618669Y-57212040D01*
X206851127Y-57342494D01*
X207067717Y-57464237D01*
X207265959Y-57575882D01*
X207443373Y-57676041D01*
X207597479Y-57763327D01*
X207725798Y-57836351D01*
X207825850Y-57893727D01*
X207895154Y-57934066D01*
X207931231Y-57955982D01*
X207936034Y-57959648D01*
X208140500Y-57959648D01*
X208147668Y-57955380D01*
X208158901Y-57947591D01*
X208139052Y-57936484D01*
X208083933Y-57905789D01*
X207995283Y-57856473D01*
X207874842Y-57789502D01*
X207724347Y-57705842D01*
X207545538Y-57606459D01*
X207340154Y-57492319D01*
X207109933Y-57364389D01*
X206856616Y-57223635D01*
X206581939Y-57071023D01*
X206287644Y-56907519D01*
X205975467Y-56734091D01*
X205647149Y-56551703D01*
X205304429Y-56361322D01*
X204949044Y-56163914D01*
X204582735Y-55960446D01*
X204343000Y-55827288D01*
X203969686Y-55619938D01*
X203605670Y-55417751D01*
X203294650Y-55245000D01*
X203083151Y-55245000D01*
X200395200Y-55244932D01*
X197707250Y-55244864D01*
X199040750Y-54503572D01*
X199260006Y-54382033D01*
X199468892Y-54266912D01*
X199664406Y-54159823D01*
X199843546Y-54062376D01*
X200003309Y-53976187D01*
X200140692Y-53902868D01*
X200252693Y-53844033D01*
X200336310Y-53801293D01*
X200388540Y-53776262D01*
X200406000Y-53770111D01*
X200429340Y-53781443D01*
X200486653Y-53811698D01*
X200574915Y-53859221D01*
X200691103Y-53922357D01*
X200832194Y-53999453D01*
X200995166Y-54088852D01*
X201176994Y-54188902D01*
X201374656Y-54297945D01*
X201585129Y-54414329D01*
X201760450Y-54511471D01*
X203083151Y-55245000D01*
X203294650Y-55245000D01*
X203252726Y-55221714D01*
X202912630Y-55032811D01*
X202587156Y-54852029D01*
X202278079Y-54680353D01*
X201987175Y-54518771D01*
X201716217Y-54368266D01*
X201466982Y-54229827D01*
X201241243Y-54104437D01*
X201040776Y-53993083D01*
X200867356Y-53896752D01*
X200722757Y-53816428D01*
X200608755Y-53753098D01*
X200527124Y-53707747D01*
X200479639Y-53681363D01*
X200468181Y-53674992D01*
X200392778Y-53633004D01*
X196594681Y-55742504D01*
G37*
X196594681Y-55742504D02*
X196221164Y-55949969D01*
X195856804Y-56152369D01*
X195503384Y-56348712D01*
X195162690Y-56538004D01*
X194836507Y-56719254D01*
X194526622Y-56891468D01*
X194234820Y-57053654D01*
X193962885Y-57204819D01*
X193712604Y-57343971D01*
X193485762Y-57470116D01*
X193284144Y-57582263D01*
X193109536Y-57679419D01*
X192963724Y-57760591D01*
X192848492Y-57824786D01*
X192765627Y-57871012D01*
X192716913Y-57898276D01*
X192704811Y-57905125D01*
X192613039Y-57958244D01*
X196482482Y-60107920D01*
X196858514Y-60316772D01*
X197224887Y-60520158D01*
X197579870Y-60717119D01*
X197921732Y-60906700D01*
X198248741Y-61087943D01*
X198559166Y-61259890D01*
X198851276Y-61421586D01*
X199123338Y-61572073D01*
X199373622Y-61710394D01*
X199600396Y-61835593D01*
X199801929Y-61946711D01*
X199976489Y-62042792D01*
X200122345Y-62122880D01*
X200237766Y-62186017D01*
X200321019Y-62231246D01*
X200370374Y-62257611D01*
X200384255Y-62264471D01*
X200405627Y-62254998D01*
X200462249Y-62225864D01*
X200552392Y-62178018D01*
X200674329Y-62112409D01*
X200826331Y-62029988D01*
X201006670Y-61931704D01*
X201213620Y-61818507D01*
X201445452Y-61691346D01*
X201700438Y-61551172D01*
X201976851Y-61398933D01*
X202272962Y-61235579D01*
X202587045Y-61062060D01*
X202917370Y-60879327D01*
X203262210Y-60688327D01*
X203287595Y-60674250D01*
X203074365Y-60674250D01*
X201734891Y-61417521D01*
X200395416Y-62160792D01*
X200256398Y-62084271D01*
X200213656Y-62060649D01*
X200137481Y-62018442D01*
X200031441Y-61959633D01*
X199899104Y-61886202D01*
X199744041Y-61800131D01*
X199569819Y-61703399D01*
X199380008Y-61597990D01*
X199178176Y-61485882D01*
X198967893Y-61369058D01*
X198917394Y-61341000D01*
X197717409Y-60674250D01*
X199049478Y-60668801D01*
X199337462Y-60667837D01*
X199657522Y-60667141D01*
X199999399Y-60666714D01*
X200352835Y-60666555D01*
X200707574Y-60666664D01*
X201053358Y-60667042D01*
X201379928Y-60667688D01*
X201677029Y-60668603D01*
X201727955Y-60668801D01*
X203074365Y-60674250D01*
X203287595Y-60674250D01*
X203619838Y-60490011D01*
X203988526Y-60285330D01*
X204295984Y-60114466D01*
X204671858Y-59905397D01*
X205037654Y-59701756D01*
X205391671Y-59504499D01*
X205732207Y-59314579D01*
X206057561Y-59132952D01*
X206366030Y-58960572D01*
X206655913Y-58798394D01*
X206925508Y-58647372D01*
X207173112Y-58508461D01*
X207397025Y-58382615D01*
X207595544Y-58270790D01*
X207766967Y-58173940D01*
X207909593Y-58093019D01*
X208021720Y-58028982D01*
X208101646Y-57982784D01*
X208140500Y-57959648D01*
X207936034Y-57959648D01*
X207917398Y-57971395D01*
X207864407Y-58002209D01*
X207779719Y-58050608D01*
X207665988Y-58115110D01*
X207525874Y-58194232D01*
X207362031Y-58286492D01*
X207177117Y-58390407D01*
X206973787Y-58504497D01*
X206754700Y-58627278D01*
X206522512Y-58757268D01*
X206279878Y-58892984D01*
X206029456Y-59032946D01*
X205773903Y-59175669D01*
X205515875Y-59319673D01*
X205258028Y-59463475D01*
X205003020Y-59605592D01*
X204753507Y-59744543D01*
X204512146Y-59878845D01*
X204281593Y-60007015D01*
X204064505Y-60127573D01*
X203863539Y-60239034D01*
X203681350Y-60339918D01*
X203520597Y-60428742D01*
X203383936Y-60504023D01*
X203274022Y-60564280D01*
X203193513Y-60608030D01*
X203145066Y-60633791D01*
X203131208Y-60640448D01*
X203129239Y-60619959D01*
X203127339Y-60559647D01*
X203125525Y-60462025D01*
X203123811Y-60329605D01*
X203122212Y-60164897D01*
X203121343Y-60049834D01*
X203051833Y-60049834D01*
X203051833Y-60600167D01*
X200993375Y-60598496D01*
X200674167Y-60598051D01*
X200375947Y-60597263D01*
X200100843Y-60596155D01*
X199850984Y-60594749D01*
X199628499Y-60593064D01*
X199435514Y-60591124D01*
X199274160Y-60588949D01*
X199146563Y-60586560D01*
X199054853Y-60583981D01*
X199001158Y-60581231D01*
X198987605Y-60578332D01*
X198987833Y-60578246D01*
X199011656Y-60571240D01*
X198854262Y-60571240D01*
X198851522Y-60580093D01*
X198832899Y-60587004D01*
X198794178Y-60592193D01*
X198731148Y-60595880D01*
X198639596Y-60598288D01*
X198515309Y-60599636D01*
X198354075Y-60600145D01*
X198302181Y-60600167D01*
X197739000Y-60600167D01*
X197739000Y-58532889D01*
X197739083Y-58241235D01*
X197739324Y-57962012D01*
X197739337Y-57953089D01*
X197675500Y-57953089D01*
X197675443Y-58286789D01*
X197675277Y-58608567D01*
X197675008Y-58915909D01*
X197674644Y-59206303D01*
X197674191Y-59477232D01*
X197673656Y-59726184D01*
X197673047Y-59950645D01*
X197672369Y-60148100D01*
X197671631Y-60316036D01*
X197670839Y-60451938D01*
X197669999Y-60553292D01*
X197669119Y-60617585D01*
X197668206Y-60642302D01*
X197668116Y-60642500D01*
X197649059Y-60632417D01*
X197595184Y-60602975D01*
X197508676Y-60555382D01*
X197391718Y-60490847D01*
X197246493Y-60410581D01*
X197075184Y-60315792D01*
X196879976Y-60207689D01*
X196663050Y-60087482D01*
X196426591Y-59956380D01*
X196172782Y-59815592D01*
X195903807Y-59666327D01*
X195621848Y-59509794D01*
X195329090Y-59347204D01*
X195260428Y-59309062D01*
X194965439Y-59145088D01*
X194680783Y-58986666D01*
X194408642Y-58835019D01*
X194151201Y-58691372D01*
X193910642Y-58556949D01*
X193689148Y-58432977D01*
X193488902Y-58320678D01*
X193312087Y-58221277D01*
X193160887Y-58136000D01*
X193037485Y-58066070D01*
X192944063Y-58012713D01*
X192882806Y-57977153D01*
X192855895Y-57960614D01*
X192854795Y-57959635D01*
X192872355Y-57947994D01*
X192924450Y-57917197D01*
X193008599Y-57868633D01*
X193122322Y-57803688D01*
X193263139Y-57723751D01*
X193428570Y-57630210D01*
X193616135Y-57524452D01*
X193823353Y-57407865D01*
X194047744Y-57281837D01*
X194286829Y-57147756D01*
X194538126Y-57007009D01*
X194799157Y-56860985D01*
X195067440Y-56711071D01*
X195340496Y-56558656D01*
X195615845Y-56405125D01*
X195891005Y-56251869D01*
X196163498Y-56100274D01*
X196430843Y-55951728D01*
X196690560Y-55807620D01*
X196940168Y-55669336D01*
X197177189Y-55538265D01*
X197399140Y-55415794D01*
X197509753Y-55354881D01*
X197675500Y-55263678D01*
X197675500Y-57953089D01*
X197739337Y-57953089D01*
X197739711Y-57698070D01*
X197740234Y-57452260D01*
X197740881Y-57227434D01*
X197741640Y-57026443D01*
X197742499Y-56852137D01*
X197743448Y-56707369D01*
X197744474Y-56594989D01*
X197745567Y-56517849D01*
X197746715Y-56478799D01*
X197747291Y-56474431D01*
X197753815Y-56495677D01*
X197770521Y-56555056D01*
X197796661Y-56649805D01*
X197831487Y-56777160D01*
X197874251Y-56934357D01*
X197924202Y-57118631D01*
X197980593Y-57327219D01*
X198042676Y-57557357D01*
X198109701Y-57806280D01*
X198180920Y-58071225D01*
X198255584Y-58349428D01*
X198299372Y-58512782D01*
X198375772Y-58797799D01*
X198449199Y-59071483D01*
X198518898Y-59331036D01*
X198584114Y-59573656D01*
X198644093Y-59796543D01*
X198698079Y-59996897D01*
X198745317Y-60171918D01*
X198785054Y-60318806D01*
X198816533Y-60434761D01*
X198839001Y-60516981D01*
X198851701Y-60562668D01*
X198854262Y-60571240D01*
X199011656Y-60571240D01*
X199017397Y-60569552D01*
X199083887Y-60551073D01*
X199183914Y-60523714D01*
X199314090Y-60488380D01*
X199471026Y-60445974D01*
X199651333Y-60397402D01*
X199851622Y-60343567D01*
X200005631Y-60302244D01*
X199723433Y-60302244D01*
X199705525Y-60310364D01*
X199654082Y-60327095D01*
X199576538Y-60350386D01*
X199480325Y-60378185D01*
X199372877Y-60408442D01*
X199261628Y-60439106D01*
X199154011Y-60468126D01*
X199057459Y-60493451D01*
X198979407Y-60513031D01*
X198927288Y-60524814D01*
X198908665Y-60527034D01*
X198902490Y-60506448D01*
X198886232Y-60448179D01*
X198860760Y-60355433D01*
X198826946Y-60231420D01*
X198785657Y-60079347D01*
X198737764Y-59902423D01*
X198684136Y-59703854D01*
X198625643Y-59486851D01*
X198563155Y-59254619D01*
X198501087Y-59023576D01*
X198435772Y-58779866D01*
X198373915Y-58548289D01*
X198316360Y-58332057D01*
X198263952Y-58134381D01*
X198217538Y-57958475D01*
X198177961Y-57807549D01*
X198146069Y-57684817D01*
X198122705Y-57593491D01*
X198108715Y-57536783D01*
X198104875Y-57517903D01*
X198115837Y-57534959D01*
X198146007Y-57585237D01*
X198193396Y-57665312D01*
X198256013Y-57771763D01*
X198331869Y-57901167D01*
X198418974Y-58050100D01*
X198515338Y-58215140D01*
X198618972Y-58392865D01*
X198727886Y-58579851D01*
X198840090Y-58772675D01*
X198953595Y-58967915D01*
X199066410Y-59162148D01*
X199176547Y-59351952D01*
X199282015Y-59533902D01*
X199380825Y-59704577D01*
X199470987Y-59860554D01*
X199550511Y-59998409D01*
X199617408Y-60114721D01*
X199669688Y-60206066D01*
X199705361Y-60269021D01*
X199722437Y-60300164D01*
X199723433Y-60302244D01*
X200005631Y-60302244D01*
X200068505Y-60285374D01*
X200298592Y-60223726D01*
X200538496Y-60159530D01*
X200784828Y-60093688D01*
X201034198Y-60027105D01*
X201283218Y-59960686D01*
X201528499Y-59895334D01*
X201766653Y-59831955D01*
X201994290Y-59771453D01*
X202208023Y-59714731D01*
X202404462Y-59662694D01*
X202580219Y-59616247D01*
X202731904Y-59576294D01*
X202856130Y-59543739D01*
X202949507Y-59519487D01*
X203008647Y-59504442D01*
X203030069Y-59499500D01*
X203037631Y-59520564D01*
X203043608Y-59583401D01*
X203047977Y-59687480D01*
X203050719Y-59832269D01*
X203051813Y-60017239D01*
X203051833Y-60049834D01*
X203121343Y-60049834D01*
X203120743Y-59970412D01*
X203119418Y-59748664D01*
X203118252Y-59502162D01*
X203118020Y-59439043D01*
X202964860Y-59439043D01*
X202964737Y-59444206D01*
X202943455Y-59450728D01*
X202885164Y-59467104D01*
X202793761Y-59492286D01*
X202673145Y-59525230D01*
X202527212Y-59564889D01*
X202359861Y-59610215D01*
X202174988Y-59660165D01*
X201976490Y-59713690D01*
X201768266Y-59769745D01*
X201554213Y-59827283D01*
X201338228Y-59885259D01*
X201124208Y-59942626D01*
X200916052Y-59998338D01*
X200717656Y-60051349D01*
X200532917Y-60100612D01*
X200365734Y-60145081D01*
X200220004Y-60183711D01*
X200099624Y-60215454D01*
X200008492Y-60239265D01*
X199950504Y-60254097D01*
X199929750Y-60258915D01*
X199928358Y-60251659D01*
X199950916Y-60236247D01*
X199975729Y-60222009D01*
X200034257Y-60188320D01*
X200123547Y-60136884D01*
X200240645Y-60069404D01*
X200382598Y-59987581D01*
X200481787Y-59930398D01*
X200360830Y-59930398D01*
X200081790Y-60093512D01*
X199983866Y-60149826D01*
X199898432Y-60197208D01*
X199832271Y-60232034D01*
X199792168Y-60250675D01*
X199783878Y-60252772D01*
X199769352Y-60234181D01*
X199736251Y-60182937D01*
X199687038Y-60103121D01*
X199624172Y-59998819D01*
X199550113Y-59874114D01*
X199467322Y-59733090D01*
X199378259Y-59579830D01*
X199374070Y-59572585D01*
X199272222Y-59396351D01*
X199165924Y-59212355D01*
X199059774Y-59028563D01*
X198958370Y-58852937D01*
X198866312Y-58693442D01*
X198788198Y-58558042D01*
X198751320Y-58494084D01*
X198519507Y-58091917D01*
X199440168Y-59011158D01*
X200360830Y-59930398D01*
X200481787Y-59930398D01*
X200546450Y-59893120D01*
X200729249Y-59787722D01*
X200928041Y-59673090D01*
X201139871Y-59550929D01*
X201361786Y-59422939D01*
X201366684Y-59420114D01*
X201645995Y-59259436D01*
X201896143Y-59116413D01*
X202116224Y-58991544D01*
X202305335Y-58885330D01*
X202462572Y-58798270D01*
X202587033Y-58730865D01*
X202677814Y-58683616D01*
X202734012Y-58657022D01*
X202754687Y-58651519D01*
X202765236Y-58679628D01*
X202783526Y-58739422D01*
X202807525Y-58823241D01*
X202835205Y-58923422D01*
X202864534Y-59032304D01*
X202893482Y-59142223D01*
X202920019Y-59245519D01*
X202942114Y-59334529D01*
X202957738Y-59401591D01*
X202964860Y-59439043D01*
X203118020Y-59439043D01*
X203117261Y-59233419D01*
X203116459Y-58944945D01*
X203115860Y-58639253D01*
X203115481Y-58318853D01*
X203115334Y-57986258D01*
X203115333Y-57953089D01*
X203115333Y-55308500D01*
X203051833Y-55308500D01*
X203050162Y-57377542D01*
X203049709Y-57705884D01*
X203048911Y-58010962D01*
X203047789Y-58290856D01*
X203046360Y-58543647D01*
X203044645Y-58767413D01*
X203042664Y-58960234D01*
X203040435Y-59120191D01*
X203037979Y-59245362D01*
X203035315Y-59333828D01*
X203032463Y-59383669D01*
X203029656Y-59393667D01*
X203021591Y-59366038D01*
X203003372Y-59300394D01*
X202975777Y-59199619D01*
X202939585Y-59066596D01*
X202895574Y-58904207D01*
X202844524Y-58715336D01*
X202805302Y-58569923D01*
X202687887Y-58569923D01*
X202669242Y-58583024D01*
X202617872Y-58614983D01*
X202537718Y-58663497D01*
X202432720Y-58726266D01*
X202306820Y-58800989D01*
X202163958Y-58885363D01*
X202008077Y-58977088D01*
X201843115Y-59073862D01*
X201673016Y-59173384D01*
X201501719Y-59273352D01*
X201333165Y-59371465D01*
X201171296Y-59465421D01*
X201020053Y-59552919D01*
X200883376Y-59631659D01*
X200765207Y-59699337D01*
X200669486Y-59753654D01*
X200600154Y-59792307D01*
X200561153Y-59812995D01*
X200554259Y-59815883D01*
X200566909Y-59801562D01*
X200606990Y-59759900D01*
X200671966Y-59693459D01*
X200759302Y-59604801D01*
X200866463Y-59496489D01*
X200902688Y-59459986D01*
X200754501Y-59459986D01*
X200749011Y-59482699D01*
X200714357Y-59530212D01*
X200653125Y-59599320D01*
X200585609Y-59669143D01*
X200514307Y-59740735D01*
X200455191Y-59800013D01*
X200413892Y-59841335D01*
X200396047Y-59859057D01*
X200395741Y-59859334D01*
X200381152Y-59844838D01*
X200339539Y-59803278D01*
X200273793Y-59737546D01*
X200186804Y-59650532D01*
X200081461Y-59545128D01*
X199960655Y-59424225D01*
X199827275Y-59290715D01*
X199684211Y-59147488D01*
X199675633Y-59138899D01*
X198956083Y-58418465D01*
X199845083Y-58929742D01*
X200022706Y-59032041D01*
X200189331Y-59128286D01*
X200341316Y-59216353D01*
X200475019Y-59294119D01*
X200586797Y-59359460D01*
X200673008Y-59410252D01*
X200730010Y-59444372D01*
X200754160Y-59459696D01*
X200754501Y-59459986D01*
X200902688Y-59459986D01*
X200990913Y-59371084D01*
X201130119Y-59231148D01*
X201281544Y-59079243D01*
X201442654Y-58917933D01*
X201453267Y-58907317D01*
X201615417Y-58745614D01*
X201768787Y-58593596D01*
X201910765Y-58453790D01*
X202038741Y-58328724D01*
X202150103Y-58220923D01*
X202242241Y-58132915D01*
X202312543Y-58067226D01*
X202358398Y-58026383D01*
X202377194Y-58012913D01*
X202377400Y-58013025D01*
X202399067Y-58043085D01*
X202434348Y-58099799D01*
X202478779Y-58175160D01*
X202527895Y-58261158D01*
X202577231Y-58349784D01*
X202622321Y-58433031D01*
X202658701Y-58502890D01*
X202681906Y-58551351D01*
X202687887Y-58569923D01*
X202805302Y-58569923D01*
X202787213Y-58502864D01*
X202758158Y-58394964D01*
X202689117Y-58394964D01*
X202682710Y-58395734D01*
X202670019Y-58375633D01*
X202637841Y-58321741D01*
X202587854Y-58236932D01*
X202521731Y-58124082D01*
X202441151Y-57986063D01*
X202422861Y-57954657D01*
X202299856Y-57954657D01*
X201591171Y-58663579D01*
X201448507Y-58806139D01*
X201315134Y-58939122D01*
X201193999Y-59059608D01*
X201088051Y-59164682D01*
X201000235Y-59251425D01*
X200933499Y-59316921D01*
X200890789Y-59358251D01*
X200875065Y-59372500D01*
X200880363Y-59356195D01*
X200902066Y-59314537D01*
X200920311Y-59282542D01*
X200941990Y-59245268D01*
X200982343Y-59175647D01*
X201038874Y-59077993D01*
X201060340Y-59040885D01*
X200990879Y-59040885D01*
X200983887Y-59061531D01*
X200959621Y-59107988D01*
X200923913Y-59170593D01*
X200882594Y-59239688D01*
X200841498Y-59305609D01*
X200806456Y-59358697D01*
X200783300Y-59389291D01*
X200778220Y-59393151D01*
X200756004Y-59383041D01*
X200701455Y-59354057D01*
X200618847Y-59308591D01*
X200512453Y-59249032D01*
X200386545Y-59177772D01*
X200245396Y-59097200D01*
X200107809Y-59018092D01*
X199957647Y-58931186D01*
X199820069Y-58851025D01*
X199699151Y-58780022D01*
X199598964Y-58720593D01*
X199523583Y-58675154D01*
X199477082Y-58646119D01*
X199463317Y-58635961D01*
X199483992Y-58640079D01*
X199540049Y-58653772D01*
X199625998Y-58675585D01*
X199736350Y-58704063D01*
X199865614Y-58737750D01*
X200008302Y-58775193D01*
X200158923Y-58814934D01*
X200311989Y-58855520D01*
X200462010Y-58895495D01*
X200603496Y-58933404D01*
X200730957Y-58967792D01*
X200838905Y-58997203D01*
X200921849Y-59020183D01*
X200974300Y-59035277D01*
X200990879Y-59040885D01*
X201060340Y-59040885D01*
X201109087Y-58956620D01*
X201190487Y-58815842D01*
X201280579Y-58659974D01*
X201376868Y-58493328D01*
X201431454Y-58398834D01*
X201528268Y-58231475D01*
X201618827Y-58075413D01*
X201700888Y-57934481D01*
X201772206Y-57812508D01*
X201830539Y-57713328D01*
X201873642Y-57640771D01*
X201899270Y-57598669D01*
X201905423Y-57589518D01*
X201925244Y-57597721D01*
X201968311Y-57631290D01*
X202028555Y-57685050D01*
X202099907Y-57753824D01*
X202110385Y-57764305D01*
X202299856Y-57954657D01*
X202422861Y-57954657D01*
X202347787Y-57825749D01*
X202324102Y-57785000D01*
X202246568Y-57785000D01*
X202236815Y-57779932D01*
X202199635Y-57747242D01*
X202137474Y-57689301D01*
X202052781Y-57608478D01*
X202006932Y-57564134D01*
X201841304Y-57564134D01*
X201832592Y-57582849D01*
X201804912Y-57634069D01*
X201760575Y-57713705D01*
X201701891Y-57817663D01*
X201631169Y-57941852D01*
X201550719Y-58082181D01*
X201462852Y-58234557D01*
X201461370Y-58237120D01*
X201373129Y-58389351D01*
X201291701Y-58529143D01*
X201219463Y-58652467D01*
X201158794Y-58755294D01*
X201112069Y-58833596D01*
X201081666Y-58883344D01*
X201069963Y-58900509D01*
X201069937Y-58900493D01*
X201074091Y-58879656D01*
X201088074Y-58822462D01*
X201110713Y-58733431D01*
X201125630Y-58675818D01*
X201062166Y-58675818D01*
X201056223Y-58720180D01*
X201041019Y-58782743D01*
X201020488Y-58851233D01*
X200998568Y-58913377D01*
X200979196Y-58956902D01*
X200967782Y-58970096D01*
X200942204Y-58964749D01*
X200881332Y-58949795D01*
X200790741Y-58926674D01*
X200676003Y-58896822D01*
X200542692Y-58861677D01*
X200398495Y-58823244D01*
X200252881Y-58783920D01*
X200120965Y-58747695D01*
X200008198Y-58716117D01*
X199920034Y-58690729D01*
X199861925Y-58673079D01*
X199839342Y-58664732D01*
X199856535Y-58661717D01*
X199910947Y-58658983D01*
X199997466Y-58656630D01*
X200110978Y-58654760D01*
X200246371Y-58653472D01*
X200398532Y-58652867D01*
X200444805Y-58652834D01*
X200643849Y-58653452D01*
X200802220Y-58655348D01*
X200921564Y-58658583D01*
X201003525Y-58663217D01*
X201049746Y-58669313D01*
X201062166Y-58675818D01*
X201125630Y-58675818D01*
X201140838Y-58617087D01*
X201177278Y-58477950D01*
X201218860Y-58320542D01*
X201264413Y-58149385D01*
X201268551Y-58133900D01*
X201314676Y-57961598D01*
X201357396Y-57802574D01*
X201395477Y-57661369D01*
X201427690Y-57542525D01*
X201452801Y-57450585D01*
X201469581Y-57390090D01*
X201475688Y-57369347D01*
X201414512Y-57369347D01*
X201410328Y-57389723D01*
X201396685Y-57444532D01*
X201375288Y-57527424D01*
X201347840Y-57632051D01*
X201316045Y-57752065D01*
X201281608Y-57881116D01*
X201246232Y-58012857D01*
X201211622Y-58140938D01*
X201179482Y-58259012D01*
X201151516Y-58360729D01*
X201129428Y-58439741D01*
X201114921Y-58489699D01*
X201109791Y-58504589D01*
X201108442Y-58484321D01*
X201107220Y-58426988D01*
X201106171Y-58337859D01*
X201105339Y-58222201D01*
X201104770Y-58085283D01*
X201104511Y-57932375D01*
X201104500Y-57892464D01*
X201104500Y-57298167D01*
X201041000Y-57298167D01*
X201041000Y-58610500D01*
X199749833Y-58610500D01*
X199749833Y-58192366D01*
X199685149Y-58192366D01*
X199684898Y-58332824D01*
X199683852Y-58439738D01*
X199681754Y-58517501D01*
X199678348Y-58570507D01*
X199673379Y-58603148D01*
X199666589Y-58619820D01*
X199657722Y-58624916D01*
X199649291Y-58623708D01*
X199609166Y-58612174D01*
X199544693Y-58593812D01*
X199492551Y-58579031D01*
X199372852Y-58545165D01*
X199433747Y-58318541D01*
X199461265Y-58216260D01*
X199496119Y-58086895D01*
X199534596Y-57944225D01*
X199572979Y-57802032D01*
X199589016Y-57742667D01*
X199683391Y-57393417D01*
X199684862Y-58013968D01*
X199685149Y-58192366D01*
X199749833Y-58192366D01*
X199749833Y-57298167D01*
X201041000Y-57298167D01*
X201104500Y-57298167D01*
X201104500Y-57280262D01*
X201257958Y-57323353D01*
X201331739Y-57344319D01*
X201387018Y-57360501D01*
X201413572Y-57368895D01*
X201414512Y-57369347D01*
X201475688Y-57369347D01*
X201476797Y-57365582D01*
X201476927Y-57365307D01*
X201495223Y-57372728D01*
X201540683Y-57395803D01*
X201603667Y-57429271D01*
X201674533Y-57467873D01*
X201743640Y-57506348D01*
X201801348Y-57539433D01*
X201838014Y-57561870D01*
X201841304Y-57564134D01*
X202006932Y-57564134D01*
X201948005Y-57507143D01*
X201923560Y-57483284D01*
X201813839Y-57483284D01*
X201813583Y-57483203D01*
X201791526Y-57470746D01*
X201736435Y-57439230D01*
X201651951Y-57390748D01*
X201541709Y-57327392D01*
X201472508Y-57287584D01*
X201358500Y-57287584D01*
X201347916Y-57298167D01*
X201337333Y-57287584D01*
X201347916Y-57277000D01*
X201358500Y-57287584D01*
X201472508Y-57287584D01*
X201447321Y-57273095D01*
X201314849Y-57273095D01*
X201312164Y-57276728D01*
X201308462Y-57277000D01*
X201284939Y-57271721D01*
X201225267Y-57256709D01*
X201190180Y-57247653D01*
X200954569Y-57247653D01*
X200936576Y-57249727D01*
X200881397Y-57251607D01*
X200794181Y-57253225D01*
X200680074Y-57254511D01*
X200544225Y-57255396D01*
X200391781Y-57255811D01*
X200346028Y-57255834D01*
X200145049Y-57255102D01*
X199982502Y-57252928D01*
X199859247Y-57249342D01*
X199776145Y-57244372D01*
X199734060Y-57238050D01*
X199728666Y-57234347D01*
X199733707Y-57205956D01*
X199746485Y-57151373D01*
X199763484Y-57084141D01*
X199781187Y-57017805D01*
X199783506Y-57009722D01*
X199722444Y-57009722D01*
X199718933Y-57031105D01*
X199705470Y-57087695D01*
X199683544Y-57174043D01*
X199654645Y-57284696D01*
X199620262Y-57414203D01*
X199581884Y-57557113D01*
X199541000Y-57707974D01*
X199499100Y-57861334D01*
X199457673Y-58011743D01*
X199418207Y-58153748D01*
X199382192Y-58281898D01*
X199351118Y-58390743D01*
X199326474Y-58474829D01*
X199309748Y-58528707D01*
X199302511Y-58546949D01*
X199279525Y-58536955D01*
X199228915Y-58510092D01*
X199159454Y-58471105D01*
X199117223Y-58446699D01*
X199043472Y-58402059D01*
X198986764Y-58364663D01*
X198954858Y-58339793D01*
X198950711Y-58333312D01*
X198963655Y-58309112D01*
X198994604Y-58254327D01*
X199040669Y-58173911D01*
X199098960Y-58072822D01*
X199166588Y-57956013D01*
X199240664Y-57828440D01*
X199318299Y-57695059D01*
X199396603Y-57560825D01*
X199472686Y-57430694D01*
X199543660Y-57309621D01*
X199606635Y-57202561D01*
X199658722Y-57114470D01*
X199697032Y-57050304D01*
X199718675Y-57015017D01*
X199722444Y-57009722D01*
X199783506Y-57009722D01*
X199796077Y-56965910D01*
X199804531Y-56942145D01*
X199825132Y-56945669D01*
X199880239Y-56958688D01*
X199963526Y-56979522D01*
X200068668Y-57006489D01*
X200189337Y-57037911D01*
X200319209Y-57072105D01*
X200451958Y-57107393D01*
X200581258Y-57142093D01*
X200700784Y-57174524D01*
X200804208Y-57203008D01*
X200885206Y-57225862D01*
X200937452Y-57241407D01*
X200954569Y-57247653D01*
X201190180Y-57247653D01*
X201134185Y-57233201D01*
X201016432Y-57202435D01*
X200876745Y-57165649D01*
X200719864Y-57124079D01*
X200568687Y-57083813D01*
X200399940Y-57038576D01*
X200243790Y-56996363D01*
X200105051Y-56958502D01*
X199988536Y-56926321D01*
X199899060Y-56901148D01*
X199841437Y-56884313D01*
X199820877Y-56877438D01*
X199817885Y-56852164D01*
X199841232Y-56794276D01*
X199888908Y-56707319D01*
X199933029Y-56633698D01*
X199968048Y-56577711D01*
X199897143Y-56577711D01*
X199896794Y-56578500D01*
X199880655Y-56607846D01*
X199845959Y-56669184D01*
X199795376Y-56757882D01*
X199731579Y-56869308D01*
X199657240Y-56998829D01*
X199575029Y-57141813D01*
X199487620Y-57293627D01*
X199397683Y-57449638D01*
X199307890Y-57605214D01*
X199220914Y-57755722D01*
X199139425Y-57896531D01*
X199066096Y-58023006D01*
X199003598Y-58130517D01*
X198954604Y-58214429D01*
X198921784Y-58270111D01*
X198909413Y-58290524D01*
X198877334Y-58340965D01*
X198490599Y-57954230D01*
X199207075Y-57239907D01*
X199349040Y-57098893D01*
X199480575Y-56969258D01*
X199598937Y-56853632D01*
X199701384Y-56754646D01*
X199785170Y-56674930D01*
X199847555Y-56617115D01*
X199885793Y-56583832D01*
X199897143Y-56577711D01*
X199968048Y-56577711D01*
X199970525Y-56573752D01*
X199995229Y-56537251D01*
X199999748Y-56531786D01*
X200022190Y-56537393D01*
X200077357Y-56562588D01*
X200161540Y-56605405D01*
X200271030Y-56663877D01*
X200402117Y-56736038D01*
X200551091Y-56819920D01*
X200651383Y-56877280D01*
X200830131Y-56980190D01*
X200975241Y-57064024D01*
X201089845Y-57130687D01*
X201177073Y-57182083D01*
X201240056Y-57220117D01*
X201281926Y-57246694D01*
X201305813Y-57263719D01*
X201314849Y-57273095D01*
X201447321Y-57273095D01*
X201409349Y-57251252D01*
X201258509Y-57164423D01*
X201092827Y-57068994D01*
X200915942Y-56967059D01*
X200903416Y-56959839D01*
X200726553Y-56857854D01*
X200561211Y-56762449D01*
X200410943Y-56675678D01*
X200279300Y-56599594D01*
X200169834Y-56536251D01*
X200086095Y-56487703D01*
X200031637Y-56456005D01*
X200010009Y-56443209D01*
X200009799Y-56443060D01*
X200022152Y-56427444D01*
X200059222Y-56387771D01*
X200115580Y-56329703D01*
X200185794Y-56258902D01*
X200200556Y-56244176D01*
X200349991Y-56095362D01*
X200244659Y-56095362D01*
X200234292Y-56108538D01*
X200196242Y-56148885D01*
X200133009Y-56213893D01*
X200047089Y-56301046D01*
X199940981Y-56407832D01*
X199817184Y-56531738D01*
X199678195Y-56670249D01*
X199526512Y-56820854D01*
X199364634Y-56981038D01*
X199347666Y-56997797D01*
X199183968Y-57159153D01*
X199029174Y-57311127D01*
X198885902Y-57451190D01*
X198756769Y-57576814D01*
X198644389Y-57685470D01*
X198551379Y-57774629D01*
X198480355Y-57841763D01*
X198433934Y-57884342D01*
X198414731Y-57899839D01*
X198414444Y-57899831D01*
X198399967Y-57879812D01*
X198368658Y-57829749D01*
X198324612Y-57756395D01*
X198271926Y-57666507D01*
X198250403Y-57629264D01*
X198196245Y-57533907D01*
X198150641Y-57451160D01*
X198117393Y-57388113D01*
X198100301Y-57351856D01*
X198098833Y-57346616D01*
X198116531Y-57333648D01*
X198167012Y-57301867D01*
X198246359Y-57253557D01*
X198350653Y-57191003D01*
X198475978Y-57116490D01*
X198618414Y-57032302D01*
X198774044Y-56940723D01*
X198938951Y-56844038D01*
X199109215Y-56744532D01*
X199280920Y-56644489D01*
X199450147Y-56546194D01*
X199612979Y-56451931D01*
X199765498Y-56363986D01*
X199903785Y-56284642D01*
X200023923Y-56216184D01*
X200121994Y-56160896D01*
X200194080Y-56121064D01*
X200236264Y-56098971D01*
X200244659Y-56095362D01*
X200349991Y-56095362D01*
X200395930Y-56049614D01*
X201115340Y-56771861D01*
X201257987Y-56915278D01*
X201390377Y-57048783D01*
X201509734Y-57169549D01*
X201613280Y-57274746D01*
X201698240Y-57361547D01*
X201761838Y-57427122D01*
X201801296Y-57468644D01*
X201813839Y-57483284D01*
X201923560Y-57483284D01*
X201825594Y-57387667D01*
X201687997Y-57252419D01*
X201537661Y-57103769D01*
X201377036Y-56944088D01*
X201350613Y-56917742D01*
X201179347Y-56746319D01*
X201020595Y-56586271D01*
X200876586Y-56439913D01*
X200749551Y-56309560D01*
X200641718Y-56197526D01*
X200555318Y-56106128D01*
X200492581Y-56037681D01*
X200455736Y-55994499D01*
X200446609Y-55979091D01*
X200476815Y-55956783D01*
X200533532Y-55921417D01*
X200609009Y-55877228D01*
X200695495Y-55828452D01*
X200785239Y-55779322D01*
X200870491Y-55734073D01*
X200943501Y-55696941D01*
X200993971Y-55673350D01*
X200820239Y-55673350D01*
X200804112Y-55685186D01*
X200754632Y-55715982D01*
X200675237Y-55763757D01*
X200569365Y-55826531D01*
X200440454Y-55902324D01*
X200291943Y-55989155D01*
X200127270Y-56085043D01*
X199949873Y-56188009D01*
X199763190Y-56296073D01*
X199570660Y-56407252D01*
X199375721Y-56519569D01*
X199181812Y-56631041D01*
X198992369Y-56739688D01*
X198810832Y-56843531D01*
X198640639Y-56940588D01*
X198485229Y-57028880D01*
X198348038Y-57106426D01*
X198232507Y-57171245D01*
X198142072Y-57221358D01*
X198080172Y-57254784D01*
X198050246Y-57269542D01*
X198048089Y-57270067D01*
X198036836Y-57248770D01*
X198016989Y-57192997D01*
X197990598Y-57109245D01*
X197959709Y-57004012D01*
X197926528Y-56884377D01*
X197894531Y-56762962D01*
X197867556Y-56655020D01*
X197847199Y-56567409D01*
X197835053Y-56506989D01*
X197832659Y-56480758D01*
X197858105Y-56458390D01*
X197890719Y-56446828D01*
X197918986Y-56439736D01*
X197984718Y-56422562D01*
X198084498Y-56396215D01*
X198214912Y-56361606D01*
X198372542Y-56319645D01*
X198553974Y-56271242D01*
X198755790Y-56217306D01*
X198974574Y-56158749D01*
X199206911Y-56096480D01*
X199376253Y-56051045D01*
X199614698Y-55987177D01*
X199840985Y-55926832D01*
X200051828Y-55870870D01*
X200243938Y-55820151D01*
X200414029Y-55775536D01*
X200558813Y-55737882D01*
X200675004Y-55708052D01*
X200759313Y-55686903D01*
X200808455Y-55675297D01*
X200820239Y-55673350D01*
X200993971Y-55673350D01*
X200996517Y-55672160D01*
X201021789Y-55663964D01*
X201022649Y-55664355D01*
X201035420Y-55684887D01*
X201066967Y-55738138D01*
X201114987Y-55820119D01*
X201177177Y-55926837D01*
X201251233Y-56054302D01*
X201334851Y-56198521D01*
X201425729Y-56355504D01*
X201521561Y-56521260D01*
X201620046Y-56691797D01*
X201718879Y-56863124D01*
X201815756Y-57031249D01*
X201908375Y-57192181D01*
X201994432Y-57341930D01*
X202071622Y-57476503D01*
X202137643Y-57591909D01*
X202190191Y-57684158D01*
X202226962Y-57749257D01*
X202245654Y-57783216D01*
X202246568Y-57785000D01*
X202324102Y-57785000D01*
X202243315Y-57646016D01*
X202129413Y-57449737D01*
X202007754Y-57239787D01*
X201880014Y-57019038D01*
X201874393Y-57009317D01*
X201746573Y-56788108D01*
X201625023Y-56577438D01*
X201511396Y-56380193D01*
X201407345Y-56199258D01*
X201314523Y-56037517D01*
X201234585Y-55897855D01*
X201169184Y-55783158D01*
X201119973Y-55696309D01*
X201098420Y-55657750D01*
X200871666Y-55657750D01*
X200861083Y-55668334D01*
X200850500Y-55657750D01*
X200861083Y-55647167D01*
X200871666Y-55657750D01*
X201098420Y-55657750D01*
X201088606Y-55640195D01*
X201076735Y-55617699D01*
X201076687Y-55617528D01*
X201094984Y-55608063D01*
X201146656Y-55589649D01*
X201224239Y-55564474D01*
X201320268Y-55534726D01*
X201427276Y-55502595D01*
X201537798Y-55470269D01*
X201644369Y-55439938D01*
X201739523Y-55413790D01*
X201815795Y-55394015D01*
X201865719Y-55382801D01*
X201881710Y-55381490D01*
X201887799Y-55401952D01*
X201903935Y-55460075D01*
X201929241Y-55552621D01*
X201962843Y-55676351D01*
X202003866Y-55828025D01*
X202051435Y-56004405D01*
X202104675Y-56202252D01*
X202162712Y-56418326D01*
X202224671Y-56649390D01*
X202279660Y-56854766D01*
X202344545Y-57097224D01*
X202406424Y-57328367D01*
X202464397Y-57544841D01*
X202517565Y-57743292D01*
X202565028Y-57920366D01*
X202605888Y-58072710D01*
X202639246Y-58196969D01*
X202664201Y-58289789D01*
X202679856Y-58347817D01*
X202685121Y-58367084D01*
X202689117Y-58394964D01*
X202758158Y-58394964D01*
X202724420Y-58269675D01*
X202656924Y-58018652D01*
X202585505Y-57752678D01*
X202510939Y-57474635D01*
X202480670Y-57361667D01*
X202405216Y-57080056D01*
X202332730Y-56809655D01*
X202263979Y-56553315D01*
X202199729Y-56313889D01*
X202140748Y-56094229D01*
X202087802Y-55897187D01*
X202041657Y-55725616D01*
X202003080Y-55582368D01*
X201972837Y-55470295D01*
X201951696Y-55392249D01*
X201940421Y-55351083D01*
X201938834Y-55345542D01*
X201937679Y-55334415D01*
X201945144Y-55325763D01*
X201965826Y-55319277D01*
X201967430Y-55319084D01*
X201867915Y-55319084D01*
X199808749Y-55870268D01*
X197749583Y-56421453D01*
X197743934Y-55872390D01*
X197742692Y-55724441D01*
X197742110Y-55591012D01*
X197742169Y-55477768D01*
X197742849Y-55390373D01*
X197744131Y-55334493D01*
X197745803Y-55315808D01*
X197767572Y-55314798D01*
X197828785Y-55313936D01*
X197926554Y-55313226D01*
X198057992Y-55312670D01*
X198220209Y-55312272D01*
X198410316Y-55312034D01*
X198625427Y-55311960D01*
X198862652Y-55312052D01*
X199119102Y-55312313D01*
X199391890Y-55312746D01*
X199678127Y-55313355D01*
X199810618Y-55313687D01*
X201867915Y-55319084D01*
X201967430Y-55319084D01*
X202004320Y-55314647D01*
X202065221Y-55311565D01*
X202153127Y-55309722D01*
X202272631Y-55308808D01*
X202428330Y-55308514D01*
X202489490Y-55308500D01*
X203051833Y-55308500D01*
X203115333Y-55308500D01*
X203115333Y-55263678D01*
X203281080Y-55354881D01*
X203494152Y-55472293D01*
X203723594Y-55599034D01*
X203966927Y-55733716D01*
X204221671Y-55874953D01*
X204485346Y-56021355D01*
X204755472Y-56171536D01*
X205029568Y-56324108D01*
X205305156Y-56477684D01*
X205579756Y-56630875D01*
X205850887Y-56782293D01*
X206116069Y-56930552D01*
X206372823Y-57074264D01*
X206618669Y-57212040D01*
X206851127Y-57342494D01*
X207067717Y-57464237D01*
X207265959Y-57575882D01*
X207443373Y-57676041D01*
X207597479Y-57763327D01*
X207725798Y-57836351D01*
X207825850Y-57893727D01*
X207895154Y-57934066D01*
X207931231Y-57955982D01*
X207936034Y-57959648D01*
X208140500Y-57959648D01*
X208147668Y-57955380D01*
X208158901Y-57947591D01*
X208139052Y-57936484D01*
X208083933Y-57905789D01*
X207995283Y-57856473D01*
X207874842Y-57789502D01*
X207724347Y-57705842D01*
X207545538Y-57606459D01*
X207340154Y-57492319D01*
X207109933Y-57364389D01*
X206856616Y-57223635D01*
X206581939Y-57071023D01*
X206287644Y-56907519D01*
X205975467Y-56734091D01*
X205647149Y-56551703D01*
X205304429Y-56361322D01*
X204949044Y-56163914D01*
X204582735Y-55960446D01*
X204343000Y-55827288D01*
X203969686Y-55619938D01*
X203605670Y-55417751D01*
X203294650Y-55245000D01*
X203083151Y-55245000D01*
X200395200Y-55244932D01*
X197707250Y-55244864D01*
X199040750Y-54503572D01*
X199260006Y-54382033D01*
X199468892Y-54266912D01*
X199664406Y-54159823D01*
X199843546Y-54062376D01*
X200003309Y-53976187D01*
X200140692Y-53902868D01*
X200252693Y-53844033D01*
X200336310Y-53801293D01*
X200388540Y-53776262D01*
X200406000Y-53770111D01*
X200429340Y-53781443D01*
X200486653Y-53811698D01*
X200574915Y-53859221D01*
X200691103Y-53922357D01*
X200832194Y-53999453D01*
X200995166Y-54088852D01*
X201176994Y-54188902D01*
X201374656Y-54297945D01*
X201585129Y-54414329D01*
X201760450Y-54511471D01*
X203083151Y-55245000D01*
X203294650Y-55245000D01*
X203252726Y-55221714D01*
X202912630Y-55032811D01*
X202587156Y-54852029D01*
X202278079Y-54680353D01*
X201987175Y-54518771D01*
X201716217Y-54368266D01*
X201466982Y-54229827D01*
X201241243Y-54104437D01*
X201040776Y-53993083D01*
X200867356Y-53896752D01*
X200722757Y-53816428D01*
X200608755Y-53753098D01*
X200527124Y-53707747D01*
X200479639Y-53681363D01*
X200468181Y-53674992D01*
X200392778Y-53633004D01*
X196594681Y-55742504D01*
D11*
X186055000Y-58451667D02*
X187325000Y-58451667D01*
X187255000Y-57245000D02*
X187255000Y-58451667D01*
X187135000Y-57245000D02*
X187135000Y-58451667D01*
X187015000Y-57245000D02*
X187015000Y-58451667D01*
X186895000Y-57245000D02*
X186895000Y-58451667D01*
X186775000Y-57245000D02*
X186775000Y-58451667D01*
X186655000Y-57245000D02*
X186655000Y-58451667D01*
X186535000Y-57245000D02*
X186535000Y-58451667D01*
X186415000Y-57245000D02*
X186415000Y-58451667D01*
X186295000Y-57245000D02*
X186295000Y-58451667D01*
X186175000Y-57245000D02*
X186175000Y-58451667D01*
X186055000Y-60865000D02*
X186055000Y-57245000D01*
X187325000Y-60865000D02*
X186055000Y-60865000D01*
X187325000Y-57245000D02*
X187325000Y-60865000D01*
X186055000Y-57245000D02*
X187325000Y-57245000D01*
X183515000Y-58451667D02*
X184785000Y-58451667D01*
X184715000Y-57245000D02*
X184715000Y-58451667D01*
X184595000Y-57245000D02*
X184595000Y-58451667D01*
X184475000Y-57245000D02*
X184475000Y-58451667D01*
X184355000Y-57245000D02*
X184355000Y-58451667D01*
X184235000Y-57245000D02*
X184235000Y-58451667D01*
X184115000Y-57245000D02*
X184115000Y-58451667D01*
X183995000Y-57245000D02*
X183995000Y-58451667D01*
X183875000Y-57245000D02*
X183875000Y-58451667D01*
X183755000Y-57245000D02*
X183755000Y-58451667D01*
X183635000Y-57245000D02*
X183635000Y-58451667D01*
X183515000Y-60865000D02*
X183515000Y-57245000D01*
X184785000Y-60865000D02*
X183515000Y-60865000D01*
X184785000Y-57245000D02*
X184785000Y-60865000D01*
X183515000Y-57245000D02*
X184785000Y-57245000D01*
X181800000Y-55405000D02*
X183110000Y-55405000D01*
X181800000Y-55405000D02*
X181800000Y-56788000D01*
X185140000Y-62466000D02*
X185701000Y-62466000D01*
X182040000Y-62466000D02*
X183160000Y-62466000D01*
X187680000Y-62466000D02*
X188800000Y-62466000D01*
X187680000Y-55645000D02*
X188800000Y-55645000D01*
X185190000Y-55645000D02*
X185701000Y-55645000D01*
X182040000Y-55645000D02*
X183110000Y-55645000D01*
X188800000Y-55645000D02*
X188800000Y-62466000D01*
X182040000Y-55645000D02*
X182040000Y-62466000D01*
X176530000Y-58451667D02*
X177800000Y-58451667D01*
X177730000Y-57245000D02*
X177730000Y-58451667D01*
X177610000Y-57245000D02*
X177610000Y-58451667D01*
X177490000Y-57245000D02*
X177490000Y-58451667D01*
X177370000Y-57245000D02*
X177370000Y-58451667D01*
X177250000Y-57245000D02*
X177250000Y-58451667D01*
X177130000Y-57245000D02*
X177130000Y-58451667D01*
X177010000Y-57245000D02*
X177010000Y-58451667D01*
X176890000Y-57245000D02*
X176890000Y-58451667D01*
X176770000Y-57245000D02*
X176770000Y-58451667D01*
X176650000Y-57245000D02*
X176650000Y-58451667D01*
X176530000Y-60865000D02*
X176530000Y-57245000D01*
X177800000Y-60865000D02*
X176530000Y-60865000D01*
X177800000Y-57245000D02*
X177800000Y-60865000D01*
X176530000Y-57245000D02*
X177800000Y-57245000D01*
X173990000Y-58451667D02*
X175260000Y-58451667D01*
X175190000Y-57245000D02*
X175190000Y-58451667D01*
X175070000Y-57245000D02*
X175070000Y-58451667D01*
X174950000Y-57245000D02*
X174950000Y-58451667D01*
X174830000Y-57245000D02*
X174830000Y-58451667D01*
X174710000Y-57245000D02*
X174710000Y-58451667D01*
X174590000Y-57245000D02*
X174590000Y-58451667D01*
X174470000Y-57245000D02*
X174470000Y-58451667D01*
X174350000Y-57245000D02*
X174350000Y-58451667D01*
X174230000Y-57245000D02*
X174230000Y-58451667D01*
X174110000Y-57245000D02*
X174110000Y-58451667D01*
X173990000Y-60865000D02*
X173990000Y-57245000D01*
X175260000Y-60865000D02*
X173990000Y-60865000D01*
X175260000Y-57245000D02*
X175260000Y-60865000D01*
X173990000Y-57245000D02*
X175260000Y-57245000D01*
X172275000Y-55405000D02*
X173585000Y-55405000D01*
X172275000Y-55405000D02*
X172275000Y-56788000D01*
X175615000Y-62466000D02*
X176176000Y-62466000D01*
X172515000Y-62466000D02*
X173635000Y-62466000D01*
X178155000Y-62466000D02*
X179275000Y-62466000D01*
X178155000Y-55645000D02*
X179275000Y-55645000D01*
X175665000Y-55645000D02*
X176176000Y-55645000D01*
X172515000Y-55645000D02*
X173585000Y-55645000D01*
X179275000Y-55645000D02*
X179275000Y-62466000D01*
X172515000Y-55645000D02*
X172515000Y-62466000D01*
D10*
X162488571Y-70969285D02*
X162536190Y-71112142D01*
X162583809Y-71159761D01*
X162679047Y-71207380D01*
X162821904Y-71207380D01*
X162917142Y-71159761D01*
X162964761Y-71112142D01*
X163012380Y-71016904D01*
X163012380Y-70635952D01*
X162012380Y-70635952D01*
X162012380Y-70969285D01*
X162060000Y-71064523D01*
X162107619Y-71112142D01*
X162202857Y-71159761D01*
X162298095Y-71159761D01*
X162393333Y-71112142D01*
X162440952Y-71064523D01*
X162488571Y-70969285D01*
X162488571Y-70635952D01*
X162012380Y-71493095D02*
X162012380Y-72064523D01*
X163012380Y-71778809D02*
X162012380Y-71778809D01*
X163012380Y-72921666D02*
X163012380Y-72350238D01*
X163012380Y-72635952D02*
X162012380Y-72635952D01*
X162155238Y-72540714D01*
X162250476Y-72445476D01*
X162298095Y-72350238D01*
X187817142Y-67373571D02*
X187817142Y-68516428D01*
X172827142Y-67373571D02*
X172827142Y-68516428D01*
X173398571Y-67945000D02*
X172255714Y-67945000D01*
X187817142Y-87538571D02*
X187817142Y-88681428D01*
X187817142Y-109128571D02*
X187817142Y-110271428D01*
X188388571Y-109700000D02*
X187245714Y-109700000D01*
X172827142Y-87538571D02*
X172827142Y-88681428D01*
X173398571Y-88110000D02*
X172255714Y-88110000D01*
X172827142Y-109128571D02*
X172827142Y-110271428D01*
X182490714Y-46918571D02*
X182157380Y-46918571D01*
X182014523Y-47442380D02*
X182490714Y-47442380D01*
X182490714Y-46442380D01*
X182014523Y-46442380D01*
X181681190Y-46442380D02*
X181014523Y-47442380D01*
X181014523Y-46442380D02*
X181681190Y-47442380D01*
X180633571Y-47442380D02*
X180633571Y-46442380D01*
X180252619Y-46442380D01*
X180157380Y-46490000D01*
X180109761Y-46537619D01*
X180062142Y-46632857D01*
X180062142Y-46775714D01*
X180109761Y-46870952D01*
X180157380Y-46918571D01*
X180252619Y-46966190D01*
X180633571Y-46966190D01*
X179871666Y-47537619D02*
X179109761Y-47537619D01*
X178919285Y-47394761D02*
X178776428Y-47442380D01*
X178538333Y-47442380D01*
X178443095Y-47394761D01*
X178395476Y-47347142D01*
X178347857Y-47251904D01*
X178347857Y-47156666D01*
X178395476Y-47061428D01*
X178443095Y-47013809D01*
X178538333Y-46966190D01*
X178728809Y-46918571D01*
X178824047Y-46870952D01*
X178871666Y-46823333D01*
X178919285Y-46728095D01*
X178919285Y-46632857D01*
X178871666Y-46537619D01*
X178824047Y-46490000D01*
X178728809Y-46442380D01*
X178490714Y-46442380D01*
X178347857Y-46490000D01*
X177919285Y-47442380D02*
X177919285Y-46442380D01*
X177538333Y-46442380D01*
X177443095Y-46490000D01*
X177395476Y-46537619D01*
X177347857Y-46632857D01*
X177347857Y-46775714D01*
X177395476Y-46870952D01*
X177443095Y-46918571D01*
X177538333Y-46966190D01*
X177919285Y-46966190D01*
X176919285Y-47442380D02*
X176919285Y-46442380D01*
X181444761Y-57721666D02*
X181492380Y-57864523D01*
X181492380Y-58102619D01*
X181444761Y-58197857D01*
X181397142Y-58245476D01*
X181301904Y-58293095D01*
X181206666Y-58293095D01*
X181111428Y-58245476D01*
X181063809Y-58197857D01*
X181016190Y-58102619D01*
X180968571Y-57912142D01*
X180920952Y-57816904D01*
X180873333Y-57769285D01*
X180778095Y-57721666D01*
X180682857Y-57721666D01*
X180587619Y-57769285D01*
X180540000Y-57816904D01*
X180492380Y-57912142D01*
X180492380Y-58150238D01*
X180540000Y-58293095D01*
X180492380Y-58626428D02*
X181492380Y-58864523D01*
X180778095Y-59055000D01*
X181492380Y-59245476D01*
X180492380Y-59483571D01*
X180587619Y-59816904D02*
X180540000Y-59864523D01*
X180492380Y-59959761D01*
X180492380Y-60197857D01*
X180540000Y-60293095D01*
X180587619Y-60340714D01*
X180682857Y-60388333D01*
X180778095Y-60388333D01*
X180920952Y-60340714D01*
X181492380Y-59769285D01*
X181492380Y-60388333D01*
X171919761Y-57721666D02*
X171967380Y-57864523D01*
X171967380Y-58102619D01*
X171919761Y-58197857D01*
X171872142Y-58245476D01*
X171776904Y-58293095D01*
X171681666Y-58293095D01*
X171586428Y-58245476D01*
X171538809Y-58197857D01*
X171491190Y-58102619D01*
X171443571Y-57912142D01*
X171395952Y-57816904D01*
X171348333Y-57769285D01*
X171253095Y-57721666D01*
X171157857Y-57721666D01*
X171062619Y-57769285D01*
X171015000Y-57816904D01*
X170967380Y-57912142D01*
X170967380Y-58150238D01*
X171015000Y-58293095D01*
X170967380Y-58626428D02*
X171967380Y-58864523D01*
X171253095Y-59055000D01*
X171967380Y-59245476D01*
X170967380Y-59483571D01*
X171967380Y-60388333D02*
X171967380Y-59816904D01*
X171967380Y-60102619D02*
X170967380Y-60102619D01*
X171110238Y-60007380D01*
X171205476Y-59912142D01*
X171253095Y-59816904D01*
M02*
