G04 #@! TF.GenerationSoftware,KiCad,Pcbnew,5.1.5+dfsg1-2build2*
G04 #@! TF.CreationDate,2023-01-01T14:21:45-04:00*
G04 #@! TF.ProjectId,prototyping_backplane,70726f74-6f74-4797-9069-6e675f626163,B*
G04 #@! TF.SameCoordinates,Original*
G04 #@! TF.FileFunction,Paste,Top*
G04 #@! TF.FilePolarity,Positive*
%FSLAX46Y46*%
G04 Gerber Fmt 4.6, Leading zero omitted, Abs format (unit mm)*
G04 Created by KiCad (PCBNEW 5.1.5+dfsg1-2build2) date 2023-01-01 14:21:45*
%MOMM*%
%LPD*%
G04 APERTURE LIST*
%ADD10C,0.100000*%
G04 APERTURE END LIST*
D10*
G36*
X185772351Y-78355361D02*
G01*
X185779632Y-78356441D01*
X185786771Y-78358229D01*
X185793701Y-78360709D01*
X185800355Y-78363856D01*
X185806668Y-78367640D01*
X185812579Y-78372024D01*
X185818033Y-78376967D01*
X185822976Y-78382421D01*
X185827360Y-78388332D01*
X185831144Y-78394645D01*
X185834291Y-78401299D01*
X185836771Y-78408229D01*
X185838559Y-78415368D01*
X185839639Y-78422649D01*
X185840000Y-78430000D01*
X185840000Y-79730000D01*
X185839639Y-79737351D01*
X185838559Y-79744632D01*
X185836771Y-79751771D01*
X185834291Y-79758701D01*
X185831144Y-79765355D01*
X185827360Y-79771668D01*
X185822976Y-79777579D01*
X185818033Y-79783033D01*
X185812579Y-79787976D01*
X185806668Y-79792360D01*
X185800355Y-79796144D01*
X185793701Y-79799291D01*
X185786771Y-79801771D01*
X185779632Y-79803559D01*
X185772351Y-79804639D01*
X185765000Y-79805000D01*
X185615000Y-79805000D01*
X185607649Y-79804639D01*
X185600368Y-79803559D01*
X185593229Y-79801771D01*
X185586299Y-79799291D01*
X185579645Y-79796144D01*
X185573332Y-79792360D01*
X185567421Y-79787976D01*
X185561967Y-79783033D01*
X185557024Y-79777579D01*
X185552640Y-79771668D01*
X185548856Y-79765355D01*
X185545709Y-79758701D01*
X185543229Y-79751771D01*
X185541441Y-79744632D01*
X185540361Y-79737351D01*
X185540000Y-79730000D01*
X185540000Y-78430000D01*
X185540361Y-78422649D01*
X185541441Y-78415368D01*
X185543229Y-78408229D01*
X185545709Y-78401299D01*
X185548856Y-78394645D01*
X185552640Y-78388332D01*
X185557024Y-78382421D01*
X185561967Y-78376967D01*
X185567421Y-78372024D01*
X185573332Y-78367640D01*
X185579645Y-78363856D01*
X185586299Y-78360709D01*
X185593229Y-78358229D01*
X185600368Y-78356441D01*
X185607649Y-78355361D01*
X185615000Y-78355000D01*
X185765000Y-78355000D01*
X185772351Y-78355361D01*
G37*
G36*
X186272351Y-78355361D02*
G01*
X186279632Y-78356441D01*
X186286771Y-78358229D01*
X186293701Y-78360709D01*
X186300355Y-78363856D01*
X186306668Y-78367640D01*
X186312579Y-78372024D01*
X186318033Y-78376967D01*
X186322976Y-78382421D01*
X186327360Y-78388332D01*
X186331144Y-78394645D01*
X186334291Y-78401299D01*
X186336771Y-78408229D01*
X186338559Y-78415368D01*
X186339639Y-78422649D01*
X186340000Y-78430000D01*
X186340000Y-79730000D01*
X186339639Y-79737351D01*
X186338559Y-79744632D01*
X186336771Y-79751771D01*
X186334291Y-79758701D01*
X186331144Y-79765355D01*
X186327360Y-79771668D01*
X186322976Y-79777579D01*
X186318033Y-79783033D01*
X186312579Y-79787976D01*
X186306668Y-79792360D01*
X186300355Y-79796144D01*
X186293701Y-79799291D01*
X186286771Y-79801771D01*
X186279632Y-79803559D01*
X186272351Y-79804639D01*
X186265000Y-79805000D01*
X186115000Y-79805000D01*
X186107649Y-79804639D01*
X186100368Y-79803559D01*
X186093229Y-79801771D01*
X186086299Y-79799291D01*
X186079645Y-79796144D01*
X186073332Y-79792360D01*
X186067421Y-79787976D01*
X186061967Y-79783033D01*
X186057024Y-79777579D01*
X186052640Y-79771668D01*
X186048856Y-79765355D01*
X186045709Y-79758701D01*
X186043229Y-79751771D01*
X186041441Y-79744632D01*
X186040361Y-79737351D01*
X186040000Y-79730000D01*
X186040000Y-78430000D01*
X186040361Y-78422649D01*
X186041441Y-78415368D01*
X186043229Y-78408229D01*
X186045709Y-78401299D01*
X186048856Y-78394645D01*
X186052640Y-78388332D01*
X186057024Y-78382421D01*
X186061967Y-78376967D01*
X186067421Y-78372024D01*
X186073332Y-78367640D01*
X186079645Y-78363856D01*
X186086299Y-78360709D01*
X186093229Y-78358229D01*
X186100368Y-78356441D01*
X186107649Y-78355361D01*
X186115000Y-78355000D01*
X186265000Y-78355000D01*
X186272351Y-78355361D01*
G37*
G36*
X186772351Y-78355361D02*
G01*
X186779632Y-78356441D01*
X186786771Y-78358229D01*
X186793701Y-78360709D01*
X186800355Y-78363856D01*
X186806668Y-78367640D01*
X186812579Y-78372024D01*
X186818033Y-78376967D01*
X186822976Y-78382421D01*
X186827360Y-78388332D01*
X186831144Y-78394645D01*
X186834291Y-78401299D01*
X186836771Y-78408229D01*
X186838559Y-78415368D01*
X186839639Y-78422649D01*
X186840000Y-78430000D01*
X186840000Y-79730000D01*
X186839639Y-79737351D01*
X186838559Y-79744632D01*
X186836771Y-79751771D01*
X186834291Y-79758701D01*
X186831144Y-79765355D01*
X186827360Y-79771668D01*
X186822976Y-79777579D01*
X186818033Y-79783033D01*
X186812579Y-79787976D01*
X186806668Y-79792360D01*
X186800355Y-79796144D01*
X186793701Y-79799291D01*
X186786771Y-79801771D01*
X186779632Y-79803559D01*
X186772351Y-79804639D01*
X186765000Y-79805000D01*
X186615000Y-79805000D01*
X186607649Y-79804639D01*
X186600368Y-79803559D01*
X186593229Y-79801771D01*
X186586299Y-79799291D01*
X186579645Y-79796144D01*
X186573332Y-79792360D01*
X186567421Y-79787976D01*
X186561967Y-79783033D01*
X186557024Y-79777579D01*
X186552640Y-79771668D01*
X186548856Y-79765355D01*
X186545709Y-79758701D01*
X186543229Y-79751771D01*
X186541441Y-79744632D01*
X186540361Y-79737351D01*
X186540000Y-79730000D01*
X186540000Y-78430000D01*
X186540361Y-78422649D01*
X186541441Y-78415368D01*
X186543229Y-78408229D01*
X186545709Y-78401299D01*
X186548856Y-78394645D01*
X186552640Y-78388332D01*
X186557024Y-78382421D01*
X186561967Y-78376967D01*
X186567421Y-78372024D01*
X186573332Y-78367640D01*
X186579645Y-78363856D01*
X186586299Y-78360709D01*
X186593229Y-78358229D01*
X186600368Y-78356441D01*
X186607649Y-78355361D01*
X186615000Y-78355000D01*
X186765000Y-78355000D01*
X186772351Y-78355361D01*
G37*
G36*
X187272351Y-78355361D02*
G01*
X187279632Y-78356441D01*
X187286771Y-78358229D01*
X187293701Y-78360709D01*
X187300355Y-78363856D01*
X187306668Y-78367640D01*
X187312579Y-78372024D01*
X187318033Y-78376967D01*
X187322976Y-78382421D01*
X187327360Y-78388332D01*
X187331144Y-78394645D01*
X187334291Y-78401299D01*
X187336771Y-78408229D01*
X187338559Y-78415368D01*
X187339639Y-78422649D01*
X187340000Y-78430000D01*
X187340000Y-79730000D01*
X187339639Y-79737351D01*
X187338559Y-79744632D01*
X187336771Y-79751771D01*
X187334291Y-79758701D01*
X187331144Y-79765355D01*
X187327360Y-79771668D01*
X187322976Y-79777579D01*
X187318033Y-79783033D01*
X187312579Y-79787976D01*
X187306668Y-79792360D01*
X187300355Y-79796144D01*
X187293701Y-79799291D01*
X187286771Y-79801771D01*
X187279632Y-79803559D01*
X187272351Y-79804639D01*
X187265000Y-79805000D01*
X187115000Y-79805000D01*
X187107649Y-79804639D01*
X187100368Y-79803559D01*
X187093229Y-79801771D01*
X187086299Y-79799291D01*
X187079645Y-79796144D01*
X187073332Y-79792360D01*
X187067421Y-79787976D01*
X187061967Y-79783033D01*
X187057024Y-79777579D01*
X187052640Y-79771668D01*
X187048856Y-79765355D01*
X187045709Y-79758701D01*
X187043229Y-79751771D01*
X187041441Y-79744632D01*
X187040361Y-79737351D01*
X187040000Y-79730000D01*
X187040000Y-78430000D01*
X187040361Y-78422649D01*
X187041441Y-78415368D01*
X187043229Y-78408229D01*
X187045709Y-78401299D01*
X187048856Y-78394645D01*
X187052640Y-78388332D01*
X187057024Y-78382421D01*
X187061967Y-78376967D01*
X187067421Y-78372024D01*
X187073332Y-78367640D01*
X187079645Y-78363856D01*
X187086299Y-78360709D01*
X187093229Y-78358229D01*
X187100368Y-78356441D01*
X187107649Y-78355361D01*
X187115000Y-78355000D01*
X187265000Y-78355000D01*
X187272351Y-78355361D01*
G37*
G36*
X187772351Y-78355361D02*
G01*
X187779632Y-78356441D01*
X187786771Y-78358229D01*
X187793701Y-78360709D01*
X187800355Y-78363856D01*
X187806668Y-78367640D01*
X187812579Y-78372024D01*
X187818033Y-78376967D01*
X187822976Y-78382421D01*
X187827360Y-78388332D01*
X187831144Y-78394645D01*
X187834291Y-78401299D01*
X187836771Y-78408229D01*
X187838559Y-78415368D01*
X187839639Y-78422649D01*
X187840000Y-78430000D01*
X187840000Y-79730000D01*
X187839639Y-79737351D01*
X187838559Y-79744632D01*
X187836771Y-79751771D01*
X187834291Y-79758701D01*
X187831144Y-79765355D01*
X187827360Y-79771668D01*
X187822976Y-79777579D01*
X187818033Y-79783033D01*
X187812579Y-79787976D01*
X187806668Y-79792360D01*
X187800355Y-79796144D01*
X187793701Y-79799291D01*
X187786771Y-79801771D01*
X187779632Y-79803559D01*
X187772351Y-79804639D01*
X187765000Y-79805000D01*
X187615000Y-79805000D01*
X187607649Y-79804639D01*
X187600368Y-79803559D01*
X187593229Y-79801771D01*
X187586299Y-79799291D01*
X187579645Y-79796144D01*
X187573332Y-79792360D01*
X187567421Y-79787976D01*
X187561967Y-79783033D01*
X187557024Y-79777579D01*
X187552640Y-79771668D01*
X187548856Y-79765355D01*
X187545709Y-79758701D01*
X187543229Y-79751771D01*
X187541441Y-79744632D01*
X187540361Y-79737351D01*
X187540000Y-79730000D01*
X187540000Y-78430000D01*
X187540361Y-78422649D01*
X187541441Y-78415368D01*
X187543229Y-78408229D01*
X187545709Y-78401299D01*
X187548856Y-78394645D01*
X187552640Y-78388332D01*
X187557024Y-78382421D01*
X187561967Y-78376967D01*
X187567421Y-78372024D01*
X187573332Y-78367640D01*
X187579645Y-78363856D01*
X187586299Y-78360709D01*
X187593229Y-78358229D01*
X187600368Y-78356441D01*
X187607649Y-78355361D01*
X187615000Y-78355000D01*
X187765000Y-78355000D01*
X187772351Y-78355361D01*
G37*
G36*
X187772351Y-82755361D02*
G01*
X187779632Y-82756441D01*
X187786771Y-82758229D01*
X187793701Y-82760709D01*
X187800355Y-82763856D01*
X187806668Y-82767640D01*
X187812579Y-82772024D01*
X187818033Y-82776967D01*
X187822976Y-82782421D01*
X187827360Y-82788332D01*
X187831144Y-82794645D01*
X187834291Y-82801299D01*
X187836771Y-82808229D01*
X187838559Y-82815368D01*
X187839639Y-82822649D01*
X187840000Y-82830000D01*
X187840000Y-84130000D01*
X187839639Y-84137351D01*
X187838559Y-84144632D01*
X187836771Y-84151771D01*
X187834291Y-84158701D01*
X187831144Y-84165355D01*
X187827360Y-84171668D01*
X187822976Y-84177579D01*
X187818033Y-84183033D01*
X187812579Y-84187976D01*
X187806668Y-84192360D01*
X187800355Y-84196144D01*
X187793701Y-84199291D01*
X187786771Y-84201771D01*
X187779632Y-84203559D01*
X187772351Y-84204639D01*
X187765000Y-84205000D01*
X187615000Y-84205000D01*
X187607649Y-84204639D01*
X187600368Y-84203559D01*
X187593229Y-84201771D01*
X187586299Y-84199291D01*
X187579645Y-84196144D01*
X187573332Y-84192360D01*
X187567421Y-84187976D01*
X187561967Y-84183033D01*
X187557024Y-84177579D01*
X187552640Y-84171668D01*
X187548856Y-84165355D01*
X187545709Y-84158701D01*
X187543229Y-84151771D01*
X187541441Y-84144632D01*
X187540361Y-84137351D01*
X187540000Y-84130000D01*
X187540000Y-82830000D01*
X187540361Y-82822649D01*
X187541441Y-82815368D01*
X187543229Y-82808229D01*
X187545709Y-82801299D01*
X187548856Y-82794645D01*
X187552640Y-82788332D01*
X187557024Y-82782421D01*
X187561967Y-82776967D01*
X187567421Y-82772024D01*
X187573332Y-82767640D01*
X187579645Y-82763856D01*
X187586299Y-82760709D01*
X187593229Y-82758229D01*
X187600368Y-82756441D01*
X187607649Y-82755361D01*
X187615000Y-82755000D01*
X187765000Y-82755000D01*
X187772351Y-82755361D01*
G37*
G36*
X187272351Y-82755361D02*
G01*
X187279632Y-82756441D01*
X187286771Y-82758229D01*
X187293701Y-82760709D01*
X187300355Y-82763856D01*
X187306668Y-82767640D01*
X187312579Y-82772024D01*
X187318033Y-82776967D01*
X187322976Y-82782421D01*
X187327360Y-82788332D01*
X187331144Y-82794645D01*
X187334291Y-82801299D01*
X187336771Y-82808229D01*
X187338559Y-82815368D01*
X187339639Y-82822649D01*
X187340000Y-82830000D01*
X187340000Y-84130000D01*
X187339639Y-84137351D01*
X187338559Y-84144632D01*
X187336771Y-84151771D01*
X187334291Y-84158701D01*
X187331144Y-84165355D01*
X187327360Y-84171668D01*
X187322976Y-84177579D01*
X187318033Y-84183033D01*
X187312579Y-84187976D01*
X187306668Y-84192360D01*
X187300355Y-84196144D01*
X187293701Y-84199291D01*
X187286771Y-84201771D01*
X187279632Y-84203559D01*
X187272351Y-84204639D01*
X187265000Y-84205000D01*
X187115000Y-84205000D01*
X187107649Y-84204639D01*
X187100368Y-84203559D01*
X187093229Y-84201771D01*
X187086299Y-84199291D01*
X187079645Y-84196144D01*
X187073332Y-84192360D01*
X187067421Y-84187976D01*
X187061967Y-84183033D01*
X187057024Y-84177579D01*
X187052640Y-84171668D01*
X187048856Y-84165355D01*
X187045709Y-84158701D01*
X187043229Y-84151771D01*
X187041441Y-84144632D01*
X187040361Y-84137351D01*
X187040000Y-84130000D01*
X187040000Y-82830000D01*
X187040361Y-82822649D01*
X187041441Y-82815368D01*
X187043229Y-82808229D01*
X187045709Y-82801299D01*
X187048856Y-82794645D01*
X187052640Y-82788332D01*
X187057024Y-82782421D01*
X187061967Y-82776967D01*
X187067421Y-82772024D01*
X187073332Y-82767640D01*
X187079645Y-82763856D01*
X187086299Y-82760709D01*
X187093229Y-82758229D01*
X187100368Y-82756441D01*
X187107649Y-82755361D01*
X187115000Y-82755000D01*
X187265000Y-82755000D01*
X187272351Y-82755361D01*
G37*
G36*
X186772351Y-82755361D02*
G01*
X186779632Y-82756441D01*
X186786771Y-82758229D01*
X186793701Y-82760709D01*
X186800355Y-82763856D01*
X186806668Y-82767640D01*
X186812579Y-82772024D01*
X186818033Y-82776967D01*
X186822976Y-82782421D01*
X186827360Y-82788332D01*
X186831144Y-82794645D01*
X186834291Y-82801299D01*
X186836771Y-82808229D01*
X186838559Y-82815368D01*
X186839639Y-82822649D01*
X186840000Y-82830000D01*
X186840000Y-84130000D01*
X186839639Y-84137351D01*
X186838559Y-84144632D01*
X186836771Y-84151771D01*
X186834291Y-84158701D01*
X186831144Y-84165355D01*
X186827360Y-84171668D01*
X186822976Y-84177579D01*
X186818033Y-84183033D01*
X186812579Y-84187976D01*
X186806668Y-84192360D01*
X186800355Y-84196144D01*
X186793701Y-84199291D01*
X186786771Y-84201771D01*
X186779632Y-84203559D01*
X186772351Y-84204639D01*
X186765000Y-84205000D01*
X186615000Y-84205000D01*
X186607649Y-84204639D01*
X186600368Y-84203559D01*
X186593229Y-84201771D01*
X186586299Y-84199291D01*
X186579645Y-84196144D01*
X186573332Y-84192360D01*
X186567421Y-84187976D01*
X186561967Y-84183033D01*
X186557024Y-84177579D01*
X186552640Y-84171668D01*
X186548856Y-84165355D01*
X186545709Y-84158701D01*
X186543229Y-84151771D01*
X186541441Y-84144632D01*
X186540361Y-84137351D01*
X186540000Y-84130000D01*
X186540000Y-82830000D01*
X186540361Y-82822649D01*
X186541441Y-82815368D01*
X186543229Y-82808229D01*
X186545709Y-82801299D01*
X186548856Y-82794645D01*
X186552640Y-82788332D01*
X186557024Y-82782421D01*
X186561967Y-82776967D01*
X186567421Y-82772024D01*
X186573332Y-82767640D01*
X186579645Y-82763856D01*
X186586299Y-82760709D01*
X186593229Y-82758229D01*
X186600368Y-82756441D01*
X186607649Y-82755361D01*
X186615000Y-82755000D01*
X186765000Y-82755000D01*
X186772351Y-82755361D01*
G37*
G36*
X186272351Y-82755361D02*
G01*
X186279632Y-82756441D01*
X186286771Y-82758229D01*
X186293701Y-82760709D01*
X186300355Y-82763856D01*
X186306668Y-82767640D01*
X186312579Y-82772024D01*
X186318033Y-82776967D01*
X186322976Y-82782421D01*
X186327360Y-82788332D01*
X186331144Y-82794645D01*
X186334291Y-82801299D01*
X186336771Y-82808229D01*
X186338559Y-82815368D01*
X186339639Y-82822649D01*
X186340000Y-82830000D01*
X186340000Y-84130000D01*
X186339639Y-84137351D01*
X186338559Y-84144632D01*
X186336771Y-84151771D01*
X186334291Y-84158701D01*
X186331144Y-84165355D01*
X186327360Y-84171668D01*
X186322976Y-84177579D01*
X186318033Y-84183033D01*
X186312579Y-84187976D01*
X186306668Y-84192360D01*
X186300355Y-84196144D01*
X186293701Y-84199291D01*
X186286771Y-84201771D01*
X186279632Y-84203559D01*
X186272351Y-84204639D01*
X186265000Y-84205000D01*
X186115000Y-84205000D01*
X186107649Y-84204639D01*
X186100368Y-84203559D01*
X186093229Y-84201771D01*
X186086299Y-84199291D01*
X186079645Y-84196144D01*
X186073332Y-84192360D01*
X186067421Y-84187976D01*
X186061967Y-84183033D01*
X186057024Y-84177579D01*
X186052640Y-84171668D01*
X186048856Y-84165355D01*
X186045709Y-84158701D01*
X186043229Y-84151771D01*
X186041441Y-84144632D01*
X186040361Y-84137351D01*
X186040000Y-84130000D01*
X186040000Y-82830000D01*
X186040361Y-82822649D01*
X186041441Y-82815368D01*
X186043229Y-82808229D01*
X186045709Y-82801299D01*
X186048856Y-82794645D01*
X186052640Y-82788332D01*
X186057024Y-82782421D01*
X186061967Y-82776967D01*
X186067421Y-82772024D01*
X186073332Y-82767640D01*
X186079645Y-82763856D01*
X186086299Y-82760709D01*
X186093229Y-82758229D01*
X186100368Y-82756441D01*
X186107649Y-82755361D01*
X186115000Y-82755000D01*
X186265000Y-82755000D01*
X186272351Y-82755361D01*
G37*
G36*
X185772351Y-82755361D02*
G01*
X185779632Y-82756441D01*
X185786771Y-82758229D01*
X185793701Y-82760709D01*
X185800355Y-82763856D01*
X185806668Y-82767640D01*
X185812579Y-82772024D01*
X185818033Y-82776967D01*
X185822976Y-82782421D01*
X185827360Y-82788332D01*
X185831144Y-82794645D01*
X185834291Y-82801299D01*
X185836771Y-82808229D01*
X185838559Y-82815368D01*
X185839639Y-82822649D01*
X185840000Y-82830000D01*
X185840000Y-84130000D01*
X185839639Y-84137351D01*
X185838559Y-84144632D01*
X185836771Y-84151771D01*
X185834291Y-84158701D01*
X185831144Y-84165355D01*
X185827360Y-84171668D01*
X185822976Y-84177579D01*
X185818033Y-84183033D01*
X185812579Y-84187976D01*
X185806668Y-84192360D01*
X185800355Y-84196144D01*
X185793701Y-84199291D01*
X185786771Y-84201771D01*
X185779632Y-84203559D01*
X185772351Y-84204639D01*
X185765000Y-84205000D01*
X185615000Y-84205000D01*
X185607649Y-84204639D01*
X185600368Y-84203559D01*
X185593229Y-84201771D01*
X185586299Y-84199291D01*
X185579645Y-84196144D01*
X185573332Y-84192360D01*
X185567421Y-84187976D01*
X185561967Y-84183033D01*
X185557024Y-84177579D01*
X185552640Y-84171668D01*
X185548856Y-84165355D01*
X185545709Y-84158701D01*
X185543229Y-84151771D01*
X185541441Y-84144632D01*
X185540361Y-84137351D01*
X185540000Y-84130000D01*
X185540000Y-82830000D01*
X185540361Y-82822649D01*
X185541441Y-82815368D01*
X185543229Y-82808229D01*
X185545709Y-82801299D01*
X185548856Y-82794645D01*
X185552640Y-82788332D01*
X185557024Y-82782421D01*
X185561967Y-82776967D01*
X185567421Y-82772024D01*
X185573332Y-82767640D01*
X185579645Y-82763856D01*
X185586299Y-82760709D01*
X185593229Y-82758229D01*
X185600368Y-82756441D01*
X185607649Y-82755361D01*
X185615000Y-82755000D01*
X185765000Y-82755000D01*
X185772351Y-82755361D01*
G37*
M02*
