G04 #@! TF.GenerationSoftware,KiCad,Pcbnew,5.1.5+dfsg1-2build2*
G04 #@! TF.CreationDate,2023-01-01T14:21:45-04:00*
G04 #@! TF.ProjectId,prototyping_backplane,70726f74-6f74-4797-9069-6e675f626163,B*
G04 #@! TF.SameCoordinates,Original*
G04 #@! TF.FileFunction,Legend,Top*
G04 #@! TF.FilePolarity,Positive*
%FSLAX46Y46*%
G04 Gerber Fmt 4.6, Leading zero omitted, Abs format (unit mm)*
G04 Created by KiCad (PCBNEW 5.1.5+dfsg1-2build2) date 2023-01-01 14:21:45*
%MOMM*%
%LPD*%
G04 APERTURE LIST*
%ADD10C,0.100000*%
%ADD11C,0.150000*%
%ADD12C,0.120000*%
%ADD13C,0.010000*%
G04 APERTURE END LIST*
D10*
G36*
X190500000Y-124333000D02*
G01*
X179832000Y-124333000D01*
X179832000Y-121793000D01*
X190500000Y-121793000D01*
X190500000Y-124333000D01*
G37*
X190500000Y-124333000D02*
X179832000Y-124333000D01*
X179832000Y-121793000D01*
X190500000Y-121793000D01*
X190500000Y-124333000D01*
D11*
X173410857Y-123416142D02*
X173625142Y-123487571D01*
X173982285Y-123487571D01*
X174125142Y-123416142D01*
X174196571Y-123344714D01*
X174268000Y-123201857D01*
X174268000Y-123059000D01*
X174196571Y-122916142D01*
X174125142Y-122844714D01*
X173982285Y-122773285D01*
X173696571Y-122701857D01*
X173553714Y-122630428D01*
X173482285Y-122559000D01*
X173410857Y-122416142D01*
X173410857Y-122273285D01*
X173482285Y-122130428D01*
X173553714Y-122059000D01*
X173696571Y-121987571D01*
X174053714Y-121987571D01*
X174268000Y-122059000D01*
X175982285Y-121916142D02*
X174696571Y-123844714D01*
X176482285Y-123487571D02*
X176482285Y-121987571D01*
X177339428Y-123487571D01*
X177339428Y-121987571D01*
X178053714Y-123344714D02*
X178125142Y-123416142D01*
X178053714Y-123487571D01*
X177982285Y-123416142D01*
X178053714Y-123344714D01*
X178053714Y-123487571D01*
X178053714Y-122559000D02*
X178125142Y-122630428D01*
X178053714Y-122701857D01*
X177982285Y-122630428D01*
X178053714Y-122559000D01*
X178053714Y-122701857D01*
X170955142Y-120947571D02*
X170955142Y-119447571D01*
X171526571Y-119447571D01*
X171669428Y-119519000D01*
X171740857Y-119590428D01*
X171812285Y-119733285D01*
X171812285Y-119947571D01*
X171740857Y-120090428D01*
X171669428Y-120161857D01*
X171526571Y-120233285D01*
X170955142Y-120233285D01*
X173312285Y-120947571D02*
X172812285Y-120233285D01*
X172455142Y-120947571D02*
X172455142Y-119447571D01*
X173026571Y-119447571D01*
X173169428Y-119519000D01*
X173240857Y-119590428D01*
X173312285Y-119733285D01*
X173312285Y-119947571D01*
X173240857Y-120090428D01*
X173169428Y-120161857D01*
X173026571Y-120233285D01*
X172455142Y-120233285D01*
X174240857Y-119447571D02*
X174526571Y-119447571D01*
X174669428Y-119519000D01*
X174812285Y-119661857D01*
X174883714Y-119947571D01*
X174883714Y-120447571D01*
X174812285Y-120733285D01*
X174669428Y-120876142D01*
X174526571Y-120947571D01*
X174240857Y-120947571D01*
X174098000Y-120876142D01*
X173955142Y-120733285D01*
X173883714Y-120447571D01*
X173883714Y-119947571D01*
X173955142Y-119661857D01*
X174098000Y-119519000D01*
X174240857Y-119447571D01*
X175312285Y-119447571D02*
X176169428Y-119447571D01*
X175740857Y-120947571D02*
X175740857Y-119447571D01*
X176955142Y-119447571D02*
X177240857Y-119447571D01*
X177383714Y-119519000D01*
X177526571Y-119661857D01*
X177598000Y-119947571D01*
X177598000Y-120447571D01*
X177526571Y-120733285D01*
X177383714Y-120876142D01*
X177240857Y-120947571D01*
X176955142Y-120947571D01*
X176812285Y-120876142D01*
X176669428Y-120733285D01*
X176598000Y-120447571D01*
X176598000Y-119947571D01*
X176669428Y-119661857D01*
X176812285Y-119519000D01*
X176955142Y-119447571D01*
X178026571Y-119447571D02*
X178883714Y-119447571D01*
X178455142Y-120947571D02*
X178455142Y-119447571D01*
X179669428Y-120233285D02*
X179669428Y-120947571D01*
X179169428Y-119447571D02*
X179669428Y-120233285D01*
X180169428Y-119447571D01*
X180669428Y-120947571D02*
X180669428Y-119447571D01*
X181240857Y-119447571D01*
X181383714Y-119519000D01*
X181455142Y-119590428D01*
X181526571Y-119733285D01*
X181526571Y-119947571D01*
X181455142Y-120090428D01*
X181383714Y-120161857D01*
X181240857Y-120233285D01*
X180669428Y-120233285D01*
X182169428Y-120161857D02*
X182669428Y-120161857D01*
X182883714Y-120947571D02*
X182169428Y-120947571D01*
X182169428Y-119447571D01*
X182883714Y-119447571D01*
X185526571Y-120947571D02*
X185026571Y-120233285D01*
X184669428Y-120947571D02*
X184669428Y-119447571D01*
X185240857Y-119447571D01*
X185383714Y-119519000D01*
X185455142Y-119590428D01*
X185526571Y-119733285D01*
X185526571Y-119947571D01*
X185455142Y-120090428D01*
X185383714Y-120161857D01*
X185240857Y-120233285D01*
X184669428Y-120233285D01*
X186169428Y-120161857D02*
X186669428Y-120161857D01*
X186883714Y-120947571D02*
X186169428Y-120947571D01*
X186169428Y-119447571D01*
X186883714Y-119447571D01*
X187312285Y-119447571D02*
X187812285Y-120947571D01*
X188312285Y-119447571D01*
X190812285Y-120804714D02*
X190740857Y-120876142D01*
X190526571Y-120947571D01*
X190383714Y-120947571D01*
X190169428Y-120876142D01*
X190026571Y-120733285D01*
X189955142Y-120590428D01*
X189883714Y-120304714D01*
X189883714Y-120090428D01*
X189955142Y-119804714D01*
X190026571Y-119661857D01*
X190169428Y-119519000D01*
X190383714Y-119447571D01*
X190526571Y-119447571D01*
X190740857Y-119519000D01*
X190812285Y-119590428D01*
X160657523Y-118125761D02*
X160657523Y-116125761D01*
X161419428Y-116125761D01*
X161609904Y-116221000D01*
X161705142Y-116316238D01*
X161800380Y-116506714D01*
X161800380Y-116792428D01*
X161705142Y-116982904D01*
X161609904Y-117078142D01*
X161419428Y-117173380D01*
X160657523Y-117173380D01*
X162657523Y-117078142D02*
X163324190Y-117078142D01*
X163609904Y-118125761D02*
X162657523Y-118125761D01*
X162657523Y-116125761D01*
X163609904Y-116125761D01*
X164181333Y-116125761D02*
X165324190Y-116125761D01*
X164752761Y-118125761D02*
X164752761Y-116125761D01*
X165990857Y-118125761D02*
X165990857Y-116125761D01*
X169609904Y-118125761D02*
X168943238Y-117173380D01*
X168467047Y-118125761D02*
X168467047Y-116125761D01*
X169228952Y-116125761D01*
X169419428Y-116221000D01*
X169514666Y-116316238D01*
X169609904Y-116506714D01*
X169609904Y-116792428D01*
X169514666Y-116982904D01*
X169419428Y-117078142D01*
X169228952Y-117173380D01*
X168467047Y-117173380D01*
X171228952Y-118030523D02*
X171038476Y-118125761D01*
X170657523Y-118125761D01*
X170467047Y-118030523D01*
X170371809Y-117840047D01*
X170371809Y-117078142D01*
X170467047Y-116887666D01*
X170657523Y-116792428D01*
X171038476Y-116792428D01*
X171228952Y-116887666D01*
X171324190Y-117078142D01*
X171324190Y-117268619D01*
X170371809Y-117459095D01*
X173038476Y-118125761D02*
X173038476Y-117078142D01*
X172943238Y-116887666D01*
X172752761Y-116792428D01*
X172371809Y-116792428D01*
X172181333Y-116887666D01*
X173038476Y-118030523D02*
X172847999Y-118125761D01*
X172371809Y-118125761D01*
X172181333Y-118030523D01*
X172086095Y-117840047D01*
X172086095Y-117649571D01*
X172181333Y-117459095D01*
X172371809Y-117363857D01*
X172847999Y-117363857D01*
X173038476Y-117268619D01*
X173990857Y-118125761D02*
X173990857Y-116792428D01*
X173990857Y-117173380D02*
X174086095Y-116982904D01*
X174181333Y-116887666D01*
X174371809Y-116792428D01*
X174562285Y-116792428D01*
X176752761Y-117078142D02*
X177419428Y-117078142D01*
X177705142Y-118125761D02*
X176752761Y-118125761D01*
X176752761Y-116125761D01*
X177705142Y-116125761D01*
X178371809Y-118125761D02*
X179419428Y-116792428D01*
X178371809Y-116792428D02*
X179419428Y-118125761D01*
X180181333Y-116792428D02*
X180181333Y-118792428D01*
X180181333Y-116887666D02*
X180371809Y-116792428D01*
X180752761Y-116792428D01*
X180943238Y-116887666D01*
X181038476Y-116982904D01*
X181133714Y-117173380D01*
X181133714Y-117744809D01*
X181038476Y-117935285D01*
X180943238Y-118030523D01*
X180752761Y-118125761D01*
X180371809Y-118125761D01*
X180181333Y-118030523D01*
X182847999Y-118125761D02*
X182847999Y-117078142D01*
X182752761Y-116887666D01*
X182562285Y-116792428D01*
X182181333Y-116792428D01*
X181990857Y-116887666D01*
X182847999Y-118030523D02*
X182657523Y-118125761D01*
X182181333Y-118125761D01*
X181990857Y-118030523D01*
X181895619Y-117840047D01*
X181895619Y-117649571D01*
X181990857Y-117459095D01*
X182181333Y-117363857D01*
X182657523Y-117363857D01*
X182847999Y-117268619D01*
X183800380Y-116792428D02*
X183800380Y-118125761D01*
X183800380Y-116982904D02*
X183895619Y-116887666D01*
X184086095Y-116792428D01*
X184371809Y-116792428D01*
X184562285Y-116887666D01*
X184657523Y-117078142D01*
X184657523Y-118125761D01*
X185514666Y-118030523D02*
X185705142Y-118125761D01*
X186086095Y-118125761D01*
X186276571Y-118030523D01*
X186371809Y-117840047D01*
X186371809Y-117744809D01*
X186276571Y-117554333D01*
X186086095Y-117459095D01*
X185800380Y-117459095D01*
X185609904Y-117363857D01*
X185514666Y-117173380D01*
X185514666Y-117078142D01*
X185609904Y-116887666D01*
X185800380Y-116792428D01*
X186086095Y-116792428D01*
X186276571Y-116887666D01*
X187228952Y-118125761D02*
X187228952Y-116792428D01*
X187228952Y-116125761D02*
X187133714Y-116221000D01*
X187228952Y-116316238D01*
X187324190Y-116221000D01*
X187228952Y-116125761D01*
X187228952Y-116316238D01*
X188467047Y-118125761D02*
X188276571Y-118030523D01*
X188181333Y-117935285D01*
X188086095Y-117744809D01*
X188086095Y-117173380D01*
X188181333Y-116982904D01*
X188276571Y-116887666D01*
X188467047Y-116792428D01*
X188752761Y-116792428D01*
X188943238Y-116887666D01*
X189038476Y-116982904D01*
X189133714Y-117173380D01*
X189133714Y-117744809D01*
X189038476Y-117935285D01*
X188943238Y-118030523D01*
X188752761Y-118125761D01*
X188467047Y-118125761D01*
X189990857Y-116792428D02*
X189990857Y-118125761D01*
X189990857Y-116982904D02*
X190086095Y-116887666D01*
X190276571Y-116792428D01*
X190562285Y-116792428D01*
X190752761Y-116887666D01*
X190847999Y-117078142D01*
X190847999Y-118125761D01*
X193990857Y-117078142D02*
X194276571Y-117173380D01*
X194371809Y-117268619D01*
X194467047Y-117459095D01*
X194467047Y-117744809D01*
X194371809Y-117935285D01*
X194276571Y-118030523D01*
X194086095Y-118125761D01*
X193324190Y-118125761D01*
X193324190Y-116125761D01*
X193990857Y-116125761D01*
X194181333Y-116221000D01*
X194276571Y-116316238D01*
X194371809Y-116506714D01*
X194371809Y-116697190D01*
X194276571Y-116887666D01*
X194181333Y-116982904D01*
X193990857Y-117078142D01*
X193324190Y-117078142D01*
X195609904Y-118125761D02*
X195419428Y-118030523D01*
X195324190Y-117935285D01*
X195228952Y-117744809D01*
X195228952Y-117173380D01*
X195324190Y-116982904D01*
X195419428Y-116887666D01*
X195609904Y-116792428D01*
X195895619Y-116792428D01*
X196086095Y-116887666D01*
X196181333Y-116982904D01*
X196276571Y-117173380D01*
X196276571Y-117744809D01*
X196181333Y-117935285D01*
X196086095Y-118030523D01*
X195895619Y-118125761D01*
X195609904Y-118125761D01*
X197990857Y-118125761D02*
X197990857Y-117078142D01*
X197895619Y-116887666D01*
X197705142Y-116792428D01*
X197324190Y-116792428D01*
X197133714Y-116887666D01*
X197990857Y-118030523D02*
X197800380Y-118125761D01*
X197324190Y-118125761D01*
X197133714Y-118030523D01*
X197038476Y-117840047D01*
X197038476Y-117649571D01*
X197133714Y-117459095D01*
X197324190Y-117363857D01*
X197800380Y-117363857D01*
X197990857Y-117268619D01*
X198943238Y-118125761D02*
X198943238Y-116792428D01*
X198943238Y-117173380D02*
X199038476Y-116982904D01*
X199133714Y-116887666D01*
X199324190Y-116792428D01*
X199514666Y-116792428D01*
X201038476Y-118125761D02*
X201038476Y-116125761D01*
X201038476Y-118030523D02*
X200847999Y-118125761D01*
X200467047Y-118125761D01*
X200276571Y-118030523D01*
X200181333Y-117935285D01*
X200086095Y-117744809D01*
X200086095Y-117173380D01*
X200181333Y-116982904D01*
X200276571Y-116887666D01*
X200467047Y-116792428D01*
X200847999Y-116792428D01*
X201038476Y-116887666D01*
D12*
X172085000Y-49530000D02*
X172085000Y-48260000D01*
X173355000Y-49530000D02*
X172085000Y-49530000D01*
X173735000Y-47150000D02*
X173735000Y-46820000D01*
X172975000Y-47150000D02*
X172975000Y-46820000D01*
X173635000Y-44160000D02*
X173635000Y-38160000D01*
X173515000Y-44160000D02*
X173515000Y-38160000D01*
X173395000Y-44160000D02*
X173395000Y-38160000D01*
X173275000Y-44160000D02*
X173275000Y-38160000D01*
X173155000Y-44160000D02*
X173155000Y-38160000D01*
X173035000Y-44160000D02*
X173035000Y-38160000D01*
X173735000Y-38160000D02*
X173735000Y-44160000D01*
X172975000Y-38160000D02*
X173735000Y-38160000D01*
X172975000Y-44160000D02*
X172975000Y-38160000D01*
X172025000Y-44160000D02*
X172025000Y-46820000D01*
X174685000Y-44160000D02*
X172025000Y-44160000D01*
X174685000Y-46820000D02*
X174685000Y-44160000D01*
X172025000Y-46820000D02*
X174685000Y-46820000D01*
X185080000Y-81280000D02*
X185080000Y-84205000D01*
X185080000Y-81280000D02*
X185080000Y-79780000D01*
X188300000Y-81280000D02*
X188300000Y-82780000D01*
X188300000Y-81280000D02*
X188300000Y-79780000D01*
X175880000Y-80930000D02*
X179720000Y-80930000D01*
X175880000Y-79090000D02*
X179720000Y-79090000D01*
X179720000Y-81630000D02*
X175880000Y-81630000D01*
X179720000Y-83470000D02*
X175880000Y-83470000D01*
X179720000Y-84424000D02*
X175880000Y-84424000D01*
X179720000Y-86264000D02*
X175880000Y-86264000D01*
X188417000Y-91987000D02*
X188417000Y-92052000D01*
X188417000Y-89812000D02*
X188417000Y-89877000D01*
X185177000Y-91987000D02*
X185177000Y-92052000D01*
X185177000Y-89812000D02*
X185177000Y-89877000D01*
X185177000Y-92052000D02*
X188417000Y-92052000D01*
X185177000Y-89812000D02*
X188417000Y-89812000D01*
X176073000Y-76415000D02*
X176073000Y-76350000D01*
X176073000Y-78590000D02*
X176073000Y-78525000D01*
X179313000Y-76415000D02*
X179313000Y-76350000D01*
X179313000Y-78590000D02*
X179313000Y-78525000D01*
X179313000Y-76350000D02*
X176073000Y-76350000D01*
X179313000Y-78590000D02*
X176073000Y-78590000D01*
X188417000Y-88939000D02*
X188417000Y-89004000D01*
X188417000Y-86764000D02*
X188417000Y-86829000D01*
X185177000Y-88939000D02*
X185177000Y-89004000D01*
X185177000Y-86764000D02*
X185177000Y-86829000D01*
X185177000Y-89004000D02*
X188417000Y-89004000D01*
X185177000Y-86764000D02*
X188417000Y-86764000D01*
X184150000Y-49530000D02*
X184150000Y-48260000D01*
X185420000Y-49530000D02*
X184150000Y-49530000D01*
X198500000Y-47217071D02*
X198500000Y-46820000D01*
X197740000Y-47217071D02*
X197740000Y-46820000D01*
X198500000Y-38160000D02*
X198500000Y-44160000D01*
X197740000Y-38160000D02*
X198500000Y-38160000D01*
X197740000Y-44160000D02*
X197740000Y-38160000D01*
X196850000Y-46820000D02*
X196850000Y-44160000D01*
X195960000Y-47217071D02*
X195960000Y-46820000D01*
X195200000Y-47217071D02*
X195200000Y-46820000D01*
X195960000Y-38160000D02*
X195960000Y-44160000D01*
X195200000Y-38160000D02*
X195960000Y-38160000D01*
X195200000Y-44160000D02*
X195200000Y-38160000D01*
X194310000Y-46820000D02*
X194310000Y-44160000D01*
X193420000Y-47217071D02*
X193420000Y-46820000D01*
X192660000Y-47217071D02*
X192660000Y-46820000D01*
X193420000Y-38160000D02*
X193420000Y-44160000D01*
X192660000Y-38160000D02*
X193420000Y-38160000D01*
X192660000Y-44160000D02*
X192660000Y-38160000D01*
X191770000Y-46820000D02*
X191770000Y-44160000D01*
X190880000Y-47217071D02*
X190880000Y-46820000D01*
X190120000Y-47217071D02*
X190120000Y-46820000D01*
X190880000Y-38160000D02*
X190880000Y-44160000D01*
X190120000Y-38160000D02*
X190880000Y-38160000D01*
X190120000Y-44160000D02*
X190120000Y-38160000D01*
X189230000Y-46820000D02*
X189230000Y-44160000D01*
X188340000Y-47217071D02*
X188340000Y-46820000D01*
X187580000Y-47217071D02*
X187580000Y-46820000D01*
X188340000Y-38160000D02*
X188340000Y-44160000D01*
X187580000Y-38160000D02*
X188340000Y-38160000D01*
X187580000Y-44160000D02*
X187580000Y-38160000D01*
X186690000Y-46820000D02*
X186690000Y-44160000D01*
X185800000Y-47150000D02*
X185800000Y-46820000D01*
X185040000Y-47150000D02*
X185040000Y-46820000D01*
X185700000Y-44160000D02*
X185700000Y-38160000D01*
X185580000Y-44160000D02*
X185580000Y-38160000D01*
X185460000Y-44160000D02*
X185460000Y-38160000D01*
X185340000Y-44160000D02*
X185340000Y-38160000D01*
X185220000Y-44160000D02*
X185220000Y-38160000D01*
X185100000Y-44160000D02*
X185100000Y-38160000D01*
X185800000Y-38160000D02*
X185800000Y-44160000D01*
X185040000Y-38160000D02*
X185800000Y-38160000D01*
X185040000Y-44160000D02*
X185040000Y-38160000D01*
X184090000Y-44160000D02*
X184090000Y-46820000D01*
X199450000Y-44160000D02*
X184090000Y-44160000D01*
X199450000Y-46820000D02*
X199450000Y-44160000D01*
X184090000Y-46820000D02*
X199450000Y-46820000D01*
X160750000Y-114400000D02*
X160750000Y-114070000D01*
X154210000Y-114400000D02*
X160750000Y-114400000D01*
X154210000Y-114070000D02*
X154210000Y-114400000D01*
X160750000Y-111660000D02*
X160750000Y-111990000D01*
X154210000Y-111660000D02*
X160750000Y-111660000D01*
X154210000Y-111990000D02*
X154210000Y-111660000D01*
X199930000Y-111660000D02*
X199930000Y-111990000D01*
X206470000Y-111660000D02*
X199930000Y-111660000D01*
X206470000Y-111990000D02*
X206470000Y-111660000D01*
X199930000Y-114400000D02*
X199930000Y-114070000D01*
X206470000Y-114400000D02*
X199930000Y-114400000D01*
X206470000Y-114070000D02*
X206470000Y-114400000D01*
X155300000Y-82210000D02*
X156630000Y-82210000D01*
X155300000Y-83540000D02*
X155300000Y-82210000D01*
X157900000Y-82210000D02*
X160500000Y-82210000D01*
X157900000Y-84810000D02*
X157900000Y-82210000D01*
X155300000Y-84810000D02*
X157900000Y-84810000D01*
X160500000Y-82210000D02*
X160500000Y-107730000D01*
X155300000Y-84810000D02*
X155300000Y-107730000D01*
X155300000Y-107730000D02*
X160500000Y-107730000D01*
X199300000Y-82210000D02*
X200630000Y-82210000D01*
X199300000Y-83540000D02*
X199300000Y-82210000D01*
X201900000Y-82210000D02*
X204500000Y-82210000D01*
X201900000Y-84810000D02*
X201900000Y-82210000D01*
X199300000Y-84810000D02*
X201900000Y-84810000D01*
X204500000Y-82210000D02*
X204500000Y-107730000D01*
X199300000Y-84810000D02*
X199300000Y-107730000D01*
X199300000Y-107730000D02*
X204500000Y-107730000D01*
D13*
G36*
X177097560Y-107556472D02*
G01*
X177209746Y-107588696D01*
X177303515Y-107630324D01*
X177363334Y-107676314D01*
X177397259Y-107736307D01*
X177413343Y-107819943D01*
X177414615Y-107833912D01*
X177416364Y-107907367D01*
X177407693Y-107943451D01*
X177390531Y-107940723D01*
X177366806Y-107897742D01*
X177358380Y-107875909D01*
X177296916Y-107760726D01*
X177209204Y-107675975D01*
X177100073Y-107625181D01*
X176995667Y-107611334D01*
X176872736Y-107630320D01*
X176768828Y-107685959D01*
X176685651Y-107776275D01*
X176624915Y-107899288D01*
X176588329Y-108053022D01*
X176584028Y-108087584D01*
X176581755Y-108252553D01*
X176610734Y-108397657D01*
X176668747Y-108519339D01*
X176753575Y-108614042D01*
X176863001Y-108678211D01*
X176969455Y-108705541D01*
X177091265Y-108703352D01*
X177204003Y-108661679D01*
X177311168Y-108579172D01*
X177319952Y-108570415D01*
X177371185Y-108521778D01*
X177410750Y-108490363D01*
X177429862Y-108482973D01*
X177427202Y-108507391D01*
X177400162Y-108550515D01*
X177356510Y-108603510D01*
X177304018Y-108657542D01*
X177250455Y-108703775D01*
X177214458Y-108727905D01*
X177108759Y-108767644D01*
X176982836Y-108786483D01*
X176854137Y-108782825D01*
X176777936Y-108767819D01*
X176649249Y-108710497D01*
X176539999Y-108616098D01*
X176458149Y-108499807D01*
X176426948Y-108441422D01*
X176407553Y-108391451D01*
X176397199Y-108336537D01*
X176393121Y-108263325D01*
X176392519Y-108182834D01*
X176393998Y-108082664D01*
X176399943Y-108011480D01*
X176412794Y-107955984D01*
X176434991Y-107902877D01*
X176448837Y-107875917D01*
X176542567Y-107740067D01*
X176658823Y-107638492D01*
X176793085Y-107572897D01*
X176940837Y-107544989D01*
X177097560Y-107556472D01*
G37*
X177097560Y-107556472D02*
X177209746Y-107588696D01*
X177303515Y-107630324D01*
X177363334Y-107676314D01*
X177397259Y-107736307D01*
X177413343Y-107819943D01*
X177414615Y-107833912D01*
X177416364Y-107907367D01*
X177407693Y-107943451D01*
X177390531Y-107940723D01*
X177366806Y-107897742D01*
X177358380Y-107875909D01*
X177296916Y-107760726D01*
X177209204Y-107675975D01*
X177100073Y-107625181D01*
X176995667Y-107611334D01*
X176872736Y-107630320D01*
X176768828Y-107685959D01*
X176685651Y-107776275D01*
X176624915Y-107899288D01*
X176588329Y-108053022D01*
X176584028Y-108087584D01*
X176581755Y-108252553D01*
X176610734Y-108397657D01*
X176668747Y-108519339D01*
X176753575Y-108614042D01*
X176863001Y-108678211D01*
X176969455Y-108705541D01*
X177091265Y-108703352D01*
X177204003Y-108661679D01*
X177311168Y-108579172D01*
X177319952Y-108570415D01*
X177371185Y-108521778D01*
X177410750Y-108490363D01*
X177429862Y-108482973D01*
X177427202Y-108507391D01*
X177400162Y-108550515D01*
X177356510Y-108603510D01*
X177304018Y-108657542D01*
X177250455Y-108703775D01*
X177214458Y-108727905D01*
X177108759Y-108767644D01*
X176982836Y-108786483D01*
X176854137Y-108782825D01*
X176777936Y-108767819D01*
X176649249Y-108710497D01*
X176539999Y-108616098D01*
X176458149Y-108499807D01*
X176426948Y-108441422D01*
X176407553Y-108391451D01*
X176397199Y-108336537D01*
X176393121Y-108263325D01*
X176392519Y-108182834D01*
X176393998Y-108082664D01*
X176399943Y-108011480D01*
X176412794Y-107955984D01*
X176434991Y-107902877D01*
X176448837Y-107875917D01*
X176542567Y-107740067D01*
X176658823Y-107638492D01*
X176793085Y-107572897D01*
X176940837Y-107544989D01*
X177097560Y-107556472D01*
G36*
X186015337Y-107569926D02*
G01*
X186124492Y-107618561D01*
X186176420Y-107658367D01*
X186203435Y-107690740D01*
X186218065Y-107732096D01*
X186223759Y-107795619D01*
X186224334Y-107841506D01*
X186221358Y-107918548D01*
X186212280Y-107953731D01*
X186196874Y-107947121D01*
X186174914Y-107898781D01*
X186161572Y-107859504D01*
X186109951Y-107753355D01*
X186034584Y-107674792D01*
X185946244Y-107631713D01*
X185852102Y-107621944D01*
X185767341Y-107641122D01*
X185700600Y-107684460D01*
X185660514Y-107747171D01*
X185652834Y-107794336D01*
X185667605Y-107848958D01*
X185713725Y-107907911D01*
X185793901Y-107973688D01*
X185910840Y-108048784D01*
X185959664Y-108077000D01*
X186100096Y-108163373D01*
X186201997Y-108243539D01*
X186267919Y-108321508D01*
X186300413Y-108401287D01*
X186302032Y-108486886D01*
X186277588Y-108576478D01*
X186220974Y-108668875D01*
X186135016Y-108737869D01*
X186027327Y-108780702D01*
X185905521Y-108794620D01*
X185777211Y-108776865D01*
X185748084Y-108768177D01*
X185643192Y-108729546D01*
X185573205Y-108690514D01*
X185531354Y-108643219D01*
X185510873Y-108579800D01*
X185504994Y-108492394D01*
X185504956Y-108485708D01*
X185510376Y-108425544D01*
X185524114Y-108388244D01*
X185541704Y-108380122D01*
X185558682Y-108407494D01*
X185559168Y-108409034D01*
X185611400Y-108539166D01*
X185677220Y-108631032D01*
X185759620Y-108687354D01*
X185861595Y-108710852D01*
X185892350Y-108711921D01*
X186003366Y-108699079D01*
X186082062Y-108660926D01*
X186127264Y-108598319D01*
X186138523Y-108532084D01*
X186132182Y-108482714D01*
X186109250Y-108437315D01*
X186064371Y-108390292D01*
X185992190Y-108336053D01*
X185887351Y-108269003D01*
X185885667Y-108267972D01*
X185799291Y-108214048D01*
X185718413Y-108161712D01*
X185655401Y-108119045D01*
X185634713Y-108104053D01*
X185557769Y-108022624D01*
X185516234Y-107927609D01*
X185509594Y-107827486D01*
X185537333Y-107730728D01*
X185598934Y-107645811D01*
X185665620Y-107595807D01*
X185772645Y-107556925D01*
X185893635Y-107548839D01*
X186015337Y-107569926D01*
G37*
X186015337Y-107569926D02*
X186124492Y-107618561D01*
X186176420Y-107658367D01*
X186203435Y-107690740D01*
X186218065Y-107732096D01*
X186223759Y-107795619D01*
X186224334Y-107841506D01*
X186221358Y-107918548D01*
X186212280Y-107953731D01*
X186196874Y-107947121D01*
X186174914Y-107898781D01*
X186161572Y-107859504D01*
X186109951Y-107753355D01*
X186034584Y-107674792D01*
X185946244Y-107631713D01*
X185852102Y-107621944D01*
X185767341Y-107641122D01*
X185700600Y-107684460D01*
X185660514Y-107747171D01*
X185652834Y-107794336D01*
X185667605Y-107848958D01*
X185713725Y-107907911D01*
X185793901Y-107973688D01*
X185910840Y-108048784D01*
X185959664Y-108077000D01*
X186100096Y-108163373D01*
X186201997Y-108243539D01*
X186267919Y-108321508D01*
X186300413Y-108401287D01*
X186302032Y-108486886D01*
X186277588Y-108576478D01*
X186220974Y-108668875D01*
X186135016Y-108737869D01*
X186027327Y-108780702D01*
X185905521Y-108794620D01*
X185777211Y-108776865D01*
X185748084Y-108768177D01*
X185643192Y-108729546D01*
X185573205Y-108690514D01*
X185531354Y-108643219D01*
X185510873Y-108579800D01*
X185504994Y-108492394D01*
X185504956Y-108485708D01*
X185510376Y-108425544D01*
X185524114Y-108388244D01*
X185541704Y-108380122D01*
X185558682Y-108407494D01*
X185559168Y-108409034D01*
X185611400Y-108539166D01*
X185677220Y-108631032D01*
X185759620Y-108687354D01*
X185861595Y-108710852D01*
X185892350Y-108711921D01*
X186003366Y-108699079D01*
X186082062Y-108660926D01*
X186127264Y-108598319D01*
X186138523Y-108532084D01*
X186132182Y-108482714D01*
X186109250Y-108437315D01*
X186064371Y-108390292D01*
X185992190Y-108336053D01*
X185887351Y-108269003D01*
X185885667Y-108267972D01*
X185799291Y-108214048D01*
X185718413Y-108161712D01*
X185655401Y-108119045D01*
X185634713Y-108104053D01*
X185557769Y-108022624D01*
X185516234Y-107927609D01*
X185509594Y-107827486D01*
X185537333Y-107730728D01*
X185598934Y-107645811D01*
X185665620Y-107595807D01*
X185772645Y-107556925D01*
X185893635Y-107548839D01*
X186015337Y-107569926D01*
G36*
X174454990Y-107574410D02*
G01*
X174482395Y-107629112D01*
X174520693Y-107712161D01*
X174567414Y-107818101D01*
X174620085Y-107941475D01*
X174659457Y-108035980D01*
X174732661Y-108212831D01*
X174792160Y-108354537D01*
X174840084Y-108465212D01*
X174878564Y-108548972D01*
X174909730Y-108609929D01*
X174935714Y-108652201D01*
X174958645Y-108679900D01*
X174980654Y-108697141D01*
X175003872Y-108708040D01*
X175008261Y-108709617D01*
X175055958Y-108734348D01*
X175066713Y-108757779D01*
X175040198Y-108772849D01*
X175011292Y-108775035D01*
X174935514Y-108761444D01*
X174852977Y-108727458D01*
X174780907Y-108681660D01*
X174741092Y-108640392D01*
X174720659Y-108602280D01*
X174687993Y-108533351D01*
X174646896Y-108441965D01*
X174601173Y-108336483D01*
X174579024Y-108284076D01*
X174532391Y-108172899D01*
X174489057Y-108069775D01*
X174452810Y-107983700D01*
X174427433Y-107923670D01*
X174420619Y-107907667D01*
X174388906Y-107833584D01*
X174328744Y-107964989D01*
X174285748Y-108059396D01*
X174260546Y-108121666D01*
X174254029Y-108158472D01*
X174267083Y-108176486D01*
X174300597Y-108182383D01*
X174355460Y-108182834D01*
X174357741Y-108182834D01*
X174424447Y-108186392D01*
X174472450Y-108195552D01*
X174487417Y-108204000D01*
X174480823Y-108220557D01*
X174456073Y-108225167D01*
X174372749Y-108244033D01*
X174284181Y-108295745D01*
X174198459Y-108372970D01*
X174123677Y-108468375D01*
X174067926Y-108574628D01*
X174066555Y-108578105D01*
X174022482Y-108680235D01*
X173984322Y-108744101D01*
X173949906Y-108772996D01*
X173936596Y-108775500D01*
X173908697Y-108767432D01*
X173905334Y-108760835D01*
X173913510Y-108732497D01*
X173936363Y-108672669D01*
X173971380Y-108587017D01*
X174016047Y-108481206D01*
X174067852Y-108360901D01*
X174124280Y-108231767D01*
X174182818Y-108099470D01*
X174240954Y-107969674D01*
X174296174Y-107848046D01*
X174345963Y-107740250D01*
X174387810Y-107651952D01*
X174419201Y-107588816D01*
X174437623Y-107556509D01*
X174440949Y-107553511D01*
X174454990Y-107574410D01*
G37*
X174454990Y-107574410D02*
X174482395Y-107629112D01*
X174520693Y-107712161D01*
X174567414Y-107818101D01*
X174620085Y-107941475D01*
X174659457Y-108035980D01*
X174732661Y-108212831D01*
X174792160Y-108354537D01*
X174840084Y-108465212D01*
X174878564Y-108548972D01*
X174909730Y-108609929D01*
X174935714Y-108652201D01*
X174958645Y-108679900D01*
X174980654Y-108697141D01*
X175003872Y-108708040D01*
X175008261Y-108709617D01*
X175055958Y-108734348D01*
X175066713Y-108757779D01*
X175040198Y-108772849D01*
X175011292Y-108775035D01*
X174935514Y-108761444D01*
X174852977Y-108727458D01*
X174780907Y-108681660D01*
X174741092Y-108640392D01*
X174720659Y-108602280D01*
X174687993Y-108533351D01*
X174646896Y-108441965D01*
X174601173Y-108336483D01*
X174579024Y-108284076D01*
X174532391Y-108172899D01*
X174489057Y-108069775D01*
X174452810Y-107983700D01*
X174427433Y-107923670D01*
X174420619Y-107907667D01*
X174388906Y-107833584D01*
X174328744Y-107964989D01*
X174285748Y-108059396D01*
X174260546Y-108121666D01*
X174254029Y-108158472D01*
X174267083Y-108176486D01*
X174300597Y-108182383D01*
X174355460Y-108182834D01*
X174357741Y-108182834D01*
X174424447Y-108186392D01*
X174472450Y-108195552D01*
X174487417Y-108204000D01*
X174480823Y-108220557D01*
X174456073Y-108225167D01*
X174372749Y-108244033D01*
X174284181Y-108295745D01*
X174198459Y-108372970D01*
X174123677Y-108468375D01*
X174067926Y-108574628D01*
X174066555Y-108578105D01*
X174022482Y-108680235D01*
X173984322Y-108744101D01*
X173949906Y-108772996D01*
X173936596Y-108775500D01*
X173908697Y-108767432D01*
X173905334Y-108760835D01*
X173913510Y-108732497D01*
X173936363Y-108672669D01*
X173971380Y-108587017D01*
X174016047Y-108481206D01*
X174067852Y-108360901D01*
X174124280Y-108231767D01*
X174182818Y-108099470D01*
X174240954Y-107969674D01*
X174296174Y-107848046D01*
X174345963Y-107740250D01*
X174387810Y-107651952D01*
X174419201Y-107588816D01*
X174437623Y-107556509D01*
X174440949Y-107553511D01*
X174454990Y-107574410D01*
G36*
X175593050Y-107570840D02*
G01*
X175690874Y-107574391D01*
X175772438Y-107579834D01*
X175829378Y-107587155D01*
X175845997Y-107591513D01*
X175935818Y-107644152D01*
X176005208Y-107721135D01*
X176047794Y-107812045D01*
X176057202Y-107906465D01*
X176053389Y-107930479D01*
X176022558Y-108003032D01*
X175968706Y-108073344D01*
X175904225Y-108127840D01*
X175851780Y-108151278D01*
X175807704Y-108167220D01*
X175789168Y-108186362D01*
X175789167Y-108186513D01*
X175801038Y-108212239D01*
X175832805Y-108263444D01*
X175878696Y-108331939D01*
X175932943Y-108409535D01*
X175989775Y-108488046D01*
X176043421Y-108559283D01*
X176088111Y-108615058D01*
X176103792Y-108632963D01*
X176161852Y-108678474D01*
X176231658Y-108711307D01*
X176238589Y-108713326D01*
X176286394Y-108731374D01*
X176307830Y-108750090D01*
X176307140Y-108755321D01*
X176280280Y-108766377D01*
X176225226Y-108773040D01*
X176155929Y-108774941D01*
X176086335Y-108771709D01*
X176030393Y-108762974D01*
X176029336Y-108762694D01*
X175999324Y-108740518D01*
X175950242Y-108687349D01*
X175885952Y-108607781D01*
X175810314Y-108506406D01*
X175789401Y-108477233D01*
X175714567Y-108373098D01*
X175658854Y-108299026D01*
X175617618Y-108250050D01*
X175586214Y-108221199D01*
X175559996Y-108207506D01*
X175534319Y-108204001D01*
X175533971Y-108204000D01*
X175472896Y-108204000D01*
X175466990Y-108484459D01*
X175461084Y-108764917D01*
X175381709Y-108771486D01*
X175302334Y-108778056D01*
X175302334Y-108235636D01*
X175301461Y-108059726D01*
X175298935Y-107910478D01*
X175294891Y-107791517D01*
X175289466Y-107706468D01*
X175282795Y-107658955D01*
X175281598Y-107655585D01*
X175471667Y-107655585D01*
X175471667Y-108140500D01*
X175546430Y-108140500D01*
X175621038Y-108131665D01*
X175691043Y-108111315D01*
X175779150Y-108054369D01*
X175834174Y-107973377D01*
X175852667Y-107875917D01*
X175833917Y-107781262D01*
X175782394Y-107706240D01*
X175705184Y-107656229D01*
X175609374Y-107636608D01*
X175544371Y-107641946D01*
X175471667Y-107655585D01*
X175281598Y-107655585D01*
X175280422Y-107652275D01*
X175239397Y-107618322D01*
X175195755Y-107611334D01*
X175151493Y-107605135D01*
X175133000Y-107590227D01*
X175133000Y-107590167D01*
X175152749Y-107582029D01*
X175206420Y-107575880D01*
X175285650Y-107571701D01*
X175382074Y-107569479D01*
X175487328Y-107569197D01*
X175593050Y-107570840D01*
G37*
X175593050Y-107570840D02*
X175690874Y-107574391D01*
X175772438Y-107579834D01*
X175829378Y-107587155D01*
X175845997Y-107591513D01*
X175935818Y-107644152D01*
X176005208Y-107721135D01*
X176047794Y-107812045D01*
X176057202Y-107906465D01*
X176053389Y-107930479D01*
X176022558Y-108003032D01*
X175968706Y-108073344D01*
X175904225Y-108127840D01*
X175851780Y-108151278D01*
X175807704Y-108167220D01*
X175789168Y-108186362D01*
X175789167Y-108186513D01*
X175801038Y-108212239D01*
X175832805Y-108263444D01*
X175878696Y-108331939D01*
X175932943Y-108409535D01*
X175989775Y-108488046D01*
X176043421Y-108559283D01*
X176088111Y-108615058D01*
X176103792Y-108632963D01*
X176161852Y-108678474D01*
X176231658Y-108711307D01*
X176238589Y-108713326D01*
X176286394Y-108731374D01*
X176307830Y-108750090D01*
X176307140Y-108755321D01*
X176280280Y-108766377D01*
X176225226Y-108773040D01*
X176155929Y-108774941D01*
X176086335Y-108771709D01*
X176030393Y-108762974D01*
X176029336Y-108762694D01*
X175999324Y-108740518D01*
X175950242Y-108687349D01*
X175885952Y-108607781D01*
X175810314Y-108506406D01*
X175789401Y-108477233D01*
X175714567Y-108373098D01*
X175658854Y-108299026D01*
X175617618Y-108250050D01*
X175586214Y-108221199D01*
X175559996Y-108207506D01*
X175534319Y-108204001D01*
X175533971Y-108204000D01*
X175472896Y-108204000D01*
X175466990Y-108484459D01*
X175461084Y-108764917D01*
X175381709Y-108771486D01*
X175302334Y-108778056D01*
X175302334Y-108235636D01*
X175301461Y-108059726D01*
X175298935Y-107910478D01*
X175294891Y-107791517D01*
X175289466Y-107706468D01*
X175282795Y-107658955D01*
X175281598Y-107655585D01*
X175471667Y-107655585D01*
X175471667Y-108140500D01*
X175546430Y-108140500D01*
X175621038Y-108131665D01*
X175691043Y-108111315D01*
X175779150Y-108054369D01*
X175834174Y-107973377D01*
X175852667Y-107875917D01*
X175833917Y-107781262D01*
X175782394Y-107706240D01*
X175705184Y-107656229D01*
X175609374Y-107636608D01*
X175544371Y-107641946D01*
X175471667Y-107655585D01*
X175281598Y-107655585D01*
X175280422Y-107652275D01*
X175239397Y-107618322D01*
X175195755Y-107611334D01*
X175151493Y-107605135D01*
X175133000Y-107590227D01*
X175133000Y-107590167D01*
X175152749Y-107582029D01*
X175206420Y-107575880D01*
X175285650Y-107571701D01*
X175382074Y-107569479D01*
X175487328Y-107569197D01*
X175593050Y-107570840D01*
G36*
X178172212Y-107577166D02*
G01*
X178200335Y-107629934D01*
X178239480Y-107711507D01*
X178287209Y-107816668D01*
X178341085Y-107940200D01*
X178389927Y-108055834D01*
X178462491Y-108229779D01*
X178521048Y-108368748D01*
X178567756Y-108476895D01*
X178604769Y-108558368D01*
X178634246Y-108617320D01*
X178658343Y-108657903D01*
X178679215Y-108684266D01*
X178699020Y-108700561D01*
X178719914Y-108710941D01*
X178732691Y-108715645D01*
X178783324Y-108739708D01*
X178794288Y-108759404D01*
X178768246Y-108770621D01*
X178707862Y-108769248D01*
X178698730Y-108768082D01*
X178632347Y-108756116D01*
X178576965Y-108737106D01*
X178528892Y-108706321D01*
X178484438Y-108659032D01*
X178439910Y-108590506D01*
X178391619Y-108496013D01*
X178335871Y-108370822D01*
X178275113Y-108225167D01*
X178228112Y-108111600D01*
X178185993Y-108011605D01*
X178151601Y-107931799D01*
X178127783Y-107878799D01*
X178117842Y-107859600D01*
X178103732Y-107870036D01*
X178077706Y-107911723D01*
X178044318Y-107976911D01*
X178027563Y-108013058D01*
X177951211Y-108182834D01*
X178075440Y-108182834D01*
X178151859Y-108186535D01*
X178197964Y-108196048D01*
X178210594Y-108208981D01*
X178186587Y-108222946D01*
X178141576Y-108232830D01*
X178044267Y-108268785D01*
X177949158Y-108342816D01*
X177860435Y-108450712D01*
X177782280Y-108588262D01*
X177776785Y-108600039D01*
X177731578Y-108690520D01*
X177693812Y-108750336D01*
X177666335Y-108775084D01*
X177663386Y-108775500D01*
X177634579Y-108765945D01*
X177630667Y-108757378D01*
X177638820Y-108728485D01*
X177661599Y-108667995D01*
X177696477Y-108581653D01*
X177740930Y-108475201D01*
X177792435Y-108354386D01*
X177848468Y-108224951D01*
X177906502Y-108092640D01*
X177964016Y-107963198D01*
X178018483Y-107842370D01*
X178067379Y-107735900D01*
X178108181Y-107649531D01*
X178138364Y-107589009D01*
X178155404Y-107560078D01*
X178157546Y-107558417D01*
X178172212Y-107577166D01*
G37*
X178172212Y-107577166D02*
X178200335Y-107629934D01*
X178239480Y-107711507D01*
X178287209Y-107816668D01*
X178341085Y-107940200D01*
X178389927Y-108055834D01*
X178462491Y-108229779D01*
X178521048Y-108368748D01*
X178567756Y-108476895D01*
X178604769Y-108558368D01*
X178634246Y-108617320D01*
X178658343Y-108657903D01*
X178679215Y-108684266D01*
X178699020Y-108700561D01*
X178719914Y-108710941D01*
X178732691Y-108715645D01*
X178783324Y-108739708D01*
X178794288Y-108759404D01*
X178768246Y-108770621D01*
X178707862Y-108769248D01*
X178698730Y-108768082D01*
X178632347Y-108756116D01*
X178576965Y-108737106D01*
X178528892Y-108706321D01*
X178484438Y-108659032D01*
X178439910Y-108590506D01*
X178391619Y-108496013D01*
X178335871Y-108370822D01*
X178275113Y-108225167D01*
X178228112Y-108111600D01*
X178185993Y-108011605D01*
X178151601Y-107931799D01*
X178127783Y-107878799D01*
X178117842Y-107859600D01*
X178103732Y-107870036D01*
X178077706Y-107911723D01*
X178044318Y-107976911D01*
X178027563Y-108013058D01*
X177951211Y-108182834D01*
X178075440Y-108182834D01*
X178151859Y-108186535D01*
X178197964Y-108196048D01*
X178210594Y-108208981D01*
X178186587Y-108222946D01*
X178141576Y-108232830D01*
X178044267Y-108268785D01*
X177949158Y-108342816D01*
X177860435Y-108450712D01*
X177782280Y-108588262D01*
X177776785Y-108600039D01*
X177731578Y-108690520D01*
X177693812Y-108750336D01*
X177666335Y-108775084D01*
X177663386Y-108775500D01*
X177634579Y-108765945D01*
X177630667Y-108757378D01*
X177638820Y-108728485D01*
X177661599Y-108667995D01*
X177696477Y-108581653D01*
X177740930Y-108475201D01*
X177792435Y-108354386D01*
X177848468Y-108224951D01*
X177906502Y-108092640D01*
X177964016Y-107963198D01*
X178018483Y-107842370D01*
X178067379Y-107735900D01*
X178108181Y-107649531D01*
X178138364Y-107589009D01*
X178155404Y-107560078D01*
X178157546Y-107558417D01*
X178172212Y-107577166D01*
G36*
X178928606Y-107568424D02*
G01*
X179001348Y-107575194D01*
X179068602Y-107587889D01*
X179118628Y-107605860D01*
X179122917Y-107608340D01*
X179153993Y-107635661D01*
X179206692Y-107691033D01*
X179276439Y-107769255D01*
X179358655Y-107865126D01*
X179448765Y-107973446D01*
X179503917Y-108041260D01*
X179821417Y-108434998D01*
X179827138Y-108001999D01*
X179829240Y-107856305D01*
X179831556Y-107747554D01*
X179834678Y-107670359D01*
X179839199Y-107619330D01*
X179845711Y-107589080D01*
X179854808Y-107574220D01*
X179867082Y-107569362D01*
X179874763Y-107569000D01*
X179886946Y-107570362D01*
X179896506Y-107577496D01*
X179903761Y-107594974D01*
X179909028Y-107627370D01*
X179912626Y-107679257D01*
X179914870Y-107755207D01*
X179916080Y-107859793D01*
X179916573Y-107997588D01*
X179916667Y-108172250D01*
X179916016Y-108336935D01*
X179914161Y-108481987D01*
X179911246Y-108602887D01*
X179907413Y-108695117D01*
X179902808Y-108754157D01*
X179897574Y-108775489D01*
X179897447Y-108775500D01*
X179879647Y-108759688D01*
X179838898Y-108715027D01*
X179778751Y-108645679D01*
X179702760Y-108555809D01*
X179614477Y-108449578D01*
X179517453Y-108331149D01*
X179500572Y-108310383D01*
X179122917Y-107845266D01*
X179112334Y-108303351D01*
X179107924Y-108465117D01*
X179102723Y-108588424D01*
X179096139Y-108677147D01*
X179087578Y-108735159D01*
X179076449Y-108766336D01*
X179062158Y-108774551D01*
X179044114Y-108763679D01*
X179042219Y-108761830D01*
X179038143Y-108737427D01*
X179034508Y-108676712D01*
X179031482Y-108585702D01*
X179029232Y-108470418D01*
X179027928Y-108336880D01*
X179027667Y-108241178D01*
X179027667Y-107735077D01*
X178965795Y-107673205D01*
X178907887Y-107629661D01*
X178852411Y-107611407D01*
X178849378Y-107611334D01*
X178808827Y-107604285D01*
X178794834Y-107590167D01*
X178813610Y-107575260D01*
X178862114Y-107568229D01*
X178928606Y-107568424D01*
G37*
X178928606Y-107568424D02*
X179001348Y-107575194D01*
X179068602Y-107587889D01*
X179118628Y-107605860D01*
X179122917Y-107608340D01*
X179153993Y-107635661D01*
X179206692Y-107691033D01*
X179276439Y-107769255D01*
X179358655Y-107865126D01*
X179448765Y-107973446D01*
X179503917Y-108041260D01*
X179821417Y-108434998D01*
X179827138Y-108001999D01*
X179829240Y-107856305D01*
X179831556Y-107747554D01*
X179834678Y-107670359D01*
X179839199Y-107619330D01*
X179845711Y-107589080D01*
X179854808Y-107574220D01*
X179867082Y-107569362D01*
X179874763Y-107569000D01*
X179886946Y-107570362D01*
X179896506Y-107577496D01*
X179903761Y-107594974D01*
X179909028Y-107627370D01*
X179912626Y-107679257D01*
X179914870Y-107755207D01*
X179916080Y-107859793D01*
X179916573Y-107997588D01*
X179916667Y-108172250D01*
X179916016Y-108336935D01*
X179914161Y-108481987D01*
X179911246Y-108602887D01*
X179907413Y-108695117D01*
X179902808Y-108754157D01*
X179897574Y-108775489D01*
X179897447Y-108775500D01*
X179879647Y-108759688D01*
X179838898Y-108715027D01*
X179778751Y-108645679D01*
X179702760Y-108555809D01*
X179614477Y-108449578D01*
X179517453Y-108331149D01*
X179500572Y-108310383D01*
X179122917Y-107845266D01*
X179112334Y-108303351D01*
X179107924Y-108465117D01*
X179102723Y-108588424D01*
X179096139Y-108677147D01*
X179087578Y-108735159D01*
X179076449Y-108766336D01*
X179062158Y-108774551D01*
X179044114Y-108763679D01*
X179042219Y-108761830D01*
X179038143Y-108737427D01*
X179034508Y-108676712D01*
X179031482Y-108585702D01*
X179029232Y-108470418D01*
X179027928Y-108336880D01*
X179027667Y-108241178D01*
X179027667Y-107735077D01*
X178965795Y-107673205D01*
X178907887Y-107629661D01*
X178852411Y-107611407D01*
X178849378Y-107611334D01*
X178808827Y-107604285D01*
X178794834Y-107590167D01*
X178813610Y-107575260D01*
X178862114Y-107568229D01*
X178928606Y-107568424D01*
G36*
X180785896Y-107575049D02*
G01*
X180813591Y-107629879D01*
X180852702Y-107713591D01*
X180900885Y-107821050D01*
X180955796Y-107947123D01*
X181015095Y-108086674D01*
X181017252Y-108091814D01*
X181077285Y-108233580D01*
X181133468Y-108363763D01*
X181183338Y-108476854D01*
X181224435Y-108567344D01*
X181254296Y-108629725D01*
X181270461Y-108658488D01*
X181270464Y-108658490D01*
X181315682Y-108695959D01*
X181349839Y-108713681D01*
X181387005Y-108735608D01*
X181398334Y-108753810D01*
X181380548Y-108771302D01*
X181334342Y-108773684D01*
X181270440Y-108761959D01*
X181199567Y-108737135D01*
X181193990Y-108734647D01*
X181153816Y-108713242D01*
X181118114Y-108685082D01*
X181083930Y-108645138D01*
X181048309Y-108588380D01*
X181008294Y-108509777D01*
X180960930Y-108404300D01*
X180903263Y-108266920D01*
X180866899Y-108177945D01*
X180821822Y-108068461D01*
X180781849Y-107974077D01*
X180749783Y-107901198D01*
X180728427Y-107856226D01*
X180721000Y-107844639D01*
X180707431Y-107864045D01*
X180679325Y-107922748D01*
X180636622Y-108020878D01*
X180579265Y-108158566D01*
X180576361Y-108165639D01*
X180591434Y-108174985D01*
X180637721Y-108181229D01*
X180686237Y-108182834D01*
X180753041Y-108186382D01*
X180801154Y-108195519D01*
X180816250Y-108204000D01*
X180809656Y-108220557D01*
X180784906Y-108225167D01*
X180718514Y-108240026D01*
X180639597Y-108279046D01*
X180562761Y-108333894D01*
X180517661Y-108377667D01*
X180479426Y-108431297D01*
X180434493Y-108509147D01*
X180391523Y-108595991D01*
X180384515Y-108611747D01*
X180337387Y-108708169D01*
X180298191Y-108763043D01*
X180266898Y-108776401D01*
X180248838Y-108759625D01*
X180253657Y-108735465D01*
X180273391Y-108679020D01*
X180305566Y-108595993D01*
X180347707Y-108492088D01*
X180397338Y-108373009D01*
X180451984Y-108244460D01*
X180509169Y-108112145D01*
X180566418Y-107981767D01*
X180621256Y-107859030D01*
X180671207Y-107749638D01*
X180713797Y-107659294D01*
X180746549Y-107593703D01*
X180766988Y-107558568D01*
X180771959Y-107554236D01*
X180785896Y-107575049D01*
G37*
X180785896Y-107575049D02*
X180813591Y-107629879D01*
X180852702Y-107713591D01*
X180900885Y-107821050D01*
X180955796Y-107947123D01*
X181015095Y-108086674D01*
X181017252Y-108091814D01*
X181077285Y-108233580D01*
X181133468Y-108363763D01*
X181183338Y-108476854D01*
X181224435Y-108567344D01*
X181254296Y-108629725D01*
X181270461Y-108658488D01*
X181270464Y-108658490D01*
X181315682Y-108695959D01*
X181349839Y-108713681D01*
X181387005Y-108735608D01*
X181398334Y-108753810D01*
X181380548Y-108771302D01*
X181334342Y-108773684D01*
X181270440Y-108761959D01*
X181199567Y-108737135D01*
X181193990Y-108734647D01*
X181153816Y-108713242D01*
X181118114Y-108685082D01*
X181083930Y-108645138D01*
X181048309Y-108588380D01*
X181008294Y-108509777D01*
X180960930Y-108404300D01*
X180903263Y-108266920D01*
X180866899Y-108177945D01*
X180821822Y-108068461D01*
X180781849Y-107974077D01*
X180749783Y-107901198D01*
X180728427Y-107856226D01*
X180721000Y-107844639D01*
X180707431Y-107864045D01*
X180679325Y-107922748D01*
X180636622Y-108020878D01*
X180579265Y-108158566D01*
X180576361Y-108165639D01*
X180591434Y-108174985D01*
X180637721Y-108181229D01*
X180686237Y-108182834D01*
X180753041Y-108186382D01*
X180801154Y-108195519D01*
X180816250Y-108204000D01*
X180809656Y-108220557D01*
X180784906Y-108225167D01*
X180718514Y-108240026D01*
X180639597Y-108279046D01*
X180562761Y-108333894D01*
X180517661Y-108377667D01*
X180479426Y-108431297D01*
X180434493Y-108509147D01*
X180391523Y-108595991D01*
X180384515Y-108611747D01*
X180337387Y-108708169D01*
X180298191Y-108763043D01*
X180266898Y-108776401D01*
X180248838Y-108759625D01*
X180253657Y-108735465D01*
X180273391Y-108679020D01*
X180305566Y-108595993D01*
X180347707Y-108492088D01*
X180397338Y-108373009D01*
X180451984Y-108244460D01*
X180509169Y-108112145D01*
X180566418Y-107981767D01*
X180621256Y-107859030D01*
X180671207Y-107749638D01*
X180713797Y-107659294D01*
X180746549Y-107593703D01*
X180766988Y-107558568D01*
X180771959Y-107554236D01*
X180785896Y-107575049D01*
G36*
X183548545Y-107577166D02*
G01*
X183576669Y-107629934D01*
X183615813Y-107711507D01*
X183663542Y-107816668D01*
X183717418Y-107940200D01*
X183766260Y-108055834D01*
X183838824Y-108229779D01*
X183897381Y-108368748D01*
X183944089Y-108476895D01*
X183981103Y-108558368D01*
X184010580Y-108617320D01*
X184034676Y-108657903D01*
X184055549Y-108684266D01*
X184075353Y-108700561D01*
X184096247Y-108710941D01*
X184109025Y-108715645D01*
X184159657Y-108739708D01*
X184170621Y-108759404D01*
X184144580Y-108770621D01*
X184084196Y-108769248D01*
X184075063Y-108768082D01*
X184008680Y-108756116D01*
X183953298Y-108737106D01*
X183905225Y-108706321D01*
X183860771Y-108659032D01*
X183816244Y-108590506D01*
X183767952Y-108496013D01*
X183712205Y-108370822D01*
X183651446Y-108225167D01*
X183604446Y-108111600D01*
X183562326Y-108011605D01*
X183527934Y-107931799D01*
X183504116Y-107878799D01*
X183494175Y-107859600D01*
X183480066Y-107870036D01*
X183454039Y-107911723D01*
X183420652Y-107976911D01*
X183403897Y-108013058D01*
X183327544Y-108182834D01*
X183451773Y-108182834D01*
X183528192Y-108186535D01*
X183574297Y-108196048D01*
X183586927Y-108208981D01*
X183562921Y-108222946D01*
X183517910Y-108232830D01*
X183420600Y-108268785D01*
X183325492Y-108342816D01*
X183236768Y-108450712D01*
X183158613Y-108588262D01*
X183153118Y-108600039D01*
X183107911Y-108690520D01*
X183070146Y-108750336D01*
X183042669Y-108775084D01*
X183039719Y-108775500D01*
X183010912Y-108765945D01*
X183007000Y-108757378D01*
X183015154Y-108728485D01*
X183037932Y-108667995D01*
X183072810Y-108581653D01*
X183117264Y-108475201D01*
X183168769Y-108354386D01*
X183224801Y-108224951D01*
X183282836Y-108092640D01*
X183340349Y-107963198D01*
X183394816Y-107842370D01*
X183443713Y-107735900D01*
X183484515Y-107649531D01*
X183514698Y-107589009D01*
X183531737Y-107560078D01*
X183533879Y-107558417D01*
X183548545Y-107577166D01*
G37*
X183548545Y-107577166D02*
X183576669Y-107629934D01*
X183615813Y-107711507D01*
X183663542Y-107816668D01*
X183717418Y-107940200D01*
X183766260Y-108055834D01*
X183838824Y-108229779D01*
X183897381Y-108368748D01*
X183944089Y-108476895D01*
X183981103Y-108558368D01*
X184010580Y-108617320D01*
X184034676Y-108657903D01*
X184055549Y-108684266D01*
X184075353Y-108700561D01*
X184096247Y-108710941D01*
X184109025Y-108715645D01*
X184159657Y-108739708D01*
X184170621Y-108759404D01*
X184144580Y-108770621D01*
X184084196Y-108769248D01*
X184075063Y-108768082D01*
X184008680Y-108756116D01*
X183953298Y-108737106D01*
X183905225Y-108706321D01*
X183860771Y-108659032D01*
X183816244Y-108590506D01*
X183767952Y-108496013D01*
X183712205Y-108370822D01*
X183651446Y-108225167D01*
X183604446Y-108111600D01*
X183562326Y-108011605D01*
X183527934Y-107931799D01*
X183504116Y-107878799D01*
X183494175Y-107859600D01*
X183480066Y-107870036D01*
X183454039Y-107911723D01*
X183420652Y-107976911D01*
X183403897Y-108013058D01*
X183327544Y-108182834D01*
X183451773Y-108182834D01*
X183528192Y-108186535D01*
X183574297Y-108196048D01*
X183586927Y-108208981D01*
X183562921Y-108222946D01*
X183517910Y-108232830D01*
X183420600Y-108268785D01*
X183325492Y-108342816D01*
X183236768Y-108450712D01*
X183158613Y-108588262D01*
X183153118Y-108600039D01*
X183107911Y-108690520D01*
X183070146Y-108750336D01*
X183042669Y-108775084D01*
X183039719Y-108775500D01*
X183010912Y-108765945D01*
X183007000Y-108757378D01*
X183015154Y-108728485D01*
X183037932Y-108667995D01*
X183072810Y-108581653D01*
X183117264Y-108475201D01*
X183168769Y-108354386D01*
X183224801Y-108224951D01*
X183282836Y-108092640D01*
X183340349Y-107963198D01*
X183394816Y-107842370D01*
X183443713Y-107735900D01*
X183484515Y-107649531D01*
X183514698Y-107589009D01*
X183531737Y-107560078D01*
X183533879Y-107558417D01*
X183548545Y-107577166D01*
G36*
X184597484Y-107572579D02*
G01*
X184741402Y-107575773D01*
X184849842Y-107579896D01*
X184929656Y-107585628D01*
X184987700Y-107593647D01*
X185030827Y-107604632D01*
X185065125Y-107618879D01*
X185146979Y-107679766D01*
X185202698Y-107762184D01*
X185229715Y-107856058D01*
X185225468Y-107951316D01*
X185187393Y-108037885D01*
X185175654Y-108053078D01*
X185129325Y-108098628D01*
X185084540Y-108128435D01*
X185077835Y-108131027D01*
X185055720Y-108141629D01*
X185062833Y-108154808D01*
X185103711Y-108176161D01*
X185120660Y-108183845D01*
X185210152Y-108243423D01*
X185266478Y-108322422D01*
X185289332Y-108413574D01*
X185278409Y-108509611D01*
X185233405Y-108603265D01*
X185154013Y-108687269D01*
X185142183Y-108696340D01*
X185079813Y-108724865D01*
X184980136Y-108747575D01*
X184847861Y-108763802D01*
X184687701Y-108772877D01*
X184590767Y-108774571D01*
X184407117Y-108775500D01*
X184402664Y-108410339D01*
X184576789Y-108410339D01*
X184577432Y-108518983D01*
X184578908Y-108601596D01*
X184581160Y-108651901D01*
X184582850Y-108663937D01*
X184609521Y-108680523D01*
X184665888Y-108689510D01*
X184740050Y-108691150D01*
X184820103Y-108685694D01*
X184894145Y-108673396D01*
X184946775Y-108656229D01*
X185023695Y-108598309D01*
X185067929Y-108516584D01*
X185075796Y-108418080D01*
X185074978Y-108411392D01*
X185060625Y-108348690D01*
X185039531Y-108300429D01*
X185035611Y-108295066D01*
X184986659Y-108256125D01*
X184913760Y-108219321D01*
X184834928Y-108192385D01*
X184774417Y-108182974D01*
X184706310Y-108177009D01*
X184679089Y-108163391D01*
X184692696Y-108145238D01*
X184747077Y-108125668D01*
X184775559Y-108119096D01*
X184875566Y-108095518D01*
X184943147Y-108070711D01*
X184987993Y-108039174D01*
X185019796Y-107995404D01*
X185030502Y-107974366D01*
X185052220Y-107919327D01*
X185053754Y-107873576D01*
X185036814Y-107815175D01*
X184997721Y-107736028D01*
X184942032Y-107684096D01*
X184862195Y-107655068D01*
X184750655Y-107644633D01*
X184737650Y-107644448D01*
X184583917Y-107643084D01*
X184578223Y-108140062D01*
X184577035Y-108281940D01*
X184576789Y-108410339D01*
X184402664Y-108410339D01*
X184400267Y-108213788D01*
X184398000Y-108038782D01*
X184395371Y-107901514D01*
X184391491Y-107797395D01*
X184385469Y-107721834D01*
X184376416Y-107670241D01*
X184363442Y-107638024D01*
X184345657Y-107620593D01*
X184322170Y-107613358D01*
X184292092Y-107611727D01*
X184283541Y-107611658D01*
X184240316Y-107601995D01*
X184223025Y-107588454D01*
X184232573Y-107579886D01*
X184275206Y-107574168D01*
X184353314Y-107571200D01*
X184469289Y-107570880D01*
X184597484Y-107572579D01*
G37*
X184597484Y-107572579D02*
X184741402Y-107575773D01*
X184849842Y-107579896D01*
X184929656Y-107585628D01*
X184987700Y-107593647D01*
X185030827Y-107604632D01*
X185065125Y-107618879D01*
X185146979Y-107679766D01*
X185202698Y-107762184D01*
X185229715Y-107856058D01*
X185225468Y-107951316D01*
X185187393Y-108037885D01*
X185175654Y-108053078D01*
X185129325Y-108098628D01*
X185084540Y-108128435D01*
X185077835Y-108131027D01*
X185055720Y-108141629D01*
X185062833Y-108154808D01*
X185103711Y-108176161D01*
X185120660Y-108183845D01*
X185210152Y-108243423D01*
X185266478Y-108322422D01*
X185289332Y-108413574D01*
X185278409Y-108509611D01*
X185233405Y-108603265D01*
X185154013Y-108687269D01*
X185142183Y-108696340D01*
X185079813Y-108724865D01*
X184980136Y-108747575D01*
X184847861Y-108763802D01*
X184687701Y-108772877D01*
X184590767Y-108774571D01*
X184407117Y-108775500D01*
X184402664Y-108410339D01*
X184576789Y-108410339D01*
X184577432Y-108518983D01*
X184578908Y-108601596D01*
X184581160Y-108651901D01*
X184582850Y-108663937D01*
X184609521Y-108680523D01*
X184665888Y-108689510D01*
X184740050Y-108691150D01*
X184820103Y-108685694D01*
X184894145Y-108673396D01*
X184946775Y-108656229D01*
X185023695Y-108598309D01*
X185067929Y-108516584D01*
X185075796Y-108418080D01*
X185074978Y-108411392D01*
X185060625Y-108348690D01*
X185039531Y-108300429D01*
X185035611Y-108295066D01*
X184986659Y-108256125D01*
X184913760Y-108219321D01*
X184834928Y-108192385D01*
X184774417Y-108182974D01*
X184706310Y-108177009D01*
X184679089Y-108163391D01*
X184692696Y-108145238D01*
X184747077Y-108125668D01*
X184775559Y-108119096D01*
X184875566Y-108095518D01*
X184943147Y-108070711D01*
X184987993Y-108039174D01*
X185019796Y-107995404D01*
X185030502Y-107974366D01*
X185052220Y-107919327D01*
X185053754Y-107873576D01*
X185036814Y-107815175D01*
X184997721Y-107736028D01*
X184942032Y-107684096D01*
X184862195Y-107655068D01*
X184750655Y-107644633D01*
X184737650Y-107644448D01*
X184583917Y-107643084D01*
X184578223Y-108140062D01*
X184577035Y-108281940D01*
X184576789Y-108410339D01*
X184402664Y-108410339D01*
X184400267Y-108213788D01*
X184398000Y-108038782D01*
X184395371Y-107901514D01*
X184391491Y-107797395D01*
X184385469Y-107721834D01*
X184376416Y-107670241D01*
X184363442Y-107638024D01*
X184345657Y-107620593D01*
X184322170Y-107613358D01*
X184292092Y-107611727D01*
X184283541Y-107611658D01*
X184240316Y-107601995D01*
X184223025Y-107588454D01*
X184232573Y-107579886D01*
X184275206Y-107574168D01*
X184353314Y-107571200D01*
X184469289Y-107570880D01*
X184597484Y-107572579D01*
G36*
X181964002Y-107573325D02*
G01*
X182021616Y-107576350D01*
X182066643Y-107582901D01*
X182100637Y-107597690D01*
X182125155Y-107625430D01*
X182141749Y-107670833D01*
X182151976Y-107738612D01*
X182157389Y-107833479D01*
X182159544Y-107960146D01*
X182159995Y-108123327D01*
X182160021Y-108167482D01*
X182160334Y-108649548D01*
X182214628Y-108670191D01*
X182256441Y-108678201D01*
X182330181Y-108684763D01*
X182425451Y-108689199D01*
X182531853Y-108690833D01*
X182532128Y-108690834D01*
X182643876Y-108691589D01*
X182719690Y-108694368D01*
X182765950Y-108699940D01*
X182789038Y-108709075D01*
X182795333Y-108722543D01*
X182795334Y-108722584D01*
X182790075Y-108733799D01*
X182770770Y-108742083D01*
X182732125Y-108747856D01*
X182668846Y-108751535D01*
X182575641Y-108753540D01*
X182447215Y-108754290D01*
X182394169Y-108754334D01*
X181993005Y-108754334D01*
X181986711Y-108203203D01*
X181984595Y-108029914D01*
X181982058Y-107894324D01*
X181978180Y-107791801D01*
X181972043Y-107717714D01*
X181962727Y-107667430D01*
X181949312Y-107636319D01*
X181930880Y-107619748D01*
X181906510Y-107613086D01*
X181875284Y-107611701D01*
X181869292Y-107611658D01*
X181832117Y-107603066D01*
X181821667Y-107589200D01*
X181841761Y-107577384D01*
X181898657Y-107572305D01*
X181964002Y-107573325D01*
G37*
X181964002Y-107573325D02*
X182021616Y-107576350D01*
X182066643Y-107582901D01*
X182100637Y-107597690D01*
X182125155Y-107625430D01*
X182141749Y-107670833D01*
X182151976Y-107738612D01*
X182157389Y-107833479D01*
X182159544Y-107960146D01*
X182159995Y-108123327D01*
X182160021Y-108167482D01*
X182160334Y-108649548D01*
X182214628Y-108670191D01*
X182256441Y-108678201D01*
X182330181Y-108684763D01*
X182425451Y-108689199D01*
X182531853Y-108690833D01*
X182532128Y-108690834D01*
X182643876Y-108691589D01*
X182719690Y-108694368D01*
X182765950Y-108699940D01*
X182789038Y-108709075D01*
X182795333Y-108722543D01*
X182795334Y-108722584D01*
X182790075Y-108733799D01*
X182770770Y-108742083D01*
X182732125Y-108747856D01*
X182668846Y-108751535D01*
X182575641Y-108753540D01*
X182447215Y-108754290D01*
X182394169Y-108754334D01*
X181993005Y-108754334D01*
X181986711Y-108203203D01*
X181984595Y-108029914D01*
X181982058Y-107894324D01*
X181978180Y-107791801D01*
X181972043Y-107717714D01*
X181962727Y-107667430D01*
X181949312Y-107636319D01*
X181930880Y-107619748D01*
X181906510Y-107613086D01*
X181875284Y-107611701D01*
X181869292Y-107611658D01*
X181832117Y-107603066D01*
X181821667Y-107589200D01*
X181841761Y-107577384D01*
X181898657Y-107572305D01*
X181964002Y-107573325D01*
G36*
X184151319Y-100319504D02*
G01*
X184524836Y-100526969D01*
X184889196Y-100729369D01*
X185242616Y-100925712D01*
X185583310Y-101115004D01*
X185909493Y-101296254D01*
X186219378Y-101468468D01*
X186511180Y-101630654D01*
X186783115Y-101781819D01*
X187033396Y-101920971D01*
X187260238Y-102047116D01*
X187461856Y-102159263D01*
X187636464Y-102256419D01*
X187782276Y-102337591D01*
X187897508Y-102401786D01*
X187980373Y-102448012D01*
X188029087Y-102475276D01*
X188041189Y-102482125D01*
X188132961Y-102535244D01*
X184263518Y-104684920D01*
X183887486Y-104893772D01*
X183521113Y-105097158D01*
X183166130Y-105294119D01*
X182824268Y-105483700D01*
X182497259Y-105664943D01*
X182186834Y-105836890D01*
X181894724Y-105998586D01*
X181622662Y-106149073D01*
X181372378Y-106287394D01*
X181145604Y-106412593D01*
X180944071Y-106523711D01*
X180769511Y-106619792D01*
X180623655Y-106699880D01*
X180508234Y-106763017D01*
X180424981Y-106808246D01*
X180375626Y-106834611D01*
X180361745Y-106841471D01*
X180340373Y-106831998D01*
X180283751Y-106802864D01*
X180193608Y-106755018D01*
X180071671Y-106689409D01*
X179919669Y-106606988D01*
X179739330Y-106508704D01*
X179532380Y-106395507D01*
X179300548Y-106268346D01*
X179045562Y-106128172D01*
X178769149Y-105975933D01*
X178473038Y-105812579D01*
X178158955Y-105639060D01*
X177828630Y-105456327D01*
X177483790Y-105265327D01*
X177458405Y-105251250D01*
X177671635Y-105251250D01*
X179011109Y-105994521D01*
X180350584Y-106737792D01*
X180489602Y-106661271D01*
X180532344Y-106637649D01*
X180608519Y-106595442D01*
X180714559Y-106536633D01*
X180846896Y-106463202D01*
X181001959Y-106377131D01*
X181176181Y-106280399D01*
X181365992Y-106174990D01*
X181567824Y-106062882D01*
X181778107Y-105946058D01*
X181828606Y-105918000D01*
X183028591Y-105251250D01*
X181696522Y-105245801D01*
X181408538Y-105244837D01*
X181088478Y-105244141D01*
X180746601Y-105243714D01*
X180393165Y-105243555D01*
X180038426Y-105243664D01*
X179692642Y-105244042D01*
X179366072Y-105244688D01*
X179068971Y-105245603D01*
X179018045Y-105245801D01*
X177671635Y-105251250D01*
X177458405Y-105251250D01*
X177126162Y-105067011D01*
X176757474Y-104862330D01*
X176450016Y-104691466D01*
X176074142Y-104482397D01*
X175708346Y-104278756D01*
X175354329Y-104081499D01*
X175013793Y-103891579D01*
X174688439Y-103709952D01*
X174379970Y-103537572D01*
X174090087Y-103375394D01*
X173820492Y-103224372D01*
X173572888Y-103085461D01*
X173348975Y-102959615D01*
X173150456Y-102847790D01*
X172979033Y-102750940D01*
X172836407Y-102670019D01*
X172724280Y-102605982D01*
X172644354Y-102559784D01*
X172605500Y-102536648D01*
X172809966Y-102536648D01*
X172828602Y-102548395D01*
X172881593Y-102579209D01*
X172966281Y-102627608D01*
X173080012Y-102692110D01*
X173220126Y-102771232D01*
X173383969Y-102863492D01*
X173568883Y-102967407D01*
X173772213Y-103081497D01*
X173991300Y-103204278D01*
X174223488Y-103334268D01*
X174466122Y-103469984D01*
X174716544Y-103609946D01*
X174972097Y-103752669D01*
X175230125Y-103896673D01*
X175487972Y-104040475D01*
X175742980Y-104182592D01*
X175992493Y-104321543D01*
X176233854Y-104455845D01*
X176464407Y-104584015D01*
X176681495Y-104704573D01*
X176882461Y-104816034D01*
X177064650Y-104916918D01*
X177225403Y-105005742D01*
X177362064Y-105081023D01*
X177471978Y-105141280D01*
X177552487Y-105185030D01*
X177600934Y-105210791D01*
X177614792Y-105217448D01*
X177616761Y-105196959D01*
X177618661Y-105136647D01*
X177620475Y-105039025D01*
X177622189Y-104906605D01*
X177623788Y-104741897D01*
X177624657Y-104626834D01*
X177694167Y-104626834D01*
X177694167Y-105177167D01*
X179752625Y-105175496D01*
X180071833Y-105175051D01*
X180370053Y-105174263D01*
X180645157Y-105173155D01*
X180895016Y-105171749D01*
X181117501Y-105170064D01*
X181310486Y-105168124D01*
X181471840Y-105165949D01*
X181599437Y-105163560D01*
X181691147Y-105160981D01*
X181744842Y-105158231D01*
X181758395Y-105155332D01*
X181758167Y-105155246D01*
X181734344Y-105148240D01*
X181891738Y-105148240D01*
X181894478Y-105157093D01*
X181913101Y-105164004D01*
X181951822Y-105169193D01*
X182014852Y-105172880D01*
X182106404Y-105175288D01*
X182230691Y-105176636D01*
X182391925Y-105177145D01*
X182443819Y-105177167D01*
X183007000Y-105177167D01*
X183007000Y-103109889D01*
X183006917Y-102818235D01*
X183006676Y-102539012D01*
X183006663Y-102530089D01*
X183070500Y-102530089D01*
X183070557Y-102863789D01*
X183070723Y-103185567D01*
X183070992Y-103492909D01*
X183071356Y-103783303D01*
X183071809Y-104054232D01*
X183072344Y-104303184D01*
X183072953Y-104527645D01*
X183073631Y-104725100D01*
X183074369Y-104893036D01*
X183075161Y-105028938D01*
X183076001Y-105130292D01*
X183076881Y-105194585D01*
X183077794Y-105219302D01*
X183077884Y-105219500D01*
X183096941Y-105209417D01*
X183150816Y-105179975D01*
X183237324Y-105132382D01*
X183354282Y-105067847D01*
X183499507Y-104987581D01*
X183670816Y-104892792D01*
X183866024Y-104784689D01*
X184082950Y-104664482D01*
X184319409Y-104533380D01*
X184573218Y-104392592D01*
X184842193Y-104243327D01*
X185124152Y-104086794D01*
X185416910Y-103924204D01*
X185485572Y-103886062D01*
X185780561Y-103722088D01*
X186065217Y-103563666D01*
X186337358Y-103412019D01*
X186594799Y-103268372D01*
X186835358Y-103133949D01*
X187056852Y-103009977D01*
X187257098Y-102897678D01*
X187433913Y-102798277D01*
X187585113Y-102713000D01*
X187708515Y-102643070D01*
X187801937Y-102589713D01*
X187863194Y-102554153D01*
X187890105Y-102537614D01*
X187891205Y-102536635D01*
X187873645Y-102524994D01*
X187821550Y-102494197D01*
X187737401Y-102445633D01*
X187623678Y-102380688D01*
X187482861Y-102300751D01*
X187317430Y-102207210D01*
X187129865Y-102101452D01*
X186922647Y-101984865D01*
X186698256Y-101858837D01*
X186459171Y-101724756D01*
X186207874Y-101584009D01*
X185946843Y-101437985D01*
X185678560Y-101288071D01*
X185405504Y-101135656D01*
X185130155Y-100982125D01*
X184854995Y-100828869D01*
X184582502Y-100677274D01*
X184315157Y-100528728D01*
X184055440Y-100384620D01*
X183805832Y-100246336D01*
X183568811Y-100115265D01*
X183346860Y-99992794D01*
X183236247Y-99931881D01*
X183070500Y-99840678D01*
X183070500Y-102530089D01*
X183006663Y-102530089D01*
X183006289Y-102275070D01*
X183005766Y-102029260D01*
X183005119Y-101804434D01*
X183004360Y-101603443D01*
X183003501Y-101429137D01*
X183002552Y-101284369D01*
X183001526Y-101171989D01*
X183000433Y-101094849D01*
X182999285Y-101055799D01*
X182998709Y-101051431D01*
X182992185Y-101072677D01*
X182975479Y-101132056D01*
X182949339Y-101226805D01*
X182914513Y-101354160D01*
X182871749Y-101511357D01*
X182821798Y-101695631D01*
X182765407Y-101904219D01*
X182703324Y-102134357D01*
X182636299Y-102383280D01*
X182565080Y-102648225D01*
X182490416Y-102926428D01*
X182446628Y-103089782D01*
X182370228Y-103374799D01*
X182296801Y-103648483D01*
X182227102Y-103908036D01*
X182161886Y-104150656D01*
X182101907Y-104373543D01*
X182047921Y-104573897D01*
X182000683Y-104748918D01*
X181960946Y-104895806D01*
X181929467Y-105011761D01*
X181906999Y-105093981D01*
X181894299Y-105139668D01*
X181891738Y-105148240D01*
X181734344Y-105148240D01*
X181728603Y-105146552D01*
X181662113Y-105128073D01*
X181562086Y-105100714D01*
X181431910Y-105065380D01*
X181274974Y-105022974D01*
X181094667Y-104974402D01*
X180894378Y-104920567D01*
X180740369Y-104879244D01*
X181022567Y-104879244D01*
X181040475Y-104887364D01*
X181091918Y-104904095D01*
X181169462Y-104927386D01*
X181265675Y-104955185D01*
X181373123Y-104985442D01*
X181484372Y-105016106D01*
X181591989Y-105045126D01*
X181688541Y-105070451D01*
X181766593Y-105090031D01*
X181818712Y-105101814D01*
X181837335Y-105104034D01*
X181843510Y-105083448D01*
X181859768Y-105025179D01*
X181885240Y-104932433D01*
X181919054Y-104808420D01*
X181960343Y-104656347D01*
X182008236Y-104479423D01*
X182061864Y-104280854D01*
X182120357Y-104063851D01*
X182182845Y-103831619D01*
X182244913Y-103600576D01*
X182310228Y-103356866D01*
X182372085Y-103125289D01*
X182429640Y-102909057D01*
X182482048Y-102711381D01*
X182528462Y-102535475D01*
X182568039Y-102384549D01*
X182599931Y-102261817D01*
X182623295Y-102170491D01*
X182637285Y-102113783D01*
X182641125Y-102094903D01*
X182630163Y-102111959D01*
X182599993Y-102162237D01*
X182552604Y-102242312D01*
X182489987Y-102348763D01*
X182414131Y-102478167D01*
X182327026Y-102627100D01*
X182230662Y-102792140D01*
X182127028Y-102969865D01*
X182018114Y-103156851D01*
X181905910Y-103349675D01*
X181792405Y-103544915D01*
X181679590Y-103739148D01*
X181569453Y-103928952D01*
X181463985Y-104110902D01*
X181365175Y-104281577D01*
X181275013Y-104437554D01*
X181195489Y-104575409D01*
X181128592Y-104691721D01*
X181076312Y-104783066D01*
X181040639Y-104846021D01*
X181023563Y-104877164D01*
X181022567Y-104879244D01*
X180740369Y-104879244D01*
X180677495Y-104862374D01*
X180447408Y-104800726D01*
X180207504Y-104736530D01*
X179961172Y-104670688D01*
X179711802Y-104604105D01*
X179462782Y-104537686D01*
X179217501Y-104472334D01*
X178979347Y-104408955D01*
X178751710Y-104348453D01*
X178537977Y-104291731D01*
X178341538Y-104239694D01*
X178165781Y-104193247D01*
X178014096Y-104153294D01*
X177889870Y-104120739D01*
X177796493Y-104096487D01*
X177737353Y-104081442D01*
X177715931Y-104076500D01*
X177708369Y-104097564D01*
X177702392Y-104160401D01*
X177698023Y-104264480D01*
X177695281Y-104409269D01*
X177694187Y-104594239D01*
X177694167Y-104626834D01*
X177624657Y-104626834D01*
X177625257Y-104547412D01*
X177626582Y-104325664D01*
X177627748Y-104079162D01*
X177627980Y-104016043D01*
X177781140Y-104016043D01*
X177781263Y-104021206D01*
X177802545Y-104027728D01*
X177860836Y-104044104D01*
X177952239Y-104069286D01*
X178072855Y-104102230D01*
X178218788Y-104141889D01*
X178386139Y-104187215D01*
X178571012Y-104237165D01*
X178769510Y-104290690D01*
X178977734Y-104346745D01*
X179191787Y-104404283D01*
X179407772Y-104462259D01*
X179621792Y-104519626D01*
X179829948Y-104575338D01*
X180028344Y-104628349D01*
X180213083Y-104677612D01*
X180380266Y-104722081D01*
X180525996Y-104760711D01*
X180646376Y-104792454D01*
X180737508Y-104816265D01*
X180795496Y-104831097D01*
X180816250Y-104835915D01*
X180817642Y-104828659D01*
X180795084Y-104813247D01*
X180770271Y-104799009D01*
X180711743Y-104765320D01*
X180622453Y-104713884D01*
X180505355Y-104646404D01*
X180363402Y-104564581D01*
X180264213Y-104507398D01*
X180385170Y-104507398D01*
X180664210Y-104670512D01*
X180762134Y-104726826D01*
X180847568Y-104774208D01*
X180913729Y-104809034D01*
X180953832Y-104827675D01*
X180962122Y-104829772D01*
X180976648Y-104811181D01*
X181009749Y-104759937D01*
X181058962Y-104680121D01*
X181121828Y-104575819D01*
X181195887Y-104451114D01*
X181278678Y-104310090D01*
X181367741Y-104156830D01*
X181371930Y-104149585D01*
X181473778Y-103973351D01*
X181580076Y-103789355D01*
X181686226Y-103605563D01*
X181787630Y-103429937D01*
X181879688Y-103270442D01*
X181957802Y-103135042D01*
X181994680Y-103071084D01*
X182226493Y-102668917D01*
X181305832Y-103588158D01*
X180385170Y-104507398D01*
X180264213Y-104507398D01*
X180199550Y-104470120D01*
X180016751Y-104364722D01*
X179817959Y-104250090D01*
X179606129Y-104127929D01*
X179384214Y-103999939D01*
X179379316Y-103997114D01*
X179100005Y-103836436D01*
X178849857Y-103693413D01*
X178629776Y-103568544D01*
X178440665Y-103462330D01*
X178283428Y-103375270D01*
X178158967Y-103307865D01*
X178068186Y-103260616D01*
X178011988Y-103234022D01*
X177991313Y-103228519D01*
X177980764Y-103256628D01*
X177962474Y-103316422D01*
X177938475Y-103400241D01*
X177910795Y-103500422D01*
X177881466Y-103609304D01*
X177852518Y-103719223D01*
X177825981Y-103822519D01*
X177803886Y-103911529D01*
X177788262Y-103978591D01*
X177781140Y-104016043D01*
X177627980Y-104016043D01*
X177628739Y-103810419D01*
X177629541Y-103521945D01*
X177630140Y-103216253D01*
X177630519Y-102895853D01*
X177630666Y-102563258D01*
X177630667Y-102530089D01*
X177630667Y-99885500D01*
X177694167Y-99885500D01*
X177695838Y-101954542D01*
X177696291Y-102282884D01*
X177697089Y-102587962D01*
X177698211Y-102867856D01*
X177699640Y-103120647D01*
X177701355Y-103344413D01*
X177703336Y-103537234D01*
X177705565Y-103697191D01*
X177708021Y-103822362D01*
X177710685Y-103910828D01*
X177713537Y-103960669D01*
X177716344Y-103970667D01*
X177724409Y-103943038D01*
X177742628Y-103877394D01*
X177770223Y-103776619D01*
X177806415Y-103643596D01*
X177850426Y-103481207D01*
X177901476Y-103292336D01*
X177940698Y-103146923D01*
X178058113Y-103146923D01*
X178076758Y-103160024D01*
X178128128Y-103191983D01*
X178208282Y-103240497D01*
X178313280Y-103303266D01*
X178439180Y-103377989D01*
X178582042Y-103462363D01*
X178737923Y-103554088D01*
X178902885Y-103650862D01*
X179072984Y-103750384D01*
X179244281Y-103850352D01*
X179412835Y-103948465D01*
X179574704Y-104042421D01*
X179725947Y-104129919D01*
X179862624Y-104208659D01*
X179980793Y-104276337D01*
X180076514Y-104330654D01*
X180145846Y-104369307D01*
X180184847Y-104389995D01*
X180191741Y-104392883D01*
X180179091Y-104378562D01*
X180139010Y-104336900D01*
X180074034Y-104270459D01*
X179986698Y-104181801D01*
X179879537Y-104073489D01*
X179843312Y-104036986D01*
X179991499Y-104036986D01*
X179996989Y-104059699D01*
X180031643Y-104107212D01*
X180092875Y-104176320D01*
X180160391Y-104246143D01*
X180231693Y-104317735D01*
X180290809Y-104377013D01*
X180332108Y-104418335D01*
X180349953Y-104436057D01*
X180350259Y-104436334D01*
X180364848Y-104421838D01*
X180406461Y-104380278D01*
X180472207Y-104314546D01*
X180559196Y-104227532D01*
X180664539Y-104122128D01*
X180785345Y-104001225D01*
X180918725Y-103867715D01*
X181061789Y-103724488D01*
X181070367Y-103715899D01*
X181789917Y-102995465D01*
X180900917Y-103506742D01*
X180723294Y-103609041D01*
X180556669Y-103705286D01*
X180404684Y-103793353D01*
X180270981Y-103871119D01*
X180159203Y-103936460D01*
X180072992Y-103987252D01*
X180015990Y-104021372D01*
X179991840Y-104036696D01*
X179991499Y-104036986D01*
X179843312Y-104036986D01*
X179755087Y-103948084D01*
X179615881Y-103808148D01*
X179464456Y-103656243D01*
X179303346Y-103494933D01*
X179292733Y-103484317D01*
X179130583Y-103322614D01*
X178977213Y-103170596D01*
X178835235Y-103030790D01*
X178707259Y-102905724D01*
X178595897Y-102797923D01*
X178503759Y-102709915D01*
X178433457Y-102644226D01*
X178387602Y-102603383D01*
X178368806Y-102589913D01*
X178368600Y-102590025D01*
X178346933Y-102620085D01*
X178311652Y-102676799D01*
X178267221Y-102752160D01*
X178218105Y-102838158D01*
X178168769Y-102926784D01*
X178123679Y-103010031D01*
X178087299Y-103079890D01*
X178064094Y-103128351D01*
X178058113Y-103146923D01*
X177940698Y-103146923D01*
X177958787Y-103079864D01*
X177987842Y-102971964D01*
X178056883Y-102971964D01*
X178063290Y-102972734D01*
X178075981Y-102952633D01*
X178108159Y-102898741D01*
X178158146Y-102813932D01*
X178224269Y-102701082D01*
X178304849Y-102563063D01*
X178323139Y-102531657D01*
X178446144Y-102531657D01*
X179154829Y-103240579D01*
X179297493Y-103383139D01*
X179430866Y-103516122D01*
X179552001Y-103636608D01*
X179657949Y-103741682D01*
X179745765Y-103828425D01*
X179812501Y-103893921D01*
X179855211Y-103935251D01*
X179870935Y-103949500D01*
X179865637Y-103933195D01*
X179843934Y-103891537D01*
X179825689Y-103859542D01*
X179804010Y-103822268D01*
X179763657Y-103752647D01*
X179707126Y-103654993D01*
X179685660Y-103617885D01*
X179755121Y-103617885D01*
X179762113Y-103638531D01*
X179786379Y-103684988D01*
X179822087Y-103747593D01*
X179863406Y-103816688D01*
X179904502Y-103882609D01*
X179939544Y-103935697D01*
X179962700Y-103966291D01*
X179967780Y-103970151D01*
X179989996Y-103960041D01*
X180044545Y-103931057D01*
X180127153Y-103885591D01*
X180233547Y-103826032D01*
X180359455Y-103754772D01*
X180500604Y-103674200D01*
X180638191Y-103595092D01*
X180788353Y-103508186D01*
X180925931Y-103428025D01*
X181046849Y-103357022D01*
X181147036Y-103297593D01*
X181222417Y-103252154D01*
X181268918Y-103223119D01*
X181282683Y-103212961D01*
X181262008Y-103217079D01*
X181205951Y-103230772D01*
X181120002Y-103252585D01*
X181009650Y-103281063D01*
X180880386Y-103314750D01*
X180737698Y-103352193D01*
X180587077Y-103391934D01*
X180434011Y-103432520D01*
X180283990Y-103472495D01*
X180142504Y-103510404D01*
X180015043Y-103544792D01*
X179907095Y-103574203D01*
X179824151Y-103597183D01*
X179771700Y-103612277D01*
X179755121Y-103617885D01*
X179685660Y-103617885D01*
X179636913Y-103533620D01*
X179555513Y-103392842D01*
X179465421Y-103236974D01*
X179369132Y-103070328D01*
X179314546Y-102975834D01*
X179217732Y-102808475D01*
X179127173Y-102652413D01*
X179045112Y-102511481D01*
X178973794Y-102389508D01*
X178915461Y-102290328D01*
X178872358Y-102217771D01*
X178846730Y-102175669D01*
X178840577Y-102166518D01*
X178820756Y-102174721D01*
X178777689Y-102208290D01*
X178717445Y-102262050D01*
X178646093Y-102330824D01*
X178635615Y-102341305D01*
X178446144Y-102531657D01*
X178323139Y-102531657D01*
X178398213Y-102402749D01*
X178421898Y-102362000D01*
X178499432Y-102362000D01*
X178509185Y-102356932D01*
X178546365Y-102324242D01*
X178608526Y-102266301D01*
X178693219Y-102185478D01*
X178739068Y-102141134D01*
X178904696Y-102141134D01*
X178913408Y-102159849D01*
X178941088Y-102211069D01*
X178985425Y-102290705D01*
X179044109Y-102394663D01*
X179114831Y-102518852D01*
X179195281Y-102659181D01*
X179283148Y-102811557D01*
X179284630Y-102814120D01*
X179372871Y-102966351D01*
X179454299Y-103106143D01*
X179526537Y-103229467D01*
X179587206Y-103332294D01*
X179633931Y-103410596D01*
X179664334Y-103460344D01*
X179676037Y-103477509D01*
X179676063Y-103477493D01*
X179671909Y-103456656D01*
X179657926Y-103399462D01*
X179635287Y-103310431D01*
X179620370Y-103252818D01*
X179683834Y-103252818D01*
X179689777Y-103297180D01*
X179704981Y-103359743D01*
X179725512Y-103428233D01*
X179747432Y-103490377D01*
X179766804Y-103533902D01*
X179778218Y-103547096D01*
X179803796Y-103541749D01*
X179864668Y-103526795D01*
X179955259Y-103503674D01*
X180069997Y-103473822D01*
X180203308Y-103438677D01*
X180347505Y-103400244D01*
X180493119Y-103360920D01*
X180625035Y-103324695D01*
X180737802Y-103293117D01*
X180825966Y-103267729D01*
X180884075Y-103250079D01*
X180906658Y-103241732D01*
X180889465Y-103238717D01*
X180835053Y-103235983D01*
X180748534Y-103233630D01*
X180635022Y-103231760D01*
X180499629Y-103230472D01*
X180347468Y-103229867D01*
X180301195Y-103229834D01*
X180102151Y-103230452D01*
X179943780Y-103232348D01*
X179824436Y-103235583D01*
X179742475Y-103240217D01*
X179696254Y-103246313D01*
X179683834Y-103252818D01*
X179620370Y-103252818D01*
X179605162Y-103194087D01*
X179568722Y-103054950D01*
X179527140Y-102897542D01*
X179481587Y-102726385D01*
X179477449Y-102710900D01*
X179431324Y-102538598D01*
X179388604Y-102379574D01*
X179350523Y-102238369D01*
X179318310Y-102119525D01*
X179293199Y-102027585D01*
X179276419Y-101967090D01*
X179270312Y-101946347D01*
X179331488Y-101946347D01*
X179335672Y-101966723D01*
X179349315Y-102021532D01*
X179370712Y-102104424D01*
X179398160Y-102209051D01*
X179429955Y-102329065D01*
X179464392Y-102458116D01*
X179499768Y-102589857D01*
X179534378Y-102717938D01*
X179566518Y-102836012D01*
X179594484Y-102937729D01*
X179616572Y-103016741D01*
X179631079Y-103066699D01*
X179636209Y-103081589D01*
X179637558Y-103061321D01*
X179638780Y-103003988D01*
X179639829Y-102914859D01*
X179640661Y-102799201D01*
X179641230Y-102662283D01*
X179641489Y-102509375D01*
X179641500Y-102469464D01*
X179641500Y-101875167D01*
X179705000Y-101875167D01*
X179705000Y-103187500D01*
X180996167Y-103187500D01*
X180996167Y-102769366D01*
X181060851Y-102769366D01*
X181061102Y-102909824D01*
X181062148Y-103016738D01*
X181064246Y-103094501D01*
X181067652Y-103147507D01*
X181072621Y-103180148D01*
X181079411Y-103196820D01*
X181088278Y-103201916D01*
X181096709Y-103200708D01*
X181136834Y-103189174D01*
X181201307Y-103170812D01*
X181253449Y-103156031D01*
X181373148Y-103122165D01*
X181312253Y-102895541D01*
X181284735Y-102793260D01*
X181249881Y-102663895D01*
X181211404Y-102521225D01*
X181173021Y-102379032D01*
X181156984Y-102319667D01*
X181062609Y-101970417D01*
X181061138Y-102590968D01*
X181060851Y-102769366D01*
X180996167Y-102769366D01*
X180996167Y-101875167D01*
X179705000Y-101875167D01*
X179641500Y-101875167D01*
X179641500Y-101857262D01*
X179488042Y-101900353D01*
X179414261Y-101921319D01*
X179358982Y-101937501D01*
X179332428Y-101945895D01*
X179331488Y-101946347D01*
X179270312Y-101946347D01*
X179269203Y-101942582D01*
X179269073Y-101942307D01*
X179250777Y-101949728D01*
X179205317Y-101972803D01*
X179142333Y-102006271D01*
X179071467Y-102044873D01*
X179002360Y-102083348D01*
X178944652Y-102116433D01*
X178907986Y-102138870D01*
X178904696Y-102141134D01*
X178739068Y-102141134D01*
X178797995Y-102084143D01*
X178822440Y-102060284D01*
X178932161Y-102060284D01*
X178932417Y-102060203D01*
X178954474Y-102047746D01*
X179009565Y-102016230D01*
X179094049Y-101967748D01*
X179204291Y-101904392D01*
X179273492Y-101864584D01*
X179387500Y-101864584D01*
X179398084Y-101875167D01*
X179408667Y-101864584D01*
X179398084Y-101854000D01*
X179387500Y-101864584D01*
X179273492Y-101864584D01*
X179298679Y-101850095D01*
X179431151Y-101850095D01*
X179433836Y-101853728D01*
X179437538Y-101854000D01*
X179461061Y-101848721D01*
X179520733Y-101833709D01*
X179555820Y-101824653D01*
X179791431Y-101824653D01*
X179809424Y-101826727D01*
X179864603Y-101828607D01*
X179951819Y-101830225D01*
X180065926Y-101831511D01*
X180201775Y-101832396D01*
X180354219Y-101832811D01*
X180399972Y-101832834D01*
X180600951Y-101832102D01*
X180763498Y-101829928D01*
X180886753Y-101826342D01*
X180969855Y-101821372D01*
X181011940Y-101815050D01*
X181017334Y-101811347D01*
X181012293Y-101782956D01*
X180999515Y-101728373D01*
X180982516Y-101661141D01*
X180964813Y-101594805D01*
X180962494Y-101586722D01*
X181023556Y-101586722D01*
X181027067Y-101608105D01*
X181040530Y-101664695D01*
X181062456Y-101751043D01*
X181091355Y-101861696D01*
X181125738Y-101991203D01*
X181164116Y-102134113D01*
X181205000Y-102284974D01*
X181246900Y-102438334D01*
X181288327Y-102588743D01*
X181327793Y-102730748D01*
X181363808Y-102858898D01*
X181394882Y-102967743D01*
X181419526Y-103051829D01*
X181436252Y-103105707D01*
X181443489Y-103123949D01*
X181466475Y-103113955D01*
X181517085Y-103087092D01*
X181586546Y-103048105D01*
X181628777Y-103023699D01*
X181702528Y-102979059D01*
X181759236Y-102941663D01*
X181791142Y-102916793D01*
X181795289Y-102910312D01*
X181782345Y-102886112D01*
X181751396Y-102831327D01*
X181705331Y-102750911D01*
X181647040Y-102649822D01*
X181579412Y-102533013D01*
X181505336Y-102405440D01*
X181427701Y-102272059D01*
X181349397Y-102137825D01*
X181273314Y-102007694D01*
X181202340Y-101886621D01*
X181139365Y-101779561D01*
X181087278Y-101691470D01*
X181048968Y-101627304D01*
X181027325Y-101592017D01*
X181023556Y-101586722D01*
X180962494Y-101586722D01*
X180949923Y-101542910D01*
X180941469Y-101519145D01*
X180920868Y-101522669D01*
X180865761Y-101535688D01*
X180782474Y-101556522D01*
X180677332Y-101583489D01*
X180556663Y-101614911D01*
X180426791Y-101649105D01*
X180294042Y-101684393D01*
X180164742Y-101719093D01*
X180045216Y-101751524D01*
X179941792Y-101780008D01*
X179860794Y-101802862D01*
X179808548Y-101818407D01*
X179791431Y-101824653D01*
X179555820Y-101824653D01*
X179611815Y-101810201D01*
X179729568Y-101779435D01*
X179869255Y-101742649D01*
X180026136Y-101701079D01*
X180177313Y-101660813D01*
X180346060Y-101615576D01*
X180502210Y-101573363D01*
X180640949Y-101535502D01*
X180757464Y-101503321D01*
X180846940Y-101478148D01*
X180904563Y-101461313D01*
X180925123Y-101454438D01*
X180928115Y-101429164D01*
X180904768Y-101371276D01*
X180857092Y-101284319D01*
X180812971Y-101210698D01*
X180777952Y-101154711D01*
X180848857Y-101154711D01*
X180849206Y-101155500D01*
X180865345Y-101184846D01*
X180900041Y-101246184D01*
X180950624Y-101334882D01*
X181014421Y-101446308D01*
X181088760Y-101575829D01*
X181170971Y-101718813D01*
X181258380Y-101870627D01*
X181348317Y-102026638D01*
X181438110Y-102182214D01*
X181525086Y-102332722D01*
X181606575Y-102473531D01*
X181679904Y-102600006D01*
X181742402Y-102707517D01*
X181791396Y-102791429D01*
X181824216Y-102847111D01*
X181836587Y-102867524D01*
X181868666Y-102917965D01*
X182255401Y-102531230D01*
X181538925Y-101816907D01*
X181396960Y-101675893D01*
X181265425Y-101546258D01*
X181147063Y-101430632D01*
X181044616Y-101331646D01*
X180960830Y-101251930D01*
X180898445Y-101194115D01*
X180860207Y-101160832D01*
X180848857Y-101154711D01*
X180777952Y-101154711D01*
X180775475Y-101150752D01*
X180750771Y-101114251D01*
X180746252Y-101108786D01*
X180723810Y-101114393D01*
X180668643Y-101139588D01*
X180584460Y-101182405D01*
X180474970Y-101240877D01*
X180343883Y-101313038D01*
X180194909Y-101396920D01*
X180094617Y-101454280D01*
X179915869Y-101557190D01*
X179770759Y-101641024D01*
X179656155Y-101707687D01*
X179568927Y-101759083D01*
X179505944Y-101797117D01*
X179464074Y-101823694D01*
X179440187Y-101840719D01*
X179431151Y-101850095D01*
X179298679Y-101850095D01*
X179336651Y-101828252D01*
X179487491Y-101741423D01*
X179653173Y-101645994D01*
X179830058Y-101544059D01*
X179842584Y-101536839D01*
X180019447Y-101434854D01*
X180184789Y-101339449D01*
X180335057Y-101252678D01*
X180466700Y-101176594D01*
X180576166Y-101113251D01*
X180659905Y-101064703D01*
X180714363Y-101033005D01*
X180735991Y-101020209D01*
X180736201Y-101020060D01*
X180723848Y-101004444D01*
X180686778Y-100964771D01*
X180630420Y-100906703D01*
X180560206Y-100835902D01*
X180545444Y-100821176D01*
X180396009Y-100672362D01*
X180501341Y-100672362D01*
X180511708Y-100685538D01*
X180549758Y-100725885D01*
X180612991Y-100790893D01*
X180698911Y-100878046D01*
X180805019Y-100984832D01*
X180928816Y-101108738D01*
X181067805Y-101247249D01*
X181219488Y-101397854D01*
X181381366Y-101558038D01*
X181398334Y-101574797D01*
X181562032Y-101736153D01*
X181716826Y-101888127D01*
X181860098Y-102028190D01*
X181989231Y-102153814D01*
X182101611Y-102262470D01*
X182194621Y-102351629D01*
X182265645Y-102418763D01*
X182312066Y-102461342D01*
X182331269Y-102476839D01*
X182331556Y-102476831D01*
X182346033Y-102456812D01*
X182377342Y-102406749D01*
X182421388Y-102333395D01*
X182474074Y-102243507D01*
X182495597Y-102206264D01*
X182549755Y-102110907D01*
X182595359Y-102028160D01*
X182628607Y-101965113D01*
X182645699Y-101928856D01*
X182647167Y-101923616D01*
X182629469Y-101910648D01*
X182578988Y-101878867D01*
X182499641Y-101830557D01*
X182395347Y-101768003D01*
X182270022Y-101693490D01*
X182127586Y-101609302D01*
X181971956Y-101517723D01*
X181807049Y-101421038D01*
X181636785Y-101321532D01*
X181465080Y-101221489D01*
X181295853Y-101123194D01*
X181133021Y-101028931D01*
X180980502Y-100940986D01*
X180842215Y-100861642D01*
X180722077Y-100793184D01*
X180624006Y-100737896D01*
X180551920Y-100698064D01*
X180509736Y-100675971D01*
X180501341Y-100672362D01*
X180396009Y-100672362D01*
X180350070Y-100626614D01*
X179630660Y-101348861D01*
X179488013Y-101492278D01*
X179355623Y-101625783D01*
X179236266Y-101746549D01*
X179132720Y-101851746D01*
X179047760Y-101938547D01*
X178984162Y-102004122D01*
X178944704Y-102045644D01*
X178932161Y-102060284D01*
X178822440Y-102060284D01*
X178920406Y-101964667D01*
X179058003Y-101829419D01*
X179208339Y-101680769D01*
X179368964Y-101521088D01*
X179395387Y-101494742D01*
X179566653Y-101323319D01*
X179725405Y-101163271D01*
X179869414Y-101016913D01*
X179996449Y-100886560D01*
X180104282Y-100774526D01*
X180190682Y-100683128D01*
X180253419Y-100614681D01*
X180290264Y-100571499D01*
X180299391Y-100556091D01*
X180269185Y-100533783D01*
X180212468Y-100498417D01*
X180136991Y-100454228D01*
X180050505Y-100405452D01*
X179960761Y-100356322D01*
X179875509Y-100311073D01*
X179802499Y-100273941D01*
X179752029Y-100250350D01*
X179925761Y-100250350D01*
X179941888Y-100262186D01*
X179991368Y-100292982D01*
X180070763Y-100340757D01*
X180176635Y-100403531D01*
X180305546Y-100479324D01*
X180454057Y-100566155D01*
X180618730Y-100662043D01*
X180796127Y-100765009D01*
X180982810Y-100873073D01*
X181175340Y-100984252D01*
X181370279Y-101096569D01*
X181564188Y-101208041D01*
X181753631Y-101316688D01*
X181935168Y-101420531D01*
X182105361Y-101517588D01*
X182260771Y-101605880D01*
X182397962Y-101683426D01*
X182513493Y-101748245D01*
X182603928Y-101798358D01*
X182665828Y-101831784D01*
X182695754Y-101846542D01*
X182697911Y-101847067D01*
X182709164Y-101825770D01*
X182729011Y-101769997D01*
X182755402Y-101686245D01*
X182786291Y-101581012D01*
X182819472Y-101461377D01*
X182851469Y-101339962D01*
X182878444Y-101232020D01*
X182898801Y-101144409D01*
X182910947Y-101083989D01*
X182913341Y-101057758D01*
X182887895Y-101035390D01*
X182855281Y-101023828D01*
X182827014Y-101016736D01*
X182761282Y-100999562D01*
X182661502Y-100973215D01*
X182531088Y-100938606D01*
X182373458Y-100896645D01*
X182192026Y-100848242D01*
X181990210Y-100794306D01*
X181771426Y-100735749D01*
X181539089Y-100673480D01*
X181369747Y-100628045D01*
X181131302Y-100564177D01*
X180905015Y-100503832D01*
X180694172Y-100447870D01*
X180502062Y-100397151D01*
X180331971Y-100352536D01*
X180187187Y-100314882D01*
X180070996Y-100285052D01*
X179986687Y-100263903D01*
X179937545Y-100252297D01*
X179925761Y-100250350D01*
X179752029Y-100250350D01*
X179749483Y-100249160D01*
X179724211Y-100240964D01*
X179723351Y-100241355D01*
X179710580Y-100261887D01*
X179679033Y-100315138D01*
X179631013Y-100397119D01*
X179568823Y-100503837D01*
X179494767Y-100631302D01*
X179411149Y-100775521D01*
X179320271Y-100932504D01*
X179224439Y-101098260D01*
X179125954Y-101268797D01*
X179027121Y-101440124D01*
X178930244Y-101608249D01*
X178837625Y-101769181D01*
X178751568Y-101918930D01*
X178674378Y-102053503D01*
X178608357Y-102168909D01*
X178555809Y-102261158D01*
X178519038Y-102326257D01*
X178500346Y-102360216D01*
X178499432Y-102362000D01*
X178421898Y-102362000D01*
X178502685Y-102223016D01*
X178616587Y-102026737D01*
X178738246Y-101816787D01*
X178865986Y-101596038D01*
X178871607Y-101586317D01*
X178999427Y-101365108D01*
X179120977Y-101154438D01*
X179234604Y-100957193D01*
X179338655Y-100776258D01*
X179431477Y-100614517D01*
X179511415Y-100474855D01*
X179576816Y-100360158D01*
X179626027Y-100273309D01*
X179647580Y-100234750D01*
X179874334Y-100234750D01*
X179884917Y-100245334D01*
X179895500Y-100234750D01*
X179884917Y-100224167D01*
X179874334Y-100234750D01*
X179647580Y-100234750D01*
X179657394Y-100217195D01*
X179669265Y-100194699D01*
X179669313Y-100194528D01*
X179651016Y-100185063D01*
X179599344Y-100166649D01*
X179521761Y-100141474D01*
X179425732Y-100111726D01*
X179318724Y-100079595D01*
X179208202Y-100047269D01*
X179101631Y-100016938D01*
X179006477Y-99990790D01*
X178930205Y-99971015D01*
X178880281Y-99959801D01*
X178864290Y-99958490D01*
X178858201Y-99978952D01*
X178842065Y-100037075D01*
X178816759Y-100129621D01*
X178783157Y-100253351D01*
X178742134Y-100405025D01*
X178694565Y-100581405D01*
X178641325Y-100779252D01*
X178583288Y-100995326D01*
X178521329Y-101226390D01*
X178466340Y-101431766D01*
X178401455Y-101674224D01*
X178339576Y-101905367D01*
X178281603Y-102121841D01*
X178228435Y-102320292D01*
X178180972Y-102497366D01*
X178140112Y-102649710D01*
X178106754Y-102773969D01*
X178081799Y-102866789D01*
X178066144Y-102924817D01*
X178060879Y-102944084D01*
X178056883Y-102971964D01*
X177987842Y-102971964D01*
X178021580Y-102846675D01*
X178089076Y-102595652D01*
X178160495Y-102329678D01*
X178235061Y-102051635D01*
X178265330Y-101938667D01*
X178340784Y-101657056D01*
X178413270Y-101386655D01*
X178482021Y-101130315D01*
X178546271Y-100890889D01*
X178605252Y-100671229D01*
X178658198Y-100474187D01*
X178704343Y-100302616D01*
X178742920Y-100159368D01*
X178773163Y-100047295D01*
X178794304Y-99969249D01*
X178805579Y-99928083D01*
X178807166Y-99922542D01*
X178808321Y-99911415D01*
X178800856Y-99902763D01*
X178780174Y-99896277D01*
X178778570Y-99896084D01*
X178878085Y-99896084D01*
X180937251Y-100447268D01*
X182996417Y-100998453D01*
X183002066Y-100449390D01*
X183003308Y-100301441D01*
X183003890Y-100168012D01*
X183003831Y-100054768D01*
X183003151Y-99967373D01*
X183001869Y-99911493D01*
X183000197Y-99892808D01*
X182978428Y-99891798D01*
X182917215Y-99890936D01*
X182819446Y-99890226D01*
X182688008Y-99889670D01*
X182525791Y-99889272D01*
X182335684Y-99889034D01*
X182120573Y-99888960D01*
X181883348Y-99889052D01*
X181626898Y-99889313D01*
X181354110Y-99889746D01*
X181067873Y-99890355D01*
X180935382Y-99890687D01*
X178878085Y-99896084D01*
X178778570Y-99896084D01*
X178741680Y-99891647D01*
X178680779Y-99888565D01*
X178592873Y-99886722D01*
X178473369Y-99885808D01*
X178317670Y-99885514D01*
X178256510Y-99885500D01*
X177694167Y-99885500D01*
X177630667Y-99885500D01*
X177630667Y-99840678D01*
X177464920Y-99931881D01*
X177251848Y-100049293D01*
X177022406Y-100176034D01*
X176779073Y-100310716D01*
X176524329Y-100451953D01*
X176260654Y-100598355D01*
X175990528Y-100748536D01*
X175716432Y-100901108D01*
X175440844Y-101054684D01*
X175166244Y-101207875D01*
X174895113Y-101359293D01*
X174629931Y-101507552D01*
X174373177Y-101651264D01*
X174127331Y-101789040D01*
X173894873Y-101919494D01*
X173678283Y-102041237D01*
X173480041Y-102152882D01*
X173302627Y-102253041D01*
X173148521Y-102340327D01*
X173020202Y-102413351D01*
X172920150Y-102470727D01*
X172850846Y-102511066D01*
X172814769Y-102532982D01*
X172809966Y-102536648D01*
X172605500Y-102536648D01*
X172598332Y-102532380D01*
X172587099Y-102524591D01*
X172606948Y-102513484D01*
X172662067Y-102482789D01*
X172750717Y-102433473D01*
X172871158Y-102366502D01*
X173021653Y-102282842D01*
X173200462Y-102183459D01*
X173405846Y-102069319D01*
X173636067Y-101941389D01*
X173889384Y-101800635D01*
X174164061Y-101648023D01*
X174458356Y-101484519D01*
X174770533Y-101311091D01*
X175098851Y-101128703D01*
X175441571Y-100938322D01*
X175796956Y-100740914D01*
X176163265Y-100537446D01*
X176403000Y-100404288D01*
X176776314Y-100196938D01*
X177140330Y-99994751D01*
X177451350Y-99822000D01*
X177662849Y-99822000D01*
X180350800Y-99821932D01*
X183038750Y-99821864D01*
X181705250Y-99080572D01*
X181485994Y-98959033D01*
X181277108Y-98843912D01*
X181081594Y-98736823D01*
X180902454Y-98639376D01*
X180742691Y-98553187D01*
X180605308Y-98479868D01*
X180493307Y-98421033D01*
X180409690Y-98378293D01*
X180357460Y-98353262D01*
X180340000Y-98347111D01*
X180316660Y-98358443D01*
X180259347Y-98388698D01*
X180171085Y-98436221D01*
X180054897Y-98499357D01*
X179913806Y-98576453D01*
X179750834Y-98665852D01*
X179569006Y-98765902D01*
X179371344Y-98874945D01*
X179160871Y-98991329D01*
X178985550Y-99088471D01*
X177662849Y-99822000D01*
X177451350Y-99822000D01*
X177493274Y-99798714D01*
X177833370Y-99609811D01*
X178158844Y-99429029D01*
X178467921Y-99257353D01*
X178758825Y-99095771D01*
X179029783Y-98945266D01*
X179279018Y-98806827D01*
X179504757Y-98681437D01*
X179705224Y-98570083D01*
X179878644Y-98473752D01*
X180023243Y-98393428D01*
X180137245Y-98330098D01*
X180218876Y-98284747D01*
X180266361Y-98258363D01*
X180277819Y-98251992D01*
X180353222Y-98210004D01*
X184151319Y-100319504D01*
G37*
X184151319Y-100319504D02*
X184524836Y-100526969D01*
X184889196Y-100729369D01*
X185242616Y-100925712D01*
X185583310Y-101115004D01*
X185909493Y-101296254D01*
X186219378Y-101468468D01*
X186511180Y-101630654D01*
X186783115Y-101781819D01*
X187033396Y-101920971D01*
X187260238Y-102047116D01*
X187461856Y-102159263D01*
X187636464Y-102256419D01*
X187782276Y-102337591D01*
X187897508Y-102401786D01*
X187980373Y-102448012D01*
X188029087Y-102475276D01*
X188041189Y-102482125D01*
X188132961Y-102535244D01*
X184263518Y-104684920D01*
X183887486Y-104893772D01*
X183521113Y-105097158D01*
X183166130Y-105294119D01*
X182824268Y-105483700D01*
X182497259Y-105664943D01*
X182186834Y-105836890D01*
X181894724Y-105998586D01*
X181622662Y-106149073D01*
X181372378Y-106287394D01*
X181145604Y-106412593D01*
X180944071Y-106523711D01*
X180769511Y-106619792D01*
X180623655Y-106699880D01*
X180508234Y-106763017D01*
X180424981Y-106808246D01*
X180375626Y-106834611D01*
X180361745Y-106841471D01*
X180340373Y-106831998D01*
X180283751Y-106802864D01*
X180193608Y-106755018D01*
X180071671Y-106689409D01*
X179919669Y-106606988D01*
X179739330Y-106508704D01*
X179532380Y-106395507D01*
X179300548Y-106268346D01*
X179045562Y-106128172D01*
X178769149Y-105975933D01*
X178473038Y-105812579D01*
X178158955Y-105639060D01*
X177828630Y-105456327D01*
X177483790Y-105265327D01*
X177458405Y-105251250D01*
X177671635Y-105251250D01*
X179011109Y-105994521D01*
X180350584Y-106737792D01*
X180489602Y-106661271D01*
X180532344Y-106637649D01*
X180608519Y-106595442D01*
X180714559Y-106536633D01*
X180846896Y-106463202D01*
X181001959Y-106377131D01*
X181176181Y-106280399D01*
X181365992Y-106174990D01*
X181567824Y-106062882D01*
X181778107Y-105946058D01*
X181828606Y-105918000D01*
X183028591Y-105251250D01*
X181696522Y-105245801D01*
X181408538Y-105244837D01*
X181088478Y-105244141D01*
X180746601Y-105243714D01*
X180393165Y-105243555D01*
X180038426Y-105243664D01*
X179692642Y-105244042D01*
X179366072Y-105244688D01*
X179068971Y-105245603D01*
X179018045Y-105245801D01*
X177671635Y-105251250D01*
X177458405Y-105251250D01*
X177126162Y-105067011D01*
X176757474Y-104862330D01*
X176450016Y-104691466D01*
X176074142Y-104482397D01*
X175708346Y-104278756D01*
X175354329Y-104081499D01*
X175013793Y-103891579D01*
X174688439Y-103709952D01*
X174379970Y-103537572D01*
X174090087Y-103375394D01*
X173820492Y-103224372D01*
X173572888Y-103085461D01*
X173348975Y-102959615D01*
X173150456Y-102847790D01*
X172979033Y-102750940D01*
X172836407Y-102670019D01*
X172724280Y-102605982D01*
X172644354Y-102559784D01*
X172605500Y-102536648D01*
X172809966Y-102536648D01*
X172828602Y-102548395D01*
X172881593Y-102579209D01*
X172966281Y-102627608D01*
X173080012Y-102692110D01*
X173220126Y-102771232D01*
X173383969Y-102863492D01*
X173568883Y-102967407D01*
X173772213Y-103081497D01*
X173991300Y-103204278D01*
X174223488Y-103334268D01*
X174466122Y-103469984D01*
X174716544Y-103609946D01*
X174972097Y-103752669D01*
X175230125Y-103896673D01*
X175487972Y-104040475D01*
X175742980Y-104182592D01*
X175992493Y-104321543D01*
X176233854Y-104455845D01*
X176464407Y-104584015D01*
X176681495Y-104704573D01*
X176882461Y-104816034D01*
X177064650Y-104916918D01*
X177225403Y-105005742D01*
X177362064Y-105081023D01*
X177471978Y-105141280D01*
X177552487Y-105185030D01*
X177600934Y-105210791D01*
X177614792Y-105217448D01*
X177616761Y-105196959D01*
X177618661Y-105136647D01*
X177620475Y-105039025D01*
X177622189Y-104906605D01*
X177623788Y-104741897D01*
X177624657Y-104626834D01*
X177694167Y-104626834D01*
X177694167Y-105177167D01*
X179752625Y-105175496D01*
X180071833Y-105175051D01*
X180370053Y-105174263D01*
X180645157Y-105173155D01*
X180895016Y-105171749D01*
X181117501Y-105170064D01*
X181310486Y-105168124D01*
X181471840Y-105165949D01*
X181599437Y-105163560D01*
X181691147Y-105160981D01*
X181744842Y-105158231D01*
X181758395Y-105155332D01*
X181758167Y-105155246D01*
X181734344Y-105148240D01*
X181891738Y-105148240D01*
X181894478Y-105157093D01*
X181913101Y-105164004D01*
X181951822Y-105169193D01*
X182014852Y-105172880D01*
X182106404Y-105175288D01*
X182230691Y-105176636D01*
X182391925Y-105177145D01*
X182443819Y-105177167D01*
X183007000Y-105177167D01*
X183007000Y-103109889D01*
X183006917Y-102818235D01*
X183006676Y-102539012D01*
X183006663Y-102530089D01*
X183070500Y-102530089D01*
X183070557Y-102863789D01*
X183070723Y-103185567D01*
X183070992Y-103492909D01*
X183071356Y-103783303D01*
X183071809Y-104054232D01*
X183072344Y-104303184D01*
X183072953Y-104527645D01*
X183073631Y-104725100D01*
X183074369Y-104893036D01*
X183075161Y-105028938D01*
X183076001Y-105130292D01*
X183076881Y-105194585D01*
X183077794Y-105219302D01*
X183077884Y-105219500D01*
X183096941Y-105209417D01*
X183150816Y-105179975D01*
X183237324Y-105132382D01*
X183354282Y-105067847D01*
X183499507Y-104987581D01*
X183670816Y-104892792D01*
X183866024Y-104784689D01*
X184082950Y-104664482D01*
X184319409Y-104533380D01*
X184573218Y-104392592D01*
X184842193Y-104243327D01*
X185124152Y-104086794D01*
X185416910Y-103924204D01*
X185485572Y-103886062D01*
X185780561Y-103722088D01*
X186065217Y-103563666D01*
X186337358Y-103412019D01*
X186594799Y-103268372D01*
X186835358Y-103133949D01*
X187056852Y-103009977D01*
X187257098Y-102897678D01*
X187433913Y-102798277D01*
X187585113Y-102713000D01*
X187708515Y-102643070D01*
X187801937Y-102589713D01*
X187863194Y-102554153D01*
X187890105Y-102537614D01*
X187891205Y-102536635D01*
X187873645Y-102524994D01*
X187821550Y-102494197D01*
X187737401Y-102445633D01*
X187623678Y-102380688D01*
X187482861Y-102300751D01*
X187317430Y-102207210D01*
X187129865Y-102101452D01*
X186922647Y-101984865D01*
X186698256Y-101858837D01*
X186459171Y-101724756D01*
X186207874Y-101584009D01*
X185946843Y-101437985D01*
X185678560Y-101288071D01*
X185405504Y-101135656D01*
X185130155Y-100982125D01*
X184854995Y-100828869D01*
X184582502Y-100677274D01*
X184315157Y-100528728D01*
X184055440Y-100384620D01*
X183805832Y-100246336D01*
X183568811Y-100115265D01*
X183346860Y-99992794D01*
X183236247Y-99931881D01*
X183070500Y-99840678D01*
X183070500Y-102530089D01*
X183006663Y-102530089D01*
X183006289Y-102275070D01*
X183005766Y-102029260D01*
X183005119Y-101804434D01*
X183004360Y-101603443D01*
X183003501Y-101429137D01*
X183002552Y-101284369D01*
X183001526Y-101171989D01*
X183000433Y-101094849D01*
X182999285Y-101055799D01*
X182998709Y-101051431D01*
X182992185Y-101072677D01*
X182975479Y-101132056D01*
X182949339Y-101226805D01*
X182914513Y-101354160D01*
X182871749Y-101511357D01*
X182821798Y-101695631D01*
X182765407Y-101904219D01*
X182703324Y-102134357D01*
X182636299Y-102383280D01*
X182565080Y-102648225D01*
X182490416Y-102926428D01*
X182446628Y-103089782D01*
X182370228Y-103374799D01*
X182296801Y-103648483D01*
X182227102Y-103908036D01*
X182161886Y-104150656D01*
X182101907Y-104373543D01*
X182047921Y-104573897D01*
X182000683Y-104748918D01*
X181960946Y-104895806D01*
X181929467Y-105011761D01*
X181906999Y-105093981D01*
X181894299Y-105139668D01*
X181891738Y-105148240D01*
X181734344Y-105148240D01*
X181728603Y-105146552D01*
X181662113Y-105128073D01*
X181562086Y-105100714D01*
X181431910Y-105065380D01*
X181274974Y-105022974D01*
X181094667Y-104974402D01*
X180894378Y-104920567D01*
X180740369Y-104879244D01*
X181022567Y-104879244D01*
X181040475Y-104887364D01*
X181091918Y-104904095D01*
X181169462Y-104927386D01*
X181265675Y-104955185D01*
X181373123Y-104985442D01*
X181484372Y-105016106D01*
X181591989Y-105045126D01*
X181688541Y-105070451D01*
X181766593Y-105090031D01*
X181818712Y-105101814D01*
X181837335Y-105104034D01*
X181843510Y-105083448D01*
X181859768Y-105025179D01*
X181885240Y-104932433D01*
X181919054Y-104808420D01*
X181960343Y-104656347D01*
X182008236Y-104479423D01*
X182061864Y-104280854D01*
X182120357Y-104063851D01*
X182182845Y-103831619D01*
X182244913Y-103600576D01*
X182310228Y-103356866D01*
X182372085Y-103125289D01*
X182429640Y-102909057D01*
X182482048Y-102711381D01*
X182528462Y-102535475D01*
X182568039Y-102384549D01*
X182599931Y-102261817D01*
X182623295Y-102170491D01*
X182637285Y-102113783D01*
X182641125Y-102094903D01*
X182630163Y-102111959D01*
X182599993Y-102162237D01*
X182552604Y-102242312D01*
X182489987Y-102348763D01*
X182414131Y-102478167D01*
X182327026Y-102627100D01*
X182230662Y-102792140D01*
X182127028Y-102969865D01*
X182018114Y-103156851D01*
X181905910Y-103349675D01*
X181792405Y-103544915D01*
X181679590Y-103739148D01*
X181569453Y-103928952D01*
X181463985Y-104110902D01*
X181365175Y-104281577D01*
X181275013Y-104437554D01*
X181195489Y-104575409D01*
X181128592Y-104691721D01*
X181076312Y-104783066D01*
X181040639Y-104846021D01*
X181023563Y-104877164D01*
X181022567Y-104879244D01*
X180740369Y-104879244D01*
X180677495Y-104862374D01*
X180447408Y-104800726D01*
X180207504Y-104736530D01*
X179961172Y-104670688D01*
X179711802Y-104604105D01*
X179462782Y-104537686D01*
X179217501Y-104472334D01*
X178979347Y-104408955D01*
X178751710Y-104348453D01*
X178537977Y-104291731D01*
X178341538Y-104239694D01*
X178165781Y-104193247D01*
X178014096Y-104153294D01*
X177889870Y-104120739D01*
X177796493Y-104096487D01*
X177737353Y-104081442D01*
X177715931Y-104076500D01*
X177708369Y-104097564D01*
X177702392Y-104160401D01*
X177698023Y-104264480D01*
X177695281Y-104409269D01*
X177694187Y-104594239D01*
X177694167Y-104626834D01*
X177624657Y-104626834D01*
X177625257Y-104547412D01*
X177626582Y-104325664D01*
X177627748Y-104079162D01*
X177627980Y-104016043D01*
X177781140Y-104016043D01*
X177781263Y-104021206D01*
X177802545Y-104027728D01*
X177860836Y-104044104D01*
X177952239Y-104069286D01*
X178072855Y-104102230D01*
X178218788Y-104141889D01*
X178386139Y-104187215D01*
X178571012Y-104237165D01*
X178769510Y-104290690D01*
X178977734Y-104346745D01*
X179191787Y-104404283D01*
X179407772Y-104462259D01*
X179621792Y-104519626D01*
X179829948Y-104575338D01*
X180028344Y-104628349D01*
X180213083Y-104677612D01*
X180380266Y-104722081D01*
X180525996Y-104760711D01*
X180646376Y-104792454D01*
X180737508Y-104816265D01*
X180795496Y-104831097D01*
X180816250Y-104835915D01*
X180817642Y-104828659D01*
X180795084Y-104813247D01*
X180770271Y-104799009D01*
X180711743Y-104765320D01*
X180622453Y-104713884D01*
X180505355Y-104646404D01*
X180363402Y-104564581D01*
X180264213Y-104507398D01*
X180385170Y-104507398D01*
X180664210Y-104670512D01*
X180762134Y-104726826D01*
X180847568Y-104774208D01*
X180913729Y-104809034D01*
X180953832Y-104827675D01*
X180962122Y-104829772D01*
X180976648Y-104811181D01*
X181009749Y-104759937D01*
X181058962Y-104680121D01*
X181121828Y-104575819D01*
X181195887Y-104451114D01*
X181278678Y-104310090D01*
X181367741Y-104156830D01*
X181371930Y-104149585D01*
X181473778Y-103973351D01*
X181580076Y-103789355D01*
X181686226Y-103605563D01*
X181787630Y-103429937D01*
X181879688Y-103270442D01*
X181957802Y-103135042D01*
X181994680Y-103071084D01*
X182226493Y-102668917D01*
X181305832Y-103588158D01*
X180385170Y-104507398D01*
X180264213Y-104507398D01*
X180199550Y-104470120D01*
X180016751Y-104364722D01*
X179817959Y-104250090D01*
X179606129Y-104127929D01*
X179384214Y-103999939D01*
X179379316Y-103997114D01*
X179100005Y-103836436D01*
X178849857Y-103693413D01*
X178629776Y-103568544D01*
X178440665Y-103462330D01*
X178283428Y-103375270D01*
X178158967Y-103307865D01*
X178068186Y-103260616D01*
X178011988Y-103234022D01*
X177991313Y-103228519D01*
X177980764Y-103256628D01*
X177962474Y-103316422D01*
X177938475Y-103400241D01*
X177910795Y-103500422D01*
X177881466Y-103609304D01*
X177852518Y-103719223D01*
X177825981Y-103822519D01*
X177803886Y-103911529D01*
X177788262Y-103978591D01*
X177781140Y-104016043D01*
X177627980Y-104016043D01*
X177628739Y-103810419D01*
X177629541Y-103521945D01*
X177630140Y-103216253D01*
X177630519Y-102895853D01*
X177630666Y-102563258D01*
X177630667Y-102530089D01*
X177630667Y-99885500D01*
X177694167Y-99885500D01*
X177695838Y-101954542D01*
X177696291Y-102282884D01*
X177697089Y-102587962D01*
X177698211Y-102867856D01*
X177699640Y-103120647D01*
X177701355Y-103344413D01*
X177703336Y-103537234D01*
X177705565Y-103697191D01*
X177708021Y-103822362D01*
X177710685Y-103910828D01*
X177713537Y-103960669D01*
X177716344Y-103970667D01*
X177724409Y-103943038D01*
X177742628Y-103877394D01*
X177770223Y-103776619D01*
X177806415Y-103643596D01*
X177850426Y-103481207D01*
X177901476Y-103292336D01*
X177940698Y-103146923D01*
X178058113Y-103146923D01*
X178076758Y-103160024D01*
X178128128Y-103191983D01*
X178208282Y-103240497D01*
X178313280Y-103303266D01*
X178439180Y-103377989D01*
X178582042Y-103462363D01*
X178737923Y-103554088D01*
X178902885Y-103650862D01*
X179072984Y-103750384D01*
X179244281Y-103850352D01*
X179412835Y-103948465D01*
X179574704Y-104042421D01*
X179725947Y-104129919D01*
X179862624Y-104208659D01*
X179980793Y-104276337D01*
X180076514Y-104330654D01*
X180145846Y-104369307D01*
X180184847Y-104389995D01*
X180191741Y-104392883D01*
X180179091Y-104378562D01*
X180139010Y-104336900D01*
X180074034Y-104270459D01*
X179986698Y-104181801D01*
X179879537Y-104073489D01*
X179843312Y-104036986D01*
X179991499Y-104036986D01*
X179996989Y-104059699D01*
X180031643Y-104107212D01*
X180092875Y-104176320D01*
X180160391Y-104246143D01*
X180231693Y-104317735D01*
X180290809Y-104377013D01*
X180332108Y-104418335D01*
X180349953Y-104436057D01*
X180350259Y-104436334D01*
X180364848Y-104421838D01*
X180406461Y-104380278D01*
X180472207Y-104314546D01*
X180559196Y-104227532D01*
X180664539Y-104122128D01*
X180785345Y-104001225D01*
X180918725Y-103867715D01*
X181061789Y-103724488D01*
X181070367Y-103715899D01*
X181789917Y-102995465D01*
X180900917Y-103506742D01*
X180723294Y-103609041D01*
X180556669Y-103705286D01*
X180404684Y-103793353D01*
X180270981Y-103871119D01*
X180159203Y-103936460D01*
X180072992Y-103987252D01*
X180015990Y-104021372D01*
X179991840Y-104036696D01*
X179991499Y-104036986D01*
X179843312Y-104036986D01*
X179755087Y-103948084D01*
X179615881Y-103808148D01*
X179464456Y-103656243D01*
X179303346Y-103494933D01*
X179292733Y-103484317D01*
X179130583Y-103322614D01*
X178977213Y-103170596D01*
X178835235Y-103030790D01*
X178707259Y-102905724D01*
X178595897Y-102797923D01*
X178503759Y-102709915D01*
X178433457Y-102644226D01*
X178387602Y-102603383D01*
X178368806Y-102589913D01*
X178368600Y-102590025D01*
X178346933Y-102620085D01*
X178311652Y-102676799D01*
X178267221Y-102752160D01*
X178218105Y-102838158D01*
X178168769Y-102926784D01*
X178123679Y-103010031D01*
X178087299Y-103079890D01*
X178064094Y-103128351D01*
X178058113Y-103146923D01*
X177940698Y-103146923D01*
X177958787Y-103079864D01*
X177987842Y-102971964D01*
X178056883Y-102971964D01*
X178063290Y-102972734D01*
X178075981Y-102952633D01*
X178108159Y-102898741D01*
X178158146Y-102813932D01*
X178224269Y-102701082D01*
X178304849Y-102563063D01*
X178323139Y-102531657D01*
X178446144Y-102531657D01*
X179154829Y-103240579D01*
X179297493Y-103383139D01*
X179430866Y-103516122D01*
X179552001Y-103636608D01*
X179657949Y-103741682D01*
X179745765Y-103828425D01*
X179812501Y-103893921D01*
X179855211Y-103935251D01*
X179870935Y-103949500D01*
X179865637Y-103933195D01*
X179843934Y-103891537D01*
X179825689Y-103859542D01*
X179804010Y-103822268D01*
X179763657Y-103752647D01*
X179707126Y-103654993D01*
X179685660Y-103617885D01*
X179755121Y-103617885D01*
X179762113Y-103638531D01*
X179786379Y-103684988D01*
X179822087Y-103747593D01*
X179863406Y-103816688D01*
X179904502Y-103882609D01*
X179939544Y-103935697D01*
X179962700Y-103966291D01*
X179967780Y-103970151D01*
X179989996Y-103960041D01*
X180044545Y-103931057D01*
X180127153Y-103885591D01*
X180233547Y-103826032D01*
X180359455Y-103754772D01*
X180500604Y-103674200D01*
X180638191Y-103595092D01*
X180788353Y-103508186D01*
X180925931Y-103428025D01*
X181046849Y-103357022D01*
X181147036Y-103297593D01*
X181222417Y-103252154D01*
X181268918Y-103223119D01*
X181282683Y-103212961D01*
X181262008Y-103217079D01*
X181205951Y-103230772D01*
X181120002Y-103252585D01*
X181009650Y-103281063D01*
X180880386Y-103314750D01*
X180737698Y-103352193D01*
X180587077Y-103391934D01*
X180434011Y-103432520D01*
X180283990Y-103472495D01*
X180142504Y-103510404D01*
X180015043Y-103544792D01*
X179907095Y-103574203D01*
X179824151Y-103597183D01*
X179771700Y-103612277D01*
X179755121Y-103617885D01*
X179685660Y-103617885D01*
X179636913Y-103533620D01*
X179555513Y-103392842D01*
X179465421Y-103236974D01*
X179369132Y-103070328D01*
X179314546Y-102975834D01*
X179217732Y-102808475D01*
X179127173Y-102652413D01*
X179045112Y-102511481D01*
X178973794Y-102389508D01*
X178915461Y-102290328D01*
X178872358Y-102217771D01*
X178846730Y-102175669D01*
X178840577Y-102166518D01*
X178820756Y-102174721D01*
X178777689Y-102208290D01*
X178717445Y-102262050D01*
X178646093Y-102330824D01*
X178635615Y-102341305D01*
X178446144Y-102531657D01*
X178323139Y-102531657D01*
X178398213Y-102402749D01*
X178421898Y-102362000D01*
X178499432Y-102362000D01*
X178509185Y-102356932D01*
X178546365Y-102324242D01*
X178608526Y-102266301D01*
X178693219Y-102185478D01*
X178739068Y-102141134D01*
X178904696Y-102141134D01*
X178913408Y-102159849D01*
X178941088Y-102211069D01*
X178985425Y-102290705D01*
X179044109Y-102394663D01*
X179114831Y-102518852D01*
X179195281Y-102659181D01*
X179283148Y-102811557D01*
X179284630Y-102814120D01*
X179372871Y-102966351D01*
X179454299Y-103106143D01*
X179526537Y-103229467D01*
X179587206Y-103332294D01*
X179633931Y-103410596D01*
X179664334Y-103460344D01*
X179676037Y-103477509D01*
X179676063Y-103477493D01*
X179671909Y-103456656D01*
X179657926Y-103399462D01*
X179635287Y-103310431D01*
X179620370Y-103252818D01*
X179683834Y-103252818D01*
X179689777Y-103297180D01*
X179704981Y-103359743D01*
X179725512Y-103428233D01*
X179747432Y-103490377D01*
X179766804Y-103533902D01*
X179778218Y-103547096D01*
X179803796Y-103541749D01*
X179864668Y-103526795D01*
X179955259Y-103503674D01*
X180069997Y-103473822D01*
X180203308Y-103438677D01*
X180347505Y-103400244D01*
X180493119Y-103360920D01*
X180625035Y-103324695D01*
X180737802Y-103293117D01*
X180825966Y-103267729D01*
X180884075Y-103250079D01*
X180906658Y-103241732D01*
X180889465Y-103238717D01*
X180835053Y-103235983D01*
X180748534Y-103233630D01*
X180635022Y-103231760D01*
X180499629Y-103230472D01*
X180347468Y-103229867D01*
X180301195Y-103229834D01*
X180102151Y-103230452D01*
X179943780Y-103232348D01*
X179824436Y-103235583D01*
X179742475Y-103240217D01*
X179696254Y-103246313D01*
X179683834Y-103252818D01*
X179620370Y-103252818D01*
X179605162Y-103194087D01*
X179568722Y-103054950D01*
X179527140Y-102897542D01*
X179481587Y-102726385D01*
X179477449Y-102710900D01*
X179431324Y-102538598D01*
X179388604Y-102379574D01*
X179350523Y-102238369D01*
X179318310Y-102119525D01*
X179293199Y-102027585D01*
X179276419Y-101967090D01*
X179270312Y-101946347D01*
X179331488Y-101946347D01*
X179335672Y-101966723D01*
X179349315Y-102021532D01*
X179370712Y-102104424D01*
X179398160Y-102209051D01*
X179429955Y-102329065D01*
X179464392Y-102458116D01*
X179499768Y-102589857D01*
X179534378Y-102717938D01*
X179566518Y-102836012D01*
X179594484Y-102937729D01*
X179616572Y-103016741D01*
X179631079Y-103066699D01*
X179636209Y-103081589D01*
X179637558Y-103061321D01*
X179638780Y-103003988D01*
X179639829Y-102914859D01*
X179640661Y-102799201D01*
X179641230Y-102662283D01*
X179641489Y-102509375D01*
X179641500Y-102469464D01*
X179641500Y-101875167D01*
X179705000Y-101875167D01*
X179705000Y-103187500D01*
X180996167Y-103187500D01*
X180996167Y-102769366D01*
X181060851Y-102769366D01*
X181061102Y-102909824D01*
X181062148Y-103016738D01*
X181064246Y-103094501D01*
X181067652Y-103147507D01*
X181072621Y-103180148D01*
X181079411Y-103196820D01*
X181088278Y-103201916D01*
X181096709Y-103200708D01*
X181136834Y-103189174D01*
X181201307Y-103170812D01*
X181253449Y-103156031D01*
X181373148Y-103122165D01*
X181312253Y-102895541D01*
X181284735Y-102793260D01*
X181249881Y-102663895D01*
X181211404Y-102521225D01*
X181173021Y-102379032D01*
X181156984Y-102319667D01*
X181062609Y-101970417D01*
X181061138Y-102590968D01*
X181060851Y-102769366D01*
X180996167Y-102769366D01*
X180996167Y-101875167D01*
X179705000Y-101875167D01*
X179641500Y-101875167D01*
X179641500Y-101857262D01*
X179488042Y-101900353D01*
X179414261Y-101921319D01*
X179358982Y-101937501D01*
X179332428Y-101945895D01*
X179331488Y-101946347D01*
X179270312Y-101946347D01*
X179269203Y-101942582D01*
X179269073Y-101942307D01*
X179250777Y-101949728D01*
X179205317Y-101972803D01*
X179142333Y-102006271D01*
X179071467Y-102044873D01*
X179002360Y-102083348D01*
X178944652Y-102116433D01*
X178907986Y-102138870D01*
X178904696Y-102141134D01*
X178739068Y-102141134D01*
X178797995Y-102084143D01*
X178822440Y-102060284D01*
X178932161Y-102060284D01*
X178932417Y-102060203D01*
X178954474Y-102047746D01*
X179009565Y-102016230D01*
X179094049Y-101967748D01*
X179204291Y-101904392D01*
X179273492Y-101864584D01*
X179387500Y-101864584D01*
X179398084Y-101875167D01*
X179408667Y-101864584D01*
X179398084Y-101854000D01*
X179387500Y-101864584D01*
X179273492Y-101864584D01*
X179298679Y-101850095D01*
X179431151Y-101850095D01*
X179433836Y-101853728D01*
X179437538Y-101854000D01*
X179461061Y-101848721D01*
X179520733Y-101833709D01*
X179555820Y-101824653D01*
X179791431Y-101824653D01*
X179809424Y-101826727D01*
X179864603Y-101828607D01*
X179951819Y-101830225D01*
X180065926Y-101831511D01*
X180201775Y-101832396D01*
X180354219Y-101832811D01*
X180399972Y-101832834D01*
X180600951Y-101832102D01*
X180763498Y-101829928D01*
X180886753Y-101826342D01*
X180969855Y-101821372D01*
X181011940Y-101815050D01*
X181017334Y-101811347D01*
X181012293Y-101782956D01*
X180999515Y-101728373D01*
X180982516Y-101661141D01*
X180964813Y-101594805D01*
X180962494Y-101586722D01*
X181023556Y-101586722D01*
X181027067Y-101608105D01*
X181040530Y-101664695D01*
X181062456Y-101751043D01*
X181091355Y-101861696D01*
X181125738Y-101991203D01*
X181164116Y-102134113D01*
X181205000Y-102284974D01*
X181246900Y-102438334D01*
X181288327Y-102588743D01*
X181327793Y-102730748D01*
X181363808Y-102858898D01*
X181394882Y-102967743D01*
X181419526Y-103051829D01*
X181436252Y-103105707D01*
X181443489Y-103123949D01*
X181466475Y-103113955D01*
X181517085Y-103087092D01*
X181586546Y-103048105D01*
X181628777Y-103023699D01*
X181702528Y-102979059D01*
X181759236Y-102941663D01*
X181791142Y-102916793D01*
X181795289Y-102910312D01*
X181782345Y-102886112D01*
X181751396Y-102831327D01*
X181705331Y-102750911D01*
X181647040Y-102649822D01*
X181579412Y-102533013D01*
X181505336Y-102405440D01*
X181427701Y-102272059D01*
X181349397Y-102137825D01*
X181273314Y-102007694D01*
X181202340Y-101886621D01*
X181139365Y-101779561D01*
X181087278Y-101691470D01*
X181048968Y-101627304D01*
X181027325Y-101592017D01*
X181023556Y-101586722D01*
X180962494Y-101586722D01*
X180949923Y-101542910D01*
X180941469Y-101519145D01*
X180920868Y-101522669D01*
X180865761Y-101535688D01*
X180782474Y-101556522D01*
X180677332Y-101583489D01*
X180556663Y-101614911D01*
X180426791Y-101649105D01*
X180294042Y-101684393D01*
X180164742Y-101719093D01*
X180045216Y-101751524D01*
X179941792Y-101780008D01*
X179860794Y-101802862D01*
X179808548Y-101818407D01*
X179791431Y-101824653D01*
X179555820Y-101824653D01*
X179611815Y-101810201D01*
X179729568Y-101779435D01*
X179869255Y-101742649D01*
X180026136Y-101701079D01*
X180177313Y-101660813D01*
X180346060Y-101615576D01*
X180502210Y-101573363D01*
X180640949Y-101535502D01*
X180757464Y-101503321D01*
X180846940Y-101478148D01*
X180904563Y-101461313D01*
X180925123Y-101454438D01*
X180928115Y-101429164D01*
X180904768Y-101371276D01*
X180857092Y-101284319D01*
X180812971Y-101210698D01*
X180777952Y-101154711D01*
X180848857Y-101154711D01*
X180849206Y-101155500D01*
X180865345Y-101184846D01*
X180900041Y-101246184D01*
X180950624Y-101334882D01*
X181014421Y-101446308D01*
X181088760Y-101575829D01*
X181170971Y-101718813D01*
X181258380Y-101870627D01*
X181348317Y-102026638D01*
X181438110Y-102182214D01*
X181525086Y-102332722D01*
X181606575Y-102473531D01*
X181679904Y-102600006D01*
X181742402Y-102707517D01*
X181791396Y-102791429D01*
X181824216Y-102847111D01*
X181836587Y-102867524D01*
X181868666Y-102917965D01*
X182255401Y-102531230D01*
X181538925Y-101816907D01*
X181396960Y-101675893D01*
X181265425Y-101546258D01*
X181147063Y-101430632D01*
X181044616Y-101331646D01*
X180960830Y-101251930D01*
X180898445Y-101194115D01*
X180860207Y-101160832D01*
X180848857Y-101154711D01*
X180777952Y-101154711D01*
X180775475Y-101150752D01*
X180750771Y-101114251D01*
X180746252Y-101108786D01*
X180723810Y-101114393D01*
X180668643Y-101139588D01*
X180584460Y-101182405D01*
X180474970Y-101240877D01*
X180343883Y-101313038D01*
X180194909Y-101396920D01*
X180094617Y-101454280D01*
X179915869Y-101557190D01*
X179770759Y-101641024D01*
X179656155Y-101707687D01*
X179568927Y-101759083D01*
X179505944Y-101797117D01*
X179464074Y-101823694D01*
X179440187Y-101840719D01*
X179431151Y-101850095D01*
X179298679Y-101850095D01*
X179336651Y-101828252D01*
X179487491Y-101741423D01*
X179653173Y-101645994D01*
X179830058Y-101544059D01*
X179842584Y-101536839D01*
X180019447Y-101434854D01*
X180184789Y-101339449D01*
X180335057Y-101252678D01*
X180466700Y-101176594D01*
X180576166Y-101113251D01*
X180659905Y-101064703D01*
X180714363Y-101033005D01*
X180735991Y-101020209D01*
X180736201Y-101020060D01*
X180723848Y-101004444D01*
X180686778Y-100964771D01*
X180630420Y-100906703D01*
X180560206Y-100835902D01*
X180545444Y-100821176D01*
X180396009Y-100672362D01*
X180501341Y-100672362D01*
X180511708Y-100685538D01*
X180549758Y-100725885D01*
X180612991Y-100790893D01*
X180698911Y-100878046D01*
X180805019Y-100984832D01*
X180928816Y-101108738D01*
X181067805Y-101247249D01*
X181219488Y-101397854D01*
X181381366Y-101558038D01*
X181398334Y-101574797D01*
X181562032Y-101736153D01*
X181716826Y-101888127D01*
X181860098Y-102028190D01*
X181989231Y-102153814D01*
X182101611Y-102262470D01*
X182194621Y-102351629D01*
X182265645Y-102418763D01*
X182312066Y-102461342D01*
X182331269Y-102476839D01*
X182331556Y-102476831D01*
X182346033Y-102456812D01*
X182377342Y-102406749D01*
X182421388Y-102333395D01*
X182474074Y-102243507D01*
X182495597Y-102206264D01*
X182549755Y-102110907D01*
X182595359Y-102028160D01*
X182628607Y-101965113D01*
X182645699Y-101928856D01*
X182647167Y-101923616D01*
X182629469Y-101910648D01*
X182578988Y-101878867D01*
X182499641Y-101830557D01*
X182395347Y-101768003D01*
X182270022Y-101693490D01*
X182127586Y-101609302D01*
X181971956Y-101517723D01*
X181807049Y-101421038D01*
X181636785Y-101321532D01*
X181465080Y-101221489D01*
X181295853Y-101123194D01*
X181133021Y-101028931D01*
X180980502Y-100940986D01*
X180842215Y-100861642D01*
X180722077Y-100793184D01*
X180624006Y-100737896D01*
X180551920Y-100698064D01*
X180509736Y-100675971D01*
X180501341Y-100672362D01*
X180396009Y-100672362D01*
X180350070Y-100626614D01*
X179630660Y-101348861D01*
X179488013Y-101492278D01*
X179355623Y-101625783D01*
X179236266Y-101746549D01*
X179132720Y-101851746D01*
X179047760Y-101938547D01*
X178984162Y-102004122D01*
X178944704Y-102045644D01*
X178932161Y-102060284D01*
X178822440Y-102060284D01*
X178920406Y-101964667D01*
X179058003Y-101829419D01*
X179208339Y-101680769D01*
X179368964Y-101521088D01*
X179395387Y-101494742D01*
X179566653Y-101323319D01*
X179725405Y-101163271D01*
X179869414Y-101016913D01*
X179996449Y-100886560D01*
X180104282Y-100774526D01*
X180190682Y-100683128D01*
X180253419Y-100614681D01*
X180290264Y-100571499D01*
X180299391Y-100556091D01*
X180269185Y-100533783D01*
X180212468Y-100498417D01*
X180136991Y-100454228D01*
X180050505Y-100405452D01*
X179960761Y-100356322D01*
X179875509Y-100311073D01*
X179802499Y-100273941D01*
X179752029Y-100250350D01*
X179925761Y-100250350D01*
X179941888Y-100262186D01*
X179991368Y-100292982D01*
X180070763Y-100340757D01*
X180176635Y-100403531D01*
X180305546Y-100479324D01*
X180454057Y-100566155D01*
X180618730Y-100662043D01*
X180796127Y-100765009D01*
X180982810Y-100873073D01*
X181175340Y-100984252D01*
X181370279Y-101096569D01*
X181564188Y-101208041D01*
X181753631Y-101316688D01*
X181935168Y-101420531D01*
X182105361Y-101517588D01*
X182260771Y-101605880D01*
X182397962Y-101683426D01*
X182513493Y-101748245D01*
X182603928Y-101798358D01*
X182665828Y-101831784D01*
X182695754Y-101846542D01*
X182697911Y-101847067D01*
X182709164Y-101825770D01*
X182729011Y-101769997D01*
X182755402Y-101686245D01*
X182786291Y-101581012D01*
X182819472Y-101461377D01*
X182851469Y-101339962D01*
X182878444Y-101232020D01*
X182898801Y-101144409D01*
X182910947Y-101083989D01*
X182913341Y-101057758D01*
X182887895Y-101035390D01*
X182855281Y-101023828D01*
X182827014Y-101016736D01*
X182761282Y-100999562D01*
X182661502Y-100973215D01*
X182531088Y-100938606D01*
X182373458Y-100896645D01*
X182192026Y-100848242D01*
X181990210Y-100794306D01*
X181771426Y-100735749D01*
X181539089Y-100673480D01*
X181369747Y-100628045D01*
X181131302Y-100564177D01*
X180905015Y-100503832D01*
X180694172Y-100447870D01*
X180502062Y-100397151D01*
X180331971Y-100352536D01*
X180187187Y-100314882D01*
X180070996Y-100285052D01*
X179986687Y-100263903D01*
X179937545Y-100252297D01*
X179925761Y-100250350D01*
X179752029Y-100250350D01*
X179749483Y-100249160D01*
X179724211Y-100240964D01*
X179723351Y-100241355D01*
X179710580Y-100261887D01*
X179679033Y-100315138D01*
X179631013Y-100397119D01*
X179568823Y-100503837D01*
X179494767Y-100631302D01*
X179411149Y-100775521D01*
X179320271Y-100932504D01*
X179224439Y-101098260D01*
X179125954Y-101268797D01*
X179027121Y-101440124D01*
X178930244Y-101608249D01*
X178837625Y-101769181D01*
X178751568Y-101918930D01*
X178674378Y-102053503D01*
X178608357Y-102168909D01*
X178555809Y-102261158D01*
X178519038Y-102326257D01*
X178500346Y-102360216D01*
X178499432Y-102362000D01*
X178421898Y-102362000D01*
X178502685Y-102223016D01*
X178616587Y-102026737D01*
X178738246Y-101816787D01*
X178865986Y-101596038D01*
X178871607Y-101586317D01*
X178999427Y-101365108D01*
X179120977Y-101154438D01*
X179234604Y-100957193D01*
X179338655Y-100776258D01*
X179431477Y-100614517D01*
X179511415Y-100474855D01*
X179576816Y-100360158D01*
X179626027Y-100273309D01*
X179647580Y-100234750D01*
X179874334Y-100234750D01*
X179884917Y-100245334D01*
X179895500Y-100234750D01*
X179884917Y-100224167D01*
X179874334Y-100234750D01*
X179647580Y-100234750D01*
X179657394Y-100217195D01*
X179669265Y-100194699D01*
X179669313Y-100194528D01*
X179651016Y-100185063D01*
X179599344Y-100166649D01*
X179521761Y-100141474D01*
X179425732Y-100111726D01*
X179318724Y-100079595D01*
X179208202Y-100047269D01*
X179101631Y-100016938D01*
X179006477Y-99990790D01*
X178930205Y-99971015D01*
X178880281Y-99959801D01*
X178864290Y-99958490D01*
X178858201Y-99978952D01*
X178842065Y-100037075D01*
X178816759Y-100129621D01*
X178783157Y-100253351D01*
X178742134Y-100405025D01*
X178694565Y-100581405D01*
X178641325Y-100779252D01*
X178583288Y-100995326D01*
X178521329Y-101226390D01*
X178466340Y-101431766D01*
X178401455Y-101674224D01*
X178339576Y-101905367D01*
X178281603Y-102121841D01*
X178228435Y-102320292D01*
X178180972Y-102497366D01*
X178140112Y-102649710D01*
X178106754Y-102773969D01*
X178081799Y-102866789D01*
X178066144Y-102924817D01*
X178060879Y-102944084D01*
X178056883Y-102971964D01*
X177987842Y-102971964D01*
X178021580Y-102846675D01*
X178089076Y-102595652D01*
X178160495Y-102329678D01*
X178235061Y-102051635D01*
X178265330Y-101938667D01*
X178340784Y-101657056D01*
X178413270Y-101386655D01*
X178482021Y-101130315D01*
X178546271Y-100890889D01*
X178605252Y-100671229D01*
X178658198Y-100474187D01*
X178704343Y-100302616D01*
X178742920Y-100159368D01*
X178773163Y-100047295D01*
X178794304Y-99969249D01*
X178805579Y-99928083D01*
X178807166Y-99922542D01*
X178808321Y-99911415D01*
X178800856Y-99902763D01*
X178780174Y-99896277D01*
X178778570Y-99896084D01*
X178878085Y-99896084D01*
X180937251Y-100447268D01*
X182996417Y-100998453D01*
X183002066Y-100449390D01*
X183003308Y-100301441D01*
X183003890Y-100168012D01*
X183003831Y-100054768D01*
X183003151Y-99967373D01*
X183001869Y-99911493D01*
X183000197Y-99892808D01*
X182978428Y-99891798D01*
X182917215Y-99890936D01*
X182819446Y-99890226D01*
X182688008Y-99889670D01*
X182525791Y-99889272D01*
X182335684Y-99889034D01*
X182120573Y-99888960D01*
X181883348Y-99889052D01*
X181626898Y-99889313D01*
X181354110Y-99889746D01*
X181067873Y-99890355D01*
X180935382Y-99890687D01*
X178878085Y-99896084D01*
X178778570Y-99896084D01*
X178741680Y-99891647D01*
X178680779Y-99888565D01*
X178592873Y-99886722D01*
X178473369Y-99885808D01*
X178317670Y-99885514D01*
X178256510Y-99885500D01*
X177694167Y-99885500D01*
X177630667Y-99885500D01*
X177630667Y-99840678D01*
X177464920Y-99931881D01*
X177251848Y-100049293D01*
X177022406Y-100176034D01*
X176779073Y-100310716D01*
X176524329Y-100451953D01*
X176260654Y-100598355D01*
X175990528Y-100748536D01*
X175716432Y-100901108D01*
X175440844Y-101054684D01*
X175166244Y-101207875D01*
X174895113Y-101359293D01*
X174629931Y-101507552D01*
X174373177Y-101651264D01*
X174127331Y-101789040D01*
X173894873Y-101919494D01*
X173678283Y-102041237D01*
X173480041Y-102152882D01*
X173302627Y-102253041D01*
X173148521Y-102340327D01*
X173020202Y-102413351D01*
X172920150Y-102470727D01*
X172850846Y-102511066D01*
X172814769Y-102532982D01*
X172809966Y-102536648D01*
X172605500Y-102536648D01*
X172598332Y-102532380D01*
X172587099Y-102524591D01*
X172606948Y-102513484D01*
X172662067Y-102482789D01*
X172750717Y-102433473D01*
X172871158Y-102366502D01*
X173021653Y-102282842D01*
X173200462Y-102183459D01*
X173405846Y-102069319D01*
X173636067Y-101941389D01*
X173889384Y-101800635D01*
X174164061Y-101648023D01*
X174458356Y-101484519D01*
X174770533Y-101311091D01*
X175098851Y-101128703D01*
X175441571Y-100938322D01*
X175796956Y-100740914D01*
X176163265Y-100537446D01*
X176403000Y-100404288D01*
X176776314Y-100196938D01*
X177140330Y-99994751D01*
X177451350Y-99822000D01*
X177662849Y-99822000D01*
X180350800Y-99821932D01*
X183038750Y-99821864D01*
X181705250Y-99080572D01*
X181485994Y-98959033D01*
X181277108Y-98843912D01*
X181081594Y-98736823D01*
X180902454Y-98639376D01*
X180742691Y-98553187D01*
X180605308Y-98479868D01*
X180493307Y-98421033D01*
X180409690Y-98378293D01*
X180357460Y-98353262D01*
X180340000Y-98347111D01*
X180316660Y-98358443D01*
X180259347Y-98388698D01*
X180171085Y-98436221D01*
X180054897Y-98499357D01*
X179913806Y-98576453D01*
X179750834Y-98665852D01*
X179569006Y-98765902D01*
X179371344Y-98874945D01*
X179160871Y-98991329D01*
X178985550Y-99088471D01*
X177662849Y-99822000D01*
X177451350Y-99822000D01*
X177493274Y-99798714D01*
X177833370Y-99609811D01*
X178158844Y-99429029D01*
X178467921Y-99257353D01*
X178758825Y-99095771D01*
X179029783Y-98945266D01*
X179279018Y-98806827D01*
X179504757Y-98681437D01*
X179705224Y-98570083D01*
X179878644Y-98473752D01*
X180023243Y-98393428D01*
X180137245Y-98330098D01*
X180218876Y-98284747D01*
X180266361Y-98258363D01*
X180277819Y-98251992D01*
X180353222Y-98210004D01*
X184151319Y-100319504D01*
D12*
X169940000Y-60325000D02*
G75*
G03X169940000Y-60325000I-6100000J0D01*
G01*
X157190000Y-124270000D02*
X157190000Y-124426000D01*
X157190000Y-121954000D02*
X157190000Y-122110000D01*
X159791130Y-124269837D02*
G75*
G02X157709039Y-124270000I-1041130J1079837D01*
G01*
X159791130Y-122110163D02*
G75*
G03X157709039Y-122110000I-1041130J-1079837D01*
G01*
X160422335Y-124268608D02*
G75*
G02X157190000Y-124425516I-1672335J1078608D01*
G01*
X160422335Y-122111392D02*
G75*
G03X157190000Y-121954484I-1672335J-1078608D01*
G01*
X199100000Y-124270000D02*
X199100000Y-124426000D01*
X199100000Y-121954000D02*
X199100000Y-122110000D01*
X201701130Y-124269837D02*
G75*
G02X199619039Y-124270000I-1041130J1079837D01*
G01*
X201701130Y-122110163D02*
G75*
G03X199619039Y-122110000I-1041130J-1079837D01*
G01*
X202332335Y-124268608D02*
G75*
G02X199100000Y-124425516I-1672335J1078608D01*
G01*
X202332335Y-122111392D02*
G75*
G03X199100000Y-121954484I-1672335J-1078608D01*
G01*
D11*
X170807380Y-45493333D02*
X171521666Y-45493333D01*
X171664523Y-45540952D01*
X171759761Y-45636190D01*
X171807380Y-45779047D01*
X171807380Y-45874285D01*
X171140714Y-44588571D02*
X171807380Y-44588571D01*
X170759761Y-44826666D02*
X171474047Y-45064761D01*
X171474047Y-44445714D01*
X183692380Y-82041904D02*
X184501904Y-82041904D01*
X184597142Y-81994285D01*
X184644761Y-81946666D01*
X184692380Y-81851428D01*
X184692380Y-81660952D01*
X184644761Y-81565714D01*
X184597142Y-81518095D01*
X184501904Y-81470476D01*
X183692380Y-81470476D01*
X184692380Y-80470476D02*
X184692380Y-81041904D01*
X184692380Y-80756190D02*
X183692380Y-80756190D01*
X183835238Y-80851428D01*
X183930476Y-80946666D01*
X183978095Y-81041904D01*
X177633333Y-78542380D02*
X177300000Y-78066190D01*
X177061904Y-78542380D02*
X177061904Y-77542380D01*
X177442857Y-77542380D01*
X177538095Y-77590000D01*
X177585714Y-77637619D01*
X177633333Y-77732857D01*
X177633333Y-77875714D01*
X177585714Y-77970952D01*
X177538095Y-78018571D01*
X177442857Y-78066190D01*
X177061904Y-78066190D01*
X178538095Y-77542380D02*
X178061904Y-77542380D01*
X178014285Y-78018571D01*
X178061904Y-77970952D01*
X178157142Y-77923333D01*
X178395238Y-77923333D01*
X178490476Y-77970952D01*
X178538095Y-78018571D01*
X178585714Y-78113809D01*
X178585714Y-78351904D01*
X178538095Y-78447142D01*
X178490476Y-78494761D01*
X178395238Y-78542380D01*
X178157142Y-78542380D01*
X178061904Y-78494761D01*
X178014285Y-78447142D01*
X177633333Y-84922380D02*
X177300000Y-84446190D01*
X177061904Y-84922380D02*
X177061904Y-83922380D01*
X177442857Y-83922380D01*
X177538095Y-83970000D01*
X177585714Y-84017619D01*
X177633333Y-84112857D01*
X177633333Y-84255714D01*
X177585714Y-84350952D01*
X177538095Y-84398571D01*
X177442857Y-84446190D01*
X177061904Y-84446190D01*
X178490476Y-84255714D02*
X178490476Y-84922380D01*
X178252380Y-83874761D02*
X178014285Y-84589047D01*
X178633333Y-84589047D01*
X177633333Y-87716380D02*
X177300000Y-87240190D01*
X177061904Y-87716380D02*
X177061904Y-86716380D01*
X177442857Y-86716380D01*
X177538095Y-86764000D01*
X177585714Y-86811619D01*
X177633333Y-86906857D01*
X177633333Y-87049714D01*
X177585714Y-87144952D01*
X177538095Y-87192571D01*
X177442857Y-87240190D01*
X177061904Y-87240190D01*
X177966666Y-86716380D02*
X178585714Y-86716380D01*
X178252380Y-87097333D01*
X178395238Y-87097333D01*
X178490476Y-87144952D01*
X178538095Y-87192571D01*
X178585714Y-87287809D01*
X178585714Y-87525904D01*
X178538095Y-87621142D01*
X178490476Y-87668761D01*
X178395238Y-87716380D01*
X178109523Y-87716380D01*
X178014285Y-87668761D01*
X177966666Y-87621142D01*
X186630333Y-89039142D02*
X186582714Y-89086761D01*
X186439857Y-89134380D01*
X186344619Y-89134380D01*
X186201761Y-89086761D01*
X186106523Y-88991523D01*
X186058904Y-88896285D01*
X186011285Y-88705809D01*
X186011285Y-88562952D01*
X186058904Y-88372476D01*
X186106523Y-88277238D01*
X186201761Y-88182000D01*
X186344619Y-88134380D01*
X186439857Y-88134380D01*
X186582714Y-88182000D01*
X186630333Y-88229619D01*
X186963666Y-88134380D02*
X187582714Y-88134380D01*
X187249380Y-88515333D01*
X187392238Y-88515333D01*
X187487476Y-88562952D01*
X187535095Y-88610571D01*
X187582714Y-88705809D01*
X187582714Y-88943904D01*
X187535095Y-89039142D01*
X187487476Y-89086761D01*
X187392238Y-89134380D01*
X187106523Y-89134380D01*
X187011285Y-89086761D01*
X186963666Y-89039142D01*
X177526333Y-80077142D02*
X177478714Y-80124761D01*
X177335857Y-80172380D01*
X177240619Y-80172380D01*
X177097761Y-80124761D01*
X177002523Y-80029523D01*
X176954904Y-79934285D01*
X176907285Y-79743809D01*
X176907285Y-79600952D01*
X176954904Y-79410476D01*
X177002523Y-79315238D01*
X177097761Y-79220000D01*
X177240619Y-79172380D01*
X177335857Y-79172380D01*
X177478714Y-79220000D01*
X177526333Y-79267619D01*
X177907285Y-79267619D02*
X177954904Y-79220000D01*
X178050142Y-79172380D01*
X178288238Y-79172380D01*
X178383476Y-79220000D01*
X178431095Y-79267619D01*
X178478714Y-79362857D01*
X178478714Y-79458095D01*
X178431095Y-79600952D01*
X177859666Y-80172380D01*
X178478714Y-80172380D01*
X186630333Y-85991142D02*
X186582714Y-86038761D01*
X186439857Y-86086380D01*
X186344619Y-86086380D01*
X186201761Y-86038761D01*
X186106523Y-85943523D01*
X186058904Y-85848285D01*
X186011285Y-85657809D01*
X186011285Y-85514952D01*
X186058904Y-85324476D01*
X186106523Y-85229238D01*
X186201761Y-85134000D01*
X186344619Y-85086380D01*
X186439857Y-85086380D01*
X186582714Y-85134000D01*
X186630333Y-85181619D01*
X187582714Y-86086380D02*
X187011285Y-86086380D01*
X187297000Y-86086380D02*
X187297000Y-85086380D01*
X187201761Y-85229238D01*
X187106523Y-85324476D01*
X187011285Y-85372095D01*
X182872380Y-45493333D02*
X183586666Y-45493333D01*
X183729523Y-45540952D01*
X183824761Y-45636190D01*
X183872380Y-45779047D01*
X183872380Y-45874285D01*
X182872380Y-45112380D02*
X182872380Y-44493333D01*
X183253333Y-44826666D01*
X183253333Y-44683809D01*
X183300952Y-44588571D01*
X183348571Y-44540952D01*
X183443809Y-44493333D01*
X183681904Y-44493333D01*
X183777142Y-44540952D01*
X183824761Y-44588571D01*
X183872380Y-44683809D01*
X183872380Y-44969523D01*
X183824761Y-45064761D01*
X183777142Y-45112380D01*
X156043333Y-111562380D02*
X155710000Y-111086190D01*
X155471904Y-111562380D02*
X155471904Y-110562380D01*
X155852857Y-110562380D01*
X155948095Y-110610000D01*
X155995714Y-110657619D01*
X156043333Y-110752857D01*
X156043333Y-110895714D01*
X155995714Y-110990952D01*
X155948095Y-111038571D01*
X155852857Y-111086190D01*
X155471904Y-111086190D01*
X156995714Y-111562380D02*
X156424285Y-111562380D01*
X156710000Y-111562380D02*
X156710000Y-110562380D01*
X156614761Y-110705238D01*
X156519523Y-110800476D01*
X156424285Y-110848095D01*
X204922380Y-115116666D02*
X204446190Y-115450000D01*
X204922380Y-115688095D02*
X203922380Y-115688095D01*
X203922380Y-115307142D01*
X203970000Y-115211904D01*
X204017619Y-115164285D01*
X204112857Y-115116666D01*
X204255714Y-115116666D01*
X204350952Y-115164285D01*
X204398571Y-115211904D01*
X204446190Y-115307142D01*
X204446190Y-115688095D01*
X204017619Y-114735714D02*
X203970000Y-114688095D01*
X203922380Y-114592857D01*
X203922380Y-114354761D01*
X203970000Y-114259523D01*
X204017619Y-114211904D01*
X204112857Y-114164285D01*
X204208095Y-114164285D01*
X204350952Y-114211904D01*
X204922380Y-114783333D01*
X204922380Y-114164285D01*
X157296666Y-80932380D02*
X157296666Y-81646666D01*
X157249047Y-81789523D01*
X157153809Y-81884761D01*
X157010952Y-81932380D01*
X156915714Y-81932380D01*
X158296666Y-81932380D02*
X157725238Y-81932380D01*
X158010952Y-81932380D02*
X158010952Y-80932380D01*
X157915714Y-81075238D01*
X157820476Y-81170476D01*
X157725238Y-81218095D01*
X201296666Y-80932380D02*
X201296666Y-81646666D01*
X201249047Y-81789523D01*
X201153809Y-81884761D01*
X201010952Y-81932380D01*
X200915714Y-81932380D01*
X201725238Y-81027619D02*
X201772857Y-80980000D01*
X201868095Y-80932380D01*
X202106190Y-80932380D01*
X202201428Y-80980000D01*
X202249047Y-81027619D01*
X202296666Y-81122857D01*
X202296666Y-81218095D01*
X202249047Y-81360952D01*
X201677619Y-81932380D01*
X202296666Y-81932380D01*
X204160952Y-122268571D02*
X204303809Y-122316190D01*
X204351428Y-122363809D01*
X204399047Y-122459047D01*
X204399047Y-122601904D01*
X204351428Y-122697142D01*
X204303809Y-122744761D01*
X204208571Y-122792380D01*
X203827619Y-122792380D01*
X203827619Y-121792380D01*
X204160952Y-121792380D01*
X204256190Y-121840000D01*
X204303809Y-121887619D01*
X204351428Y-121982857D01*
X204351428Y-122078095D01*
X204303809Y-122173333D01*
X204256190Y-122220952D01*
X204160952Y-122268571D01*
X203827619Y-122268571D01*
X204780000Y-122506666D02*
X205256190Y-122506666D01*
X204684761Y-122792380D02*
X205018095Y-121792380D01*
X205351428Y-122792380D01*
X205541904Y-121792380D02*
X206113333Y-121792380D01*
X205827619Y-122792380D02*
X205827619Y-121792380D01*
X206303809Y-121792380D02*
X206875238Y-121792380D01*
X206589523Y-122792380D02*
X206589523Y-121792380D01*
X152153809Y-122506666D02*
X152630000Y-122506666D01*
X152058571Y-122792380D02*
X152391904Y-121792380D01*
X152725238Y-122792380D01*
X153534761Y-122792380D02*
X153058571Y-122792380D01*
X153058571Y-121792380D01*
X153868095Y-122268571D02*
X154201428Y-122268571D01*
X154344285Y-122792380D02*
X153868095Y-122792380D01*
X153868095Y-121792380D01*
X154344285Y-121792380D01*
X155344285Y-122792380D02*
X155010952Y-122316190D01*
X154772857Y-122792380D02*
X154772857Y-121792380D01*
X155153809Y-121792380D01*
X155249047Y-121840000D01*
X155296666Y-121887619D01*
X155344285Y-121982857D01*
X155344285Y-122125714D01*
X155296666Y-122220952D01*
X155249047Y-122268571D01*
X155153809Y-122316190D01*
X154772857Y-122316190D01*
X155630000Y-121792380D02*
X156201428Y-121792380D01*
X155915714Y-122792380D02*
X155915714Y-121792380D01*
X163197142Y-67977380D02*
X162720952Y-67977380D01*
X162720952Y-66977380D01*
X163482857Y-67929761D02*
X163625714Y-67977380D01*
X163863809Y-67977380D01*
X163959047Y-67929761D01*
X164006666Y-67882142D01*
X164054285Y-67786904D01*
X164054285Y-67691666D01*
X164006666Y-67596428D01*
X163959047Y-67548809D01*
X163863809Y-67501190D01*
X163673333Y-67453571D01*
X163578095Y-67405952D01*
X163530476Y-67358333D01*
X163482857Y-67263095D01*
X163482857Y-67167857D01*
X163530476Y-67072619D01*
X163578095Y-67025000D01*
X163673333Y-66977380D01*
X163911428Y-66977380D01*
X164054285Y-67025000D01*
X165006666Y-67977380D02*
X164435238Y-67977380D01*
X164720952Y-67977380D02*
X164720952Y-66977380D01*
X164625714Y-67120238D01*
X164530476Y-67215476D01*
X164435238Y-67263095D01*
X167269047Y-62936428D02*
X168030952Y-62936428D01*
X167650000Y-63317380D02*
X167650000Y-62555476D01*
X158011904Y-120682380D02*
X158011904Y-119682380D01*
X158250000Y-119682380D01*
X158392857Y-119730000D01*
X158488095Y-119825238D01*
X158535714Y-119920476D01*
X158583333Y-120110952D01*
X158583333Y-120253809D01*
X158535714Y-120444285D01*
X158488095Y-120539523D01*
X158392857Y-120634761D01*
X158250000Y-120682380D01*
X158011904Y-120682380D01*
X158964285Y-119777619D02*
X159011904Y-119730000D01*
X159107142Y-119682380D01*
X159345238Y-119682380D01*
X159440476Y-119730000D01*
X159488095Y-119777619D01*
X159535714Y-119872857D01*
X159535714Y-119968095D01*
X159488095Y-120110952D01*
X158916666Y-120682380D01*
X159535714Y-120682380D01*
X158734523Y-127452380D02*
X158258333Y-127452380D01*
X158258333Y-126452380D01*
X159067857Y-126928571D02*
X159401190Y-126928571D01*
X159544047Y-127452380D02*
X159067857Y-127452380D01*
X159067857Y-126452380D01*
X159544047Y-126452380D01*
X159972619Y-127452380D02*
X159972619Y-126452380D01*
X160210714Y-126452380D01*
X160353571Y-126500000D01*
X160448809Y-126595238D01*
X160496428Y-126690476D01*
X160544047Y-126880952D01*
X160544047Y-127023809D01*
X160496428Y-127214285D01*
X160448809Y-127309523D01*
X160353571Y-127404761D01*
X160210714Y-127452380D01*
X159972619Y-127452380D01*
X160734523Y-127547619D02*
X161496428Y-127547619D01*
X161686904Y-127166666D02*
X162163095Y-127166666D01*
X161591666Y-127452380D02*
X161925000Y-126452380D01*
X162258333Y-127452380D01*
X163067857Y-127452380D02*
X162591666Y-127452380D01*
X162591666Y-126452380D01*
X163401190Y-126928571D02*
X163734523Y-126928571D01*
X163877380Y-127452380D02*
X163401190Y-127452380D01*
X163401190Y-126452380D01*
X163877380Y-126452380D01*
X164877380Y-127452380D02*
X164544047Y-126976190D01*
X164305952Y-127452380D02*
X164305952Y-126452380D01*
X164686904Y-126452380D01*
X164782142Y-126500000D01*
X164829761Y-126547619D01*
X164877380Y-126642857D01*
X164877380Y-126785714D01*
X164829761Y-126880952D01*
X164782142Y-126928571D01*
X164686904Y-126976190D01*
X164305952Y-126976190D01*
X165163095Y-126452380D02*
X165734523Y-126452380D01*
X165448809Y-127452380D02*
X165448809Y-126452380D01*
X199921904Y-120682380D02*
X199921904Y-119682380D01*
X200160000Y-119682380D01*
X200302857Y-119730000D01*
X200398095Y-119825238D01*
X200445714Y-119920476D01*
X200493333Y-120110952D01*
X200493333Y-120253809D01*
X200445714Y-120444285D01*
X200398095Y-120539523D01*
X200302857Y-120634761D01*
X200160000Y-120682380D01*
X199921904Y-120682380D01*
X201445714Y-120682380D02*
X200874285Y-120682380D01*
X201160000Y-120682380D02*
X201160000Y-119682380D01*
X201064761Y-119825238D01*
X200969523Y-119920476D01*
X200874285Y-119968095D01*
X194770714Y-127452380D02*
X194294523Y-127452380D01*
X194294523Y-126452380D01*
X195104047Y-126928571D02*
X195437380Y-126928571D01*
X195580238Y-127452380D02*
X195104047Y-127452380D01*
X195104047Y-126452380D01*
X195580238Y-126452380D01*
X196008809Y-127452380D02*
X196008809Y-126452380D01*
X196246904Y-126452380D01*
X196389761Y-126500000D01*
X196485000Y-126595238D01*
X196532619Y-126690476D01*
X196580238Y-126880952D01*
X196580238Y-127023809D01*
X196532619Y-127214285D01*
X196485000Y-127309523D01*
X196389761Y-127404761D01*
X196246904Y-127452380D01*
X196008809Y-127452380D01*
X196770714Y-127547619D02*
X197532619Y-127547619D01*
X198104047Y-126928571D02*
X198246904Y-126976190D01*
X198294523Y-127023809D01*
X198342142Y-127119047D01*
X198342142Y-127261904D01*
X198294523Y-127357142D01*
X198246904Y-127404761D01*
X198151666Y-127452380D01*
X197770714Y-127452380D01*
X197770714Y-126452380D01*
X198104047Y-126452380D01*
X198199285Y-126500000D01*
X198246904Y-126547619D01*
X198294523Y-126642857D01*
X198294523Y-126738095D01*
X198246904Y-126833333D01*
X198199285Y-126880952D01*
X198104047Y-126928571D01*
X197770714Y-126928571D01*
X198723095Y-127166666D02*
X199199285Y-127166666D01*
X198627857Y-127452380D02*
X198961190Y-126452380D01*
X199294523Y-127452380D01*
X199485000Y-126452380D02*
X200056428Y-126452380D01*
X199770714Y-127452380D02*
X199770714Y-126452380D01*
X200246904Y-126452380D02*
X200818333Y-126452380D01*
X200532619Y-127452380D02*
X200532619Y-126452380D01*
M02*
