G04 #@! TF.GenerationSoftware,KiCad,Pcbnew,5.1.5+dfsg1-2build2*
G04 #@! TF.CreationDate,2021-12-17T19:19:48-04:00*
G04 #@! TF.ProjectId,prototyping_backplane,70726f74-6f74-4797-9069-6e675f626163,B*
G04 #@! TF.SameCoordinates,Original*
G04 #@! TF.FileFunction,Soldermask,Bot*
G04 #@! TF.FilePolarity,Negative*
%FSLAX46Y46*%
G04 Gerber Fmt 4.6, Leading zero omitted, Abs format (unit mm)*
G04 Created by KiCad (PCBNEW 5.1.5+dfsg1-2build2) date 2021-12-17 19:19:48*
%MOMM*%
%LPD*%
G04 APERTURE LIST*
%ADD10C,0.100000*%
G04 APERTURE END LIST*
D10*
G36*
X205655256Y-124931298D02*
G01*
X205761579Y-124952447D01*
X206062042Y-125076903D01*
X206332451Y-125257585D01*
X206562415Y-125487549D01*
X206743097Y-125757958D01*
X206867553Y-126058421D01*
X206931000Y-126377391D01*
X206931000Y-126702609D01*
X206867553Y-127021579D01*
X206743097Y-127322042D01*
X206562415Y-127592451D01*
X206332451Y-127822415D01*
X206062042Y-128003097D01*
X205761579Y-128127553D01*
X205655256Y-128148702D01*
X205442611Y-128191000D01*
X205117389Y-128191000D01*
X204904744Y-128148702D01*
X204798421Y-128127553D01*
X204497958Y-128003097D01*
X204227549Y-127822415D01*
X203997585Y-127592451D01*
X203816903Y-127322042D01*
X203692447Y-127021579D01*
X203629000Y-126702609D01*
X203629000Y-126377391D01*
X203692447Y-126058421D01*
X203816903Y-125757958D01*
X203997585Y-125487549D01*
X204227549Y-125257585D01*
X204497958Y-125076903D01*
X204798421Y-124952447D01*
X204904744Y-124931298D01*
X205117389Y-124889000D01*
X205442611Y-124889000D01*
X205655256Y-124931298D01*
G37*
G36*
X154505256Y-124931298D02*
G01*
X154611579Y-124952447D01*
X154912042Y-125076903D01*
X155182451Y-125257585D01*
X155412415Y-125487549D01*
X155593097Y-125757958D01*
X155717553Y-126058421D01*
X155781000Y-126377391D01*
X155781000Y-126702609D01*
X155717553Y-127021579D01*
X155593097Y-127322042D01*
X155412415Y-127592451D01*
X155182451Y-127822415D01*
X154912042Y-128003097D01*
X154611579Y-128127553D01*
X154505256Y-128148702D01*
X154292611Y-128191000D01*
X153967389Y-128191000D01*
X153754744Y-128148702D01*
X153648421Y-128127553D01*
X153347958Y-128003097D01*
X153077549Y-127822415D01*
X152847585Y-127592451D01*
X152666903Y-127322042D01*
X152542447Y-127021579D01*
X152479000Y-126702609D01*
X152479000Y-126377391D01*
X152542447Y-126058421D01*
X152666903Y-125757958D01*
X152847585Y-125487549D01*
X153077549Y-125257585D01*
X153347958Y-125076903D01*
X153648421Y-124952447D01*
X153754744Y-124931298D01*
X153967389Y-124889000D01*
X154292611Y-124889000D01*
X154505256Y-124931298D01*
G37*
G36*
X202207395Y-122275546D02*
G01*
X202380466Y-122347234D01*
X202380467Y-122347235D01*
X202536227Y-122451310D01*
X202668690Y-122583773D01*
X202668691Y-122583775D01*
X202772766Y-122739534D01*
X202844454Y-122912605D01*
X202881000Y-123096333D01*
X202881000Y-123283667D01*
X202844454Y-123467395D01*
X202772766Y-123640466D01*
X202772765Y-123640467D01*
X202668690Y-123796227D01*
X202536227Y-123928690D01*
X202457818Y-123981081D01*
X202380466Y-124032766D01*
X202207395Y-124104454D01*
X202023667Y-124141000D01*
X201836333Y-124141000D01*
X201652605Y-124104454D01*
X201479534Y-124032766D01*
X201402182Y-123981081D01*
X201323773Y-123928690D01*
X201191310Y-123796227D01*
X201087235Y-123640467D01*
X201087234Y-123640466D01*
X201015546Y-123467395D01*
X200979000Y-123283667D01*
X200979000Y-123096333D01*
X201015546Y-122912605D01*
X201087234Y-122739534D01*
X201191309Y-122583775D01*
X201191310Y-122583773D01*
X201323773Y-122451310D01*
X201479533Y-122347235D01*
X201479534Y-122347234D01*
X201652605Y-122275546D01*
X201836333Y-122239000D01*
X202023667Y-122239000D01*
X202207395Y-122275546D01*
G37*
G36*
X158431000Y-124141000D02*
G01*
X156529000Y-124141000D01*
X156529000Y-122239000D01*
X158431000Y-122239000D01*
X158431000Y-124141000D01*
G37*
G36*
X160297395Y-122275546D02*
G01*
X160470466Y-122347234D01*
X160470467Y-122347235D01*
X160626227Y-122451310D01*
X160758690Y-122583773D01*
X160758691Y-122583775D01*
X160862766Y-122739534D01*
X160934454Y-122912605D01*
X160971000Y-123096333D01*
X160971000Y-123283667D01*
X160934454Y-123467395D01*
X160862766Y-123640466D01*
X160862765Y-123640467D01*
X160758690Y-123796227D01*
X160626227Y-123928690D01*
X160547818Y-123981081D01*
X160470466Y-124032766D01*
X160297395Y-124104454D01*
X160113667Y-124141000D01*
X159926333Y-124141000D01*
X159742605Y-124104454D01*
X159569534Y-124032766D01*
X159492182Y-123981081D01*
X159413773Y-123928690D01*
X159281310Y-123796227D01*
X159177235Y-123640467D01*
X159177234Y-123640466D01*
X159105546Y-123467395D01*
X159069000Y-123283667D01*
X159069000Y-123096333D01*
X159105546Y-122912605D01*
X159177234Y-122739534D01*
X159281309Y-122583775D01*
X159281310Y-122583773D01*
X159413773Y-122451310D01*
X159569533Y-122347235D01*
X159569534Y-122347234D01*
X159742605Y-122275546D01*
X159926333Y-122239000D01*
X160113667Y-122239000D01*
X160297395Y-122275546D01*
G37*
G36*
X200341000Y-124141000D02*
G01*
X198439000Y-124141000D01*
X198439000Y-122239000D01*
X200341000Y-122239000D01*
X200341000Y-124141000D01*
G37*
G36*
X179646564Y-113509389D02*
G01*
X179837833Y-113588615D01*
X179837835Y-113588616D01*
X180009973Y-113703635D01*
X180156365Y-113850027D01*
X180177061Y-113881000D01*
X180271385Y-114022167D01*
X180350611Y-114213436D01*
X180391000Y-114416484D01*
X180391000Y-114623516D01*
X180350611Y-114826564D01*
X180271385Y-115017833D01*
X180271384Y-115017835D01*
X180156365Y-115189973D01*
X180009973Y-115336365D01*
X179837835Y-115451384D01*
X179837834Y-115451385D01*
X179837833Y-115451385D01*
X179646564Y-115530611D01*
X179443516Y-115571000D01*
X179236484Y-115571000D01*
X179033436Y-115530611D01*
X178842167Y-115451385D01*
X178842166Y-115451385D01*
X178842165Y-115451384D01*
X178670027Y-115336365D01*
X178523635Y-115189973D01*
X178408616Y-115017835D01*
X178408615Y-115017833D01*
X178329389Y-114826564D01*
X178289000Y-114623516D01*
X178289000Y-114416484D01*
X178329389Y-114213436D01*
X178408615Y-114022167D01*
X178502940Y-113881000D01*
X178523635Y-113850027D01*
X178670027Y-113703635D01*
X178842165Y-113588616D01*
X178842167Y-113588615D01*
X179033436Y-113509389D01*
X179236484Y-113469000D01*
X179443516Y-113469000D01*
X179646564Y-113509389D01*
G37*
G36*
X161538228Y-112211703D02*
G01*
X161693100Y-112275853D01*
X161832481Y-112368985D01*
X161951015Y-112487519D01*
X162044147Y-112626900D01*
X162108297Y-112781772D01*
X162141000Y-112946184D01*
X162141000Y-113113816D01*
X162108297Y-113278228D01*
X162044147Y-113433100D01*
X161951015Y-113572481D01*
X161832481Y-113691015D01*
X161693100Y-113784147D01*
X161538228Y-113848297D01*
X161373816Y-113881000D01*
X161206184Y-113881000D01*
X161041772Y-113848297D01*
X160886900Y-113784147D01*
X160747519Y-113691015D01*
X160628985Y-113572481D01*
X160535853Y-113433100D01*
X160471703Y-113278228D01*
X160439000Y-113113816D01*
X160439000Y-112946184D01*
X160471703Y-112781772D01*
X160535853Y-112626900D01*
X160628985Y-112487519D01*
X160747519Y-112368985D01*
X160886900Y-112275853D01*
X161041772Y-112211703D01*
X161206184Y-112179000D01*
X161373816Y-112179000D01*
X161538228Y-112211703D01*
G37*
G36*
X207258228Y-112211703D02*
G01*
X207413100Y-112275853D01*
X207552481Y-112368985D01*
X207671015Y-112487519D01*
X207764147Y-112626900D01*
X207828297Y-112781772D01*
X207861000Y-112946184D01*
X207861000Y-113113816D01*
X207828297Y-113278228D01*
X207764147Y-113433100D01*
X207671015Y-113572481D01*
X207552481Y-113691015D01*
X207413100Y-113784147D01*
X207258228Y-113848297D01*
X207093816Y-113881000D01*
X206926184Y-113881000D01*
X206761772Y-113848297D01*
X206606900Y-113784147D01*
X206467519Y-113691015D01*
X206348985Y-113572481D01*
X206255853Y-113433100D01*
X206191703Y-113278228D01*
X206159000Y-113113816D01*
X206159000Y-112946184D01*
X206191703Y-112781772D01*
X206255853Y-112626900D01*
X206348985Y-112487519D01*
X206467519Y-112368985D01*
X206606900Y-112275853D01*
X206761772Y-112211703D01*
X206926184Y-112179000D01*
X207093816Y-112179000D01*
X207258228Y-112211703D01*
G37*
G36*
X199638228Y-112211703D02*
G01*
X199793100Y-112275853D01*
X199932481Y-112368985D01*
X200051015Y-112487519D01*
X200144147Y-112626900D01*
X200208297Y-112781772D01*
X200241000Y-112946184D01*
X200241000Y-113113816D01*
X200208297Y-113278228D01*
X200144147Y-113433100D01*
X200051015Y-113572481D01*
X199932481Y-113691015D01*
X199793100Y-113784147D01*
X199638228Y-113848297D01*
X199473816Y-113881000D01*
X199306184Y-113881000D01*
X199141772Y-113848297D01*
X198986900Y-113784147D01*
X198847519Y-113691015D01*
X198728985Y-113572481D01*
X198635853Y-113433100D01*
X198571703Y-113278228D01*
X198539000Y-113113816D01*
X198539000Y-112946184D01*
X198571703Y-112781772D01*
X198635853Y-112626900D01*
X198728985Y-112487519D01*
X198847519Y-112368985D01*
X198986900Y-112275853D01*
X199141772Y-112211703D01*
X199306184Y-112179000D01*
X199473816Y-112179000D01*
X199638228Y-112211703D01*
G37*
G36*
X153918228Y-112211703D02*
G01*
X154073100Y-112275853D01*
X154212481Y-112368985D01*
X154331015Y-112487519D01*
X154424147Y-112626900D01*
X154488297Y-112781772D01*
X154521000Y-112946184D01*
X154521000Y-113113816D01*
X154488297Y-113278228D01*
X154424147Y-113433100D01*
X154331015Y-113572481D01*
X154212481Y-113691015D01*
X154073100Y-113784147D01*
X153918228Y-113848297D01*
X153753816Y-113881000D01*
X153586184Y-113881000D01*
X153421772Y-113848297D01*
X153266900Y-113784147D01*
X153127519Y-113691015D01*
X153008985Y-113572481D01*
X152915853Y-113433100D01*
X152851703Y-113278228D01*
X152819000Y-113113816D01*
X152819000Y-112946184D01*
X152851703Y-112781772D01*
X152915853Y-112626900D01*
X153008985Y-112487519D01*
X153127519Y-112368985D01*
X153266900Y-112275853D01*
X153421772Y-112211703D01*
X153586184Y-112179000D01*
X153753816Y-112179000D01*
X153918228Y-112211703D01*
G37*
G36*
X180391000Y-107971000D02*
G01*
X178289000Y-107971000D01*
X178289000Y-105869000D01*
X180391000Y-105869000D01*
X180391000Y-107971000D01*
G37*
G36*
X159283512Y-105503927D02*
G01*
X159432812Y-105533624D01*
X159596784Y-105601544D01*
X159744354Y-105700147D01*
X159869853Y-105825646D01*
X159968456Y-105973216D01*
X160036376Y-106137188D01*
X160071000Y-106311259D01*
X160071000Y-106488741D01*
X160036376Y-106662812D01*
X159968456Y-106826784D01*
X159869853Y-106974354D01*
X159744354Y-107099853D01*
X159596784Y-107198456D01*
X159432812Y-107266376D01*
X159283512Y-107296073D01*
X159258742Y-107301000D01*
X159081258Y-107301000D01*
X159056488Y-107296073D01*
X158907188Y-107266376D01*
X158743216Y-107198456D01*
X158595646Y-107099853D01*
X158470147Y-106974354D01*
X158371544Y-106826784D01*
X158303624Y-106662812D01*
X158269000Y-106488741D01*
X158269000Y-106311259D01*
X158303624Y-106137188D01*
X158371544Y-105973216D01*
X158470147Y-105825646D01*
X158595646Y-105700147D01*
X158743216Y-105601544D01*
X158907188Y-105533624D01*
X159056488Y-105503927D01*
X159081258Y-105499000D01*
X159258742Y-105499000D01*
X159283512Y-105503927D01*
G37*
G36*
X203283512Y-105503927D02*
G01*
X203432812Y-105533624D01*
X203596784Y-105601544D01*
X203744354Y-105700147D01*
X203869853Y-105825646D01*
X203968456Y-105973216D01*
X204036376Y-106137188D01*
X204071000Y-106311259D01*
X204071000Y-106488741D01*
X204036376Y-106662812D01*
X203968456Y-106826784D01*
X203869853Y-106974354D01*
X203744354Y-107099853D01*
X203596784Y-107198456D01*
X203432812Y-107266376D01*
X203283512Y-107296073D01*
X203258742Y-107301000D01*
X203081258Y-107301000D01*
X203056488Y-107296073D01*
X202907188Y-107266376D01*
X202743216Y-107198456D01*
X202595646Y-107099853D01*
X202470147Y-106974354D01*
X202371544Y-106826784D01*
X202303624Y-106662812D01*
X202269000Y-106488741D01*
X202269000Y-106311259D01*
X202303624Y-106137188D01*
X202371544Y-105973216D01*
X202470147Y-105825646D01*
X202595646Y-105700147D01*
X202743216Y-105601544D01*
X202907188Y-105533624D01*
X203056488Y-105503927D01*
X203081258Y-105499000D01*
X203258742Y-105499000D01*
X203283512Y-105503927D01*
G37*
G36*
X200743512Y-105503927D02*
G01*
X200892812Y-105533624D01*
X201056784Y-105601544D01*
X201204354Y-105700147D01*
X201329853Y-105825646D01*
X201428456Y-105973216D01*
X201496376Y-106137188D01*
X201531000Y-106311259D01*
X201531000Y-106488741D01*
X201496376Y-106662812D01*
X201428456Y-106826784D01*
X201329853Y-106974354D01*
X201204354Y-107099853D01*
X201056784Y-107198456D01*
X200892812Y-107266376D01*
X200743512Y-107296073D01*
X200718742Y-107301000D01*
X200541258Y-107301000D01*
X200516488Y-107296073D01*
X200367188Y-107266376D01*
X200203216Y-107198456D01*
X200055646Y-107099853D01*
X199930147Y-106974354D01*
X199831544Y-106826784D01*
X199763624Y-106662812D01*
X199729000Y-106488741D01*
X199729000Y-106311259D01*
X199763624Y-106137188D01*
X199831544Y-105973216D01*
X199930147Y-105825646D01*
X200055646Y-105700147D01*
X200203216Y-105601544D01*
X200367188Y-105533624D01*
X200516488Y-105503927D01*
X200541258Y-105499000D01*
X200718742Y-105499000D01*
X200743512Y-105503927D01*
G37*
G36*
X156743512Y-105503927D02*
G01*
X156892812Y-105533624D01*
X157056784Y-105601544D01*
X157204354Y-105700147D01*
X157329853Y-105825646D01*
X157428456Y-105973216D01*
X157496376Y-106137188D01*
X157531000Y-106311259D01*
X157531000Y-106488741D01*
X157496376Y-106662812D01*
X157428456Y-106826784D01*
X157329853Y-106974354D01*
X157204354Y-107099853D01*
X157056784Y-107198456D01*
X156892812Y-107266376D01*
X156743512Y-107296073D01*
X156718742Y-107301000D01*
X156541258Y-107301000D01*
X156516488Y-107296073D01*
X156367188Y-107266376D01*
X156203216Y-107198456D01*
X156055646Y-107099853D01*
X155930147Y-106974354D01*
X155831544Y-106826784D01*
X155763624Y-106662812D01*
X155729000Y-106488741D01*
X155729000Y-106311259D01*
X155763624Y-106137188D01*
X155831544Y-105973216D01*
X155930147Y-105825646D01*
X156055646Y-105700147D01*
X156203216Y-105601544D01*
X156367188Y-105533624D01*
X156516488Y-105503927D01*
X156541258Y-105499000D01*
X156718742Y-105499000D01*
X156743512Y-105503927D01*
G37*
G36*
X203283512Y-102963927D02*
G01*
X203432812Y-102993624D01*
X203596784Y-103061544D01*
X203744354Y-103160147D01*
X203869853Y-103285646D01*
X203968456Y-103433216D01*
X204036376Y-103597188D01*
X204071000Y-103771259D01*
X204071000Y-103948741D01*
X204036376Y-104122812D01*
X203968456Y-104286784D01*
X203869853Y-104434354D01*
X203744354Y-104559853D01*
X203596784Y-104658456D01*
X203432812Y-104726376D01*
X203283512Y-104756073D01*
X203258742Y-104761000D01*
X203081258Y-104761000D01*
X203056488Y-104756073D01*
X202907188Y-104726376D01*
X202743216Y-104658456D01*
X202595646Y-104559853D01*
X202470147Y-104434354D01*
X202371544Y-104286784D01*
X202303624Y-104122812D01*
X202269000Y-103948741D01*
X202269000Y-103771259D01*
X202303624Y-103597188D01*
X202371544Y-103433216D01*
X202470147Y-103285646D01*
X202595646Y-103160147D01*
X202743216Y-103061544D01*
X202907188Y-102993624D01*
X203056488Y-102963927D01*
X203081258Y-102959000D01*
X203258742Y-102959000D01*
X203283512Y-102963927D01*
G37*
G36*
X159283512Y-102963927D02*
G01*
X159432812Y-102993624D01*
X159596784Y-103061544D01*
X159744354Y-103160147D01*
X159869853Y-103285646D01*
X159968456Y-103433216D01*
X160036376Y-103597188D01*
X160071000Y-103771259D01*
X160071000Y-103948741D01*
X160036376Y-104122812D01*
X159968456Y-104286784D01*
X159869853Y-104434354D01*
X159744354Y-104559853D01*
X159596784Y-104658456D01*
X159432812Y-104726376D01*
X159283512Y-104756073D01*
X159258742Y-104761000D01*
X159081258Y-104761000D01*
X159056488Y-104756073D01*
X158907188Y-104726376D01*
X158743216Y-104658456D01*
X158595646Y-104559853D01*
X158470147Y-104434354D01*
X158371544Y-104286784D01*
X158303624Y-104122812D01*
X158269000Y-103948741D01*
X158269000Y-103771259D01*
X158303624Y-103597188D01*
X158371544Y-103433216D01*
X158470147Y-103285646D01*
X158595646Y-103160147D01*
X158743216Y-103061544D01*
X158907188Y-102993624D01*
X159056488Y-102963927D01*
X159081258Y-102959000D01*
X159258742Y-102959000D01*
X159283512Y-102963927D01*
G37*
G36*
X200743512Y-102963927D02*
G01*
X200892812Y-102993624D01*
X201056784Y-103061544D01*
X201204354Y-103160147D01*
X201329853Y-103285646D01*
X201428456Y-103433216D01*
X201496376Y-103597188D01*
X201531000Y-103771259D01*
X201531000Y-103948741D01*
X201496376Y-104122812D01*
X201428456Y-104286784D01*
X201329853Y-104434354D01*
X201204354Y-104559853D01*
X201056784Y-104658456D01*
X200892812Y-104726376D01*
X200743512Y-104756073D01*
X200718742Y-104761000D01*
X200541258Y-104761000D01*
X200516488Y-104756073D01*
X200367188Y-104726376D01*
X200203216Y-104658456D01*
X200055646Y-104559853D01*
X199930147Y-104434354D01*
X199831544Y-104286784D01*
X199763624Y-104122812D01*
X199729000Y-103948741D01*
X199729000Y-103771259D01*
X199763624Y-103597188D01*
X199831544Y-103433216D01*
X199930147Y-103285646D01*
X200055646Y-103160147D01*
X200203216Y-103061544D01*
X200367188Y-102993624D01*
X200516488Y-102963927D01*
X200541258Y-102959000D01*
X200718742Y-102959000D01*
X200743512Y-102963927D01*
G37*
G36*
X156743512Y-102963927D02*
G01*
X156892812Y-102993624D01*
X157056784Y-103061544D01*
X157204354Y-103160147D01*
X157329853Y-103285646D01*
X157428456Y-103433216D01*
X157496376Y-103597188D01*
X157531000Y-103771259D01*
X157531000Y-103948741D01*
X157496376Y-104122812D01*
X157428456Y-104286784D01*
X157329853Y-104434354D01*
X157204354Y-104559853D01*
X157056784Y-104658456D01*
X156892812Y-104726376D01*
X156743512Y-104756073D01*
X156718742Y-104761000D01*
X156541258Y-104761000D01*
X156516488Y-104756073D01*
X156367188Y-104726376D01*
X156203216Y-104658456D01*
X156055646Y-104559853D01*
X155930147Y-104434354D01*
X155831544Y-104286784D01*
X155763624Y-104122812D01*
X155729000Y-103948741D01*
X155729000Y-103771259D01*
X155763624Y-103597188D01*
X155831544Y-103433216D01*
X155930147Y-103285646D01*
X156055646Y-103160147D01*
X156203216Y-103061544D01*
X156367188Y-102993624D01*
X156516488Y-102963927D01*
X156541258Y-102959000D01*
X156718742Y-102959000D01*
X156743512Y-102963927D01*
G37*
G36*
X200743512Y-100423927D02*
G01*
X200892812Y-100453624D01*
X201056784Y-100521544D01*
X201204354Y-100620147D01*
X201329853Y-100745646D01*
X201428456Y-100893216D01*
X201496376Y-101057188D01*
X201531000Y-101231259D01*
X201531000Y-101408741D01*
X201496376Y-101582812D01*
X201428456Y-101746784D01*
X201329853Y-101894354D01*
X201204354Y-102019853D01*
X201056784Y-102118456D01*
X200892812Y-102186376D01*
X200743512Y-102216073D01*
X200718742Y-102221000D01*
X200541258Y-102221000D01*
X200516488Y-102216073D01*
X200367188Y-102186376D01*
X200203216Y-102118456D01*
X200055646Y-102019853D01*
X199930147Y-101894354D01*
X199831544Y-101746784D01*
X199763624Y-101582812D01*
X199729000Y-101408741D01*
X199729000Y-101231259D01*
X199763624Y-101057188D01*
X199831544Y-100893216D01*
X199930147Y-100745646D01*
X200055646Y-100620147D01*
X200203216Y-100521544D01*
X200367188Y-100453624D01*
X200516488Y-100423927D01*
X200541258Y-100419000D01*
X200718742Y-100419000D01*
X200743512Y-100423927D01*
G37*
G36*
X203283512Y-100423927D02*
G01*
X203432812Y-100453624D01*
X203596784Y-100521544D01*
X203744354Y-100620147D01*
X203869853Y-100745646D01*
X203968456Y-100893216D01*
X204036376Y-101057188D01*
X204071000Y-101231259D01*
X204071000Y-101408741D01*
X204036376Y-101582812D01*
X203968456Y-101746784D01*
X203869853Y-101894354D01*
X203744354Y-102019853D01*
X203596784Y-102118456D01*
X203432812Y-102186376D01*
X203283512Y-102216073D01*
X203258742Y-102221000D01*
X203081258Y-102221000D01*
X203056488Y-102216073D01*
X202907188Y-102186376D01*
X202743216Y-102118456D01*
X202595646Y-102019853D01*
X202470147Y-101894354D01*
X202371544Y-101746784D01*
X202303624Y-101582812D01*
X202269000Y-101408741D01*
X202269000Y-101231259D01*
X202303624Y-101057188D01*
X202371544Y-100893216D01*
X202470147Y-100745646D01*
X202595646Y-100620147D01*
X202743216Y-100521544D01*
X202907188Y-100453624D01*
X203056488Y-100423927D01*
X203081258Y-100419000D01*
X203258742Y-100419000D01*
X203283512Y-100423927D01*
G37*
G36*
X156743512Y-100423927D02*
G01*
X156892812Y-100453624D01*
X157056784Y-100521544D01*
X157204354Y-100620147D01*
X157329853Y-100745646D01*
X157428456Y-100893216D01*
X157496376Y-101057188D01*
X157531000Y-101231259D01*
X157531000Y-101408741D01*
X157496376Y-101582812D01*
X157428456Y-101746784D01*
X157329853Y-101894354D01*
X157204354Y-102019853D01*
X157056784Y-102118456D01*
X156892812Y-102186376D01*
X156743512Y-102216073D01*
X156718742Y-102221000D01*
X156541258Y-102221000D01*
X156516488Y-102216073D01*
X156367188Y-102186376D01*
X156203216Y-102118456D01*
X156055646Y-102019853D01*
X155930147Y-101894354D01*
X155831544Y-101746784D01*
X155763624Y-101582812D01*
X155729000Y-101408741D01*
X155729000Y-101231259D01*
X155763624Y-101057188D01*
X155831544Y-100893216D01*
X155930147Y-100745646D01*
X156055646Y-100620147D01*
X156203216Y-100521544D01*
X156367188Y-100453624D01*
X156516488Y-100423927D01*
X156541258Y-100419000D01*
X156718742Y-100419000D01*
X156743512Y-100423927D01*
G37*
G36*
X159283512Y-100423927D02*
G01*
X159432812Y-100453624D01*
X159596784Y-100521544D01*
X159744354Y-100620147D01*
X159869853Y-100745646D01*
X159968456Y-100893216D01*
X160036376Y-101057188D01*
X160071000Y-101231259D01*
X160071000Y-101408741D01*
X160036376Y-101582812D01*
X159968456Y-101746784D01*
X159869853Y-101894354D01*
X159744354Y-102019853D01*
X159596784Y-102118456D01*
X159432812Y-102186376D01*
X159283512Y-102216073D01*
X159258742Y-102221000D01*
X159081258Y-102221000D01*
X159056488Y-102216073D01*
X158907188Y-102186376D01*
X158743216Y-102118456D01*
X158595646Y-102019853D01*
X158470147Y-101894354D01*
X158371544Y-101746784D01*
X158303624Y-101582812D01*
X158269000Y-101408741D01*
X158269000Y-101231259D01*
X158303624Y-101057188D01*
X158371544Y-100893216D01*
X158470147Y-100745646D01*
X158595646Y-100620147D01*
X158743216Y-100521544D01*
X158907188Y-100453624D01*
X159056488Y-100423927D01*
X159081258Y-100419000D01*
X159258742Y-100419000D01*
X159283512Y-100423927D01*
G37*
G36*
X156743512Y-97883927D02*
G01*
X156892812Y-97913624D01*
X157056784Y-97981544D01*
X157204354Y-98080147D01*
X157329853Y-98205646D01*
X157428456Y-98353216D01*
X157496376Y-98517188D01*
X157531000Y-98691259D01*
X157531000Y-98868741D01*
X157496376Y-99042812D01*
X157428456Y-99206784D01*
X157329853Y-99354354D01*
X157204354Y-99479853D01*
X157056784Y-99578456D01*
X156892812Y-99646376D01*
X156743512Y-99676073D01*
X156718742Y-99681000D01*
X156541258Y-99681000D01*
X156516488Y-99676073D01*
X156367188Y-99646376D01*
X156203216Y-99578456D01*
X156055646Y-99479853D01*
X155930147Y-99354354D01*
X155831544Y-99206784D01*
X155763624Y-99042812D01*
X155729000Y-98868741D01*
X155729000Y-98691259D01*
X155763624Y-98517188D01*
X155831544Y-98353216D01*
X155930147Y-98205646D01*
X156055646Y-98080147D01*
X156203216Y-97981544D01*
X156367188Y-97913624D01*
X156516488Y-97883927D01*
X156541258Y-97879000D01*
X156718742Y-97879000D01*
X156743512Y-97883927D01*
G37*
G36*
X159283512Y-97883927D02*
G01*
X159432812Y-97913624D01*
X159596784Y-97981544D01*
X159744354Y-98080147D01*
X159869853Y-98205646D01*
X159968456Y-98353216D01*
X160036376Y-98517188D01*
X160071000Y-98691259D01*
X160071000Y-98868741D01*
X160036376Y-99042812D01*
X159968456Y-99206784D01*
X159869853Y-99354354D01*
X159744354Y-99479853D01*
X159596784Y-99578456D01*
X159432812Y-99646376D01*
X159283512Y-99676073D01*
X159258742Y-99681000D01*
X159081258Y-99681000D01*
X159056488Y-99676073D01*
X158907188Y-99646376D01*
X158743216Y-99578456D01*
X158595646Y-99479853D01*
X158470147Y-99354354D01*
X158371544Y-99206784D01*
X158303624Y-99042812D01*
X158269000Y-98868741D01*
X158269000Y-98691259D01*
X158303624Y-98517188D01*
X158371544Y-98353216D01*
X158470147Y-98205646D01*
X158595646Y-98080147D01*
X158743216Y-97981544D01*
X158907188Y-97913624D01*
X159056488Y-97883927D01*
X159081258Y-97879000D01*
X159258742Y-97879000D01*
X159283512Y-97883927D01*
G37*
G36*
X203283512Y-97883927D02*
G01*
X203432812Y-97913624D01*
X203596784Y-97981544D01*
X203744354Y-98080147D01*
X203869853Y-98205646D01*
X203968456Y-98353216D01*
X204036376Y-98517188D01*
X204071000Y-98691259D01*
X204071000Y-98868741D01*
X204036376Y-99042812D01*
X203968456Y-99206784D01*
X203869853Y-99354354D01*
X203744354Y-99479853D01*
X203596784Y-99578456D01*
X203432812Y-99646376D01*
X203283512Y-99676073D01*
X203258742Y-99681000D01*
X203081258Y-99681000D01*
X203056488Y-99676073D01*
X202907188Y-99646376D01*
X202743216Y-99578456D01*
X202595646Y-99479853D01*
X202470147Y-99354354D01*
X202371544Y-99206784D01*
X202303624Y-99042812D01*
X202269000Y-98868741D01*
X202269000Y-98691259D01*
X202303624Y-98517188D01*
X202371544Y-98353216D01*
X202470147Y-98205646D01*
X202595646Y-98080147D01*
X202743216Y-97981544D01*
X202907188Y-97913624D01*
X203056488Y-97883927D01*
X203081258Y-97879000D01*
X203258742Y-97879000D01*
X203283512Y-97883927D01*
G37*
G36*
X200743512Y-97883927D02*
G01*
X200892812Y-97913624D01*
X201056784Y-97981544D01*
X201204354Y-98080147D01*
X201329853Y-98205646D01*
X201428456Y-98353216D01*
X201496376Y-98517188D01*
X201531000Y-98691259D01*
X201531000Y-98868741D01*
X201496376Y-99042812D01*
X201428456Y-99206784D01*
X201329853Y-99354354D01*
X201204354Y-99479853D01*
X201056784Y-99578456D01*
X200892812Y-99646376D01*
X200743512Y-99676073D01*
X200718742Y-99681000D01*
X200541258Y-99681000D01*
X200516488Y-99676073D01*
X200367188Y-99646376D01*
X200203216Y-99578456D01*
X200055646Y-99479853D01*
X199930147Y-99354354D01*
X199831544Y-99206784D01*
X199763624Y-99042812D01*
X199729000Y-98868741D01*
X199729000Y-98691259D01*
X199763624Y-98517188D01*
X199831544Y-98353216D01*
X199930147Y-98205646D01*
X200055646Y-98080147D01*
X200203216Y-97981544D01*
X200367188Y-97913624D01*
X200516488Y-97883927D01*
X200541258Y-97879000D01*
X200718742Y-97879000D01*
X200743512Y-97883927D01*
G37*
G36*
X172946162Y-95379368D02*
G01*
X173255724Y-95507593D01*
X173255725Y-95507594D01*
X173534324Y-95693747D01*
X173771253Y-95930676D01*
X173895637Y-96116830D01*
X173957407Y-96209276D01*
X174085632Y-96518838D01*
X174151000Y-96847465D01*
X174151000Y-97182535D01*
X174085632Y-97511162D01*
X173957407Y-97820724D01*
X173957406Y-97820725D01*
X173771253Y-98099324D01*
X173534324Y-98336253D01*
X173348170Y-98460637D01*
X173255724Y-98522407D01*
X172946162Y-98650632D01*
X172617535Y-98716000D01*
X172282465Y-98716000D01*
X171953838Y-98650632D01*
X171644276Y-98522407D01*
X171551830Y-98460637D01*
X171365676Y-98336253D01*
X171128747Y-98099324D01*
X170942594Y-97820725D01*
X170942593Y-97820724D01*
X170814368Y-97511162D01*
X170749000Y-97182535D01*
X170749000Y-96847465D01*
X170814368Y-96518838D01*
X170942593Y-96209276D01*
X171004363Y-96116830D01*
X171128747Y-95930676D01*
X171365676Y-95693747D01*
X171644275Y-95507594D01*
X171644276Y-95507593D01*
X171953838Y-95379368D01*
X172282465Y-95314000D01*
X172617535Y-95314000D01*
X172946162Y-95379368D01*
G37*
G36*
X187936162Y-95379368D02*
G01*
X188245724Y-95507593D01*
X188245725Y-95507594D01*
X188524324Y-95693747D01*
X188761253Y-95930676D01*
X188885637Y-96116830D01*
X188947407Y-96209276D01*
X189075632Y-96518838D01*
X189141000Y-96847465D01*
X189141000Y-97182535D01*
X189075632Y-97511162D01*
X188947407Y-97820724D01*
X188947406Y-97820725D01*
X188761253Y-98099324D01*
X188524324Y-98336253D01*
X188338170Y-98460637D01*
X188245724Y-98522407D01*
X187936162Y-98650632D01*
X187607535Y-98716000D01*
X187272465Y-98716000D01*
X186943838Y-98650632D01*
X186634276Y-98522407D01*
X186541830Y-98460637D01*
X186355676Y-98336253D01*
X186118747Y-98099324D01*
X185932594Y-97820725D01*
X185932593Y-97820724D01*
X185804368Y-97511162D01*
X185739000Y-97182535D01*
X185739000Y-96847465D01*
X185804368Y-96518838D01*
X185932593Y-96209276D01*
X185994363Y-96116830D01*
X186118747Y-95930676D01*
X186355676Y-95693747D01*
X186634275Y-95507594D01*
X186634276Y-95507593D01*
X186943838Y-95379368D01*
X187272465Y-95314000D01*
X187607535Y-95314000D01*
X187936162Y-95379368D01*
G37*
G36*
X156743512Y-95343927D02*
G01*
X156892812Y-95373624D01*
X157056784Y-95441544D01*
X157204354Y-95540147D01*
X157329853Y-95665646D01*
X157428456Y-95813216D01*
X157496376Y-95977188D01*
X157531000Y-96151259D01*
X157531000Y-96328741D01*
X157496376Y-96502812D01*
X157428456Y-96666784D01*
X157329853Y-96814354D01*
X157204354Y-96939853D01*
X157056784Y-97038456D01*
X156892812Y-97106376D01*
X156743512Y-97136073D01*
X156718742Y-97141000D01*
X156541258Y-97141000D01*
X156516488Y-97136073D01*
X156367188Y-97106376D01*
X156203216Y-97038456D01*
X156055646Y-96939853D01*
X155930147Y-96814354D01*
X155831544Y-96666784D01*
X155763624Y-96502812D01*
X155729000Y-96328741D01*
X155729000Y-96151259D01*
X155763624Y-95977188D01*
X155831544Y-95813216D01*
X155930147Y-95665646D01*
X156055646Y-95540147D01*
X156203216Y-95441544D01*
X156367188Y-95373624D01*
X156516488Y-95343927D01*
X156541258Y-95339000D01*
X156718742Y-95339000D01*
X156743512Y-95343927D01*
G37*
G36*
X203283512Y-95343927D02*
G01*
X203432812Y-95373624D01*
X203596784Y-95441544D01*
X203744354Y-95540147D01*
X203869853Y-95665646D01*
X203968456Y-95813216D01*
X204036376Y-95977188D01*
X204071000Y-96151259D01*
X204071000Y-96328741D01*
X204036376Y-96502812D01*
X203968456Y-96666784D01*
X203869853Y-96814354D01*
X203744354Y-96939853D01*
X203596784Y-97038456D01*
X203432812Y-97106376D01*
X203283512Y-97136073D01*
X203258742Y-97141000D01*
X203081258Y-97141000D01*
X203056488Y-97136073D01*
X202907188Y-97106376D01*
X202743216Y-97038456D01*
X202595646Y-96939853D01*
X202470147Y-96814354D01*
X202371544Y-96666784D01*
X202303624Y-96502812D01*
X202269000Y-96328741D01*
X202269000Y-96151259D01*
X202303624Y-95977188D01*
X202371544Y-95813216D01*
X202470147Y-95665646D01*
X202595646Y-95540147D01*
X202743216Y-95441544D01*
X202907188Y-95373624D01*
X203056488Y-95343927D01*
X203081258Y-95339000D01*
X203258742Y-95339000D01*
X203283512Y-95343927D01*
G37*
G36*
X159283512Y-95343927D02*
G01*
X159432812Y-95373624D01*
X159596784Y-95441544D01*
X159744354Y-95540147D01*
X159869853Y-95665646D01*
X159968456Y-95813216D01*
X160036376Y-95977188D01*
X160071000Y-96151259D01*
X160071000Y-96328741D01*
X160036376Y-96502812D01*
X159968456Y-96666784D01*
X159869853Y-96814354D01*
X159744354Y-96939853D01*
X159596784Y-97038456D01*
X159432812Y-97106376D01*
X159283512Y-97136073D01*
X159258742Y-97141000D01*
X159081258Y-97141000D01*
X159056488Y-97136073D01*
X158907188Y-97106376D01*
X158743216Y-97038456D01*
X158595646Y-96939853D01*
X158470147Y-96814354D01*
X158371544Y-96666784D01*
X158303624Y-96502812D01*
X158269000Y-96328741D01*
X158269000Y-96151259D01*
X158303624Y-95977188D01*
X158371544Y-95813216D01*
X158470147Y-95665646D01*
X158595646Y-95540147D01*
X158743216Y-95441544D01*
X158907188Y-95373624D01*
X159056488Y-95343927D01*
X159081258Y-95339000D01*
X159258742Y-95339000D01*
X159283512Y-95343927D01*
G37*
G36*
X200743512Y-95343927D02*
G01*
X200892812Y-95373624D01*
X201056784Y-95441544D01*
X201204354Y-95540147D01*
X201329853Y-95665646D01*
X201428456Y-95813216D01*
X201496376Y-95977188D01*
X201531000Y-96151259D01*
X201531000Y-96328741D01*
X201496376Y-96502812D01*
X201428456Y-96666784D01*
X201329853Y-96814354D01*
X201204354Y-96939853D01*
X201056784Y-97038456D01*
X200892812Y-97106376D01*
X200743512Y-97136073D01*
X200718742Y-97141000D01*
X200541258Y-97141000D01*
X200516488Y-97136073D01*
X200367188Y-97106376D01*
X200203216Y-97038456D01*
X200055646Y-96939853D01*
X199930147Y-96814354D01*
X199831544Y-96666784D01*
X199763624Y-96502812D01*
X199729000Y-96328741D01*
X199729000Y-96151259D01*
X199763624Y-95977188D01*
X199831544Y-95813216D01*
X199930147Y-95665646D01*
X200055646Y-95540147D01*
X200203216Y-95441544D01*
X200367188Y-95373624D01*
X200516488Y-95343927D01*
X200541258Y-95339000D01*
X200718742Y-95339000D01*
X200743512Y-95343927D01*
G37*
G36*
X200743512Y-92803927D02*
G01*
X200892812Y-92833624D01*
X201056784Y-92901544D01*
X201204354Y-93000147D01*
X201329853Y-93125646D01*
X201428456Y-93273216D01*
X201496376Y-93437188D01*
X201531000Y-93611259D01*
X201531000Y-93788741D01*
X201496376Y-93962812D01*
X201428456Y-94126784D01*
X201329853Y-94274354D01*
X201204354Y-94399853D01*
X201056784Y-94498456D01*
X200892812Y-94566376D01*
X200743512Y-94596073D01*
X200718742Y-94601000D01*
X200541258Y-94601000D01*
X200516488Y-94596073D01*
X200367188Y-94566376D01*
X200203216Y-94498456D01*
X200055646Y-94399853D01*
X199930147Y-94274354D01*
X199831544Y-94126784D01*
X199763624Y-93962812D01*
X199729000Y-93788741D01*
X199729000Y-93611259D01*
X199763624Y-93437188D01*
X199831544Y-93273216D01*
X199930147Y-93125646D01*
X200055646Y-93000147D01*
X200203216Y-92901544D01*
X200367188Y-92833624D01*
X200516488Y-92803927D01*
X200541258Y-92799000D01*
X200718742Y-92799000D01*
X200743512Y-92803927D01*
G37*
G36*
X159283512Y-92803927D02*
G01*
X159432812Y-92833624D01*
X159596784Y-92901544D01*
X159744354Y-93000147D01*
X159869853Y-93125646D01*
X159968456Y-93273216D01*
X160036376Y-93437188D01*
X160071000Y-93611259D01*
X160071000Y-93788741D01*
X160036376Y-93962812D01*
X159968456Y-94126784D01*
X159869853Y-94274354D01*
X159744354Y-94399853D01*
X159596784Y-94498456D01*
X159432812Y-94566376D01*
X159283512Y-94596073D01*
X159258742Y-94601000D01*
X159081258Y-94601000D01*
X159056488Y-94596073D01*
X158907188Y-94566376D01*
X158743216Y-94498456D01*
X158595646Y-94399853D01*
X158470147Y-94274354D01*
X158371544Y-94126784D01*
X158303624Y-93962812D01*
X158269000Y-93788741D01*
X158269000Y-93611259D01*
X158303624Y-93437188D01*
X158371544Y-93273216D01*
X158470147Y-93125646D01*
X158595646Y-93000147D01*
X158743216Y-92901544D01*
X158907188Y-92833624D01*
X159056488Y-92803927D01*
X159081258Y-92799000D01*
X159258742Y-92799000D01*
X159283512Y-92803927D01*
G37*
G36*
X203283512Y-92803927D02*
G01*
X203432812Y-92833624D01*
X203596784Y-92901544D01*
X203744354Y-93000147D01*
X203869853Y-93125646D01*
X203968456Y-93273216D01*
X204036376Y-93437188D01*
X204071000Y-93611259D01*
X204071000Y-93788741D01*
X204036376Y-93962812D01*
X203968456Y-94126784D01*
X203869853Y-94274354D01*
X203744354Y-94399853D01*
X203596784Y-94498456D01*
X203432812Y-94566376D01*
X203283512Y-94596073D01*
X203258742Y-94601000D01*
X203081258Y-94601000D01*
X203056488Y-94596073D01*
X202907188Y-94566376D01*
X202743216Y-94498456D01*
X202595646Y-94399853D01*
X202470147Y-94274354D01*
X202371544Y-94126784D01*
X202303624Y-93962812D01*
X202269000Y-93788741D01*
X202269000Y-93611259D01*
X202303624Y-93437188D01*
X202371544Y-93273216D01*
X202470147Y-93125646D01*
X202595646Y-93000147D01*
X202743216Y-92901544D01*
X202907188Y-92833624D01*
X203056488Y-92803927D01*
X203081258Y-92799000D01*
X203258742Y-92799000D01*
X203283512Y-92803927D01*
G37*
G36*
X156743512Y-92803927D02*
G01*
X156892812Y-92833624D01*
X157056784Y-92901544D01*
X157204354Y-93000147D01*
X157329853Y-93125646D01*
X157428456Y-93273216D01*
X157496376Y-93437188D01*
X157531000Y-93611259D01*
X157531000Y-93788741D01*
X157496376Y-93962812D01*
X157428456Y-94126784D01*
X157329853Y-94274354D01*
X157204354Y-94399853D01*
X157056784Y-94498456D01*
X156892812Y-94566376D01*
X156743512Y-94596073D01*
X156718742Y-94601000D01*
X156541258Y-94601000D01*
X156516488Y-94596073D01*
X156367188Y-94566376D01*
X156203216Y-94498456D01*
X156055646Y-94399853D01*
X155930147Y-94274354D01*
X155831544Y-94126784D01*
X155763624Y-93962812D01*
X155729000Y-93788741D01*
X155729000Y-93611259D01*
X155763624Y-93437188D01*
X155831544Y-93273216D01*
X155930147Y-93125646D01*
X156055646Y-93000147D01*
X156203216Y-92901544D01*
X156367188Y-92833624D01*
X156516488Y-92803927D01*
X156541258Y-92799000D01*
X156718742Y-92799000D01*
X156743512Y-92803927D01*
G37*
G36*
X156743512Y-90263927D02*
G01*
X156892812Y-90293624D01*
X157056784Y-90361544D01*
X157204354Y-90460147D01*
X157329853Y-90585646D01*
X157428456Y-90733216D01*
X157496376Y-90897188D01*
X157531000Y-91071259D01*
X157531000Y-91248741D01*
X157496376Y-91422812D01*
X157428456Y-91586784D01*
X157329853Y-91734354D01*
X157204354Y-91859853D01*
X157056784Y-91958456D01*
X156892812Y-92026376D01*
X156743512Y-92056073D01*
X156718742Y-92061000D01*
X156541258Y-92061000D01*
X156516488Y-92056073D01*
X156367188Y-92026376D01*
X156203216Y-91958456D01*
X156055646Y-91859853D01*
X155930147Y-91734354D01*
X155831544Y-91586784D01*
X155763624Y-91422812D01*
X155729000Y-91248741D01*
X155729000Y-91071259D01*
X155763624Y-90897188D01*
X155831544Y-90733216D01*
X155930147Y-90585646D01*
X156055646Y-90460147D01*
X156203216Y-90361544D01*
X156367188Y-90293624D01*
X156516488Y-90263927D01*
X156541258Y-90259000D01*
X156718742Y-90259000D01*
X156743512Y-90263927D01*
G37*
G36*
X203283512Y-90263927D02*
G01*
X203432812Y-90293624D01*
X203596784Y-90361544D01*
X203744354Y-90460147D01*
X203869853Y-90585646D01*
X203968456Y-90733216D01*
X204036376Y-90897188D01*
X204071000Y-91071259D01*
X204071000Y-91248741D01*
X204036376Y-91422812D01*
X203968456Y-91586784D01*
X203869853Y-91734354D01*
X203744354Y-91859853D01*
X203596784Y-91958456D01*
X203432812Y-92026376D01*
X203283512Y-92056073D01*
X203258742Y-92061000D01*
X203081258Y-92061000D01*
X203056488Y-92056073D01*
X202907188Y-92026376D01*
X202743216Y-91958456D01*
X202595646Y-91859853D01*
X202470147Y-91734354D01*
X202371544Y-91586784D01*
X202303624Y-91422812D01*
X202269000Y-91248741D01*
X202269000Y-91071259D01*
X202303624Y-90897188D01*
X202371544Y-90733216D01*
X202470147Y-90585646D01*
X202595646Y-90460147D01*
X202743216Y-90361544D01*
X202907188Y-90293624D01*
X203056488Y-90263927D01*
X203081258Y-90259000D01*
X203258742Y-90259000D01*
X203283512Y-90263927D01*
G37*
G36*
X200743512Y-90263927D02*
G01*
X200892812Y-90293624D01*
X201056784Y-90361544D01*
X201204354Y-90460147D01*
X201329853Y-90585646D01*
X201428456Y-90733216D01*
X201496376Y-90897188D01*
X201531000Y-91071259D01*
X201531000Y-91248741D01*
X201496376Y-91422812D01*
X201428456Y-91586784D01*
X201329853Y-91734354D01*
X201204354Y-91859853D01*
X201056784Y-91958456D01*
X200892812Y-92026376D01*
X200743512Y-92056073D01*
X200718742Y-92061000D01*
X200541258Y-92061000D01*
X200516488Y-92056073D01*
X200367188Y-92026376D01*
X200203216Y-91958456D01*
X200055646Y-91859853D01*
X199930147Y-91734354D01*
X199831544Y-91586784D01*
X199763624Y-91422812D01*
X199729000Y-91248741D01*
X199729000Y-91071259D01*
X199763624Y-90897188D01*
X199831544Y-90733216D01*
X199930147Y-90585646D01*
X200055646Y-90460147D01*
X200203216Y-90361544D01*
X200367188Y-90293624D01*
X200516488Y-90263927D01*
X200541258Y-90259000D01*
X200718742Y-90259000D01*
X200743512Y-90263927D01*
G37*
G36*
X159283512Y-90263927D02*
G01*
X159432812Y-90293624D01*
X159596784Y-90361544D01*
X159744354Y-90460147D01*
X159869853Y-90585646D01*
X159968456Y-90733216D01*
X160036376Y-90897188D01*
X160071000Y-91071259D01*
X160071000Y-91248741D01*
X160036376Y-91422812D01*
X159968456Y-91586784D01*
X159869853Y-91734354D01*
X159744354Y-91859853D01*
X159596784Y-91958456D01*
X159432812Y-92026376D01*
X159283512Y-92056073D01*
X159258742Y-92061000D01*
X159081258Y-92061000D01*
X159056488Y-92056073D01*
X158907188Y-92026376D01*
X158743216Y-91958456D01*
X158595646Y-91859853D01*
X158470147Y-91734354D01*
X158371544Y-91586784D01*
X158303624Y-91422812D01*
X158269000Y-91248741D01*
X158269000Y-91071259D01*
X158303624Y-90897188D01*
X158371544Y-90733216D01*
X158470147Y-90585646D01*
X158595646Y-90460147D01*
X158743216Y-90361544D01*
X158907188Y-90293624D01*
X159056488Y-90263927D01*
X159081258Y-90259000D01*
X159258742Y-90259000D01*
X159283512Y-90263927D01*
G37*
G36*
X203283512Y-87723927D02*
G01*
X203432812Y-87753624D01*
X203596784Y-87821544D01*
X203744354Y-87920147D01*
X203869853Y-88045646D01*
X203968456Y-88193216D01*
X204036376Y-88357188D01*
X204071000Y-88531259D01*
X204071000Y-88708741D01*
X204036376Y-88882812D01*
X203968456Y-89046784D01*
X203869853Y-89194354D01*
X203744354Y-89319853D01*
X203596784Y-89418456D01*
X203432812Y-89486376D01*
X203283512Y-89516073D01*
X203258742Y-89521000D01*
X203081258Y-89521000D01*
X203056488Y-89516073D01*
X202907188Y-89486376D01*
X202743216Y-89418456D01*
X202595646Y-89319853D01*
X202470147Y-89194354D01*
X202371544Y-89046784D01*
X202303624Y-88882812D01*
X202269000Y-88708741D01*
X202269000Y-88531259D01*
X202303624Y-88357188D01*
X202371544Y-88193216D01*
X202470147Y-88045646D01*
X202595646Y-87920147D01*
X202743216Y-87821544D01*
X202907188Y-87753624D01*
X203056488Y-87723927D01*
X203081258Y-87719000D01*
X203258742Y-87719000D01*
X203283512Y-87723927D01*
G37*
G36*
X200743512Y-87723927D02*
G01*
X200892812Y-87753624D01*
X201056784Y-87821544D01*
X201204354Y-87920147D01*
X201329853Y-88045646D01*
X201428456Y-88193216D01*
X201496376Y-88357188D01*
X201531000Y-88531259D01*
X201531000Y-88708741D01*
X201496376Y-88882812D01*
X201428456Y-89046784D01*
X201329853Y-89194354D01*
X201204354Y-89319853D01*
X201056784Y-89418456D01*
X200892812Y-89486376D01*
X200743512Y-89516073D01*
X200718742Y-89521000D01*
X200541258Y-89521000D01*
X200516488Y-89516073D01*
X200367188Y-89486376D01*
X200203216Y-89418456D01*
X200055646Y-89319853D01*
X199930147Y-89194354D01*
X199831544Y-89046784D01*
X199763624Y-88882812D01*
X199729000Y-88708741D01*
X199729000Y-88531259D01*
X199763624Y-88357188D01*
X199831544Y-88193216D01*
X199930147Y-88045646D01*
X200055646Y-87920147D01*
X200203216Y-87821544D01*
X200367188Y-87753624D01*
X200516488Y-87723927D01*
X200541258Y-87719000D01*
X200718742Y-87719000D01*
X200743512Y-87723927D01*
G37*
G36*
X159283512Y-87723927D02*
G01*
X159432812Y-87753624D01*
X159596784Y-87821544D01*
X159744354Y-87920147D01*
X159869853Y-88045646D01*
X159968456Y-88193216D01*
X160036376Y-88357188D01*
X160071000Y-88531259D01*
X160071000Y-88708741D01*
X160036376Y-88882812D01*
X159968456Y-89046784D01*
X159869853Y-89194354D01*
X159744354Y-89319853D01*
X159596784Y-89418456D01*
X159432812Y-89486376D01*
X159283512Y-89516073D01*
X159258742Y-89521000D01*
X159081258Y-89521000D01*
X159056488Y-89516073D01*
X158907188Y-89486376D01*
X158743216Y-89418456D01*
X158595646Y-89319853D01*
X158470147Y-89194354D01*
X158371544Y-89046784D01*
X158303624Y-88882812D01*
X158269000Y-88708741D01*
X158269000Y-88531259D01*
X158303624Y-88357188D01*
X158371544Y-88193216D01*
X158470147Y-88045646D01*
X158595646Y-87920147D01*
X158743216Y-87821544D01*
X158907188Y-87753624D01*
X159056488Y-87723927D01*
X159081258Y-87719000D01*
X159258742Y-87719000D01*
X159283512Y-87723927D01*
G37*
G36*
X156743512Y-87723927D02*
G01*
X156892812Y-87753624D01*
X157056784Y-87821544D01*
X157204354Y-87920147D01*
X157329853Y-88045646D01*
X157428456Y-88193216D01*
X157496376Y-88357188D01*
X157531000Y-88531259D01*
X157531000Y-88708741D01*
X157496376Y-88882812D01*
X157428456Y-89046784D01*
X157329853Y-89194354D01*
X157204354Y-89319853D01*
X157056784Y-89418456D01*
X156892812Y-89486376D01*
X156743512Y-89516073D01*
X156718742Y-89521000D01*
X156541258Y-89521000D01*
X156516488Y-89516073D01*
X156367188Y-89486376D01*
X156203216Y-89418456D01*
X156055646Y-89319853D01*
X155930147Y-89194354D01*
X155831544Y-89046784D01*
X155763624Y-88882812D01*
X155729000Y-88708741D01*
X155729000Y-88531259D01*
X155763624Y-88357188D01*
X155831544Y-88193216D01*
X155930147Y-88045646D01*
X156055646Y-87920147D01*
X156203216Y-87821544D01*
X156367188Y-87753624D01*
X156516488Y-87723927D01*
X156541258Y-87719000D01*
X156718742Y-87719000D01*
X156743512Y-87723927D01*
G37*
G36*
X159283512Y-85183927D02*
G01*
X159432812Y-85213624D01*
X159596784Y-85281544D01*
X159744354Y-85380147D01*
X159869853Y-85505646D01*
X159968456Y-85653216D01*
X160036376Y-85817188D01*
X160071000Y-85991259D01*
X160071000Y-86168741D01*
X160036376Y-86342812D01*
X159968456Y-86506784D01*
X159869853Y-86654354D01*
X159744354Y-86779853D01*
X159596784Y-86878456D01*
X159432812Y-86946376D01*
X159283512Y-86976073D01*
X159258742Y-86981000D01*
X159081258Y-86981000D01*
X159056488Y-86976073D01*
X158907188Y-86946376D01*
X158743216Y-86878456D01*
X158595646Y-86779853D01*
X158470147Y-86654354D01*
X158371544Y-86506784D01*
X158303624Y-86342812D01*
X158269000Y-86168741D01*
X158269000Y-85991259D01*
X158303624Y-85817188D01*
X158371544Y-85653216D01*
X158470147Y-85505646D01*
X158595646Y-85380147D01*
X158743216Y-85281544D01*
X158907188Y-85213624D01*
X159056488Y-85183927D01*
X159081258Y-85179000D01*
X159258742Y-85179000D01*
X159283512Y-85183927D01*
G37*
G36*
X203283512Y-85183927D02*
G01*
X203432812Y-85213624D01*
X203596784Y-85281544D01*
X203744354Y-85380147D01*
X203869853Y-85505646D01*
X203968456Y-85653216D01*
X204036376Y-85817188D01*
X204071000Y-85991259D01*
X204071000Y-86168741D01*
X204036376Y-86342812D01*
X203968456Y-86506784D01*
X203869853Y-86654354D01*
X203744354Y-86779853D01*
X203596784Y-86878456D01*
X203432812Y-86946376D01*
X203283512Y-86976073D01*
X203258742Y-86981000D01*
X203081258Y-86981000D01*
X203056488Y-86976073D01*
X202907188Y-86946376D01*
X202743216Y-86878456D01*
X202595646Y-86779853D01*
X202470147Y-86654354D01*
X202371544Y-86506784D01*
X202303624Y-86342812D01*
X202269000Y-86168741D01*
X202269000Y-85991259D01*
X202303624Y-85817188D01*
X202371544Y-85653216D01*
X202470147Y-85505646D01*
X202595646Y-85380147D01*
X202743216Y-85281544D01*
X202907188Y-85213624D01*
X203056488Y-85183927D01*
X203081258Y-85179000D01*
X203258742Y-85179000D01*
X203283512Y-85183927D01*
G37*
G36*
X200743512Y-85183927D02*
G01*
X200892812Y-85213624D01*
X201056784Y-85281544D01*
X201204354Y-85380147D01*
X201329853Y-85505646D01*
X201428456Y-85653216D01*
X201496376Y-85817188D01*
X201531000Y-85991259D01*
X201531000Y-86168741D01*
X201496376Y-86342812D01*
X201428456Y-86506784D01*
X201329853Y-86654354D01*
X201204354Y-86779853D01*
X201056784Y-86878456D01*
X200892812Y-86946376D01*
X200743512Y-86976073D01*
X200718742Y-86981000D01*
X200541258Y-86981000D01*
X200516488Y-86976073D01*
X200367188Y-86946376D01*
X200203216Y-86878456D01*
X200055646Y-86779853D01*
X199930147Y-86654354D01*
X199831544Y-86506784D01*
X199763624Y-86342812D01*
X199729000Y-86168741D01*
X199729000Y-85991259D01*
X199763624Y-85817188D01*
X199831544Y-85653216D01*
X199930147Y-85505646D01*
X200055646Y-85380147D01*
X200203216Y-85281544D01*
X200367188Y-85213624D01*
X200516488Y-85183927D01*
X200541258Y-85179000D01*
X200718742Y-85179000D01*
X200743512Y-85183927D01*
G37*
G36*
X156743512Y-85183927D02*
G01*
X156892812Y-85213624D01*
X157056784Y-85281544D01*
X157204354Y-85380147D01*
X157329853Y-85505646D01*
X157428456Y-85653216D01*
X157496376Y-85817188D01*
X157531000Y-85991259D01*
X157531000Y-86168741D01*
X157496376Y-86342812D01*
X157428456Y-86506784D01*
X157329853Y-86654354D01*
X157204354Y-86779853D01*
X157056784Y-86878456D01*
X156892812Y-86946376D01*
X156743512Y-86976073D01*
X156718742Y-86981000D01*
X156541258Y-86981000D01*
X156516488Y-86976073D01*
X156367188Y-86946376D01*
X156203216Y-86878456D01*
X156055646Y-86779853D01*
X155930147Y-86654354D01*
X155831544Y-86506784D01*
X155763624Y-86342812D01*
X155729000Y-86168741D01*
X155729000Y-85991259D01*
X155763624Y-85817188D01*
X155831544Y-85653216D01*
X155930147Y-85505646D01*
X156055646Y-85380147D01*
X156203216Y-85281544D01*
X156367188Y-85213624D01*
X156516488Y-85183927D01*
X156541258Y-85179000D01*
X156718742Y-85179000D01*
X156743512Y-85183927D01*
G37*
G36*
X201531000Y-84441000D02*
G01*
X199729000Y-84441000D01*
X199729000Y-82639000D01*
X201531000Y-82639000D01*
X201531000Y-84441000D01*
G37*
G36*
X203283512Y-82643927D02*
G01*
X203432812Y-82673624D01*
X203596784Y-82741544D01*
X203744354Y-82840147D01*
X203869853Y-82965646D01*
X203968456Y-83113216D01*
X204036376Y-83277188D01*
X204071000Y-83451259D01*
X204071000Y-83628741D01*
X204036376Y-83802812D01*
X203968456Y-83966784D01*
X203869853Y-84114354D01*
X203744354Y-84239853D01*
X203596784Y-84338456D01*
X203432812Y-84406376D01*
X203283512Y-84436073D01*
X203258742Y-84441000D01*
X203081258Y-84441000D01*
X203056488Y-84436073D01*
X202907188Y-84406376D01*
X202743216Y-84338456D01*
X202595646Y-84239853D01*
X202470147Y-84114354D01*
X202371544Y-83966784D01*
X202303624Y-83802812D01*
X202269000Y-83628741D01*
X202269000Y-83451259D01*
X202303624Y-83277188D01*
X202371544Y-83113216D01*
X202470147Y-82965646D01*
X202595646Y-82840147D01*
X202743216Y-82741544D01*
X202907188Y-82673624D01*
X203056488Y-82643927D01*
X203081258Y-82639000D01*
X203258742Y-82639000D01*
X203283512Y-82643927D01*
G37*
G36*
X159283512Y-82643927D02*
G01*
X159432812Y-82673624D01*
X159596784Y-82741544D01*
X159744354Y-82840147D01*
X159869853Y-82965646D01*
X159968456Y-83113216D01*
X160036376Y-83277188D01*
X160071000Y-83451259D01*
X160071000Y-83628741D01*
X160036376Y-83802812D01*
X159968456Y-83966784D01*
X159869853Y-84114354D01*
X159744354Y-84239853D01*
X159596784Y-84338456D01*
X159432812Y-84406376D01*
X159283512Y-84436073D01*
X159258742Y-84441000D01*
X159081258Y-84441000D01*
X159056488Y-84436073D01*
X158907188Y-84406376D01*
X158743216Y-84338456D01*
X158595646Y-84239853D01*
X158470147Y-84114354D01*
X158371544Y-83966784D01*
X158303624Y-83802812D01*
X158269000Y-83628741D01*
X158269000Y-83451259D01*
X158303624Y-83277188D01*
X158371544Y-83113216D01*
X158470147Y-82965646D01*
X158595646Y-82840147D01*
X158743216Y-82741544D01*
X158907188Y-82673624D01*
X159056488Y-82643927D01*
X159081258Y-82639000D01*
X159258742Y-82639000D01*
X159283512Y-82643927D01*
G37*
G36*
X157531000Y-84441000D02*
G01*
X155729000Y-84441000D01*
X155729000Y-82639000D01*
X157531000Y-82639000D01*
X157531000Y-84441000D01*
G37*
G36*
X187746564Y-68839389D02*
G01*
X187937833Y-68918615D01*
X187937835Y-68918616D01*
X188109973Y-69033635D01*
X188256365Y-69180027D01*
X188371385Y-69352167D01*
X188450611Y-69543436D01*
X188491000Y-69746484D01*
X188491000Y-69953516D01*
X188450611Y-70156564D01*
X188371385Y-70347833D01*
X188371384Y-70347835D01*
X188256365Y-70519973D01*
X188109973Y-70666365D01*
X187937835Y-70781384D01*
X187937834Y-70781385D01*
X187937833Y-70781385D01*
X187746564Y-70860611D01*
X187543516Y-70901000D01*
X187336484Y-70901000D01*
X187133436Y-70860611D01*
X186942167Y-70781385D01*
X186942166Y-70781385D01*
X186942165Y-70781384D01*
X186770027Y-70666365D01*
X186623635Y-70519973D01*
X186508616Y-70347835D01*
X186508615Y-70347833D01*
X186429389Y-70156564D01*
X186389000Y-69953516D01*
X186389000Y-69746484D01*
X186429389Y-69543436D01*
X186508615Y-69352167D01*
X186623635Y-69180027D01*
X186770027Y-69033635D01*
X186942165Y-68918616D01*
X186942167Y-68918615D01*
X187133436Y-68839389D01*
X187336484Y-68799000D01*
X187543516Y-68799000D01*
X187746564Y-68839389D01*
G37*
G36*
X173501000Y-70901000D02*
G01*
X171399000Y-70901000D01*
X171399000Y-68799000D01*
X173501000Y-68799000D01*
X173501000Y-70901000D01*
G37*
G36*
X186938228Y-61411703D02*
G01*
X187093100Y-61475853D01*
X187232481Y-61568985D01*
X187351015Y-61687519D01*
X187444147Y-61826900D01*
X187508297Y-61981772D01*
X187541000Y-62146184D01*
X187541000Y-62313816D01*
X187508297Y-62478228D01*
X187444147Y-62633100D01*
X187351015Y-62772481D01*
X187232481Y-62891015D01*
X187093100Y-62984147D01*
X186938228Y-63048297D01*
X186773816Y-63081000D01*
X186606184Y-63081000D01*
X186441772Y-63048297D01*
X186286900Y-62984147D01*
X186147519Y-62891015D01*
X186028985Y-62772481D01*
X185935853Y-62633100D01*
X185871703Y-62478228D01*
X185839000Y-62313816D01*
X185839000Y-62146184D01*
X185871703Y-61981772D01*
X185935853Y-61826900D01*
X186028985Y-61687519D01*
X186147519Y-61568985D01*
X186286900Y-61475853D01*
X186441772Y-61411703D01*
X186606184Y-61379000D01*
X186773816Y-61379000D01*
X186938228Y-61411703D01*
G37*
G36*
X174238228Y-61411703D02*
G01*
X174393100Y-61475853D01*
X174532481Y-61568985D01*
X174651015Y-61687519D01*
X174744147Y-61826900D01*
X174808297Y-61981772D01*
X174841000Y-62146184D01*
X174841000Y-62313816D01*
X174808297Y-62478228D01*
X174744147Y-62633100D01*
X174651015Y-62772481D01*
X174532481Y-62891015D01*
X174393100Y-62984147D01*
X174238228Y-63048297D01*
X174073816Y-63081000D01*
X173906184Y-63081000D01*
X173741772Y-63048297D01*
X173586900Y-62984147D01*
X173447519Y-62891015D01*
X173328985Y-62772481D01*
X173235853Y-62633100D01*
X173171703Y-62478228D01*
X173139000Y-62313816D01*
X173139000Y-62146184D01*
X173171703Y-61981772D01*
X173235853Y-61826900D01*
X173328985Y-61687519D01*
X173447519Y-61568985D01*
X173586900Y-61475853D01*
X173741772Y-61411703D01*
X173906184Y-61379000D01*
X174073816Y-61379000D01*
X174238228Y-61411703D01*
G37*
G36*
X171698228Y-61411703D02*
G01*
X171853100Y-61475853D01*
X171992481Y-61568985D01*
X172111015Y-61687519D01*
X172204147Y-61826900D01*
X172268297Y-61981772D01*
X172301000Y-62146184D01*
X172301000Y-62313816D01*
X172268297Y-62478228D01*
X172204147Y-62633100D01*
X172111015Y-62772481D01*
X171992481Y-62891015D01*
X171853100Y-62984147D01*
X171698228Y-63048297D01*
X171533816Y-63081000D01*
X171366184Y-63081000D01*
X171201772Y-63048297D01*
X171046900Y-62984147D01*
X170907519Y-62891015D01*
X170788985Y-62772481D01*
X170695853Y-62633100D01*
X170631703Y-62478228D01*
X170599000Y-62313816D01*
X170599000Y-62146184D01*
X170631703Y-61981772D01*
X170695853Y-61826900D01*
X170788985Y-61687519D01*
X170907519Y-61568985D01*
X171046900Y-61475853D01*
X171201772Y-61411703D01*
X171366184Y-61379000D01*
X171533816Y-61379000D01*
X171698228Y-61411703D01*
G37*
G36*
X189478228Y-61411703D02*
G01*
X189633100Y-61475853D01*
X189772481Y-61568985D01*
X189891015Y-61687519D01*
X189984147Y-61826900D01*
X190048297Y-61981772D01*
X190081000Y-62146184D01*
X190081000Y-62313816D01*
X190048297Y-62478228D01*
X189984147Y-62633100D01*
X189891015Y-62772481D01*
X189772481Y-62891015D01*
X189633100Y-62984147D01*
X189478228Y-63048297D01*
X189313816Y-63081000D01*
X189146184Y-63081000D01*
X188981772Y-63048297D01*
X188826900Y-62984147D01*
X188687519Y-62891015D01*
X188568985Y-62772481D01*
X188475853Y-62633100D01*
X188411703Y-62478228D01*
X188379000Y-62313816D01*
X188379000Y-62146184D01*
X188411703Y-61981772D01*
X188475853Y-61826900D01*
X188568985Y-61687519D01*
X188687519Y-61568985D01*
X188826900Y-61475853D01*
X188981772Y-61411703D01*
X189146184Y-61379000D01*
X189313816Y-61379000D01*
X189478228Y-61411703D01*
G37*
G36*
X174238228Y-53791703D02*
G01*
X174393100Y-53855853D01*
X174532481Y-53948985D01*
X174651015Y-54067519D01*
X174744147Y-54206900D01*
X174808297Y-54361772D01*
X174841000Y-54526184D01*
X174841000Y-54693816D01*
X174808297Y-54858228D01*
X174744147Y-55013100D01*
X174651015Y-55152481D01*
X174532481Y-55271015D01*
X174393100Y-55364147D01*
X174238228Y-55428297D01*
X174073816Y-55461000D01*
X173906184Y-55461000D01*
X173741772Y-55428297D01*
X173586900Y-55364147D01*
X173447519Y-55271015D01*
X173328985Y-55152481D01*
X173235853Y-55013100D01*
X173171703Y-54858228D01*
X173139000Y-54693816D01*
X173139000Y-54526184D01*
X173171703Y-54361772D01*
X173235853Y-54206900D01*
X173328985Y-54067519D01*
X173447519Y-53948985D01*
X173586900Y-53855853D01*
X173741772Y-53791703D01*
X173906184Y-53759000D01*
X174073816Y-53759000D01*
X174238228Y-53791703D01*
G37*
G36*
X187541000Y-55461000D02*
G01*
X185839000Y-55461000D01*
X185839000Y-53759000D01*
X187541000Y-53759000D01*
X187541000Y-55461000D01*
G37*
G36*
X172301000Y-55461000D02*
G01*
X170599000Y-55461000D01*
X170599000Y-53759000D01*
X172301000Y-53759000D01*
X172301000Y-55461000D01*
G37*
G36*
X189478228Y-53791703D02*
G01*
X189633100Y-53855853D01*
X189772481Y-53948985D01*
X189891015Y-54067519D01*
X189984147Y-54206900D01*
X190048297Y-54361772D01*
X190081000Y-54526184D01*
X190081000Y-54693816D01*
X190048297Y-54858228D01*
X189984147Y-55013100D01*
X189891015Y-55152481D01*
X189772481Y-55271015D01*
X189633100Y-55364147D01*
X189478228Y-55428297D01*
X189313816Y-55461000D01*
X189146184Y-55461000D01*
X188981772Y-55428297D01*
X188826900Y-55364147D01*
X188687519Y-55271015D01*
X188568985Y-55152481D01*
X188475853Y-55013100D01*
X188411703Y-54858228D01*
X188379000Y-54693816D01*
X188379000Y-54526184D01*
X188411703Y-54361772D01*
X188475853Y-54206900D01*
X188568985Y-54067519D01*
X188687519Y-53948985D01*
X188826900Y-53855853D01*
X188981772Y-53791703D01*
X189146184Y-53759000D01*
X189313816Y-53759000D01*
X189478228Y-53791703D01*
G37*
G36*
X154505256Y-47111298D02*
G01*
X154611579Y-47132447D01*
X154912042Y-47256903D01*
X155182451Y-47437585D01*
X155412415Y-47667549D01*
X155593097Y-47937958D01*
X155689734Y-48171259D01*
X155717553Y-48238422D01*
X155781000Y-48557389D01*
X155781000Y-48882611D01*
X155765635Y-48959853D01*
X155717553Y-49201579D01*
X155593097Y-49502042D01*
X155412415Y-49772451D01*
X155182451Y-50002415D01*
X154912042Y-50183097D01*
X154611579Y-50307553D01*
X154505256Y-50328702D01*
X154292611Y-50371000D01*
X153967389Y-50371000D01*
X153754744Y-50328702D01*
X153648421Y-50307553D01*
X153347958Y-50183097D01*
X153077549Y-50002415D01*
X152847585Y-49772451D01*
X152666903Y-49502042D01*
X152542447Y-49201579D01*
X152494365Y-48959853D01*
X152479000Y-48882611D01*
X152479000Y-48557389D01*
X152542447Y-48238422D01*
X152570267Y-48171259D01*
X152666903Y-47937958D01*
X152847585Y-47667549D01*
X153077549Y-47437585D01*
X153347958Y-47256903D01*
X153648421Y-47132447D01*
X153754744Y-47111298D01*
X153967389Y-47069000D01*
X154292611Y-47069000D01*
X154505256Y-47111298D01*
G37*
G36*
X205655256Y-47111298D02*
G01*
X205761579Y-47132447D01*
X206062042Y-47256903D01*
X206332451Y-47437585D01*
X206562415Y-47667549D01*
X206743097Y-47937958D01*
X206839734Y-48171259D01*
X206867553Y-48238422D01*
X206931000Y-48557389D01*
X206931000Y-48882611D01*
X206915635Y-48959853D01*
X206867553Y-49201579D01*
X206743097Y-49502042D01*
X206562415Y-49772451D01*
X206332451Y-50002415D01*
X206062042Y-50183097D01*
X205761579Y-50307553D01*
X205655256Y-50328702D01*
X205442611Y-50371000D01*
X205117389Y-50371000D01*
X204904744Y-50328702D01*
X204798421Y-50307553D01*
X204497958Y-50183097D01*
X204227549Y-50002415D01*
X203997585Y-49772451D01*
X203816903Y-49502042D01*
X203692447Y-49201579D01*
X203644365Y-48959853D01*
X203629000Y-48882611D01*
X203629000Y-48557389D01*
X203692447Y-48238422D01*
X203720267Y-48171259D01*
X203816903Y-47937958D01*
X203997585Y-47667549D01*
X204227549Y-47437585D01*
X204497958Y-47256903D01*
X204798421Y-47132447D01*
X204904744Y-47111298D01*
X205117389Y-47069000D01*
X205442611Y-47069000D01*
X205655256Y-47111298D01*
G37*
G36*
X198233512Y-47363927D02*
G01*
X198382812Y-47393624D01*
X198546784Y-47461544D01*
X198694354Y-47560147D01*
X198819853Y-47685646D01*
X198918456Y-47833216D01*
X198986376Y-47997188D01*
X199021000Y-48171259D01*
X199021000Y-48348741D01*
X198986376Y-48522812D01*
X198918456Y-48686784D01*
X198819853Y-48834354D01*
X198694354Y-48959853D01*
X198546784Y-49058456D01*
X198382812Y-49126376D01*
X198233512Y-49156073D01*
X198208742Y-49161000D01*
X198031258Y-49161000D01*
X198006488Y-49156073D01*
X197857188Y-49126376D01*
X197693216Y-49058456D01*
X197545646Y-48959853D01*
X197420147Y-48834354D01*
X197321544Y-48686784D01*
X197253624Y-48522812D01*
X197219000Y-48348741D01*
X197219000Y-48171259D01*
X197253624Y-47997188D01*
X197321544Y-47833216D01*
X197420147Y-47685646D01*
X197545646Y-47560147D01*
X197693216Y-47461544D01*
X197857188Y-47393624D01*
X198006488Y-47363927D01*
X198031258Y-47359000D01*
X198208742Y-47359000D01*
X198233512Y-47363927D01*
G37*
G36*
X186321000Y-49161000D02*
G01*
X184519000Y-49161000D01*
X184519000Y-47359000D01*
X186321000Y-47359000D01*
X186321000Y-49161000D01*
G37*
G36*
X188073512Y-47363927D02*
G01*
X188222812Y-47393624D01*
X188386784Y-47461544D01*
X188534354Y-47560147D01*
X188659853Y-47685646D01*
X188758456Y-47833216D01*
X188826376Y-47997188D01*
X188861000Y-48171259D01*
X188861000Y-48348741D01*
X188826376Y-48522812D01*
X188758456Y-48686784D01*
X188659853Y-48834354D01*
X188534354Y-48959853D01*
X188386784Y-49058456D01*
X188222812Y-49126376D01*
X188073512Y-49156073D01*
X188048742Y-49161000D01*
X187871258Y-49161000D01*
X187846488Y-49156073D01*
X187697188Y-49126376D01*
X187533216Y-49058456D01*
X187385646Y-48959853D01*
X187260147Y-48834354D01*
X187161544Y-48686784D01*
X187093624Y-48522812D01*
X187059000Y-48348741D01*
X187059000Y-48171259D01*
X187093624Y-47997188D01*
X187161544Y-47833216D01*
X187260147Y-47685646D01*
X187385646Y-47560147D01*
X187533216Y-47461544D01*
X187697188Y-47393624D01*
X187846488Y-47363927D01*
X187871258Y-47359000D01*
X188048742Y-47359000D01*
X188073512Y-47363927D01*
G37*
G36*
X190613512Y-47363927D02*
G01*
X190762812Y-47393624D01*
X190926784Y-47461544D01*
X191074354Y-47560147D01*
X191199853Y-47685646D01*
X191298456Y-47833216D01*
X191366376Y-47997188D01*
X191401000Y-48171259D01*
X191401000Y-48348741D01*
X191366376Y-48522812D01*
X191298456Y-48686784D01*
X191199853Y-48834354D01*
X191074354Y-48959853D01*
X190926784Y-49058456D01*
X190762812Y-49126376D01*
X190613512Y-49156073D01*
X190588742Y-49161000D01*
X190411258Y-49161000D01*
X190386488Y-49156073D01*
X190237188Y-49126376D01*
X190073216Y-49058456D01*
X189925646Y-48959853D01*
X189800147Y-48834354D01*
X189701544Y-48686784D01*
X189633624Y-48522812D01*
X189599000Y-48348741D01*
X189599000Y-48171259D01*
X189633624Y-47997188D01*
X189701544Y-47833216D01*
X189800147Y-47685646D01*
X189925646Y-47560147D01*
X190073216Y-47461544D01*
X190237188Y-47393624D01*
X190386488Y-47363927D01*
X190411258Y-47359000D01*
X190588742Y-47359000D01*
X190613512Y-47363927D01*
G37*
G36*
X193153512Y-47363927D02*
G01*
X193302812Y-47393624D01*
X193466784Y-47461544D01*
X193614354Y-47560147D01*
X193739853Y-47685646D01*
X193838456Y-47833216D01*
X193906376Y-47997188D01*
X193941000Y-48171259D01*
X193941000Y-48348741D01*
X193906376Y-48522812D01*
X193838456Y-48686784D01*
X193739853Y-48834354D01*
X193614354Y-48959853D01*
X193466784Y-49058456D01*
X193302812Y-49126376D01*
X193153512Y-49156073D01*
X193128742Y-49161000D01*
X192951258Y-49161000D01*
X192926488Y-49156073D01*
X192777188Y-49126376D01*
X192613216Y-49058456D01*
X192465646Y-48959853D01*
X192340147Y-48834354D01*
X192241544Y-48686784D01*
X192173624Y-48522812D01*
X192139000Y-48348741D01*
X192139000Y-48171259D01*
X192173624Y-47997188D01*
X192241544Y-47833216D01*
X192340147Y-47685646D01*
X192465646Y-47560147D01*
X192613216Y-47461544D01*
X192777188Y-47393624D01*
X192926488Y-47363927D01*
X192951258Y-47359000D01*
X193128742Y-47359000D01*
X193153512Y-47363927D01*
G37*
G36*
X195693512Y-47363927D02*
G01*
X195842812Y-47393624D01*
X196006784Y-47461544D01*
X196154354Y-47560147D01*
X196279853Y-47685646D01*
X196378456Y-47833216D01*
X196446376Y-47997188D01*
X196481000Y-48171259D01*
X196481000Y-48348741D01*
X196446376Y-48522812D01*
X196378456Y-48686784D01*
X196279853Y-48834354D01*
X196154354Y-48959853D01*
X196006784Y-49058456D01*
X195842812Y-49126376D01*
X195693512Y-49156073D01*
X195668742Y-49161000D01*
X195491258Y-49161000D01*
X195466488Y-49156073D01*
X195317188Y-49126376D01*
X195153216Y-49058456D01*
X195005646Y-48959853D01*
X194880147Y-48834354D01*
X194781544Y-48686784D01*
X194713624Y-48522812D01*
X194679000Y-48348741D01*
X194679000Y-48171259D01*
X194713624Y-47997188D01*
X194781544Y-47833216D01*
X194880147Y-47685646D01*
X195005646Y-47560147D01*
X195153216Y-47461544D01*
X195317188Y-47393624D01*
X195466488Y-47363927D01*
X195491258Y-47359000D01*
X195668742Y-47359000D01*
X195693512Y-47363927D01*
G37*
M02*
