M48
; DRILL file {KiCad 5.1.5+dfsg1-2build2} date Fri 17 Dec 2021 07:19:57 PM
; FORMAT={-:-/ absolute / inch / decimal}
; #@! TF.CreationDate,2021-12-17T19:19:57-04:00
; #@! TF.GenerationSoftware,Kicad,Pcbnew,5.1.5+dfsg1-2build2
; #@! TF.FileFunction,Plated,1,2,PTH
FMAT,2
INCH
T1C0.0315
T2C0.0354
T3C0.0394
T4C0.0402
%
G90
G05
T1
X6.75Y-2.15
X6.85Y-2.15
X7.85Y-4.45
X6.05Y-4.45
X6.35Y-4.45
X7.35Y-2.15
X7.35Y-2.45
X7.45Y-2.15
X7.45Y-2.45
X6.75Y-2.45
X6.85Y-2.45
X8.15Y-4.45
T2
X6.2Y-4.85
X6.3Y-4.85
X7.85Y-4.85
X7.95Y-4.85
T3
X7.0606Y-4.2094
X7.0606Y-4.5087
X7.3Y-1.9
X7.4Y-1.9
X7.5Y-1.9
X7.6Y-1.9
X7.7Y-1.9
X7.8Y-1.9
X7.8988Y-3.289
X7.8988Y-3.389
X7.8988Y-3.489
X7.8988Y-3.589
X7.8988Y-3.689
X7.8988Y-3.789
X7.8988Y-3.889
X7.8988Y-3.989
X7.8988Y-4.089
X7.8988Y-4.189
X7.9988Y-3.289
X7.9988Y-3.389
X7.9988Y-3.489
X7.9988Y-3.589
X7.9988Y-3.689
X7.9988Y-3.789
X7.9988Y-3.889
X7.9988Y-3.989
X7.9988Y-4.089
X7.9988Y-4.189
X6.1665Y-3.289
X6.1665Y-3.389
X6.1665Y-3.489
X6.1665Y-3.589
X6.1665Y-3.689
X6.1665Y-3.789
X6.1665Y-3.889
X6.1665Y-3.989
X6.1665Y-4.089
X6.1665Y-4.189
X6.2665Y-3.289
X6.2665Y-3.389
X6.2665Y-3.489
X6.2665Y-3.589
X6.2665Y-3.689
X6.2665Y-3.789
X6.2665Y-3.889
X6.2665Y-3.989
X6.2665Y-4.089
X6.2665Y-4.189
T4
X6.7894Y-2.75
X7.3795Y-2.75
T0
M30
