%TF.GenerationSoftware,KiCad,Pcbnew,5.1.5+dfsg1-2build2*%
%TF.CreationDate,2021-11-16T19:48:49-04:00*%
%TF.ProjectId,prototyping_backplane,70726f74-6f74-4797-9069-6e675f626163,rev?*%
%TF.SameCoordinates,Original*%
%TF.FileFunction,Plated,1,2,PTH,Drill*%
%TF.FilePolarity,Positive*%
%FSLAX46Y46*%
G04 Gerber Fmt 4.6, Leading zero omitted, Abs format (unit mm)*
G04 Created by KiCad (PCBNEW 5.1.5+dfsg1-2build2) date 2021-11-16 19:48:49*
%MOMM*%
%LPD*%
G04 APERTURE LIST*
%TA.AperFunction,ComponentDrill*%
%ADD10C,0.700000*%
%TD*%
%TA.AperFunction,ComponentDrill*%
%ADD11C,0.800000*%
%TD*%
%TA.AperFunction,ComponentDrill*%
%ADD12C,0.900000*%
%TD*%
%TA.AperFunction,ComponentDrill*%
%ADD13C,1.000000*%
%TD*%
%TA.AperFunction,ComponentDrill*%
%ADD14C,1.020000*%
%TD*%
G04 APERTURE END LIST*
D10*
%TO.C,R3*%
X158750000Y-111760000D03*
X158750000Y-116840000D03*
%TO.C,R2*%
X200660000Y-111760000D03*
X200660000Y-116840000D03*
D11*
%TO.C,SW2*%
X186690000Y-54610000D03*
X186690000Y-62230000D03*
X189230000Y-54610000D03*
X189230000Y-62230000D03*
%TO.C,J2*%
X199630000Y-88540000D03*
X199630000Y-90540000D03*
X199630000Y-92540000D03*
X199630000Y-94540000D03*
X199630000Y-96540000D03*
X199630000Y-98540000D03*
X199630000Y-100540000D03*
X199630000Y-102540000D03*
X199630000Y-104540000D03*
X199630000Y-106540000D03*
X201630000Y-88540000D03*
X201630000Y-90540000D03*
X201630000Y-92540000D03*
X201630000Y-94540000D03*
X201630000Y-96540000D03*
X201630000Y-98540000D03*
X201630000Y-100540000D03*
X201630000Y-102540000D03*
X201630000Y-104540000D03*
X201630000Y-106540000D03*
%TO.C,J3*%
X191770000Y-49530000D03*
X193770000Y-49530000D03*
X195770000Y-49530000D03*
X197770000Y-49530000D03*
%TO.C,J1*%
X157630000Y-88540000D03*
X157630000Y-90540000D03*
X157630000Y-92540000D03*
X157630000Y-94540000D03*
X157630000Y-96540000D03*
X157630000Y-98540000D03*
X157630000Y-100540000D03*
X157630000Y-102540000D03*
X157630000Y-104540000D03*
X157630000Y-106540000D03*
X159630000Y-88540000D03*
X159630000Y-90540000D03*
X159630000Y-92540000D03*
X159630000Y-94540000D03*
X159630000Y-96540000D03*
X159630000Y-98540000D03*
X159630000Y-100540000D03*
X159630000Y-102540000D03*
X159630000Y-104540000D03*
X159630000Y-106540000D03*
%TO.C,SW1*%
X171450000Y-54610000D03*
X171450000Y-62230000D03*
X173990000Y-54610000D03*
X173990000Y-62230000D03*
D12*
%TO.C,D1*%
X199390000Y-123190000D03*
X201930000Y-123190000D03*
%TO.C,D2*%
X157480000Y-123190000D03*
X160020000Y-123190000D03*
D13*
%TO.C,LS1*%
X179340000Y-106920000D03*
X179340000Y-114520000D03*
D14*
%TO.C,BT1*%
X172450000Y-69850000D03*
X187440000Y-69850000D03*
M02*
