M48
; DRILL file {KiCad 5.1.5+dfsg1-2build2} date Tue 16 Nov 2021 07:57:07 PM
; FORMAT={-:-/ absolute / inch / decimal}
; #@! TF.CreationDate,2021-11-16T19:57:07-04:00
; #@! TF.GenerationSoftware,Kicad,Pcbnew,5.1.5+dfsg1-2build2
; #@! TF.FileFunction,Plated,1,2,PTH
FMAT,2
INCH
T1C0.0276
T2C0.0315
T3C0.0354
T4C0.0394
T5C0.0402
%
G90
G05
T1
X6.25Y-4.4
X6.25Y-4.6
X7.9Y-4.4
X7.9Y-4.6
T2
X7.35Y-2.15
X7.35Y-2.45
X7.45Y-2.15
X7.45Y-2.45
X7.8594Y-3.4858
X7.8594Y-3.5646
X7.8594Y-3.6433
X7.8594Y-3.722
X7.8594Y-3.8008
X7.8594Y-3.8795
X7.8594Y-3.9583
X7.8594Y-4.037
X7.8594Y-4.1157
X7.8594Y-4.1945
X7.9382Y-3.4858
X7.9382Y-3.5646
X7.9382Y-3.6433
X7.9382Y-3.722
X7.9382Y-3.8008
X7.9382Y-3.8795
X7.9382Y-3.9583
X7.9382Y-4.037
X7.9382Y-4.1157
X7.9382Y-4.1945
X7.55Y-1.95
X7.6287Y-1.95
X7.7075Y-1.95
X7.7862Y-1.95
X6.2059Y-3.4858
X6.2059Y-3.5646
X6.2059Y-3.6433
X6.2059Y-3.722
X6.2059Y-3.8008
X6.2059Y-3.8795
X6.2059Y-3.9583
X6.2059Y-4.037
X6.2059Y-4.1157
X6.2059Y-4.1945
X6.2846Y-3.4858
X6.2846Y-3.5646
X6.2846Y-3.6433
X6.2846Y-3.722
X6.2846Y-3.8008
X6.2846Y-3.8795
X6.2846Y-3.9583
X6.2846Y-4.037
X6.2846Y-4.1157
X6.2846Y-4.1945
X6.75Y-2.15
X6.75Y-2.45
X6.85Y-2.15
X6.85Y-2.45
T3
X7.85Y-4.85
X7.95Y-4.85
X6.2Y-4.85
X6.3Y-4.85
T4
X7.0606Y-4.2094
X7.0606Y-4.5087
T5
X6.7894Y-2.75
X7.3795Y-2.75
T0
M30
