G04 #@! TF.GenerationSoftware,KiCad,Pcbnew,5.1.5+dfsg1-2build2*
G04 #@! TF.CreationDate,2021-12-17T19:19:48-04:00*
G04 #@! TF.ProjectId,prototyping_backplane,70726f74-6f74-4797-9069-6e675f626163,B*
G04 #@! TF.SameCoordinates,Original*
G04 #@! TF.FileFunction,Copper,L1,Top*
G04 #@! TF.FilePolarity,Positive*
%FSLAX46Y46*%
G04 Gerber Fmt 4.6, Leading zero omitted, Abs format (unit mm)*
G04 Created by KiCad (PCBNEW 5.1.5+dfsg1-2build2) date 2021-12-17 19:19:48*
%MOMM*%
%LPD*%
G04 APERTURE LIST*
%ADD10O,1.700000X1.700000*%
%ADD11R,1.700000X1.700000*%
%ADD12O,1.600000X1.600000*%
%ADD13C,1.600000*%
%ADD14C,2.000000*%
%ADD15R,2.000000X2.000000*%
%ADD16R,1.600000X1.600000*%
%ADD17C,1.800000*%
%ADD18R,1.800000X1.800000*%
%ADD19C,1.000000*%
G04 APERTURE END LIST*
D10*
X198120000Y-48260000D03*
X195580000Y-48260000D03*
X193040000Y-48260000D03*
X190500000Y-48260000D03*
X187960000Y-48260000D03*
D11*
X185420000Y-48260000D03*
D12*
X161290000Y-113030000D03*
D13*
X153670000Y-113030000D03*
D12*
X199390000Y-113030000D03*
D13*
X207010000Y-113030000D03*
D10*
X159170000Y-106400000D03*
X156630000Y-106400000D03*
X159170000Y-103860000D03*
X156630000Y-103860000D03*
X159170000Y-101320000D03*
X156630000Y-101320000D03*
X159170000Y-98780000D03*
X156630000Y-98780000D03*
X159170000Y-96240000D03*
X156630000Y-96240000D03*
X159170000Y-93700000D03*
X156630000Y-93700000D03*
X159170000Y-91160000D03*
X156630000Y-91160000D03*
X159170000Y-88620000D03*
X156630000Y-88620000D03*
X159170000Y-86080000D03*
X156630000Y-86080000D03*
X159170000Y-83540000D03*
D11*
X156630000Y-83540000D03*
D10*
X203170000Y-106400000D03*
X200630000Y-106400000D03*
X203170000Y-103860000D03*
X200630000Y-103860000D03*
X203170000Y-101320000D03*
X200630000Y-101320000D03*
X203170000Y-98780000D03*
X200630000Y-98780000D03*
X203170000Y-96240000D03*
X200630000Y-96240000D03*
X203170000Y-93700000D03*
X200630000Y-93700000D03*
X203170000Y-91160000D03*
X200630000Y-91160000D03*
X203170000Y-88620000D03*
X200630000Y-88620000D03*
X203170000Y-86080000D03*
X200630000Y-86080000D03*
X203170000Y-83540000D03*
D11*
X200630000Y-83540000D03*
D14*
X187440000Y-69850000D03*
D15*
X172450000Y-69850000D03*
D12*
X186690000Y-62230000D03*
X189230000Y-54610000D03*
X189230000Y-62230000D03*
D16*
X186690000Y-54610000D03*
D12*
X171450000Y-62230000D03*
X173990000Y-54610000D03*
X173990000Y-62230000D03*
D16*
X171450000Y-54610000D03*
D14*
X179340000Y-114520000D03*
D15*
X179340000Y-106920000D03*
D17*
X160020000Y-123190000D03*
D18*
X157480000Y-123190000D03*
D17*
X201930000Y-123190000D03*
D18*
X199390000Y-123190000D03*
D19*
X186690000Y-62230000D02*
X189230000Y-62230000D01*
X186690000Y-69100000D02*
X187440000Y-69850000D01*
X186690000Y-62230000D02*
X186690000Y-69100000D01*
X172450000Y-63770000D02*
X173990000Y-62230000D01*
X172450000Y-69850000D02*
X172450000Y-63770000D01*
X201930000Y-118110000D02*
X201930000Y-123190000D01*
X199390000Y-115570000D02*
X201930000Y-118110000D01*
X199390000Y-113030000D02*
X199390000Y-115570000D01*
X157480000Y-116840000D02*
X153670000Y-113030000D01*
X158750000Y-116840000D02*
X157480000Y-116840000D01*
X160020000Y-118110000D02*
X158750000Y-116840000D01*
X160020000Y-123190000D02*
X160020000Y-118110000D01*
X161290000Y-105980000D02*
X161290000Y-113030000D01*
X159170000Y-103860000D02*
X161290000Y-105980000D01*
X160019999Y-102169999D02*
X159170000Y-101320000D01*
X166470001Y-108620001D02*
X160019999Y-102169999D01*
X202600001Y-108620001D02*
X166470001Y-108620001D01*
X207010000Y-113030000D02*
X202600001Y-108620001D01*
X156630000Y-83540000D02*
X156630000Y-55460000D01*
X173990000Y-53478630D02*
X173990000Y-54610000D01*
X173621369Y-53109999D02*
X173990000Y-53478630D01*
X158980001Y-53109999D02*
X173621369Y-53109999D01*
X156630000Y-55460000D02*
X158980001Y-53109999D01*
X173990000Y-54610000D02*
X180920000Y-54610000D01*
X185420000Y-50110000D02*
X185420000Y-48260000D01*
X180920000Y-54610000D02*
X185420000Y-50110000D01*
X196429999Y-49109999D02*
X195580000Y-48260000D01*
X205920010Y-96029990D02*
X205920010Y-58600010D01*
X205920010Y-58600010D02*
X196429999Y-49109999D01*
X203170000Y-98780000D02*
X205920010Y-96029990D01*
X204720001Y-94689999D02*
X204720001Y-66290001D01*
X203170000Y-96240000D02*
X204720001Y-94689999D01*
X193040000Y-54610000D02*
X193040000Y-48260000D01*
X204720001Y-66290001D02*
X193040000Y-54610000D01*
X181340000Y-106920000D02*
X179340000Y-106920000D01*
X183667919Y-106920000D02*
X181340000Y-106920000D01*
X199427919Y-91160000D02*
X183667919Y-106920000D01*
X200630000Y-91160000D02*
X199427919Y-91160000D01*
X186690000Y-56410000D02*
X186690000Y-54610000D01*
X185189999Y-57910001D02*
X186690000Y-56410000D01*
X185189999Y-71842080D02*
X185189999Y-57910001D01*
X199427919Y-86080000D02*
X185189999Y-71842080D01*
X200630000Y-86080000D02*
X199427919Y-86080000D01*
X200630000Y-66010000D02*
X189230000Y-54610000D01*
X200630000Y-83540000D02*
X200630000Y-66010000D01*
X199390000Y-121290000D02*
X199390000Y-123190000D01*
X192620000Y-114520000D02*
X199390000Y-121290000D01*
X179340000Y-114520000D02*
X192620000Y-114520000D01*
X179340000Y-114520000D02*
X179340000Y-120380000D01*
X159080001Y-124790001D02*
X157480000Y-123190000D01*
X174929999Y-124790001D02*
X159080001Y-124790001D01*
X179340000Y-120380000D02*
X174929999Y-124790001D01*
M02*
