G04 #@! TF.GenerationSoftware,KiCad,Pcbnew,5.1.5+dfsg1-2build2*
G04 #@! TF.CreationDate,2021-12-17T19:19:48-04:00*
G04 #@! TF.ProjectId,prototyping_backplane,70726f74-6f74-4797-9069-6e675f626163,B*
G04 #@! TF.SameCoordinates,Original*
G04 #@! TF.FileFunction,Copper,L2,Bot*
G04 #@! TF.FilePolarity,Positive*
%FSLAX46Y46*%
G04 Gerber Fmt 4.6, Leading zero omitted, Abs format (unit mm)*
G04 Created by KiCad (PCBNEW 5.1.5+dfsg1-2build2) date 2021-12-17 19:19:48*
%MOMM*%
%LPD*%
G04 APERTURE LIST*
%ADD10O,1.700000X1.700000*%
%ADD11R,1.700000X1.700000*%
%ADD12O,1.600000X1.600000*%
%ADD13C,1.600000*%
%ADD14C,2.000000*%
%ADD15R,2.000000X2.000000*%
%ADD16R,1.600000X1.600000*%
%ADD17C,1.800000*%
%ADD18R,1.800000X1.800000*%
%ADD19C,1.000000*%
G04 APERTURE END LIST*
D10*
X198120000Y-48260000D03*
X195580000Y-48260000D03*
X193040000Y-48260000D03*
X190500000Y-48260000D03*
X187960000Y-48260000D03*
D11*
X185420000Y-48260000D03*
D12*
X161290000Y-113030000D03*
D13*
X153670000Y-113030000D03*
D12*
X199390000Y-113030000D03*
D13*
X207010000Y-113030000D03*
D10*
X159170000Y-106400000D03*
X156630000Y-106400000D03*
X159170000Y-103860000D03*
X156630000Y-103860000D03*
X159170000Y-101320000D03*
X156630000Y-101320000D03*
X159170000Y-98780000D03*
X156630000Y-98780000D03*
X159170000Y-96240000D03*
X156630000Y-96240000D03*
X159170000Y-93700000D03*
X156630000Y-93700000D03*
X159170000Y-91160000D03*
X156630000Y-91160000D03*
X159170000Y-88620000D03*
X156630000Y-88620000D03*
X159170000Y-86080000D03*
X156630000Y-86080000D03*
X159170000Y-83540000D03*
D11*
X156630000Y-83540000D03*
D10*
X203170000Y-106400000D03*
X200630000Y-106400000D03*
X203170000Y-103860000D03*
X200630000Y-103860000D03*
X203170000Y-101320000D03*
X200630000Y-101320000D03*
X203170000Y-98780000D03*
X200630000Y-98780000D03*
X203170000Y-96240000D03*
X200630000Y-96240000D03*
X203170000Y-93700000D03*
X200630000Y-93700000D03*
X203170000Y-91160000D03*
X200630000Y-91160000D03*
X203170000Y-88620000D03*
X200630000Y-88620000D03*
X203170000Y-86080000D03*
X200630000Y-86080000D03*
X203170000Y-83540000D03*
D11*
X200630000Y-83540000D03*
D14*
X187440000Y-69850000D03*
D15*
X172450000Y-69850000D03*
D12*
X186690000Y-62230000D03*
X189230000Y-54610000D03*
X189230000Y-62230000D03*
D16*
X186690000Y-54610000D03*
D12*
X171450000Y-62230000D03*
X173990000Y-54610000D03*
X173990000Y-62230000D03*
D16*
X171450000Y-54610000D03*
D14*
X179340000Y-114520000D03*
D15*
X179340000Y-106920000D03*
D17*
X160020000Y-123190000D03*
D18*
X157480000Y-123190000D03*
D17*
X201930000Y-123190000D03*
D18*
X199390000Y-123190000D03*
D19*
X188854213Y-69850000D02*
X187440000Y-69850000D01*
X190682081Y-69850000D02*
X188854213Y-69850000D01*
X203170000Y-82337919D02*
X190682081Y-69850000D01*
X203170000Y-83540000D02*
X203170000Y-82337919D01*
X189230000Y-57150000D02*
X198120000Y-48260000D01*
X189230000Y-62230000D02*
X189230000Y-57150000D01*
X153879990Y-77580008D02*
X174309998Y-57150000D01*
X153879990Y-105943992D02*
X153879990Y-77580008D01*
X155885999Y-107950001D02*
X153879990Y-105943992D01*
X157619999Y-107950001D02*
X155885999Y-107950001D01*
X159170000Y-106400000D02*
X157619999Y-107950001D01*
X174309998Y-57150000D02*
X180272081Y-57150000D01*
X187110001Y-49109999D02*
X187960000Y-48260000D01*
X187110001Y-49530001D02*
X187110001Y-49109999D01*
X180272081Y-56367921D02*
X187110001Y-49530001D01*
X180272081Y-57150000D02*
X180272081Y-56367921D01*
X189650001Y-49109999D02*
X190500000Y-48260000D01*
X189329999Y-49109999D02*
X189650001Y-49109999D01*
X185189999Y-54840001D02*
X185189999Y-53249999D01*
X176299999Y-63730001D02*
X185189999Y-54840001D01*
X173479997Y-63730001D02*
X176299999Y-63730001D01*
X155079999Y-82129999D02*
X173479997Y-63730001D01*
X185189999Y-53249999D02*
X189329999Y-49109999D01*
X155079999Y-97229999D02*
X155079999Y-82129999D01*
X156630000Y-98780000D02*
X155079999Y-97229999D01*
X178340001Y-113520001D02*
X179340000Y-114520000D01*
X162560000Y-96520000D02*
X179895000Y-113855000D01*
X162560000Y-96520000D02*
X162560000Y-86360000D01*
X162280000Y-86080000D02*
X159170000Y-86080000D01*
X162560000Y-86360000D02*
X162280000Y-86080000D01*
M02*
