G04 #@! TF.GenerationSoftware,KiCad,Pcbnew,5.1.5+dfsg1-2build2*
G04 #@! TF.CreationDate,2021-12-17T19:19:48-04:00*
G04 #@! TF.ProjectId,prototyping_backplane,70726f74-6f74-4797-9069-6e675f626163,B*
G04 #@! TF.SameCoordinates,Original*
G04 #@! TF.FileFunction,Legend,Top*
G04 #@! TF.FilePolarity,Positive*
%FSLAX46Y46*%
G04 Gerber Fmt 4.6, Leading zero omitted, Abs format (unit mm)*
G04 Created by KiCad (PCBNEW 5.1.5+dfsg1-2build2) date 2021-12-17 19:19:48*
%MOMM*%
%LPD*%
G04 APERTURE LIST*
%ADD10C,0.100000*%
%ADD11C,0.150000*%
%ADD12C,0.120000*%
%ADD13C,0.010000*%
G04 APERTURE END LIST*
D10*
G36*
X189230000Y-81788000D02*
G01*
X178562000Y-81788000D01*
X178562000Y-79248000D01*
X189230000Y-79248000D01*
X189230000Y-81788000D01*
G37*
X189230000Y-81788000D02*
X178562000Y-81788000D01*
X178562000Y-79248000D01*
X189230000Y-79248000D01*
X189230000Y-81788000D01*
D11*
X172140857Y-80871142D02*
X172355142Y-80942571D01*
X172712285Y-80942571D01*
X172855142Y-80871142D01*
X172926571Y-80799714D01*
X172998000Y-80656857D01*
X172998000Y-80514000D01*
X172926571Y-80371142D01*
X172855142Y-80299714D01*
X172712285Y-80228285D01*
X172426571Y-80156857D01*
X172283714Y-80085428D01*
X172212285Y-80014000D01*
X172140857Y-79871142D01*
X172140857Y-79728285D01*
X172212285Y-79585428D01*
X172283714Y-79514000D01*
X172426571Y-79442571D01*
X172783714Y-79442571D01*
X172998000Y-79514000D01*
X174712285Y-79371142D02*
X173426571Y-81299714D01*
X175212285Y-80942571D02*
X175212285Y-79442571D01*
X176069428Y-80942571D01*
X176069428Y-79442571D01*
X176783714Y-80799714D02*
X176855142Y-80871142D01*
X176783714Y-80942571D01*
X176712285Y-80871142D01*
X176783714Y-80799714D01*
X176783714Y-80942571D01*
X176783714Y-80014000D02*
X176855142Y-80085428D01*
X176783714Y-80156857D01*
X176712285Y-80085428D01*
X176783714Y-80014000D01*
X176783714Y-80156857D01*
X169685142Y-78402571D02*
X169685142Y-76902571D01*
X170256571Y-76902571D01*
X170399428Y-76974000D01*
X170470857Y-77045428D01*
X170542285Y-77188285D01*
X170542285Y-77402571D01*
X170470857Y-77545428D01*
X170399428Y-77616857D01*
X170256571Y-77688285D01*
X169685142Y-77688285D01*
X172042285Y-78402571D02*
X171542285Y-77688285D01*
X171185142Y-78402571D02*
X171185142Y-76902571D01*
X171756571Y-76902571D01*
X171899428Y-76974000D01*
X171970857Y-77045428D01*
X172042285Y-77188285D01*
X172042285Y-77402571D01*
X171970857Y-77545428D01*
X171899428Y-77616857D01*
X171756571Y-77688285D01*
X171185142Y-77688285D01*
X172970857Y-76902571D02*
X173256571Y-76902571D01*
X173399428Y-76974000D01*
X173542285Y-77116857D01*
X173613714Y-77402571D01*
X173613714Y-77902571D01*
X173542285Y-78188285D01*
X173399428Y-78331142D01*
X173256571Y-78402571D01*
X172970857Y-78402571D01*
X172828000Y-78331142D01*
X172685142Y-78188285D01*
X172613714Y-77902571D01*
X172613714Y-77402571D01*
X172685142Y-77116857D01*
X172828000Y-76974000D01*
X172970857Y-76902571D01*
X174042285Y-76902571D02*
X174899428Y-76902571D01*
X174470857Y-78402571D02*
X174470857Y-76902571D01*
X175685142Y-76902571D02*
X175970857Y-76902571D01*
X176113714Y-76974000D01*
X176256571Y-77116857D01*
X176328000Y-77402571D01*
X176328000Y-77902571D01*
X176256571Y-78188285D01*
X176113714Y-78331142D01*
X175970857Y-78402571D01*
X175685142Y-78402571D01*
X175542285Y-78331142D01*
X175399428Y-78188285D01*
X175328000Y-77902571D01*
X175328000Y-77402571D01*
X175399428Y-77116857D01*
X175542285Y-76974000D01*
X175685142Y-76902571D01*
X176756571Y-76902571D02*
X177613714Y-76902571D01*
X177185142Y-78402571D02*
X177185142Y-76902571D01*
X178399428Y-77688285D02*
X178399428Y-78402571D01*
X177899428Y-76902571D02*
X178399428Y-77688285D01*
X178899428Y-76902571D01*
X179399428Y-78402571D02*
X179399428Y-76902571D01*
X179970857Y-76902571D01*
X180113714Y-76974000D01*
X180185142Y-77045428D01*
X180256571Y-77188285D01*
X180256571Y-77402571D01*
X180185142Y-77545428D01*
X180113714Y-77616857D01*
X179970857Y-77688285D01*
X179399428Y-77688285D01*
X180899428Y-77616857D02*
X181399428Y-77616857D01*
X181613714Y-78402571D02*
X180899428Y-78402571D01*
X180899428Y-76902571D01*
X181613714Y-76902571D01*
X184256571Y-78402571D02*
X183756571Y-77688285D01*
X183399428Y-78402571D02*
X183399428Y-76902571D01*
X183970857Y-76902571D01*
X184113714Y-76974000D01*
X184185142Y-77045428D01*
X184256571Y-77188285D01*
X184256571Y-77402571D01*
X184185142Y-77545428D01*
X184113714Y-77616857D01*
X183970857Y-77688285D01*
X183399428Y-77688285D01*
X184899428Y-77616857D02*
X185399428Y-77616857D01*
X185613714Y-78402571D02*
X184899428Y-78402571D01*
X184899428Y-76902571D01*
X185613714Y-76902571D01*
X186042285Y-76902571D02*
X186542285Y-78402571D01*
X187042285Y-76902571D01*
X189185142Y-77616857D02*
X189399428Y-77688285D01*
X189470857Y-77759714D01*
X189542285Y-77902571D01*
X189542285Y-78116857D01*
X189470857Y-78259714D01*
X189399428Y-78331142D01*
X189256571Y-78402571D01*
X188685142Y-78402571D01*
X188685142Y-76902571D01*
X189185142Y-76902571D01*
X189328000Y-76974000D01*
X189399428Y-77045428D01*
X189470857Y-77188285D01*
X189470857Y-77331142D01*
X189399428Y-77474000D01*
X189328000Y-77545428D01*
X189185142Y-77616857D01*
X188685142Y-77616857D01*
X159387523Y-75580761D02*
X159387523Y-73580761D01*
X160149428Y-73580761D01*
X160339904Y-73676000D01*
X160435142Y-73771238D01*
X160530380Y-73961714D01*
X160530380Y-74247428D01*
X160435142Y-74437904D01*
X160339904Y-74533142D01*
X160149428Y-74628380D01*
X159387523Y-74628380D01*
X161387523Y-74533142D02*
X162054190Y-74533142D01*
X162339904Y-75580761D02*
X161387523Y-75580761D01*
X161387523Y-73580761D01*
X162339904Y-73580761D01*
X162911333Y-73580761D02*
X164054190Y-73580761D01*
X163482761Y-75580761D02*
X163482761Y-73580761D01*
X164720857Y-75580761D02*
X164720857Y-73580761D01*
X168339904Y-75580761D02*
X167673238Y-74628380D01*
X167197047Y-75580761D02*
X167197047Y-73580761D01*
X167958952Y-73580761D01*
X168149428Y-73676000D01*
X168244666Y-73771238D01*
X168339904Y-73961714D01*
X168339904Y-74247428D01*
X168244666Y-74437904D01*
X168149428Y-74533142D01*
X167958952Y-74628380D01*
X167197047Y-74628380D01*
X169958952Y-75485523D02*
X169768476Y-75580761D01*
X169387523Y-75580761D01*
X169197047Y-75485523D01*
X169101809Y-75295047D01*
X169101809Y-74533142D01*
X169197047Y-74342666D01*
X169387523Y-74247428D01*
X169768476Y-74247428D01*
X169958952Y-74342666D01*
X170054190Y-74533142D01*
X170054190Y-74723619D01*
X169101809Y-74914095D01*
X171768476Y-75580761D02*
X171768476Y-74533142D01*
X171673238Y-74342666D01*
X171482761Y-74247428D01*
X171101809Y-74247428D01*
X170911333Y-74342666D01*
X171768476Y-75485523D02*
X171577999Y-75580761D01*
X171101809Y-75580761D01*
X170911333Y-75485523D01*
X170816095Y-75295047D01*
X170816095Y-75104571D01*
X170911333Y-74914095D01*
X171101809Y-74818857D01*
X171577999Y-74818857D01*
X171768476Y-74723619D01*
X172720857Y-75580761D02*
X172720857Y-74247428D01*
X172720857Y-74628380D02*
X172816095Y-74437904D01*
X172911333Y-74342666D01*
X173101809Y-74247428D01*
X173292285Y-74247428D01*
X175482761Y-74533142D02*
X176149428Y-74533142D01*
X176435142Y-75580761D02*
X175482761Y-75580761D01*
X175482761Y-73580761D01*
X176435142Y-73580761D01*
X177101809Y-75580761D02*
X178149428Y-74247428D01*
X177101809Y-74247428D02*
X178149428Y-75580761D01*
X178911333Y-74247428D02*
X178911333Y-76247428D01*
X178911333Y-74342666D02*
X179101809Y-74247428D01*
X179482761Y-74247428D01*
X179673238Y-74342666D01*
X179768476Y-74437904D01*
X179863714Y-74628380D01*
X179863714Y-75199809D01*
X179768476Y-75390285D01*
X179673238Y-75485523D01*
X179482761Y-75580761D01*
X179101809Y-75580761D01*
X178911333Y-75485523D01*
X181577999Y-75580761D02*
X181577999Y-74533142D01*
X181482761Y-74342666D01*
X181292285Y-74247428D01*
X180911333Y-74247428D01*
X180720857Y-74342666D01*
X181577999Y-75485523D02*
X181387523Y-75580761D01*
X180911333Y-75580761D01*
X180720857Y-75485523D01*
X180625619Y-75295047D01*
X180625619Y-75104571D01*
X180720857Y-74914095D01*
X180911333Y-74818857D01*
X181387523Y-74818857D01*
X181577999Y-74723619D01*
X182530380Y-74247428D02*
X182530380Y-75580761D01*
X182530380Y-74437904D02*
X182625619Y-74342666D01*
X182816095Y-74247428D01*
X183101809Y-74247428D01*
X183292285Y-74342666D01*
X183387523Y-74533142D01*
X183387523Y-75580761D01*
X184244666Y-75485523D02*
X184435142Y-75580761D01*
X184816095Y-75580761D01*
X185006571Y-75485523D01*
X185101809Y-75295047D01*
X185101809Y-75199809D01*
X185006571Y-75009333D01*
X184816095Y-74914095D01*
X184530380Y-74914095D01*
X184339904Y-74818857D01*
X184244666Y-74628380D01*
X184244666Y-74533142D01*
X184339904Y-74342666D01*
X184530380Y-74247428D01*
X184816095Y-74247428D01*
X185006571Y-74342666D01*
X185958952Y-75580761D02*
X185958952Y-74247428D01*
X185958952Y-73580761D02*
X185863714Y-73676000D01*
X185958952Y-73771238D01*
X186054190Y-73676000D01*
X185958952Y-73580761D01*
X185958952Y-73771238D01*
X187197047Y-75580761D02*
X187006571Y-75485523D01*
X186911333Y-75390285D01*
X186816095Y-75199809D01*
X186816095Y-74628380D01*
X186911333Y-74437904D01*
X187006571Y-74342666D01*
X187197047Y-74247428D01*
X187482761Y-74247428D01*
X187673238Y-74342666D01*
X187768476Y-74437904D01*
X187863714Y-74628380D01*
X187863714Y-75199809D01*
X187768476Y-75390285D01*
X187673238Y-75485523D01*
X187482761Y-75580761D01*
X187197047Y-75580761D01*
X188720857Y-74247428D02*
X188720857Y-75580761D01*
X188720857Y-74437904D02*
X188816095Y-74342666D01*
X189006571Y-74247428D01*
X189292285Y-74247428D01*
X189482761Y-74342666D01*
X189577999Y-74533142D01*
X189577999Y-75580761D01*
X192720857Y-74533142D02*
X193006571Y-74628380D01*
X193101809Y-74723619D01*
X193197047Y-74914095D01*
X193197047Y-75199809D01*
X193101809Y-75390285D01*
X193006571Y-75485523D01*
X192816095Y-75580761D01*
X192054190Y-75580761D01*
X192054190Y-73580761D01*
X192720857Y-73580761D01*
X192911333Y-73676000D01*
X193006571Y-73771238D01*
X193101809Y-73961714D01*
X193101809Y-74152190D01*
X193006571Y-74342666D01*
X192911333Y-74437904D01*
X192720857Y-74533142D01*
X192054190Y-74533142D01*
X194339904Y-75580761D02*
X194149428Y-75485523D01*
X194054190Y-75390285D01*
X193958952Y-75199809D01*
X193958952Y-74628380D01*
X194054190Y-74437904D01*
X194149428Y-74342666D01*
X194339904Y-74247428D01*
X194625619Y-74247428D01*
X194816095Y-74342666D01*
X194911333Y-74437904D01*
X195006571Y-74628380D01*
X195006571Y-75199809D01*
X194911333Y-75390285D01*
X194816095Y-75485523D01*
X194625619Y-75580761D01*
X194339904Y-75580761D01*
X196720857Y-75580761D02*
X196720857Y-74533142D01*
X196625619Y-74342666D01*
X196435142Y-74247428D01*
X196054190Y-74247428D01*
X195863714Y-74342666D01*
X196720857Y-75485523D02*
X196530380Y-75580761D01*
X196054190Y-75580761D01*
X195863714Y-75485523D01*
X195768476Y-75295047D01*
X195768476Y-75104571D01*
X195863714Y-74914095D01*
X196054190Y-74818857D01*
X196530380Y-74818857D01*
X196720857Y-74723619D01*
X197673238Y-75580761D02*
X197673238Y-74247428D01*
X197673238Y-74628380D02*
X197768476Y-74437904D01*
X197863714Y-74342666D01*
X198054190Y-74247428D01*
X198244666Y-74247428D01*
X199768476Y-75580761D02*
X199768476Y-73580761D01*
X199768476Y-75485523D02*
X199577999Y-75580761D01*
X199197047Y-75580761D01*
X199006571Y-75485523D01*
X198911333Y-75390285D01*
X198816095Y-75199809D01*
X198816095Y-74628380D01*
X198911333Y-74437904D01*
X199006571Y-74342666D01*
X199197047Y-74247428D01*
X199577999Y-74247428D01*
X199768476Y-74342666D01*
D12*
X184150000Y-49530000D02*
X184150000Y-48260000D01*
X185420000Y-49530000D02*
X184150000Y-49530000D01*
X198500000Y-47217071D02*
X198500000Y-46820000D01*
X197740000Y-47217071D02*
X197740000Y-46820000D01*
X198500000Y-38160000D02*
X198500000Y-44160000D01*
X197740000Y-38160000D02*
X198500000Y-38160000D01*
X197740000Y-44160000D02*
X197740000Y-38160000D01*
X196850000Y-46820000D02*
X196850000Y-44160000D01*
X195960000Y-47217071D02*
X195960000Y-46820000D01*
X195200000Y-47217071D02*
X195200000Y-46820000D01*
X195960000Y-38160000D02*
X195960000Y-44160000D01*
X195200000Y-38160000D02*
X195960000Y-38160000D01*
X195200000Y-44160000D02*
X195200000Y-38160000D01*
X194310000Y-46820000D02*
X194310000Y-44160000D01*
X193420000Y-47217071D02*
X193420000Y-46820000D01*
X192660000Y-47217071D02*
X192660000Y-46820000D01*
X193420000Y-38160000D02*
X193420000Y-44160000D01*
X192660000Y-38160000D02*
X193420000Y-38160000D01*
X192660000Y-44160000D02*
X192660000Y-38160000D01*
X191770000Y-46820000D02*
X191770000Y-44160000D01*
X190880000Y-47217071D02*
X190880000Y-46820000D01*
X190120000Y-47217071D02*
X190120000Y-46820000D01*
X190880000Y-38160000D02*
X190880000Y-44160000D01*
X190120000Y-38160000D02*
X190880000Y-38160000D01*
X190120000Y-44160000D02*
X190120000Y-38160000D01*
X189230000Y-46820000D02*
X189230000Y-44160000D01*
X188340000Y-47217071D02*
X188340000Y-46820000D01*
X187580000Y-47217071D02*
X187580000Y-46820000D01*
X188340000Y-38160000D02*
X188340000Y-44160000D01*
X187580000Y-38160000D02*
X188340000Y-38160000D01*
X187580000Y-44160000D02*
X187580000Y-38160000D01*
X186690000Y-46820000D02*
X186690000Y-44160000D01*
X185800000Y-47150000D02*
X185800000Y-46820000D01*
X185040000Y-47150000D02*
X185040000Y-46820000D01*
X185700000Y-44160000D02*
X185700000Y-38160000D01*
X185580000Y-44160000D02*
X185580000Y-38160000D01*
X185460000Y-44160000D02*
X185460000Y-38160000D01*
X185340000Y-44160000D02*
X185340000Y-38160000D01*
X185220000Y-44160000D02*
X185220000Y-38160000D01*
X185100000Y-44160000D02*
X185100000Y-38160000D01*
X185800000Y-38160000D02*
X185800000Y-44160000D01*
X185040000Y-38160000D02*
X185800000Y-38160000D01*
X185040000Y-44160000D02*
X185040000Y-38160000D01*
X184090000Y-44160000D02*
X184090000Y-46820000D01*
X199450000Y-44160000D02*
X184090000Y-44160000D01*
X199450000Y-46820000D02*
X199450000Y-44160000D01*
X184090000Y-46820000D02*
X199450000Y-46820000D01*
X160750000Y-114400000D02*
X160750000Y-114070000D01*
X154210000Y-114400000D02*
X160750000Y-114400000D01*
X154210000Y-114070000D02*
X154210000Y-114400000D01*
X160750000Y-111660000D02*
X160750000Y-111990000D01*
X154210000Y-111660000D02*
X160750000Y-111660000D01*
X154210000Y-111990000D02*
X154210000Y-111660000D01*
X199930000Y-111660000D02*
X199930000Y-111990000D01*
X206470000Y-111660000D02*
X199930000Y-111660000D01*
X206470000Y-111990000D02*
X206470000Y-111660000D01*
X199930000Y-114400000D02*
X199930000Y-114070000D01*
X206470000Y-114400000D02*
X199930000Y-114400000D01*
X206470000Y-114070000D02*
X206470000Y-114400000D01*
X155300000Y-82210000D02*
X156630000Y-82210000D01*
X155300000Y-83540000D02*
X155300000Y-82210000D01*
X157900000Y-82210000D02*
X160500000Y-82210000D01*
X157900000Y-84810000D02*
X157900000Y-82210000D01*
X155300000Y-84810000D02*
X157900000Y-84810000D01*
X160500000Y-82210000D02*
X160500000Y-107730000D01*
X155300000Y-84810000D02*
X155300000Y-107730000D01*
X155300000Y-107730000D02*
X160500000Y-107730000D01*
X199300000Y-82210000D02*
X200630000Y-82210000D01*
X199300000Y-83540000D02*
X199300000Y-82210000D01*
X201900000Y-82210000D02*
X204500000Y-82210000D01*
X201900000Y-84810000D02*
X201900000Y-82210000D01*
X199300000Y-84810000D02*
X201900000Y-84810000D01*
X204500000Y-82210000D02*
X204500000Y-107730000D01*
X199300000Y-84810000D02*
X199300000Y-107730000D01*
X199300000Y-107730000D02*
X204500000Y-107730000D01*
D13*
G36*
X176843560Y-92443472D02*
G01*
X176955746Y-92475696D01*
X177049515Y-92517324D01*
X177109334Y-92563314D01*
X177143259Y-92623307D01*
X177159343Y-92706943D01*
X177160615Y-92720912D01*
X177162364Y-92794367D01*
X177153693Y-92830451D01*
X177136531Y-92827723D01*
X177112806Y-92784742D01*
X177104380Y-92762909D01*
X177042916Y-92647726D01*
X176955204Y-92562975D01*
X176846073Y-92512181D01*
X176741667Y-92498334D01*
X176618736Y-92517320D01*
X176514828Y-92572959D01*
X176431651Y-92663275D01*
X176370915Y-92786288D01*
X176334329Y-92940022D01*
X176330028Y-92974584D01*
X176327755Y-93139553D01*
X176356734Y-93284657D01*
X176414747Y-93406339D01*
X176499575Y-93501042D01*
X176609001Y-93565211D01*
X176715455Y-93592541D01*
X176837265Y-93590352D01*
X176950003Y-93548679D01*
X177057168Y-93466172D01*
X177065952Y-93457415D01*
X177117185Y-93408778D01*
X177156750Y-93377363D01*
X177175862Y-93369973D01*
X177173202Y-93394391D01*
X177146162Y-93437515D01*
X177102510Y-93490510D01*
X177050018Y-93544542D01*
X176996455Y-93590775D01*
X176960458Y-93614905D01*
X176854759Y-93654644D01*
X176728836Y-93673483D01*
X176600137Y-93669825D01*
X176523936Y-93654819D01*
X176395249Y-93597497D01*
X176285999Y-93503098D01*
X176204149Y-93386807D01*
X176172948Y-93328422D01*
X176153553Y-93278451D01*
X176143199Y-93223537D01*
X176139121Y-93150325D01*
X176138519Y-93069834D01*
X176139998Y-92969664D01*
X176145943Y-92898480D01*
X176158794Y-92842984D01*
X176180991Y-92789877D01*
X176194837Y-92762917D01*
X176288567Y-92627067D01*
X176404823Y-92525492D01*
X176539085Y-92459897D01*
X176686837Y-92431989D01*
X176843560Y-92443472D01*
G37*
X176843560Y-92443472D02*
X176955746Y-92475696D01*
X177049515Y-92517324D01*
X177109334Y-92563314D01*
X177143259Y-92623307D01*
X177159343Y-92706943D01*
X177160615Y-92720912D01*
X177162364Y-92794367D01*
X177153693Y-92830451D01*
X177136531Y-92827723D01*
X177112806Y-92784742D01*
X177104380Y-92762909D01*
X177042916Y-92647726D01*
X176955204Y-92562975D01*
X176846073Y-92512181D01*
X176741667Y-92498334D01*
X176618736Y-92517320D01*
X176514828Y-92572959D01*
X176431651Y-92663275D01*
X176370915Y-92786288D01*
X176334329Y-92940022D01*
X176330028Y-92974584D01*
X176327755Y-93139553D01*
X176356734Y-93284657D01*
X176414747Y-93406339D01*
X176499575Y-93501042D01*
X176609001Y-93565211D01*
X176715455Y-93592541D01*
X176837265Y-93590352D01*
X176950003Y-93548679D01*
X177057168Y-93466172D01*
X177065952Y-93457415D01*
X177117185Y-93408778D01*
X177156750Y-93377363D01*
X177175862Y-93369973D01*
X177173202Y-93394391D01*
X177146162Y-93437515D01*
X177102510Y-93490510D01*
X177050018Y-93544542D01*
X176996455Y-93590775D01*
X176960458Y-93614905D01*
X176854759Y-93654644D01*
X176728836Y-93673483D01*
X176600137Y-93669825D01*
X176523936Y-93654819D01*
X176395249Y-93597497D01*
X176285999Y-93503098D01*
X176204149Y-93386807D01*
X176172948Y-93328422D01*
X176153553Y-93278451D01*
X176143199Y-93223537D01*
X176139121Y-93150325D01*
X176138519Y-93069834D01*
X176139998Y-92969664D01*
X176145943Y-92898480D01*
X176158794Y-92842984D01*
X176180991Y-92789877D01*
X176194837Y-92762917D01*
X176288567Y-92627067D01*
X176404823Y-92525492D01*
X176539085Y-92459897D01*
X176686837Y-92431989D01*
X176843560Y-92443472D01*
G36*
X185761337Y-92456926D02*
G01*
X185870492Y-92505561D01*
X185922420Y-92545367D01*
X185949435Y-92577740D01*
X185964065Y-92619096D01*
X185969759Y-92682619D01*
X185970334Y-92728506D01*
X185967358Y-92805548D01*
X185958280Y-92840731D01*
X185942874Y-92834121D01*
X185920914Y-92785781D01*
X185907572Y-92746504D01*
X185855951Y-92640355D01*
X185780584Y-92561792D01*
X185692244Y-92518713D01*
X185598102Y-92508944D01*
X185513341Y-92528122D01*
X185446600Y-92571460D01*
X185406514Y-92634171D01*
X185398834Y-92681336D01*
X185413605Y-92735958D01*
X185459725Y-92794911D01*
X185539901Y-92860688D01*
X185656840Y-92935784D01*
X185705664Y-92964000D01*
X185846096Y-93050373D01*
X185947997Y-93130539D01*
X186013919Y-93208508D01*
X186046413Y-93288287D01*
X186048032Y-93373886D01*
X186023588Y-93463478D01*
X185966974Y-93555875D01*
X185881016Y-93624869D01*
X185773327Y-93667702D01*
X185651521Y-93681620D01*
X185523211Y-93663865D01*
X185494084Y-93655177D01*
X185389192Y-93616546D01*
X185319205Y-93577514D01*
X185277354Y-93530219D01*
X185256873Y-93466800D01*
X185250994Y-93379394D01*
X185250956Y-93372708D01*
X185256376Y-93312544D01*
X185270114Y-93275244D01*
X185287704Y-93267122D01*
X185304682Y-93294494D01*
X185305168Y-93296034D01*
X185357400Y-93426166D01*
X185423220Y-93518032D01*
X185505620Y-93574354D01*
X185607595Y-93597852D01*
X185638350Y-93598921D01*
X185749366Y-93586079D01*
X185828062Y-93547926D01*
X185873264Y-93485319D01*
X185884523Y-93419084D01*
X185878182Y-93369714D01*
X185855250Y-93324315D01*
X185810371Y-93277292D01*
X185738190Y-93223053D01*
X185633351Y-93156003D01*
X185631667Y-93154972D01*
X185545291Y-93101048D01*
X185464413Y-93048712D01*
X185401401Y-93006045D01*
X185380713Y-92991053D01*
X185303769Y-92909624D01*
X185262234Y-92814609D01*
X185255594Y-92714486D01*
X185283333Y-92617728D01*
X185344934Y-92532811D01*
X185411620Y-92482807D01*
X185518645Y-92443925D01*
X185639635Y-92435839D01*
X185761337Y-92456926D01*
G37*
X185761337Y-92456926D02*
X185870492Y-92505561D01*
X185922420Y-92545367D01*
X185949435Y-92577740D01*
X185964065Y-92619096D01*
X185969759Y-92682619D01*
X185970334Y-92728506D01*
X185967358Y-92805548D01*
X185958280Y-92840731D01*
X185942874Y-92834121D01*
X185920914Y-92785781D01*
X185907572Y-92746504D01*
X185855951Y-92640355D01*
X185780584Y-92561792D01*
X185692244Y-92518713D01*
X185598102Y-92508944D01*
X185513341Y-92528122D01*
X185446600Y-92571460D01*
X185406514Y-92634171D01*
X185398834Y-92681336D01*
X185413605Y-92735958D01*
X185459725Y-92794911D01*
X185539901Y-92860688D01*
X185656840Y-92935784D01*
X185705664Y-92964000D01*
X185846096Y-93050373D01*
X185947997Y-93130539D01*
X186013919Y-93208508D01*
X186046413Y-93288287D01*
X186048032Y-93373886D01*
X186023588Y-93463478D01*
X185966974Y-93555875D01*
X185881016Y-93624869D01*
X185773327Y-93667702D01*
X185651521Y-93681620D01*
X185523211Y-93663865D01*
X185494084Y-93655177D01*
X185389192Y-93616546D01*
X185319205Y-93577514D01*
X185277354Y-93530219D01*
X185256873Y-93466800D01*
X185250994Y-93379394D01*
X185250956Y-93372708D01*
X185256376Y-93312544D01*
X185270114Y-93275244D01*
X185287704Y-93267122D01*
X185304682Y-93294494D01*
X185305168Y-93296034D01*
X185357400Y-93426166D01*
X185423220Y-93518032D01*
X185505620Y-93574354D01*
X185607595Y-93597852D01*
X185638350Y-93598921D01*
X185749366Y-93586079D01*
X185828062Y-93547926D01*
X185873264Y-93485319D01*
X185884523Y-93419084D01*
X185878182Y-93369714D01*
X185855250Y-93324315D01*
X185810371Y-93277292D01*
X185738190Y-93223053D01*
X185633351Y-93156003D01*
X185631667Y-93154972D01*
X185545291Y-93101048D01*
X185464413Y-93048712D01*
X185401401Y-93006045D01*
X185380713Y-92991053D01*
X185303769Y-92909624D01*
X185262234Y-92814609D01*
X185255594Y-92714486D01*
X185283333Y-92617728D01*
X185344934Y-92532811D01*
X185411620Y-92482807D01*
X185518645Y-92443925D01*
X185639635Y-92435839D01*
X185761337Y-92456926D01*
G36*
X174200990Y-92461410D02*
G01*
X174228395Y-92516112D01*
X174266693Y-92599161D01*
X174313414Y-92705101D01*
X174366085Y-92828475D01*
X174405457Y-92922980D01*
X174478661Y-93099831D01*
X174538160Y-93241537D01*
X174586084Y-93352212D01*
X174624564Y-93435972D01*
X174655730Y-93496929D01*
X174681714Y-93539201D01*
X174704645Y-93566900D01*
X174726654Y-93584141D01*
X174749872Y-93595040D01*
X174754261Y-93596617D01*
X174801958Y-93621348D01*
X174812713Y-93644779D01*
X174786198Y-93659849D01*
X174757292Y-93662035D01*
X174681514Y-93648444D01*
X174598977Y-93614458D01*
X174526907Y-93568660D01*
X174487092Y-93527392D01*
X174466659Y-93489280D01*
X174433993Y-93420351D01*
X174392896Y-93328965D01*
X174347173Y-93223483D01*
X174325024Y-93171076D01*
X174278391Y-93059899D01*
X174235057Y-92956775D01*
X174198810Y-92870700D01*
X174173433Y-92810670D01*
X174166619Y-92794667D01*
X174134906Y-92720584D01*
X174074744Y-92851989D01*
X174031748Y-92946396D01*
X174006546Y-93008666D01*
X174000029Y-93045472D01*
X174013083Y-93063486D01*
X174046597Y-93069383D01*
X174101460Y-93069834D01*
X174103741Y-93069834D01*
X174170447Y-93073392D01*
X174218450Y-93082552D01*
X174233417Y-93091000D01*
X174226823Y-93107557D01*
X174202073Y-93112167D01*
X174118749Y-93131033D01*
X174030181Y-93182745D01*
X173944459Y-93259970D01*
X173869677Y-93355375D01*
X173813926Y-93461628D01*
X173812555Y-93465105D01*
X173768482Y-93567235D01*
X173730322Y-93631101D01*
X173695906Y-93659996D01*
X173682596Y-93662500D01*
X173654697Y-93654432D01*
X173651334Y-93647835D01*
X173659510Y-93619497D01*
X173682363Y-93559669D01*
X173717380Y-93474017D01*
X173762047Y-93368206D01*
X173813852Y-93247901D01*
X173870280Y-93118767D01*
X173928818Y-92986470D01*
X173986954Y-92856674D01*
X174042174Y-92735046D01*
X174091963Y-92627250D01*
X174133810Y-92538952D01*
X174165201Y-92475816D01*
X174183623Y-92443509D01*
X174186949Y-92440511D01*
X174200990Y-92461410D01*
G37*
X174200990Y-92461410D02*
X174228395Y-92516112D01*
X174266693Y-92599161D01*
X174313414Y-92705101D01*
X174366085Y-92828475D01*
X174405457Y-92922980D01*
X174478661Y-93099831D01*
X174538160Y-93241537D01*
X174586084Y-93352212D01*
X174624564Y-93435972D01*
X174655730Y-93496929D01*
X174681714Y-93539201D01*
X174704645Y-93566900D01*
X174726654Y-93584141D01*
X174749872Y-93595040D01*
X174754261Y-93596617D01*
X174801958Y-93621348D01*
X174812713Y-93644779D01*
X174786198Y-93659849D01*
X174757292Y-93662035D01*
X174681514Y-93648444D01*
X174598977Y-93614458D01*
X174526907Y-93568660D01*
X174487092Y-93527392D01*
X174466659Y-93489280D01*
X174433993Y-93420351D01*
X174392896Y-93328965D01*
X174347173Y-93223483D01*
X174325024Y-93171076D01*
X174278391Y-93059899D01*
X174235057Y-92956775D01*
X174198810Y-92870700D01*
X174173433Y-92810670D01*
X174166619Y-92794667D01*
X174134906Y-92720584D01*
X174074744Y-92851989D01*
X174031748Y-92946396D01*
X174006546Y-93008666D01*
X174000029Y-93045472D01*
X174013083Y-93063486D01*
X174046597Y-93069383D01*
X174101460Y-93069834D01*
X174103741Y-93069834D01*
X174170447Y-93073392D01*
X174218450Y-93082552D01*
X174233417Y-93091000D01*
X174226823Y-93107557D01*
X174202073Y-93112167D01*
X174118749Y-93131033D01*
X174030181Y-93182745D01*
X173944459Y-93259970D01*
X173869677Y-93355375D01*
X173813926Y-93461628D01*
X173812555Y-93465105D01*
X173768482Y-93567235D01*
X173730322Y-93631101D01*
X173695906Y-93659996D01*
X173682596Y-93662500D01*
X173654697Y-93654432D01*
X173651334Y-93647835D01*
X173659510Y-93619497D01*
X173682363Y-93559669D01*
X173717380Y-93474017D01*
X173762047Y-93368206D01*
X173813852Y-93247901D01*
X173870280Y-93118767D01*
X173928818Y-92986470D01*
X173986954Y-92856674D01*
X174042174Y-92735046D01*
X174091963Y-92627250D01*
X174133810Y-92538952D01*
X174165201Y-92475816D01*
X174183623Y-92443509D01*
X174186949Y-92440511D01*
X174200990Y-92461410D01*
G36*
X175339050Y-92457840D02*
G01*
X175436874Y-92461391D01*
X175518438Y-92466834D01*
X175575378Y-92474155D01*
X175591997Y-92478513D01*
X175681818Y-92531152D01*
X175751208Y-92608135D01*
X175793794Y-92699045D01*
X175803202Y-92793465D01*
X175799389Y-92817479D01*
X175768558Y-92890032D01*
X175714706Y-92960344D01*
X175650225Y-93014840D01*
X175597780Y-93038278D01*
X175553704Y-93054220D01*
X175535168Y-93073362D01*
X175535167Y-93073513D01*
X175547038Y-93099239D01*
X175578805Y-93150444D01*
X175624696Y-93218939D01*
X175678943Y-93296535D01*
X175735775Y-93375046D01*
X175789421Y-93446283D01*
X175834111Y-93502058D01*
X175849792Y-93519963D01*
X175907852Y-93565474D01*
X175977658Y-93598307D01*
X175984589Y-93600326D01*
X176032394Y-93618374D01*
X176053830Y-93637090D01*
X176053140Y-93642321D01*
X176026280Y-93653377D01*
X175971226Y-93660040D01*
X175901929Y-93661941D01*
X175832335Y-93658709D01*
X175776393Y-93649974D01*
X175775336Y-93649694D01*
X175745324Y-93627518D01*
X175696242Y-93574349D01*
X175631952Y-93494781D01*
X175556314Y-93393406D01*
X175535401Y-93364233D01*
X175460567Y-93260098D01*
X175404854Y-93186026D01*
X175363618Y-93137050D01*
X175332214Y-93108199D01*
X175305996Y-93094506D01*
X175280319Y-93091001D01*
X175279971Y-93091000D01*
X175218896Y-93091000D01*
X175212990Y-93371459D01*
X175207084Y-93651917D01*
X175127709Y-93658486D01*
X175048334Y-93665056D01*
X175048334Y-93122636D01*
X175047461Y-92946726D01*
X175044935Y-92797478D01*
X175040891Y-92678517D01*
X175035466Y-92593468D01*
X175028795Y-92545955D01*
X175027598Y-92542585D01*
X175217667Y-92542585D01*
X175217667Y-93027500D01*
X175292430Y-93027500D01*
X175367038Y-93018665D01*
X175437043Y-92998315D01*
X175525150Y-92941369D01*
X175580174Y-92860377D01*
X175598667Y-92762917D01*
X175579917Y-92668262D01*
X175528394Y-92593240D01*
X175451184Y-92543229D01*
X175355374Y-92523608D01*
X175290371Y-92528946D01*
X175217667Y-92542585D01*
X175027598Y-92542585D01*
X175026422Y-92539275D01*
X174985397Y-92505322D01*
X174941755Y-92498334D01*
X174897493Y-92492135D01*
X174879000Y-92477227D01*
X174879000Y-92477167D01*
X174898749Y-92469029D01*
X174952420Y-92462880D01*
X175031650Y-92458701D01*
X175128074Y-92456479D01*
X175233328Y-92456197D01*
X175339050Y-92457840D01*
G37*
X175339050Y-92457840D02*
X175436874Y-92461391D01*
X175518438Y-92466834D01*
X175575378Y-92474155D01*
X175591997Y-92478513D01*
X175681818Y-92531152D01*
X175751208Y-92608135D01*
X175793794Y-92699045D01*
X175803202Y-92793465D01*
X175799389Y-92817479D01*
X175768558Y-92890032D01*
X175714706Y-92960344D01*
X175650225Y-93014840D01*
X175597780Y-93038278D01*
X175553704Y-93054220D01*
X175535168Y-93073362D01*
X175535167Y-93073513D01*
X175547038Y-93099239D01*
X175578805Y-93150444D01*
X175624696Y-93218939D01*
X175678943Y-93296535D01*
X175735775Y-93375046D01*
X175789421Y-93446283D01*
X175834111Y-93502058D01*
X175849792Y-93519963D01*
X175907852Y-93565474D01*
X175977658Y-93598307D01*
X175984589Y-93600326D01*
X176032394Y-93618374D01*
X176053830Y-93637090D01*
X176053140Y-93642321D01*
X176026280Y-93653377D01*
X175971226Y-93660040D01*
X175901929Y-93661941D01*
X175832335Y-93658709D01*
X175776393Y-93649974D01*
X175775336Y-93649694D01*
X175745324Y-93627518D01*
X175696242Y-93574349D01*
X175631952Y-93494781D01*
X175556314Y-93393406D01*
X175535401Y-93364233D01*
X175460567Y-93260098D01*
X175404854Y-93186026D01*
X175363618Y-93137050D01*
X175332214Y-93108199D01*
X175305996Y-93094506D01*
X175280319Y-93091001D01*
X175279971Y-93091000D01*
X175218896Y-93091000D01*
X175212990Y-93371459D01*
X175207084Y-93651917D01*
X175127709Y-93658486D01*
X175048334Y-93665056D01*
X175048334Y-93122636D01*
X175047461Y-92946726D01*
X175044935Y-92797478D01*
X175040891Y-92678517D01*
X175035466Y-92593468D01*
X175028795Y-92545955D01*
X175027598Y-92542585D01*
X175217667Y-92542585D01*
X175217667Y-93027500D01*
X175292430Y-93027500D01*
X175367038Y-93018665D01*
X175437043Y-92998315D01*
X175525150Y-92941369D01*
X175580174Y-92860377D01*
X175598667Y-92762917D01*
X175579917Y-92668262D01*
X175528394Y-92593240D01*
X175451184Y-92543229D01*
X175355374Y-92523608D01*
X175290371Y-92528946D01*
X175217667Y-92542585D01*
X175027598Y-92542585D01*
X175026422Y-92539275D01*
X174985397Y-92505322D01*
X174941755Y-92498334D01*
X174897493Y-92492135D01*
X174879000Y-92477227D01*
X174879000Y-92477167D01*
X174898749Y-92469029D01*
X174952420Y-92462880D01*
X175031650Y-92458701D01*
X175128074Y-92456479D01*
X175233328Y-92456197D01*
X175339050Y-92457840D01*
G36*
X177918212Y-92464166D02*
G01*
X177946335Y-92516934D01*
X177985480Y-92598507D01*
X178033209Y-92703668D01*
X178087085Y-92827200D01*
X178135927Y-92942834D01*
X178208491Y-93116779D01*
X178267048Y-93255748D01*
X178313756Y-93363895D01*
X178350769Y-93445368D01*
X178380246Y-93504320D01*
X178404343Y-93544903D01*
X178425215Y-93571266D01*
X178445020Y-93587561D01*
X178465914Y-93597941D01*
X178478691Y-93602645D01*
X178529324Y-93626708D01*
X178540288Y-93646404D01*
X178514246Y-93657621D01*
X178453862Y-93656248D01*
X178444730Y-93655082D01*
X178378347Y-93643116D01*
X178322965Y-93624106D01*
X178274892Y-93593321D01*
X178230438Y-93546032D01*
X178185910Y-93477506D01*
X178137619Y-93383013D01*
X178081871Y-93257822D01*
X178021113Y-93112167D01*
X177974112Y-92998600D01*
X177931993Y-92898605D01*
X177897601Y-92818799D01*
X177873783Y-92765799D01*
X177863842Y-92746600D01*
X177849732Y-92757036D01*
X177823706Y-92798723D01*
X177790318Y-92863911D01*
X177773563Y-92900058D01*
X177697211Y-93069834D01*
X177821440Y-93069834D01*
X177897859Y-93073535D01*
X177943964Y-93083048D01*
X177956594Y-93095981D01*
X177932587Y-93109946D01*
X177887576Y-93119830D01*
X177790267Y-93155785D01*
X177695158Y-93229816D01*
X177606435Y-93337712D01*
X177528280Y-93475262D01*
X177522785Y-93487039D01*
X177477578Y-93577520D01*
X177439812Y-93637336D01*
X177412335Y-93662084D01*
X177409386Y-93662500D01*
X177380579Y-93652945D01*
X177376667Y-93644378D01*
X177384820Y-93615485D01*
X177407599Y-93554995D01*
X177442477Y-93468653D01*
X177486930Y-93362201D01*
X177538435Y-93241386D01*
X177594468Y-93111951D01*
X177652502Y-92979640D01*
X177710016Y-92850198D01*
X177764483Y-92729370D01*
X177813379Y-92622900D01*
X177854181Y-92536531D01*
X177884364Y-92476009D01*
X177901404Y-92447078D01*
X177903546Y-92445417D01*
X177918212Y-92464166D01*
G37*
X177918212Y-92464166D02*
X177946335Y-92516934D01*
X177985480Y-92598507D01*
X178033209Y-92703668D01*
X178087085Y-92827200D01*
X178135927Y-92942834D01*
X178208491Y-93116779D01*
X178267048Y-93255748D01*
X178313756Y-93363895D01*
X178350769Y-93445368D01*
X178380246Y-93504320D01*
X178404343Y-93544903D01*
X178425215Y-93571266D01*
X178445020Y-93587561D01*
X178465914Y-93597941D01*
X178478691Y-93602645D01*
X178529324Y-93626708D01*
X178540288Y-93646404D01*
X178514246Y-93657621D01*
X178453862Y-93656248D01*
X178444730Y-93655082D01*
X178378347Y-93643116D01*
X178322965Y-93624106D01*
X178274892Y-93593321D01*
X178230438Y-93546032D01*
X178185910Y-93477506D01*
X178137619Y-93383013D01*
X178081871Y-93257822D01*
X178021113Y-93112167D01*
X177974112Y-92998600D01*
X177931993Y-92898605D01*
X177897601Y-92818799D01*
X177873783Y-92765799D01*
X177863842Y-92746600D01*
X177849732Y-92757036D01*
X177823706Y-92798723D01*
X177790318Y-92863911D01*
X177773563Y-92900058D01*
X177697211Y-93069834D01*
X177821440Y-93069834D01*
X177897859Y-93073535D01*
X177943964Y-93083048D01*
X177956594Y-93095981D01*
X177932587Y-93109946D01*
X177887576Y-93119830D01*
X177790267Y-93155785D01*
X177695158Y-93229816D01*
X177606435Y-93337712D01*
X177528280Y-93475262D01*
X177522785Y-93487039D01*
X177477578Y-93577520D01*
X177439812Y-93637336D01*
X177412335Y-93662084D01*
X177409386Y-93662500D01*
X177380579Y-93652945D01*
X177376667Y-93644378D01*
X177384820Y-93615485D01*
X177407599Y-93554995D01*
X177442477Y-93468653D01*
X177486930Y-93362201D01*
X177538435Y-93241386D01*
X177594468Y-93111951D01*
X177652502Y-92979640D01*
X177710016Y-92850198D01*
X177764483Y-92729370D01*
X177813379Y-92622900D01*
X177854181Y-92536531D01*
X177884364Y-92476009D01*
X177901404Y-92447078D01*
X177903546Y-92445417D01*
X177918212Y-92464166D01*
G36*
X178674606Y-92455424D02*
G01*
X178747348Y-92462194D01*
X178814602Y-92474889D01*
X178864628Y-92492860D01*
X178868917Y-92495340D01*
X178899993Y-92522661D01*
X178952692Y-92578033D01*
X179022439Y-92656255D01*
X179104655Y-92752126D01*
X179194765Y-92860446D01*
X179249917Y-92928260D01*
X179567417Y-93321998D01*
X179573138Y-92888999D01*
X179575240Y-92743305D01*
X179577556Y-92634554D01*
X179580678Y-92557359D01*
X179585199Y-92506330D01*
X179591711Y-92476080D01*
X179600808Y-92461220D01*
X179613082Y-92456362D01*
X179620763Y-92456000D01*
X179632946Y-92457362D01*
X179642506Y-92464496D01*
X179649761Y-92481974D01*
X179655028Y-92514370D01*
X179658626Y-92566257D01*
X179660870Y-92642207D01*
X179662080Y-92746793D01*
X179662573Y-92884588D01*
X179662667Y-93059250D01*
X179662016Y-93223935D01*
X179660161Y-93368987D01*
X179657246Y-93489887D01*
X179653413Y-93582117D01*
X179648808Y-93641157D01*
X179643574Y-93662489D01*
X179643447Y-93662500D01*
X179625647Y-93646688D01*
X179584898Y-93602027D01*
X179524751Y-93532679D01*
X179448760Y-93442809D01*
X179360477Y-93336578D01*
X179263453Y-93218149D01*
X179246572Y-93197383D01*
X178868917Y-92732266D01*
X178858334Y-93190351D01*
X178853924Y-93352117D01*
X178848723Y-93475424D01*
X178842139Y-93564147D01*
X178833578Y-93622159D01*
X178822449Y-93653336D01*
X178808158Y-93661551D01*
X178790114Y-93650679D01*
X178788219Y-93648830D01*
X178784143Y-93624427D01*
X178780508Y-93563712D01*
X178777482Y-93472702D01*
X178775232Y-93357418D01*
X178773928Y-93223880D01*
X178773667Y-93128178D01*
X178773667Y-92622077D01*
X178711795Y-92560205D01*
X178653887Y-92516661D01*
X178598411Y-92498407D01*
X178595378Y-92498334D01*
X178554827Y-92491285D01*
X178540834Y-92477167D01*
X178559610Y-92462260D01*
X178608114Y-92455229D01*
X178674606Y-92455424D01*
G37*
X178674606Y-92455424D02*
X178747348Y-92462194D01*
X178814602Y-92474889D01*
X178864628Y-92492860D01*
X178868917Y-92495340D01*
X178899993Y-92522661D01*
X178952692Y-92578033D01*
X179022439Y-92656255D01*
X179104655Y-92752126D01*
X179194765Y-92860446D01*
X179249917Y-92928260D01*
X179567417Y-93321998D01*
X179573138Y-92888999D01*
X179575240Y-92743305D01*
X179577556Y-92634554D01*
X179580678Y-92557359D01*
X179585199Y-92506330D01*
X179591711Y-92476080D01*
X179600808Y-92461220D01*
X179613082Y-92456362D01*
X179620763Y-92456000D01*
X179632946Y-92457362D01*
X179642506Y-92464496D01*
X179649761Y-92481974D01*
X179655028Y-92514370D01*
X179658626Y-92566257D01*
X179660870Y-92642207D01*
X179662080Y-92746793D01*
X179662573Y-92884588D01*
X179662667Y-93059250D01*
X179662016Y-93223935D01*
X179660161Y-93368987D01*
X179657246Y-93489887D01*
X179653413Y-93582117D01*
X179648808Y-93641157D01*
X179643574Y-93662489D01*
X179643447Y-93662500D01*
X179625647Y-93646688D01*
X179584898Y-93602027D01*
X179524751Y-93532679D01*
X179448760Y-93442809D01*
X179360477Y-93336578D01*
X179263453Y-93218149D01*
X179246572Y-93197383D01*
X178868917Y-92732266D01*
X178858334Y-93190351D01*
X178853924Y-93352117D01*
X178848723Y-93475424D01*
X178842139Y-93564147D01*
X178833578Y-93622159D01*
X178822449Y-93653336D01*
X178808158Y-93661551D01*
X178790114Y-93650679D01*
X178788219Y-93648830D01*
X178784143Y-93624427D01*
X178780508Y-93563712D01*
X178777482Y-93472702D01*
X178775232Y-93357418D01*
X178773928Y-93223880D01*
X178773667Y-93128178D01*
X178773667Y-92622077D01*
X178711795Y-92560205D01*
X178653887Y-92516661D01*
X178598411Y-92498407D01*
X178595378Y-92498334D01*
X178554827Y-92491285D01*
X178540834Y-92477167D01*
X178559610Y-92462260D01*
X178608114Y-92455229D01*
X178674606Y-92455424D01*
G36*
X180531896Y-92462049D02*
G01*
X180559591Y-92516879D01*
X180598702Y-92600591D01*
X180646885Y-92708050D01*
X180701796Y-92834123D01*
X180761095Y-92973674D01*
X180763252Y-92978814D01*
X180823285Y-93120580D01*
X180879468Y-93250763D01*
X180929338Y-93363854D01*
X180970435Y-93454344D01*
X181000296Y-93516725D01*
X181016461Y-93545488D01*
X181016464Y-93545490D01*
X181061682Y-93582959D01*
X181095839Y-93600681D01*
X181133005Y-93622608D01*
X181144334Y-93640810D01*
X181126548Y-93658302D01*
X181080342Y-93660684D01*
X181016440Y-93648959D01*
X180945567Y-93624135D01*
X180939990Y-93621647D01*
X180899816Y-93600242D01*
X180864114Y-93572082D01*
X180829930Y-93532138D01*
X180794309Y-93475380D01*
X180754294Y-93396777D01*
X180706930Y-93291300D01*
X180649263Y-93153920D01*
X180612899Y-93064945D01*
X180567822Y-92955461D01*
X180527849Y-92861077D01*
X180495783Y-92788198D01*
X180474427Y-92743226D01*
X180467000Y-92731639D01*
X180453431Y-92751045D01*
X180425325Y-92809748D01*
X180382622Y-92907878D01*
X180325265Y-93045566D01*
X180322361Y-93052639D01*
X180337434Y-93061985D01*
X180383721Y-93068229D01*
X180432237Y-93069834D01*
X180499041Y-93073382D01*
X180547154Y-93082519D01*
X180562250Y-93091000D01*
X180555656Y-93107557D01*
X180530906Y-93112167D01*
X180464514Y-93127026D01*
X180385597Y-93166046D01*
X180308761Y-93220894D01*
X180263661Y-93264667D01*
X180225426Y-93318297D01*
X180180493Y-93396147D01*
X180137523Y-93482991D01*
X180130515Y-93498747D01*
X180083387Y-93595169D01*
X180044191Y-93650043D01*
X180012898Y-93663401D01*
X179994838Y-93646625D01*
X179999657Y-93622465D01*
X180019391Y-93566020D01*
X180051566Y-93482993D01*
X180093707Y-93379088D01*
X180143338Y-93260009D01*
X180197984Y-93131460D01*
X180255169Y-92999145D01*
X180312418Y-92868767D01*
X180367256Y-92746030D01*
X180417207Y-92636638D01*
X180459797Y-92546294D01*
X180492549Y-92480703D01*
X180512988Y-92445568D01*
X180517959Y-92441236D01*
X180531896Y-92462049D01*
G37*
X180531896Y-92462049D02*
X180559591Y-92516879D01*
X180598702Y-92600591D01*
X180646885Y-92708050D01*
X180701796Y-92834123D01*
X180761095Y-92973674D01*
X180763252Y-92978814D01*
X180823285Y-93120580D01*
X180879468Y-93250763D01*
X180929338Y-93363854D01*
X180970435Y-93454344D01*
X181000296Y-93516725D01*
X181016461Y-93545488D01*
X181016464Y-93545490D01*
X181061682Y-93582959D01*
X181095839Y-93600681D01*
X181133005Y-93622608D01*
X181144334Y-93640810D01*
X181126548Y-93658302D01*
X181080342Y-93660684D01*
X181016440Y-93648959D01*
X180945567Y-93624135D01*
X180939990Y-93621647D01*
X180899816Y-93600242D01*
X180864114Y-93572082D01*
X180829930Y-93532138D01*
X180794309Y-93475380D01*
X180754294Y-93396777D01*
X180706930Y-93291300D01*
X180649263Y-93153920D01*
X180612899Y-93064945D01*
X180567822Y-92955461D01*
X180527849Y-92861077D01*
X180495783Y-92788198D01*
X180474427Y-92743226D01*
X180467000Y-92731639D01*
X180453431Y-92751045D01*
X180425325Y-92809748D01*
X180382622Y-92907878D01*
X180325265Y-93045566D01*
X180322361Y-93052639D01*
X180337434Y-93061985D01*
X180383721Y-93068229D01*
X180432237Y-93069834D01*
X180499041Y-93073382D01*
X180547154Y-93082519D01*
X180562250Y-93091000D01*
X180555656Y-93107557D01*
X180530906Y-93112167D01*
X180464514Y-93127026D01*
X180385597Y-93166046D01*
X180308761Y-93220894D01*
X180263661Y-93264667D01*
X180225426Y-93318297D01*
X180180493Y-93396147D01*
X180137523Y-93482991D01*
X180130515Y-93498747D01*
X180083387Y-93595169D01*
X180044191Y-93650043D01*
X180012898Y-93663401D01*
X179994838Y-93646625D01*
X179999657Y-93622465D01*
X180019391Y-93566020D01*
X180051566Y-93482993D01*
X180093707Y-93379088D01*
X180143338Y-93260009D01*
X180197984Y-93131460D01*
X180255169Y-92999145D01*
X180312418Y-92868767D01*
X180367256Y-92746030D01*
X180417207Y-92636638D01*
X180459797Y-92546294D01*
X180492549Y-92480703D01*
X180512988Y-92445568D01*
X180517959Y-92441236D01*
X180531896Y-92462049D01*
G36*
X183294545Y-92464166D02*
G01*
X183322669Y-92516934D01*
X183361813Y-92598507D01*
X183409542Y-92703668D01*
X183463418Y-92827200D01*
X183512260Y-92942834D01*
X183584824Y-93116779D01*
X183643381Y-93255748D01*
X183690089Y-93363895D01*
X183727103Y-93445368D01*
X183756580Y-93504320D01*
X183780676Y-93544903D01*
X183801549Y-93571266D01*
X183821353Y-93587561D01*
X183842247Y-93597941D01*
X183855025Y-93602645D01*
X183905657Y-93626708D01*
X183916621Y-93646404D01*
X183890580Y-93657621D01*
X183830196Y-93656248D01*
X183821063Y-93655082D01*
X183754680Y-93643116D01*
X183699298Y-93624106D01*
X183651225Y-93593321D01*
X183606771Y-93546032D01*
X183562244Y-93477506D01*
X183513952Y-93383013D01*
X183458205Y-93257822D01*
X183397446Y-93112167D01*
X183350446Y-92998600D01*
X183308326Y-92898605D01*
X183273934Y-92818799D01*
X183250116Y-92765799D01*
X183240175Y-92746600D01*
X183226066Y-92757036D01*
X183200039Y-92798723D01*
X183166652Y-92863911D01*
X183149897Y-92900058D01*
X183073544Y-93069834D01*
X183197773Y-93069834D01*
X183274192Y-93073535D01*
X183320297Y-93083048D01*
X183332927Y-93095981D01*
X183308921Y-93109946D01*
X183263910Y-93119830D01*
X183166600Y-93155785D01*
X183071492Y-93229816D01*
X182982768Y-93337712D01*
X182904613Y-93475262D01*
X182899118Y-93487039D01*
X182853911Y-93577520D01*
X182816146Y-93637336D01*
X182788669Y-93662084D01*
X182785719Y-93662500D01*
X182756912Y-93652945D01*
X182753000Y-93644378D01*
X182761154Y-93615485D01*
X182783932Y-93554995D01*
X182818810Y-93468653D01*
X182863264Y-93362201D01*
X182914769Y-93241386D01*
X182970801Y-93111951D01*
X183028836Y-92979640D01*
X183086349Y-92850198D01*
X183140816Y-92729370D01*
X183189713Y-92622900D01*
X183230515Y-92536531D01*
X183260698Y-92476009D01*
X183277737Y-92447078D01*
X183279879Y-92445417D01*
X183294545Y-92464166D01*
G37*
X183294545Y-92464166D02*
X183322669Y-92516934D01*
X183361813Y-92598507D01*
X183409542Y-92703668D01*
X183463418Y-92827200D01*
X183512260Y-92942834D01*
X183584824Y-93116779D01*
X183643381Y-93255748D01*
X183690089Y-93363895D01*
X183727103Y-93445368D01*
X183756580Y-93504320D01*
X183780676Y-93544903D01*
X183801549Y-93571266D01*
X183821353Y-93587561D01*
X183842247Y-93597941D01*
X183855025Y-93602645D01*
X183905657Y-93626708D01*
X183916621Y-93646404D01*
X183890580Y-93657621D01*
X183830196Y-93656248D01*
X183821063Y-93655082D01*
X183754680Y-93643116D01*
X183699298Y-93624106D01*
X183651225Y-93593321D01*
X183606771Y-93546032D01*
X183562244Y-93477506D01*
X183513952Y-93383013D01*
X183458205Y-93257822D01*
X183397446Y-93112167D01*
X183350446Y-92998600D01*
X183308326Y-92898605D01*
X183273934Y-92818799D01*
X183250116Y-92765799D01*
X183240175Y-92746600D01*
X183226066Y-92757036D01*
X183200039Y-92798723D01*
X183166652Y-92863911D01*
X183149897Y-92900058D01*
X183073544Y-93069834D01*
X183197773Y-93069834D01*
X183274192Y-93073535D01*
X183320297Y-93083048D01*
X183332927Y-93095981D01*
X183308921Y-93109946D01*
X183263910Y-93119830D01*
X183166600Y-93155785D01*
X183071492Y-93229816D01*
X182982768Y-93337712D01*
X182904613Y-93475262D01*
X182899118Y-93487039D01*
X182853911Y-93577520D01*
X182816146Y-93637336D01*
X182788669Y-93662084D01*
X182785719Y-93662500D01*
X182756912Y-93652945D01*
X182753000Y-93644378D01*
X182761154Y-93615485D01*
X182783932Y-93554995D01*
X182818810Y-93468653D01*
X182863264Y-93362201D01*
X182914769Y-93241386D01*
X182970801Y-93111951D01*
X183028836Y-92979640D01*
X183086349Y-92850198D01*
X183140816Y-92729370D01*
X183189713Y-92622900D01*
X183230515Y-92536531D01*
X183260698Y-92476009D01*
X183277737Y-92447078D01*
X183279879Y-92445417D01*
X183294545Y-92464166D01*
G36*
X184343484Y-92459579D02*
G01*
X184487402Y-92462773D01*
X184595842Y-92466896D01*
X184675656Y-92472628D01*
X184733700Y-92480647D01*
X184776827Y-92491632D01*
X184811125Y-92505879D01*
X184892979Y-92566766D01*
X184948698Y-92649184D01*
X184975715Y-92743058D01*
X184971468Y-92838316D01*
X184933393Y-92924885D01*
X184921654Y-92940078D01*
X184875325Y-92985628D01*
X184830540Y-93015435D01*
X184823835Y-93018027D01*
X184801720Y-93028629D01*
X184808833Y-93041808D01*
X184849711Y-93063161D01*
X184866660Y-93070845D01*
X184956152Y-93130423D01*
X185012478Y-93209422D01*
X185035332Y-93300574D01*
X185024409Y-93396611D01*
X184979405Y-93490265D01*
X184900013Y-93574269D01*
X184888183Y-93583340D01*
X184825813Y-93611865D01*
X184726136Y-93634575D01*
X184593861Y-93650802D01*
X184433701Y-93659877D01*
X184336767Y-93661571D01*
X184153117Y-93662500D01*
X184148664Y-93297339D01*
X184322789Y-93297339D01*
X184323432Y-93405983D01*
X184324908Y-93488596D01*
X184327160Y-93538901D01*
X184328850Y-93550937D01*
X184355521Y-93567523D01*
X184411888Y-93576510D01*
X184486050Y-93578150D01*
X184566103Y-93572694D01*
X184640145Y-93560396D01*
X184692775Y-93543229D01*
X184769695Y-93485309D01*
X184813929Y-93403584D01*
X184821796Y-93305080D01*
X184820978Y-93298392D01*
X184806625Y-93235690D01*
X184785531Y-93187429D01*
X184781611Y-93182066D01*
X184732659Y-93143125D01*
X184659760Y-93106321D01*
X184580928Y-93079385D01*
X184520417Y-93069974D01*
X184452310Y-93064009D01*
X184425089Y-93050391D01*
X184438696Y-93032238D01*
X184493077Y-93012668D01*
X184521559Y-93006096D01*
X184621566Y-92982518D01*
X184689147Y-92957711D01*
X184733993Y-92926174D01*
X184765796Y-92882404D01*
X184776502Y-92861366D01*
X184798220Y-92806327D01*
X184799754Y-92760576D01*
X184782814Y-92702175D01*
X184743721Y-92623028D01*
X184688032Y-92571096D01*
X184608195Y-92542068D01*
X184496655Y-92531633D01*
X184483650Y-92531448D01*
X184329917Y-92530084D01*
X184324223Y-93027062D01*
X184323035Y-93168940D01*
X184322789Y-93297339D01*
X184148664Y-93297339D01*
X184146267Y-93100788D01*
X184144000Y-92925782D01*
X184141371Y-92788514D01*
X184137491Y-92684395D01*
X184131469Y-92608834D01*
X184122416Y-92557241D01*
X184109442Y-92525024D01*
X184091657Y-92507593D01*
X184068170Y-92500358D01*
X184038092Y-92498727D01*
X184029541Y-92498658D01*
X183986316Y-92488995D01*
X183969025Y-92475454D01*
X183978573Y-92466886D01*
X184021206Y-92461168D01*
X184099314Y-92458200D01*
X184215289Y-92457880D01*
X184343484Y-92459579D01*
G37*
X184343484Y-92459579D02*
X184487402Y-92462773D01*
X184595842Y-92466896D01*
X184675656Y-92472628D01*
X184733700Y-92480647D01*
X184776827Y-92491632D01*
X184811125Y-92505879D01*
X184892979Y-92566766D01*
X184948698Y-92649184D01*
X184975715Y-92743058D01*
X184971468Y-92838316D01*
X184933393Y-92924885D01*
X184921654Y-92940078D01*
X184875325Y-92985628D01*
X184830540Y-93015435D01*
X184823835Y-93018027D01*
X184801720Y-93028629D01*
X184808833Y-93041808D01*
X184849711Y-93063161D01*
X184866660Y-93070845D01*
X184956152Y-93130423D01*
X185012478Y-93209422D01*
X185035332Y-93300574D01*
X185024409Y-93396611D01*
X184979405Y-93490265D01*
X184900013Y-93574269D01*
X184888183Y-93583340D01*
X184825813Y-93611865D01*
X184726136Y-93634575D01*
X184593861Y-93650802D01*
X184433701Y-93659877D01*
X184336767Y-93661571D01*
X184153117Y-93662500D01*
X184148664Y-93297339D01*
X184322789Y-93297339D01*
X184323432Y-93405983D01*
X184324908Y-93488596D01*
X184327160Y-93538901D01*
X184328850Y-93550937D01*
X184355521Y-93567523D01*
X184411888Y-93576510D01*
X184486050Y-93578150D01*
X184566103Y-93572694D01*
X184640145Y-93560396D01*
X184692775Y-93543229D01*
X184769695Y-93485309D01*
X184813929Y-93403584D01*
X184821796Y-93305080D01*
X184820978Y-93298392D01*
X184806625Y-93235690D01*
X184785531Y-93187429D01*
X184781611Y-93182066D01*
X184732659Y-93143125D01*
X184659760Y-93106321D01*
X184580928Y-93079385D01*
X184520417Y-93069974D01*
X184452310Y-93064009D01*
X184425089Y-93050391D01*
X184438696Y-93032238D01*
X184493077Y-93012668D01*
X184521559Y-93006096D01*
X184621566Y-92982518D01*
X184689147Y-92957711D01*
X184733993Y-92926174D01*
X184765796Y-92882404D01*
X184776502Y-92861366D01*
X184798220Y-92806327D01*
X184799754Y-92760576D01*
X184782814Y-92702175D01*
X184743721Y-92623028D01*
X184688032Y-92571096D01*
X184608195Y-92542068D01*
X184496655Y-92531633D01*
X184483650Y-92531448D01*
X184329917Y-92530084D01*
X184324223Y-93027062D01*
X184323035Y-93168940D01*
X184322789Y-93297339D01*
X184148664Y-93297339D01*
X184146267Y-93100788D01*
X184144000Y-92925782D01*
X184141371Y-92788514D01*
X184137491Y-92684395D01*
X184131469Y-92608834D01*
X184122416Y-92557241D01*
X184109442Y-92525024D01*
X184091657Y-92507593D01*
X184068170Y-92500358D01*
X184038092Y-92498727D01*
X184029541Y-92498658D01*
X183986316Y-92488995D01*
X183969025Y-92475454D01*
X183978573Y-92466886D01*
X184021206Y-92461168D01*
X184099314Y-92458200D01*
X184215289Y-92457880D01*
X184343484Y-92459579D01*
G36*
X181710002Y-92460325D02*
G01*
X181767616Y-92463350D01*
X181812643Y-92469901D01*
X181846637Y-92484690D01*
X181871155Y-92512430D01*
X181887749Y-92557833D01*
X181897976Y-92625612D01*
X181903389Y-92720479D01*
X181905544Y-92847146D01*
X181905995Y-93010327D01*
X181906021Y-93054482D01*
X181906334Y-93536548D01*
X181960628Y-93557191D01*
X182002441Y-93565201D01*
X182076181Y-93571763D01*
X182171451Y-93576199D01*
X182277853Y-93577833D01*
X182278128Y-93577834D01*
X182389876Y-93578589D01*
X182465690Y-93581368D01*
X182511950Y-93586940D01*
X182535038Y-93596075D01*
X182541333Y-93609543D01*
X182541334Y-93609584D01*
X182536075Y-93620799D01*
X182516770Y-93629083D01*
X182478125Y-93634856D01*
X182414846Y-93638535D01*
X182321641Y-93640540D01*
X182193215Y-93641290D01*
X182140169Y-93641334D01*
X181739005Y-93641334D01*
X181732711Y-93090203D01*
X181730595Y-92916914D01*
X181728058Y-92781324D01*
X181724180Y-92678801D01*
X181718043Y-92604714D01*
X181708727Y-92554430D01*
X181695312Y-92523319D01*
X181676880Y-92506748D01*
X181652510Y-92500086D01*
X181621284Y-92498701D01*
X181615292Y-92498658D01*
X181578117Y-92490066D01*
X181567667Y-92476200D01*
X181587761Y-92464384D01*
X181644657Y-92459305D01*
X181710002Y-92460325D01*
G37*
X181710002Y-92460325D02*
X181767616Y-92463350D01*
X181812643Y-92469901D01*
X181846637Y-92484690D01*
X181871155Y-92512430D01*
X181887749Y-92557833D01*
X181897976Y-92625612D01*
X181903389Y-92720479D01*
X181905544Y-92847146D01*
X181905995Y-93010327D01*
X181906021Y-93054482D01*
X181906334Y-93536548D01*
X181960628Y-93557191D01*
X182002441Y-93565201D01*
X182076181Y-93571763D01*
X182171451Y-93576199D01*
X182277853Y-93577833D01*
X182278128Y-93577834D01*
X182389876Y-93578589D01*
X182465690Y-93581368D01*
X182511950Y-93586940D01*
X182535038Y-93596075D01*
X182541333Y-93609543D01*
X182541334Y-93609584D01*
X182536075Y-93620799D01*
X182516770Y-93629083D01*
X182478125Y-93634856D01*
X182414846Y-93638535D01*
X182321641Y-93640540D01*
X182193215Y-93641290D01*
X182140169Y-93641334D01*
X181739005Y-93641334D01*
X181732711Y-93090203D01*
X181730595Y-92916914D01*
X181728058Y-92781324D01*
X181724180Y-92678801D01*
X181718043Y-92604714D01*
X181708727Y-92554430D01*
X181695312Y-92523319D01*
X181676880Y-92506748D01*
X181652510Y-92500086D01*
X181621284Y-92498701D01*
X181615292Y-92498658D01*
X181578117Y-92490066D01*
X181567667Y-92476200D01*
X181587761Y-92464384D01*
X181644657Y-92459305D01*
X181710002Y-92460325D01*
G36*
X183897319Y-85206504D02*
G01*
X184270836Y-85413969D01*
X184635196Y-85616369D01*
X184988616Y-85812712D01*
X185329310Y-86002004D01*
X185655493Y-86183254D01*
X185965378Y-86355468D01*
X186257180Y-86517654D01*
X186529115Y-86668819D01*
X186779396Y-86807971D01*
X187006238Y-86934116D01*
X187207856Y-87046263D01*
X187382464Y-87143419D01*
X187528276Y-87224591D01*
X187643508Y-87288786D01*
X187726373Y-87335012D01*
X187775087Y-87362276D01*
X187787189Y-87369125D01*
X187878961Y-87422244D01*
X184009518Y-89571920D01*
X183633486Y-89780772D01*
X183267113Y-89984158D01*
X182912130Y-90181119D01*
X182570268Y-90370700D01*
X182243259Y-90551943D01*
X181932834Y-90723890D01*
X181640724Y-90885586D01*
X181368662Y-91036073D01*
X181118378Y-91174394D01*
X180891604Y-91299593D01*
X180690071Y-91410711D01*
X180515511Y-91506792D01*
X180369655Y-91586880D01*
X180254234Y-91650017D01*
X180170981Y-91695246D01*
X180121626Y-91721611D01*
X180107745Y-91728471D01*
X180086373Y-91718998D01*
X180029751Y-91689864D01*
X179939608Y-91642018D01*
X179817671Y-91576409D01*
X179665669Y-91493988D01*
X179485330Y-91395704D01*
X179278380Y-91282507D01*
X179046548Y-91155346D01*
X178791562Y-91015172D01*
X178515149Y-90862933D01*
X178219038Y-90699579D01*
X177904955Y-90526060D01*
X177574630Y-90343327D01*
X177229790Y-90152327D01*
X177204405Y-90138250D01*
X177417635Y-90138250D01*
X178757109Y-90881521D01*
X180096584Y-91624792D01*
X180235602Y-91548271D01*
X180278344Y-91524649D01*
X180354519Y-91482442D01*
X180460559Y-91423633D01*
X180592896Y-91350202D01*
X180747959Y-91264131D01*
X180922181Y-91167399D01*
X181111992Y-91061990D01*
X181313824Y-90949882D01*
X181524107Y-90833058D01*
X181574606Y-90805000D01*
X182774591Y-90138250D01*
X181442522Y-90132801D01*
X181154538Y-90131837D01*
X180834478Y-90131141D01*
X180492601Y-90130714D01*
X180139165Y-90130555D01*
X179784426Y-90130664D01*
X179438642Y-90131042D01*
X179112072Y-90131688D01*
X178814971Y-90132603D01*
X178764045Y-90132801D01*
X177417635Y-90138250D01*
X177204405Y-90138250D01*
X176872162Y-89954011D01*
X176503474Y-89749330D01*
X176196016Y-89578466D01*
X175820142Y-89369397D01*
X175454346Y-89165756D01*
X175100329Y-88968499D01*
X174759793Y-88778579D01*
X174434439Y-88596952D01*
X174125970Y-88424572D01*
X173836087Y-88262394D01*
X173566492Y-88111372D01*
X173318888Y-87972461D01*
X173094975Y-87846615D01*
X172896456Y-87734790D01*
X172725033Y-87637940D01*
X172582407Y-87557019D01*
X172470280Y-87492982D01*
X172390354Y-87446784D01*
X172351500Y-87423648D01*
X172555966Y-87423648D01*
X172574602Y-87435395D01*
X172627593Y-87466209D01*
X172712281Y-87514608D01*
X172826012Y-87579110D01*
X172966126Y-87658232D01*
X173129969Y-87750492D01*
X173314883Y-87854407D01*
X173518213Y-87968497D01*
X173737300Y-88091278D01*
X173969488Y-88221268D01*
X174212122Y-88356984D01*
X174462544Y-88496946D01*
X174718097Y-88639669D01*
X174976125Y-88783673D01*
X175233972Y-88927475D01*
X175488980Y-89069592D01*
X175738493Y-89208543D01*
X175979854Y-89342845D01*
X176210407Y-89471015D01*
X176427495Y-89591573D01*
X176628461Y-89703034D01*
X176810650Y-89803918D01*
X176971403Y-89892742D01*
X177108064Y-89968023D01*
X177217978Y-90028280D01*
X177298487Y-90072030D01*
X177346934Y-90097791D01*
X177360792Y-90104448D01*
X177362761Y-90083959D01*
X177364661Y-90023647D01*
X177366475Y-89926025D01*
X177368189Y-89793605D01*
X177369788Y-89628897D01*
X177370657Y-89513834D01*
X177440167Y-89513834D01*
X177440167Y-90064167D01*
X179498625Y-90062496D01*
X179817833Y-90062051D01*
X180116053Y-90061263D01*
X180391157Y-90060155D01*
X180641016Y-90058749D01*
X180863501Y-90057064D01*
X181056486Y-90055124D01*
X181217840Y-90052949D01*
X181345437Y-90050560D01*
X181437147Y-90047981D01*
X181490842Y-90045231D01*
X181504395Y-90042332D01*
X181504167Y-90042246D01*
X181480344Y-90035240D01*
X181637738Y-90035240D01*
X181640478Y-90044093D01*
X181659101Y-90051004D01*
X181697822Y-90056193D01*
X181760852Y-90059880D01*
X181852404Y-90062288D01*
X181976691Y-90063636D01*
X182137925Y-90064145D01*
X182189819Y-90064167D01*
X182753000Y-90064167D01*
X182753000Y-87996889D01*
X182752917Y-87705235D01*
X182752676Y-87426012D01*
X182752663Y-87417089D01*
X182816500Y-87417089D01*
X182816557Y-87750789D01*
X182816723Y-88072567D01*
X182816992Y-88379909D01*
X182817356Y-88670303D01*
X182817809Y-88941232D01*
X182818344Y-89190184D01*
X182818953Y-89414645D01*
X182819631Y-89612100D01*
X182820369Y-89780036D01*
X182821161Y-89915938D01*
X182822001Y-90017292D01*
X182822881Y-90081585D01*
X182823794Y-90106302D01*
X182823884Y-90106500D01*
X182842941Y-90096417D01*
X182896816Y-90066975D01*
X182983324Y-90019382D01*
X183100282Y-89954847D01*
X183245507Y-89874581D01*
X183416816Y-89779792D01*
X183612024Y-89671689D01*
X183828950Y-89551482D01*
X184065409Y-89420380D01*
X184319218Y-89279592D01*
X184588193Y-89130327D01*
X184870152Y-88973794D01*
X185162910Y-88811204D01*
X185231572Y-88773062D01*
X185526561Y-88609088D01*
X185811217Y-88450666D01*
X186083358Y-88299019D01*
X186340799Y-88155372D01*
X186581358Y-88020949D01*
X186802852Y-87896977D01*
X187003098Y-87784678D01*
X187179913Y-87685277D01*
X187331113Y-87600000D01*
X187454515Y-87530070D01*
X187547937Y-87476713D01*
X187609194Y-87441153D01*
X187636105Y-87424614D01*
X187637205Y-87423635D01*
X187619645Y-87411994D01*
X187567550Y-87381197D01*
X187483401Y-87332633D01*
X187369678Y-87267688D01*
X187228861Y-87187751D01*
X187063430Y-87094210D01*
X186875865Y-86988452D01*
X186668647Y-86871865D01*
X186444256Y-86745837D01*
X186205171Y-86611756D01*
X185953874Y-86471009D01*
X185692843Y-86324985D01*
X185424560Y-86175071D01*
X185151504Y-86022656D01*
X184876155Y-85869125D01*
X184600995Y-85715869D01*
X184328502Y-85564274D01*
X184061157Y-85415728D01*
X183801440Y-85271620D01*
X183551832Y-85133336D01*
X183314811Y-85002265D01*
X183092860Y-84879794D01*
X182982247Y-84818881D01*
X182816500Y-84727678D01*
X182816500Y-87417089D01*
X182752663Y-87417089D01*
X182752289Y-87162070D01*
X182751766Y-86916260D01*
X182751119Y-86691434D01*
X182750360Y-86490443D01*
X182749501Y-86316137D01*
X182748552Y-86171369D01*
X182747526Y-86058989D01*
X182746433Y-85981849D01*
X182745285Y-85942799D01*
X182744709Y-85938431D01*
X182738185Y-85959677D01*
X182721479Y-86019056D01*
X182695339Y-86113805D01*
X182660513Y-86241160D01*
X182617749Y-86398357D01*
X182567798Y-86582631D01*
X182511407Y-86791219D01*
X182449324Y-87021357D01*
X182382299Y-87270280D01*
X182311080Y-87535225D01*
X182236416Y-87813428D01*
X182192628Y-87976782D01*
X182116228Y-88261799D01*
X182042801Y-88535483D01*
X181973102Y-88795036D01*
X181907886Y-89037656D01*
X181847907Y-89260543D01*
X181793921Y-89460897D01*
X181746683Y-89635918D01*
X181706946Y-89782806D01*
X181675467Y-89898761D01*
X181652999Y-89980981D01*
X181640299Y-90026668D01*
X181637738Y-90035240D01*
X181480344Y-90035240D01*
X181474603Y-90033552D01*
X181408113Y-90015073D01*
X181308086Y-89987714D01*
X181177910Y-89952380D01*
X181020974Y-89909974D01*
X180840667Y-89861402D01*
X180640378Y-89807567D01*
X180486369Y-89766244D01*
X180768567Y-89766244D01*
X180786475Y-89774364D01*
X180837918Y-89791095D01*
X180915462Y-89814386D01*
X181011675Y-89842185D01*
X181119123Y-89872442D01*
X181230372Y-89903106D01*
X181337989Y-89932126D01*
X181434541Y-89957451D01*
X181512593Y-89977031D01*
X181564712Y-89988814D01*
X181583335Y-89991034D01*
X181589510Y-89970448D01*
X181605768Y-89912179D01*
X181631240Y-89819433D01*
X181665054Y-89695420D01*
X181706343Y-89543347D01*
X181754236Y-89366423D01*
X181807864Y-89167854D01*
X181866357Y-88950851D01*
X181928845Y-88718619D01*
X181990913Y-88487576D01*
X182056228Y-88243866D01*
X182118085Y-88012289D01*
X182175640Y-87796057D01*
X182228048Y-87598381D01*
X182274462Y-87422475D01*
X182314039Y-87271549D01*
X182345931Y-87148817D01*
X182369295Y-87057491D01*
X182383285Y-87000783D01*
X182387125Y-86981903D01*
X182376163Y-86998959D01*
X182345993Y-87049237D01*
X182298604Y-87129312D01*
X182235987Y-87235763D01*
X182160131Y-87365167D01*
X182073026Y-87514100D01*
X181976662Y-87679140D01*
X181873028Y-87856865D01*
X181764114Y-88043851D01*
X181651910Y-88236675D01*
X181538405Y-88431915D01*
X181425590Y-88626148D01*
X181315453Y-88815952D01*
X181209985Y-88997902D01*
X181111175Y-89168577D01*
X181021013Y-89324554D01*
X180941489Y-89462409D01*
X180874592Y-89578721D01*
X180822312Y-89670066D01*
X180786639Y-89733021D01*
X180769563Y-89764164D01*
X180768567Y-89766244D01*
X180486369Y-89766244D01*
X180423495Y-89749374D01*
X180193408Y-89687726D01*
X179953504Y-89623530D01*
X179707172Y-89557688D01*
X179457802Y-89491105D01*
X179208782Y-89424686D01*
X178963501Y-89359334D01*
X178725347Y-89295955D01*
X178497710Y-89235453D01*
X178283977Y-89178731D01*
X178087538Y-89126694D01*
X177911781Y-89080247D01*
X177760096Y-89040294D01*
X177635870Y-89007739D01*
X177542493Y-88983487D01*
X177483353Y-88968442D01*
X177461931Y-88963500D01*
X177454369Y-88984564D01*
X177448392Y-89047401D01*
X177444023Y-89151480D01*
X177441281Y-89296269D01*
X177440187Y-89481239D01*
X177440167Y-89513834D01*
X177370657Y-89513834D01*
X177371257Y-89434412D01*
X177372582Y-89212664D01*
X177373748Y-88966162D01*
X177373980Y-88903043D01*
X177527140Y-88903043D01*
X177527263Y-88908206D01*
X177548545Y-88914728D01*
X177606836Y-88931104D01*
X177698239Y-88956286D01*
X177818855Y-88989230D01*
X177964788Y-89028889D01*
X178132139Y-89074215D01*
X178317012Y-89124165D01*
X178515510Y-89177690D01*
X178723734Y-89233745D01*
X178937787Y-89291283D01*
X179153772Y-89349259D01*
X179367792Y-89406626D01*
X179575948Y-89462338D01*
X179774344Y-89515349D01*
X179959083Y-89564612D01*
X180126266Y-89609081D01*
X180271996Y-89647711D01*
X180392376Y-89679454D01*
X180483508Y-89703265D01*
X180541496Y-89718097D01*
X180562250Y-89722915D01*
X180563642Y-89715659D01*
X180541084Y-89700247D01*
X180516271Y-89686009D01*
X180457743Y-89652320D01*
X180368453Y-89600884D01*
X180251355Y-89533404D01*
X180109402Y-89451581D01*
X180010213Y-89394398D01*
X180131170Y-89394398D01*
X180410210Y-89557512D01*
X180508134Y-89613826D01*
X180593568Y-89661208D01*
X180659729Y-89696034D01*
X180699832Y-89714675D01*
X180708122Y-89716772D01*
X180722648Y-89698181D01*
X180755749Y-89646937D01*
X180804962Y-89567121D01*
X180867828Y-89462819D01*
X180941887Y-89338114D01*
X181024678Y-89197090D01*
X181113741Y-89043830D01*
X181117930Y-89036585D01*
X181219778Y-88860351D01*
X181326076Y-88676355D01*
X181432226Y-88492563D01*
X181533630Y-88316937D01*
X181625688Y-88157442D01*
X181703802Y-88022042D01*
X181740680Y-87958084D01*
X181972493Y-87555917D01*
X181051832Y-88475158D01*
X180131170Y-89394398D01*
X180010213Y-89394398D01*
X179945550Y-89357120D01*
X179762751Y-89251722D01*
X179563959Y-89137090D01*
X179352129Y-89014929D01*
X179130214Y-88886939D01*
X179125316Y-88884114D01*
X178846005Y-88723436D01*
X178595857Y-88580413D01*
X178375776Y-88455544D01*
X178186665Y-88349330D01*
X178029428Y-88262270D01*
X177904967Y-88194865D01*
X177814186Y-88147616D01*
X177757988Y-88121022D01*
X177737313Y-88115519D01*
X177726764Y-88143628D01*
X177708474Y-88203422D01*
X177684475Y-88287241D01*
X177656795Y-88387422D01*
X177627466Y-88496304D01*
X177598518Y-88606223D01*
X177571981Y-88709519D01*
X177549886Y-88798529D01*
X177534262Y-88865591D01*
X177527140Y-88903043D01*
X177373980Y-88903043D01*
X177374739Y-88697419D01*
X177375541Y-88408945D01*
X177376140Y-88103253D01*
X177376519Y-87782853D01*
X177376666Y-87450258D01*
X177376667Y-87417089D01*
X177376667Y-84772500D01*
X177440167Y-84772500D01*
X177441838Y-86841542D01*
X177442291Y-87169884D01*
X177443089Y-87474962D01*
X177444211Y-87754856D01*
X177445640Y-88007647D01*
X177447355Y-88231413D01*
X177449336Y-88424234D01*
X177451565Y-88584191D01*
X177454021Y-88709362D01*
X177456685Y-88797828D01*
X177459537Y-88847669D01*
X177462344Y-88857667D01*
X177470409Y-88830038D01*
X177488628Y-88764394D01*
X177516223Y-88663619D01*
X177552415Y-88530596D01*
X177596426Y-88368207D01*
X177647476Y-88179336D01*
X177686698Y-88033923D01*
X177804113Y-88033923D01*
X177822758Y-88047024D01*
X177874128Y-88078983D01*
X177954282Y-88127497D01*
X178059280Y-88190266D01*
X178185180Y-88264989D01*
X178328042Y-88349363D01*
X178483923Y-88441088D01*
X178648885Y-88537862D01*
X178818984Y-88637384D01*
X178990281Y-88737352D01*
X179158835Y-88835465D01*
X179320704Y-88929421D01*
X179471947Y-89016919D01*
X179608624Y-89095659D01*
X179726793Y-89163337D01*
X179822514Y-89217654D01*
X179891846Y-89256307D01*
X179930847Y-89276995D01*
X179937741Y-89279883D01*
X179925091Y-89265562D01*
X179885010Y-89223900D01*
X179820034Y-89157459D01*
X179732698Y-89068801D01*
X179625537Y-88960489D01*
X179589312Y-88923986D01*
X179737499Y-88923986D01*
X179742989Y-88946699D01*
X179777643Y-88994212D01*
X179838875Y-89063320D01*
X179906391Y-89133143D01*
X179977693Y-89204735D01*
X180036809Y-89264013D01*
X180078108Y-89305335D01*
X180095953Y-89323057D01*
X180096259Y-89323334D01*
X180110848Y-89308838D01*
X180152461Y-89267278D01*
X180218207Y-89201546D01*
X180305196Y-89114532D01*
X180410539Y-89009128D01*
X180531345Y-88888225D01*
X180664725Y-88754715D01*
X180807789Y-88611488D01*
X180816367Y-88602899D01*
X181535917Y-87882465D01*
X180646917Y-88393742D01*
X180469294Y-88496041D01*
X180302669Y-88592286D01*
X180150684Y-88680353D01*
X180016981Y-88758119D01*
X179905203Y-88823460D01*
X179818992Y-88874252D01*
X179761990Y-88908372D01*
X179737840Y-88923696D01*
X179737499Y-88923986D01*
X179589312Y-88923986D01*
X179501087Y-88835084D01*
X179361881Y-88695148D01*
X179210456Y-88543243D01*
X179049346Y-88381933D01*
X179038733Y-88371317D01*
X178876583Y-88209614D01*
X178723213Y-88057596D01*
X178581235Y-87917790D01*
X178453259Y-87792724D01*
X178341897Y-87684923D01*
X178249759Y-87596915D01*
X178179457Y-87531226D01*
X178133602Y-87490383D01*
X178114806Y-87476913D01*
X178114600Y-87477025D01*
X178092933Y-87507085D01*
X178057652Y-87563799D01*
X178013221Y-87639160D01*
X177964105Y-87725158D01*
X177914769Y-87813784D01*
X177869679Y-87897031D01*
X177833299Y-87966890D01*
X177810094Y-88015351D01*
X177804113Y-88033923D01*
X177686698Y-88033923D01*
X177704787Y-87966864D01*
X177733842Y-87858964D01*
X177802883Y-87858964D01*
X177809290Y-87859734D01*
X177821981Y-87839633D01*
X177854159Y-87785741D01*
X177904146Y-87700932D01*
X177970269Y-87588082D01*
X178050849Y-87450063D01*
X178069139Y-87418657D01*
X178192144Y-87418657D01*
X178900829Y-88127579D01*
X179043493Y-88270139D01*
X179176866Y-88403122D01*
X179298001Y-88523608D01*
X179403949Y-88628682D01*
X179491765Y-88715425D01*
X179558501Y-88780921D01*
X179601211Y-88822251D01*
X179616935Y-88836500D01*
X179611637Y-88820195D01*
X179589934Y-88778537D01*
X179571689Y-88746542D01*
X179550010Y-88709268D01*
X179509657Y-88639647D01*
X179453126Y-88541993D01*
X179431660Y-88504885D01*
X179501121Y-88504885D01*
X179508113Y-88525531D01*
X179532379Y-88571988D01*
X179568087Y-88634593D01*
X179609406Y-88703688D01*
X179650502Y-88769609D01*
X179685544Y-88822697D01*
X179708700Y-88853291D01*
X179713780Y-88857151D01*
X179735996Y-88847041D01*
X179790545Y-88818057D01*
X179873153Y-88772591D01*
X179979547Y-88713032D01*
X180105455Y-88641772D01*
X180246604Y-88561200D01*
X180384191Y-88482092D01*
X180534353Y-88395186D01*
X180671931Y-88315025D01*
X180792849Y-88244022D01*
X180893036Y-88184593D01*
X180968417Y-88139154D01*
X181014918Y-88110119D01*
X181028683Y-88099961D01*
X181008008Y-88104079D01*
X180951951Y-88117772D01*
X180866002Y-88139585D01*
X180755650Y-88168063D01*
X180626386Y-88201750D01*
X180483698Y-88239193D01*
X180333077Y-88278934D01*
X180180011Y-88319520D01*
X180029990Y-88359495D01*
X179888504Y-88397404D01*
X179761043Y-88431792D01*
X179653095Y-88461203D01*
X179570151Y-88484183D01*
X179517700Y-88499277D01*
X179501121Y-88504885D01*
X179431660Y-88504885D01*
X179382913Y-88420620D01*
X179301513Y-88279842D01*
X179211421Y-88123974D01*
X179115132Y-87957328D01*
X179060546Y-87862834D01*
X178963732Y-87695475D01*
X178873173Y-87539413D01*
X178791112Y-87398481D01*
X178719794Y-87276508D01*
X178661461Y-87177328D01*
X178618358Y-87104771D01*
X178592730Y-87062669D01*
X178586577Y-87053518D01*
X178566756Y-87061721D01*
X178523689Y-87095290D01*
X178463445Y-87149050D01*
X178392093Y-87217824D01*
X178381615Y-87228305D01*
X178192144Y-87418657D01*
X178069139Y-87418657D01*
X178144213Y-87289749D01*
X178167898Y-87249000D01*
X178245432Y-87249000D01*
X178255185Y-87243932D01*
X178292365Y-87211242D01*
X178354526Y-87153301D01*
X178439219Y-87072478D01*
X178485068Y-87028134D01*
X178650696Y-87028134D01*
X178659408Y-87046849D01*
X178687088Y-87098069D01*
X178731425Y-87177705D01*
X178790109Y-87281663D01*
X178860831Y-87405852D01*
X178941281Y-87546181D01*
X179029148Y-87698557D01*
X179030630Y-87701120D01*
X179118871Y-87853351D01*
X179200299Y-87993143D01*
X179272537Y-88116467D01*
X179333206Y-88219294D01*
X179379931Y-88297596D01*
X179410334Y-88347344D01*
X179422037Y-88364509D01*
X179422063Y-88364493D01*
X179417909Y-88343656D01*
X179403926Y-88286462D01*
X179381287Y-88197431D01*
X179366370Y-88139818D01*
X179429834Y-88139818D01*
X179435777Y-88184180D01*
X179450981Y-88246743D01*
X179471512Y-88315233D01*
X179493432Y-88377377D01*
X179512804Y-88420902D01*
X179524218Y-88434096D01*
X179549796Y-88428749D01*
X179610668Y-88413795D01*
X179701259Y-88390674D01*
X179815997Y-88360822D01*
X179949308Y-88325677D01*
X180093505Y-88287244D01*
X180239119Y-88247920D01*
X180371035Y-88211695D01*
X180483802Y-88180117D01*
X180571966Y-88154729D01*
X180630075Y-88137079D01*
X180652658Y-88128732D01*
X180635465Y-88125717D01*
X180581053Y-88122983D01*
X180494534Y-88120630D01*
X180381022Y-88118760D01*
X180245629Y-88117472D01*
X180093468Y-88116867D01*
X180047195Y-88116834D01*
X179848151Y-88117452D01*
X179689780Y-88119348D01*
X179570436Y-88122583D01*
X179488475Y-88127217D01*
X179442254Y-88133313D01*
X179429834Y-88139818D01*
X179366370Y-88139818D01*
X179351162Y-88081087D01*
X179314722Y-87941950D01*
X179273140Y-87784542D01*
X179227587Y-87613385D01*
X179223449Y-87597900D01*
X179177324Y-87425598D01*
X179134604Y-87266574D01*
X179096523Y-87125369D01*
X179064310Y-87006525D01*
X179039199Y-86914585D01*
X179022419Y-86854090D01*
X179016312Y-86833347D01*
X179077488Y-86833347D01*
X179081672Y-86853723D01*
X179095315Y-86908532D01*
X179116712Y-86991424D01*
X179144160Y-87096051D01*
X179175955Y-87216065D01*
X179210392Y-87345116D01*
X179245768Y-87476857D01*
X179280378Y-87604938D01*
X179312518Y-87723012D01*
X179340484Y-87824729D01*
X179362572Y-87903741D01*
X179377079Y-87953699D01*
X179382209Y-87968589D01*
X179383558Y-87948321D01*
X179384780Y-87890988D01*
X179385829Y-87801859D01*
X179386661Y-87686201D01*
X179387230Y-87549283D01*
X179387489Y-87396375D01*
X179387500Y-87356464D01*
X179387500Y-86762167D01*
X179451000Y-86762167D01*
X179451000Y-88074500D01*
X180742167Y-88074500D01*
X180742167Y-87656366D01*
X180806851Y-87656366D01*
X180807102Y-87796824D01*
X180808148Y-87903738D01*
X180810246Y-87981501D01*
X180813652Y-88034507D01*
X180818621Y-88067148D01*
X180825411Y-88083820D01*
X180834278Y-88088916D01*
X180842709Y-88087708D01*
X180882834Y-88076174D01*
X180947307Y-88057812D01*
X180999449Y-88043031D01*
X181119148Y-88009165D01*
X181058253Y-87782541D01*
X181030735Y-87680260D01*
X180995881Y-87550895D01*
X180957404Y-87408225D01*
X180919021Y-87266032D01*
X180902984Y-87206667D01*
X180808609Y-86857417D01*
X180807138Y-87477968D01*
X180806851Y-87656366D01*
X180742167Y-87656366D01*
X180742167Y-86762167D01*
X179451000Y-86762167D01*
X179387500Y-86762167D01*
X179387500Y-86744262D01*
X179234042Y-86787353D01*
X179160261Y-86808319D01*
X179104982Y-86824501D01*
X179078428Y-86832895D01*
X179077488Y-86833347D01*
X179016312Y-86833347D01*
X179015203Y-86829582D01*
X179015073Y-86829307D01*
X178996777Y-86836728D01*
X178951317Y-86859803D01*
X178888333Y-86893271D01*
X178817467Y-86931873D01*
X178748360Y-86970348D01*
X178690652Y-87003433D01*
X178653986Y-87025870D01*
X178650696Y-87028134D01*
X178485068Y-87028134D01*
X178543995Y-86971143D01*
X178568440Y-86947284D01*
X178678161Y-86947284D01*
X178678417Y-86947203D01*
X178700474Y-86934746D01*
X178755565Y-86903230D01*
X178840049Y-86854748D01*
X178950291Y-86791392D01*
X179019492Y-86751584D01*
X179133500Y-86751584D01*
X179144084Y-86762167D01*
X179154667Y-86751584D01*
X179144084Y-86741000D01*
X179133500Y-86751584D01*
X179019492Y-86751584D01*
X179044679Y-86737095D01*
X179177151Y-86737095D01*
X179179836Y-86740728D01*
X179183538Y-86741000D01*
X179207061Y-86735721D01*
X179266733Y-86720709D01*
X179301820Y-86711653D01*
X179537431Y-86711653D01*
X179555424Y-86713727D01*
X179610603Y-86715607D01*
X179697819Y-86717225D01*
X179811926Y-86718511D01*
X179947775Y-86719396D01*
X180100219Y-86719811D01*
X180145972Y-86719834D01*
X180346951Y-86719102D01*
X180509498Y-86716928D01*
X180632753Y-86713342D01*
X180715855Y-86708372D01*
X180757940Y-86702050D01*
X180763334Y-86698347D01*
X180758293Y-86669956D01*
X180745515Y-86615373D01*
X180728516Y-86548141D01*
X180710813Y-86481805D01*
X180708494Y-86473722D01*
X180769556Y-86473722D01*
X180773067Y-86495105D01*
X180786530Y-86551695D01*
X180808456Y-86638043D01*
X180837355Y-86748696D01*
X180871738Y-86878203D01*
X180910116Y-87021113D01*
X180951000Y-87171974D01*
X180992900Y-87325334D01*
X181034327Y-87475743D01*
X181073793Y-87617748D01*
X181109808Y-87745898D01*
X181140882Y-87854743D01*
X181165526Y-87938829D01*
X181182252Y-87992707D01*
X181189489Y-88010949D01*
X181212475Y-88000955D01*
X181263085Y-87974092D01*
X181332546Y-87935105D01*
X181374777Y-87910699D01*
X181448528Y-87866059D01*
X181505236Y-87828663D01*
X181537142Y-87803793D01*
X181541289Y-87797312D01*
X181528345Y-87773112D01*
X181497396Y-87718327D01*
X181451331Y-87637911D01*
X181393040Y-87536822D01*
X181325412Y-87420013D01*
X181251336Y-87292440D01*
X181173701Y-87159059D01*
X181095397Y-87024825D01*
X181019314Y-86894694D01*
X180948340Y-86773621D01*
X180885365Y-86666561D01*
X180833278Y-86578470D01*
X180794968Y-86514304D01*
X180773325Y-86479017D01*
X180769556Y-86473722D01*
X180708494Y-86473722D01*
X180695923Y-86429910D01*
X180687469Y-86406145D01*
X180666868Y-86409669D01*
X180611761Y-86422688D01*
X180528474Y-86443522D01*
X180423332Y-86470489D01*
X180302663Y-86501911D01*
X180172791Y-86536105D01*
X180040042Y-86571393D01*
X179910742Y-86606093D01*
X179791216Y-86638524D01*
X179687792Y-86667008D01*
X179606794Y-86689862D01*
X179554548Y-86705407D01*
X179537431Y-86711653D01*
X179301820Y-86711653D01*
X179357815Y-86697201D01*
X179475568Y-86666435D01*
X179615255Y-86629649D01*
X179772136Y-86588079D01*
X179923313Y-86547813D01*
X180092060Y-86502576D01*
X180248210Y-86460363D01*
X180386949Y-86422502D01*
X180503464Y-86390321D01*
X180592940Y-86365148D01*
X180650563Y-86348313D01*
X180671123Y-86341438D01*
X180674115Y-86316164D01*
X180650768Y-86258276D01*
X180603092Y-86171319D01*
X180558971Y-86097698D01*
X180523952Y-86041711D01*
X180594857Y-86041711D01*
X180595206Y-86042500D01*
X180611345Y-86071846D01*
X180646041Y-86133184D01*
X180696624Y-86221882D01*
X180760421Y-86333308D01*
X180834760Y-86462829D01*
X180916971Y-86605813D01*
X181004380Y-86757627D01*
X181094317Y-86913638D01*
X181184110Y-87069214D01*
X181271086Y-87219722D01*
X181352575Y-87360531D01*
X181425904Y-87487006D01*
X181488402Y-87594517D01*
X181537396Y-87678429D01*
X181570216Y-87734111D01*
X181582587Y-87754524D01*
X181614666Y-87804965D01*
X182001401Y-87418230D01*
X181284925Y-86703907D01*
X181142960Y-86562893D01*
X181011425Y-86433258D01*
X180893063Y-86317632D01*
X180790616Y-86218646D01*
X180706830Y-86138930D01*
X180644445Y-86081115D01*
X180606207Y-86047832D01*
X180594857Y-86041711D01*
X180523952Y-86041711D01*
X180521475Y-86037752D01*
X180496771Y-86001251D01*
X180492252Y-85995786D01*
X180469810Y-86001393D01*
X180414643Y-86026588D01*
X180330460Y-86069405D01*
X180220970Y-86127877D01*
X180089883Y-86200038D01*
X179940909Y-86283920D01*
X179840617Y-86341280D01*
X179661869Y-86444190D01*
X179516759Y-86528024D01*
X179402155Y-86594687D01*
X179314927Y-86646083D01*
X179251944Y-86684117D01*
X179210074Y-86710694D01*
X179186187Y-86727719D01*
X179177151Y-86737095D01*
X179044679Y-86737095D01*
X179082651Y-86715252D01*
X179233491Y-86628423D01*
X179399173Y-86532994D01*
X179576058Y-86431059D01*
X179588584Y-86423839D01*
X179765447Y-86321854D01*
X179930789Y-86226449D01*
X180081057Y-86139678D01*
X180212700Y-86063594D01*
X180322166Y-86000251D01*
X180405905Y-85951703D01*
X180460363Y-85920005D01*
X180481991Y-85907209D01*
X180482201Y-85907060D01*
X180469848Y-85891444D01*
X180432778Y-85851771D01*
X180376420Y-85793703D01*
X180306206Y-85722902D01*
X180291444Y-85708176D01*
X180142009Y-85559362D01*
X180247341Y-85559362D01*
X180257708Y-85572538D01*
X180295758Y-85612885D01*
X180358991Y-85677893D01*
X180444911Y-85765046D01*
X180551019Y-85871832D01*
X180674816Y-85995738D01*
X180813805Y-86134249D01*
X180965488Y-86284854D01*
X181127366Y-86445038D01*
X181144334Y-86461797D01*
X181308032Y-86623153D01*
X181462826Y-86775127D01*
X181606098Y-86915190D01*
X181735231Y-87040814D01*
X181847611Y-87149470D01*
X181940621Y-87238629D01*
X182011645Y-87305763D01*
X182058066Y-87348342D01*
X182077269Y-87363839D01*
X182077556Y-87363831D01*
X182092033Y-87343812D01*
X182123342Y-87293749D01*
X182167388Y-87220395D01*
X182220074Y-87130507D01*
X182241597Y-87093264D01*
X182295755Y-86997907D01*
X182341359Y-86915160D01*
X182374607Y-86852113D01*
X182391699Y-86815856D01*
X182393167Y-86810616D01*
X182375469Y-86797648D01*
X182324988Y-86765867D01*
X182245641Y-86717557D01*
X182141347Y-86655003D01*
X182016022Y-86580490D01*
X181873586Y-86496302D01*
X181717956Y-86404723D01*
X181553049Y-86308038D01*
X181382785Y-86208532D01*
X181211080Y-86108489D01*
X181041853Y-86010194D01*
X180879021Y-85915931D01*
X180726502Y-85827986D01*
X180588215Y-85748642D01*
X180468077Y-85680184D01*
X180370006Y-85624896D01*
X180297920Y-85585064D01*
X180255736Y-85562971D01*
X180247341Y-85559362D01*
X180142009Y-85559362D01*
X180096070Y-85513614D01*
X179376660Y-86235861D01*
X179234013Y-86379278D01*
X179101623Y-86512783D01*
X178982266Y-86633549D01*
X178878720Y-86738746D01*
X178793760Y-86825547D01*
X178730162Y-86891122D01*
X178690704Y-86932644D01*
X178678161Y-86947284D01*
X178568440Y-86947284D01*
X178666406Y-86851667D01*
X178804003Y-86716419D01*
X178954339Y-86567769D01*
X179114964Y-86408088D01*
X179141387Y-86381742D01*
X179312653Y-86210319D01*
X179471405Y-86050271D01*
X179615414Y-85903913D01*
X179742449Y-85773560D01*
X179850282Y-85661526D01*
X179936682Y-85570128D01*
X179999419Y-85501681D01*
X180036264Y-85458499D01*
X180045391Y-85443091D01*
X180015185Y-85420783D01*
X179958468Y-85385417D01*
X179882991Y-85341228D01*
X179796505Y-85292452D01*
X179706761Y-85243322D01*
X179621509Y-85198073D01*
X179548499Y-85160941D01*
X179498029Y-85137350D01*
X179671761Y-85137350D01*
X179687888Y-85149186D01*
X179737368Y-85179982D01*
X179816763Y-85227757D01*
X179922635Y-85290531D01*
X180051546Y-85366324D01*
X180200057Y-85453155D01*
X180364730Y-85549043D01*
X180542127Y-85652009D01*
X180728810Y-85760073D01*
X180921340Y-85871252D01*
X181116279Y-85983569D01*
X181310188Y-86095041D01*
X181499631Y-86203688D01*
X181681168Y-86307531D01*
X181851361Y-86404588D01*
X182006771Y-86492880D01*
X182143962Y-86570426D01*
X182259493Y-86635245D01*
X182349928Y-86685358D01*
X182411828Y-86718784D01*
X182441754Y-86733542D01*
X182443911Y-86734067D01*
X182455164Y-86712770D01*
X182475011Y-86656997D01*
X182501402Y-86573245D01*
X182532291Y-86468012D01*
X182565472Y-86348377D01*
X182597469Y-86226962D01*
X182624444Y-86119020D01*
X182644801Y-86031409D01*
X182656947Y-85970989D01*
X182659341Y-85944758D01*
X182633895Y-85922390D01*
X182601281Y-85910828D01*
X182573014Y-85903736D01*
X182507282Y-85886562D01*
X182407502Y-85860215D01*
X182277088Y-85825606D01*
X182119458Y-85783645D01*
X181938026Y-85735242D01*
X181736210Y-85681306D01*
X181517426Y-85622749D01*
X181285089Y-85560480D01*
X181115747Y-85515045D01*
X180877302Y-85451177D01*
X180651015Y-85390832D01*
X180440172Y-85334870D01*
X180248062Y-85284151D01*
X180077971Y-85239536D01*
X179933187Y-85201882D01*
X179816996Y-85172052D01*
X179732687Y-85150903D01*
X179683545Y-85139297D01*
X179671761Y-85137350D01*
X179498029Y-85137350D01*
X179495483Y-85136160D01*
X179470211Y-85127964D01*
X179469351Y-85128355D01*
X179456580Y-85148887D01*
X179425033Y-85202138D01*
X179377013Y-85284119D01*
X179314823Y-85390837D01*
X179240767Y-85518302D01*
X179157149Y-85662521D01*
X179066271Y-85819504D01*
X178970439Y-85985260D01*
X178871954Y-86155797D01*
X178773121Y-86327124D01*
X178676244Y-86495249D01*
X178583625Y-86656181D01*
X178497568Y-86805930D01*
X178420378Y-86940503D01*
X178354357Y-87055909D01*
X178301809Y-87148158D01*
X178265038Y-87213257D01*
X178246346Y-87247216D01*
X178245432Y-87249000D01*
X178167898Y-87249000D01*
X178248685Y-87110016D01*
X178362587Y-86913737D01*
X178484246Y-86703787D01*
X178611986Y-86483038D01*
X178617607Y-86473317D01*
X178745427Y-86252108D01*
X178866977Y-86041438D01*
X178980604Y-85844193D01*
X179084655Y-85663258D01*
X179177477Y-85501517D01*
X179257415Y-85361855D01*
X179322816Y-85247158D01*
X179372027Y-85160309D01*
X179393580Y-85121750D01*
X179620334Y-85121750D01*
X179630917Y-85132334D01*
X179641500Y-85121750D01*
X179630917Y-85111167D01*
X179620334Y-85121750D01*
X179393580Y-85121750D01*
X179403394Y-85104195D01*
X179415265Y-85081699D01*
X179415313Y-85081528D01*
X179397016Y-85072063D01*
X179345344Y-85053649D01*
X179267761Y-85028474D01*
X179171732Y-84998726D01*
X179064724Y-84966595D01*
X178954202Y-84934269D01*
X178847631Y-84903938D01*
X178752477Y-84877790D01*
X178676205Y-84858015D01*
X178626281Y-84846801D01*
X178610290Y-84845490D01*
X178604201Y-84865952D01*
X178588065Y-84924075D01*
X178562759Y-85016621D01*
X178529157Y-85140351D01*
X178488134Y-85292025D01*
X178440565Y-85468405D01*
X178387325Y-85666252D01*
X178329288Y-85882326D01*
X178267329Y-86113390D01*
X178212340Y-86318766D01*
X178147455Y-86561224D01*
X178085576Y-86792367D01*
X178027603Y-87008841D01*
X177974435Y-87207292D01*
X177926972Y-87384366D01*
X177886112Y-87536710D01*
X177852754Y-87660969D01*
X177827799Y-87753789D01*
X177812144Y-87811817D01*
X177806879Y-87831084D01*
X177802883Y-87858964D01*
X177733842Y-87858964D01*
X177767580Y-87733675D01*
X177835076Y-87482652D01*
X177906495Y-87216678D01*
X177981061Y-86938635D01*
X178011330Y-86825667D01*
X178086784Y-86544056D01*
X178159270Y-86273655D01*
X178228021Y-86017315D01*
X178292271Y-85777889D01*
X178351252Y-85558229D01*
X178404198Y-85361187D01*
X178450343Y-85189616D01*
X178488920Y-85046368D01*
X178519163Y-84934295D01*
X178540304Y-84856249D01*
X178551579Y-84815083D01*
X178553166Y-84809542D01*
X178554321Y-84798415D01*
X178546856Y-84789763D01*
X178526174Y-84783277D01*
X178524570Y-84783084D01*
X178624085Y-84783084D01*
X180683251Y-85334268D01*
X182742417Y-85885453D01*
X182748066Y-85336390D01*
X182749308Y-85188441D01*
X182749890Y-85055012D01*
X182749831Y-84941768D01*
X182749151Y-84854373D01*
X182747869Y-84798493D01*
X182746197Y-84779808D01*
X182724428Y-84778798D01*
X182663215Y-84777936D01*
X182565446Y-84777226D01*
X182434008Y-84776670D01*
X182271791Y-84776272D01*
X182081684Y-84776034D01*
X181866573Y-84775960D01*
X181629348Y-84776052D01*
X181372898Y-84776313D01*
X181100110Y-84776746D01*
X180813873Y-84777355D01*
X180681382Y-84777687D01*
X178624085Y-84783084D01*
X178524570Y-84783084D01*
X178487680Y-84778647D01*
X178426779Y-84775565D01*
X178338873Y-84773722D01*
X178219369Y-84772808D01*
X178063670Y-84772514D01*
X178002510Y-84772500D01*
X177440167Y-84772500D01*
X177376667Y-84772500D01*
X177376667Y-84727678D01*
X177210920Y-84818881D01*
X176997848Y-84936293D01*
X176768406Y-85063034D01*
X176525073Y-85197716D01*
X176270329Y-85338953D01*
X176006654Y-85485355D01*
X175736528Y-85635536D01*
X175462432Y-85788108D01*
X175186844Y-85941684D01*
X174912244Y-86094875D01*
X174641113Y-86246293D01*
X174375931Y-86394552D01*
X174119177Y-86538264D01*
X173873331Y-86676040D01*
X173640873Y-86806494D01*
X173424283Y-86928237D01*
X173226041Y-87039882D01*
X173048627Y-87140041D01*
X172894521Y-87227327D01*
X172766202Y-87300351D01*
X172666150Y-87357727D01*
X172596846Y-87398066D01*
X172560769Y-87419982D01*
X172555966Y-87423648D01*
X172351500Y-87423648D01*
X172344332Y-87419380D01*
X172333099Y-87411591D01*
X172352948Y-87400484D01*
X172408067Y-87369789D01*
X172496717Y-87320473D01*
X172617158Y-87253502D01*
X172767653Y-87169842D01*
X172946462Y-87070459D01*
X173151846Y-86956319D01*
X173382067Y-86828389D01*
X173635384Y-86687635D01*
X173910061Y-86535023D01*
X174204356Y-86371519D01*
X174516533Y-86198091D01*
X174844851Y-86015703D01*
X175187571Y-85825322D01*
X175542956Y-85627914D01*
X175909265Y-85424446D01*
X176149000Y-85291288D01*
X176522314Y-85083938D01*
X176886330Y-84881751D01*
X177197350Y-84709000D01*
X177408849Y-84709000D01*
X180096800Y-84708932D01*
X182784750Y-84708864D01*
X181451250Y-83967572D01*
X181231994Y-83846033D01*
X181023108Y-83730912D01*
X180827594Y-83623823D01*
X180648454Y-83526376D01*
X180488691Y-83440187D01*
X180351308Y-83366868D01*
X180239307Y-83308033D01*
X180155690Y-83265293D01*
X180103460Y-83240262D01*
X180086000Y-83234111D01*
X180062660Y-83245443D01*
X180005347Y-83275698D01*
X179917085Y-83323221D01*
X179800897Y-83386357D01*
X179659806Y-83463453D01*
X179496834Y-83552852D01*
X179315006Y-83652902D01*
X179117344Y-83761945D01*
X178906871Y-83878329D01*
X178731550Y-83975471D01*
X177408849Y-84709000D01*
X177197350Y-84709000D01*
X177239274Y-84685714D01*
X177579370Y-84496811D01*
X177904844Y-84316029D01*
X178213921Y-84144353D01*
X178504825Y-83982771D01*
X178775783Y-83832266D01*
X179025018Y-83693827D01*
X179250757Y-83568437D01*
X179451224Y-83457083D01*
X179624644Y-83360752D01*
X179769243Y-83280428D01*
X179883245Y-83217098D01*
X179964876Y-83171747D01*
X180012361Y-83145363D01*
X180023819Y-83138992D01*
X180099222Y-83097004D01*
X183897319Y-85206504D01*
G37*
X183897319Y-85206504D02*
X184270836Y-85413969D01*
X184635196Y-85616369D01*
X184988616Y-85812712D01*
X185329310Y-86002004D01*
X185655493Y-86183254D01*
X185965378Y-86355468D01*
X186257180Y-86517654D01*
X186529115Y-86668819D01*
X186779396Y-86807971D01*
X187006238Y-86934116D01*
X187207856Y-87046263D01*
X187382464Y-87143419D01*
X187528276Y-87224591D01*
X187643508Y-87288786D01*
X187726373Y-87335012D01*
X187775087Y-87362276D01*
X187787189Y-87369125D01*
X187878961Y-87422244D01*
X184009518Y-89571920D01*
X183633486Y-89780772D01*
X183267113Y-89984158D01*
X182912130Y-90181119D01*
X182570268Y-90370700D01*
X182243259Y-90551943D01*
X181932834Y-90723890D01*
X181640724Y-90885586D01*
X181368662Y-91036073D01*
X181118378Y-91174394D01*
X180891604Y-91299593D01*
X180690071Y-91410711D01*
X180515511Y-91506792D01*
X180369655Y-91586880D01*
X180254234Y-91650017D01*
X180170981Y-91695246D01*
X180121626Y-91721611D01*
X180107745Y-91728471D01*
X180086373Y-91718998D01*
X180029751Y-91689864D01*
X179939608Y-91642018D01*
X179817671Y-91576409D01*
X179665669Y-91493988D01*
X179485330Y-91395704D01*
X179278380Y-91282507D01*
X179046548Y-91155346D01*
X178791562Y-91015172D01*
X178515149Y-90862933D01*
X178219038Y-90699579D01*
X177904955Y-90526060D01*
X177574630Y-90343327D01*
X177229790Y-90152327D01*
X177204405Y-90138250D01*
X177417635Y-90138250D01*
X178757109Y-90881521D01*
X180096584Y-91624792D01*
X180235602Y-91548271D01*
X180278344Y-91524649D01*
X180354519Y-91482442D01*
X180460559Y-91423633D01*
X180592896Y-91350202D01*
X180747959Y-91264131D01*
X180922181Y-91167399D01*
X181111992Y-91061990D01*
X181313824Y-90949882D01*
X181524107Y-90833058D01*
X181574606Y-90805000D01*
X182774591Y-90138250D01*
X181442522Y-90132801D01*
X181154538Y-90131837D01*
X180834478Y-90131141D01*
X180492601Y-90130714D01*
X180139165Y-90130555D01*
X179784426Y-90130664D01*
X179438642Y-90131042D01*
X179112072Y-90131688D01*
X178814971Y-90132603D01*
X178764045Y-90132801D01*
X177417635Y-90138250D01*
X177204405Y-90138250D01*
X176872162Y-89954011D01*
X176503474Y-89749330D01*
X176196016Y-89578466D01*
X175820142Y-89369397D01*
X175454346Y-89165756D01*
X175100329Y-88968499D01*
X174759793Y-88778579D01*
X174434439Y-88596952D01*
X174125970Y-88424572D01*
X173836087Y-88262394D01*
X173566492Y-88111372D01*
X173318888Y-87972461D01*
X173094975Y-87846615D01*
X172896456Y-87734790D01*
X172725033Y-87637940D01*
X172582407Y-87557019D01*
X172470280Y-87492982D01*
X172390354Y-87446784D01*
X172351500Y-87423648D01*
X172555966Y-87423648D01*
X172574602Y-87435395D01*
X172627593Y-87466209D01*
X172712281Y-87514608D01*
X172826012Y-87579110D01*
X172966126Y-87658232D01*
X173129969Y-87750492D01*
X173314883Y-87854407D01*
X173518213Y-87968497D01*
X173737300Y-88091278D01*
X173969488Y-88221268D01*
X174212122Y-88356984D01*
X174462544Y-88496946D01*
X174718097Y-88639669D01*
X174976125Y-88783673D01*
X175233972Y-88927475D01*
X175488980Y-89069592D01*
X175738493Y-89208543D01*
X175979854Y-89342845D01*
X176210407Y-89471015D01*
X176427495Y-89591573D01*
X176628461Y-89703034D01*
X176810650Y-89803918D01*
X176971403Y-89892742D01*
X177108064Y-89968023D01*
X177217978Y-90028280D01*
X177298487Y-90072030D01*
X177346934Y-90097791D01*
X177360792Y-90104448D01*
X177362761Y-90083959D01*
X177364661Y-90023647D01*
X177366475Y-89926025D01*
X177368189Y-89793605D01*
X177369788Y-89628897D01*
X177370657Y-89513834D01*
X177440167Y-89513834D01*
X177440167Y-90064167D01*
X179498625Y-90062496D01*
X179817833Y-90062051D01*
X180116053Y-90061263D01*
X180391157Y-90060155D01*
X180641016Y-90058749D01*
X180863501Y-90057064D01*
X181056486Y-90055124D01*
X181217840Y-90052949D01*
X181345437Y-90050560D01*
X181437147Y-90047981D01*
X181490842Y-90045231D01*
X181504395Y-90042332D01*
X181504167Y-90042246D01*
X181480344Y-90035240D01*
X181637738Y-90035240D01*
X181640478Y-90044093D01*
X181659101Y-90051004D01*
X181697822Y-90056193D01*
X181760852Y-90059880D01*
X181852404Y-90062288D01*
X181976691Y-90063636D01*
X182137925Y-90064145D01*
X182189819Y-90064167D01*
X182753000Y-90064167D01*
X182753000Y-87996889D01*
X182752917Y-87705235D01*
X182752676Y-87426012D01*
X182752663Y-87417089D01*
X182816500Y-87417089D01*
X182816557Y-87750789D01*
X182816723Y-88072567D01*
X182816992Y-88379909D01*
X182817356Y-88670303D01*
X182817809Y-88941232D01*
X182818344Y-89190184D01*
X182818953Y-89414645D01*
X182819631Y-89612100D01*
X182820369Y-89780036D01*
X182821161Y-89915938D01*
X182822001Y-90017292D01*
X182822881Y-90081585D01*
X182823794Y-90106302D01*
X182823884Y-90106500D01*
X182842941Y-90096417D01*
X182896816Y-90066975D01*
X182983324Y-90019382D01*
X183100282Y-89954847D01*
X183245507Y-89874581D01*
X183416816Y-89779792D01*
X183612024Y-89671689D01*
X183828950Y-89551482D01*
X184065409Y-89420380D01*
X184319218Y-89279592D01*
X184588193Y-89130327D01*
X184870152Y-88973794D01*
X185162910Y-88811204D01*
X185231572Y-88773062D01*
X185526561Y-88609088D01*
X185811217Y-88450666D01*
X186083358Y-88299019D01*
X186340799Y-88155372D01*
X186581358Y-88020949D01*
X186802852Y-87896977D01*
X187003098Y-87784678D01*
X187179913Y-87685277D01*
X187331113Y-87600000D01*
X187454515Y-87530070D01*
X187547937Y-87476713D01*
X187609194Y-87441153D01*
X187636105Y-87424614D01*
X187637205Y-87423635D01*
X187619645Y-87411994D01*
X187567550Y-87381197D01*
X187483401Y-87332633D01*
X187369678Y-87267688D01*
X187228861Y-87187751D01*
X187063430Y-87094210D01*
X186875865Y-86988452D01*
X186668647Y-86871865D01*
X186444256Y-86745837D01*
X186205171Y-86611756D01*
X185953874Y-86471009D01*
X185692843Y-86324985D01*
X185424560Y-86175071D01*
X185151504Y-86022656D01*
X184876155Y-85869125D01*
X184600995Y-85715869D01*
X184328502Y-85564274D01*
X184061157Y-85415728D01*
X183801440Y-85271620D01*
X183551832Y-85133336D01*
X183314811Y-85002265D01*
X183092860Y-84879794D01*
X182982247Y-84818881D01*
X182816500Y-84727678D01*
X182816500Y-87417089D01*
X182752663Y-87417089D01*
X182752289Y-87162070D01*
X182751766Y-86916260D01*
X182751119Y-86691434D01*
X182750360Y-86490443D01*
X182749501Y-86316137D01*
X182748552Y-86171369D01*
X182747526Y-86058989D01*
X182746433Y-85981849D01*
X182745285Y-85942799D01*
X182744709Y-85938431D01*
X182738185Y-85959677D01*
X182721479Y-86019056D01*
X182695339Y-86113805D01*
X182660513Y-86241160D01*
X182617749Y-86398357D01*
X182567798Y-86582631D01*
X182511407Y-86791219D01*
X182449324Y-87021357D01*
X182382299Y-87270280D01*
X182311080Y-87535225D01*
X182236416Y-87813428D01*
X182192628Y-87976782D01*
X182116228Y-88261799D01*
X182042801Y-88535483D01*
X181973102Y-88795036D01*
X181907886Y-89037656D01*
X181847907Y-89260543D01*
X181793921Y-89460897D01*
X181746683Y-89635918D01*
X181706946Y-89782806D01*
X181675467Y-89898761D01*
X181652999Y-89980981D01*
X181640299Y-90026668D01*
X181637738Y-90035240D01*
X181480344Y-90035240D01*
X181474603Y-90033552D01*
X181408113Y-90015073D01*
X181308086Y-89987714D01*
X181177910Y-89952380D01*
X181020974Y-89909974D01*
X180840667Y-89861402D01*
X180640378Y-89807567D01*
X180486369Y-89766244D01*
X180768567Y-89766244D01*
X180786475Y-89774364D01*
X180837918Y-89791095D01*
X180915462Y-89814386D01*
X181011675Y-89842185D01*
X181119123Y-89872442D01*
X181230372Y-89903106D01*
X181337989Y-89932126D01*
X181434541Y-89957451D01*
X181512593Y-89977031D01*
X181564712Y-89988814D01*
X181583335Y-89991034D01*
X181589510Y-89970448D01*
X181605768Y-89912179D01*
X181631240Y-89819433D01*
X181665054Y-89695420D01*
X181706343Y-89543347D01*
X181754236Y-89366423D01*
X181807864Y-89167854D01*
X181866357Y-88950851D01*
X181928845Y-88718619D01*
X181990913Y-88487576D01*
X182056228Y-88243866D01*
X182118085Y-88012289D01*
X182175640Y-87796057D01*
X182228048Y-87598381D01*
X182274462Y-87422475D01*
X182314039Y-87271549D01*
X182345931Y-87148817D01*
X182369295Y-87057491D01*
X182383285Y-87000783D01*
X182387125Y-86981903D01*
X182376163Y-86998959D01*
X182345993Y-87049237D01*
X182298604Y-87129312D01*
X182235987Y-87235763D01*
X182160131Y-87365167D01*
X182073026Y-87514100D01*
X181976662Y-87679140D01*
X181873028Y-87856865D01*
X181764114Y-88043851D01*
X181651910Y-88236675D01*
X181538405Y-88431915D01*
X181425590Y-88626148D01*
X181315453Y-88815952D01*
X181209985Y-88997902D01*
X181111175Y-89168577D01*
X181021013Y-89324554D01*
X180941489Y-89462409D01*
X180874592Y-89578721D01*
X180822312Y-89670066D01*
X180786639Y-89733021D01*
X180769563Y-89764164D01*
X180768567Y-89766244D01*
X180486369Y-89766244D01*
X180423495Y-89749374D01*
X180193408Y-89687726D01*
X179953504Y-89623530D01*
X179707172Y-89557688D01*
X179457802Y-89491105D01*
X179208782Y-89424686D01*
X178963501Y-89359334D01*
X178725347Y-89295955D01*
X178497710Y-89235453D01*
X178283977Y-89178731D01*
X178087538Y-89126694D01*
X177911781Y-89080247D01*
X177760096Y-89040294D01*
X177635870Y-89007739D01*
X177542493Y-88983487D01*
X177483353Y-88968442D01*
X177461931Y-88963500D01*
X177454369Y-88984564D01*
X177448392Y-89047401D01*
X177444023Y-89151480D01*
X177441281Y-89296269D01*
X177440187Y-89481239D01*
X177440167Y-89513834D01*
X177370657Y-89513834D01*
X177371257Y-89434412D01*
X177372582Y-89212664D01*
X177373748Y-88966162D01*
X177373980Y-88903043D01*
X177527140Y-88903043D01*
X177527263Y-88908206D01*
X177548545Y-88914728D01*
X177606836Y-88931104D01*
X177698239Y-88956286D01*
X177818855Y-88989230D01*
X177964788Y-89028889D01*
X178132139Y-89074215D01*
X178317012Y-89124165D01*
X178515510Y-89177690D01*
X178723734Y-89233745D01*
X178937787Y-89291283D01*
X179153772Y-89349259D01*
X179367792Y-89406626D01*
X179575948Y-89462338D01*
X179774344Y-89515349D01*
X179959083Y-89564612D01*
X180126266Y-89609081D01*
X180271996Y-89647711D01*
X180392376Y-89679454D01*
X180483508Y-89703265D01*
X180541496Y-89718097D01*
X180562250Y-89722915D01*
X180563642Y-89715659D01*
X180541084Y-89700247D01*
X180516271Y-89686009D01*
X180457743Y-89652320D01*
X180368453Y-89600884D01*
X180251355Y-89533404D01*
X180109402Y-89451581D01*
X180010213Y-89394398D01*
X180131170Y-89394398D01*
X180410210Y-89557512D01*
X180508134Y-89613826D01*
X180593568Y-89661208D01*
X180659729Y-89696034D01*
X180699832Y-89714675D01*
X180708122Y-89716772D01*
X180722648Y-89698181D01*
X180755749Y-89646937D01*
X180804962Y-89567121D01*
X180867828Y-89462819D01*
X180941887Y-89338114D01*
X181024678Y-89197090D01*
X181113741Y-89043830D01*
X181117930Y-89036585D01*
X181219778Y-88860351D01*
X181326076Y-88676355D01*
X181432226Y-88492563D01*
X181533630Y-88316937D01*
X181625688Y-88157442D01*
X181703802Y-88022042D01*
X181740680Y-87958084D01*
X181972493Y-87555917D01*
X181051832Y-88475158D01*
X180131170Y-89394398D01*
X180010213Y-89394398D01*
X179945550Y-89357120D01*
X179762751Y-89251722D01*
X179563959Y-89137090D01*
X179352129Y-89014929D01*
X179130214Y-88886939D01*
X179125316Y-88884114D01*
X178846005Y-88723436D01*
X178595857Y-88580413D01*
X178375776Y-88455544D01*
X178186665Y-88349330D01*
X178029428Y-88262270D01*
X177904967Y-88194865D01*
X177814186Y-88147616D01*
X177757988Y-88121022D01*
X177737313Y-88115519D01*
X177726764Y-88143628D01*
X177708474Y-88203422D01*
X177684475Y-88287241D01*
X177656795Y-88387422D01*
X177627466Y-88496304D01*
X177598518Y-88606223D01*
X177571981Y-88709519D01*
X177549886Y-88798529D01*
X177534262Y-88865591D01*
X177527140Y-88903043D01*
X177373980Y-88903043D01*
X177374739Y-88697419D01*
X177375541Y-88408945D01*
X177376140Y-88103253D01*
X177376519Y-87782853D01*
X177376666Y-87450258D01*
X177376667Y-87417089D01*
X177376667Y-84772500D01*
X177440167Y-84772500D01*
X177441838Y-86841542D01*
X177442291Y-87169884D01*
X177443089Y-87474962D01*
X177444211Y-87754856D01*
X177445640Y-88007647D01*
X177447355Y-88231413D01*
X177449336Y-88424234D01*
X177451565Y-88584191D01*
X177454021Y-88709362D01*
X177456685Y-88797828D01*
X177459537Y-88847669D01*
X177462344Y-88857667D01*
X177470409Y-88830038D01*
X177488628Y-88764394D01*
X177516223Y-88663619D01*
X177552415Y-88530596D01*
X177596426Y-88368207D01*
X177647476Y-88179336D01*
X177686698Y-88033923D01*
X177804113Y-88033923D01*
X177822758Y-88047024D01*
X177874128Y-88078983D01*
X177954282Y-88127497D01*
X178059280Y-88190266D01*
X178185180Y-88264989D01*
X178328042Y-88349363D01*
X178483923Y-88441088D01*
X178648885Y-88537862D01*
X178818984Y-88637384D01*
X178990281Y-88737352D01*
X179158835Y-88835465D01*
X179320704Y-88929421D01*
X179471947Y-89016919D01*
X179608624Y-89095659D01*
X179726793Y-89163337D01*
X179822514Y-89217654D01*
X179891846Y-89256307D01*
X179930847Y-89276995D01*
X179937741Y-89279883D01*
X179925091Y-89265562D01*
X179885010Y-89223900D01*
X179820034Y-89157459D01*
X179732698Y-89068801D01*
X179625537Y-88960489D01*
X179589312Y-88923986D01*
X179737499Y-88923986D01*
X179742989Y-88946699D01*
X179777643Y-88994212D01*
X179838875Y-89063320D01*
X179906391Y-89133143D01*
X179977693Y-89204735D01*
X180036809Y-89264013D01*
X180078108Y-89305335D01*
X180095953Y-89323057D01*
X180096259Y-89323334D01*
X180110848Y-89308838D01*
X180152461Y-89267278D01*
X180218207Y-89201546D01*
X180305196Y-89114532D01*
X180410539Y-89009128D01*
X180531345Y-88888225D01*
X180664725Y-88754715D01*
X180807789Y-88611488D01*
X180816367Y-88602899D01*
X181535917Y-87882465D01*
X180646917Y-88393742D01*
X180469294Y-88496041D01*
X180302669Y-88592286D01*
X180150684Y-88680353D01*
X180016981Y-88758119D01*
X179905203Y-88823460D01*
X179818992Y-88874252D01*
X179761990Y-88908372D01*
X179737840Y-88923696D01*
X179737499Y-88923986D01*
X179589312Y-88923986D01*
X179501087Y-88835084D01*
X179361881Y-88695148D01*
X179210456Y-88543243D01*
X179049346Y-88381933D01*
X179038733Y-88371317D01*
X178876583Y-88209614D01*
X178723213Y-88057596D01*
X178581235Y-87917790D01*
X178453259Y-87792724D01*
X178341897Y-87684923D01*
X178249759Y-87596915D01*
X178179457Y-87531226D01*
X178133602Y-87490383D01*
X178114806Y-87476913D01*
X178114600Y-87477025D01*
X178092933Y-87507085D01*
X178057652Y-87563799D01*
X178013221Y-87639160D01*
X177964105Y-87725158D01*
X177914769Y-87813784D01*
X177869679Y-87897031D01*
X177833299Y-87966890D01*
X177810094Y-88015351D01*
X177804113Y-88033923D01*
X177686698Y-88033923D01*
X177704787Y-87966864D01*
X177733842Y-87858964D01*
X177802883Y-87858964D01*
X177809290Y-87859734D01*
X177821981Y-87839633D01*
X177854159Y-87785741D01*
X177904146Y-87700932D01*
X177970269Y-87588082D01*
X178050849Y-87450063D01*
X178069139Y-87418657D01*
X178192144Y-87418657D01*
X178900829Y-88127579D01*
X179043493Y-88270139D01*
X179176866Y-88403122D01*
X179298001Y-88523608D01*
X179403949Y-88628682D01*
X179491765Y-88715425D01*
X179558501Y-88780921D01*
X179601211Y-88822251D01*
X179616935Y-88836500D01*
X179611637Y-88820195D01*
X179589934Y-88778537D01*
X179571689Y-88746542D01*
X179550010Y-88709268D01*
X179509657Y-88639647D01*
X179453126Y-88541993D01*
X179431660Y-88504885D01*
X179501121Y-88504885D01*
X179508113Y-88525531D01*
X179532379Y-88571988D01*
X179568087Y-88634593D01*
X179609406Y-88703688D01*
X179650502Y-88769609D01*
X179685544Y-88822697D01*
X179708700Y-88853291D01*
X179713780Y-88857151D01*
X179735996Y-88847041D01*
X179790545Y-88818057D01*
X179873153Y-88772591D01*
X179979547Y-88713032D01*
X180105455Y-88641772D01*
X180246604Y-88561200D01*
X180384191Y-88482092D01*
X180534353Y-88395186D01*
X180671931Y-88315025D01*
X180792849Y-88244022D01*
X180893036Y-88184593D01*
X180968417Y-88139154D01*
X181014918Y-88110119D01*
X181028683Y-88099961D01*
X181008008Y-88104079D01*
X180951951Y-88117772D01*
X180866002Y-88139585D01*
X180755650Y-88168063D01*
X180626386Y-88201750D01*
X180483698Y-88239193D01*
X180333077Y-88278934D01*
X180180011Y-88319520D01*
X180029990Y-88359495D01*
X179888504Y-88397404D01*
X179761043Y-88431792D01*
X179653095Y-88461203D01*
X179570151Y-88484183D01*
X179517700Y-88499277D01*
X179501121Y-88504885D01*
X179431660Y-88504885D01*
X179382913Y-88420620D01*
X179301513Y-88279842D01*
X179211421Y-88123974D01*
X179115132Y-87957328D01*
X179060546Y-87862834D01*
X178963732Y-87695475D01*
X178873173Y-87539413D01*
X178791112Y-87398481D01*
X178719794Y-87276508D01*
X178661461Y-87177328D01*
X178618358Y-87104771D01*
X178592730Y-87062669D01*
X178586577Y-87053518D01*
X178566756Y-87061721D01*
X178523689Y-87095290D01*
X178463445Y-87149050D01*
X178392093Y-87217824D01*
X178381615Y-87228305D01*
X178192144Y-87418657D01*
X178069139Y-87418657D01*
X178144213Y-87289749D01*
X178167898Y-87249000D01*
X178245432Y-87249000D01*
X178255185Y-87243932D01*
X178292365Y-87211242D01*
X178354526Y-87153301D01*
X178439219Y-87072478D01*
X178485068Y-87028134D01*
X178650696Y-87028134D01*
X178659408Y-87046849D01*
X178687088Y-87098069D01*
X178731425Y-87177705D01*
X178790109Y-87281663D01*
X178860831Y-87405852D01*
X178941281Y-87546181D01*
X179029148Y-87698557D01*
X179030630Y-87701120D01*
X179118871Y-87853351D01*
X179200299Y-87993143D01*
X179272537Y-88116467D01*
X179333206Y-88219294D01*
X179379931Y-88297596D01*
X179410334Y-88347344D01*
X179422037Y-88364509D01*
X179422063Y-88364493D01*
X179417909Y-88343656D01*
X179403926Y-88286462D01*
X179381287Y-88197431D01*
X179366370Y-88139818D01*
X179429834Y-88139818D01*
X179435777Y-88184180D01*
X179450981Y-88246743D01*
X179471512Y-88315233D01*
X179493432Y-88377377D01*
X179512804Y-88420902D01*
X179524218Y-88434096D01*
X179549796Y-88428749D01*
X179610668Y-88413795D01*
X179701259Y-88390674D01*
X179815997Y-88360822D01*
X179949308Y-88325677D01*
X180093505Y-88287244D01*
X180239119Y-88247920D01*
X180371035Y-88211695D01*
X180483802Y-88180117D01*
X180571966Y-88154729D01*
X180630075Y-88137079D01*
X180652658Y-88128732D01*
X180635465Y-88125717D01*
X180581053Y-88122983D01*
X180494534Y-88120630D01*
X180381022Y-88118760D01*
X180245629Y-88117472D01*
X180093468Y-88116867D01*
X180047195Y-88116834D01*
X179848151Y-88117452D01*
X179689780Y-88119348D01*
X179570436Y-88122583D01*
X179488475Y-88127217D01*
X179442254Y-88133313D01*
X179429834Y-88139818D01*
X179366370Y-88139818D01*
X179351162Y-88081087D01*
X179314722Y-87941950D01*
X179273140Y-87784542D01*
X179227587Y-87613385D01*
X179223449Y-87597900D01*
X179177324Y-87425598D01*
X179134604Y-87266574D01*
X179096523Y-87125369D01*
X179064310Y-87006525D01*
X179039199Y-86914585D01*
X179022419Y-86854090D01*
X179016312Y-86833347D01*
X179077488Y-86833347D01*
X179081672Y-86853723D01*
X179095315Y-86908532D01*
X179116712Y-86991424D01*
X179144160Y-87096051D01*
X179175955Y-87216065D01*
X179210392Y-87345116D01*
X179245768Y-87476857D01*
X179280378Y-87604938D01*
X179312518Y-87723012D01*
X179340484Y-87824729D01*
X179362572Y-87903741D01*
X179377079Y-87953699D01*
X179382209Y-87968589D01*
X179383558Y-87948321D01*
X179384780Y-87890988D01*
X179385829Y-87801859D01*
X179386661Y-87686201D01*
X179387230Y-87549283D01*
X179387489Y-87396375D01*
X179387500Y-87356464D01*
X179387500Y-86762167D01*
X179451000Y-86762167D01*
X179451000Y-88074500D01*
X180742167Y-88074500D01*
X180742167Y-87656366D01*
X180806851Y-87656366D01*
X180807102Y-87796824D01*
X180808148Y-87903738D01*
X180810246Y-87981501D01*
X180813652Y-88034507D01*
X180818621Y-88067148D01*
X180825411Y-88083820D01*
X180834278Y-88088916D01*
X180842709Y-88087708D01*
X180882834Y-88076174D01*
X180947307Y-88057812D01*
X180999449Y-88043031D01*
X181119148Y-88009165D01*
X181058253Y-87782541D01*
X181030735Y-87680260D01*
X180995881Y-87550895D01*
X180957404Y-87408225D01*
X180919021Y-87266032D01*
X180902984Y-87206667D01*
X180808609Y-86857417D01*
X180807138Y-87477968D01*
X180806851Y-87656366D01*
X180742167Y-87656366D01*
X180742167Y-86762167D01*
X179451000Y-86762167D01*
X179387500Y-86762167D01*
X179387500Y-86744262D01*
X179234042Y-86787353D01*
X179160261Y-86808319D01*
X179104982Y-86824501D01*
X179078428Y-86832895D01*
X179077488Y-86833347D01*
X179016312Y-86833347D01*
X179015203Y-86829582D01*
X179015073Y-86829307D01*
X178996777Y-86836728D01*
X178951317Y-86859803D01*
X178888333Y-86893271D01*
X178817467Y-86931873D01*
X178748360Y-86970348D01*
X178690652Y-87003433D01*
X178653986Y-87025870D01*
X178650696Y-87028134D01*
X178485068Y-87028134D01*
X178543995Y-86971143D01*
X178568440Y-86947284D01*
X178678161Y-86947284D01*
X178678417Y-86947203D01*
X178700474Y-86934746D01*
X178755565Y-86903230D01*
X178840049Y-86854748D01*
X178950291Y-86791392D01*
X179019492Y-86751584D01*
X179133500Y-86751584D01*
X179144084Y-86762167D01*
X179154667Y-86751584D01*
X179144084Y-86741000D01*
X179133500Y-86751584D01*
X179019492Y-86751584D01*
X179044679Y-86737095D01*
X179177151Y-86737095D01*
X179179836Y-86740728D01*
X179183538Y-86741000D01*
X179207061Y-86735721D01*
X179266733Y-86720709D01*
X179301820Y-86711653D01*
X179537431Y-86711653D01*
X179555424Y-86713727D01*
X179610603Y-86715607D01*
X179697819Y-86717225D01*
X179811926Y-86718511D01*
X179947775Y-86719396D01*
X180100219Y-86719811D01*
X180145972Y-86719834D01*
X180346951Y-86719102D01*
X180509498Y-86716928D01*
X180632753Y-86713342D01*
X180715855Y-86708372D01*
X180757940Y-86702050D01*
X180763334Y-86698347D01*
X180758293Y-86669956D01*
X180745515Y-86615373D01*
X180728516Y-86548141D01*
X180710813Y-86481805D01*
X180708494Y-86473722D01*
X180769556Y-86473722D01*
X180773067Y-86495105D01*
X180786530Y-86551695D01*
X180808456Y-86638043D01*
X180837355Y-86748696D01*
X180871738Y-86878203D01*
X180910116Y-87021113D01*
X180951000Y-87171974D01*
X180992900Y-87325334D01*
X181034327Y-87475743D01*
X181073793Y-87617748D01*
X181109808Y-87745898D01*
X181140882Y-87854743D01*
X181165526Y-87938829D01*
X181182252Y-87992707D01*
X181189489Y-88010949D01*
X181212475Y-88000955D01*
X181263085Y-87974092D01*
X181332546Y-87935105D01*
X181374777Y-87910699D01*
X181448528Y-87866059D01*
X181505236Y-87828663D01*
X181537142Y-87803793D01*
X181541289Y-87797312D01*
X181528345Y-87773112D01*
X181497396Y-87718327D01*
X181451331Y-87637911D01*
X181393040Y-87536822D01*
X181325412Y-87420013D01*
X181251336Y-87292440D01*
X181173701Y-87159059D01*
X181095397Y-87024825D01*
X181019314Y-86894694D01*
X180948340Y-86773621D01*
X180885365Y-86666561D01*
X180833278Y-86578470D01*
X180794968Y-86514304D01*
X180773325Y-86479017D01*
X180769556Y-86473722D01*
X180708494Y-86473722D01*
X180695923Y-86429910D01*
X180687469Y-86406145D01*
X180666868Y-86409669D01*
X180611761Y-86422688D01*
X180528474Y-86443522D01*
X180423332Y-86470489D01*
X180302663Y-86501911D01*
X180172791Y-86536105D01*
X180040042Y-86571393D01*
X179910742Y-86606093D01*
X179791216Y-86638524D01*
X179687792Y-86667008D01*
X179606794Y-86689862D01*
X179554548Y-86705407D01*
X179537431Y-86711653D01*
X179301820Y-86711653D01*
X179357815Y-86697201D01*
X179475568Y-86666435D01*
X179615255Y-86629649D01*
X179772136Y-86588079D01*
X179923313Y-86547813D01*
X180092060Y-86502576D01*
X180248210Y-86460363D01*
X180386949Y-86422502D01*
X180503464Y-86390321D01*
X180592940Y-86365148D01*
X180650563Y-86348313D01*
X180671123Y-86341438D01*
X180674115Y-86316164D01*
X180650768Y-86258276D01*
X180603092Y-86171319D01*
X180558971Y-86097698D01*
X180523952Y-86041711D01*
X180594857Y-86041711D01*
X180595206Y-86042500D01*
X180611345Y-86071846D01*
X180646041Y-86133184D01*
X180696624Y-86221882D01*
X180760421Y-86333308D01*
X180834760Y-86462829D01*
X180916971Y-86605813D01*
X181004380Y-86757627D01*
X181094317Y-86913638D01*
X181184110Y-87069214D01*
X181271086Y-87219722D01*
X181352575Y-87360531D01*
X181425904Y-87487006D01*
X181488402Y-87594517D01*
X181537396Y-87678429D01*
X181570216Y-87734111D01*
X181582587Y-87754524D01*
X181614666Y-87804965D01*
X182001401Y-87418230D01*
X181284925Y-86703907D01*
X181142960Y-86562893D01*
X181011425Y-86433258D01*
X180893063Y-86317632D01*
X180790616Y-86218646D01*
X180706830Y-86138930D01*
X180644445Y-86081115D01*
X180606207Y-86047832D01*
X180594857Y-86041711D01*
X180523952Y-86041711D01*
X180521475Y-86037752D01*
X180496771Y-86001251D01*
X180492252Y-85995786D01*
X180469810Y-86001393D01*
X180414643Y-86026588D01*
X180330460Y-86069405D01*
X180220970Y-86127877D01*
X180089883Y-86200038D01*
X179940909Y-86283920D01*
X179840617Y-86341280D01*
X179661869Y-86444190D01*
X179516759Y-86528024D01*
X179402155Y-86594687D01*
X179314927Y-86646083D01*
X179251944Y-86684117D01*
X179210074Y-86710694D01*
X179186187Y-86727719D01*
X179177151Y-86737095D01*
X179044679Y-86737095D01*
X179082651Y-86715252D01*
X179233491Y-86628423D01*
X179399173Y-86532994D01*
X179576058Y-86431059D01*
X179588584Y-86423839D01*
X179765447Y-86321854D01*
X179930789Y-86226449D01*
X180081057Y-86139678D01*
X180212700Y-86063594D01*
X180322166Y-86000251D01*
X180405905Y-85951703D01*
X180460363Y-85920005D01*
X180481991Y-85907209D01*
X180482201Y-85907060D01*
X180469848Y-85891444D01*
X180432778Y-85851771D01*
X180376420Y-85793703D01*
X180306206Y-85722902D01*
X180291444Y-85708176D01*
X180142009Y-85559362D01*
X180247341Y-85559362D01*
X180257708Y-85572538D01*
X180295758Y-85612885D01*
X180358991Y-85677893D01*
X180444911Y-85765046D01*
X180551019Y-85871832D01*
X180674816Y-85995738D01*
X180813805Y-86134249D01*
X180965488Y-86284854D01*
X181127366Y-86445038D01*
X181144334Y-86461797D01*
X181308032Y-86623153D01*
X181462826Y-86775127D01*
X181606098Y-86915190D01*
X181735231Y-87040814D01*
X181847611Y-87149470D01*
X181940621Y-87238629D01*
X182011645Y-87305763D01*
X182058066Y-87348342D01*
X182077269Y-87363839D01*
X182077556Y-87363831D01*
X182092033Y-87343812D01*
X182123342Y-87293749D01*
X182167388Y-87220395D01*
X182220074Y-87130507D01*
X182241597Y-87093264D01*
X182295755Y-86997907D01*
X182341359Y-86915160D01*
X182374607Y-86852113D01*
X182391699Y-86815856D01*
X182393167Y-86810616D01*
X182375469Y-86797648D01*
X182324988Y-86765867D01*
X182245641Y-86717557D01*
X182141347Y-86655003D01*
X182016022Y-86580490D01*
X181873586Y-86496302D01*
X181717956Y-86404723D01*
X181553049Y-86308038D01*
X181382785Y-86208532D01*
X181211080Y-86108489D01*
X181041853Y-86010194D01*
X180879021Y-85915931D01*
X180726502Y-85827986D01*
X180588215Y-85748642D01*
X180468077Y-85680184D01*
X180370006Y-85624896D01*
X180297920Y-85585064D01*
X180255736Y-85562971D01*
X180247341Y-85559362D01*
X180142009Y-85559362D01*
X180096070Y-85513614D01*
X179376660Y-86235861D01*
X179234013Y-86379278D01*
X179101623Y-86512783D01*
X178982266Y-86633549D01*
X178878720Y-86738746D01*
X178793760Y-86825547D01*
X178730162Y-86891122D01*
X178690704Y-86932644D01*
X178678161Y-86947284D01*
X178568440Y-86947284D01*
X178666406Y-86851667D01*
X178804003Y-86716419D01*
X178954339Y-86567769D01*
X179114964Y-86408088D01*
X179141387Y-86381742D01*
X179312653Y-86210319D01*
X179471405Y-86050271D01*
X179615414Y-85903913D01*
X179742449Y-85773560D01*
X179850282Y-85661526D01*
X179936682Y-85570128D01*
X179999419Y-85501681D01*
X180036264Y-85458499D01*
X180045391Y-85443091D01*
X180015185Y-85420783D01*
X179958468Y-85385417D01*
X179882991Y-85341228D01*
X179796505Y-85292452D01*
X179706761Y-85243322D01*
X179621509Y-85198073D01*
X179548499Y-85160941D01*
X179498029Y-85137350D01*
X179671761Y-85137350D01*
X179687888Y-85149186D01*
X179737368Y-85179982D01*
X179816763Y-85227757D01*
X179922635Y-85290531D01*
X180051546Y-85366324D01*
X180200057Y-85453155D01*
X180364730Y-85549043D01*
X180542127Y-85652009D01*
X180728810Y-85760073D01*
X180921340Y-85871252D01*
X181116279Y-85983569D01*
X181310188Y-86095041D01*
X181499631Y-86203688D01*
X181681168Y-86307531D01*
X181851361Y-86404588D01*
X182006771Y-86492880D01*
X182143962Y-86570426D01*
X182259493Y-86635245D01*
X182349928Y-86685358D01*
X182411828Y-86718784D01*
X182441754Y-86733542D01*
X182443911Y-86734067D01*
X182455164Y-86712770D01*
X182475011Y-86656997D01*
X182501402Y-86573245D01*
X182532291Y-86468012D01*
X182565472Y-86348377D01*
X182597469Y-86226962D01*
X182624444Y-86119020D01*
X182644801Y-86031409D01*
X182656947Y-85970989D01*
X182659341Y-85944758D01*
X182633895Y-85922390D01*
X182601281Y-85910828D01*
X182573014Y-85903736D01*
X182507282Y-85886562D01*
X182407502Y-85860215D01*
X182277088Y-85825606D01*
X182119458Y-85783645D01*
X181938026Y-85735242D01*
X181736210Y-85681306D01*
X181517426Y-85622749D01*
X181285089Y-85560480D01*
X181115747Y-85515045D01*
X180877302Y-85451177D01*
X180651015Y-85390832D01*
X180440172Y-85334870D01*
X180248062Y-85284151D01*
X180077971Y-85239536D01*
X179933187Y-85201882D01*
X179816996Y-85172052D01*
X179732687Y-85150903D01*
X179683545Y-85139297D01*
X179671761Y-85137350D01*
X179498029Y-85137350D01*
X179495483Y-85136160D01*
X179470211Y-85127964D01*
X179469351Y-85128355D01*
X179456580Y-85148887D01*
X179425033Y-85202138D01*
X179377013Y-85284119D01*
X179314823Y-85390837D01*
X179240767Y-85518302D01*
X179157149Y-85662521D01*
X179066271Y-85819504D01*
X178970439Y-85985260D01*
X178871954Y-86155797D01*
X178773121Y-86327124D01*
X178676244Y-86495249D01*
X178583625Y-86656181D01*
X178497568Y-86805930D01*
X178420378Y-86940503D01*
X178354357Y-87055909D01*
X178301809Y-87148158D01*
X178265038Y-87213257D01*
X178246346Y-87247216D01*
X178245432Y-87249000D01*
X178167898Y-87249000D01*
X178248685Y-87110016D01*
X178362587Y-86913737D01*
X178484246Y-86703787D01*
X178611986Y-86483038D01*
X178617607Y-86473317D01*
X178745427Y-86252108D01*
X178866977Y-86041438D01*
X178980604Y-85844193D01*
X179084655Y-85663258D01*
X179177477Y-85501517D01*
X179257415Y-85361855D01*
X179322816Y-85247158D01*
X179372027Y-85160309D01*
X179393580Y-85121750D01*
X179620334Y-85121750D01*
X179630917Y-85132334D01*
X179641500Y-85121750D01*
X179630917Y-85111167D01*
X179620334Y-85121750D01*
X179393580Y-85121750D01*
X179403394Y-85104195D01*
X179415265Y-85081699D01*
X179415313Y-85081528D01*
X179397016Y-85072063D01*
X179345344Y-85053649D01*
X179267761Y-85028474D01*
X179171732Y-84998726D01*
X179064724Y-84966595D01*
X178954202Y-84934269D01*
X178847631Y-84903938D01*
X178752477Y-84877790D01*
X178676205Y-84858015D01*
X178626281Y-84846801D01*
X178610290Y-84845490D01*
X178604201Y-84865952D01*
X178588065Y-84924075D01*
X178562759Y-85016621D01*
X178529157Y-85140351D01*
X178488134Y-85292025D01*
X178440565Y-85468405D01*
X178387325Y-85666252D01*
X178329288Y-85882326D01*
X178267329Y-86113390D01*
X178212340Y-86318766D01*
X178147455Y-86561224D01*
X178085576Y-86792367D01*
X178027603Y-87008841D01*
X177974435Y-87207292D01*
X177926972Y-87384366D01*
X177886112Y-87536710D01*
X177852754Y-87660969D01*
X177827799Y-87753789D01*
X177812144Y-87811817D01*
X177806879Y-87831084D01*
X177802883Y-87858964D01*
X177733842Y-87858964D01*
X177767580Y-87733675D01*
X177835076Y-87482652D01*
X177906495Y-87216678D01*
X177981061Y-86938635D01*
X178011330Y-86825667D01*
X178086784Y-86544056D01*
X178159270Y-86273655D01*
X178228021Y-86017315D01*
X178292271Y-85777889D01*
X178351252Y-85558229D01*
X178404198Y-85361187D01*
X178450343Y-85189616D01*
X178488920Y-85046368D01*
X178519163Y-84934295D01*
X178540304Y-84856249D01*
X178551579Y-84815083D01*
X178553166Y-84809542D01*
X178554321Y-84798415D01*
X178546856Y-84789763D01*
X178526174Y-84783277D01*
X178524570Y-84783084D01*
X178624085Y-84783084D01*
X180683251Y-85334268D01*
X182742417Y-85885453D01*
X182748066Y-85336390D01*
X182749308Y-85188441D01*
X182749890Y-85055012D01*
X182749831Y-84941768D01*
X182749151Y-84854373D01*
X182747869Y-84798493D01*
X182746197Y-84779808D01*
X182724428Y-84778798D01*
X182663215Y-84777936D01*
X182565446Y-84777226D01*
X182434008Y-84776670D01*
X182271791Y-84776272D01*
X182081684Y-84776034D01*
X181866573Y-84775960D01*
X181629348Y-84776052D01*
X181372898Y-84776313D01*
X181100110Y-84776746D01*
X180813873Y-84777355D01*
X180681382Y-84777687D01*
X178624085Y-84783084D01*
X178524570Y-84783084D01*
X178487680Y-84778647D01*
X178426779Y-84775565D01*
X178338873Y-84773722D01*
X178219369Y-84772808D01*
X178063670Y-84772514D01*
X178002510Y-84772500D01*
X177440167Y-84772500D01*
X177376667Y-84772500D01*
X177376667Y-84727678D01*
X177210920Y-84818881D01*
X176997848Y-84936293D01*
X176768406Y-85063034D01*
X176525073Y-85197716D01*
X176270329Y-85338953D01*
X176006654Y-85485355D01*
X175736528Y-85635536D01*
X175462432Y-85788108D01*
X175186844Y-85941684D01*
X174912244Y-86094875D01*
X174641113Y-86246293D01*
X174375931Y-86394552D01*
X174119177Y-86538264D01*
X173873331Y-86676040D01*
X173640873Y-86806494D01*
X173424283Y-86928237D01*
X173226041Y-87039882D01*
X173048627Y-87140041D01*
X172894521Y-87227327D01*
X172766202Y-87300351D01*
X172666150Y-87357727D01*
X172596846Y-87398066D01*
X172560769Y-87419982D01*
X172555966Y-87423648D01*
X172351500Y-87423648D01*
X172344332Y-87419380D01*
X172333099Y-87411591D01*
X172352948Y-87400484D01*
X172408067Y-87369789D01*
X172496717Y-87320473D01*
X172617158Y-87253502D01*
X172767653Y-87169842D01*
X172946462Y-87070459D01*
X173151846Y-86956319D01*
X173382067Y-86828389D01*
X173635384Y-86687635D01*
X173910061Y-86535023D01*
X174204356Y-86371519D01*
X174516533Y-86198091D01*
X174844851Y-86015703D01*
X175187571Y-85825322D01*
X175542956Y-85627914D01*
X175909265Y-85424446D01*
X176149000Y-85291288D01*
X176522314Y-85083938D01*
X176886330Y-84881751D01*
X177197350Y-84709000D01*
X177408849Y-84709000D01*
X180096800Y-84708932D01*
X182784750Y-84708864D01*
X181451250Y-83967572D01*
X181231994Y-83846033D01*
X181023108Y-83730912D01*
X180827594Y-83623823D01*
X180648454Y-83526376D01*
X180488691Y-83440187D01*
X180351308Y-83366868D01*
X180239307Y-83308033D01*
X180155690Y-83265293D01*
X180103460Y-83240262D01*
X180086000Y-83234111D01*
X180062660Y-83245443D01*
X180005347Y-83275698D01*
X179917085Y-83323221D01*
X179800897Y-83386357D01*
X179659806Y-83463453D01*
X179496834Y-83552852D01*
X179315006Y-83652902D01*
X179117344Y-83761945D01*
X178906871Y-83878329D01*
X178731550Y-83975471D01*
X177408849Y-84709000D01*
X177197350Y-84709000D01*
X177239274Y-84685714D01*
X177579370Y-84496811D01*
X177904844Y-84316029D01*
X178213921Y-84144353D01*
X178504825Y-83982771D01*
X178775783Y-83832266D01*
X179025018Y-83693827D01*
X179250757Y-83568437D01*
X179451224Y-83457083D01*
X179624644Y-83360752D01*
X179769243Y-83280428D01*
X179883245Y-83217098D01*
X179964876Y-83171747D01*
X180012361Y-83145363D01*
X180023819Y-83138992D01*
X180099222Y-83097004D01*
X183897319Y-85206504D01*
D12*
X185440000Y-110720000D02*
G75*
G03X185440000Y-110720000I-6100000J0D01*
G01*
X157190000Y-124270000D02*
X157190000Y-124426000D01*
X157190000Y-121954000D02*
X157190000Y-122110000D01*
X159791130Y-124269837D02*
G75*
G02X157709039Y-124270000I-1041130J1079837D01*
G01*
X159791130Y-122110163D02*
G75*
G03X157709039Y-122110000I-1041130J-1079837D01*
G01*
X160422335Y-124268608D02*
G75*
G02X157190000Y-124425516I-1672335J1078608D01*
G01*
X160422335Y-122111392D02*
G75*
G03X157190000Y-121954484I-1672335J-1078608D01*
G01*
X199100000Y-124270000D02*
X199100000Y-124426000D01*
X199100000Y-121954000D02*
X199100000Y-122110000D01*
X201701130Y-124269837D02*
G75*
G02X199619039Y-124270000I-1041130J1079837D01*
G01*
X201701130Y-122110163D02*
G75*
G03X199619039Y-122110000I-1041130J-1079837D01*
G01*
X202332335Y-124268608D02*
G75*
G02X199100000Y-124425516I-1672335J1078608D01*
G01*
X202332335Y-122111392D02*
G75*
G03X199100000Y-121954484I-1672335J-1078608D01*
G01*
D11*
X182872380Y-45493333D02*
X183586666Y-45493333D01*
X183729523Y-45540952D01*
X183824761Y-45636190D01*
X183872380Y-45779047D01*
X183872380Y-45874285D01*
X182872380Y-45112380D02*
X182872380Y-44493333D01*
X183253333Y-44826666D01*
X183253333Y-44683809D01*
X183300952Y-44588571D01*
X183348571Y-44540952D01*
X183443809Y-44493333D01*
X183681904Y-44493333D01*
X183777142Y-44540952D01*
X183824761Y-44588571D01*
X183872380Y-44683809D01*
X183872380Y-44969523D01*
X183824761Y-45064761D01*
X183777142Y-45112380D01*
X156043333Y-111562380D02*
X155710000Y-111086190D01*
X155471904Y-111562380D02*
X155471904Y-110562380D01*
X155852857Y-110562380D01*
X155948095Y-110610000D01*
X155995714Y-110657619D01*
X156043333Y-110752857D01*
X156043333Y-110895714D01*
X155995714Y-110990952D01*
X155948095Y-111038571D01*
X155852857Y-111086190D01*
X155471904Y-111086190D01*
X156376666Y-110562380D02*
X156995714Y-110562380D01*
X156662380Y-110943333D01*
X156805238Y-110943333D01*
X156900476Y-110990952D01*
X156948095Y-111038571D01*
X156995714Y-111133809D01*
X156995714Y-111371904D01*
X156948095Y-111467142D01*
X156900476Y-111514761D01*
X156805238Y-111562380D01*
X156519523Y-111562380D01*
X156424285Y-111514761D01*
X156376666Y-111467142D01*
X204922380Y-115116666D02*
X204446190Y-115450000D01*
X204922380Y-115688095D02*
X203922380Y-115688095D01*
X203922380Y-115307142D01*
X203970000Y-115211904D01*
X204017619Y-115164285D01*
X204112857Y-115116666D01*
X204255714Y-115116666D01*
X204350952Y-115164285D01*
X204398571Y-115211904D01*
X204446190Y-115307142D01*
X204446190Y-115688095D01*
X204017619Y-114735714D02*
X203970000Y-114688095D01*
X203922380Y-114592857D01*
X203922380Y-114354761D01*
X203970000Y-114259523D01*
X204017619Y-114211904D01*
X204112857Y-114164285D01*
X204208095Y-114164285D01*
X204350952Y-114211904D01*
X204922380Y-114783333D01*
X204922380Y-114164285D01*
X157296666Y-80932380D02*
X157296666Y-81646666D01*
X157249047Y-81789523D01*
X157153809Y-81884761D01*
X157010952Y-81932380D01*
X156915714Y-81932380D01*
X158296666Y-81932380D02*
X157725238Y-81932380D01*
X158010952Y-81932380D02*
X158010952Y-80932380D01*
X157915714Y-81075238D01*
X157820476Y-81170476D01*
X157725238Y-81218095D01*
X201296666Y-80932380D02*
X201296666Y-81646666D01*
X201249047Y-81789523D01*
X201153809Y-81884761D01*
X201010952Y-81932380D01*
X200915714Y-81932380D01*
X201725238Y-81027619D02*
X201772857Y-80980000D01*
X201868095Y-80932380D01*
X202106190Y-80932380D01*
X202201428Y-80980000D01*
X202249047Y-81027619D01*
X202296666Y-81122857D01*
X202296666Y-81218095D01*
X202249047Y-81360952D01*
X201677619Y-81932380D01*
X202296666Y-81932380D01*
X204160952Y-122268571D02*
X204303809Y-122316190D01*
X204351428Y-122363809D01*
X204399047Y-122459047D01*
X204399047Y-122601904D01*
X204351428Y-122697142D01*
X204303809Y-122744761D01*
X204208571Y-122792380D01*
X203827619Y-122792380D01*
X203827619Y-121792380D01*
X204160952Y-121792380D01*
X204256190Y-121840000D01*
X204303809Y-121887619D01*
X204351428Y-121982857D01*
X204351428Y-122078095D01*
X204303809Y-122173333D01*
X204256190Y-122220952D01*
X204160952Y-122268571D01*
X203827619Y-122268571D01*
X204780000Y-122506666D02*
X205256190Y-122506666D01*
X204684761Y-122792380D02*
X205018095Y-121792380D01*
X205351428Y-122792380D01*
X205541904Y-121792380D02*
X206113333Y-121792380D01*
X205827619Y-122792380D02*
X205827619Y-121792380D01*
X206303809Y-121792380D02*
X206875238Y-121792380D01*
X206589523Y-122792380D02*
X206589523Y-121792380D01*
X152153809Y-122506666D02*
X152630000Y-122506666D01*
X152058571Y-122792380D02*
X152391904Y-121792380D01*
X152725238Y-122792380D01*
X153534761Y-122792380D02*
X153058571Y-122792380D01*
X153058571Y-121792380D01*
X153868095Y-122268571D02*
X154201428Y-122268571D01*
X154344285Y-122792380D02*
X153868095Y-122792380D01*
X153868095Y-121792380D01*
X154344285Y-121792380D01*
X155344285Y-122792380D02*
X155010952Y-122316190D01*
X154772857Y-122792380D02*
X154772857Y-121792380D01*
X155153809Y-121792380D01*
X155249047Y-121840000D01*
X155296666Y-121887619D01*
X155344285Y-121982857D01*
X155344285Y-122125714D01*
X155296666Y-122220952D01*
X155249047Y-122268571D01*
X155153809Y-122316190D01*
X154772857Y-122316190D01*
X155630000Y-121792380D02*
X156201428Y-121792380D01*
X155915714Y-122792380D02*
X155915714Y-121792380D01*
X186992380Y-111362857D02*
X186992380Y-111839047D01*
X185992380Y-111839047D01*
X186944761Y-111077142D02*
X186992380Y-110934285D01*
X186992380Y-110696190D01*
X186944761Y-110600952D01*
X186897142Y-110553333D01*
X186801904Y-110505714D01*
X186706666Y-110505714D01*
X186611428Y-110553333D01*
X186563809Y-110600952D01*
X186516190Y-110696190D01*
X186468571Y-110886666D01*
X186420952Y-110981904D01*
X186373333Y-111029523D01*
X186278095Y-111077142D01*
X186182857Y-111077142D01*
X186087619Y-111029523D01*
X186040000Y-110981904D01*
X185992380Y-110886666D01*
X185992380Y-110648571D01*
X186040000Y-110505714D01*
X186992380Y-109553333D02*
X186992380Y-110124761D01*
X186992380Y-109839047D02*
X185992380Y-109839047D01*
X186135238Y-109934285D01*
X186230476Y-110029523D01*
X186278095Y-110124761D01*
X181951428Y-107290952D02*
X181951428Y-106529047D01*
X182332380Y-106910000D02*
X181570476Y-106910000D01*
X158011904Y-120682380D02*
X158011904Y-119682380D01*
X158250000Y-119682380D01*
X158392857Y-119730000D01*
X158488095Y-119825238D01*
X158535714Y-119920476D01*
X158583333Y-120110952D01*
X158583333Y-120253809D01*
X158535714Y-120444285D01*
X158488095Y-120539523D01*
X158392857Y-120634761D01*
X158250000Y-120682380D01*
X158011904Y-120682380D01*
X158964285Y-119777619D02*
X159011904Y-119730000D01*
X159107142Y-119682380D01*
X159345238Y-119682380D01*
X159440476Y-119730000D01*
X159488095Y-119777619D01*
X159535714Y-119872857D01*
X159535714Y-119968095D01*
X159488095Y-120110952D01*
X158916666Y-120682380D01*
X159535714Y-120682380D01*
X199921904Y-120682380D02*
X199921904Y-119682380D01*
X200160000Y-119682380D01*
X200302857Y-119730000D01*
X200398095Y-119825238D01*
X200445714Y-119920476D01*
X200493333Y-120110952D01*
X200493333Y-120253809D01*
X200445714Y-120444285D01*
X200398095Y-120539523D01*
X200302857Y-120634761D01*
X200160000Y-120682380D01*
X199921904Y-120682380D01*
X201445714Y-120682380D02*
X200874285Y-120682380D01*
X201160000Y-120682380D02*
X201160000Y-119682380D01*
X201064761Y-119825238D01*
X200969523Y-119920476D01*
X200874285Y-119968095D01*
M02*
