M48
; DRILL file {KiCad 5.1.5+dfsg1-2build2} date Sat 01 May 2021 11:51:01 AM
; FORMAT={-:-/ absolute / inch / decimal}
; #@! TF.CreationDate,2021-05-01T11:51:01-03:00
; #@! TF.GenerationSoftware,Kicad,Pcbnew,5.1.5+dfsg1-2build2
; #@! TF.FileFunction,Plated,1,2,PTH
FMAT,2
INCH
T1C0.0315
T2C0.0394
T3C0.0433
%
G90
G05
T1
X2.9Y-2.4
X2.9984Y-2.4
X5.4516Y-2.6
X5.55Y-2.6
X2.9016Y-2.65
X3.0Y-2.65
X5.4516Y-2.45
X5.55Y-2.45
T2
X5.0003Y-2.1
X5.0003Y-2.2
X5.0003Y-2.3
X5.0003Y-2.4
X5.0003Y-2.5
X5.0003Y-2.6
X5.0003Y-2.7
X5.0003Y-2.8
X5.0003Y-2.9
X5.0003Y-3.0
X5.1003Y-2.1
X5.1003Y-2.2
X5.1003Y-2.3
X5.1003Y-2.4
X5.1003Y-2.5
X5.1003Y-2.6
X5.1003Y-2.7
X5.1003Y-2.8
X5.1003Y-2.9
X5.1003Y-3.0
X3.3Y-2.1
X3.3Y-2.2
X3.3Y-2.3
X3.3Y-2.4
X3.3Y-2.5
X3.3Y-2.6
X3.3Y-2.7
X3.3Y-2.8
X3.3Y-2.9
X3.3Y-3.0
X3.4Y-2.1
X3.4Y-2.2
X3.4Y-2.3
X3.4Y-2.4
X3.4Y-2.5
X3.4Y-2.6
X3.4Y-2.7
X3.4Y-2.8
X3.4Y-2.9
X3.4Y-3.0
T3
X5.3941Y-2.0728
X5.3941Y-2.25
X5.65Y-2.0728
X5.65Y-2.25
X2.7941Y-2.8228
X2.7941Y-3.0
X3.05Y-2.8228
X3.05Y-3.0
X2.8Y-2.05
X2.8Y-2.2272
X3.0559Y-2.05
X3.0559Y-2.2272
X5.4Y-2.8
X5.4Y-2.9772
X5.6559Y-2.8
X5.6559Y-2.9772
T0
M30
