G04 #@! TF.GenerationSoftware,KiCad,Pcbnew,5.1.5+dfsg1-2build2*
G04 #@! TF.CreationDate,2020-12-17T23:25:17-04:00*
G04 #@! TF.ProjectId,prototyping_buttons_daughterboard,70726f74-6f74-4797-9069-6e675f627574,rev?*
G04 #@! TF.SameCoordinates,Original*
G04 #@! TF.FileFunction,Copper,L2,Bot*
G04 #@! TF.FilePolarity,Positive*
%FSLAX46Y46*%
G04 Gerber Fmt 4.6, Leading zero omitted, Abs format (unit mm)*
G04 Created by KiCad (PCBNEW 5.1.5+dfsg1-2build2) date 2020-12-17 23:25:17*
%MOMM*%
%LPD*%
G04 APERTURE LIST*
%ADD10O,1.350000X1.350000*%
%ADD11R,1.350000X1.350000*%
%ADD12C,2.000000*%
%ADD13C,1.600000*%
G04 APERTURE END LIST*
D10*
X84360000Y-71340000D03*
X86360000Y-71340000D03*
X84360000Y-69340000D03*
X86360000Y-69340000D03*
X84360000Y-67340000D03*
X86360000Y-67340000D03*
X84360000Y-65340000D03*
X86360000Y-65340000D03*
X84360000Y-63340000D03*
X86360000Y-63340000D03*
X84360000Y-61340000D03*
X86360000Y-61340000D03*
X84360000Y-59340000D03*
X86360000Y-59340000D03*
X84360000Y-57340000D03*
X86360000Y-57340000D03*
X84360000Y-55340000D03*
X86360000Y-55340000D03*
X84360000Y-53340000D03*
D11*
X86360000Y-53340000D03*
D12*
X143660000Y-71120000D03*
X143660000Y-75620000D03*
X137160000Y-71120000D03*
X137160000Y-75620000D03*
X137010000Y-57150000D03*
X137010000Y-52650000D03*
X143510000Y-57150000D03*
X143510000Y-52650000D03*
X70970000Y-76200000D03*
X70970000Y-71700000D03*
X77470000Y-76200000D03*
X77470000Y-71700000D03*
X77620000Y-52070000D03*
X77620000Y-56570000D03*
X71120000Y-52070000D03*
X71120000Y-56570000D03*
D10*
X128360000Y-71340000D03*
X130360000Y-71340000D03*
X128360000Y-69340000D03*
X130360000Y-69340000D03*
X128360000Y-67340000D03*
X130360000Y-67340000D03*
X128360000Y-65340000D03*
X130360000Y-65340000D03*
X128360000Y-63340000D03*
X130360000Y-63340000D03*
X128360000Y-61340000D03*
X130360000Y-61340000D03*
X128360000Y-59340000D03*
X130360000Y-59340000D03*
X128360000Y-57340000D03*
X130360000Y-57340000D03*
X128360000Y-55340000D03*
X130360000Y-55340000D03*
X128360000Y-53340000D03*
D11*
X130360000Y-53340000D03*
D13*
X140970000Y-66040000D03*
X138470000Y-66040000D03*
X138470000Y-62230000D03*
X140970000Y-62230000D03*
X73700000Y-67310000D03*
X76200000Y-67310000D03*
X76160000Y-60960000D03*
X73660000Y-60960000D03*
M02*
