G04 #@! TF.GenerationSoftware,KiCad,Pcbnew,5.1.5+dfsg1-2build2*
G04 #@! TF.CreationDate,2021-05-05T08:41:13-03:00*
G04 #@! TF.ProjectId,prototyping_buttons_daughterboard,70726f74-6f74-4797-9069-6e675f627574,rev?*
G04 #@! TF.SameCoordinates,Original*
G04 #@! TF.FileFunction,Legend,Top*
G04 #@! TF.FilePolarity,Positive*
%FSLAX46Y46*%
G04 Gerber Fmt 4.6, Leading zero omitted, Abs format (unit mm)*
G04 Created by KiCad (PCBNEW 5.1.5+dfsg1-2build2) date 2021-05-05 08:41:13*
%MOMM*%
%LPD*%
G04 APERTURE LIST*
%ADD10C,0.120000*%
G04 APERTURE END LIST*
D10*
X129547200Y-52010000D02*
X130877200Y-52010000D01*
X130877200Y-52010000D02*
X130877200Y-53340000D01*
X128277200Y-52010000D02*
X128277200Y-54610000D01*
X128277200Y-54610000D02*
X130877200Y-54610000D01*
X130877200Y-54610000D02*
X130877200Y-77530000D01*
X125677200Y-77530000D02*
X130877200Y-77530000D01*
X125677200Y-52010000D02*
X125677200Y-77530000D01*
X125677200Y-52010000D02*
X128277200Y-52010000D01*
X86360000Y-52010000D02*
X87690000Y-52010000D01*
X87690000Y-52010000D02*
X87690000Y-53340000D01*
X85090000Y-52010000D02*
X85090000Y-54610000D01*
X85090000Y-54610000D02*
X87690000Y-54610000D01*
X87690000Y-54610000D02*
X87690000Y-77530000D01*
X82490000Y-77530000D02*
X87690000Y-77530000D01*
X82490000Y-52010000D02*
X82490000Y-77530000D01*
X82490000Y-52010000D02*
X85090000Y-52010000D01*
X143910000Y-74120000D02*
X143910000Y-72620000D01*
X142660000Y-70120000D02*
X138160000Y-70120000D01*
X136910000Y-72620000D02*
X136910000Y-74120000D01*
X138160000Y-76620000D02*
X142660000Y-76620000D01*
X136760000Y-54150000D02*
X136760000Y-55650000D01*
X138010000Y-58150000D02*
X142510000Y-58150000D01*
X143760000Y-55650000D02*
X143760000Y-54150000D01*
X142510000Y-51650000D02*
X138010000Y-51650000D01*
X70720000Y-73200000D02*
X70720000Y-74700000D01*
X71970000Y-77200000D02*
X76470000Y-77200000D01*
X77720000Y-74700000D02*
X77720000Y-73200000D01*
X76470000Y-70700000D02*
X71970000Y-70700000D01*
X77870000Y-55070000D02*
X77870000Y-53570000D01*
X76620000Y-51070000D02*
X72120000Y-51070000D01*
X70870000Y-53570000D02*
X70870000Y-55070000D01*
X72120000Y-57570000D02*
X76620000Y-57570000D01*
X141340000Y-67095000D02*
X141340000Y-67160000D01*
X141340000Y-64920000D02*
X141340000Y-64985000D01*
X138100000Y-67095000D02*
X138100000Y-67160000D01*
X138100000Y-64920000D02*
X138100000Y-64985000D01*
X138100000Y-67160000D02*
X141340000Y-67160000D01*
X138100000Y-64920000D02*
X141340000Y-64920000D01*
X138100000Y-61175000D02*
X138100000Y-61110000D01*
X138100000Y-63350000D02*
X138100000Y-63285000D01*
X141340000Y-61175000D02*
X141340000Y-61110000D01*
X141340000Y-63350000D02*
X141340000Y-63285000D01*
X141340000Y-61110000D02*
X138100000Y-61110000D01*
X141340000Y-63350000D02*
X138100000Y-63350000D01*
X73330000Y-66255000D02*
X73330000Y-66190000D01*
X73330000Y-68430000D02*
X73330000Y-68365000D01*
X76570000Y-66255000D02*
X76570000Y-66190000D01*
X76570000Y-68430000D02*
X76570000Y-68365000D01*
X76570000Y-66190000D02*
X73330000Y-66190000D01*
X76570000Y-68430000D02*
X73330000Y-68430000D01*
X76530000Y-62015000D02*
X76530000Y-62080000D01*
X76530000Y-59840000D02*
X76530000Y-59905000D01*
X73290000Y-62015000D02*
X73290000Y-62080000D01*
X73290000Y-59840000D02*
X73290000Y-59905000D01*
X73290000Y-62080000D02*
X76530000Y-62080000D01*
X73290000Y-59840000D02*
X76530000Y-59840000D01*
M02*
