M48
; DRILL file {KiCad 5.1.5+dfsg1-2build2} date Thu 17 Dec 2020 11:25:21 PM
; FORMAT={-:-/ absolute / inch / decimal}
; #@! TF.CreationDate,2020-12-17T23:25:21-04:00
; #@! TF.GenerationSoftware,Kicad,Pcbnew,5.1.5+dfsg1-2build2
; #@! TF.FileFunction,Plated,1,2,PTH
FMAT,2
INCH
T1C0.0315
T2C0.0433
%
G90
G05
T1
X2.9016Y-2.65
X3.0Y-2.65
X3.3213Y-2.1
X3.3213Y-2.1787
X3.3213Y-2.2575
X3.3213Y-2.3362
X3.3213Y-2.415
X3.3213Y-2.4937
X3.3213Y-2.5724
X3.3213Y-2.6512
X3.3213Y-2.7299
X3.3213Y-2.8087
X3.4Y-2.1
X3.4Y-2.1787
X3.4Y-2.2575
X3.4Y-2.3362
X3.4Y-2.415
X3.4Y-2.4937
X3.4Y-2.5724
X3.4Y-2.6512
X3.4Y-2.7299
X3.4Y-2.8087
X2.9Y-2.4
X2.9984Y-2.4
X5.4516Y-2.45
X5.55Y-2.45
X5.4516Y-2.6
X5.55Y-2.6
X5.0535Y-2.1
X5.0535Y-2.1787
X5.0535Y-2.2575
X5.0535Y-2.3362
X5.0535Y-2.415
X5.0535Y-2.4937
X5.0535Y-2.5724
X5.0535Y-2.6512
X5.0535Y-2.7299
X5.0535Y-2.8087
X5.1323Y-2.1
X5.1323Y-2.1787
X5.1323Y-2.2575
X5.1323Y-2.3362
X5.1323Y-2.415
X5.1323Y-2.4937
X5.1323Y-2.5724
X5.1323Y-2.6512
X5.1323Y-2.7299
X5.1323Y-2.8087
T2
X2.8Y-2.05
X2.8Y-2.2272
X3.0559Y-2.05
X3.0559Y-2.2272
X2.7941Y-2.8228
X2.7941Y-3.0
X3.05Y-2.8228
X3.05Y-3.0
X5.3941Y-2.0728
X5.3941Y-2.25
X5.65Y-2.0728
X5.65Y-2.25
X5.4Y-2.8
X5.4Y-2.9772
X5.6559Y-2.8
X5.6559Y-2.9772
T0
M30
