G04 #@! TF.GenerationSoftware,KiCad,Pcbnew,5.1.5+dfsg1-2build2*
G04 #@! TF.CreationDate,2021-05-05T08:41:13-03:00*
G04 #@! TF.ProjectId,prototyping_buttons_daughterboard,70726f74-6f74-4797-9069-6e675f627574,rev?*
G04 #@! TF.SameCoordinates,Original*
G04 #@! TF.FileFunction,Copper,L1,Top*
G04 #@! TF.FilePolarity,Positive*
%FSLAX46Y46*%
G04 Gerber Fmt 4.6, Leading zero omitted, Abs format (unit mm)*
G04 Created by KiCad (PCBNEW 5.1.5+dfsg1-2build2) date 2021-05-05 08:41:13*
%MOMM*%
%LPD*%
G04 APERTURE LIST*
%ADD10O,1.700000X1.700000*%
%ADD11R,1.700000X1.700000*%
%ADD12C,2.000000*%
%ADD13C,1.600000*%
%ADD14C,1.000000*%
G04 APERTURE END LIST*
D10*
X127007200Y-76200000D03*
X129547200Y-76200000D03*
X127007200Y-73660000D03*
X129547200Y-73660000D03*
X127007200Y-71120000D03*
X129547200Y-71120000D03*
X127007200Y-68580000D03*
X129547200Y-68580000D03*
X127007200Y-66040000D03*
X129547200Y-66040000D03*
X127007200Y-63500000D03*
X129547200Y-63500000D03*
X127007200Y-60960000D03*
X129547200Y-60960000D03*
X127007200Y-58420000D03*
X129547200Y-58420000D03*
X127007200Y-55880000D03*
X129547200Y-55880000D03*
X127007200Y-53340000D03*
D11*
X129547200Y-53340000D03*
D10*
X83820000Y-76200000D03*
X86360000Y-76200000D03*
X83820000Y-73660000D03*
X86360000Y-73660000D03*
X83820000Y-71120000D03*
X86360000Y-71120000D03*
X83820000Y-68580000D03*
X86360000Y-68580000D03*
X83820000Y-66040000D03*
X86360000Y-66040000D03*
X83820000Y-63500000D03*
X86360000Y-63500000D03*
X83820000Y-60960000D03*
X86360000Y-60960000D03*
X83820000Y-58420000D03*
X86360000Y-58420000D03*
X83820000Y-55880000D03*
X86360000Y-55880000D03*
X83820000Y-53340000D03*
D11*
X86360000Y-53340000D03*
D12*
X143660000Y-71120000D03*
X143660000Y-75620000D03*
X137160000Y-71120000D03*
X137160000Y-75620000D03*
X137010000Y-57150000D03*
X137010000Y-52650000D03*
X143510000Y-57150000D03*
X143510000Y-52650000D03*
X70970000Y-76200000D03*
X70970000Y-71700000D03*
X77470000Y-76200000D03*
X77470000Y-71700000D03*
X77620000Y-52070000D03*
X77620000Y-56570000D03*
X71120000Y-52070000D03*
X71120000Y-56570000D03*
D13*
X140970000Y-66040000D03*
X138470000Y-66040000D03*
X138470000Y-62230000D03*
X140970000Y-62230000D03*
X73700000Y-67310000D03*
X76200000Y-67310000D03*
X76160000Y-60960000D03*
X73660000Y-60960000D03*
D14*
X77620000Y-56570000D02*
X71120000Y-56570000D01*
X78740000Y-57690000D02*
X77620000Y-56570000D01*
X78740000Y-60960000D02*
X78740000Y-57690000D01*
X76160000Y-60960000D02*
X78740000Y-60960000D01*
X78740000Y-60960000D02*
X83820000Y-60960000D01*
X70970000Y-76200000D02*
X68580000Y-76200000D01*
X73700000Y-67310000D02*
X68580000Y-67310000D01*
X73660000Y-60960000D02*
X68580000Y-60960000D01*
X68580000Y-60960000D02*
X68580000Y-49530000D01*
X68580000Y-76200000D02*
X68580000Y-60960000D01*
X71120000Y-52070000D02*
X68580000Y-49530000D01*
X77470000Y-76200000D02*
X70970000Y-76200000D01*
X77620000Y-52070000D02*
X77620000Y-49680000D01*
X77620000Y-49680000D02*
X77470000Y-49530000D01*
X68580000Y-49530000D02*
X77470000Y-49530000D01*
X87630000Y-55880000D02*
X86360000Y-55880000D01*
X88900000Y-55880000D02*
X87630000Y-55880000D01*
X88900000Y-49530000D02*
X88900000Y-55880000D01*
X77470000Y-49530000D02*
X88900000Y-49530000D01*
X78230000Y-69340000D02*
X76200000Y-67310000D01*
X77470000Y-70100000D02*
X78230000Y-69340000D01*
X77470000Y-71700000D02*
X77470000Y-70100000D01*
X79500000Y-69340000D02*
X83820000Y-73660000D01*
X78230000Y-69340000D02*
X79500000Y-69340000D01*
X77470000Y-71700000D02*
X70970000Y-71700000D01*
X137010000Y-57150000D02*
X143510000Y-57150000D01*
X137010000Y-60770000D02*
X138470000Y-62230000D01*
X137010000Y-59540000D02*
X133500000Y-59540000D01*
X137010000Y-57150000D02*
X137010000Y-59540000D01*
X137010000Y-59540000D02*
X137010000Y-60770000D01*
X133500000Y-59540000D02*
X133350000Y-59390000D01*
X133350000Y-59390000D02*
X133350000Y-58870000D01*
X133350000Y-58870000D02*
X130360000Y-55880000D01*
X146050000Y-73230000D02*
X143660000Y-75620000D01*
X133245000Y-49530000D02*
X146050000Y-49530000D01*
X130360000Y-52415000D02*
X133245000Y-49530000D01*
X130360000Y-53340000D02*
X130360000Y-52415000D01*
X144780000Y-62230000D02*
X146050000Y-60960000D01*
X140970000Y-62230000D02*
X144780000Y-62230000D01*
X146050000Y-60960000D02*
X146050000Y-73230000D01*
X146050000Y-49530000D02*
X146050000Y-60960000D01*
X143510000Y-52650000D02*
X143510000Y-50800000D01*
X143510000Y-50800000D02*
X144780000Y-49530000D01*
X137010000Y-52650000D02*
X133890000Y-49530000D01*
X140970000Y-66040000D02*
X146050000Y-66040000D01*
X137160000Y-75620000D02*
X143660000Y-75620000D01*
X137170000Y-67340000D02*
X138470000Y-66040000D01*
X137160000Y-71120000D02*
X137160000Y-67310000D01*
X133350000Y-71120000D02*
X137160000Y-67310000D01*
X130360000Y-71120000D02*
X133350000Y-71120000D01*
X137160000Y-71120000D02*
X143660000Y-71120000D01*
M02*
